M48
; DRILL file {KiCad (6.0.7)} date Sun Aug 21 18:56:46 2022
; FORMAT={-:-/ absolute / inch / decimal}
; #@! TF.CreationDate,2022-08-21T18:56:46-05:00
; #@! TF.GenerationSoftware,Kicad,Pcbnew,(6.0.7)
; #@! TF.FileFunction,Plated,1,2,PTH
FMAT,2
INCH
; #@! TA.AperFunction,Plated,PTH,ViaDrill
T1C0.0157
; #@! TA.AperFunction,Plated,PTH,ComponentDrill
T2C0.0300
; #@! TA.AperFunction,Plated,PTH,ComponentDrill
T3C0.0315
; #@! TA.AperFunction,Plated,PTH,ComponentDrill
T4C0.0354
; #@! TA.AperFunction,Plated,PTH,ComponentDrill
T5C0.0394
; #@! TA.AperFunction,Plated,PTH,ComponentDrill
T6C0.0394
; #@! TA.AperFunction,Plated,PTH,ComponentDrill
T7C0.0433
%
G90
G05
T1
X6.2415Y-4.8515
X7.0856Y-5.0906
X7.3145Y-4.5323
X7.3282Y-3.4907
X7.3596Y-4.5342
X7.4109Y-5.2585
X7.4534Y-5.4708
X7.548Y-5.5284
X7.5831Y-6.3456
X7.7834Y-3.6925
X8.0294Y-4.6838
X8.1223Y-5.2767
X8.2709Y-5.5701
X8.3395Y-5.2762
X8.3762Y-6.447
X8.4579Y-5.2795
X8.7461Y-4.5318
X8.8553Y-4.8428
X8.9706Y-4.5888
X8.9845Y-5.2515
X9.0505Y-4.6537
X9.0976Y-7.386
X9.1462Y-7.2034
X9.1773Y-6.8246
X9.2061Y-4.8394
X9.2163Y-4.7867
X9.281Y-4.7571
X9.2907Y-6.6347
X9.2937Y-4.9249
X9.3845Y-7.2858
X9.3885Y-5.1185
X9.4821Y-7.0502
X9.5183Y-4.7236
X9.7076Y-7.1899
X9.9165Y-6.1642
X10.0311Y-5.9939
X10.0704Y-5.8563
X10.1212Y-3.9701
X10.132Y-4.0579
X10.192Y-4.1636
X10.269Y-6.686
X10.3465Y-6.1458
X10.4184Y-6.2912
X10.4827Y-6.6671
X10.6169Y-6.6502
X10.6538Y-5.9582
X10.8086Y-5.8627
X11.3593Y-3.8036
X11.4528Y-6.8526
X11.6101Y-6.3398
X12.0019Y-6.5728
T2
X5.2937Y-7.3228
X5.3937Y-7.3228
X5.4937Y-7.3228
T3
X5.2165Y-7.9528
X5.4134Y-7.9528
X5.4472Y-6.415
X5.4472Y-6.4976
X5.4472Y-6.6
X5.4472Y-6.6827
X5.5575Y-6.415
X5.5575Y-6.6827
X6.0311Y-5.4724
X6.2354Y-7.2516
X6.2354Y-7.5516
X6.2402Y-6.6929
X6.3311Y-5.4724
X6.437Y-6.6929
X6.8354Y-7.2516
X6.8354Y-7.5516
X6.8898Y-6.6929
X6.9685Y-6.6929
X7.3228Y-6.6929
X7.4016Y-6.6929
X8.3268Y-5.7087
X8.5236Y-5.7087
X8.5512Y-8.7943
X8.5512Y-8.8943
X8.5512Y-8.9943
X8.5512Y-9.0943
X8.5512Y-9.1943
X8.5512Y-9.2943
X8.5512Y-9.3943
X8.6024Y-8.5827
X8.6295Y-4.2126
X8.6295Y-4.4882
X8.6811Y-3.5827
X8.7992Y-8.5827
X8.8512Y-8.7943
X8.8512Y-8.8943
X8.8512Y-8.9943
X8.8512Y-9.0943
X8.8512Y-9.1943
X8.8512Y-9.2943
X8.8512Y-9.3943
X8.878Y-3.5827
X8.9295Y-4.2126
X8.9295Y-4.4882
X9.102Y-5.315
X9.402Y-5.315
X9.6211Y-5.2215
X9.6211Y-5.3215
X9.6211Y-5.4215
X9.6211Y-5.5215
X9.6211Y-5.6215
X9.6211Y-5.7215
X9.6211Y-5.8215
X9.6211Y-5.9215
X9.6211Y-6.0215
X9.6211Y-6.1215
X9.6211Y-6.2215
X9.6211Y-6.3215
X9.6211Y-6.4215
X9.6211Y-6.5215
X9.6211Y-6.6215
X9.6211Y-6.7215
X9.6211Y-6.8215
X9.6211Y-6.9215
X9.6211Y-7.0215
X9.6211Y-7.1215
X9.6211Y-7.9478
X9.6211Y-8.0478
X9.6211Y-8.1478
X9.6211Y-8.2478
X9.6211Y-8.3478
X9.6211Y-8.4478
X9.6211Y-8.5478
X9.6211Y-8.6478
X9.6211Y-8.7478
X9.6211Y-8.8478
X9.6211Y-8.9478
X9.6211Y-9.0478
X9.6211Y-9.1478
X9.6211Y-9.2478
X9.6211Y-9.3478
X9.6211Y-9.4478
X9.6211Y-9.5478
X9.6211Y-9.6478
X9.6211Y-9.7478
X9.6211Y-9.8478
X9.7717Y-3.6132
X9.7717Y-3.7132
X9.7717Y-3.8132
X9.7717Y-3.9132
X9.7717Y-4.0132
X9.7717Y-4.1132
X9.7717Y-4.2132
X9.7717Y-4.3132
X9.7717Y-4.4132
X9.7717Y-4.5132
X9.7717Y-4.6132
X9.7717Y-4.7132
X9.8228Y-3.4154
X9.8228Y-5.0295
X9.8228Y-7.7461
X10.0197Y-3.4154
X10.0197Y-5.0295
X10.0197Y-7.7461
X10.0717Y-3.6132
X10.0717Y-3.7132
X10.0717Y-3.8132
X10.0717Y-3.9132
X10.0717Y-4.0132
X10.0717Y-4.1132
X10.0717Y-4.2132
X10.0717Y-4.3132
X10.0717Y-4.4132
X10.0717Y-4.5132
X10.0717Y-4.6132
X10.0717Y-4.7132
X10.2211Y-5.2215
X10.2211Y-5.3215
X10.2211Y-5.4215
X10.2211Y-5.5215
X10.2211Y-5.6215
X10.2211Y-5.7215
X10.2211Y-5.8215
X10.2211Y-5.9215
X10.2211Y-6.0215
X10.2211Y-6.1215
X10.2211Y-6.2215
X10.2211Y-6.3215
X10.2211Y-6.4215
X10.2211Y-6.5215
X10.2211Y-6.6215
X10.2211Y-6.7215
X10.2211Y-6.8215
X10.2211Y-6.9215
X10.2211Y-7.0215
X10.2211Y-7.1215
X10.2211Y-7.9478
X10.2211Y-8.0478
X10.2211Y-8.1478
X10.2211Y-8.2478
X10.2211Y-8.3478
X10.2211Y-8.4478
X10.2211Y-8.5478
X10.2211Y-8.6478
X10.2211Y-8.7478
X10.2211Y-8.8478
X10.2211Y-8.9478
X10.2211Y-9.0478
X10.2211Y-9.1478
X10.2211Y-9.2478
X10.2211Y-9.3478
X10.2211Y-9.4478
X10.2211Y-9.5478
X10.2211Y-9.6478
X10.2211Y-9.7478
X10.2211Y-9.8478
X10.4799Y-5.5512
X10.4874Y-5.7748
X10.4874Y-6.0748
X10.4874Y-6.3323
X10.4874Y-6.5748
X10.7799Y-5.5512
X10.7874Y-5.7748
X10.7874Y-6.0748
X10.7874Y-6.3323
X10.7874Y-6.5748
X11.5108Y-5.3917
X11.5108Y-5.4917
X11.5108Y-5.5917
X11.5108Y-5.6917
X11.5108Y-5.7917
X11.5108Y-5.8917
X11.5108Y-5.9917
X11.5108Y-6.0917
X11.5108Y-6.1917
X11.5108Y-6.2917
X11.5108Y-6.3917
X11.5108Y-6.4917
X11.5108Y-6.5917
X11.5108Y-6.6917
X11.5108Y-6.7917
X11.5108Y-6.8917
X11.5108Y-7.9478
X11.5108Y-8.0478
X11.5108Y-8.1478
X11.5108Y-8.2478
X11.5108Y-8.3478
X11.5108Y-8.4478
X11.5108Y-8.5478
X11.5108Y-8.6478
X11.5108Y-8.7478
X11.5108Y-8.8478
X11.5108Y-8.9478
X11.5108Y-9.0478
X11.5108Y-9.1478
X11.5108Y-9.2478
X11.5108Y-9.3478
X11.5108Y-9.4478
X11.5108Y-9.5478
X11.5108Y-9.6478
X11.5108Y-9.7478
X11.5108Y-9.8478
X11.622Y-3.5837
X11.622Y-3.6837
X11.622Y-3.7837
X11.622Y-3.8837
X11.622Y-3.9837
X11.622Y-4.0837
X11.622Y-4.1837
X11.622Y-4.2837
X11.622Y-4.3837
X11.622Y-4.4837
X11.622Y-4.5837
X11.622Y-4.6837
X11.6732Y-3.3858
X11.7126Y-5.1969
X11.7126Y-7.7559
X11.8701Y-3.3858
X11.9094Y-5.1969
X11.9094Y-7.7559
X11.922Y-3.5837
X11.922Y-3.6837
X11.922Y-3.7837
X11.922Y-3.8837
X11.922Y-3.9837
X11.922Y-4.0837
X11.922Y-4.1837
X11.922Y-4.2837
X11.922Y-4.3837
X11.922Y-4.4837
X11.922Y-4.5837
X11.922Y-4.6837
X12.1108Y-5.3917
X12.1108Y-5.4917
X12.1108Y-5.5917
X12.1108Y-5.6917
X12.1108Y-5.7917
X12.1108Y-5.8917
X12.1108Y-5.9917
X12.1108Y-6.0917
X12.1108Y-6.1917
X12.1108Y-6.2917
X12.1108Y-6.3917
X12.1108Y-6.4917
X12.1108Y-6.5917
X12.1108Y-6.6917
X12.1108Y-6.7917
X12.1108Y-6.8917
X12.1108Y-7.9478
X12.1108Y-8.0478
X12.1108Y-8.1478
X12.1108Y-8.2478
X12.1108Y-8.3478
X12.1108Y-8.4478
X12.1108Y-8.5478
X12.1108Y-8.6478
X12.1108Y-8.7478
X12.1108Y-8.8478
X12.1108Y-8.9478
X12.1108Y-9.0478
X12.1108Y-9.1478
X12.1108Y-9.2478
X12.1108Y-9.3478
X12.1108Y-9.4478
X12.1108Y-9.5478
X12.1108Y-9.6478
X12.1108Y-9.7478
X12.1108Y-9.8478
T4
X6.5142Y-5.4724
X6.6142Y-5.4724
T5
X5.4512Y-3.1606
X5.4512Y-3.2606
X5.4512Y-3.3606
X5.4512Y-3.4606
X5.4512Y-3.5606
X5.4512Y-3.6606
X5.4512Y-3.7606
X5.4512Y-3.8606
X5.4512Y-3.9606
X5.4512Y-4.0606
X5.4512Y-4.1606
X5.4512Y-4.2606
X5.4512Y-4.3606
X5.4512Y-4.4606
X5.4512Y-4.5606
X5.4512Y-4.6606
X5.4512Y-4.7606
X5.4512Y-4.8606
X5.4512Y-4.9606
X5.4512Y-5.0606
X5.5512Y-3.1606
X5.5512Y-3.2606
X5.5512Y-3.3606
X5.5512Y-3.4606
X5.5512Y-3.5606
X5.5512Y-3.6606
X5.5512Y-3.7606
X5.5512Y-3.8606
X5.5512Y-3.9606
X5.5512Y-4.0606
X5.5512Y-4.1606
X5.5512Y-4.2606
X5.5512Y-4.3606
X5.5512Y-4.4606
X5.5512Y-4.5606
X5.5512Y-4.6606
X5.5512Y-4.7606
X5.5512Y-4.8606
X5.5512Y-4.9606
X5.5512Y-5.0606
X5.9055Y-5.748
X5.9055Y-5.848
X6.3173Y-3.1717
X6.3173Y-3.2717
X6.3173Y-3.3717
X6.3173Y-3.4717
X6.3173Y-3.5717
X6.3173Y-3.6717
X6.3173Y-3.7717
X6.3173Y-3.8717
X6.3173Y-3.9717
X6.3173Y-4.0717
X6.3173Y-4.1717
X6.3173Y-4.2717
X6.3173Y-4.3717
X6.3173Y-4.4717
X6.3173Y-4.5717
X6.3173Y-4.6717
X6.3173Y-4.7717
X6.3173Y-4.8717
X6.3173Y-4.9717
X6.3173Y-5.0717
X6.4173Y-3.1717
X6.4173Y-3.2717
X6.4173Y-3.3717
X6.4173Y-3.4717
X6.4173Y-3.5717
X6.4173Y-3.6717
X6.4173Y-3.7717
X6.4173Y-3.8717
X6.4173Y-3.9717
X6.4173Y-4.0717
X6.4173Y-4.1717
X6.4173Y-4.2717
X6.4173Y-4.3717
X6.4173Y-4.4717
X6.4173Y-4.5717
X6.4173Y-4.6717
X6.4173Y-4.7717
X6.4173Y-4.8717
X6.4173Y-4.9717
X6.4173Y-5.0717
X7.1441Y-3.1577
X7.1441Y-3.2577
X7.1441Y-3.3577
X7.1441Y-3.4577
X7.1441Y-3.5577
X7.1441Y-3.6577
X7.1441Y-3.7577
X7.1441Y-3.8577
X7.1441Y-3.9577
X7.1441Y-4.0577
X7.1441Y-4.1577
X7.1441Y-4.2577
X7.1441Y-4.3577
X7.1441Y-4.4577
X7.1441Y-4.5577
X7.1441Y-4.6577
X7.1441Y-4.7577
X7.1441Y-4.8577
X7.1441Y-4.9577
X7.1441Y-5.0577
X7.2441Y-3.1577
X7.2441Y-3.2577
X7.2441Y-3.3577
X7.2441Y-3.4577
X7.2441Y-3.5577
X7.2441Y-3.6577
X7.2441Y-3.7577
X7.2441Y-3.8577
X7.2441Y-3.9577
X7.2441Y-4.0577
X7.2441Y-4.1577
X7.2441Y-4.2577
X7.2441Y-4.3577
X7.2441Y-4.4577
X7.2441Y-4.5577
X7.2441Y-4.6577
X7.2441Y-4.7577
X7.2441Y-4.8577
X7.2441Y-4.9577
X7.2441Y-5.0577
X7.8528Y-3.1606
X7.8528Y-3.2606
X7.8528Y-3.3606
X7.8528Y-3.4606
X7.8528Y-3.5606
X7.8528Y-3.6606
X7.8528Y-3.7606
X7.8528Y-3.8606
X7.8528Y-3.9606
X7.8528Y-4.0606
X7.8528Y-4.1606
X7.8528Y-4.2606
X7.8528Y-4.3606
X7.8528Y-4.4606
X7.8528Y-4.5606
X7.8528Y-4.6606
X7.8528Y-4.7606
X7.8528Y-4.8606
X7.8528Y-4.9606
X7.8528Y-5.0606
X7.9528Y-3.1606
X7.9528Y-3.2606
X7.9528Y-3.3606
X7.9528Y-3.4606
X7.9528Y-3.5606
X7.9528Y-3.6606
X7.9528Y-3.7606
X7.9528Y-3.8606
X7.9528Y-3.9606
X7.9528Y-4.0606
X7.9528Y-4.1606
X7.9528Y-4.2606
X7.9528Y-4.3606
X7.9528Y-4.4606
X7.9528Y-4.5606
X7.9528Y-4.6606
X7.9528Y-4.7606
X7.9528Y-4.8606
X7.9528Y-4.9606
X7.9528Y-5.0606
X8.1538Y-6.2799
X8.1538Y-6.3799
X8.1538Y-6.4799
X8.1538Y-6.5799
X8.1538Y-6.6799
X8.1538Y-6.7799
X8.1538Y-6.8799
X8.1538Y-6.9799
X8.1538Y-7.0799
X8.1538Y-7.1799
X8.1538Y-7.2799
X8.1538Y-7.3799
X8.1538Y-7.4799
X8.1538Y-7.5799
X8.7538Y-6.2799
X8.7538Y-6.3799
X8.7538Y-6.4799
X8.7538Y-6.5799
X8.7538Y-6.6799
X8.7538Y-6.7799
X8.7538Y-6.8799
X8.7538Y-6.9799
X8.7538Y-7.0799
X8.7538Y-7.1799
X8.7538Y-7.2799
X8.7538Y-7.3799
X8.7538Y-7.4799
X8.7538Y-7.5799
X9.252Y-8.877
X9.252Y-8.977
X9.252Y-9.077
X9.4094Y-3.8189
X9.4094Y-3.9189
X10.7136Y-7.4409
X10.8136Y-7.4409
X10.9136Y-7.4409
X11.0136Y-7.4409
X11.0236Y-7.9183
X11.0236Y-8.0183
X11.0236Y-8.1183
X11.0236Y-8.2183
X11.0236Y-8.3183
X11.0236Y-8.4183
X11.0236Y-8.5183
X11.0236Y-8.6183
X11.0236Y-8.9813
X11.0236Y-9.0813
X11.0236Y-9.1813
X11.0236Y-9.2813
X11.0236Y-9.3813
X11.0236Y-9.4813
X11.0236Y-9.5813
X11.0236Y-9.6813
X11.063Y-3.6132
X11.063Y-3.7132
X11.063Y-4.1309
X11.063Y-4.2309
X11.063Y-4.3309
X11.063Y-4.4309
X11.063Y-4.5309
X11.1136Y-7.4409
X11.2136Y-7.4409
X11.3136Y-7.4409
X11.4136Y-7.4409
T6
X5.5512Y-8.248
X5.6512Y-8.248
X5.7512Y-8.248
X5.8512Y-8.248
X5.9512Y-8.248
X6.0512Y-8.248
X6.1512Y-8.248
X6.2512Y-8.248
X6.3512Y-8.248
X6.4512Y-8.248
X6.5512Y-8.248
X6.6512Y-8.248
X6.7512Y-8.248
X6.8512Y-8.248
X6.9512Y-8.248
X7.0512Y-8.248
T7
X6.2878Y-6.1982
X6.378Y-6.1982
X6.4681Y-6.1982
X6.7209Y-6.1982
X6.811Y-6.1982
X6.9012Y-6.1982
X8.6516Y-3.7697
X8.6516Y-3.9469
X8.6516Y-4.7539
X8.6516Y-4.9311
X8.9075Y-3.7697
X8.9075Y-3.9469
X8.9075Y-4.7539
X8.9075Y-4.9311
T5
G00X5.3035Y-6.5094
M15
G01X5.3035Y-6.5882
M16
G05
G00X5.3646Y-6.2791
M15
G01X5.3055Y-6.2791
M16
G05
G00X5.3646Y-6.8185
M15
G01X5.3055Y-6.8185
M16
G05
G00X5.4Y-5.7606
M15
G01X5.4Y-5.8394
M16
G05
G00X5.4787Y-5.985
M15
G01X5.5575Y-5.985
M16
G05
G00X5.6362Y-5.7606
M15
G01X5.6362Y-5.8394
M16
G05
T0
M30
