%TF.GenerationSoftware,KiCad,Pcbnew,(6.0.7)*%
%TF.CreationDate,2022-08-24T10:03:48-05:00*%
%TF.ProjectId,6502,36353032-2e6b-4696-9361-645f70636258,rev?*%
%TF.SameCoordinates,Original*%
%TF.FileFunction,Copper,L2,Bot*%
%TF.FilePolarity,Positive*%
%FSLAX46Y46*%
G04 Gerber Fmt 4.6, Leading zero omitted, Abs format (unit mm)*
G04 Created by KiCad (PCBNEW (6.0.7)) date 2022-08-24 10:03:48*
%MOMM*%
%LPD*%
G01*
G04 APERTURE LIST*
G04 Aperture macros list*
%AMRoundRect*
0 Rectangle with rounded corners*
0 $1 Rounding radius*
0 $2 $3 $4 $5 $6 $7 $8 $9 X,Y pos of 4 corners*
0 Add a 4 corners polygon primitive as box body*
4,1,4,$2,$3,$4,$5,$6,$7,$8,$9,$2,$3,0*
0 Add four circle primitives for the rounded corners*
1,1,$1+$1,$2,$3*
1,1,$1+$1,$4,$5*
1,1,$1+$1,$6,$7*
1,1,$1+$1,$8,$9*
0 Add four rect primitives between the rounded corners*
20,1,$1+$1,$2,$3,$4,$5,0*
20,1,$1+$1,$4,$5,$6,$7,0*
20,1,$1+$1,$6,$7,$8,$9,0*
20,1,$1+$1,$8,$9,$2,$3,0*%
G04 Aperture macros list end*
%TA.AperFunction,ComponentPad*%
%ADD10R,1.700000X1.700000*%
%TD*%
%TA.AperFunction,ComponentPad*%
%ADD11O,1.700000X1.700000*%
%TD*%
%TA.AperFunction,ComponentPad*%
%ADD12C,1.600000*%
%TD*%
%TA.AperFunction,ComponentPad*%
%ADD13R,1.600000X1.600000*%
%TD*%
%TA.AperFunction,ComponentPad*%
%ADD14O,1.600000X1.600000*%
%TD*%
%TA.AperFunction,ComponentPad*%
%ADD15C,8.000000*%
%TD*%
%TA.AperFunction,ComponentPad*%
%ADD16O,1.501140X4.000500*%
%TD*%
%TA.AperFunction,ComponentPad*%
%ADD17O,3.500000X2.000000*%
%TD*%
%TA.AperFunction,ComponentPad*%
%ADD18O,2.000000X4.000000*%
%TD*%
%TA.AperFunction,ComponentPad*%
%ADD19C,1.440000*%
%TD*%
%TA.AperFunction,ComponentPad*%
%ADD20R,3.500000X3.500000*%
%TD*%
%TA.AperFunction,ComponentPad*%
%ADD21RoundRect,0.750000X-0.750000X-1.000000X0.750000X-1.000000X0.750000X1.000000X-0.750000X1.000000X0*%
%TD*%
%TA.AperFunction,ComponentPad*%
%ADD22RoundRect,0.875000X-0.875000X-0.875000X0.875000X-0.875000X0.875000X0.875000X-0.875000X0.875000X0*%
%TD*%
%TA.AperFunction,ComponentPad*%
%ADD23R,2.000000X1.440000*%
%TD*%
%TA.AperFunction,ComponentPad*%
%ADD24O,2.000000X1.440000*%
%TD*%
%TA.AperFunction,ComponentPad*%
%ADD25C,2.000000*%
%TD*%
%TA.AperFunction,ComponentPad*%
%ADD26R,1.717500X1.800000*%
%TD*%
%TA.AperFunction,ComponentPad*%
%ADD27O,1.717500X1.800000*%
%TD*%
%TA.AperFunction,ComponentPad*%
%ADD28R,1.800000X1.800000*%
%TD*%
%TA.AperFunction,ComponentPad*%
%ADD29C,1.800000*%
%TD*%
%TA.AperFunction,ViaPad*%
%ADD30C,0.800000*%
%TD*%
%TA.AperFunction,Conductor*%
%ADD31C,0.250000*%
%TD*%
G04 APERTURE END LIST*
D10*
%TO.P,J3,1,Pin_1*%
%TO.N,1pa6*%
X214000000Y-224500000D03*
D11*
%TO.P,J3,2,Pin_2*%
%TO.N,1pa7*%
X214000000Y-227040000D03*
%TO.P,J3,3,Pin_3*%
%TO.N,1pb7*%
X214000000Y-229580000D03*
%TD*%
D12*
%TO.P,C6,1*%
%TO.N,+5V*%
X158500000Y-170000000D03*
%TO.P,C6,2*%
%TO.N,GND*%
X163500000Y-170000000D03*
%TD*%
D13*
%TO.P,U5,1,~{VP}*%
%TO.N,VP*%
X228375000Y-132625000D03*
D14*
%TO.P,U5,2,RDY*%
%TO.N,RDY*%
X228375000Y-135165000D03*
%TO.P,U5,3,PHI1O*%
%TO.N,PHI1O*%
X228375000Y-137705000D03*
%TO.P,U5,4,~{IRQ}*%
%TO.N,IRQ*%
X228375000Y-140245000D03*
%TO.P,U5,5,~{ML}*%
%TO.N,ML*%
X228375000Y-142785000D03*
%TO.P,U5,6,~{NMI}*%
%TO.N,NMI*%
X228375000Y-145325000D03*
%TO.P,U5,7,SYNC*%
%TO.N,SYNC*%
X228375000Y-147865000D03*
%TO.P,U5,8,VDD*%
%TO.N,+5V*%
X228375000Y-150405000D03*
%TO.P,U5,9,A0*%
%TO.N,a0*%
X228375000Y-152945000D03*
%TO.P,U5,10,A1*%
%TO.N,a1*%
X228375000Y-155485000D03*
%TO.P,U5,11,A2*%
%TO.N,a2*%
X228375000Y-158025000D03*
%TO.P,U5,12,A3*%
%TO.N,a3*%
X228375000Y-160565000D03*
%TO.P,U5,13,A4*%
%TO.N,a4*%
X228375000Y-163105000D03*
%TO.P,U5,14,A5*%
%TO.N,a5*%
X228375000Y-165645000D03*
%TO.P,U5,15,A6*%
%TO.N,a6*%
X228375000Y-168185000D03*
%TO.P,U5,16,A7*%
%TO.N,a7*%
X228375000Y-170725000D03*
%TO.P,U5,17,A8*%
%TO.N,a8*%
X228375000Y-173265000D03*
%TO.P,U5,18,A9*%
%TO.N,a9*%
X228375000Y-175805000D03*
%TO.P,U5,19,A10*%
%TO.N,a10*%
X228375000Y-178345000D03*
%TO.P,U5,20,A11*%
%TO.N,a11*%
X228375000Y-180885000D03*
%TO.P,U5,21,VSS*%
%TO.N,GND*%
X243615000Y-180885000D03*
%TO.P,U5,22,A12*%
%TO.N,a12*%
X243615000Y-178345000D03*
%TO.P,U5,23,A13*%
%TO.N,a13*%
X243615000Y-175805000D03*
%TO.P,U5,24,A14*%
%TO.N,a14*%
X243615000Y-173265000D03*
%TO.P,U5,25,A15*%
%TO.N,a15*%
X243615000Y-170725000D03*
%TO.P,U5,26,D7*%
%TO.N,d7*%
X243615000Y-168185000D03*
%TO.P,U5,27,D6*%
%TO.N,d6*%
X243615000Y-165645000D03*
%TO.P,U5,28,D5*%
%TO.N,d5*%
X243615000Y-163105000D03*
%TO.P,U5,29,D4*%
%TO.N,d4*%
X243615000Y-160565000D03*
%TO.P,U5,30,D3*%
%TO.N,d3*%
X243615000Y-158025000D03*
%TO.P,U5,31,D2*%
%TO.N,d2*%
X243615000Y-155485000D03*
%TO.P,U5,32,D1*%
%TO.N,d1*%
X243615000Y-152945000D03*
%TO.P,U5,33,D0*%
%TO.N,d0*%
X243615000Y-150405000D03*
%TO.P,U5,34,~{RW}*%
%TO.N,RW*%
X243615000Y-147865000D03*
%TO.P,U5,35,NC*%
%TO.N,unconnected-(U5-Pad35)*%
X243615000Y-145325000D03*
%TO.P,U5,36,BE*%
%TO.N,BE*%
X243615000Y-142785000D03*
%TO.P,U5,37,PHI2*%
%TO.N,PHI2*%
X243615000Y-140245000D03*
%TO.P,U5,38,~{SO}*%
%TO.N,+5V*%
X243615000Y-137705000D03*
%TO.P,U5,39,PHI2O*%
%TO.N,unconnected-(U5-Pad39)*%
X243615000Y-135165000D03*
%TO.P,U5,40,~{RES}*%
%TO.N,RESET*%
X243615000Y-132625000D03*
%TD*%
D12*
%TO.P,C5,1*%
%TO.N,GND*%
X233500000Y-86750000D03*
%TO.P,C5,2*%
%TO.N,+5V*%
X238500000Y-86750000D03*
%TD*%
D13*
%TO.P,U2,1,S0*%
%TO.N,VIA1_CS*%
X232200000Y-91775000D03*
D14*
%TO.P,U2,2,S1*%
%TO.N,VIA2_CS*%
X232200000Y-94315000D03*
%TO.P,U2,3,S2*%
%TO.N,dev2*%
X232200000Y-96855000D03*
%TO.P,U2,4,S3*%
%TO.N,dev3*%
X232200000Y-99395000D03*
%TO.P,U2,5,S4*%
%TO.N,dev4*%
X232200000Y-101935000D03*
%TO.P,U2,6,S5*%
%TO.N,dev5*%
X232200000Y-104475000D03*
%TO.P,U2,7,S6*%
%TO.N,dev6*%
X232200000Y-107015000D03*
%TO.P,U2,8,S7*%
%TO.N,dev7*%
X232200000Y-109555000D03*
%TO.P,U2,9,S8*%
%TO.N,dev8*%
X232200000Y-112095000D03*
%TO.P,U2,10,S9*%
%TO.N,dev9*%
X232200000Y-114635000D03*
%TO.P,U2,11,S10*%
%TO.N,dev10*%
X232200000Y-117175000D03*
%TO.P,U2,12,GND*%
%TO.N,GND*%
X232200000Y-119715000D03*
%TO.P,U2,13,S11*%
%TO.N,dev11*%
X239820000Y-119715000D03*
%TO.P,U2,14,S12*%
%TO.N,dev12*%
X239820000Y-117175000D03*
%TO.P,U2,15,S13*%
%TO.N,dev13*%
X239820000Y-114635000D03*
%TO.P,U2,16,S14*%
%TO.N,dev14*%
X239820000Y-112095000D03*
%TO.P,U2,17,S15*%
%TO.N,dev15*%
X239820000Y-109555000D03*
%TO.P,U2,18,E0*%
%TO.N,a15*%
X239820000Y-107015000D03*
%TO.P,U2,19,E1*%
%TO.N,DEVICE_CS*%
X239820000Y-104475000D03*
%TO.P,U2,20,A3*%
%TO.N,a7*%
X239820000Y-101935000D03*
%TO.P,U2,21,A2*%
%TO.N,a6*%
X239820000Y-99395000D03*
%TO.P,U2,22,A1*%
%TO.N,a5*%
X239820000Y-96855000D03*
%TO.P,U2,23,A0*%
%TO.N,a4*%
X239820000Y-94315000D03*
%TO.P,U2,24,VCC*%
%TO.N,+5V*%
X239820000Y-91775000D03*
%TD*%
D15*
%TO.P,REF2,1*%
%TO.N,N/C*%
X280000000Y-76000000D03*
%TD*%
D16*
%TO.P,U9,1,VSS*%
%TO.N,GND*%
X141000840Y-209499420D03*
%TO.P,U9,2,VDD*%
%TO.N,+5V*%
X143540840Y-209499420D03*
%TO.P,U9,3,VO*%
%TO.N,Net-(RV1-Pad2)*%
X146080840Y-209499420D03*
%TO.P,U9,4,RS*%
%TO.N,1pb4*%
X148620840Y-209499420D03*
%TO.P,U9,5,R/W*%
%TO.N,1pb5*%
X151160840Y-209499420D03*
%TO.P,U9,6,E*%
%TO.N,1pb6*%
X153700840Y-209499420D03*
%TO.P,U9,7,DB0*%
%TO.N,GND*%
X156240840Y-209499420D03*
%TO.P,U9,8,DB1*%
X158780840Y-209499420D03*
%TO.P,U9,9,DB2*%
X161320840Y-209499420D03*
%TO.P,U9,10,DB3*%
X163860840Y-209499420D03*
%TO.P,U9,11,DB4*%
%TO.N,1pb0*%
X166400840Y-209499420D03*
%TO.P,U9,12,DB5*%
%TO.N,1pb1*%
X168940840Y-209499420D03*
%TO.P,U9,13,DB6*%
%TO.N,1pb2*%
X171480840Y-209499420D03*
%TO.P,U9,14,DB7*%
%TO.N,1pb3*%
X174020840Y-209499420D03*
%TO.P,U9,15,A*%
%TO.N,+5V*%
X176560840Y-209499420D03*
%TO.P,U9,16,K*%
%TO.N,GND*%
X179100840Y-209499420D03*
%TD*%
D12*
%TO.P,R7,1*%
%TO.N,1pa3*%
X258000000Y-146680000D03*
D14*
%TO.P,R7,2*%
%TO.N,GND*%
X250380000Y-146680000D03*
%TD*%
D12*
%TO.P,R8,1*%
%TO.N,BE*%
X250190000Y-141000000D03*
D14*
%TO.P,R8,2*%
%TO.N,+5V*%
X257810000Y-141000000D03*
%TD*%
D12*
%TO.P,R2,1*%
%TO.N,+5V*%
X211190000Y-134000000D03*
D14*
%TO.P,R2,2*%
%TO.N,RDY*%
X218810000Y-134000000D03*
%TD*%
D13*
%TO.P,J11,1*%
%TO.N,1pa5*%
X138360000Y-167640000D03*
D12*
%TO.P,J11,2*%
%TO.N,unconnected-(J11-Pad2)*%
X138360000Y-165040000D03*
%TO.P,J11,3*%
%TO.N,GND*%
X138360000Y-169740000D03*
%TO.P,J11,4*%
%TO.N,+5V*%
X138360000Y-162940000D03*
%TO.P,J11,5*%
%TO.N,1pa4*%
X141160000Y-169740000D03*
%TO.P,J11,6*%
%TO.N,unconnected-(J11-Pad6)*%
X141160000Y-162940000D03*
D17*
%TO.P,J11,7*%
%TO.N,N/C*%
X135510000Y-173190000D03*
D18*
X134710000Y-166340000D03*
D17*
X135510000Y-159490000D03*
%TD*%
D12*
%TO.P,C10,1*%
%TO.N,GND*%
X233500000Y-196750000D03*
%TO.P,C10,2*%
%TO.N,+5V*%
X238500000Y-196750000D03*
%TD*%
D13*
%TO.P,X1,1,NC*%
%TO.N,unconnected-(X1-Pad1)*%
X158380000Y-191810000D03*
D12*
%TO.P,X1,7,GND*%
%TO.N,GND*%
X173620000Y-191810000D03*
%TO.P,X1,8,OUT*%
%TO.N,PHI2*%
X173620000Y-184190000D03*
%TO.P,X1,14,Vcc*%
%TO.N,+5V*%
X158380000Y-184190000D03*
%TD*%
D10*
%TO.P,J12,1,Pin_1*%
%TO.N,a0*%
X138460000Y-80280000D03*
D11*
%TO.P,J12,2,Pin_2*%
%TO.N,d0*%
X141000000Y-80280000D03*
%TO.P,J12,3,Pin_3*%
%TO.N,a1*%
X138460000Y-82820000D03*
%TO.P,J12,4,Pin_4*%
%TO.N,d1*%
X141000000Y-82820000D03*
%TO.P,J12,5,Pin_5*%
%TO.N,a2*%
X138460000Y-85360000D03*
%TO.P,J12,6,Pin_6*%
%TO.N,d2*%
X141000000Y-85360000D03*
%TO.P,J12,7,Pin_7*%
%TO.N,a3*%
X138460000Y-87900000D03*
%TO.P,J12,8,Pin_8*%
%TO.N,d3*%
X141000000Y-87900000D03*
%TO.P,J12,9,Pin_9*%
%TO.N,a4*%
X138460000Y-90440000D03*
%TO.P,J12,10,Pin_10*%
%TO.N,d4*%
X141000000Y-90440000D03*
%TO.P,J12,11,Pin_11*%
%TO.N,a5*%
X138460000Y-92980000D03*
%TO.P,J12,12,Pin_12*%
%TO.N,d5*%
X141000000Y-92980000D03*
%TO.P,J12,13,Pin_13*%
%TO.N,a6*%
X138460000Y-95520000D03*
%TO.P,J12,14,Pin_14*%
%TO.N,d6*%
X141000000Y-95520000D03*
%TO.P,J12,15,Pin_15*%
%TO.N,a7*%
X138460000Y-98060000D03*
%TO.P,J12,16,Pin_16*%
%TO.N,d7*%
X141000000Y-98060000D03*
%TO.P,J12,17,Pin_17*%
%TO.N,a8*%
X138460000Y-100600000D03*
%TO.P,J12,18,Pin_18*%
%TO.N,RW*%
X141000000Y-100600000D03*
%TO.P,J12,19,Pin_19*%
%TO.N,a9*%
X138460000Y-103140000D03*
%TO.P,J12,20,Pin_20*%
%TO.N,PHI2*%
X141000000Y-103140000D03*
%TO.P,J12,21,Pin_21*%
%TO.N,a10*%
X138460000Y-105680000D03*
%TO.P,J12,22,Pin_22*%
%TO.N,RESET*%
X141000000Y-105680000D03*
%TO.P,J12,23,Pin_23*%
%TO.N,a11*%
X138460000Y-108220000D03*
%TO.P,J12,24,Pin_24*%
%TO.N,SYNC*%
X141000000Y-108220000D03*
%TO.P,J12,25,Pin_25*%
%TO.N,a12*%
X138460000Y-110760000D03*
%TO.P,J12,26,Pin_26*%
%TO.N,IRQ*%
X141000000Y-110760000D03*
%TO.P,J12,27,Pin_27*%
%TO.N,a13*%
X138460000Y-113300000D03*
%TO.P,J12,28,Pin_28*%
%TO.N,BE*%
X141000000Y-113300000D03*
%TO.P,J12,29,Pin_29*%
%TO.N,a14*%
X138460000Y-115840000D03*
%TO.P,J12,30,Pin_30*%
%TO.N,RDY*%
X141000000Y-115840000D03*
%TO.P,J12,31,Pin_31*%
%TO.N,a15*%
X138460000Y-118380000D03*
%TO.P,J12,32,Pin_32*%
%TO.N,VP*%
X141000000Y-118380000D03*
%TO.P,J12,33,Pin_33*%
%TO.N,dev13*%
X138460000Y-120920000D03*
%TO.P,J12,34,Pin_34*%
%TO.N,ML*%
X141000000Y-120920000D03*
%TO.P,J12,35,Pin_35*%
%TO.N,dev14*%
X138460000Y-123460000D03*
%TO.P,J12,36,Pin_36*%
%TO.N,NMI*%
X141000000Y-123460000D03*
%TO.P,J12,37,Pin_37*%
%TO.N,dev15*%
X138460000Y-126000000D03*
%TO.P,J12,38,Pin_38*%
%TO.N,PHI1O*%
X141000000Y-126000000D03*
%TO.P,J12,39,Pin_39*%
%TO.N,+5V*%
X138460000Y-128540000D03*
%TO.P,J12,40,Pin_40*%
%TO.N,GND*%
X141000000Y-128540000D03*
%TD*%
D10*
%TO.P,J10,1,Pin_1*%
%TO.N,a0*%
X199460000Y-80280000D03*
D11*
%TO.P,J10,2,Pin_2*%
%TO.N,d0*%
X202000000Y-80280000D03*
%TO.P,J10,3,Pin_3*%
%TO.N,a1*%
X199460000Y-82820000D03*
%TO.P,J10,4,Pin_4*%
%TO.N,d1*%
X202000000Y-82820000D03*
%TO.P,J10,5,Pin_5*%
%TO.N,a2*%
X199460000Y-85360000D03*
%TO.P,J10,6,Pin_6*%
%TO.N,d2*%
X202000000Y-85360000D03*
%TO.P,J10,7,Pin_7*%
%TO.N,a3*%
X199460000Y-87900000D03*
%TO.P,J10,8,Pin_8*%
%TO.N,d3*%
X202000000Y-87900000D03*
%TO.P,J10,9,Pin_9*%
%TO.N,a4*%
X199460000Y-90440000D03*
%TO.P,J10,10,Pin_10*%
%TO.N,d4*%
X202000000Y-90440000D03*
%TO.P,J10,11,Pin_11*%
%TO.N,a5*%
X199460000Y-92980000D03*
%TO.P,J10,12,Pin_12*%
%TO.N,d5*%
X202000000Y-92980000D03*
%TO.P,J10,13,Pin_13*%
%TO.N,a6*%
X199460000Y-95520000D03*
%TO.P,J10,14,Pin_14*%
%TO.N,d6*%
X202000000Y-95520000D03*
%TO.P,J10,15,Pin_15*%
%TO.N,a7*%
X199460000Y-98060000D03*
%TO.P,J10,16,Pin_16*%
%TO.N,d7*%
X202000000Y-98060000D03*
%TO.P,J10,17,Pin_17*%
%TO.N,a8*%
X199460000Y-100600000D03*
%TO.P,J10,18,Pin_18*%
%TO.N,RW*%
X202000000Y-100600000D03*
%TO.P,J10,19,Pin_19*%
%TO.N,a9*%
X199460000Y-103140000D03*
%TO.P,J10,20,Pin_20*%
%TO.N,PHI2*%
X202000000Y-103140000D03*
%TO.P,J10,21,Pin_21*%
%TO.N,a10*%
X199460000Y-105680000D03*
%TO.P,J10,22,Pin_22*%
%TO.N,RESET*%
X202000000Y-105680000D03*
%TO.P,J10,23,Pin_23*%
%TO.N,a11*%
X199460000Y-108220000D03*
%TO.P,J10,24,Pin_24*%
%TO.N,SYNC*%
X202000000Y-108220000D03*
%TO.P,J10,25,Pin_25*%
%TO.N,a12*%
X199460000Y-110760000D03*
%TO.P,J10,26,Pin_26*%
%TO.N,IRQ*%
X202000000Y-110760000D03*
%TO.P,J10,27,Pin_27*%
%TO.N,a13*%
X199460000Y-113300000D03*
%TO.P,J10,28,Pin_28*%
%TO.N,BE*%
X202000000Y-113300000D03*
%TO.P,J10,29,Pin_29*%
%TO.N,a14*%
X199460000Y-115840000D03*
%TO.P,J10,30,Pin_30*%
%TO.N,RDY*%
X202000000Y-115840000D03*
%TO.P,J10,31,Pin_31*%
%TO.N,a15*%
X199460000Y-118380000D03*
%TO.P,J10,32,Pin_32*%
%TO.N,VP*%
X202000000Y-118380000D03*
%TO.P,J10,33,Pin_33*%
%TO.N,dev10*%
X199460000Y-120920000D03*
%TO.P,J10,34,Pin_34*%
%TO.N,ML*%
X202000000Y-120920000D03*
%TO.P,J10,35,Pin_35*%
%TO.N,dev11*%
X199460000Y-123460000D03*
%TO.P,J10,36,Pin_36*%
%TO.N,NMI*%
X202000000Y-123460000D03*
%TO.P,J10,37,Pin_37*%
%TO.N,dev12*%
X199460000Y-126000000D03*
%TO.P,J10,38,Pin_38*%
%TO.N,PHI1O*%
X202000000Y-126000000D03*
%TO.P,J10,39,Pin_39*%
%TO.N,+5V*%
X199460000Y-128540000D03*
%TO.P,J10,40,Pin_40*%
%TO.N,GND*%
X202000000Y-128540000D03*
%TD*%
D12*
%TO.P,C8,1*%
%TO.N,NMI*%
X212500000Y-91000000D03*
%TO.P,C8,2*%
%TO.N,GND*%
X217500000Y-91000000D03*
%TD*%
%TO.P,R6,1*%
%TO.N,+5V*%
X211190000Y-114000000D03*
D14*
%TO.P,R6,2*%
%TO.N,RESET*%
X218810000Y-114000000D03*
%TD*%
D10*
%TO.P,J14,1,Pin_1*%
%TO.N,+5V*%
X150000000Y-146000000D03*
D11*
%TO.P,J14,2,Pin_2*%
%TO.N,GND*%
X150000000Y-148540000D03*
%TD*%
D13*
%TO.P,U4,1,OD/CLK*%
%TO.N,PHI2*%
X263700000Y-91525000D03*
D14*
%TO.P,U4,2,I0*%
%TO.N,RW*%
X263700000Y-94065000D03*
%TO.P,U4,3,I1*%
%TO.N,a15*%
X263700000Y-96605000D03*
%TO.P,U4,4,I2*%
%TO.N,EXT_IN2*%
X263700000Y-99145000D03*
%TO.P,U4,5,I3*%
%TO.N,a14*%
X263700000Y-101685000D03*
%TO.P,U4,6,I4*%
%TO.N,a13*%
X263700000Y-104225000D03*
%TO.P,U4,7,I5*%
%TO.N,a12*%
X263700000Y-106765000D03*
%TO.P,U4,8,I6*%
%TO.N,a11*%
X263700000Y-109305000D03*
%TO.P,U4,9,I7*%
%TO.N,a10*%
X263700000Y-111845000D03*
%TO.P,U4,10,I8*%
%TO.N,a9*%
X263700000Y-114385000D03*
%TO.P,U4,11,I9*%
%TO.N,a8*%
X263700000Y-116925000D03*
%TO.P,U4,12,GND*%
%TO.N,GND*%
X263700000Y-119465000D03*
%TO.P,U4,13,CLK/OD*%
%TO.N,EXT_IN1*%
X271320000Y-119465000D03*
%TO.P,U4,14,LR/O4*%
%TO.N,OE*%
X271320000Y-116925000D03*
%TO.P,U4,15,A0/O3*%
%TO.N,WE*%
X271320000Y-114385000D03*
%TO.P,U4,16,A1/O2*%
%TO.N,ROM_CS*%
X271320000Y-111845000D03*
%TO.P,U4,17,A2/O1*%
%TO.N,RAM_CS*%
X271320000Y-109305000D03*
%TO.P,U4,18,NC/O0*%
%TO.N,decode4*%
X271320000Y-106765000D03*
%TO.P,U4,19,O4/NC*%
%TO.N,decode3*%
X271320000Y-104225000D03*
%TO.P,U4,20,O3/A2*%
%TO.N,decode2*%
X271320000Y-101685000D03*
%TO.P,U4,21,O2/A1*%
%TO.N,DEVICE_CS*%
X271320000Y-99145000D03*
%TO.P,U4,22,O1/A0*%
%TO.N,decode1*%
X271320000Y-96605000D03*
%TO.P,U4,23,O0/LR*%
%TO.N,decode0*%
X271320000Y-94065000D03*
%TO.P,U4,24,VCC*%
%TO.N,+5V*%
X271320000Y-91525000D03*
%TD*%
D12*
%TO.P,C9,1*%
%TO.N,GND*%
X265000000Y-86500000D03*
%TO.P,C9,2*%
%TO.N,+5V*%
X270000000Y-86500000D03*
%TD*%
D15*
%TO.P,REF4,1*%
%TO.N,N/C*%
X280000000Y-261000000D03*
%TD*%
D10*
%TO.P,J8,1,Pin_1*%
%TO.N,EXT_IN1*%
X249500000Y-92275000D03*
D11*
%TO.P,J8,2,Pin_2*%
%TO.N,EXT_IN2*%
X249500000Y-94815000D03*
%TD*%
D13*
%TO.P,U1,1*%
%TO.N,1VIA_IRQ*%
X176200000Y-155375000D03*
D14*
%TO.P,U1,2*%
%TO.N,2VIA_IRQ*%
X176200000Y-157915000D03*
%TO.P,U1,3*%
%TO.N,IRQ*%
X176200000Y-160455000D03*
%TO.P,U1,4*%
%TO.N,N/C*%
X176200000Y-162995000D03*
%TO.P,U1,5*%
X176200000Y-165535000D03*
%TO.P,U1,6*%
X176200000Y-168075000D03*
%TO.P,U1,7,GND*%
%TO.N,GND*%
X176200000Y-170615000D03*
%TO.P,U1,8*%
%TO.N,N/C*%
X183820000Y-170615000D03*
%TO.P,U1,9*%
X183820000Y-168075000D03*
%TO.P,U1,10*%
X183820000Y-165535000D03*
%TO.P,U1,11*%
X183820000Y-162995000D03*
%TO.P,U1,12*%
X183820000Y-160455000D03*
%TO.P,U1,13*%
X183820000Y-157915000D03*
%TO.P,U1,14,VCC*%
%TO.N,+5V*%
X183820000Y-155375000D03*
%TD*%
D12*
%TO.P,C7,1*%
%TO.N,GND*%
X202500000Y-143500000D03*
%TO.P,C7,2*%
%TO.N,+5V*%
X207500000Y-143500000D03*
%TD*%
D15*
%TO.P,REF1,1*%
%TO.N,N/C*%
X133000000Y-76000000D03*
%TD*%
D19*
%TO.P,RV1,1,1*%
%TO.N,GND*%
X139525000Y-183775000D03*
%TO.P,RV1,2,2*%
%TO.N,Net-(RV1-Pad2)*%
X136985000Y-186315000D03*
%TO.P,RV1,3,3*%
%TO.N,+5V*%
X134445000Y-183775000D03*
%TD*%
D15*
%TO.P,REF3,1*%
%TO.N,N/C*%
X133000000Y-261500000D03*
%TD*%
D12*
%TO.P,R9,1*%
%TO.N,Net-(D1-Pad2)*%
X160810000Y-139000000D03*
D14*
%TO.P,R9,2*%
%TO.N,+5V*%
X153190000Y-139000000D03*
%TD*%
D10*
%TO.P,J9,1,Pin_1*%
%TO.N,dev2*%
X224500000Y-97000000D03*
D11*
%TO.P,J9,2,Pin_2*%
%TO.N,dev3*%
X224500000Y-99540000D03*
%TD*%
D12*
%TO.P,C4,1*%
%TO.N,GND*%
X269500000Y-132000000D03*
%TO.P,C4,2*%
%TO.N,+5V*%
X274500000Y-132000000D03*
%TD*%
D10*
%TO.P,J2,1,Pin_1*%
%TO.N,2pa0*%
X252500000Y-201125000D03*
D11*
%TO.P,J2,2,Pin_2*%
%TO.N,2pa1*%
X252500000Y-203665000D03*
%TO.P,J2,3,Pin_3*%
%TO.N,2pa2*%
X252500000Y-206205000D03*
%TO.P,J2,4,Pin_4*%
%TO.N,2pa3*%
X252500000Y-208745000D03*
%TO.P,J2,5,Pin_5*%
%TO.N,2pa4*%
X252500000Y-211285000D03*
%TO.P,J2,6,Pin_6*%
%TO.N,2pa5*%
X252500000Y-213825000D03*
%TO.P,J2,7,Pin_7*%
%TO.N,2pa6*%
X252500000Y-216365000D03*
%TO.P,J2,8,Pin_8*%
%TO.N,2pa7*%
X252500000Y-218905000D03*
%TD*%
D10*
%TO.P,J5,1,Pin_1*%
%TO.N,1CB2*%
X256125000Y-189000000D03*
D11*
%TO.P,J5,2,Pin_2*%
%TO.N,1CB1*%
X258665000Y-189000000D03*
%TO.P,J5,3,Pin_3*%
%TO.N,1CA1*%
X261205000Y-189000000D03*
%TO.P,J5,4,Pin_4*%
%TO.N,1CA2*%
X263745000Y-189000000D03*
%TO.P,J5,5,Pin_5*%
%TO.N,2CB1*%
X266285000Y-189000000D03*
%TO.P,J5,6,Pin_6*%
%TO.N,2CB2*%
X268825000Y-189000000D03*
%TO.P,J5,7,Pin_7*%
%TO.N,2CA1*%
X271365000Y-189000000D03*
%TO.P,J5,8,Pin_8*%
%TO.N,2CA2*%
X273905000Y-189000000D03*
%TD*%
D13*
%TO.P,U7,1,VSS*%
%TO.N,GND*%
X264375000Y-201875000D03*
D14*
%TO.P,U7,2,PA0*%
%TO.N,2pa0*%
X264375000Y-204415000D03*
%TO.P,U7,3,PA1*%
%TO.N,2pa1*%
X264375000Y-206955000D03*
%TO.P,U7,4,PA2*%
%TO.N,2pa2*%
X264375000Y-209495000D03*
%TO.P,U7,5,PA3*%
%TO.N,2pa3*%
X264375000Y-212035000D03*
%TO.P,U7,6,PA4*%
%TO.N,2pa4*%
X264375000Y-214575000D03*
%TO.P,U7,7,PA5*%
%TO.N,2pa5*%
X264375000Y-217115000D03*
%TO.P,U7,8,PA6*%
%TO.N,2pa6*%
X264375000Y-219655000D03*
%TO.P,U7,9,PA7*%
%TO.N,2pa7*%
X264375000Y-222195000D03*
%TO.P,U7,10,PB0*%
%TO.N,2pb0*%
X264375000Y-224735000D03*
%TO.P,U7,11,PB1*%
%TO.N,2pb1*%
X264375000Y-227275000D03*
%TO.P,U7,12,PB2*%
%TO.N,2pb2*%
X264375000Y-229815000D03*
%TO.P,U7,13,PB3*%
%TO.N,2pb3*%
X264375000Y-232355000D03*
%TO.P,U7,14,PB4*%
%TO.N,2pb4*%
X264375000Y-234895000D03*
%TO.P,U7,15,PB5*%
%TO.N,2pb5*%
X264375000Y-237435000D03*
%TO.P,U7,16,PB6*%
%TO.N,2pb6*%
X264375000Y-239975000D03*
%TO.P,U7,17,PB7*%
%TO.N,2pb7*%
X264375000Y-242515000D03*
%TO.P,U7,18,CB1*%
%TO.N,2CB1*%
X264375000Y-245055000D03*
%TO.P,U7,19,CB2*%
%TO.N,2CB2*%
X264375000Y-247595000D03*
%TO.P,U7,20,VDD*%
%TO.N,+5V*%
X264375000Y-250135000D03*
%TO.P,U7,21,~{IRQ}*%
%TO.N,2VIA_IRQ*%
X279615000Y-250135000D03*
%TO.P,U7,22,R~{W}*%
%TO.N,RW*%
X279615000Y-247595000D03*
%TO.P,U7,23,~{CS2}*%
%TO.N,VIA2_CS*%
X279615000Y-245055000D03*
%TO.P,U7,24,CS1*%
%TO.N,+5V*%
X279615000Y-242515000D03*
%TO.P,U7,25,PHI2*%
%TO.N,PHI2*%
X279615000Y-239975000D03*
%TO.P,U7,26,D7*%
%TO.N,d7*%
X279615000Y-237435000D03*
%TO.P,U7,27,D6*%
%TO.N,d6*%
X279615000Y-234895000D03*
%TO.P,U7,28,D5*%
%TO.N,d5*%
X279615000Y-232355000D03*
%TO.P,U7,29,D4*%
%TO.N,d4*%
X279615000Y-229815000D03*
%TO.P,U7,30,D3*%
%TO.N,d3*%
X279615000Y-227275000D03*
%TO.P,U7,31,D2*%
%TO.N,d2*%
X279615000Y-224735000D03*
%TO.P,U7,32,D1*%
%TO.N,d1*%
X279615000Y-222195000D03*
%TO.P,U7,33,D0*%
%TO.N,d0*%
X279615000Y-219655000D03*
%TO.P,U7,34,~{RES}*%
%TO.N,RESET*%
X279615000Y-217115000D03*
%TO.P,U7,35,RS3*%
%TO.N,a3*%
X279615000Y-214575000D03*
%TO.P,U7,36,RS2*%
%TO.N,a2*%
X279615000Y-212035000D03*
%TO.P,U7,37,RS1*%
%TO.N,a1*%
X279615000Y-209495000D03*
%TO.P,U7,38,RS0*%
%TO.N,a0*%
X279615000Y-206955000D03*
%TO.P,U7,39,CA2*%
%TO.N,2CA2*%
X279615000Y-204415000D03*
%TO.P,U7,40,CA1*%
%TO.N,2CA1*%
X279615000Y-201875000D03*
%TD*%
D12*
%TO.P,C2,1*%
%TO.N,GND*%
X269500000Y-197000000D03*
%TO.P,C2,2*%
%TO.N,+5V*%
X274500000Y-197000000D03*
%TD*%
D10*
%TO.P,J4,1,Pin_1*%
%TO.N,a0*%
X160460000Y-80560000D03*
D11*
%TO.P,J4,2,Pin_2*%
%TO.N,d0*%
X163000000Y-80560000D03*
%TO.P,J4,3,Pin_3*%
%TO.N,a1*%
X160460000Y-83100000D03*
%TO.P,J4,4,Pin_4*%
%TO.N,d1*%
X163000000Y-83100000D03*
%TO.P,J4,5,Pin_5*%
%TO.N,a2*%
X160460000Y-85640000D03*
%TO.P,J4,6,Pin_6*%
%TO.N,d2*%
X163000000Y-85640000D03*
%TO.P,J4,7,Pin_7*%
%TO.N,a3*%
X160460000Y-88180000D03*
%TO.P,J4,8,Pin_8*%
%TO.N,d3*%
X163000000Y-88180000D03*
%TO.P,J4,9,Pin_9*%
%TO.N,a4*%
X160460000Y-90720000D03*
%TO.P,J4,10,Pin_10*%
%TO.N,d4*%
X163000000Y-90720000D03*
%TO.P,J4,11,Pin_11*%
%TO.N,a5*%
X160460000Y-93260000D03*
%TO.P,J4,12,Pin_12*%
%TO.N,d5*%
X163000000Y-93260000D03*
%TO.P,J4,13,Pin_13*%
%TO.N,a6*%
X160460000Y-95800000D03*
%TO.P,J4,14,Pin_14*%
%TO.N,d6*%
X163000000Y-95800000D03*
%TO.P,J4,15,Pin_15*%
%TO.N,a7*%
X160460000Y-98340000D03*
%TO.P,J4,16,Pin_16*%
%TO.N,d7*%
X163000000Y-98340000D03*
%TO.P,J4,17,Pin_17*%
%TO.N,a8*%
X160460000Y-100880000D03*
%TO.P,J4,18,Pin_18*%
%TO.N,RW*%
X163000000Y-100880000D03*
%TO.P,J4,19,Pin_19*%
%TO.N,a9*%
X160460000Y-103420000D03*
%TO.P,J4,20,Pin_20*%
%TO.N,PHI2*%
X163000000Y-103420000D03*
%TO.P,J4,21,Pin_21*%
%TO.N,a10*%
X160460000Y-105960000D03*
%TO.P,J4,22,Pin_22*%
%TO.N,RESET*%
X163000000Y-105960000D03*
%TO.P,J4,23,Pin_23*%
%TO.N,a11*%
X160460000Y-108500000D03*
%TO.P,J4,24,Pin_24*%
%TO.N,SYNC*%
X163000000Y-108500000D03*
%TO.P,J4,25,Pin_25*%
%TO.N,a12*%
X160460000Y-111040000D03*
%TO.P,J4,26,Pin_26*%
%TO.N,IRQ*%
X163000000Y-111040000D03*
%TO.P,J4,27,Pin_27*%
%TO.N,a13*%
X160460000Y-113580000D03*
%TO.P,J4,28,Pin_28*%
%TO.N,BE*%
X163000000Y-113580000D03*
%TO.P,J4,29,Pin_29*%
%TO.N,a14*%
X160460000Y-116120000D03*
%TO.P,J4,30,Pin_30*%
%TO.N,RDY*%
X163000000Y-116120000D03*
%TO.P,J4,31,Pin_31*%
%TO.N,a15*%
X160460000Y-118660000D03*
%TO.P,J4,32,Pin_32*%
%TO.N,VP*%
X163000000Y-118660000D03*
%TO.P,J4,33,Pin_33*%
%TO.N,dev4*%
X160460000Y-121200000D03*
%TO.P,J4,34,Pin_34*%
%TO.N,ML*%
X163000000Y-121200000D03*
%TO.P,J4,35,Pin_35*%
%TO.N,dev5*%
X160460000Y-123740000D03*
%TO.P,J4,36,Pin_36*%
%TO.N,NMI*%
X163000000Y-123740000D03*
%TO.P,J4,37,Pin_37*%
%TO.N,dev6*%
X160460000Y-126280000D03*
%TO.P,J4,38,Pin_38*%
%TO.N,PHI1O*%
X163000000Y-126280000D03*
%TO.P,J4,39,Pin_39*%
%TO.N,+5V*%
X160460000Y-128820000D03*
%TO.P,J4,40,Pin_40*%
%TO.N,GND*%
X163000000Y-128820000D03*
%TD*%
D12*
%TO.P,R4,1*%
%TO.N,1pa1*%
X258000000Y-154300000D03*
D14*
%TO.P,R4,2*%
%TO.N,GND*%
X250380000Y-154300000D03*
%TD*%
D20*
%TO.P,J13,1*%
%TO.N,Net-(J13-Pad1)*%
X143160000Y-147320000D03*
D21*
%TO.P,J13,2*%
%TO.N,GND*%
X137160000Y-147320000D03*
D22*
%TO.P,J13,3*%
%TO.N,N/C*%
X140160000Y-152020000D03*
%TD*%
D23*
%TO.P,U3,1,A14*%
%TO.N,a14*%
X198107500Y-158010000D03*
D24*
%TO.P,U3,2,A12*%
%TO.N,a12*%
X198107500Y-160550000D03*
%TO.P,U3,3,A7*%
%TO.N,a7*%
X198107500Y-163090000D03*
%TO.P,U3,4,A6*%
%TO.N,a6*%
X198107500Y-165630000D03*
%TO.P,U3,5,A5*%
%TO.N,a5*%
X198107500Y-168170000D03*
%TO.P,U3,6,A4*%
%TO.N,a4*%
X198107500Y-170710000D03*
%TO.P,U3,7,A3*%
%TO.N,a3*%
X198107500Y-173250000D03*
%TO.P,U3,8,A2*%
%TO.N,a2*%
X198107500Y-175790000D03*
%TO.P,U3,9,A1*%
%TO.N,a1*%
X198107500Y-178330000D03*
%TO.P,U3,10,A0*%
%TO.N,a0*%
X198107500Y-180870000D03*
%TO.P,U3,11,D0*%
%TO.N,d0*%
X198107500Y-183410000D03*
%TO.P,U3,12,D1*%
%TO.N,d1*%
X198107500Y-185950000D03*
%TO.P,U3,13,D2*%
%TO.N,d2*%
X198107500Y-188490000D03*
%TO.P,U3,14,GND*%
%TO.N,GND*%
X198107500Y-191030000D03*
%TO.P,U3,15,D3*%
%TO.N,d3*%
X213347500Y-191030000D03*
%TO.P,U3,16,D4*%
%TO.N,d4*%
X213347500Y-188490000D03*
%TO.P,U3,17,D5*%
%TO.N,d5*%
X213347500Y-185950000D03*
%TO.P,U3,18,D6*%
%TO.N,d6*%
X213347500Y-183410000D03*
%TO.P,U3,19,D7*%
%TO.N,d7*%
X213347500Y-180870000D03*
%TO.P,U3,20,~{CS}*%
%TO.N,ROM_CS*%
X213347500Y-178330000D03*
%TO.P,U3,21,A10*%
%TO.N,a10*%
X213347500Y-175790000D03*
%TO.P,U3,22,~{OE}*%
%TO.N,GND*%
X213347500Y-173250000D03*
%TO.P,U3,23,A11*%
%TO.N,a11*%
X213347500Y-170710000D03*
%TO.P,U3,24,A9*%
%TO.N,a9*%
X213347500Y-168170000D03*
%TO.P,U3,25,A8*%
%TO.N,a8*%
X213347500Y-165630000D03*
%TO.P,U3,26,A13*%
%TO.N,a13*%
X213347500Y-163090000D03*
%TO.P,U3,27,~{WE}*%
%TO.N,WE*%
X213347500Y-160550000D03*
%TO.P,U3,28,VCC*%
%TO.N,+5V*%
X213347500Y-158010000D03*
%TD*%
D25*
%TO.P,SW1,1,1*%
%TO.N,GND*%
X211750000Y-95750000D03*
X218250000Y-95750000D03*
%TO.P,SW1,2,2*%
%TO.N,NMI*%
X218250000Y-100250000D03*
X211750000Y-100250000D03*
%TD*%
D12*
%TO.P,C1,1*%
%TO.N,GND*%
X177500000Y-150000000D03*
%TO.P,C1,2*%
%TO.N,+5V*%
X182500000Y-150000000D03*
%TD*%
D26*
%TO.P,Q1,1,G*%
%TO.N,GND*%
X159710000Y-157433300D03*
D27*
%TO.P,Q1,2,D*%
%TO.N,Net-(J13-Pad1)*%
X162000000Y-157433300D03*
%TO.P,Q1,3,S*%
%TO.N,+5V*%
X164290000Y-157433300D03*
%TD*%
D10*
%TO.P,J6,1,Pin_1*%
%TO.N,decode0*%
X249500000Y-105425000D03*
D11*
%TO.P,J6,2,Pin_2*%
%TO.N,decode1*%
X249500000Y-107965000D03*
%TO.P,J6,3,Pin_3*%
%TO.N,decode2*%
X249500000Y-110505000D03*
%TO.P,J6,4,Pin_4*%
%TO.N,decode3*%
X249500000Y-113045000D03*
%TO.P,J6,5,Pin_5*%
%TO.N,decode4*%
X249500000Y-115585000D03*
%TD*%
D12*
%TO.P,C3,1*%
%TO.N,GND*%
X233500000Y-127750000D03*
%TO.P,C3,2*%
%TO.N,+5V*%
X238500000Y-127750000D03*
%TD*%
D10*
%TO.P,J7,1,Pin_1*%
%TO.N,a0*%
X181460000Y-80205000D03*
D11*
%TO.P,J7,2,Pin_2*%
%TO.N,d0*%
X184000000Y-80205000D03*
%TO.P,J7,3,Pin_3*%
%TO.N,a1*%
X181460000Y-82745000D03*
%TO.P,J7,4,Pin_4*%
%TO.N,d1*%
X184000000Y-82745000D03*
%TO.P,J7,5,Pin_5*%
%TO.N,a2*%
X181460000Y-85285000D03*
%TO.P,J7,6,Pin_6*%
%TO.N,d2*%
X184000000Y-85285000D03*
%TO.P,J7,7,Pin_7*%
%TO.N,a3*%
X181460000Y-87825000D03*
%TO.P,J7,8,Pin_8*%
%TO.N,d3*%
X184000000Y-87825000D03*
%TO.P,J7,9,Pin_9*%
%TO.N,a4*%
X181460000Y-90365000D03*
%TO.P,J7,10,Pin_10*%
%TO.N,d4*%
X184000000Y-90365000D03*
%TO.P,J7,11,Pin_11*%
%TO.N,a5*%
X181460000Y-92905000D03*
%TO.P,J7,12,Pin_12*%
%TO.N,d5*%
X184000000Y-92905000D03*
%TO.P,J7,13,Pin_13*%
%TO.N,a6*%
X181460000Y-95445000D03*
%TO.P,J7,14,Pin_14*%
%TO.N,d6*%
X184000000Y-95445000D03*
%TO.P,J7,15,Pin_15*%
%TO.N,a7*%
X181460000Y-97985000D03*
%TO.P,J7,16,Pin_16*%
%TO.N,d7*%
X184000000Y-97985000D03*
%TO.P,J7,17,Pin_17*%
%TO.N,a8*%
X181460000Y-100525000D03*
%TO.P,J7,18,Pin_18*%
%TO.N,RW*%
X184000000Y-100525000D03*
%TO.P,J7,19,Pin_19*%
%TO.N,a9*%
X181460000Y-103065000D03*
%TO.P,J7,20,Pin_20*%
%TO.N,PHI2*%
X184000000Y-103065000D03*
%TO.P,J7,21,Pin_21*%
%TO.N,a10*%
X181460000Y-105605000D03*
%TO.P,J7,22,Pin_22*%
%TO.N,RESET*%
X184000000Y-105605000D03*
%TO.P,J7,23,Pin_23*%
%TO.N,a11*%
X181460000Y-108145000D03*
%TO.P,J7,24,Pin_24*%
%TO.N,SYNC*%
X184000000Y-108145000D03*
%TO.P,J7,25,Pin_25*%
%TO.N,a12*%
X181460000Y-110685000D03*
%TO.P,J7,26,Pin_26*%
%TO.N,IRQ*%
X184000000Y-110685000D03*
%TO.P,J7,27,Pin_27*%
%TO.N,a13*%
X181460000Y-113225000D03*
%TO.P,J7,28,Pin_28*%
%TO.N,BE*%
X184000000Y-113225000D03*
%TO.P,J7,29,Pin_29*%
%TO.N,a14*%
X181460000Y-115765000D03*
%TO.P,J7,30,Pin_30*%
%TO.N,RDY*%
X184000000Y-115765000D03*
%TO.P,J7,31,Pin_31*%
%TO.N,a15*%
X181460000Y-118305000D03*
%TO.P,J7,32,Pin_32*%
%TO.N,VP*%
X184000000Y-118305000D03*
%TO.P,J7,33,Pin_33*%
%TO.N,dev7*%
X181460000Y-120845000D03*
%TO.P,J7,34,Pin_34*%
%TO.N,ML*%
X184000000Y-120845000D03*
%TO.P,J7,35,Pin_35*%
%TO.N,dev8*%
X181460000Y-123385000D03*
%TO.P,J7,36,Pin_36*%
%TO.N,NMI*%
X184000000Y-123385000D03*
%TO.P,J7,37,Pin_37*%
%TO.N,dev9*%
X181460000Y-125925000D03*
%TO.P,J7,38,Pin_38*%
%TO.N,PHI1O*%
X184000000Y-125925000D03*
%TO.P,J7,39,Pin_39*%
%TO.N,+5V*%
X181460000Y-128465000D03*
%TO.P,J7,40,Pin_40*%
%TO.N,GND*%
X184000000Y-128465000D03*
%TD*%
D13*
%TO.P,U6,1,A18*%
%TO.N,1pa3*%
X264375000Y-136950000D03*
D14*
%TO.P,U6,2,A16*%
%TO.N,1pa1*%
X264375000Y-139490000D03*
%TO.P,U6,3,A14*%
%TO.N,a14*%
X264375000Y-142030000D03*
%TO.P,U6,4,A12*%
%TO.N,a12*%
X264375000Y-144570000D03*
%TO.P,U6,5,A7*%
%TO.N,a7*%
X264375000Y-147110000D03*
%TO.P,U6,6,A6*%
%TO.N,a6*%
X264375000Y-149650000D03*
%TO.P,U6,7,A5*%
%TO.N,a5*%
X264375000Y-152190000D03*
%TO.P,U6,8,A4*%
%TO.N,a4*%
X264375000Y-154730000D03*
%TO.P,U6,9,A3*%
%TO.N,a3*%
X264375000Y-157270000D03*
%TO.P,U6,10,A2*%
%TO.N,a2*%
X264375000Y-159810000D03*
%TO.P,U6,11,A1*%
%TO.N,a1*%
X264375000Y-162350000D03*
%TO.P,U6,12,A0*%
%TO.N,a0*%
X264375000Y-164890000D03*
%TO.P,U6,13,DQ0*%
%TO.N,d0*%
X264375000Y-167430000D03*
%TO.P,U6,14,DQ1*%
%TO.N,d1*%
X264375000Y-169970000D03*
%TO.P,U6,15,DQ2*%
%TO.N,d2*%
X264375000Y-172510000D03*
%TO.P,U6,16,VSS*%
%TO.N,GND*%
X264375000Y-175050000D03*
%TO.P,U6,17,DQ3*%
%TO.N,d3*%
X279615000Y-175050000D03*
%TO.P,U6,18,DQ4*%
%TO.N,d4*%
X279615000Y-172510000D03*
%TO.P,U6,19,DQ5*%
%TO.N,d5*%
X279615000Y-169970000D03*
%TO.P,U6,20,DQ6*%
%TO.N,d6*%
X279615000Y-167430000D03*
%TO.P,U6,21,DQ7*%
%TO.N,d7*%
X279615000Y-164890000D03*
%TO.P,U6,22,CE#*%
%TO.N,RAM_CS*%
X279615000Y-162350000D03*
%TO.P,U6,23,A10*%
%TO.N,a10*%
X279615000Y-159810000D03*
%TO.P,U6,24,OE#*%
%TO.N,OE*%
X279615000Y-157270000D03*
%TO.P,U6,25,A11*%
%TO.N,a11*%
X279615000Y-154730000D03*
%TO.P,U6,26,A9*%
%TO.N,a9*%
X279615000Y-152190000D03*
%TO.P,U6,27,A8*%
%TO.N,a8*%
X279615000Y-149650000D03*
%TO.P,U6,28,A13*%
%TO.N,a13*%
X279615000Y-147110000D03*
%TO.P,U6,29,WE#*%
%TO.N,WE*%
X279615000Y-144570000D03*
%TO.P,U6,30,A17*%
%TO.N,1pa2*%
X279615000Y-142030000D03*
%TO.P,U6,31,A15*%
%TO.N,1pa0*%
X279615000Y-139490000D03*
%TO.P,U6,32,VCC*%
%TO.N,+5V*%
X279615000Y-136950000D03*
%TD*%
D28*
%TO.P,D1,1,K*%
%TO.N,GND*%
X168000000Y-139000000D03*
D29*
%TO.P,D1,2,A*%
%TO.N,Net-(D1-Pad2)*%
X165460000Y-139000000D03*
%TD*%
D12*
%TO.P,R3,1*%
%TO.N,1pa0*%
X258000000Y-160840000D03*
D14*
%TO.P,R3,2*%
%TO.N,GND*%
X250380000Y-160840000D03*
%TD*%
D10*
%TO.P,J1,1,Pin_1*%
%TO.N,2pb0*%
X252500000Y-228125000D03*
D11*
%TO.P,J1,2,Pin_2*%
%TO.N,2pb1*%
X252500000Y-230665000D03*
%TO.P,J1,3,Pin_3*%
%TO.N,2pb2*%
X252500000Y-233205000D03*
%TO.P,J1,4,Pin_4*%
%TO.N,2pb3*%
X252500000Y-235745000D03*
%TO.P,J1,5,Pin_5*%
%TO.N,2pb4*%
X252500000Y-238285000D03*
%TO.P,J1,6,Pin_6*%
%TO.N,2pb5*%
X252500000Y-240825000D03*
%TO.P,J1,7,Pin_7*%
%TO.N,2pb6*%
X252500000Y-243365000D03*
%TO.P,J1,8,Pin_8*%
%TO.N,2pb7*%
X252500000Y-245905000D03*
%TD*%
D13*
%TO.P,U8,1,VSS*%
%TO.N,GND*%
X228375000Y-201875000D03*
D14*
%TO.P,U8,2,PA0*%
%TO.N,1pa0*%
X228375000Y-204415000D03*
%TO.P,U8,3,PA1*%
%TO.N,1pa1*%
X228375000Y-206955000D03*
%TO.P,U8,4,PA2*%
%TO.N,1pa2*%
X228375000Y-209495000D03*
%TO.P,U8,5,PA3*%
%TO.N,1pa3*%
X228375000Y-212035000D03*
%TO.P,U8,6,PA4*%
%TO.N,1pa4*%
X228375000Y-214575000D03*
%TO.P,U8,7,PA5*%
%TO.N,1pa5*%
X228375000Y-217115000D03*
%TO.P,U8,8,PA6*%
%TO.N,1pa6*%
X228375000Y-219655000D03*
%TO.P,U8,9,PA7*%
%TO.N,1pa7*%
X228375000Y-222195000D03*
%TO.P,U8,10,PB0*%
%TO.N,1pb0*%
X228375000Y-224735000D03*
%TO.P,U8,11,PB1*%
%TO.N,1pb1*%
X228375000Y-227275000D03*
%TO.P,U8,12,PB2*%
%TO.N,1pb2*%
X228375000Y-229815000D03*
%TO.P,U8,13,PB3*%
%TO.N,1pb3*%
X228375000Y-232355000D03*
%TO.P,U8,14,PB4*%
%TO.N,1pb4*%
X228375000Y-234895000D03*
%TO.P,U8,15,PB5*%
%TO.N,1pb5*%
X228375000Y-237435000D03*
%TO.P,U8,16,PB6*%
%TO.N,1pb6*%
X228375000Y-239975000D03*
%TO.P,U8,17,PB7*%
%TO.N,1pb7*%
X228375000Y-242515000D03*
%TO.P,U8,18,CB1*%
%TO.N,1CB1*%
X228375000Y-245055000D03*
%TO.P,U8,19,CB2*%
%TO.N,1CB2*%
X228375000Y-247595000D03*
%TO.P,U8,20,VDD*%
%TO.N,+5V*%
X228375000Y-250135000D03*
%TO.P,U8,21,~{IRQ}*%
%TO.N,1VIA_IRQ*%
X243615000Y-250135000D03*
%TO.P,U8,22,R~{W}*%
%TO.N,RW*%
X243615000Y-247595000D03*
%TO.P,U8,23,~{CS2}*%
%TO.N,VIA1_CS*%
X243615000Y-245055000D03*
%TO.P,U8,24,CS1*%
%TO.N,+5V*%
X243615000Y-242515000D03*
%TO.P,U8,25,PHI2*%
%TO.N,PHI2*%
X243615000Y-239975000D03*
%TO.P,U8,26,D7*%
%TO.N,d7*%
X243615000Y-237435000D03*
%TO.P,U8,27,D6*%
%TO.N,d6*%
X243615000Y-234895000D03*
%TO.P,U8,28,D5*%
%TO.N,d5*%
X243615000Y-232355000D03*
%TO.P,U8,29,D4*%
%TO.N,d4*%
X243615000Y-229815000D03*
%TO.P,U8,30,D3*%
%TO.N,d3*%
X243615000Y-227275000D03*
%TO.P,U8,31,D2*%
%TO.N,d2*%
X243615000Y-224735000D03*
%TO.P,U8,32,D1*%
%TO.N,d1*%
X243615000Y-222195000D03*
%TO.P,U8,33,D0*%
%TO.N,d0*%
X243615000Y-219655000D03*
%TO.P,U8,34,~{RES}*%
%TO.N,RESET*%
X243615000Y-217115000D03*
%TO.P,U8,35,RS3*%
%TO.N,a3*%
X243615000Y-214575000D03*
%TO.P,U8,36,RS2*%
%TO.N,a2*%
X243615000Y-212035000D03*
%TO.P,U8,37,RS1*%
%TO.N,a1*%
X243615000Y-209495000D03*
%TO.P,U8,38,RS0*%
%TO.N,a0*%
X243615000Y-206955000D03*
%TO.P,U8,39,CA2*%
%TO.N,1CA2*%
X243615000Y-204415000D03*
%TO.P,U8,40,CA1*%
%TO.N,1CA1*%
X243615000Y-201875000D03*
%TD*%
D12*
%TO.P,R5,1*%
%TO.N,1pa2*%
X258000000Y-167000000D03*
D14*
%TO.P,R5,2*%
%TO.N,GND*%
X250380000Y-167000000D03*
%TD*%
D12*
%TO.P,R1,1*%
%TO.N,+5V*%
X211190000Y-107000000D03*
D14*
%TO.P,R1,2*%
%TO.N,NMI*%
X218810000Y-107000000D03*
%TD*%
D25*
%TO.P,SW2,1,1*%
%TO.N,RESET*%
X211750000Y-120750000D03*
X218250000Y-120750000D03*
%TO.P,SW2,2,2*%
%TO.N,GND*%
X218250000Y-125250000D03*
X211750000Y-125250000D03*
%TD*%
D12*
%TO.P,C11,1*%
%TO.N,GND*%
X132500000Y-202000000D03*
%TO.P,C11,2*%
%TO.N,+5V*%
X137500000Y-202000000D03*
%TD*%
D30*
%TO.N,+5V*%
X214160400Y-132710900D03*
%TO.N,NMI*%
X191221400Y-129431100D03*
X220308900Y-125002400D03*
%TO.N,PHI1O*%
X207601900Y-132683500D03*
%TO.N,dev6*%
X234113700Y-111701200D03*
%TO.N,dev5*%
X200900800Y-106890800D03*
%TO.N,ML*%
X186394000Y-122284600D03*
X221275100Y-125453100D03*
%TO.N,dev4*%
X204384800Y-102457600D03*
%TO.N,VP*%
X190276300Y-119555300D03*
X222463600Y-118380000D03*
%TO.N,RDY*%
X209120400Y-132454400D03*
X192786400Y-115626000D03*
%TO.N,a14*%
X194304200Y-115517100D03*
X201623300Y-133629000D03*
X265249600Y-132474600D03*
X255638000Y-159686800D03*
%TO.N,BE*%
X208224200Y-138975000D03*
%TO.N,a13*%
X190498000Y-116852200D03*
X253405100Y-164525300D03*
%TO.N,IRQ*%
X205885000Y-110420000D03*
%TO.N,a12*%
X224093300Y-179470300D03*
X245731800Y-158103700D03*
%TO.N,SYNC*%
X175887600Y-106918600D03*
%TO.N,a11*%
X211294500Y-130809800D03*
X218382500Y-166820800D03*
%TO.N,RESET*%
X219583500Y-132260600D03*
%TO.N,a10*%
X227139400Y-144182800D03*
X233384100Y-149997900D03*
X262555600Y-137634300D03*
%TO.N,PHI2*%
X197100300Y-230314700D03*
X237383000Y-103182900D03*
%TO.N,a9*%
X221864100Y-104748800D03*
X231327200Y-127334600D03*
%TO.N,RW*%
X236787400Y-100245800D03*
%TO.N,a8*%
X230322500Y-127535500D03*
X221111100Y-101732300D03*
%TO.N,a7*%
X214373300Y-106884900D03*
X223906200Y-109082300D03*
%TO.N,d6*%
X270678500Y-88701800D03*
%TO.N,a6*%
X248091200Y-159075800D03*
X209572000Y-99105100D03*
%TO.N,d5*%
X234944200Y-162651900D03*
%TO.N,a5*%
X220885300Y-89565600D03*
%TO.N,d4*%
X235461000Y-160694600D03*
X234668500Y-217935300D03*
%TO.N,d3*%
X239453400Y-191004600D03*
%TO.N,a3*%
X242600800Y-187865000D03*
%TO.N,d2*%
X234406000Y-214578300D03*
X153661700Y-158074600D03*
%TO.N,a2*%
X231830100Y-212685200D03*
X180235000Y-156172000D03*
%TO.N,a1*%
X214478000Y-94238100D03*
%TO.N,a0*%
X229534700Y-208467200D03*
X213770800Y-93029800D03*
%TO.N,dev12*%
X200661500Y-132348800D03*
%TO.N,dev11*%
X207852700Y-130075000D03*
%TO.N,a15*%
X200084700Y-133471500D03*
X248466000Y-165138400D03*
X188738400Y-119544500D03*
%TO.N,1pa1*%
X244134300Y-186320600D03*
%TO.N,1pa3*%
X242336000Y-210282900D03*
%TO.N,ROM_CS*%
X232374700Y-125201000D03*
%TO.N,WE*%
X274694400Y-145019700D03*
%TD*%
D31*
%TO.N,+5V*%
X182500000Y-150000000D02*
X186567100Y-145932900D01*
X253389700Y-137705000D02*
X256684700Y-141000000D01*
X166139400Y-156768000D02*
X165474100Y-157433300D01*
X183820000Y-155375000D02*
X182694700Y-155375000D01*
X262124400Y-249009700D02*
X263249700Y-250135000D01*
X243615000Y-137705000D02*
X242489700Y-137705000D01*
X150000000Y-146000000D02*
X152856700Y-146000000D01*
X265945600Y-205554400D02*
X256985100Y-205554400D01*
X179981400Y-156944100D02*
X179805300Y-156768000D01*
X243615000Y-242515000D02*
X243615000Y-243640300D01*
X243148400Y-205554900D02*
X238500000Y-200906500D01*
X243615000Y-243640300D02*
X243333700Y-243640300D01*
X179805300Y-156768000D02*
X166139400Y-156768000D01*
X271601300Y-92650300D02*
X271320000Y-92650300D01*
X186567100Y-145932900D02*
X205067100Y-145932900D01*
X188348500Y-129640300D02*
X183443300Y-129640300D01*
X199460000Y-128540000D02*
X198284700Y-128540000D01*
X250803700Y-202446600D02*
X247695400Y-205554900D01*
X243387600Y-249009700D02*
X262124400Y-249009700D01*
X211190000Y-134000000D02*
X212871300Y-134000000D01*
X189448800Y-128540000D02*
X188348500Y-129640300D01*
X242489700Y-137705000D02*
X241364400Y-136579700D01*
X262926400Y-134758300D02*
X257810000Y-139874700D01*
X238500000Y-200906500D02*
X238500000Y-196750000D01*
X181460000Y-128465000D02*
X182635300Y-128465000D01*
X198284700Y-128540000D02*
X189448800Y-128540000D01*
X271741700Y-134758300D02*
X262926400Y-134758300D01*
X228375000Y-250135000D02*
X229500300Y-250135000D01*
X181125600Y-156944100D02*
X179981400Y-156944100D01*
X212871300Y-134000000D02*
X214160400Y-132710900D01*
X271320000Y-91525000D02*
X271320000Y-92650300D01*
X274500000Y-132000000D02*
X271741700Y-134758300D01*
X183443300Y-129640300D02*
X182635300Y-128832300D01*
X205067100Y-145932900D02*
X207500000Y-143500000D01*
X229500300Y-250135000D02*
X231526800Y-248108500D01*
X264375000Y-250135000D02*
X263249700Y-250135000D01*
X182635300Y-128832300D02*
X182635300Y-128465000D01*
X247695400Y-205554900D02*
X243148400Y-205554900D01*
X241364400Y-136579700D02*
X218029200Y-136579700D01*
X152856700Y-146000000D02*
X164290000Y-157433300D01*
X242486400Y-248108500D02*
X243387600Y-249009700D01*
X242486400Y-244487600D02*
X242486400Y-248108500D01*
X164290000Y-157433300D02*
X165474100Y-157433300D01*
X231526800Y-248108500D02*
X242486400Y-248108500D01*
X274500000Y-197000000D02*
X265945600Y-205554400D01*
X253877300Y-202446600D02*
X250803700Y-202446600D01*
X257810000Y-141000000D02*
X256684700Y-141000000D01*
X218029200Y-136579700D02*
X214160400Y-132710900D01*
X243333700Y-243640300D02*
X242486400Y-244487600D01*
X279615000Y-100664000D02*
X271601300Y-92650300D01*
X279615000Y-136950000D02*
X279615000Y-100664000D01*
X257810000Y-141000000D02*
X257810000Y-139874700D01*
X243615000Y-137705000D02*
X253389700Y-137705000D01*
X182694700Y-155375000D02*
X181125600Y-156944100D01*
X256985100Y-205554400D02*
X253877300Y-202446600D01*
%TO.N,GND*%
X133466600Y-201965200D02*
X133431800Y-202000000D01*
X256734000Y-162222200D02*
X256734000Y-160455300D01*
X133466600Y-201965200D02*
X141000800Y-209499400D01*
X176200000Y-170615000D02*
X177325300Y-170615000D01*
X182814300Y-127279300D02*
X184000000Y-128465000D01*
X186310500Y-127329800D02*
X199928000Y-127329800D01*
X221750000Y-86750000D02*
X233500000Y-86750000D01*
X185175300Y-128465000D02*
X186310500Y-127329800D01*
X229500300Y-200749700D02*
X233500000Y-196750000D01*
X196695000Y-189984700D02*
X177325300Y-170615000D01*
X203175300Y-128540000D02*
X206465300Y-125250000D01*
X217500000Y-91000000D02*
X221750000Y-86750000D01*
X164175300Y-128820000D02*
X165716000Y-127279300D01*
X163860800Y-209499400D02*
X163860800Y-209776200D01*
X256734000Y-160455300D02*
X257487200Y-159702100D01*
X270009400Y-196490600D02*
X269500000Y-197000000D01*
X150000000Y-148540000D02*
X150000000Y-149715300D01*
X260464000Y-161679000D02*
X260464000Y-170295100D01*
X133466600Y-201965200D02*
X139525000Y-195906800D01*
X270009400Y-181809700D02*
X270009400Y-196490600D01*
X218250000Y-125250000D02*
X211750000Y-125250000D01*
X202000000Y-128540000D02*
X203175300Y-128540000D01*
X233500000Y-127750000D02*
X235608600Y-127750000D01*
X251956200Y-167000000D02*
X256734000Y-162222200D01*
X260464000Y-170295100D02*
X264093600Y-173924700D01*
X263700000Y-126200000D02*
X269500000Y-132000000D01*
X161320800Y-209499400D02*
X158780800Y-209499400D01*
X251505300Y-167000000D02*
X251956200Y-167000000D01*
X264375000Y-175050000D02*
X264375000Y-176175300D01*
X264095000Y-85595000D02*
X265000000Y-86500000D01*
X163000000Y-128820000D02*
X164175300Y-128820000D01*
X235378600Y-196750000D02*
X233500000Y-196750000D01*
X264375000Y-201875000D02*
X265500300Y-201875000D01*
X264375000Y-175050000D02*
X264375000Y-173924700D01*
X264093600Y-173924700D02*
X264375000Y-173924700D01*
X243896300Y-179759700D02*
X250380000Y-173276000D01*
X233500000Y-86750000D02*
X234655000Y-85595000D01*
X243615000Y-182010300D02*
X244900000Y-183295300D01*
X257487200Y-159702100D02*
X258487100Y-159702100D01*
X237158600Y-126200000D02*
X263700000Y-126200000D01*
X158526000Y-157433300D02*
X150808000Y-149715300D01*
X198107500Y-189984700D02*
X196695000Y-189984700D01*
X139525000Y-195906800D02*
X139525000Y-183775000D01*
X211908700Y-95908700D02*
X218091300Y-95908700D01*
X163860800Y-209499400D02*
X161320800Y-209499400D01*
X250380000Y-173276000D02*
X250380000Y-167000000D01*
X258487100Y-159702100D02*
X260464000Y-161679000D01*
X133431800Y-202000000D02*
X132500000Y-202000000D01*
X250380000Y-167000000D02*
X251505300Y-167000000D01*
X150808000Y-149715300D02*
X150000000Y-149715300D01*
X202000000Y-128540000D02*
X200824700Y-128540000D01*
X198107500Y-191030000D02*
X198107500Y-189984700D01*
X243615000Y-179759700D02*
X243896300Y-179759700D01*
X244900000Y-187228600D02*
X235378600Y-196750000D01*
X229500300Y-201875000D02*
X229500300Y-200749700D01*
X199928000Y-127329800D02*
X200824700Y-128226500D01*
X165716000Y-127279300D02*
X182814300Y-127279300D01*
X200824700Y-128226500D02*
X200824700Y-128540000D01*
X265500300Y-201875000D02*
X269500000Y-197875300D01*
X243615000Y-180885000D02*
X243615000Y-182010300D01*
X184000000Y-128465000D02*
X185175300Y-128465000D01*
X264375000Y-176175300D02*
X270009400Y-181809700D01*
X263700000Y-119465000D02*
X263700000Y-126200000D01*
X243615000Y-180322300D02*
X243615000Y-179759700D01*
X235608600Y-127750000D02*
X237158600Y-126200000D01*
X179100800Y-209743100D02*
X179100800Y-209499400D01*
X139525000Y-183775000D02*
X139525000Y-170905000D01*
X163860800Y-209776200D02*
X165935800Y-211851200D01*
X234655000Y-85595000D02*
X264095000Y-85595000D01*
X165935800Y-211851200D02*
X176992700Y-211851200D01*
X269500000Y-197875300D02*
X269500000Y-197000000D01*
X243615000Y-180322300D02*
X243615000Y-180885000D01*
X244900000Y-183295300D02*
X244900000Y-187228600D01*
X159710000Y-157433300D02*
X158526000Y-157433300D01*
X139525000Y-170905000D02*
X138360000Y-169740000D01*
X211750000Y-95750000D02*
X211908700Y-95908700D01*
X176992700Y-211851200D02*
X179100800Y-209743100D01*
X228375000Y-201875000D02*
X229500300Y-201875000D01*
X218091300Y-95908700D02*
X218250000Y-95750000D01*
X206465300Y-125250000D02*
X211750000Y-125250000D01*
X158780800Y-209499400D02*
X156240800Y-209499400D01*
%TO.N,NMI*%
X163000000Y-123740000D02*
X161824700Y-123740000D01*
X218766500Y-123460000D02*
X220308900Y-125002400D01*
X141000000Y-123460000D02*
X142175300Y-123460000D01*
X220308900Y-125002400D02*
X220308900Y-125065900D01*
X220308900Y-125065900D02*
X218793100Y-126581700D01*
X202000000Y-123460000D02*
X218766500Y-123460000D01*
X202638700Y-129718000D02*
X191508300Y-129718000D01*
X191508300Y-129718000D02*
X191221400Y-129431100D01*
X161824700Y-123372700D02*
X160984000Y-122532000D01*
X218793100Y-126581700D02*
X205775000Y-126581700D01*
X160984000Y-122532000D02*
X143103300Y-122532000D01*
X143103300Y-122532000D02*
X142175300Y-123460000D01*
X205775000Y-126581700D02*
X202638700Y-129718000D01*
X161824700Y-123740000D02*
X161824700Y-123372700D01*
%TO.N,Net-(D1-Pad2)*%
X165460000Y-139000000D02*
X160810000Y-139000000D01*
%TO.N,PHI1O*%
X202000000Y-126000000D02*
X200824700Y-126000000D01*
X163000000Y-126280000D02*
X161824700Y-126280000D01*
X186275600Y-124824700D02*
X200016800Y-124824700D01*
X161824700Y-125912700D02*
X160998100Y-125086100D01*
X200016800Y-124824700D02*
X200824700Y-125632600D01*
X161824700Y-126280000D02*
X161824700Y-125912700D01*
X207601900Y-132683500D02*
X212623400Y-137705000D01*
X212623400Y-137705000D02*
X228375000Y-137705000D01*
X160998100Y-125086100D02*
X143089200Y-125086100D01*
X185175300Y-125925000D02*
X186275600Y-124824700D01*
X141000000Y-126000000D02*
X142175300Y-126000000D01*
X143089200Y-125086100D02*
X142175300Y-126000000D01*
X184000000Y-125925000D02*
X185175300Y-125925000D01*
X200824700Y-125632600D02*
X200824700Y-126000000D01*
%TO.N,dev6*%
X234113700Y-116913900D02*
X234113700Y-111701200D01*
X206599900Y-127032100D02*
X221084800Y-127032100D01*
X160460000Y-127455300D02*
X160827400Y-127455300D01*
X221084800Y-127032100D02*
X229671900Y-118445000D01*
X229671900Y-118445000D02*
X232582600Y-118445000D01*
X161635300Y-129141200D02*
X162662500Y-130168400D01*
X161635300Y-128263200D02*
X161635300Y-129141200D01*
X232582600Y-118445000D02*
X234113700Y-116913900D01*
X162662500Y-130168400D02*
X203463600Y-130168400D01*
X160827400Y-127455300D02*
X161635300Y-128263200D01*
X203463600Y-130168400D02*
X206599900Y-127032100D01*
X160460000Y-126280000D02*
X160460000Y-127455300D01*
%TO.N,dev5*%
X223163700Y-104475000D02*
X231074700Y-104475000D01*
X209401800Y-106890800D02*
X210818500Y-105474100D01*
X210818500Y-105474100D02*
X222164600Y-105474100D01*
X200900800Y-106890800D02*
X209401800Y-106890800D01*
X222164600Y-105474100D02*
X223163700Y-104475000D01*
X232200000Y-104475000D02*
X231074700Y-104475000D01*
%TO.N,ML*%
X200635400Y-122284600D02*
X186394000Y-122284600D01*
X204987500Y-122732200D02*
X219064500Y-122732200D01*
X163000000Y-121200000D02*
X164175300Y-121200000D01*
X181941500Y-122031100D02*
X165006400Y-122031100D01*
X182824700Y-120845000D02*
X182824700Y-121147900D01*
X184000000Y-120845000D02*
X182824700Y-120845000D01*
X219064500Y-122732200D02*
X221275100Y-124942800D01*
X202000000Y-120920000D02*
X200635400Y-122284600D01*
X202000000Y-120920000D02*
X203175300Y-120920000D01*
X221275100Y-124942800D02*
X221275100Y-125453100D01*
X203175300Y-120920000D02*
X204987500Y-122732200D01*
X165006400Y-122031100D02*
X164175300Y-121200000D01*
X182824700Y-121147900D02*
X181941500Y-122031100D01*
%TO.N,dev4*%
X232200000Y-101935000D02*
X231074700Y-101935000D01*
X230552100Y-102457600D02*
X231074700Y-101935000D01*
X204384800Y-102457600D02*
X230552100Y-102457600D01*
%TO.N,VP*%
X182824700Y-118607900D02*
X181941500Y-119491100D01*
X184000000Y-118305000D02*
X182824700Y-118305000D01*
X202000000Y-118380000D02*
X222463600Y-118380000D01*
X201412400Y-118380000D02*
X202000000Y-118380000D01*
X165006400Y-119491100D02*
X164175300Y-118660000D01*
X200824700Y-118380000D02*
X200824700Y-118747400D01*
X200824700Y-118747400D02*
X200016800Y-119555300D01*
X201412400Y-118380000D02*
X200824700Y-118380000D01*
X182824700Y-118305000D02*
X182824700Y-118607900D01*
X200016800Y-119555300D02*
X190276300Y-119555300D01*
X181941500Y-119491100D02*
X165006400Y-119491100D01*
X163000000Y-118660000D02*
X164175300Y-118660000D01*
%TO.N,RDY*%
X200824700Y-115472600D02*
X200016800Y-114664700D01*
X228375000Y-135165000D02*
X227249700Y-135165000D01*
X200016800Y-114664700D02*
X193747700Y-114664700D01*
X184000000Y-115765000D02*
X182824700Y-115765000D01*
X218810000Y-134000000D02*
X219935300Y-134000000D01*
X215670300Y-131985600D02*
X217684700Y-134000000D01*
X165006400Y-116951100D02*
X164175300Y-116120000D01*
X209589200Y-131985600D02*
X215670300Y-131985600D01*
X219935300Y-134000000D02*
X226084700Y-134000000D01*
X193747700Y-114664700D02*
X192786400Y-115626000D01*
X200824700Y-115840000D02*
X200824700Y-115472600D01*
X209120400Y-132454400D02*
X209589200Y-131985600D01*
X182824700Y-115765000D02*
X182824700Y-116132300D01*
X182005900Y-116951100D02*
X165006400Y-116951100D01*
X202000000Y-115840000D02*
X200824700Y-115840000D01*
X163000000Y-116120000D02*
X164175300Y-116120000D01*
X218810000Y-134000000D02*
X217684700Y-134000000D01*
X182824700Y-116132300D02*
X182005900Y-116951100D01*
X226084700Y-134000000D02*
X227249700Y-135165000D01*
%TO.N,a14*%
X244740300Y-171295800D02*
X243896400Y-172139700D01*
X243615000Y-173265000D02*
X243615000Y-172139700D01*
X194627100Y-115840000D02*
X194304200Y-115517100D01*
X205630800Y-133629000D02*
X201623300Y-133629000D01*
X179464400Y-114944700D02*
X162443200Y-114944700D01*
X224965600Y-131535200D02*
X208692200Y-131535200D01*
X181460000Y-115765000D02*
X180284700Y-115765000D01*
X265249600Y-132474600D02*
X263755100Y-130980100D01*
X205630800Y-133628900D02*
X205630800Y-133629000D01*
X244740300Y-170337900D02*
X244740300Y-171295800D01*
X199460000Y-115840000D02*
X194627100Y-115840000D01*
X225520700Y-130980100D02*
X224965600Y-131535200D01*
X161635300Y-115752600D02*
X161635300Y-116120000D01*
X208692200Y-131535200D02*
X208269200Y-131958200D01*
X207301500Y-131958200D02*
X205630800Y-133628900D01*
X263755100Y-130980100D02*
X225520700Y-130980100D01*
X255638000Y-159686800D02*
X255391400Y-159686800D01*
X162443200Y-114944700D02*
X161635300Y-115752600D01*
X208269200Y-131958200D02*
X207301500Y-131958200D01*
X160460000Y-116120000D02*
X161635300Y-116120000D01*
X180284700Y-115765000D02*
X179464400Y-114944700D01*
X243896400Y-172139700D02*
X243615000Y-172139700D01*
X255391400Y-159686800D02*
X244740300Y-170337900D01*
%TO.N,BE*%
X165006400Y-114411100D02*
X164175300Y-113580000D01*
X184000000Y-113225000D02*
X182824700Y-113225000D01*
X182824700Y-113592300D02*
X182005900Y-114411100D01*
X242489700Y-142785000D02*
X238679700Y-138975000D01*
X182005900Y-114411100D02*
X165006400Y-114411100D01*
X243615000Y-142785000D02*
X242489700Y-142785000D01*
X163000000Y-113580000D02*
X164175300Y-113580000D01*
X243615000Y-142785000D02*
X244740300Y-142785000D01*
X246525300Y-141000000D02*
X244740300Y-142785000D01*
X250190000Y-141000000D02*
X246525300Y-141000000D01*
X238679700Y-138975000D02*
X208224200Y-138975000D01*
X182824700Y-113225000D02*
X182824700Y-113592300D01*
%TO.N,a13*%
X194050200Y-113300000D02*
X190498000Y-116852200D01*
X158389400Y-114475300D02*
X140443200Y-114475300D01*
X251205900Y-164525300D02*
X253405100Y-164525300D01*
X232687800Y-113220400D02*
X223122800Y-113220400D01*
X200635300Y-113667400D02*
X200635300Y-113300000D01*
X181460000Y-113225000D02*
X180284700Y-113225000D01*
X139635300Y-113667400D02*
X139635300Y-113300000D01*
X258375700Y-104225000D02*
X250881400Y-111719300D01*
X249078200Y-166653000D02*
X251205900Y-164525300D01*
X199460000Y-113300000D02*
X194050200Y-113300000D01*
X243896300Y-174679700D02*
X249078200Y-169497800D01*
X161635300Y-113212600D02*
X161635300Y-113580000D01*
X138460000Y-113300000D02*
X139635300Y-113300000D01*
X201443200Y-114475300D02*
X200635300Y-113667400D01*
X180284700Y-113225000D02*
X179464400Y-112404700D01*
X233352000Y-112556200D02*
X232687800Y-113220400D01*
X179464400Y-112404700D02*
X162443200Y-112404700D01*
X159284700Y-113580000D02*
X158389400Y-114475300D01*
X160460000Y-113580000D02*
X159284700Y-113580000D01*
X140443200Y-114475300D02*
X139635300Y-113667400D01*
X241197900Y-105857600D02*
X238931600Y-105857600D01*
X243615000Y-174679700D02*
X243896300Y-174679700D01*
X247059600Y-111719300D02*
X241197900Y-105857600D01*
X160460000Y-113580000D02*
X161635300Y-113580000D01*
X250881400Y-111719300D02*
X247059600Y-111719300D01*
X221194600Y-115148600D02*
X210548600Y-115148600D01*
X210548600Y-115148600D02*
X209875300Y-114475300D01*
X238931600Y-105857600D02*
X233352000Y-111437200D01*
X209875300Y-114475300D02*
X201443200Y-114475300D01*
X233352000Y-111437200D02*
X233352000Y-112556200D01*
X223122800Y-113220400D02*
X221194600Y-115148600D01*
X263700000Y-104225000D02*
X258375700Y-104225000D01*
X162443200Y-112404700D02*
X161635300Y-113212600D01*
X199460000Y-113300000D02*
X200635300Y-113300000D01*
X249078200Y-169497800D02*
X249078200Y-166653000D01*
X243615000Y-175805000D02*
X243615000Y-174679700D01*
%TO.N,IRQ*%
X182016800Y-111860300D02*
X182824700Y-111052400D01*
X227249700Y-140245000D02*
X220060700Y-147434000D01*
X202000000Y-110760000D02*
X203175300Y-110760000D01*
X203515300Y-110420000D02*
X205885000Y-110420000D01*
X183212700Y-156645000D02*
X179402700Y-160455000D01*
X203175300Y-110760000D02*
X203515300Y-110420000D01*
X186221000Y-156645000D02*
X183212700Y-156645000D01*
X179402700Y-160455000D02*
X176200000Y-160455000D01*
X164995600Y-111860300D02*
X182016800Y-111860300D01*
X182824700Y-111052400D02*
X182824700Y-110685000D01*
X184000000Y-110685000D02*
X182824700Y-110685000D01*
X164175300Y-111040000D02*
X164995600Y-111860300D01*
X163000000Y-111040000D02*
X164175300Y-111040000D01*
X195432000Y-147434000D02*
X186221000Y-156645000D01*
X220060700Y-147434000D02*
X195432000Y-147434000D01*
X228375000Y-140245000D02*
X227249700Y-140245000D01*
%TO.N,a12*%
X243615000Y-178345000D02*
X242489700Y-178345000D01*
X179464400Y-109864700D02*
X162443200Y-109864700D01*
X158389400Y-111935300D02*
X140443200Y-111935300D01*
X241364400Y-179470300D02*
X224093300Y-179470300D01*
X161635300Y-110672600D02*
X161635300Y-111040000D01*
X160460000Y-111040000D02*
X159284700Y-111040000D01*
X248817300Y-158103700D02*
X245731800Y-158103700D01*
X262351000Y-144570000D02*
X248817300Y-158103700D01*
X180284700Y-110685000D02*
X179464400Y-109864700D01*
X242489700Y-178345000D02*
X241364400Y-179470300D01*
X181460000Y-110685000D02*
X180284700Y-110685000D01*
X140443200Y-111935300D02*
X139635300Y-111127400D01*
X162443200Y-109864700D02*
X161635300Y-110672600D01*
X138460000Y-110760000D02*
X139635300Y-110760000D01*
X160460000Y-111040000D02*
X161635300Y-111040000D01*
X159284700Y-111040000D02*
X158389400Y-111935300D01*
X264375000Y-144570000D02*
X262351000Y-144570000D01*
X139635300Y-111127400D02*
X139635300Y-110760000D01*
%TO.N,SYNC*%
X187434700Y-107044700D02*
X186893100Y-107586300D01*
X182617900Y-107586300D02*
X181950200Y-106918600D01*
X186893100Y-107586300D02*
X184000000Y-107586300D01*
X200824700Y-107852600D02*
X200016800Y-107044700D01*
X200016800Y-107044700D02*
X187434700Y-107044700D01*
X181950200Y-106918600D02*
X175887600Y-106918600D01*
X184000000Y-107586300D02*
X182617900Y-107586300D01*
X184000000Y-108145000D02*
X184000000Y-107586300D01*
X202000000Y-108220000D02*
X200824700Y-108220000D01*
X200824700Y-108220000D02*
X200824700Y-107852600D01*
%TO.N,a11*%
X236785700Y-124025300D02*
X236335400Y-124475600D01*
X162443200Y-107324700D02*
X175268000Y-107324700D01*
X279896300Y-153604700D02*
X280750900Y-152750100D01*
X214672800Y-170530500D02*
X218382500Y-166820800D01*
X231388300Y-124475600D02*
X225054100Y-130809800D01*
X139635300Y-108587400D02*
X139635300Y-108220000D01*
X271676000Y-110575000D02*
X270500300Y-110575000D01*
X269230300Y-109305000D02*
X263700000Y-109305000D01*
X183443200Y-109320300D02*
X182635300Y-108512400D01*
X279615000Y-154730000D02*
X279615000Y-153604700D01*
X225054100Y-130809800D02*
X211294500Y-130809800D01*
X280750900Y-152750100D02*
X280750900Y-141504300D01*
X160460000Y-108500000D02*
X161635300Y-108500000D01*
X280750900Y-141504300D02*
X280006600Y-140760000D01*
X161635300Y-108500000D02*
X161635300Y-108132600D01*
X190316600Y-109320300D02*
X183443200Y-109320300D01*
X159284700Y-108500000D02*
X158389400Y-109395300D01*
X279615000Y-153604700D02*
X279896300Y-153604700D01*
X161635300Y-108132600D02*
X162443200Y-107324700D01*
X270500300Y-110575000D02*
X269230300Y-109305000D01*
X158389400Y-109395300D02*
X140443200Y-109395300D01*
X140443200Y-109395300D02*
X139635300Y-108587400D01*
X181460000Y-108145000D02*
X180284700Y-108145000D01*
X278489700Y-117388700D02*
X271676000Y-110575000D01*
X280006600Y-140760000D02*
X279241000Y-140760000D01*
X278489700Y-140008700D02*
X278489700Y-117388700D01*
X160460000Y-108500000D02*
X159284700Y-108500000D01*
X236335400Y-124475600D02*
X231388300Y-124475600D01*
X262574700Y-109305000D02*
X247854400Y-124025300D01*
X279241000Y-140760000D02*
X278489700Y-140008700D01*
X182635300Y-108512400D02*
X182635300Y-108145000D01*
X263700000Y-109305000D02*
X262574700Y-109305000D01*
X247854400Y-124025300D02*
X236785700Y-124025300D01*
X176088300Y-108145000D02*
X180284700Y-108145000D01*
X214672800Y-170710000D02*
X214672800Y-170530500D01*
X191416900Y-108220000D02*
X190316600Y-109320300D01*
X181460000Y-108145000D02*
X182635300Y-108145000D01*
X199460000Y-108220000D02*
X191416900Y-108220000D01*
X213347500Y-170710000D02*
X214672800Y-170710000D01*
X138460000Y-108220000D02*
X139635300Y-108220000D01*
X175268000Y-107324700D02*
X176088300Y-108145000D01*
%TO.N,RESET*%
X161824700Y-105960000D02*
X161824700Y-105592700D01*
X141000000Y-105680000D02*
X142175300Y-105680000D01*
X200824700Y-105680000D02*
X200824700Y-105312700D01*
X185662300Y-105118000D02*
X185175300Y-105605000D01*
X143103300Y-104752000D02*
X142175300Y-105680000D01*
X163000000Y-105960000D02*
X161824700Y-105960000D01*
X200824700Y-105312700D02*
X199996800Y-104484800D01*
X243615000Y-132625000D02*
X242489700Y-132625000D01*
X202000000Y-105680000D02*
X200824700Y-105680000D01*
X224943900Y-132260600D02*
X225722300Y-131482200D01*
X252975400Y-217540400D02*
X253675300Y-218240300D01*
X195988200Y-105118000D02*
X185662300Y-105118000D01*
X245165700Y-217540400D02*
X252975400Y-217540400D01*
X184000000Y-105605000D02*
X185175300Y-105605000D01*
X241346900Y-131482200D02*
X242489700Y-132625000D01*
X164175300Y-105960000D02*
X165735200Y-104400100D01*
X196621400Y-104484800D02*
X195988200Y-105118000D01*
X253675300Y-218240300D02*
X277364400Y-218240300D01*
X219583500Y-132260600D02*
X224943900Y-132260600D01*
X244740300Y-217115000D02*
X245165700Y-217540400D01*
X243615000Y-217115000D02*
X244740300Y-217115000D01*
X182795100Y-104400100D02*
X184000000Y-105605000D01*
X161824700Y-105592700D02*
X160984000Y-104752000D01*
X218250000Y-120750000D02*
X211750000Y-120750000D01*
X277364400Y-218240300D02*
X278489700Y-217115000D01*
X199996800Y-104484800D02*
X196621400Y-104484800D01*
X163000000Y-105960000D02*
X164175300Y-105960000D01*
X279615000Y-217115000D02*
X278489700Y-217115000D01*
X160984000Y-104752000D02*
X143103300Y-104752000D01*
X225722300Y-131482200D02*
X241346900Y-131482200D01*
X165735200Y-104400100D02*
X182795100Y-104400100D01*
%TO.N,a10*%
X262796700Y-137875400D02*
X262555600Y-137634300D01*
X228838700Y-144182800D02*
X227139400Y-144182800D01*
X186374000Y-105680000D02*
X199460000Y-105680000D01*
X252141900Y-149012900D02*
X234369100Y-149012900D01*
X279615000Y-158684700D02*
X279333700Y-158684700D01*
X185251500Y-106802500D02*
X186374000Y-105680000D01*
X275419700Y-144719000D02*
X269058800Y-138358100D01*
X159284700Y-105960000D02*
X158389400Y-106855300D01*
X234369100Y-149012900D02*
X234019000Y-149363000D01*
X160460000Y-105960000D02*
X159284700Y-105960000D01*
X269058800Y-138358100D02*
X262796700Y-138358100D01*
X182635300Y-105605000D02*
X182635300Y-105972300D01*
X262796700Y-138358100D02*
X262796700Y-137875400D01*
X140443200Y-106855300D02*
X139635300Y-106047400D01*
X158389400Y-106855300D02*
X140443200Y-106855300D01*
X182635300Y-105972300D02*
X183465500Y-106802500D01*
X139635300Y-106047400D02*
X139635300Y-105680000D01*
X183465500Y-106802500D02*
X185251500Y-106802500D01*
X275419700Y-154770700D02*
X275419700Y-144719000D01*
X234019000Y-149363000D02*
X233384100Y-149997900D01*
X181460000Y-105605000D02*
X182635300Y-105605000D01*
X279333700Y-158684700D02*
X275419700Y-154770700D01*
X234019000Y-149363000D02*
X228838700Y-144182800D01*
X138460000Y-105680000D02*
X139635300Y-105680000D01*
X262796700Y-138358100D02*
X252141900Y-149012900D01*
X279615000Y-159810000D02*
X279615000Y-158684700D01*
%TO.N,PHI2*%
X163000000Y-103420000D02*
X161824700Y-103420000D01*
X161824700Y-103052700D02*
X160997800Y-102225800D01*
X277364400Y-241100300D02*
X278489700Y-239975000D01*
X160997800Y-102225800D02*
X143089500Y-102225800D01*
X203218200Y-103182900D02*
X237383000Y-103182900D01*
X202000000Y-103140000D02*
X203175300Y-103140000D01*
X243615000Y-239975000D02*
X244740300Y-239975000D01*
X279615000Y-239975000D02*
X278489700Y-239975000D01*
X185175300Y-103065000D02*
X186275600Y-101964700D01*
X260263600Y-239607500D02*
X261756400Y-241100300D01*
X241364400Y-241100300D02*
X207885900Y-241100300D01*
X200824700Y-102772600D02*
X200824700Y-103140000D01*
X202000000Y-103140000D02*
X200824700Y-103140000D01*
X261756400Y-241100300D02*
X277364400Y-241100300D01*
X143089500Y-102225800D02*
X142175300Y-103140000D01*
X184587700Y-103065000D02*
X184000000Y-103065000D01*
X161824700Y-103420000D02*
X161824700Y-103052700D01*
X141000000Y-103140000D02*
X142175300Y-103140000D01*
X245107800Y-239607500D02*
X260263600Y-239607500D01*
X200016800Y-101964700D02*
X200824700Y-102772600D01*
X186275600Y-101964700D02*
X200016800Y-101964700D01*
X242489700Y-239975000D02*
X241364400Y-241100300D01*
X244740300Y-239975000D02*
X245107800Y-239607500D01*
X207885900Y-241100300D02*
X197100300Y-230314700D01*
X203175300Y-103140000D02*
X203218200Y-103182900D01*
X243615000Y-239975000D02*
X242489700Y-239975000D01*
X184587700Y-103065000D02*
X185175300Y-103065000D01*
%TO.N,a9*%
X236345100Y-126376600D02*
X236972100Y-125749600D01*
X199460000Y-103140000D02*
X198284700Y-103140000D01*
X264247400Y-118336800D02*
X275870100Y-129959500D01*
X195891400Y-104259700D02*
X183482300Y-104259700D01*
X262522500Y-116406500D02*
X263418700Y-115510300D01*
X279433700Y-151064700D02*
X279615000Y-151064700D01*
X263700000Y-114385000D02*
X263700000Y-115510300D01*
X197011100Y-103140000D02*
X195891400Y-104259700D01*
X182635300Y-103412700D02*
X182635300Y-103065000D01*
X183482300Y-104259700D02*
X182635300Y-103412700D01*
X221619900Y-104504600D02*
X200824600Y-104504600D01*
X262522500Y-118336800D02*
X262522500Y-116406500D01*
X200824600Y-104504600D02*
X199460000Y-103140000D01*
X263418700Y-115510300D02*
X263700000Y-115510300D01*
X232285200Y-126376600D02*
X236345100Y-126376600D01*
X255109700Y-125749600D02*
X262522500Y-118336800D01*
X262522500Y-118336800D02*
X264247400Y-118336800D01*
X198284700Y-103140000D02*
X197011100Y-103140000D01*
X275870100Y-129959500D02*
X275870100Y-147501100D01*
X231327200Y-127334600D02*
X232285200Y-126376600D01*
X181460000Y-103065000D02*
X182635300Y-103065000D01*
X221864100Y-104748800D02*
X221619900Y-104504600D01*
X275870100Y-147501100D02*
X279433700Y-151064700D01*
X279615000Y-152190000D02*
X279615000Y-151064700D01*
X236972100Y-125749600D02*
X255109700Y-125749600D01*
%TO.N,RW*%
X192568700Y-99414300D02*
X200814300Y-99414300D01*
X143088400Y-99686900D02*
X142175300Y-100600000D01*
X236787400Y-98229200D02*
X205546100Y-98229200D01*
X262574800Y-247595000D02*
X263700100Y-248720300D01*
X205546100Y-98229200D02*
X203175300Y-100600000D01*
X277364400Y-248720300D02*
X278489700Y-247595000D01*
X279615000Y-247595000D02*
X278489700Y-247595000D01*
X262574700Y-94065000D02*
X255913400Y-94065000D01*
X161824700Y-100880000D02*
X161824700Y-100512700D01*
X251749200Y-98229200D02*
X236787400Y-98229200D01*
X200814300Y-99414300D02*
X202000000Y-100600000D01*
X161824700Y-100512700D02*
X160998900Y-99686900D01*
X184000000Y-100525000D02*
X191458000Y-100525000D01*
X160998900Y-99686900D02*
X143088400Y-99686900D01*
X243615000Y-247595000D02*
X262574800Y-247595000D01*
X191458000Y-100525000D02*
X192568700Y-99414300D01*
X263700000Y-94065000D02*
X262574700Y-94065000D01*
X255913400Y-94065000D02*
X251749200Y-98229200D01*
X236787400Y-98229200D02*
X236787400Y-100245800D01*
X202000000Y-100600000D02*
X203175300Y-100600000D01*
X263700100Y-248720300D02*
X277364400Y-248720300D01*
X163000000Y-100880000D02*
X161824700Y-100880000D01*
X141000000Y-100600000D02*
X142175300Y-100600000D01*
%TO.N,a8*%
X197909300Y-100975400D02*
X186145300Y-100975400D01*
X200635300Y-100600000D02*
X200635300Y-100967400D01*
X159284700Y-100880000D02*
X158389400Y-101775300D01*
X181460000Y-100525000D02*
X182635300Y-100525000D01*
X138460000Y-100600000D02*
X139635300Y-100600000D01*
X183443200Y-101700300D02*
X182635300Y-100892400D01*
X230322500Y-127313600D02*
X231709800Y-125926300D01*
X199460000Y-100600000D02*
X200635300Y-100600000D01*
X236785600Y-125299200D02*
X250096700Y-125299200D01*
X250096700Y-125299200D02*
X262178800Y-113217100D01*
X199460000Y-100600000D02*
X198284700Y-100600000D01*
X186145300Y-100975400D02*
X185420400Y-101700300D01*
X231709800Y-125926300D02*
X236158500Y-125926300D01*
X262178800Y-113217100D02*
X264202400Y-113217100D01*
X230322500Y-127535500D02*
X230322500Y-127313600D01*
X264835000Y-113849700D02*
X264835000Y-115790000D01*
X264835000Y-115790000D02*
X263700000Y-116925000D01*
X264202400Y-113217100D02*
X264835000Y-113849700D01*
X158389400Y-101775300D02*
X140443200Y-101775300D01*
X139635300Y-100967400D02*
X139635300Y-100600000D01*
X160460000Y-100880000D02*
X159284700Y-100880000D01*
X182635300Y-100892400D02*
X182635300Y-100525000D01*
X277589000Y-146780000D02*
X277589000Y-130814000D01*
X279333700Y-148524700D02*
X277589000Y-146780000D01*
X204041400Y-101775300D02*
X204084400Y-101732300D01*
X198284700Y-100600000D02*
X197909300Y-100975400D01*
X204084400Y-101732300D02*
X221111100Y-101732300D01*
X185420400Y-101700300D02*
X183443200Y-101700300D01*
X279615000Y-149650000D02*
X279615000Y-148524700D01*
X279615000Y-148524700D02*
X279333700Y-148524700D01*
X201443200Y-101775300D02*
X204041400Y-101775300D01*
X200635300Y-100967400D02*
X201443200Y-101775300D01*
X277589000Y-130814000D02*
X263700000Y-116925000D01*
X140443200Y-101775300D02*
X139635300Y-100967400D01*
X236158500Y-125926300D02*
X236785600Y-125299200D01*
%TO.N,d7*%
X251240800Y-163058300D02*
X255337600Y-158961500D01*
X160984000Y-97132000D02*
X143103300Y-97132000D01*
X219898000Y-97573000D02*
X222017800Y-95453200D01*
X243615000Y-237435000D02*
X244740300Y-237435000D01*
X141000000Y-98060000D02*
X142175300Y-98060000D01*
X279052400Y-237435000D02*
X278489700Y-237435000D01*
X266735200Y-163620000D02*
X271723200Y-168608000D01*
X234391300Y-95453200D02*
X239967000Y-89877500D01*
X261756400Y-238560300D02*
X277364400Y-238560300D01*
X281774300Y-161886700D02*
X279896300Y-163764700D01*
X249503800Y-163058300D02*
X251240800Y-163058300D01*
X203662300Y-97573000D02*
X219898000Y-97573000D01*
X277364400Y-238560300D02*
X278489700Y-237435000D01*
X185175300Y-97985000D02*
X186308100Y-96852200D01*
X279615000Y-164327300D02*
X279615000Y-163764700D01*
X217208400Y-177009100D02*
X214392800Y-179824700D01*
X213347500Y-180870000D02*
X213347500Y-179824700D01*
X200824700Y-97746500D02*
X200824700Y-98060000D01*
X279615000Y-164327300D02*
X279615000Y-164890000D01*
X161824700Y-97972700D02*
X160984000Y-97132000D01*
X280758600Y-166877600D02*
X279896300Y-166015300D01*
X186308100Y-96852200D02*
X199930400Y-96852200D01*
X233665600Y-177009100D02*
X217208400Y-177009100D01*
X243615000Y-168185000D02*
X242489700Y-168185000D01*
X184000000Y-97985000D02*
X185175300Y-97985000D01*
X280048700Y-168608000D02*
X280758600Y-167898100D01*
X260263600Y-237067500D02*
X261756400Y-238560300D01*
X281724000Y-170283300D02*
X280048700Y-168608000D01*
X163000000Y-98340000D02*
X161824700Y-98340000D01*
X271979200Y-89877500D02*
X281774300Y-99672600D01*
X279896300Y-163764700D02*
X279615000Y-163764700D01*
X244740300Y-167821800D02*
X249503800Y-163058300D01*
X279896300Y-236309700D02*
X281724000Y-234482000D01*
X202000000Y-98060000D02*
X203175300Y-98060000D01*
X239967000Y-89877500D02*
X271979200Y-89877500D01*
X279896300Y-166015300D02*
X279615000Y-166015300D01*
X279615000Y-236309700D02*
X279896300Y-236309700D01*
X143103300Y-97132000D02*
X142175300Y-98060000D01*
X202000000Y-98060000D02*
X200824700Y-98060000D01*
X244740300Y-168185000D02*
X244740300Y-167821800D01*
X255337600Y-158961500D02*
X258996600Y-158961500D01*
X271723200Y-168608000D02*
X280048700Y-168608000D01*
X214392800Y-179824700D02*
X213347500Y-179824700D01*
X281724000Y-234482000D02*
X281724000Y-170283300D01*
X199930400Y-96852200D02*
X200824700Y-97746500D01*
X222017800Y-95453200D02*
X234391300Y-95453200D01*
X280758600Y-167898100D02*
X280758600Y-166877600D01*
X203175300Y-98060000D02*
X203662300Y-97573000D01*
X244740300Y-237435000D02*
X245107800Y-237067500D01*
X263655100Y-163620000D02*
X266735200Y-163620000D01*
X279615000Y-164890000D02*
X279615000Y-166015300D01*
X279615000Y-237435000D02*
X279615000Y-236309700D01*
X161824700Y-98340000D02*
X161824700Y-97972700D01*
X279052400Y-237435000D02*
X279615000Y-237435000D01*
X243615000Y-168185000D02*
X244740300Y-168185000D01*
X242489700Y-168185000D02*
X233665600Y-177009100D01*
X245107800Y-237067500D02*
X260263600Y-237067500D01*
X258996600Y-158961500D02*
X263655100Y-163620000D01*
X281774300Y-99672600D02*
X281774300Y-161886700D01*
%TO.N,a7*%
X227243500Y-105745000D02*
X223906200Y-109082300D01*
X216570700Y-109082300D02*
X223906200Y-109082300D01*
X183482600Y-99199600D02*
X186182400Y-99199600D01*
X214373300Y-106884900D02*
X216570700Y-109082300D01*
X261224000Y-147110000D02*
X246501500Y-161832500D01*
X238694700Y-102919600D02*
X235869300Y-105745000D01*
X238694700Y-101935000D02*
X238694700Y-102919600D01*
X187322000Y-98060000D02*
X198284700Y-98060000D01*
X186182400Y-99199600D02*
X187322000Y-98060000D01*
X181460000Y-97985000D02*
X182635300Y-97985000D01*
X234658300Y-161832500D02*
X229500300Y-166990500D01*
X229500300Y-168755800D02*
X228656400Y-169599700D01*
X239820000Y-101935000D02*
X238694700Y-101935000D01*
X228656400Y-169599700D02*
X228375000Y-169599700D01*
X228375000Y-170725000D02*
X228375000Y-169599700D01*
X229500300Y-166990500D02*
X229500300Y-168755800D01*
X182635300Y-98352300D02*
X183482600Y-99199600D01*
X235869300Y-105745000D02*
X227243500Y-105745000D01*
X264375000Y-147110000D02*
X261224000Y-147110000D01*
X182635300Y-97985000D02*
X182635300Y-98352300D01*
X199460000Y-98060000D02*
X198284700Y-98060000D01*
X246501500Y-161832500D02*
X234658300Y-161832500D01*
%TO.N,d6*%
X245626900Y-165645000D02*
X243615000Y-165645000D01*
X243615000Y-234895000D02*
X244740300Y-234895000D01*
X245107800Y-234527500D02*
X260263600Y-234527500D01*
X213053500Y-182364700D02*
X213347500Y-182364700D01*
X161824700Y-95432700D02*
X160997800Y-94605800D01*
X184000000Y-95445000D02*
X185175300Y-95445000D01*
X201412400Y-95520000D02*
X200824700Y-95520000D01*
X269570800Y-158511100D02*
X254951100Y-158511100D01*
X277364400Y-236020300D02*
X278489700Y-234895000D01*
X213347500Y-183410000D02*
X213347500Y-182364700D01*
X204290200Y-94405100D02*
X212846600Y-94405100D01*
X242489700Y-165645000D02*
X233599700Y-174535000D01*
X212846600Y-94405100D02*
X213884300Y-95442800D01*
X216110800Y-95442800D02*
X222851800Y-88701800D01*
X249306500Y-161965400D02*
X245626900Y-165645000D01*
X202000000Y-95520000D02*
X203175300Y-95520000D01*
X243615000Y-165645000D02*
X242489700Y-165645000D01*
X212820100Y-177060000D02*
X211973800Y-177906300D01*
X141000000Y-95520000D02*
X142175300Y-95520000D01*
X200824700Y-95152600D02*
X200824700Y-95520000D01*
X278489700Y-167430000D02*
X269570800Y-158511100D01*
X233599700Y-174535000D02*
X216600300Y-174535000D01*
X222851800Y-88701800D02*
X270678500Y-88701800D01*
X211973800Y-181285000D02*
X213053500Y-182364700D01*
X163000000Y-95800000D02*
X161824700Y-95800000D01*
X261756400Y-236020300D02*
X277364400Y-236020300D01*
X279615000Y-234895000D02*
X278489700Y-234895000D01*
X251496800Y-161965400D02*
X249306500Y-161965400D01*
X214075300Y-177060000D02*
X212820100Y-177060000D01*
X186275600Y-94344700D02*
X200016800Y-94344700D01*
X203175300Y-95520000D02*
X204290200Y-94405100D01*
X200016800Y-94344700D02*
X200824700Y-95152600D01*
X201412400Y-95520000D02*
X202000000Y-95520000D01*
X254951100Y-158511100D02*
X251496800Y-161965400D01*
X185175300Y-95445000D02*
X186275600Y-94344700D01*
X216600300Y-174535000D02*
X214075300Y-177060000D01*
X211973800Y-177906300D02*
X211973800Y-181285000D01*
X213884300Y-95442800D02*
X216110800Y-95442800D01*
X143089500Y-94605800D02*
X142175300Y-95520000D01*
X244740300Y-234895000D02*
X245107800Y-234527500D01*
X161824700Y-95800000D02*
X161824700Y-95432700D01*
X160997800Y-94605800D02*
X143089500Y-94605800D01*
X260263600Y-234527500D02*
X261756400Y-236020300D01*
X279615000Y-167430000D02*
X278489700Y-167430000D01*
%TO.N,a6*%
X185823300Y-95520000D02*
X184723000Y-96620300D01*
X264656300Y-148524700D02*
X265535600Y-147645400D01*
X234870500Y-159185300D02*
X247981700Y-159185300D01*
X183443200Y-96620300D02*
X182635300Y-95812400D01*
X228375000Y-168185000D02*
X228375000Y-167059700D01*
X222186400Y-100715400D02*
X236231300Y-100715400D01*
X229555900Y-164499900D02*
X229555900Y-166071600D01*
X236487000Y-100971100D02*
X237118600Y-100971100D01*
X198192300Y-164499900D02*
X229555900Y-164499900D01*
X239820000Y-99395000D02*
X238694700Y-99395000D01*
X209777400Y-98899700D02*
X220370700Y-98899700D01*
X237118600Y-100971100D02*
X238694700Y-99395000D01*
X264375000Y-148524700D02*
X264656300Y-148524700D01*
X248538300Y-159075800D02*
X248091200Y-159075800D01*
X236231300Y-100715400D02*
X236487000Y-100971100D01*
X184723000Y-96620300D02*
X183443200Y-96620300D01*
X198107500Y-165630000D02*
X198107500Y-164584700D01*
X229555900Y-166071600D02*
X228567800Y-167059700D01*
X265535600Y-146632800D02*
X264841900Y-145939100D01*
X209572000Y-99105100D02*
X209777400Y-98899700D01*
X261675000Y-145939100D02*
X248538300Y-159075800D01*
X229555900Y-164499900D02*
X234870500Y-159185300D01*
X265535600Y-147645400D02*
X265535600Y-146632800D01*
X181460000Y-95445000D02*
X182635300Y-95445000D01*
X264375000Y-149650000D02*
X264375000Y-148524700D01*
X198107500Y-164584700D02*
X198192300Y-164499900D01*
X228567800Y-167059700D02*
X228375000Y-167059700D01*
X199460000Y-95520000D02*
X185823300Y-95520000D01*
X247981700Y-159185300D02*
X248091200Y-159075800D01*
X182635300Y-95812400D02*
X182635300Y-95445000D01*
X264841900Y-145939100D02*
X261675000Y-145939100D01*
X220370700Y-98899700D02*
X222186400Y-100715400D01*
%TO.N,d5*%
X143070600Y-92084700D02*
X161016800Y-92084700D01*
X279615000Y-169970000D02*
X279615000Y-171095300D01*
X281229900Y-229896100D02*
X281229900Y-172428900D01*
X279615000Y-232355000D02*
X279615000Y-231229700D01*
X186275600Y-91804700D02*
X200016800Y-91804700D01*
X184000000Y-92905000D02*
X185175300Y-92905000D01*
X161016800Y-92084700D02*
X161824700Y-92892600D01*
X183412400Y-92905000D02*
X184000000Y-92905000D01*
X243615000Y-163105000D02*
X235397300Y-163105000D01*
X261756400Y-233480300D02*
X277364400Y-233480300D01*
X183412400Y-92905000D02*
X182824700Y-92905000D01*
X163000000Y-93260000D02*
X161824700Y-93260000D01*
X161824700Y-92892600D02*
X161824700Y-93260000D01*
X260263600Y-231987500D02*
X261756400Y-233480300D01*
X163000000Y-93260000D02*
X164175300Y-93260000D01*
X165006400Y-94091100D02*
X164175300Y-93260000D01*
X279896300Y-171095300D02*
X279615000Y-171095300D01*
X279896300Y-231229700D02*
X281229900Y-229896100D01*
X182005900Y-94091100D02*
X165006400Y-94091100D01*
X277364400Y-233480300D02*
X278489700Y-232355000D01*
X182824700Y-93272300D02*
X182005900Y-94091100D01*
X235397300Y-163105000D02*
X234944200Y-162651900D01*
X142175300Y-92980000D02*
X143070600Y-92084700D01*
X185175300Y-92905000D02*
X186275600Y-91804700D01*
X200824700Y-92612600D02*
X200824700Y-92980000D01*
X200016800Y-91804700D02*
X200824700Y-92612600D01*
X245107800Y-231987500D02*
X260263600Y-231987500D01*
X279615000Y-232355000D02*
X278489700Y-232355000D01*
X243615000Y-232355000D02*
X244740300Y-232355000D01*
X202000000Y-92980000D02*
X200824700Y-92980000D01*
X244740300Y-232355000D02*
X245107800Y-231987500D01*
X141000000Y-92980000D02*
X142175300Y-92980000D01*
X182824700Y-92905000D02*
X182824700Y-93272300D01*
X281229900Y-172428900D02*
X279896300Y-171095300D01*
X279615000Y-231229700D02*
X279896300Y-231229700D01*
%TO.N,a5*%
X245152400Y-164455400D02*
X257417800Y-152190000D01*
X227249700Y-166095500D02*
X227249700Y-171269500D01*
X139635300Y-93347400D02*
X139635300Y-92980000D01*
X215474800Y-94976100D02*
X220885300Y-89565600D01*
X198107500Y-168170000D02*
X198107500Y-167124700D01*
X212994400Y-93916000D02*
X214054500Y-94976100D01*
X216883300Y-167124700D02*
X217912500Y-166095500D01*
X203391800Y-94183900D02*
X203659700Y-93916000D01*
X230710400Y-171861400D02*
X238116400Y-164455400D01*
X257417800Y-152190000D02*
X264375000Y-152190000D01*
X227249700Y-166095500D02*
X227249700Y-165645000D01*
X227841600Y-171861400D02*
X230710400Y-171861400D01*
X238116400Y-164455400D02*
X245152400Y-164455400D01*
X199460000Y-92980000D02*
X200663900Y-94183900D01*
X203659700Y-93916000D02*
X212994400Y-93916000D01*
X228375000Y-165645000D02*
X227249700Y-165645000D01*
X160460000Y-93260000D02*
X159284700Y-93260000D01*
X200663900Y-94183900D02*
X203391800Y-94183900D01*
X217912500Y-166095500D02*
X227249700Y-166095500D01*
X198107500Y-167124700D02*
X216883300Y-167124700D01*
X138460000Y-92980000D02*
X139635300Y-92980000D01*
X158389400Y-94155300D02*
X140443200Y-94155300D01*
X214054500Y-94976100D02*
X215474800Y-94976100D01*
X227249700Y-171269500D02*
X227841600Y-171861400D01*
X159284700Y-93260000D02*
X158389400Y-94155300D01*
X140443200Y-94155300D02*
X139635300Y-93347400D01*
%TO.N,d4*%
X243615000Y-228689700D02*
X243333700Y-228689700D01*
X242360100Y-160694600D02*
X242489700Y-160565000D01*
X143070600Y-89544700D02*
X161016800Y-89544700D01*
X277364400Y-230940300D02*
X278489700Y-229815000D01*
X163000000Y-90720000D02*
X164175300Y-90720000D01*
X258224800Y-229429000D02*
X259736100Y-230940300D01*
X161824700Y-90352600D02*
X161824700Y-90720000D01*
X141000000Y-90440000D02*
X142175300Y-90440000D01*
X163000000Y-90720000D02*
X161824700Y-90720000D01*
X235461000Y-160694600D02*
X242360100Y-160694600D01*
X183412400Y-90365000D02*
X184000000Y-90365000D01*
X161016800Y-89544700D02*
X161824700Y-90352600D01*
X186275600Y-89264700D02*
X200016800Y-89264700D01*
X202000000Y-90440000D02*
X200824700Y-90440000D01*
X142175300Y-90440000D02*
X143070600Y-89544700D01*
X234668500Y-220024500D02*
X234668500Y-217935300D01*
X243333700Y-228689700D02*
X234668500Y-220024500D01*
X185175300Y-90365000D02*
X186275600Y-89264700D01*
X182005900Y-91551100D02*
X165006400Y-91551100D01*
X200016800Y-89264700D02*
X200824700Y-90072600D01*
X243615000Y-229815000D02*
X243615000Y-228689700D01*
X182824700Y-90365000D02*
X182824700Y-90732300D01*
X184000000Y-90365000D02*
X185175300Y-90365000D01*
X183412400Y-90365000D02*
X182824700Y-90365000D01*
X244177700Y-229815000D02*
X244740300Y-229815000D01*
X165006400Y-91551100D02*
X164175300Y-90720000D01*
X245126300Y-229429000D02*
X258224800Y-229429000D01*
X244740300Y-229815000D02*
X245126300Y-229429000D01*
X279615000Y-229815000D02*
X278489700Y-229815000D01*
X182824700Y-90732300D02*
X182005900Y-91551100D01*
X244177700Y-229815000D02*
X243615000Y-229815000D01*
X243615000Y-160565000D02*
X242489700Y-160565000D01*
X200824700Y-90072600D02*
X200824700Y-90440000D01*
X259736100Y-230940300D02*
X277364400Y-230940300D01*
%TO.N,a4*%
X239820000Y-94315000D02*
X240945300Y-94315000D01*
X281273600Y-99830000D02*
X281273600Y-159768400D01*
X229500300Y-163105000D02*
X235782900Y-156822400D01*
X198107500Y-170710000D02*
X198107500Y-169664700D01*
X265986000Y-152275000D02*
X264656300Y-153604700D01*
X271802200Y-90358600D02*
X281273600Y-99830000D01*
X274693700Y-160982700D02*
X265986000Y-152275000D01*
X235782900Y-156822400D02*
X249461700Y-156822400D01*
X264862400Y-143430600D02*
X265986000Y-144554200D01*
X281273600Y-159768400D02*
X280059300Y-160982700D01*
X249461700Y-156822400D02*
X262853500Y-143430600D01*
X228375000Y-163105000D02*
X227249700Y-163105000D01*
X264375000Y-154730000D02*
X264375000Y-153604700D01*
X228375000Y-163105000D02*
X229500300Y-163105000D01*
X225549300Y-162041500D02*
X226612800Y-163105000D01*
X244901700Y-90358600D02*
X271802200Y-90358600D01*
X240945300Y-94315000D02*
X244901700Y-90358600D01*
X226612800Y-163105000D02*
X227249700Y-163105000D01*
X264656300Y-153604700D02*
X264375000Y-153604700D01*
X197313900Y-162041500D02*
X225549300Y-162041500D01*
X196773000Y-162582400D02*
X197313900Y-162041500D01*
X262853500Y-143430600D02*
X264862400Y-143430600D01*
X280059300Y-160982700D02*
X274693700Y-160982700D01*
X265986000Y-144554200D02*
X265986000Y-152275000D01*
X198107500Y-169664700D02*
X197813500Y-169664700D01*
X197813500Y-169664700D02*
X196773000Y-168624200D01*
X196773000Y-168624200D02*
X196773000Y-162582400D01*
%TO.N,d3*%
X141000000Y-87900000D02*
X142175300Y-87900000D01*
X182824700Y-88192300D02*
X182005900Y-89011100D01*
X182005900Y-89011100D02*
X165006400Y-89011100D01*
X163000000Y-88180000D02*
X161824700Y-88180000D01*
X143070600Y-87004700D02*
X142175300Y-87900000D01*
X277364400Y-228400300D02*
X278489700Y-227275000D01*
X260305700Y-226949600D02*
X261756400Y-228400300D01*
X245065700Y-226949600D02*
X260305700Y-226949600D01*
X161016800Y-87004700D02*
X143070600Y-87004700D01*
X244740300Y-227275000D02*
X245065700Y-226949600D01*
X161824700Y-87812600D02*
X161016800Y-87004700D01*
X161824700Y-88180000D02*
X161824700Y-87812600D01*
X165006400Y-89011100D02*
X164175300Y-88180000D01*
X184000000Y-87825000D02*
X182824700Y-87825000D01*
X182824700Y-87825000D02*
X182824700Y-88192300D01*
X243615000Y-227275000D02*
X244740300Y-227275000D01*
X261756400Y-228400300D02*
X277364400Y-228400300D01*
X213347500Y-191030000D02*
X239428000Y-191030000D01*
X163000000Y-88180000D02*
X164175300Y-88180000D01*
X239428000Y-191030000D02*
X239453400Y-191004600D01*
X279615000Y-227275000D02*
X278489700Y-227275000D01*
%TO.N,a3*%
X197813500Y-172204700D02*
X198107500Y-172204700D01*
X227249700Y-160565000D02*
X226174400Y-159489700D01*
X279615000Y-214575000D02*
X278489700Y-214575000D01*
X196287400Y-170678600D02*
X197813500Y-172204700D01*
X277364400Y-215700300D02*
X278489700Y-214575000D01*
X245165700Y-215000400D02*
X252975400Y-215000400D01*
X239415800Y-184680000D02*
X209537500Y-184680000D01*
X228375000Y-160565000D02*
X227249700Y-160565000D01*
X198107500Y-173250000D02*
X198107500Y-172204700D01*
X226174400Y-159489700D02*
X197397200Y-159489700D01*
X196287400Y-160599500D02*
X196287400Y-170678600D01*
X197397200Y-159489700D02*
X196287400Y-160599500D01*
X244740300Y-214575000D02*
X245165700Y-215000400D01*
X252975400Y-215000400D02*
X253675300Y-215700300D01*
X209537500Y-184680000D02*
X198107500Y-173250000D01*
X253675300Y-215700300D02*
X277364400Y-215700300D01*
X242600800Y-187865000D02*
X239415800Y-184680000D01*
X243615000Y-214575000D02*
X244740300Y-214575000D01*
%TO.N,d2*%
X142175300Y-85360000D02*
X143070600Y-84464700D01*
X200824700Y-85727400D02*
X200824700Y-85360000D01*
X200016800Y-86535300D02*
X200824700Y-85727400D01*
X184000000Y-85285000D02*
X185175300Y-85285000D01*
X243437400Y-223609700D02*
X234406000Y-214578300D01*
X243615000Y-223609700D02*
X243437400Y-223609700D01*
X143070600Y-84464700D02*
X161016800Y-84464700D01*
X161016800Y-84464700D02*
X161824700Y-85272600D01*
X198107500Y-187444700D02*
X197217600Y-187444700D01*
X162392100Y-166805000D02*
X153661700Y-158074600D01*
X185175300Y-85285000D02*
X186425600Y-86535300D01*
X244177700Y-224735000D02*
X243615000Y-224735000D01*
X245865600Y-225860300D02*
X244740300Y-224735000D01*
X278489700Y-224735000D02*
X277364400Y-225860300D01*
X279615000Y-224735000D02*
X278489700Y-224735000D01*
X244177700Y-224735000D02*
X244740300Y-224735000D01*
X202000000Y-85360000D02*
X200824700Y-85360000D01*
X197217600Y-187444700D02*
X176577900Y-166805000D01*
X277364400Y-225860300D02*
X245865600Y-225860300D01*
X243615000Y-224735000D02*
X243615000Y-223609700D01*
X161824700Y-85272600D02*
X161824700Y-85640000D01*
X176577900Y-166805000D02*
X162392100Y-166805000D01*
X163000000Y-85640000D02*
X161824700Y-85640000D01*
X186425600Y-86535300D02*
X200016800Y-86535300D01*
X198107500Y-188490000D02*
X198107500Y-187444700D01*
X141000000Y-85360000D02*
X142175300Y-85360000D01*
%TO.N,a2*%
X181460000Y-85285000D02*
X182635300Y-85285000D01*
X244740300Y-212035000D02*
X245165700Y-212460400D01*
X279615000Y-212035000D02*
X278489700Y-212035000D01*
X158389400Y-86535300D02*
X138572600Y-86535300D01*
X195837000Y-172768200D02*
X195837000Y-158073500D01*
X228375000Y-158025000D02*
X227249700Y-158025000D01*
X241839500Y-212685200D02*
X231830100Y-212685200D01*
X138460000Y-86422700D02*
X138204100Y-86422700D01*
X138460000Y-85360000D02*
X138460000Y-86422700D01*
X198107500Y-175790000D02*
X198107500Y-174744700D01*
X197813500Y-174744700D02*
X195837000Y-172768200D01*
X243615000Y-212035000D02*
X242489700Y-212035000D01*
X159284700Y-85640000D02*
X158389400Y-86535300D01*
X199460000Y-85360000D02*
X198284700Y-85360000D01*
X152058900Y-145131500D02*
X169194500Y-145131500D01*
X252975400Y-212460400D02*
X253675300Y-213160300D01*
X138204100Y-86422700D02*
X136349700Y-88277100D01*
X136349700Y-129422300D02*
X152058900Y-145131500D01*
X183458600Y-84094400D02*
X197019100Y-84094400D01*
X277364400Y-213160300D02*
X278489700Y-212035000D01*
X195837000Y-158073500D02*
X196956400Y-156954100D01*
X169194500Y-145131500D02*
X180235000Y-156172000D01*
X136349700Y-88277100D02*
X136349700Y-129422300D01*
X196956400Y-156954100D02*
X226178800Y-156954100D01*
X182635300Y-84917700D02*
X183458600Y-84094400D01*
X253675300Y-213160300D02*
X277364400Y-213160300D01*
X138572600Y-86535300D02*
X138460000Y-86422700D01*
X243963500Y-212035000D02*
X244740300Y-212035000D01*
X182635300Y-85285000D02*
X182635300Y-84917700D01*
X160460000Y-85640000D02*
X159284700Y-85640000D01*
X198107500Y-174744700D02*
X197813500Y-174744700D01*
X245165700Y-212460400D02*
X252975400Y-212460400D01*
X197019100Y-84094400D02*
X198284700Y-85360000D01*
X242489700Y-212035000D02*
X241839500Y-212685200D01*
X243963500Y-212035000D02*
X243615000Y-212035000D01*
X226178800Y-156954100D02*
X227249700Y-158025000D01*
%TO.N,d1*%
X186275600Y-81644700D02*
X200016800Y-81644700D01*
X138132000Y-83995300D02*
X135295200Y-86832100D01*
X180085800Y-164120400D02*
X178259500Y-165946700D01*
X277364400Y-223320300D02*
X278489700Y-222195000D01*
X200824700Y-82452600D02*
X200824700Y-82820000D01*
X279615000Y-222195000D02*
X278489700Y-222195000D01*
X135295200Y-86832100D02*
X135295200Y-148790600D01*
X136446000Y-149941400D02*
X148838800Y-149941400D01*
X182824700Y-83112400D02*
X182824700Y-82745000D01*
X135295200Y-148790600D02*
X136446000Y-149941400D01*
X184000000Y-82745000D02*
X185175300Y-82745000D01*
X139824700Y-83187400D02*
X139016800Y-83995300D01*
X199168300Y-151805600D02*
X186853500Y-164120400D01*
X148838800Y-149941400D02*
X163162400Y-164265000D01*
X163000000Y-83100000D02*
X164175300Y-83100000D01*
X184000000Y-82745000D02*
X182824700Y-82745000D01*
X241350300Y-151805600D02*
X199168300Y-151805600D01*
X244740300Y-222195000D02*
X245865600Y-223320300D01*
X242489700Y-152945000D02*
X241350300Y-151805600D01*
X245865600Y-223320300D02*
X277364400Y-223320300D01*
X139016800Y-83995300D02*
X138132000Y-83995300D01*
X185175300Y-82745000D02*
X186275600Y-81644700D01*
X178259500Y-165946700D02*
X178259500Y-167427300D01*
X176577800Y-164265000D02*
X178259500Y-165946700D01*
X200016800Y-81644700D02*
X200824700Y-82452600D01*
X182016800Y-83920300D02*
X182824700Y-83112400D01*
X186853500Y-164120400D02*
X180085800Y-164120400D01*
X178259500Y-167427300D02*
X196782200Y-185950000D01*
X164175300Y-83100000D02*
X164995600Y-83920300D01*
X243615000Y-152945000D02*
X242489700Y-152945000D01*
X202000000Y-82820000D02*
X200824700Y-82820000D01*
X163162400Y-164265000D02*
X176577800Y-164265000D01*
X243615000Y-222195000D02*
X244740300Y-222195000D01*
X141000000Y-82820000D02*
X139824700Y-82820000D01*
X139824700Y-82820000D02*
X139824700Y-83187400D01*
X198107500Y-185950000D02*
X196782200Y-185950000D01*
X164995600Y-83920300D02*
X182016800Y-83920300D01*
%TO.N,a1*%
X161635300Y-83100000D02*
X161635300Y-82789900D01*
X244740300Y-209495000D02*
X245210900Y-209965600D01*
X181460000Y-82745000D02*
X180284700Y-82745000D01*
X243615000Y-209495000D02*
X242489700Y-209495000D01*
X199460000Y-82820000D02*
X200824600Y-84184600D01*
X228375000Y-155485000D02*
X227249700Y-155485000D01*
X161635300Y-82789900D02*
X162511300Y-81913900D01*
X212823700Y-93108400D02*
X213953400Y-94238100D01*
X253020600Y-209965600D02*
X253675300Y-210620300D01*
X197813500Y-177284700D02*
X198107500Y-177284700D01*
X200255200Y-183017700D02*
X200255200Y-180477700D01*
X162511300Y-81913900D02*
X179453600Y-81913900D01*
X253675300Y-210620300D02*
X277364400Y-210620300D01*
X242489700Y-209495000D02*
X242098200Y-209495000D01*
X160460000Y-83100000D02*
X161635300Y-83100000D01*
X195386700Y-174857900D02*
X197813500Y-177284700D01*
X277364400Y-210620300D02*
X278489700Y-209495000D01*
X242098200Y-209495000D02*
X240930800Y-210662400D01*
X179453600Y-81913900D02*
X180284700Y-82745000D01*
X240930800Y-210662400D02*
X227899900Y-210662400D01*
X197788600Y-155485000D02*
X195386700Y-157886900D01*
X243909900Y-209495000D02*
X244740300Y-209495000D01*
X200824600Y-84184600D02*
X203154600Y-84184600D01*
X227899900Y-210662400D02*
X200255200Y-183017700D01*
X203154600Y-84184600D02*
X212078400Y-93108400D01*
X200255200Y-180477700D02*
X198107500Y-178330000D01*
X212078400Y-93108400D02*
X212823700Y-93108400D01*
X243909900Y-209495000D02*
X243615000Y-209495000D01*
X198107500Y-178330000D02*
X198107500Y-177284700D01*
X245210900Y-209965600D02*
X253020600Y-209965600D01*
X227249700Y-155485000D02*
X197788600Y-155485000D01*
X213953400Y-94238100D02*
X214478000Y-94238100D01*
X195386700Y-157886900D02*
X195386700Y-174857900D01*
X279615000Y-209495000D02*
X278489700Y-209495000D01*
%TO.N,d0*%
X277364400Y-220780300D02*
X278489700Y-219655000D01*
X236341900Y-213507200D02*
X229119800Y-213507200D01*
X221244100Y-213305000D02*
X199433300Y-191494200D01*
X186275600Y-79104700D02*
X200457500Y-79104700D01*
X245865600Y-220780300D02*
X277364400Y-220780300D01*
X164995600Y-81380300D02*
X182457500Y-81380300D01*
X228917600Y-213305000D02*
X221244100Y-213305000D01*
X244740300Y-219655000D02*
X245865600Y-220780300D01*
X139824700Y-80280000D02*
X139824700Y-79471900D01*
X199433300Y-191494200D02*
X199433300Y-185487100D01*
X134773300Y-81755600D02*
X134773300Y-150090700D01*
X199433300Y-185487100D02*
X198401500Y-184455300D01*
X134773300Y-150090700D02*
X176798200Y-192115600D01*
X164175300Y-80560000D02*
X164995600Y-81380300D01*
X202000000Y-80280000D02*
X200824700Y-80280000D01*
X198107500Y-183410000D02*
X198107500Y-184455300D01*
X229119800Y-213507200D02*
X228917600Y-213305000D01*
X182457500Y-81380300D02*
X182824700Y-81013100D01*
X243052400Y-219655000D02*
X243615000Y-219655000D01*
X198811900Y-192115600D02*
X199433300Y-191494200D01*
X243615000Y-219655000D02*
X244740300Y-219655000D01*
X184000000Y-80205000D02*
X185175300Y-80205000D01*
X139824700Y-79471900D02*
X139457500Y-79104700D01*
X163000000Y-80560000D02*
X164175300Y-80560000D01*
X137424200Y-79104700D02*
X134773300Y-81755600D01*
X243052400Y-219655000D02*
X242489700Y-219655000D01*
X185175300Y-80205000D02*
X186275600Y-79104700D01*
X139457500Y-79104700D02*
X137424200Y-79104700D01*
X176798200Y-192115600D02*
X198811900Y-192115600D01*
X242489700Y-219655000D02*
X236341900Y-213507200D01*
X200457500Y-79104700D02*
X200824700Y-79471900D01*
X184000000Y-80205000D02*
X182824700Y-80205000D01*
X279615000Y-219655000D02*
X278489700Y-219655000D01*
X182824700Y-81013100D02*
X182824700Y-80205000D01*
X198401500Y-184455300D02*
X198107500Y-184455300D01*
X200824700Y-79471900D02*
X200824700Y-80280000D01*
X141000000Y-80280000D02*
X139824700Y-80280000D01*
%TO.N,a0*%
X213770800Y-93029800D02*
X213292000Y-92551000D01*
X198107500Y-180870000D02*
X198107500Y-179824700D01*
X200824600Y-81644600D02*
X199460000Y-80280000D01*
X198107500Y-179824700D02*
X197813500Y-179824700D01*
X212459500Y-92551000D02*
X204747200Y-84838700D01*
X204747200Y-84838700D02*
X204747200Y-83841900D01*
X244163200Y-206955000D02*
X244740300Y-206955000D01*
X199691700Y-152945000D02*
X228375000Y-152945000D01*
X244163200Y-206955000D02*
X243615000Y-206955000D01*
X277364400Y-208080300D02*
X278489700Y-206955000D01*
X181460000Y-80205000D02*
X180284700Y-80205000D01*
X242489700Y-206955000D02*
X240977500Y-208467200D01*
X213292000Y-92551000D02*
X212459500Y-92551000D01*
X240977500Y-208467200D02*
X229534700Y-208467200D01*
X160460000Y-80560000D02*
X161635300Y-80560000D01*
X253675300Y-208080300D02*
X277364400Y-208080300D01*
X244740300Y-206955000D02*
X245190700Y-207405400D01*
X194936400Y-176947600D02*
X194936400Y-157700300D01*
X179464400Y-79384700D02*
X162443200Y-79384700D01*
X279615000Y-206955000D02*
X278489700Y-206955000D01*
X162443200Y-79384700D02*
X161635300Y-80192600D01*
X243615000Y-206955000D02*
X242489700Y-206955000D01*
X204747200Y-83841900D02*
X202549900Y-81644600D01*
X245190700Y-207405400D02*
X253000400Y-207405400D01*
X197813500Y-179824700D02*
X194936400Y-176947600D01*
X180284700Y-80205000D02*
X179464400Y-79384700D01*
X202549900Y-81644600D02*
X200824600Y-81644600D01*
X194936400Y-157700300D02*
X199691700Y-152945000D01*
X161635300Y-80192600D02*
X161635300Y-80560000D01*
X253000400Y-207405400D02*
X253675300Y-208080300D01*
%TO.N,2pb7*%
X264375000Y-242515000D02*
X263249700Y-242515000D01*
X252500000Y-245905000D02*
X259859700Y-245905000D01*
X259859700Y-245905000D02*
X263249700Y-242515000D01*
%TO.N,2pa1*%
X264375000Y-206955000D02*
X256965300Y-206955000D01*
X256965300Y-206955000D02*
X253675300Y-203665000D01*
X252500000Y-203665000D02*
X253675300Y-203665000D01*
%TO.N,2pa0*%
X252500000Y-201125000D02*
X253675300Y-201125000D01*
X264375000Y-204415000D02*
X256965300Y-204415000D01*
X256965300Y-204415000D02*
X253675300Y-201125000D01*
%TO.N,1pa7*%
X229506400Y-224170400D02*
X229506400Y-227779000D01*
X228656300Y-223320300D02*
X229506400Y-224170400D01*
X229506400Y-227779000D02*
X228868000Y-228417400D01*
X224793000Y-227040000D02*
X214000000Y-227040000D01*
X226170400Y-228417400D02*
X224793000Y-227040000D01*
X228375000Y-223320300D02*
X228656300Y-223320300D01*
X228868000Y-228417400D02*
X226170400Y-228417400D01*
X228375000Y-222195000D02*
X228375000Y-223320300D01*
%TO.N,1pa6*%
X214000000Y-224500000D02*
X215175300Y-224500000D01*
X220020300Y-219655000D02*
X215175300Y-224500000D01*
X228375000Y-219655000D02*
X220020300Y-219655000D01*
%TO.N,dev9*%
X181460000Y-125925000D02*
X182635300Y-125925000D01*
X185260800Y-123802700D02*
X184313800Y-124749700D01*
X185260800Y-121996400D02*
X185260800Y-123802700D01*
X182635300Y-125557600D02*
X182635300Y-125925000D01*
X232200000Y-114635000D02*
X231074700Y-114635000D01*
X189327600Y-117929600D02*
X185260800Y-121996400D01*
X228505100Y-117204600D02*
X194985900Y-117204600D01*
X184313800Y-124749700D02*
X183443200Y-124749700D01*
X183443200Y-124749700D02*
X182635300Y-125557600D01*
X194985900Y-117204600D02*
X194260900Y-117929600D01*
X194260900Y-117929600D02*
X189327600Y-117929600D01*
X231074700Y-114635000D02*
X228505100Y-117204600D01*
%TO.N,dev8*%
X184318000Y-122209700D02*
X183443200Y-122209700D01*
X232200000Y-112095000D02*
X194220500Y-112095000D01*
X183443200Y-122209700D02*
X182635300Y-123017600D01*
X186561500Y-119966200D02*
X184318000Y-122209700D01*
X182635300Y-123017600D02*
X182635300Y-123385000D01*
X194220500Y-112095000D02*
X186561500Y-119754000D01*
X186561500Y-119754000D02*
X186561500Y-119966200D01*
X181460000Y-123385000D02*
X182635300Y-123385000D01*
%TO.N,dev7*%
X211680400Y-109807600D02*
X230822100Y-109807600D01*
X230822100Y-109807600D02*
X231074700Y-109555000D01*
X186077800Y-119575000D02*
X196097800Y-109555000D01*
X196097800Y-109555000D02*
X211427800Y-109555000D01*
X181460000Y-120845000D02*
X182730000Y-119575000D01*
X182730000Y-119575000D02*
X186077800Y-119575000D01*
X211427800Y-109555000D02*
X211680400Y-109807600D01*
X232200000Y-109555000D02*
X231074700Y-109555000D01*
%TO.N,decode4*%
X249500000Y-115585000D02*
X250675300Y-115585000D01*
X258370000Y-107890300D02*
X269069400Y-107890300D01*
X269069400Y-107890300D02*
X270194700Y-106765000D01*
X271320000Y-106765000D02*
X270194700Y-106765000D01*
X250675300Y-115585000D02*
X258370000Y-107890300D01*
%TO.N,decode3*%
X271320000Y-104225000D02*
X270194700Y-104225000D01*
X250675300Y-113045000D02*
X258370000Y-105350300D01*
X258370000Y-105350300D02*
X269069400Y-105350300D01*
X249500000Y-113045000D02*
X250675300Y-113045000D01*
X269069400Y-105350300D02*
X270194700Y-104225000D01*
%TO.N,decode2*%
X269069400Y-102810300D02*
X270194700Y-101685000D01*
X271320000Y-101685000D02*
X270194700Y-101685000D01*
X250675300Y-110505000D02*
X258370000Y-102810300D01*
X258370000Y-102810300D02*
X269069400Y-102810300D01*
X249500000Y-110505000D02*
X250675300Y-110505000D01*
%TO.N,decode1*%
X260910000Y-97730300D02*
X269069400Y-97730300D01*
X269069400Y-97730300D02*
X270194700Y-96605000D01*
X250675300Y-107965000D02*
X260910000Y-97730300D01*
X271320000Y-96605000D02*
X270194700Y-96605000D01*
X249500000Y-107965000D02*
X250675300Y-107965000D01*
%TO.N,decode0*%
X249500000Y-105425000D02*
X250675300Y-105425000D01*
X260910000Y-95190300D02*
X269069400Y-95190300D01*
X269069400Y-95190300D02*
X270194700Y-94065000D01*
X250675300Y-105425000D02*
X260910000Y-95190300D01*
X271320000Y-94065000D02*
X270194700Y-94065000D01*
%TO.N,2CA2*%
X280744400Y-197014700D02*
X280744400Y-202441600D01*
X279615000Y-204415000D02*
X279615000Y-203289700D01*
X280744400Y-202441600D02*
X279896300Y-203289700D01*
X273905000Y-189000000D02*
X273905000Y-190175300D01*
X273905000Y-190175300D02*
X280744400Y-197014700D01*
X279896300Y-203289700D02*
X279615000Y-203289700D01*
%TO.N,2CA1*%
X279615000Y-201875000D02*
X279615000Y-198425300D01*
X279615000Y-198425300D02*
X271365000Y-190175300D01*
X271365000Y-189000000D02*
X271365000Y-190175300D01*
%TO.N,1CA2*%
X262569700Y-189367400D02*
X262569700Y-189000000D01*
X245584000Y-204415000D02*
X259823700Y-190175300D01*
X243615000Y-204415000D02*
X245584000Y-204415000D01*
X261761800Y-190175300D02*
X262569700Y-189367400D01*
X259823700Y-190175300D02*
X261761800Y-190175300D01*
X263745000Y-189000000D02*
X262569700Y-189000000D01*
%TO.N,1CA1*%
X247469700Y-201875000D02*
X260029700Y-189315000D01*
X243615000Y-201875000D02*
X247469700Y-201875000D01*
X261205000Y-189000000D02*
X260029700Y-189000000D01*
X260029700Y-189315000D02*
X260029700Y-189000000D01*
%TO.N,dev12*%
X224955900Y-129634200D02*
X209319400Y-129634200D01*
X209319400Y-129634200D02*
X207896000Y-131057600D01*
X239179700Y-122015900D02*
X237296000Y-122015900D01*
X237296000Y-122015900D02*
X235962000Y-123349900D01*
X240945300Y-119144200D02*
X240945300Y-120250300D01*
X206928300Y-131057600D02*
X205637100Y-132348800D01*
X207896000Y-131057600D02*
X206928300Y-131057600D01*
X239820000Y-117175000D02*
X239820000Y-118300300D01*
X231240200Y-123349900D02*
X224955900Y-129634200D01*
X240945300Y-120250300D02*
X239179700Y-122015900D01*
X235962000Y-123349900D02*
X231240200Y-123349900D01*
X240101400Y-118300300D02*
X240945300Y-119144200D01*
X205637100Y-132348800D02*
X200661500Y-132348800D01*
X239820000Y-118300300D02*
X240101400Y-118300300D01*
%TO.N,dev11*%
X208743800Y-129183900D02*
X207852700Y-130075000D01*
X231278800Y-122674400D02*
X224769300Y-129183900D01*
X238694700Y-119715000D02*
X235735300Y-122674400D01*
X235735300Y-122674400D02*
X231278800Y-122674400D01*
X239820000Y-119715000D02*
X238694700Y-119715000D01*
X224769300Y-129183900D02*
X208743800Y-129183900D01*
%TO.N,dev10*%
X203205600Y-119394400D02*
X227678000Y-119394400D01*
X202855300Y-119744700D02*
X203205600Y-119394400D01*
X199460000Y-120920000D02*
X200635300Y-120920000D01*
X201443200Y-119744700D02*
X202855300Y-119744700D01*
X200635300Y-120920000D02*
X200635300Y-120552600D01*
X227678000Y-119394400D02*
X229897400Y-117175000D01*
X229897400Y-117175000D02*
X232200000Y-117175000D01*
X200635300Y-120552600D02*
X201443200Y-119744700D01*
%TO.N,1pa5*%
X139760000Y-169040000D02*
X138360000Y-167640000D01*
X198546900Y-204021300D02*
X173783600Y-204021300D01*
X173783600Y-204021300D02*
X139760000Y-169997700D01*
X228375000Y-217115000D02*
X211640600Y-217115000D01*
X139760000Y-169997700D02*
X139760000Y-169040000D01*
X211640600Y-217115000D02*
X198546900Y-204021300D01*
%TO.N,a15*%
X231201800Y-124025200D02*
X225142500Y-130084500D01*
X208082600Y-131507900D02*
X207114900Y-131507900D01*
X210444200Y-130634500D02*
X208956000Y-130634500D01*
X238257500Y-123575000D02*
X236599100Y-123575000D01*
X161635300Y-118292600D02*
X161635300Y-118660000D01*
X241426900Y-109465900D02*
X241426900Y-120405600D01*
X240101300Y-108140300D02*
X241426900Y-109465900D01*
X160460000Y-118660000D02*
X161635300Y-118660000D01*
X162443200Y-117484700D02*
X161635300Y-118292600D01*
X200576200Y-133471500D02*
X200084700Y-133471500D01*
X243615000Y-170725000D02*
X243615000Y-169599700D01*
X205727000Y-132895800D02*
X201151900Y-132895800D01*
X207114900Y-131507900D02*
X205727000Y-132895800D01*
X208956000Y-130634500D02*
X208082600Y-131507900D01*
X243615000Y-169599700D02*
X244004700Y-169599700D01*
X236148900Y-124025200D02*
X231201800Y-124025200D01*
X241426900Y-120405600D02*
X238257500Y-123575000D01*
X180284700Y-118305000D02*
X179464400Y-117484700D01*
X201151900Y-132895800D02*
X200576200Y-133471500D01*
X239820000Y-107015000D02*
X239820000Y-108140300D01*
X239820000Y-108140300D02*
X240101300Y-108140300D01*
X225142500Y-130084500D02*
X210994100Y-130084500D01*
X181460000Y-118305000D02*
X180284700Y-118305000D01*
X244004700Y-169599700D02*
X248466000Y-165138400D01*
X189902900Y-118380000D02*
X188738400Y-119544500D01*
X236599100Y-123575000D02*
X236148900Y-124025200D01*
X199460000Y-118380000D02*
X198284700Y-118380000D01*
X198284700Y-118380000D02*
X189902900Y-118380000D01*
X210444200Y-130634400D02*
X210444200Y-130634500D01*
X179464400Y-117484700D02*
X162443200Y-117484700D01*
X210994100Y-130084500D02*
X210444200Y-130634400D01*
%TO.N,1pa4*%
X170099300Y-198679300D02*
X141160000Y-169740000D01*
X193841800Y-198679300D02*
X170099300Y-198679300D01*
X209737500Y-214575000D02*
X193841800Y-198679300D01*
X228375000Y-214575000D02*
X209737500Y-214575000D01*
%TO.N,dev3*%
X232200000Y-99395000D02*
X231074700Y-99395000D01*
X224500000Y-99540000D02*
X230929700Y-99540000D01*
X230929700Y-99540000D02*
X231074700Y-99395000D01*
%TO.N,dev2*%
X225820300Y-96855000D02*
X232200000Y-96855000D01*
X224500000Y-97000000D02*
X225675300Y-97000000D01*
X225675300Y-97000000D02*
X225820300Y-96855000D01*
%TO.N,dev15*%
X221557600Y-127833000D02*
X207476700Y-127833000D01*
X232296700Y-121224000D02*
X228166600Y-121224000D01*
X236880900Y-116639800D02*
X232296700Y-121224000D01*
X138460000Y-126000000D02*
X139635300Y-126000000D01*
X239820000Y-110680300D02*
X239538700Y-110680300D01*
X139635300Y-126367400D02*
X139635300Y-126000000D01*
X236880900Y-113338100D02*
X236880900Y-116639800D01*
X239538700Y-110680300D02*
X236880900Y-113338100D01*
X159295100Y-130644300D02*
X155826100Y-127175300D01*
X155826100Y-127175300D02*
X140443200Y-127175300D01*
X204665400Y-130644300D02*
X159295100Y-130644300D01*
X228166600Y-121224000D02*
X221557600Y-127833000D01*
X239820000Y-109555000D02*
X239820000Y-110680300D01*
X140443200Y-127175300D02*
X139635300Y-126367400D01*
X207476700Y-127833000D02*
X204665400Y-130644300D01*
%TO.N,dev14*%
X232383800Y-121773800D02*
X230335600Y-121773800D01*
X239538600Y-113220300D02*
X238694700Y-114064200D01*
X139295800Y-131094600D02*
X137250300Y-129049100D01*
X138092700Y-124635300D02*
X138460000Y-124635300D01*
X239820000Y-112095000D02*
X239820000Y-113220300D01*
X223826100Y-128283300D02*
X207981500Y-128283300D01*
X239820000Y-113220300D02*
X239538600Y-113220300D01*
X230335600Y-121773800D02*
X223826100Y-128283300D01*
X205170200Y-131094600D02*
X139295800Y-131094600D01*
X138460000Y-123460000D02*
X138460000Y-124635300D01*
X238694700Y-115462900D02*
X232383800Y-121773800D01*
X137250300Y-125477700D02*
X138092700Y-124635300D01*
X238694700Y-114064200D02*
X238694700Y-115462900D01*
X137250300Y-129049100D02*
X137250300Y-125477700D01*
X207981500Y-128283300D02*
X205170200Y-131094600D01*
%TO.N,dev13*%
X224398600Y-128733600D02*
X208168200Y-128733600D01*
X208168200Y-128733600D02*
X205356900Y-131544900D01*
X239820000Y-114635000D02*
X239820000Y-115760300D01*
X232574300Y-122224100D02*
X230908100Y-122224100D01*
X136800000Y-123393900D02*
X138098600Y-122095300D01*
X230908100Y-122224100D02*
X224398600Y-128733600D01*
X239820000Y-115760300D02*
X239038100Y-115760300D01*
X205356900Y-131544900D02*
X139109200Y-131544900D01*
X136800000Y-129235700D02*
X136800000Y-123393900D01*
X138098600Y-122095300D02*
X138460000Y-122095300D01*
X139109200Y-131544900D02*
X136800000Y-129235700D01*
X138460000Y-120920000D02*
X138460000Y-122095300D01*
X239038100Y-115760300D02*
X232574300Y-122224100D01*
%TO.N,1pa0*%
X228375000Y-204415000D02*
X228375000Y-203289700D01*
X255040300Y-168018700D02*
X258000000Y-165059000D01*
X228375000Y-203289700D02*
X229475800Y-203289700D01*
X255040300Y-177725200D02*
X255040300Y-168018700D01*
X258000000Y-165059000D02*
X258000000Y-160840000D01*
X229475800Y-203289700D02*
X255040300Y-177725200D01*
%TO.N,1pa1*%
X244134300Y-186320600D02*
X244134300Y-187357400D01*
X228375000Y-206955000D02*
X228375000Y-205829700D01*
X236231700Y-191925500D02*
X227249600Y-200907600D01*
X227249600Y-204985600D02*
X228093700Y-205829700D01*
X228093700Y-205829700D02*
X228375000Y-205829700D01*
X227249600Y-200907600D02*
X227249600Y-204985600D01*
X244134300Y-187357400D02*
X239566200Y-191925500D01*
X239566200Y-191925500D02*
X236231700Y-191925500D01*
%TO.N,1pa2*%
X258000000Y-175641100D02*
X237101000Y-196540100D01*
X228606600Y-208369700D02*
X228375000Y-208369700D01*
X237101000Y-196540100D02*
X237101000Y-199875200D01*
X228606600Y-208369600D02*
X228606600Y-208369700D01*
X228375000Y-209495000D02*
X228375000Y-208369700D01*
X237101000Y-199875200D02*
X228606600Y-208369600D01*
X258000000Y-167000000D02*
X258000000Y-175641100D01*
%TO.N,1pa3*%
X229984900Y-211550400D02*
X241068500Y-211550400D01*
X228375000Y-212035000D02*
X229500300Y-212035000D01*
X241068500Y-211550400D02*
X242336000Y-210282900D01*
X229500300Y-212035000D02*
X229984900Y-211550400D01*
%TO.N,DEVICE_CS*%
X270194700Y-99145000D02*
X269069400Y-100270300D01*
X259094900Y-100270300D02*
X250219400Y-109145800D01*
X239820000Y-104475000D02*
X240945300Y-104475000D01*
X245616100Y-109145800D02*
X240945300Y-104475000D01*
X250219400Y-109145800D02*
X245616100Y-109145800D01*
X269069400Y-100270300D02*
X259094900Y-100270300D01*
X271320000Y-99145000D02*
X270194700Y-99145000D01*
%TO.N,ROM_CS*%
X271320000Y-111845000D02*
X265645000Y-111845000D01*
X265645000Y-111845000D02*
X264453500Y-110653500D01*
X264453500Y-110653500D02*
X262356200Y-110653500D01*
X262356200Y-110653500D02*
X248259100Y-124750600D01*
X236697300Y-124750600D02*
X236246900Y-125201000D01*
X236246900Y-125201000D02*
X232374700Y-125201000D01*
X248259100Y-124750600D02*
X236697300Y-124750600D01*
%TO.N,WE*%
X270573500Y-140898800D02*
X261195400Y-140898800D01*
X237260300Y-154215000D02*
X229771500Y-161703800D01*
X247879200Y-154215000D02*
X237260300Y-154215000D01*
X271496900Y-115510300D02*
X278039400Y-122052800D01*
X278039400Y-142150500D02*
X279333600Y-143444700D01*
X225013000Y-160550000D02*
X213347500Y-160550000D01*
X261195400Y-140898800D02*
X247879200Y-154215000D01*
X279615000Y-144570000D02*
X279615000Y-143444700D01*
X271320000Y-115510300D02*
X271496900Y-115510300D01*
X278039400Y-122052800D02*
X278039400Y-142150500D01*
X226166800Y-161703800D02*
X225013000Y-160550000D01*
X274694400Y-145019700D02*
X270573500Y-140898800D01*
X279333600Y-143444700D02*
X279615000Y-143444700D01*
X229771500Y-161703800D02*
X226166800Y-161703800D01*
X271320000Y-114385000D02*
X271320000Y-115510300D01*
%TO.N,VIA2_CS*%
X232200000Y-94315000D02*
X233325300Y-94315000D01*
X238213200Y-89427100D02*
X233325300Y-94315000D01*
X282234500Y-99446700D02*
X272214900Y-89427100D01*
X279615000Y-243929700D02*
X279896300Y-243929700D01*
X282234500Y-241591500D02*
X282234500Y-99446700D01*
X279896300Y-243929700D02*
X282234500Y-241591500D01*
X272214900Y-89427100D02*
X238213200Y-89427100D01*
X279615000Y-245055000D02*
X279615000Y-243929700D01*
%TO.N,1pb6*%
X207514300Y-236165000D02*
X228698300Y-236165000D01*
X228656300Y-238849700D02*
X228375000Y-238849700D01*
X229515500Y-237990500D02*
X228656300Y-238849700D01*
X228375000Y-239975000D02*
X228375000Y-238849700D01*
X153700800Y-209499400D02*
X153700800Y-210495500D01*
X184589400Y-213240100D02*
X207514300Y-236165000D01*
X228698300Y-236165000D02*
X229515500Y-236982200D01*
X156445400Y-213240100D02*
X184589400Y-213240100D01*
X229515500Y-236982200D02*
X229515500Y-237990500D01*
X153700800Y-210495500D02*
X156445400Y-213240100D01*
%TO.N,1pb5*%
X205293600Y-237435000D02*
X228375000Y-237435000D01*
X185411100Y-217552500D02*
X205293600Y-237435000D01*
X151160800Y-209499400D02*
X151160800Y-209734000D01*
X151160800Y-209734000D02*
X158979300Y-217552500D01*
X158979300Y-217552500D02*
X185411100Y-217552500D01*
%TO.N,1pb4*%
X156488600Y-212548700D02*
X154970800Y-211030900D01*
X207221400Y-234895000D02*
X184875100Y-212548700D01*
X154970800Y-211030900D02*
X154970800Y-207995800D01*
X154970800Y-207995800D02*
X154097400Y-207122400D01*
X150755900Y-207122400D02*
X148620800Y-209257500D01*
X148620800Y-209257500D02*
X148620800Y-209499400D01*
X184875100Y-212548700D02*
X156488600Y-212548700D01*
X228375000Y-234895000D02*
X207221400Y-234895000D01*
X154097400Y-207122400D02*
X150755900Y-207122400D01*
%TO.N,1pb3*%
X205602500Y-232355000D02*
X228375000Y-232355000D01*
X174020800Y-209261300D02*
X176130900Y-207151200D01*
X180398700Y-207151200D02*
X205602500Y-232355000D01*
X176130900Y-207151200D02*
X180398700Y-207151200D01*
X174020800Y-209499400D02*
X174020800Y-209261300D01*
%TO.N,1pb2*%
X180995700Y-206687200D02*
X202562600Y-228254100D01*
X171480800Y-209499400D02*
X171480800Y-209254500D01*
X228375000Y-229815000D02*
X227249700Y-229815000D01*
X225051900Y-228254100D02*
X226612800Y-229815000D01*
X174048100Y-206687200D02*
X180995700Y-206687200D01*
X171480800Y-209254500D02*
X174048100Y-206687200D01*
X202562600Y-228254100D02*
X225051900Y-228254100D01*
X226612800Y-229815000D02*
X227249700Y-229815000D01*
%TO.N,1pb1*%
X225650100Y-225675400D02*
X227249700Y-227275000D01*
X171935200Y-206219000D02*
X186102400Y-206219000D01*
X228375000Y-227275000D02*
X227249700Y-227275000D01*
X205558800Y-225675400D02*
X225650100Y-225675400D01*
X168940800Y-209499400D02*
X168940800Y-209213400D01*
X168940800Y-209213400D02*
X171935200Y-206219000D01*
X186102400Y-206219000D02*
X205558800Y-225675400D01*
%TO.N,1pb0*%
X228047500Y-220925000D02*
X228712400Y-220925000D01*
X166400800Y-209234000D02*
X166400800Y-209499400D01*
X199650300Y-205761600D02*
X169873200Y-205761600D01*
X227249600Y-221722900D02*
X228047500Y-220925000D01*
X229512400Y-220125000D02*
X229512400Y-219150500D01*
X169873200Y-205761600D02*
X166400800Y-209234000D01*
X227249600Y-223609600D02*
X227249600Y-221722900D01*
X229512400Y-219150500D02*
X228746900Y-218385000D01*
X228712400Y-220925000D02*
X229512400Y-220125000D01*
X212273700Y-218385000D02*
X199650300Y-205761600D01*
X228746900Y-218385000D02*
X212273700Y-218385000D01*
X228375000Y-224735000D02*
X227249600Y-223609600D01*
%TO.N,Net-(J13-Pad1)*%
X162000000Y-157433300D02*
X151886700Y-147320000D01*
X151886700Y-147320000D02*
X143160000Y-147320000D01*
%TD*%
M02*
