%TF.GenerationSoftware,KiCad,Pcbnew,(6.0.7)*%
%TF.CreationDate,2022-08-28T18:23:33-05:00*%
%TF.ProjectId,6502,36353032-2e6b-4696-9361-645f70636258,rev?*%
%TF.SameCoordinates,Original*%
%TF.FileFunction,Soldermask,Top*%
%TF.FilePolarity,Negative*%
%FSLAX46Y46*%
G04 Gerber Fmt 4.6, Leading zero omitted, Abs format (unit mm)*
G04 Created by KiCad (PCBNEW (6.0.7)) date 2022-08-28 18:23:33*
%MOMM*%
%LPD*%
G01*
G04 APERTURE LIST*
G04 Aperture macros list*
%AMRoundRect*
0 Rectangle with rounded corners*
0 $1 Rounding radius*
0 $2 $3 $4 $5 $6 $7 $8 $9 X,Y pos of 4 corners*
0 Add a 4 corners polygon primitive as box body*
4,1,4,$2,$3,$4,$5,$6,$7,$8,$9,$2,$3,0*
0 Add four circle primitives for the rounded corners*
1,1,$1+$1,$2,$3*
1,1,$1+$1,$4,$5*
1,1,$1+$1,$6,$7*
1,1,$1+$1,$8,$9*
0 Add four rect primitives between the rounded corners*
20,1,$1+$1,$2,$3,$4,$5,0*
20,1,$1+$1,$4,$5,$6,$7,0*
20,1,$1+$1,$6,$7,$8,$9,0*
20,1,$1+$1,$8,$9,$2,$3,0*%
G04 Aperture macros list end*
%ADD10R,1.700000X1.700000*%
%ADD11O,1.700000X1.700000*%
%ADD12C,1.600000*%
%ADD13R,1.600000X1.600000*%
%ADD14O,1.600000X1.600000*%
%ADD15O,1.501140X4.000500*%
%ADD16C,6.000000*%
%ADD17C,1.400000*%
%ADD18O,1.400000X1.400000*%
%ADD19O,3.500000X2.000000*%
%ADD20O,2.000000X4.000000*%
%ADD21C,1.440000*%
%ADD22R,3.500000X3.500000*%
%ADD23RoundRect,0.750000X-0.750000X-1.000000X0.750000X-1.000000X0.750000X1.000000X-0.750000X1.000000X0*%
%ADD24RoundRect,0.875000X-0.875000X-0.875000X0.875000X-0.875000X0.875000X0.875000X-0.875000X0.875000X0*%
%ADD25R,2.000000X1.440000*%
%ADD26O,2.000000X1.440000*%
%ADD27C,2.000000*%
%ADD28R,1.717500X1.800000*%
%ADD29O,1.717500X1.800000*%
%ADD30R,5.700000X6.200000*%
%ADD31R,1.800000X1.800000*%
%ADD32C,1.800000*%
G04 APERTURE END LIST*
D10*
%TO.C,J3*%
X214000000Y-224975000D03*
D11*
X214000000Y-227515000D03*
X214000000Y-230055000D03*
%TD*%
D12*
%TO.C,C6*%
X146500000Y-191500000D03*
X151500000Y-191500000D03*
%TD*%
D13*
%TO.C,U5*%
X222375000Y-140125000D03*
D14*
X222375000Y-142665000D03*
X222375000Y-145205000D03*
X222375000Y-147745000D03*
X222375000Y-150285000D03*
X222375000Y-152825000D03*
X222375000Y-155365000D03*
X222375000Y-157905000D03*
X222375000Y-160445000D03*
X222375000Y-162985000D03*
X222375000Y-165525000D03*
X222375000Y-168065000D03*
X222375000Y-170605000D03*
X222375000Y-173145000D03*
X222375000Y-175685000D03*
X222375000Y-178225000D03*
X222375000Y-180765000D03*
X222375000Y-183305000D03*
X222375000Y-185845000D03*
X222375000Y-188385000D03*
X237615000Y-188385000D03*
X237615000Y-185845000D03*
X237615000Y-183305000D03*
X237615000Y-180765000D03*
X237615000Y-178225000D03*
X237615000Y-175685000D03*
X237615000Y-173145000D03*
X237615000Y-170605000D03*
X237615000Y-168065000D03*
X237615000Y-165525000D03*
X237615000Y-162985000D03*
X237615000Y-160445000D03*
X237615000Y-157905000D03*
X237615000Y-155365000D03*
X237615000Y-152825000D03*
X237615000Y-150285000D03*
X237615000Y-147745000D03*
X237615000Y-145205000D03*
X237615000Y-142665000D03*
X237615000Y-140125000D03*
%TD*%
D12*
%TO.C,C5*%
X227500000Y-94500000D03*
X232500000Y-94500000D03*
%TD*%
D13*
%TO.C,U2*%
X226200000Y-99525000D03*
D14*
X226200000Y-102065000D03*
X226200000Y-104605000D03*
X226200000Y-107145000D03*
X226200000Y-109685000D03*
X226200000Y-112225000D03*
X226200000Y-114765000D03*
X226200000Y-117305000D03*
X226200000Y-119845000D03*
X226200000Y-122385000D03*
X226200000Y-124925000D03*
X226200000Y-127465000D03*
X233820000Y-127465000D03*
X233820000Y-124925000D03*
X233820000Y-122385000D03*
X233820000Y-119845000D03*
X233820000Y-117305000D03*
X233820000Y-114765000D03*
X233820000Y-112225000D03*
X233820000Y-109685000D03*
X233820000Y-107145000D03*
X233820000Y-104605000D03*
X233820000Y-102065000D03*
X233820000Y-99525000D03*
%TD*%
D12*
%TO.C,R10*%
X210000000Y-90000000D03*
D14*
X220160000Y-90000000D03*
%TD*%
D15*
%TO.C,U9*%
X141000840Y-209499420D03*
X143540840Y-209499420D03*
X146080840Y-209499420D03*
X148620840Y-209499420D03*
X151160840Y-209499420D03*
X153700840Y-209499420D03*
X156240840Y-209499420D03*
X158780840Y-209499420D03*
X161320840Y-209499420D03*
X163860840Y-209499420D03*
X166400840Y-209499420D03*
X168940840Y-209499420D03*
X171480840Y-209499420D03*
X174020840Y-209499420D03*
X176560840Y-209499420D03*
X179100840Y-209499420D03*
%TD*%
D16*
%TO.C,REF4*%
X132000000Y-259000000D03*
%TD*%
D17*
%TO.C,R7*%
X251000000Y-156000000D03*
D18*
X243380000Y-156000000D03*
%TD*%
D17*
%TO.C,R8*%
X243190000Y-152000000D03*
D18*
X250810000Y-152000000D03*
%TD*%
D17*
%TO.C,R2*%
X211190000Y-131000000D03*
D18*
X218810000Y-131000000D03*
%TD*%
D13*
%TO.C,J9*%
X138360000Y-171000000D03*
D12*
X138360000Y-168400000D03*
X138360000Y-173100000D03*
X138360000Y-166300000D03*
X141160000Y-173100000D03*
X141160000Y-166300000D03*
D19*
X135510000Y-176550000D03*
D20*
X134710000Y-169700000D03*
D19*
X135510000Y-162850000D03*
%TD*%
D12*
%TO.C,C10*%
X227500000Y-196750000D03*
X232500000Y-196750000D03*
%TD*%
D13*
%TO.C,X1*%
X161880000Y-199310000D03*
D12*
X177120000Y-199310000D03*
X177120000Y-191690000D03*
X161880000Y-191690000D03*
%TD*%
D10*
%TO.C,J10*%
X138225000Y-87875000D03*
D11*
X140765000Y-87875000D03*
X138225000Y-90415000D03*
X140765000Y-90415000D03*
X138225000Y-92955000D03*
X140765000Y-92955000D03*
X138225000Y-95495000D03*
X140765000Y-95495000D03*
X138225000Y-98035000D03*
X140765000Y-98035000D03*
X138225000Y-100575000D03*
X140765000Y-100575000D03*
X138225000Y-103115000D03*
X140765000Y-103115000D03*
X138225000Y-105655000D03*
X140765000Y-105655000D03*
X138225000Y-108195000D03*
X140765000Y-108195000D03*
X138225000Y-110735000D03*
X140765000Y-110735000D03*
X138225000Y-113275000D03*
X140765000Y-113275000D03*
X138225000Y-115815000D03*
X140765000Y-115815000D03*
X138225000Y-118355000D03*
X140765000Y-118355000D03*
X138225000Y-120895000D03*
X140765000Y-120895000D03*
X138225000Y-123435000D03*
X140765000Y-123435000D03*
X138225000Y-125975000D03*
X140765000Y-125975000D03*
X138225000Y-128515000D03*
X140765000Y-128515000D03*
X138225000Y-131055000D03*
X140765000Y-131055000D03*
X138225000Y-133595000D03*
X140765000Y-133595000D03*
X138225000Y-136135000D03*
X140765000Y-136135000D03*
%TD*%
D10*
%TO.C,J8*%
X199225000Y-87875000D03*
D11*
X201765000Y-87875000D03*
X199225000Y-90415000D03*
X201765000Y-90415000D03*
X199225000Y-92955000D03*
X201765000Y-92955000D03*
X199225000Y-95495000D03*
X201765000Y-95495000D03*
X199225000Y-98035000D03*
X201765000Y-98035000D03*
X199225000Y-100575000D03*
X201765000Y-100575000D03*
X199225000Y-103115000D03*
X201765000Y-103115000D03*
X199225000Y-105655000D03*
X201765000Y-105655000D03*
X199225000Y-108195000D03*
X201765000Y-108195000D03*
X199225000Y-110735000D03*
X201765000Y-110735000D03*
X199225000Y-113275000D03*
X201765000Y-113275000D03*
X199225000Y-115815000D03*
X201765000Y-115815000D03*
X199225000Y-118355000D03*
X201765000Y-118355000D03*
X199225000Y-120895000D03*
X201765000Y-120895000D03*
X199225000Y-123435000D03*
X201765000Y-123435000D03*
X199225000Y-125975000D03*
X201765000Y-125975000D03*
X199225000Y-128515000D03*
X201765000Y-128515000D03*
X199225000Y-131055000D03*
X201765000Y-131055000D03*
X199225000Y-133595000D03*
X201765000Y-133595000D03*
X199225000Y-136135000D03*
X201765000Y-136135000D03*
%TD*%
D12*
%TO.C,C8*%
X212500000Y-95000000D03*
X217500000Y-95000000D03*
%TD*%
D17*
%TO.C,R6*%
X211190000Y-115500000D03*
D18*
X218810000Y-115500000D03*
%TD*%
D16*
%TO.C,REF1*%
X132000000Y-84500000D03*
%TD*%
D10*
%TO.C,J12*%
X133725000Y-194500000D03*
D11*
X136265000Y-194500000D03*
%TD*%
D13*
%TO.C,U4*%
X257200000Y-99525000D03*
D14*
X257200000Y-102065000D03*
X257200000Y-104605000D03*
X257200000Y-107145000D03*
X257200000Y-109685000D03*
X257200000Y-112225000D03*
X257200000Y-114765000D03*
X257200000Y-117305000D03*
X257200000Y-119845000D03*
X257200000Y-122385000D03*
X257200000Y-124925000D03*
X257200000Y-127465000D03*
X264820000Y-127465000D03*
X264820000Y-124925000D03*
X264820000Y-122385000D03*
X264820000Y-119845000D03*
X264820000Y-117305000D03*
X264820000Y-114765000D03*
X264820000Y-112225000D03*
X264820000Y-109685000D03*
X264820000Y-107145000D03*
X264820000Y-104605000D03*
X264820000Y-102065000D03*
X264820000Y-99525000D03*
%TD*%
D12*
%TO.C,C9*%
X258500000Y-94500000D03*
X263500000Y-94500000D03*
%TD*%
D13*
%TO.C,U1*%
X165700000Y-166875000D03*
D14*
X165700000Y-169415000D03*
X165700000Y-171955000D03*
X165700000Y-174495000D03*
X165700000Y-177035000D03*
X165700000Y-179575000D03*
X165700000Y-182115000D03*
X173320000Y-182115000D03*
X173320000Y-179575000D03*
X173320000Y-177035000D03*
X173320000Y-174495000D03*
X173320000Y-171955000D03*
X173320000Y-169415000D03*
X173320000Y-166875000D03*
%TD*%
D12*
%TO.C,C7*%
X191500000Y-150000000D03*
X196500000Y-150000000D03*
%TD*%
D21*
%TO.C,RV1*%
X137025000Y-182775000D03*
X134485000Y-185315000D03*
X131945000Y-182775000D03*
%TD*%
D16*
%TO.C,REF3*%
X274000000Y-258500000D03*
%TD*%
D12*
%TO.C,R9*%
X155500000Y-178500000D03*
D14*
X145340000Y-178500000D03*
%TD*%
D12*
%TO.C,C4*%
X263000000Y-140000000D03*
X268000000Y-140000000D03*
%TD*%
D10*
%TO.C,J2*%
X248000000Y-201125000D03*
D11*
X248000000Y-203665000D03*
X248000000Y-206205000D03*
X248000000Y-208745000D03*
X248000000Y-211285000D03*
X248000000Y-213825000D03*
X248000000Y-216365000D03*
X248000000Y-218905000D03*
%TD*%
D10*
%TO.C,J5*%
X239125000Y-255000000D03*
D11*
X241665000Y-255000000D03*
X244205000Y-255000000D03*
X246745000Y-255000000D03*
X249285000Y-255000000D03*
X251825000Y-255000000D03*
X254365000Y-255000000D03*
X256905000Y-255000000D03*
%TD*%
D13*
%TO.C,U7*%
X257875000Y-202375000D03*
D14*
X257875000Y-204915000D03*
X257875000Y-207455000D03*
X257875000Y-209995000D03*
X257875000Y-212535000D03*
X257875000Y-215075000D03*
X257875000Y-217615000D03*
X257875000Y-220155000D03*
X257875000Y-222695000D03*
X257875000Y-225235000D03*
X257875000Y-227775000D03*
X257875000Y-230315000D03*
X257875000Y-232855000D03*
X257875000Y-235395000D03*
X257875000Y-237935000D03*
X257875000Y-240475000D03*
X257875000Y-243015000D03*
X257875000Y-245555000D03*
X257875000Y-248095000D03*
X257875000Y-250635000D03*
X273115000Y-250635000D03*
X273115000Y-248095000D03*
X273115000Y-245555000D03*
X273115000Y-243015000D03*
X273115000Y-240475000D03*
X273115000Y-237935000D03*
X273115000Y-235395000D03*
X273115000Y-232855000D03*
X273115000Y-230315000D03*
X273115000Y-227775000D03*
X273115000Y-225235000D03*
X273115000Y-222695000D03*
X273115000Y-220155000D03*
X273115000Y-217615000D03*
X273115000Y-215075000D03*
X273115000Y-212535000D03*
X273115000Y-209995000D03*
X273115000Y-207455000D03*
X273115000Y-204915000D03*
X273115000Y-202375000D03*
%TD*%
D12*
%TO.C,C2*%
X263000000Y-197500000D03*
X268000000Y-197500000D03*
%TD*%
D10*
%TO.C,J4*%
X160225000Y-88155000D03*
D11*
X162765000Y-88155000D03*
X160225000Y-90695000D03*
X162765000Y-90695000D03*
X160225000Y-93235000D03*
X162765000Y-93235000D03*
X160225000Y-95775000D03*
X162765000Y-95775000D03*
X160225000Y-98315000D03*
X162765000Y-98315000D03*
X160225000Y-100855000D03*
X162765000Y-100855000D03*
X160225000Y-103395000D03*
X162765000Y-103395000D03*
X160225000Y-105935000D03*
X162765000Y-105935000D03*
X160225000Y-108475000D03*
X162765000Y-108475000D03*
X160225000Y-111015000D03*
X162765000Y-111015000D03*
X160225000Y-113555000D03*
X162765000Y-113555000D03*
X160225000Y-116095000D03*
X162765000Y-116095000D03*
X160225000Y-118635000D03*
X162765000Y-118635000D03*
X160225000Y-121175000D03*
X162765000Y-121175000D03*
X160225000Y-123715000D03*
X162765000Y-123715000D03*
X160225000Y-126255000D03*
X162765000Y-126255000D03*
X160225000Y-128795000D03*
X162765000Y-128795000D03*
X160225000Y-131335000D03*
X162765000Y-131335000D03*
X160225000Y-133875000D03*
X162765000Y-133875000D03*
X160225000Y-136415000D03*
X162765000Y-136415000D03*
%TD*%
D17*
%TO.C,R4*%
X251000000Y-160000000D03*
D18*
X243380000Y-160000000D03*
%TD*%
D22*
%TO.C,J11*%
X143160000Y-152042500D03*
D23*
X137160000Y-152042500D03*
D24*
X140160000Y-156742500D03*
%TD*%
D10*
%TO.C,J6*%
X271000000Y-105475000D03*
D11*
X271000000Y-108015000D03*
X271000000Y-110555000D03*
%TD*%
D25*
%TO.C,U3*%
X187107500Y-164510000D03*
D26*
X187107500Y-167050000D03*
X187107500Y-169590000D03*
X187107500Y-172130000D03*
X187107500Y-174670000D03*
X187107500Y-177210000D03*
X187107500Y-179750000D03*
X187107500Y-182290000D03*
X187107500Y-184830000D03*
X187107500Y-187370000D03*
X187107500Y-189910000D03*
X187107500Y-192450000D03*
X187107500Y-194990000D03*
X187107500Y-197530000D03*
X202347500Y-197530000D03*
X202347500Y-194990000D03*
X202347500Y-192450000D03*
X202347500Y-189910000D03*
X202347500Y-187370000D03*
X202347500Y-184830000D03*
X202347500Y-182290000D03*
X202347500Y-179750000D03*
X202347500Y-177210000D03*
X202347500Y-174670000D03*
X202347500Y-172130000D03*
X202347500Y-169590000D03*
X202347500Y-167050000D03*
X202347500Y-164510000D03*
%TD*%
D27*
%TO.C,SW1*%
X211750000Y-99750000D03*
X218250000Y-99750000D03*
X218250000Y-104250000D03*
X211750000Y-104250000D03*
%TD*%
D12*
%TO.C,C1*%
X167000000Y-161500000D03*
X172000000Y-161500000D03*
%TD*%
D28*
%TO.C,Q1*%
X149400000Y-155315000D03*
D29*
X151690000Y-155315000D03*
X153980000Y-155315000D03*
D30*
X151690000Y-147881667D03*
%TD*%
D12*
%TO.C,C3*%
X227500000Y-135250000D03*
X232500000Y-135250000D03*
%TD*%
D16*
%TO.C,REF2*%
X273500000Y-84500000D03*
%TD*%
D10*
%TO.C,J7*%
X181225000Y-87800000D03*
D11*
X183765000Y-87800000D03*
X181225000Y-90340000D03*
X183765000Y-90340000D03*
X181225000Y-92880000D03*
X183765000Y-92880000D03*
X181225000Y-95420000D03*
X183765000Y-95420000D03*
X181225000Y-97960000D03*
X183765000Y-97960000D03*
X181225000Y-100500000D03*
X183765000Y-100500000D03*
X181225000Y-103040000D03*
X183765000Y-103040000D03*
X181225000Y-105580000D03*
X183765000Y-105580000D03*
X181225000Y-108120000D03*
X183765000Y-108120000D03*
X181225000Y-110660000D03*
X183765000Y-110660000D03*
X181225000Y-113200000D03*
X183765000Y-113200000D03*
X181225000Y-115740000D03*
X183765000Y-115740000D03*
X181225000Y-118280000D03*
X183765000Y-118280000D03*
X181225000Y-120820000D03*
X183765000Y-120820000D03*
X181225000Y-123360000D03*
X183765000Y-123360000D03*
X181225000Y-125900000D03*
X183765000Y-125900000D03*
X181225000Y-128440000D03*
X183765000Y-128440000D03*
X181225000Y-130980000D03*
X183765000Y-130980000D03*
X181225000Y-133520000D03*
X183765000Y-133520000D03*
X181225000Y-136060000D03*
X183765000Y-136060000D03*
%TD*%
D13*
%TO.C,U6*%
X257875000Y-144950000D03*
D14*
X257875000Y-147490000D03*
X257875000Y-150030000D03*
X257875000Y-152570000D03*
X257875000Y-155110000D03*
X257875000Y-157650000D03*
X257875000Y-160190000D03*
X257875000Y-162730000D03*
X257875000Y-165270000D03*
X257875000Y-167810000D03*
X257875000Y-170350000D03*
X257875000Y-172890000D03*
X257875000Y-175430000D03*
X257875000Y-177970000D03*
X257875000Y-180510000D03*
X257875000Y-183050000D03*
X273115000Y-183050000D03*
X273115000Y-180510000D03*
X273115000Y-177970000D03*
X273115000Y-175430000D03*
X273115000Y-172890000D03*
X273115000Y-170350000D03*
X273115000Y-167810000D03*
X273115000Y-165270000D03*
X273115000Y-162730000D03*
X273115000Y-160190000D03*
X273115000Y-157650000D03*
X273115000Y-155110000D03*
X273115000Y-152570000D03*
X273115000Y-150030000D03*
X273115000Y-147490000D03*
X273115000Y-144950000D03*
%TD*%
D31*
%TO.C,D1*%
X152965000Y-168500000D03*
D32*
X150425000Y-168500000D03*
%TD*%
D17*
%TO.C,R3*%
X251000000Y-164000000D03*
D18*
X243380000Y-164000000D03*
%TD*%
D10*
%TO.C,J1*%
X248000000Y-227625000D03*
D11*
X248000000Y-230165000D03*
X248000000Y-232705000D03*
X248000000Y-235245000D03*
X248000000Y-237785000D03*
X248000000Y-240325000D03*
X248000000Y-242865000D03*
X248000000Y-245405000D03*
%TD*%
D13*
%TO.C,U8*%
X222375000Y-201875000D03*
D14*
X222375000Y-204415000D03*
X222375000Y-206955000D03*
X222375000Y-209495000D03*
X222375000Y-212035000D03*
X222375000Y-214575000D03*
X222375000Y-217115000D03*
X222375000Y-219655000D03*
X222375000Y-222195000D03*
X222375000Y-224735000D03*
X222375000Y-227275000D03*
X222375000Y-229815000D03*
X222375000Y-232355000D03*
X222375000Y-234895000D03*
X222375000Y-237435000D03*
X222375000Y-239975000D03*
X222375000Y-242515000D03*
X222375000Y-245055000D03*
X222375000Y-247595000D03*
X222375000Y-250135000D03*
X237615000Y-250135000D03*
X237615000Y-247595000D03*
X237615000Y-245055000D03*
X237615000Y-242515000D03*
X237615000Y-239975000D03*
X237615000Y-237435000D03*
X237615000Y-234895000D03*
X237615000Y-232355000D03*
X237615000Y-229815000D03*
X237615000Y-227275000D03*
X237615000Y-224735000D03*
X237615000Y-222195000D03*
X237615000Y-219655000D03*
X237615000Y-217115000D03*
X237615000Y-214575000D03*
X237615000Y-212035000D03*
X237615000Y-209495000D03*
X237615000Y-206955000D03*
X237615000Y-204415000D03*
X237615000Y-201875000D03*
%TD*%
D17*
%TO.C,R5*%
X251000000Y-168000000D03*
D18*
X243380000Y-168000000D03*
%TD*%
D17*
%TO.C,R1*%
X211190000Y-110000000D03*
D18*
X218810000Y-110000000D03*
%TD*%
D27*
%TO.C,SW2*%
X211750000Y-120750000D03*
X218250000Y-120750000D03*
X218250000Y-125250000D03*
X211750000Y-125250000D03*
%TD*%
D12*
%TO.C,C11*%
X132500000Y-202000000D03*
X137500000Y-202000000D03*
%TD*%
M02*
