%TF.GenerationSoftware,KiCad,Pcbnew,(6.0.7)*%
%TF.CreationDate,2022-08-24T10:03:48-05:00*%
%TF.ProjectId,6502,36353032-2e6b-4696-9361-645f70636258,rev?*%
%TF.SameCoordinates,Original*%
%TF.FileFunction,Legend,Top*%
%TF.FilePolarity,Positive*%
%FSLAX46Y46*%
G04 Gerber Fmt 4.6, Leading zero omitted, Abs format (unit mm)*
G04 Created by KiCad (PCBNEW (6.0.7)) date 2022-08-24 10:03:48*
%MOMM*%
%LPD*%
G01*
G04 APERTURE LIST*
%ADD10C,0.150000*%
%ADD11C,0.120000*%
%ADD12C,0.100000*%
%ADD13O,1.501140X4.000500*%
G04 APERTURE END LIST*
D10*
X238809523Y-74404761D02*
X238952380Y-74452380D01*
X239190476Y-74452380D01*
X239285714Y-74404761D01*
X239333333Y-74357142D01*
X239380952Y-74261904D01*
X239380952Y-74166666D01*
X239333333Y-74071428D01*
X239285714Y-74023809D01*
X239190476Y-73976190D01*
X239000000Y-73928571D01*
X238904761Y-73880952D01*
X238857142Y-73833333D01*
X238809523Y-73738095D01*
X238809523Y-73642857D01*
X238857142Y-73547619D01*
X238904761Y-73500000D01*
X239000000Y-73452380D01*
X239238095Y-73452380D01*
X239380952Y-73500000D01*
X239666666Y-73785714D02*
X240047619Y-73785714D01*
X239809523Y-73452380D02*
X239809523Y-74309523D01*
X239857142Y-74404761D01*
X239952380Y-74452380D01*
X240047619Y-74452380D01*
X240380952Y-74452380D02*
X240380952Y-73785714D01*
X240380952Y-73976190D02*
X240428571Y-73880952D01*
X240476190Y-73833333D01*
X240571428Y-73785714D01*
X240666666Y-73785714D01*
X241428571Y-74452380D02*
X241428571Y-73928571D01*
X241380952Y-73833333D01*
X241285714Y-73785714D01*
X241095238Y-73785714D01*
X241000000Y-73833333D01*
X241428571Y-74404761D02*
X241333333Y-74452380D01*
X241095238Y-74452380D01*
X241000000Y-74404761D01*
X240952380Y-74309523D01*
X240952380Y-74214285D01*
X241000000Y-74119047D01*
X241095238Y-74071428D01*
X241333333Y-74071428D01*
X241428571Y-74023809D01*
X241904761Y-74452380D02*
X241904761Y-73452380D01*
X242333333Y-74452380D02*
X242333333Y-73928571D01*
X242285714Y-73833333D01*
X242190476Y-73785714D01*
X242047619Y-73785714D01*
X241952380Y-73833333D01*
X241904761Y-73880952D01*
X242809523Y-74452380D02*
X242809523Y-73785714D01*
X242809523Y-73452380D02*
X242761904Y-73500000D01*
X242809523Y-73547619D01*
X242857142Y-73500000D01*
X242809523Y-73452380D01*
X242809523Y-73547619D01*
X243285714Y-73785714D02*
X243285714Y-74452380D01*
X243285714Y-73880952D02*
X243333333Y-73833333D01*
X243428571Y-73785714D01*
X243571428Y-73785714D01*
X243666666Y-73833333D01*
X243714285Y-73928571D01*
X243714285Y-74452380D01*
X244190476Y-73785714D02*
X244190476Y-74642857D01*
X244142857Y-74738095D01*
X244047619Y-74785714D01*
X244000000Y-74785714D01*
X244190476Y-73452380D02*
X244142857Y-73500000D01*
X244190476Y-73547619D01*
X244238095Y-73500000D01*
X244190476Y-73452380D01*
X244190476Y-73547619D01*
X245095238Y-74452380D02*
X245095238Y-73928571D01*
X245047619Y-73833333D01*
X244952380Y-73785714D01*
X244761904Y-73785714D01*
X244666666Y-73833333D01*
X245095238Y-74404761D02*
X245000000Y-74452380D01*
X244761904Y-74452380D01*
X244666666Y-74404761D01*
X244619047Y-74309523D01*
X244619047Y-74214285D01*
X244666666Y-74119047D01*
X244761904Y-74071428D01*
X245000000Y-74071428D01*
X245095238Y-74023809D01*
X246333333Y-74452380D02*
X246333333Y-73452380D01*
X246666666Y-74166666D01*
X247000000Y-73452380D01*
X247000000Y-74452380D01*
X247904761Y-74452380D02*
X247904761Y-73928571D01*
X247857142Y-73833333D01*
X247761904Y-73785714D01*
X247571428Y-73785714D01*
X247476190Y-73833333D01*
X247904761Y-74404761D02*
X247809523Y-74452380D01*
X247571428Y-74452380D01*
X247476190Y-74404761D01*
X247428571Y-74309523D01*
X247428571Y-74214285D01*
X247476190Y-74119047D01*
X247571428Y-74071428D01*
X247809523Y-74071428D01*
X247904761Y-74023809D01*
X248380952Y-74452380D02*
X248380952Y-73785714D01*
X248380952Y-73976190D02*
X248428571Y-73880952D01*
X248476190Y-73833333D01*
X248571428Y-73785714D01*
X248666666Y-73785714D01*
X249000000Y-74452380D02*
X249000000Y-73785714D01*
X249000000Y-73452380D02*
X248952380Y-73500000D01*
X249000000Y-73547619D01*
X249047619Y-73500000D01*
X249000000Y-73452380D01*
X249000000Y-73547619D01*
X249476190Y-73785714D02*
X249476190Y-74452380D01*
X249476190Y-73880952D02*
X249523809Y-73833333D01*
X249619047Y-73785714D01*
X249761904Y-73785714D01*
X249857142Y-73833333D01*
X249904761Y-73928571D01*
X249904761Y-74452380D01*
X250380952Y-74452380D02*
X250380952Y-73452380D01*
X250476190Y-74071428D02*
X250761904Y-74452380D01*
X250761904Y-73785714D02*
X250380952Y-74166666D01*
X251333333Y-74452380D02*
X251238095Y-74404761D01*
X251190476Y-74357142D01*
X251142857Y-74261904D01*
X251142857Y-73976190D01*
X251190476Y-73880952D01*
X251238095Y-73833333D01*
X251333333Y-73785714D01*
X251476190Y-73785714D01*
X251571428Y-73833333D01*
X251619047Y-73880952D01*
X251666666Y-73976190D01*
X251666666Y-74261904D01*
X251619047Y-74357142D01*
X251571428Y-74404761D01*
X251476190Y-74452380D01*
X251333333Y-74452380D01*
X252000000Y-73785714D02*
X252238095Y-74452380D01*
X252476190Y-73785714D01*
X252857142Y-74452380D02*
X252857142Y-73785714D01*
X252857142Y-73452380D02*
X252809523Y-73500000D01*
X252857142Y-73547619D01*
X252904761Y-73500000D01*
X252857142Y-73452380D01*
X252857142Y-73547619D01*
X253761904Y-74404761D02*
X253666666Y-74452380D01*
X253476190Y-74452380D01*
X253380952Y-74404761D01*
X253333333Y-74357142D01*
X253285714Y-74261904D01*
X253285714Y-73976190D01*
X253333333Y-73880952D01*
X253380952Y-73833333D01*
X253476190Y-73785714D01*
X253666666Y-73785714D01*
X253761904Y-73833333D01*
X255380952Y-73452380D02*
X255190476Y-73452380D01*
X255095238Y-73500000D01*
X255047619Y-73547619D01*
X254952380Y-73690476D01*
X254904761Y-73880952D01*
X254904761Y-74261904D01*
X254952380Y-74357142D01*
X255000000Y-74404761D01*
X255095238Y-74452380D01*
X255285714Y-74452380D01*
X255380952Y-74404761D01*
X255428571Y-74357142D01*
X255476190Y-74261904D01*
X255476190Y-74023809D01*
X255428571Y-73928571D01*
X255380952Y-73880952D01*
X255285714Y-73833333D01*
X255095238Y-73833333D01*
X255000000Y-73880952D01*
X254952380Y-73928571D01*
X254904761Y-74023809D01*
X256380952Y-73452380D02*
X255904761Y-73452380D01*
X255857142Y-73928571D01*
X255904761Y-73880952D01*
X256000000Y-73833333D01*
X256238095Y-73833333D01*
X256333333Y-73880952D01*
X256380952Y-73928571D01*
X256428571Y-74023809D01*
X256428571Y-74261904D01*
X256380952Y-74357142D01*
X256333333Y-74404761D01*
X256238095Y-74452380D01*
X256000000Y-74452380D01*
X255904761Y-74404761D01*
X255857142Y-74357142D01*
X257047619Y-73452380D02*
X257142857Y-73452380D01*
X257238095Y-73500000D01*
X257285714Y-73547619D01*
X257333333Y-73642857D01*
X257380952Y-73833333D01*
X257380952Y-74071428D01*
X257333333Y-74261904D01*
X257285714Y-74357142D01*
X257238095Y-74404761D01*
X257142857Y-74452380D01*
X257047619Y-74452380D01*
X256952380Y-74404761D01*
X256904761Y-74357142D01*
X256857142Y-74261904D01*
X256809523Y-74071428D01*
X256809523Y-73833333D01*
X256857142Y-73642857D01*
X256904761Y-73547619D01*
X256952380Y-73500000D01*
X257047619Y-73452380D01*
X257761904Y-73547619D02*
X257809523Y-73500000D01*
X257904761Y-73452380D01*
X258142857Y-73452380D01*
X258238095Y-73500000D01*
X258285714Y-73547619D01*
X258333333Y-73642857D01*
X258333333Y-73738095D01*
X258285714Y-73880952D01*
X257714285Y-74452380D01*
X258333333Y-74452380D01*
X260095238Y-74357142D02*
X260047619Y-74404761D01*
X259904761Y-74452380D01*
X259809523Y-74452380D01*
X259666666Y-74404761D01*
X259571428Y-74309523D01*
X259523809Y-74214285D01*
X259476190Y-74023809D01*
X259476190Y-73880952D01*
X259523809Y-73690476D01*
X259571428Y-73595238D01*
X259666666Y-73500000D01*
X259809523Y-73452380D01*
X259904761Y-73452380D01*
X260047619Y-73500000D01*
X260095238Y-73547619D01*
X260666666Y-74452380D02*
X260571428Y-74404761D01*
X260523809Y-74357142D01*
X260476190Y-74261904D01*
X260476190Y-73976190D01*
X260523809Y-73880952D01*
X260571428Y-73833333D01*
X260666666Y-73785714D01*
X260809523Y-73785714D01*
X260904761Y-73833333D01*
X260952380Y-73880952D01*
X261000000Y-73976190D01*
X261000000Y-74261904D01*
X260952380Y-74357142D01*
X260904761Y-74404761D01*
X260809523Y-74452380D01*
X260666666Y-74452380D01*
X261428571Y-74452380D02*
X261428571Y-73785714D01*
X261428571Y-73880952D02*
X261476190Y-73833333D01*
X261571428Y-73785714D01*
X261714285Y-73785714D01*
X261809523Y-73833333D01*
X261857142Y-73928571D01*
X261857142Y-74452380D01*
X261857142Y-73928571D02*
X261904761Y-73833333D01*
X262000000Y-73785714D01*
X262142857Y-73785714D01*
X262238095Y-73833333D01*
X262285714Y-73928571D01*
X262285714Y-74452380D01*
X262761904Y-73785714D02*
X262761904Y-74785714D01*
X262761904Y-73833333D02*
X262857142Y-73785714D01*
X263047619Y-73785714D01*
X263142857Y-73833333D01*
X263190476Y-73880952D01*
X263238095Y-73976190D01*
X263238095Y-74261904D01*
X263190476Y-74357142D01*
X263142857Y-74404761D01*
X263047619Y-74452380D01*
X262857142Y-74452380D01*
X262761904Y-74404761D01*
X264095238Y-73785714D02*
X264095238Y-74452380D01*
X263666666Y-73785714D02*
X263666666Y-74309523D01*
X263714285Y-74404761D01*
X263809523Y-74452380D01*
X263952380Y-74452380D01*
X264047619Y-74404761D01*
X264095238Y-74357142D01*
X264428571Y-73785714D02*
X264809523Y-73785714D01*
X264571428Y-73452380D02*
X264571428Y-74309523D01*
X264619047Y-74404761D01*
X264714285Y-74452380D01*
X264809523Y-74452380D01*
X265523809Y-74404761D02*
X265428571Y-74452380D01*
X265238095Y-74452380D01*
X265142857Y-74404761D01*
X265095238Y-74309523D01*
X265095238Y-73928571D01*
X265142857Y-73833333D01*
X265238095Y-73785714D01*
X265428571Y-73785714D01*
X265523809Y-73833333D01*
X265571428Y-73928571D01*
X265571428Y-74023809D01*
X265095238Y-74119047D01*
X265999999Y-74452380D02*
X265999999Y-73785714D01*
X265999999Y-73976190D02*
X266047619Y-73880952D01*
X266095238Y-73833333D01*
X266190476Y-73785714D01*
X266285714Y-73785714D01*
%TO.C,J3*%
X213666666Y-221622380D02*
X213666666Y-222336666D01*
X213619047Y-222479523D01*
X213523809Y-222574761D01*
X213380952Y-222622380D01*
X213285714Y-222622380D01*
X214047619Y-221622380D02*
X214666666Y-221622380D01*
X214333333Y-222003333D01*
X214476190Y-222003333D01*
X214571428Y-222050952D01*
X214619047Y-222098571D01*
X214666666Y-222193809D01*
X214666666Y-222431904D01*
X214619047Y-222527142D01*
X214571428Y-222574761D01*
X214476190Y-222622380D01*
X214190476Y-222622380D01*
X214095238Y-222574761D01*
X214047619Y-222527142D01*
%TO.C,C6*%
X160833333Y-164107142D02*
X160785714Y-164154761D01*
X160642857Y-164202380D01*
X160547619Y-164202380D01*
X160404761Y-164154761D01*
X160309523Y-164059523D01*
X160261904Y-163964285D01*
X160214285Y-163773809D01*
X160214285Y-163630952D01*
X160261904Y-163440476D01*
X160309523Y-163345238D01*
X160404761Y-163250000D01*
X160547619Y-163202380D01*
X160642857Y-163202380D01*
X160785714Y-163250000D01*
X160833333Y-163297619D01*
X161690476Y-163202380D02*
X161500000Y-163202380D01*
X161404761Y-163250000D01*
X161357142Y-163297619D01*
X161261904Y-163440476D01*
X161214285Y-163630952D01*
X161214285Y-164011904D01*
X161261904Y-164107142D01*
X161309523Y-164154761D01*
X161404761Y-164202380D01*
X161595238Y-164202380D01*
X161690476Y-164154761D01*
X161738095Y-164107142D01*
X161785714Y-164011904D01*
X161785714Y-163773809D01*
X161738095Y-163678571D01*
X161690476Y-163630952D01*
X161595238Y-163583333D01*
X161404761Y-163583333D01*
X161309523Y-163630952D01*
X161261904Y-163678571D01*
X161214285Y-163773809D01*
%TO.C,U5*%
X235233095Y-129747380D02*
X235233095Y-130556904D01*
X235280714Y-130652142D01*
X235328333Y-130699761D01*
X235423571Y-130747380D01*
X235614047Y-130747380D01*
X235709285Y-130699761D01*
X235756904Y-130652142D01*
X235804523Y-130556904D01*
X235804523Y-129747380D01*
X236756904Y-129747380D02*
X236280714Y-129747380D01*
X236233095Y-130223571D01*
X236280714Y-130175952D01*
X236375952Y-130128333D01*
X236614047Y-130128333D01*
X236709285Y-130175952D01*
X236756904Y-130223571D01*
X236804523Y-130318809D01*
X236804523Y-130556904D01*
X236756904Y-130652142D01*
X236709285Y-130699761D01*
X236614047Y-130747380D01*
X236375952Y-130747380D01*
X236280714Y-130699761D01*
X236233095Y-130652142D01*
%TO.C,C5*%
X235833333Y-84257142D02*
X235785714Y-84304761D01*
X235642857Y-84352380D01*
X235547619Y-84352380D01*
X235404761Y-84304761D01*
X235309523Y-84209523D01*
X235261904Y-84114285D01*
X235214285Y-83923809D01*
X235214285Y-83780952D01*
X235261904Y-83590476D01*
X235309523Y-83495238D01*
X235404761Y-83400000D01*
X235547619Y-83352380D01*
X235642857Y-83352380D01*
X235785714Y-83400000D01*
X235833333Y-83447619D01*
X236738095Y-83352380D02*
X236261904Y-83352380D01*
X236214285Y-83828571D01*
X236261904Y-83780952D01*
X236357142Y-83733333D01*
X236595238Y-83733333D01*
X236690476Y-83780952D01*
X236738095Y-83828571D01*
X236785714Y-83923809D01*
X236785714Y-84161904D01*
X236738095Y-84257142D01*
X236690476Y-84304761D01*
X236595238Y-84352380D01*
X236357142Y-84352380D01*
X236261904Y-84304761D01*
X236214285Y-84257142D01*
%TO.C,U2*%
X235248095Y-88897380D02*
X235248095Y-89706904D01*
X235295714Y-89802142D01*
X235343333Y-89849761D01*
X235438571Y-89897380D01*
X235629047Y-89897380D01*
X235724285Y-89849761D01*
X235771904Y-89802142D01*
X235819523Y-89706904D01*
X235819523Y-88897380D01*
X236248095Y-88992619D02*
X236295714Y-88945000D01*
X236390952Y-88897380D01*
X236629047Y-88897380D01*
X236724285Y-88945000D01*
X236771904Y-88992619D01*
X236819523Y-89087857D01*
X236819523Y-89183095D01*
X236771904Y-89325952D01*
X236200476Y-89897380D01*
X236819523Y-89897380D01*
%TO.C,R7*%
X254023333Y-149502380D02*
X253690000Y-149026190D01*
X253451904Y-149502380D02*
X253451904Y-148502380D01*
X253832857Y-148502380D01*
X253928095Y-148550000D01*
X253975714Y-148597619D01*
X254023333Y-148692857D01*
X254023333Y-148835714D01*
X253975714Y-148930952D01*
X253928095Y-148978571D01*
X253832857Y-149026190D01*
X253451904Y-149026190D01*
X254356666Y-148502380D02*
X255023333Y-148502380D01*
X254594761Y-149502380D01*
%TO.C,R8*%
X253833333Y-139082380D02*
X253500000Y-138606190D01*
X253261904Y-139082380D02*
X253261904Y-138082380D01*
X253642857Y-138082380D01*
X253738095Y-138130000D01*
X253785714Y-138177619D01*
X253833333Y-138272857D01*
X253833333Y-138415714D01*
X253785714Y-138510952D01*
X253738095Y-138558571D01*
X253642857Y-138606190D01*
X253261904Y-138606190D01*
X254404761Y-138510952D02*
X254309523Y-138463333D01*
X254261904Y-138415714D01*
X254214285Y-138320476D01*
X254214285Y-138272857D01*
X254261904Y-138177619D01*
X254309523Y-138130000D01*
X254404761Y-138082380D01*
X254595238Y-138082380D01*
X254690476Y-138130000D01*
X254738095Y-138177619D01*
X254785714Y-138272857D01*
X254785714Y-138320476D01*
X254738095Y-138415714D01*
X254690476Y-138463333D01*
X254595238Y-138510952D01*
X254404761Y-138510952D01*
X254309523Y-138558571D01*
X254261904Y-138606190D01*
X254214285Y-138701428D01*
X254214285Y-138891904D01*
X254261904Y-138987142D01*
X254309523Y-139034761D01*
X254404761Y-139082380D01*
X254595238Y-139082380D01*
X254690476Y-139034761D01*
X254738095Y-138987142D01*
X254785714Y-138891904D01*
X254785714Y-138701428D01*
X254738095Y-138606190D01*
X254690476Y-138558571D01*
X254595238Y-138510952D01*
%TO.C,R2*%
X214833333Y-132082380D02*
X214500000Y-131606190D01*
X214261904Y-132082380D02*
X214261904Y-131082380D01*
X214642857Y-131082380D01*
X214738095Y-131130000D01*
X214785714Y-131177619D01*
X214833333Y-131272857D01*
X214833333Y-131415714D01*
X214785714Y-131510952D01*
X214738095Y-131558571D01*
X214642857Y-131606190D01*
X214261904Y-131606190D01*
X215214285Y-131177619D02*
X215261904Y-131130000D01*
X215357142Y-131082380D01*
X215595238Y-131082380D01*
X215690476Y-131130000D01*
X215738095Y-131177619D01*
X215785714Y-131272857D01*
X215785714Y-131368095D01*
X215738095Y-131510952D01*
X215166666Y-132082380D01*
X215785714Y-132082380D01*
%TO.C,J11*%
X144162380Y-167179523D02*
X144876666Y-167179523D01*
X145019523Y-167227142D01*
X145114761Y-167322380D01*
X145162380Y-167465238D01*
X145162380Y-167560476D01*
X145162380Y-166179523D02*
X145162380Y-166750952D01*
X145162380Y-166465238D02*
X144162380Y-166465238D01*
X144305238Y-166560476D01*
X144400476Y-166655714D01*
X144448095Y-166750952D01*
X145162380Y-165227142D02*
X145162380Y-165798571D01*
X145162380Y-165512857D02*
X144162380Y-165512857D01*
X144305238Y-165608095D01*
X144400476Y-165703333D01*
X144448095Y-165798571D01*
%TO.C,C10*%
X235357142Y-194257142D02*
X235309523Y-194304761D01*
X235166666Y-194352380D01*
X235071428Y-194352380D01*
X234928571Y-194304761D01*
X234833333Y-194209523D01*
X234785714Y-194114285D01*
X234738095Y-193923809D01*
X234738095Y-193780952D01*
X234785714Y-193590476D01*
X234833333Y-193495238D01*
X234928571Y-193400000D01*
X235071428Y-193352380D01*
X235166666Y-193352380D01*
X235309523Y-193400000D01*
X235357142Y-193447619D01*
X236309523Y-194352380D02*
X235738095Y-194352380D01*
X236023809Y-194352380D02*
X236023809Y-193352380D01*
X235928571Y-193495238D01*
X235833333Y-193590476D01*
X235738095Y-193638095D01*
X236928571Y-193352380D02*
X237023809Y-193352380D01*
X237119047Y-193400000D01*
X237166666Y-193447619D01*
X237214285Y-193542857D01*
X237261904Y-193733333D01*
X237261904Y-193971428D01*
X237214285Y-194161904D01*
X237166666Y-194257142D01*
X237119047Y-194304761D01*
X237023809Y-194352380D01*
X236928571Y-194352380D01*
X236833333Y-194304761D01*
X236785714Y-194257142D01*
X236738095Y-194161904D01*
X236690476Y-193971428D01*
X236690476Y-193733333D01*
X236738095Y-193542857D01*
X236785714Y-193447619D01*
X236833333Y-193400000D01*
X236928571Y-193352380D01*
%TO.C,X1*%
X165190476Y-180002380D02*
X165857142Y-181002380D01*
X165857142Y-180002380D02*
X165190476Y-181002380D01*
X166761904Y-181002380D02*
X166190476Y-181002380D01*
X166476190Y-181002380D02*
X166476190Y-180002380D01*
X166380952Y-180145238D01*
X166285714Y-180240476D01*
X166190476Y-180288095D01*
%TO.C,J12*%
X138920476Y-77402380D02*
X138920476Y-78116666D01*
X138872857Y-78259523D01*
X138777619Y-78354761D01*
X138634761Y-78402380D01*
X138539523Y-78402380D01*
X139920476Y-78402380D02*
X139349047Y-78402380D01*
X139634761Y-78402380D02*
X139634761Y-77402380D01*
X139539523Y-77545238D01*
X139444285Y-77640476D01*
X139349047Y-77688095D01*
X140301428Y-77497619D02*
X140349047Y-77450000D01*
X140444285Y-77402380D01*
X140682380Y-77402380D01*
X140777619Y-77450000D01*
X140825238Y-77497619D01*
X140872857Y-77592857D01*
X140872857Y-77688095D01*
X140825238Y-77830952D01*
X140253809Y-78402380D01*
X140872857Y-78402380D01*
%TO.C,J10*%
X199920476Y-77402380D02*
X199920476Y-78116666D01*
X199872857Y-78259523D01*
X199777619Y-78354761D01*
X199634761Y-78402380D01*
X199539523Y-78402380D01*
X200920476Y-78402380D02*
X200349047Y-78402380D01*
X200634761Y-78402380D02*
X200634761Y-77402380D01*
X200539523Y-77545238D01*
X200444285Y-77640476D01*
X200349047Y-77688095D01*
X201539523Y-77402380D02*
X201634761Y-77402380D01*
X201730000Y-77450000D01*
X201777619Y-77497619D01*
X201825238Y-77592857D01*
X201872857Y-77783333D01*
X201872857Y-78021428D01*
X201825238Y-78211904D01*
X201777619Y-78307142D01*
X201730000Y-78354761D01*
X201634761Y-78402380D01*
X201539523Y-78402380D01*
X201444285Y-78354761D01*
X201396666Y-78307142D01*
X201349047Y-78211904D01*
X201301428Y-78021428D01*
X201301428Y-77783333D01*
X201349047Y-77592857D01*
X201396666Y-77497619D01*
X201444285Y-77450000D01*
X201539523Y-77402380D01*
%TO.C,C8*%
X214833333Y-88507142D02*
X214785714Y-88554761D01*
X214642857Y-88602380D01*
X214547619Y-88602380D01*
X214404761Y-88554761D01*
X214309523Y-88459523D01*
X214261904Y-88364285D01*
X214214285Y-88173809D01*
X214214285Y-88030952D01*
X214261904Y-87840476D01*
X214309523Y-87745238D01*
X214404761Y-87650000D01*
X214547619Y-87602380D01*
X214642857Y-87602380D01*
X214785714Y-87650000D01*
X214833333Y-87697619D01*
X215404761Y-88030952D02*
X215309523Y-87983333D01*
X215261904Y-87935714D01*
X215214285Y-87840476D01*
X215214285Y-87792857D01*
X215261904Y-87697619D01*
X215309523Y-87650000D01*
X215404761Y-87602380D01*
X215595238Y-87602380D01*
X215690476Y-87650000D01*
X215738095Y-87697619D01*
X215785714Y-87792857D01*
X215785714Y-87840476D01*
X215738095Y-87935714D01*
X215690476Y-87983333D01*
X215595238Y-88030952D01*
X215404761Y-88030952D01*
X215309523Y-88078571D01*
X215261904Y-88126190D01*
X215214285Y-88221428D01*
X215214285Y-88411904D01*
X215261904Y-88507142D01*
X215309523Y-88554761D01*
X215404761Y-88602380D01*
X215595238Y-88602380D01*
X215690476Y-88554761D01*
X215738095Y-88507142D01*
X215785714Y-88411904D01*
X215785714Y-88221428D01*
X215738095Y-88126190D01*
X215690476Y-88078571D01*
X215595238Y-88030952D01*
%TO.C,R6*%
X214833333Y-112082380D02*
X214500000Y-111606190D01*
X214261904Y-112082380D02*
X214261904Y-111082380D01*
X214642857Y-111082380D01*
X214738095Y-111130000D01*
X214785714Y-111177619D01*
X214833333Y-111272857D01*
X214833333Y-111415714D01*
X214785714Y-111510952D01*
X214738095Y-111558571D01*
X214642857Y-111606190D01*
X214261904Y-111606190D01*
X215690476Y-111082380D02*
X215500000Y-111082380D01*
X215404761Y-111130000D01*
X215357142Y-111177619D01*
X215261904Y-111320476D01*
X215214285Y-111510952D01*
X215214285Y-111891904D01*
X215261904Y-111987142D01*
X215309523Y-112034761D01*
X215404761Y-112082380D01*
X215595238Y-112082380D01*
X215690476Y-112034761D01*
X215738095Y-111987142D01*
X215785714Y-111891904D01*
X215785714Y-111653809D01*
X215738095Y-111558571D01*
X215690476Y-111510952D01*
X215595238Y-111463333D01*
X215404761Y-111463333D01*
X215309523Y-111510952D01*
X215261904Y-111558571D01*
X215214285Y-111653809D01*
%TO.C,J14*%
X149190476Y-143122380D02*
X149190476Y-143836666D01*
X149142857Y-143979523D01*
X149047619Y-144074761D01*
X148904761Y-144122380D01*
X148809523Y-144122380D01*
X150190476Y-144122380D02*
X149619047Y-144122380D01*
X149904761Y-144122380D02*
X149904761Y-143122380D01*
X149809523Y-143265238D01*
X149714285Y-143360476D01*
X149619047Y-143408095D01*
X151047619Y-143455714D02*
X151047619Y-144122380D01*
X150809523Y-143074761D02*
X150571428Y-143789047D01*
X151190476Y-143789047D01*
%TO.C,U4*%
X266748095Y-88647380D02*
X266748095Y-89456904D01*
X266795714Y-89552142D01*
X266843333Y-89599761D01*
X266938571Y-89647380D01*
X267129047Y-89647380D01*
X267224285Y-89599761D01*
X267271904Y-89552142D01*
X267319523Y-89456904D01*
X267319523Y-88647380D01*
X268224285Y-88980714D02*
X268224285Y-89647380D01*
X267986190Y-88599761D02*
X267748095Y-89314047D01*
X268367142Y-89314047D01*
%TO.C,C9*%
X267333333Y-84007142D02*
X267285714Y-84054761D01*
X267142857Y-84102380D01*
X267047619Y-84102380D01*
X266904761Y-84054761D01*
X266809523Y-83959523D01*
X266761904Y-83864285D01*
X266714285Y-83673809D01*
X266714285Y-83530952D01*
X266761904Y-83340476D01*
X266809523Y-83245238D01*
X266904761Y-83150000D01*
X267047619Y-83102380D01*
X267142857Y-83102380D01*
X267285714Y-83150000D01*
X267333333Y-83197619D01*
X267809523Y-84102380D02*
X268000000Y-84102380D01*
X268095238Y-84054761D01*
X268142857Y-84007142D01*
X268238095Y-83864285D01*
X268285714Y-83673809D01*
X268285714Y-83292857D01*
X268238095Y-83197619D01*
X268190476Y-83150000D01*
X268095238Y-83102380D01*
X267904761Y-83102380D01*
X267809523Y-83150000D01*
X267761904Y-83197619D01*
X267714285Y-83292857D01*
X267714285Y-83530952D01*
X267761904Y-83626190D01*
X267809523Y-83673809D01*
X267904761Y-83721428D01*
X268095238Y-83721428D01*
X268190476Y-83673809D01*
X268238095Y-83626190D01*
X268285714Y-83530952D01*
%TO.C,J8*%
X249166666Y-89397380D02*
X249166666Y-90111666D01*
X249119047Y-90254523D01*
X249023809Y-90349761D01*
X248880952Y-90397380D01*
X248785714Y-90397380D01*
X249785714Y-89825952D02*
X249690476Y-89778333D01*
X249642857Y-89730714D01*
X249595238Y-89635476D01*
X249595238Y-89587857D01*
X249642857Y-89492619D01*
X249690476Y-89445000D01*
X249785714Y-89397380D01*
X249976190Y-89397380D01*
X250071428Y-89445000D01*
X250119047Y-89492619D01*
X250166666Y-89587857D01*
X250166666Y-89635476D01*
X250119047Y-89730714D01*
X250071428Y-89778333D01*
X249976190Y-89825952D01*
X249785714Y-89825952D01*
X249690476Y-89873571D01*
X249642857Y-89921190D01*
X249595238Y-90016428D01*
X249595238Y-90206904D01*
X249642857Y-90302142D01*
X249690476Y-90349761D01*
X249785714Y-90397380D01*
X249976190Y-90397380D01*
X250071428Y-90349761D01*
X250119047Y-90302142D01*
X250166666Y-90206904D01*
X250166666Y-90016428D01*
X250119047Y-89921190D01*
X250071428Y-89873571D01*
X249976190Y-89825952D01*
%TO.C,U1*%
X179248095Y-152497380D02*
X179248095Y-153306904D01*
X179295714Y-153402142D01*
X179343333Y-153449761D01*
X179438571Y-153497380D01*
X179629047Y-153497380D01*
X179724285Y-153449761D01*
X179771904Y-153402142D01*
X179819523Y-153306904D01*
X179819523Y-152497380D01*
X180819523Y-153497380D02*
X180248095Y-153497380D01*
X180533809Y-153497380D02*
X180533809Y-152497380D01*
X180438571Y-152640238D01*
X180343333Y-152735476D01*
X180248095Y-152783095D01*
%TO.C,C7*%
X204833333Y-141007142D02*
X204785714Y-141054761D01*
X204642857Y-141102380D01*
X204547619Y-141102380D01*
X204404761Y-141054761D01*
X204309523Y-140959523D01*
X204261904Y-140864285D01*
X204214285Y-140673809D01*
X204214285Y-140530952D01*
X204261904Y-140340476D01*
X204309523Y-140245238D01*
X204404761Y-140150000D01*
X204547619Y-140102380D01*
X204642857Y-140102380D01*
X204785714Y-140150000D01*
X204833333Y-140197619D01*
X205166666Y-140102380D02*
X205833333Y-140102380D01*
X205404761Y-141102380D01*
%TO.C,RV1*%
X136389761Y-181957380D02*
X136056428Y-181481190D01*
X135818333Y-181957380D02*
X135818333Y-180957380D01*
X136199285Y-180957380D01*
X136294523Y-181005000D01*
X136342142Y-181052619D01*
X136389761Y-181147857D01*
X136389761Y-181290714D01*
X136342142Y-181385952D01*
X136294523Y-181433571D01*
X136199285Y-181481190D01*
X135818333Y-181481190D01*
X136675476Y-180957380D02*
X137008809Y-181957380D01*
X137342142Y-180957380D01*
X138199285Y-181957380D02*
X137627857Y-181957380D01*
X137913571Y-181957380D02*
X137913571Y-180957380D01*
X137818333Y-181100238D01*
X137723095Y-181195476D01*
X137627857Y-181243095D01*
%TO.C,R9*%
X156833333Y-141822380D02*
X156500000Y-141346190D01*
X156261904Y-141822380D02*
X156261904Y-140822380D01*
X156642857Y-140822380D01*
X156738095Y-140870000D01*
X156785714Y-140917619D01*
X156833333Y-141012857D01*
X156833333Y-141155714D01*
X156785714Y-141250952D01*
X156738095Y-141298571D01*
X156642857Y-141346190D01*
X156261904Y-141346190D01*
X157309523Y-141822380D02*
X157500000Y-141822380D01*
X157595238Y-141774761D01*
X157642857Y-141727142D01*
X157738095Y-141584285D01*
X157785714Y-141393809D01*
X157785714Y-141012857D01*
X157738095Y-140917619D01*
X157690476Y-140870000D01*
X157595238Y-140822380D01*
X157404761Y-140822380D01*
X157309523Y-140870000D01*
X157261904Y-140917619D01*
X157214285Y-141012857D01*
X157214285Y-141250952D01*
X157261904Y-141346190D01*
X157309523Y-141393809D01*
X157404761Y-141441428D01*
X157595238Y-141441428D01*
X157690476Y-141393809D01*
X157738095Y-141346190D01*
X157785714Y-141250952D01*
%TO.C,J9*%
X224166666Y-94122380D02*
X224166666Y-94836666D01*
X224119047Y-94979523D01*
X224023809Y-95074761D01*
X223880952Y-95122380D01*
X223785714Y-95122380D01*
X224690476Y-95122380D02*
X224880952Y-95122380D01*
X224976190Y-95074761D01*
X225023809Y-95027142D01*
X225119047Y-94884285D01*
X225166666Y-94693809D01*
X225166666Y-94312857D01*
X225119047Y-94217619D01*
X225071428Y-94170000D01*
X224976190Y-94122380D01*
X224785714Y-94122380D01*
X224690476Y-94170000D01*
X224642857Y-94217619D01*
X224595238Y-94312857D01*
X224595238Y-94550952D01*
X224642857Y-94646190D01*
X224690476Y-94693809D01*
X224785714Y-94741428D01*
X224976190Y-94741428D01*
X225071428Y-94693809D01*
X225119047Y-94646190D01*
X225166666Y-94550952D01*
%TO.C,C4*%
X271833333Y-129507142D02*
X271785714Y-129554761D01*
X271642857Y-129602380D01*
X271547619Y-129602380D01*
X271404761Y-129554761D01*
X271309523Y-129459523D01*
X271261904Y-129364285D01*
X271214285Y-129173809D01*
X271214285Y-129030952D01*
X271261904Y-128840476D01*
X271309523Y-128745238D01*
X271404761Y-128650000D01*
X271547619Y-128602380D01*
X271642857Y-128602380D01*
X271785714Y-128650000D01*
X271833333Y-128697619D01*
X272690476Y-128935714D02*
X272690476Y-129602380D01*
X272452380Y-128554761D02*
X272214285Y-129269047D01*
X272833333Y-129269047D01*
%TO.C,J2*%
X252166666Y-198247380D02*
X252166666Y-198961666D01*
X252119047Y-199104523D01*
X252023809Y-199199761D01*
X251880952Y-199247380D01*
X251785714Y-199247380D01*
X252595238Y-198342619D02*
X252642857Y-198295000D01*
X252738095Y-198247380D01*
X252976190Y-198247380D01*
X253071428Y-198295000D01*
X253119047Y-198342619D01*
X253166666Y-198437857D01*
X253166666Y-198533095D01*
X253119047Y-198675952D01*
X252547619Y-199247380D01*
X253166666Y-199247380D01*
%TO.C,J5*%
X252452380Y-189333333D02*
X253166666Y-189333333D01*
X253309523Y-189380952D01*
X253404761Y-189476190D01*
X253452380Y-189619047D01*
X253452380Y-189714285D01*
X252452380Y-188380952D02*
X252452380Y-188857142D01*
X252928571Y-188904761D01*
X252880952Y-188857142D01*
X252833333Y-188761904D01*
X252833333Y-188523809D01*
X252880952Y-188428571D01*
X252928571Y-188380952D01*
X253023809Y-188333333D01*
X253261904Y-188333333D01*
X253357142Y-188380952D01*
X253404761Y-188428571D01*
X253452380Y-188523809D01*
X253452380Y-188761904D01*
X253404761Y-188857142D01*
X253357142Y-188904761D01*
%TO.C,U7*%
X271233095Y-198997380D02*
X271233095Y-199806904D01*
X271280714Y-199902142D01*
X271328333Y-199949761D01*
X271423571Y-199997380D01*
X271614047Y-199997380D01*
X271709285Y-199949761D01*
X271756904Y-199902142D01*
X271804523Y-199806904D01*
X271804523Y-198997380D01*
X272185476Y-198997380D02*
X272852142Y-198997380D01*
X272423571Y-199997380D01*
%TO.C,C2*%
X271833333Y-194507142D02*
X271785714Y-194554761D01*
X271642857Y-194602380D01*
X271547619Y-194602380D01*
X271404761Y-194554761D01*
X271309523Y-194459523D01*
X271261904Y-194364285D01*
X271214285Y-194173809D01*
X271214285Y-194030952D01*
X271261904Y-193840476D01*
X271309523Y-193745238D01*
X271404761Y-193650000D01*
X271547619Y-193602380D01*
X271642857Y-193602380D01*
X271785714Y-193650000D01*
X271833333Y-193697619D01*
X272214285Y-193697619D02*
X272261904Y-193650000D01*
X272357142Y-193602380D01*
X272595238Y-193602380D01*
X272690476Y-193650000D01*
X272738095Y-193697619D01*
X272785714Y-193792857D01*
X272785714Y-193888095D01*
X272738095Y-194030952D01*
X272166666Y-194602380D01*
X272785714Y-194602380D01*
%TO.C,J4*%
X161396666Y-77682380D02*
X161396666Y-78396666D01*
X161349047Y-78539523D01*
X161253809Y-78634761D01*
X161110952Y-78682380D01*
X161015714Y-78682380D01*
X162301428Y-78015714D02*
X162301428Y-78682380D01*
X162063333Y-77634761D02*
X161825238Y-78349047D01*
X162444285Y-78349047D01*
%TO.C,R4*%
X254023333Y-157122380D02*
X253690000Y-156646190D01*
X253451904Y-157122380D02*
X253451904Y-156122380D01*
X253832857Y-156122380D01*
X253928095Y-156170000D01*
X253975714Y-156217619D01*
X254023333Y-156312857D01*
X254023333Y-156455714D01*
X253975714Y-156550952D01*
X253928095Y-156598571D01*
X253832857Y-156646190D01*
X253451904Y-156646190D01*
X254880476Y-156455714D02*
X254880476Y-157122380D01*
X254642380Y-156074761D02*
X254404285Y-156789047D01*
X255023333Y-156789047D01*
%TO.C,J13*%
X133900476Y-152522380D02*
X133900476Y-153236666D01*
X133852857Y-153379523D01*
X133757619Y-153474761D01*
X133614761Y-153522380D01*
X133519523Y-153522380D01*
X134900476Y-153522380D02*
X134329047Y-153522380D01*
X134614761Y-153522380D02*
X134614761Y-152522380D01*
X134519523Y-152665238D01*
X134424285Y-152760476D01*
X134329047Y-152808095D01*
X135233809Y-152522380D02*
X135852857Y-152522380D01*
X135519523Y-152903333D01*
X135662380Y-152903333D01*
X135757619Y-152950952D01*
X135805238Y-152998571D01*
X135852857Y-153093809D01*
X135852857Y-153331904D01*
X135805238Y-153427142D01*
X135757619Y-153474761D01*
X135662380Y-153522380D01*
X135376666Y-153522380D01*
X135281428Y-153474761D01*
X135233809Y-153427142D01*
%TO.C,U3*%
X204965595Y-145902380D02*
X204965595Y-146711904D01*
X205013214Y-146807142D01*
X205060833Y-146854761D01*
X205156071Y-146902380D01*
X205346547Y-146902380D01*
X205441785Y-146854761D01*
X205489404Y-146807142D01*
X205537023Y-146711904D01*
X205537023Y-145902380D01*
X205917976Y-145902380D02*
X206537023Y-145902380D01*
X206203690Y-146283333D01*
X206346547Y-146283333D01*
X206441785Y-146330952D01*
X206489404Y-146378571D01*
X206537023Y-146473809D01*
X206537023Y-146711904D01*
X206489404Y-146807142D01*
X206441785Y-146854761D01*
X206346547Y-146902380D01*
X206060833Y-146902380D01*
X205965595Y-146854761D01*
X205917976Y-146807142D01*
%TO.C,SW1*%
X213666666Y-94154761D02*
X213809523Y-94202380D01*
X214047619Y-94202380D01*
X214142857Y-94154761D01*
X214190476Y-94107142D01*
X214238095Y-94011904D01*
X214238095Y-93916666D01*
X214190476Y-93821428D01*
X214142857Y-93773809D01*
X214047619Y-93726190D01*
X213857142Y-93678571D01*
X213761904Y-93630952D01*
X213714285Y-93583333D01*
X213666666Y-93488095D01*
X213666666Y-93392857D01*
X213714285Y-93297619D01*
X213761904Y-93250000D01*
X213857142Y-93202380D01*
X214095238Y-93202380D01*
X214238095Y-93250000D01*
X214571428Y-93202380D02*
X214809523Y-94202380D01*
X215000000Y-93488095D01*
X215190476Y-94202380D01*
X215428571Y-93202380D01*
X216333333Y-94202380D02*
X215761904Y-94202380D01*
X216047619Y-94202380D02*
X216047619Y-93202380D01*
X215952380Y-93345238D01*
X215857142Y-93440476D01*
X215761904Y-93488095D01*
%TO.C,C1*%
X179833333Y-147507142D02*
X179785714Y-147554761D01*
X179642857Y-147602380D01*
X179547619Y-147602380D01*
X179404761Y-147554761D01*
X179309523Y-147459523D01*
X179261904Y-147364285D01*
X179214285Y-147173809D01*
X179214285Y-147030952D01*
X179261904Y-146840476D01*
X179309523Y-146745238D01*
X179404761Y-146650000D01*
X179547619Y-146602380D01*
X179642857Y-146602380D01*
X179785714Y-146650000D01*
X179833333Y-146697619D01*
X180785714Y-147602380D02*
X180214285Y-147602380D01*
X180500000Y-147602380D02*
X180500000Y-146602380D01*
X180404761Y-146745238D01*
X180309523Y-146840476D01*
X180214285Y-146888095D01*
%TO.C,Q1*%
X161904761Y-146327586D02*
X161809523Y-146279967D01*
X161714285Y-146184728D01*
X161571428Y-146041871D01*
X161476190Y-145994252D01*
X161380952Y-145994252D01*
X161428571Y-146232347D02*
X161333333Y-146184728D01*
X161238095Y-146089490D01*
X161190476Y-145899014D01*
X161190476Y-145565681D01*
X161238095Y-145375205D01*
X161333333Y-145279967D01*
X161428571Y-145232347D01*
X161619047Y-145232347D01*
X161714285Y-145279967D01*
X161809523Y-145375205D01*
X161857142Y-145565681D01*
X161857142Y-145899014D01*
X161809523Y-146089490D01*
X161714285Y-146184728D01*
X161619047Y-146232347D01*
X161428571Y-146232347D01*
X162809523Y-146232347D02*
X162238095Y-146232347D01*
X162523809Y-146232347D02*
X162523809Y-145232347D01*
X162428571Y-145375205D01*
X162333333Y-145470443D01*
X162238095Y-145518062D01*
%TO.C,J6*%
X249166666Y-102547380D02*
X249166666Y-103261666D01*
X249119047Y-103404523D01*
X249023809Y-103499761D01*
X248880952Y-103547380D01*
X248785714Y-103547380D01*
X250071428Y-102547380D02*
X249880952Y-102547380D01*
X249785714Y-102595000D01*
X249738095Y-102642619D01*
X249642857Y-102785476D01*
X249595238Y-102975952D01*
X249595238Y-103356904D01*
X249642857Y-103452142D01*
X249690476Y-103499761D01*
X249785714Y-103547380D01*
X249976190Y-103547380D01*
X250071428Y-103499761D01*
X250119047Y-103452142D01*
X250166666Y-103356904D01*
X250166666Y-103118809D01*
X250119047Y-103023571D01*
X250071428Y-102975952D01*
X249976190Y-102928333D01*
X249785714Y-102928333D01*
X249690476Y-102975952D01*
X249642857Y-103023571D01*
X249595238Y-103118809D01*
%TO.C,C3*%
X235833333Y-125257142D02*
X235785714Y-125304761D01*
X235642857Y-125352380D01*
X235547619Y-125352380D01*
X235404761Y-125304761D01*
X235309523Y-125209523D01*
X235261904Y-125114285D01*
X235214285Y-124923809D01*
X235214285Y-124780952D01*
X235261904Y-124590476D01*
X235309523Y-124495238D01*
X235404761Y-124400000D01*
X235547619Y-124352380D01*
X235642857Y-124352380D01*
X235785714Y-124400000D01*
X235833333Y-124447619D01*
X236166666Y-124352380D02*
X236785714Y-124352380D01*
X236452380Y-124733333D01*
X236595238Y-124733333D01*
X236690476Y-124780952D01*
X236738095Y-124828571D01*
X236785714Y-124923809D01*
X236785714Y-125161904D01*
X236738095Y-125257142D01*
X236690476Y-125304761D01*
X236595238Y-125352380D01*
X236309523Y-125352380D01*
X236214285Y-125304761D01*
X236166666Y-125257142D01*
%TO.C,J7*%
X182396666Y-77327380D02*
X182396666Y-78041666D01*
X182349047Y-78184523D01*
X182253809Y-78279761D01*
X182110952Y-78327380D01*
X182015714Y-78327380D01*
X182777619Y-77327380D02*
X183444285Y-77327380D01*
X183015714Y-78327380D01*
%TO.C,U6*%
X271233095Y-134072380D02*
X271233095Y-134881904D01*
X271280714Y-134977142D01*
X271328333Y-135024761D01*
X271423571Y-135072380D01*
X271614047Y-135072380D01*
X271709285Y-135024761D01*
X271756904Y-134977142D01*
X271804523Y-134881904D01*
X271804523Y-134072380D01*
X272709285Y-134072380D02*
X272518809Y-134072380D01*
X272423571Y-134120000D01*
X272375952Y-134167619D01*
X272280714Y-134310476D01*
X272233095Y-134500952D01*
X272233095Y-134881904D01*
X272280714Y-134977142D01*
X272328333Y-135024761D01*
X272423571Y-135072380D01*
X272614047Y-135072380D01*
X272709285Y-135024761D01*
X272756904Y-134977142D01*
X272804523Y-134881904D01*
X272804523Y-134643809D01*
X272756904Y-134548571D01*
X272709285Y-134500952D01*
X272614047Y-134453333D01*
X272423571Y-134453333D01*
X272328333Y-134500952D01*
X272280714Y-134548571D01*
X272233095Y-134643809D01*
%TO.C,D1*%
X165991904Y-143412380D02*
X165991904Y-142412380D01*
X166230000Y-142412380D01*
X166372857Y-142460000D01*
X166468095Y-142555238D01*
X166515714Y-142650476D01*
X166563333Y-142840952D01*
X166563333Y-142983809D01*
X166515714Y-143174285D01*
X166468095Y-143269523D01*
X166372857Y-143364761D01*
X166230000Y-143412380D01*
X165991904Y-143412380D01*
X167515714Y-143412380D02*
X166944285Y-143412380D01*
X167230000Y-143412380D02*
X167230000Y-142412380D01*
X167134761Y-142555238D01*
X167039523Y-142650476D01*
X166944285Y-142698095D01*
%TO.C,R3*%
X254023333Y-163662380D02*
X253690000Y-163186190D01*
X253451904Y-163662380D02*
X253451904Y-162662380D01*
X253832857Y-162662380D01*
X253928095Y-162710000D01*
X253975714Y-162757619D01*
X254023333Y-162852857D01*
X254023333Y-162995714D01*
X253975714Y-163090952D01*
X253928095Y-163138571D01*
X253832857Y-163186190D01*
X253451904Y-163186190D01*
X254356666Y-162662380D02*
X254975714Y-162662380D01*
X254642380Y-163043333D01*
X254785238Y-163043333D01*
X254880476Y-163090952D01*
X254928095Y-163138571D01*
X254975714Y-163233809D01*
X254975714Y-163471904D01*
X254928095Y-163567142D01*
X254880476Y-163614761D01*
X254785238Y-163662380D01*
X254499523Y-163662380D01*
X254404285Y-163614761D01*
X254356666Y-163567142D01*
%TO.C,J1*%
X252166666Y-225247380D02*
X252166666Y-225961666D01*
X252119047Y-226104523D01*
X252023809Y-226199761D01*
X251880952Y-226247380D01*
X251785714Y-226247380D01*
X253166666Y-226247380D02*
X252595238Y-226247380D01*
X252880952Y-226247380D02*
X252880952Y-225247380D01*
X252785714Y-225390238D01*
X252690476Y-225485476D01*
X252595238Y-225533095D01*
%TO.C,U8*%
X235233095Y-198997380D02*
X235233095Y-199806904D01*
X235280714Y-199902142D01*
X235328333Y-199949761D01*
X235423571Y-199997380D01*
X235614047Y-199997380D01*
X235709285Y-199949761D01*
X235756904Y-199902142D01*
X235804523Y-199806904D01*
X235804523Y-198997380D01*
X236423571Y-199425952D02*
X236328333Y-199378333D01*
X236280714Y-199330714D01*
X236233095Y-199235476D01*
X236233095Y-199187857D01*
X236280714Y-199092619D01*
X236328333Y-199045000D01*
X236423571Y-198997380D01*
X236614047Y-198997380D01*
X236709285Y-199045000D01*
X236756904Y-199092619D01*
X236804523Y-199187857D01*
X236804523Y-199235476D01*
X236756904Y-199330714D01*
X236709285Y-199378333D01*
X236614047Y-199425952D01*
X236423571Y-199425952D01*
X236328333Y-199473571D01*
X236280714Y-199521190D01*
X236233095Y-199616428D01*
X236233095Y-199806904D01*
X236280714Y-199902142D01*
X236328333Y-199949761D01*
X236423571Y-199997380D01*
X236614047Y-199997380D01*
X236709285Y-199949761D01*
X236756904Y-199902142D01*
X236804523Y-199806904D01*
X236804523Y-199616428D01*
X236756904Y-199521190D01*
X236709285Y-199473571D01*
X236614047Y-199425952D01*
%TO.C,R5*%
X254023333Y-169822380D02*
X253690000Y-169346190D01*
X253451904Y-169822380D02*
X253451904Y-168822380D01*
X253832857Y-168822380D01*
X253928095Y-168870000D01*
X253975714Y-168917619D01*
X254023333Y-169012857D01*
X254023333Y-169155714D01*
X253975714Y-169250952D01*
X253928095Y-169298571D01*
X253832857Y-169346190D01*
X253451904Y-169346190D01*
X254928095Y-168822380D02*
X254451904Y-168822380D01*
X254404285Y-169298571D01*
X254451904Y-169250952D01*
X254547142Y-169203333D01*
X254785238Y-169203333D01*
X254880476Y-169250952D01*
X254928095Y-169298571D01*
X254975714Y-169393809D01*
X254975714Y-169631904D01*
X254928095Y-169727142D01*
X254880476Y-169774761D01*
X254785238Y-169822380D01*
X254547142Y-169822380D01*
X254451904Y-169774761D01*
X254404285Y-169727142D01*
%TO.C,R1*%
X214833333Y-105082380D02*
X214500000Y-104606190D01*
X214261904Y-105082380D02*
X214261904Y-104082380D01*
X214642857Y-104082380D01*
X214738095Y-104130000D01*
X214785714Y-104177619D01*
X214833333Y-104272857D01*
X214833333Y-104415714D01*
X214785714Y-104510952D01*
X214738095Y-104558571D01*
X214642857Y-104606190D01*
X214261904Y-104606190D01*
X215785714Y-105082380D02*
X215214285Y-105082380D01*
X215500000Y-105082380D02*
X215500000Y-104082380D01*
X215404761Y-104225238D01*
X215309523Y-104320476D01*
X215214285Y-104368095D01*
%TO.C,SW2*%
X213666666Y-119154761D02*
X213809523Y-119202380D01*
X214047619Y-119202380D01*
X214142857Y-119154761D01*
X214190476Y-119107142D01*
X214238095Y-119011904D01*
X214238095Y-118916666D01*
X214190476Y-118821428D01*
X214142857Y-118773809D01*
X214047619Y-118726190D01*
X213857142Y-118678571D01*
X213761904Y-118630952D01*
X213714285Y-118583333D01*
X213666666Y-118488095D01*
X213666666Y-118392857D01*
X213714285Y-118297619D01*
X213761904Y-118250000D01*
X213857142Y-118202380D01*
X214095238Y-118202380D01*
X214238095Y-118250000D01*
X214571428Y-118202380D02*
X214809523Y-119202380D01*
X215000000Y-118488095D01*
X215190476Y-119202380D01*
X215428571Y-118202380D01*
X215761904Y-118297619D02*
X215809523Y-118250000D01*
X215904761Y-118202380D01*
X216142857Y-118202380D01*
X216238095Y-118250000D01*
X216285714Y-118297619D01*
X216333333Y-118392857D01*
X216333333Y-118488095D01*
X216285714Y-118630952D01*
X215714285Y-119202380D01*
X216333333Y-119202380D01*
%TO.C,C11*%
X134357142Y-199507142D02*
X134309523Y-199554761D01*
X134166666Y-199602380D01*
X134071428Y-199602380D01*
X133928571Y-199554761D01*
X133833333Y-199459523D01*
X133785714Y-199364285D01*
X133738095Y-199173809D01*
X133738095Y-199030952D01*
X133785714Y-198840476D01*
X133833333Y-198745238D01*
X133928571Y-198650000D01*
X134071428Y-198602380D01*
X134166666Y-198602380D01*
X134309523Y-198650000D01*
X134357142Y-198697619D01*
X135309523Y-199602380D02*
X134738095Y-199602380D01*
X135023809Y-199602380D02*
X135023809Y-198602380D01*
X134928571Y-198745238D01*
X134833333Y-198840476D01*
X134738095Y-198888095D01*
X136261904Y-199602380D02*
X135690476Y-199602380D01*
X135976190Y-199602380D02*
X135976190Y-198602380D01*
X135880952Y-198745238D01*
X135785714Y-198840476D01*
X135690476Y-198888095D01*
D11*
%TO.C,J3*%
X212670000Y-225770000D02*
X215330000Y-225770000D01*
X212670000Y-225770000D02*
X212670000Y-230910000D01*
X215330000Y-225770000D02*
X215330000Y-230910000D01*
X212670000Y-223170000D02*
X214000000Y-223170000D01*
X212670000Y-224500000D02*
X212670000Y-223170000D01*
X212670000Y-230910000D02*
X215330000Y-230910000D01*
%TO.C,C6*%
X166120000Y-170000000D02*
G75*
G03*
X166120000Y-170000000I-5120000J0D01*
G01*
%TO.C,U5*%
X227045000Y-131235000D02*
X227045000Y-182275000D01*
X242455000Y-131295000D02*
X236995000Y-131295000D01*
X229535000Y-131295000D02*
X229535000Y-182215000D01*
X244945000Y-131235000D02*
X227045000Y-131235000D01*
X229535000Y-182215000D02*
X242455000Y-182215000D01*
X234995000Y-131295000D02*
X229535000Y-131295000D01*
X227045000Y-182275000D02*
X244945000Y-182275000D01*
X244945000Y-182275000D02*
X244945000Y-131235000D01*
X242455000Y-182215000D02*
X242455000Y-131295000D01*
X234995000Y-131295000D02*
G75*
G03*
X236995000Y-131295000I1000000J0D01*
G01*
%TO.C,C5*%
X238670000Y-87805000D02*
X238670000Y-88471000D01*
X238670000Y-85029000D02*
X238670000Y-85695000D01*
X233330000Y-87805000D02*
X233330000Y-88471000D01*
X233330000Y-85029000D02*
X233330000Y-85695000D01*
X233330000Y-85029000D02*
X238670000Y-85029000D01*
X233330000Y-88471000D02*
X238670000Y-88471000D01*
%TO.C,U2*%
X241150000Y-121105000D02*
X241150000Y-90385000D01*
X235010000Y-90445000D02*
X233360000Y-90445000D01*
X238660000Y-90445000D02*
X237010000Y-90445000D01*
X230870000Y-90385000D02*
X230870000Y-121105000D01*
X233360000Y-121045000D02*
X238660000Y-121045000D01*
X241150000Y-90385000D02*
X230870000Y-90385000D01*
X238660000Y-121045000D02*
X238660000Y-90445000D01*
X233360000Y-90445000D02*
X233360000Y-121045000D01*
X230870000Y-121105000D02*
X241150000Y-121105000D01*
X235010000Y-90445000D02*
G75*
G03*
X237010000Y-90445000I1000000J0D01*
G01*
%TO.C,R7*%
X257460000Y-145640000D02*
X257460000Y-145310000D01*
X257460000Y-147720000D02*
X257460000Y-148050000D01*
X250920000Y-148050000D02*
X250920000Y-147720000D01*
X257460000Y-148050000D02*
X250920000Y-148050000D01*
X257460000Y-145310000D02*
X250920000Y-145310000D01*
X250920000Y-145310000D02*
X250920000Y-145640000D01*
%TO.C,R8*%
X250730000Y-142370000D02*
X257270000Y-142370000D01*
X257270000Y-142370000D02*
X257270000Y-142040000D01*
X250730000Y-139630000D02*
X257270000Y-139630000D01*
X257270000Y-139630000D02*
X257270000Y-139960000D01*
X250730000Y-142040000D02*
X250730000Y-142370000D01*
X250730000Y-139960000D02*
X250730000Y-139630000D01*
%TO.C,R2*%
X211730000Y-132630000D02*
X218270000Y-132630000D01*
X218270000Y-132630000D02*
X218270000Y-132960000D01*
X211730000Y-135040000D02*
X211730000Y-135370000D01*
X218270000Y-135370000D02*
X218270000Y-135040000D01*
X211730000Y-132960000D02*
X211730000Y-132630000D01*
X211730000Y-135370000D02*
X218270000Y-135370000D01*
%TO.C,J11*%
X142760000Y-158240000D02*
X129760000Y-158240000D01*
X142760000Y-158240000D02*
X142760000Y-174440000D01*
X129760000Y-158240000D02*
X129760000Y-174440000D01*
X142760000Y-174440000D02*
X129760000Y-174440000D01*
%TO.C,C10*%
X238670000Y-197805000D02*
X238670000Y-198471000D01*
X233330000Y-197805000D02*
X233330000Y-198471000D01*
X233330000Y-195029000D02*
X238670000Y-195029000D01*
X233330000Y-198471000D02*
X238670000Y-198471000D01*
X238670000Y-195029000D02*
X238670000Y-195695000D01*
X233330000Y-195029000D02*
X233330000Y-195695000D01*
%TO.C,X1*%
X176450000Y-193700000D02*
X176450000Y-182300000D01*
X175700000Y-181550000D02*
X156300000Y-181550000D01*
X155550000Y-182300000D02*
X155550000Y-194450000D01*
X155550000Y-194450000D02*
X175700000Y-194450000D01*
X176450000Y-182300000D02*
G75*
G03*
X175700000Y-181550000I-750000J0D01*
G01*
X156300000Y-181550000D02*
G75*
G03*
X155550000Y-182300000I0J-750000D01*
G01*
X175700000Y-194450000D02*
G75*
G03*
X176450000Y-193700000I0J750000D01*
G01*
%TO.C,J12*%
X142330000Y-78950000D02*
X142330000Y-129870000D01*
X137130000Y-80280000D02*
X137130000Y-78950000D01*
X137130000Y-81550000D02*
X139730000Y-81550000D01*
X139730000Y-81550000D02*
X139730000Y-78950000D01*
X137130000Y-78950000D02*
X138460000Y-78950000D01*
X137130000Y-81550000D02*
X137130000Y-129870000D01*
X137130000Y-129870000D02*
X142330000Y-129870000D01*
X139730000Y-78950000D02*
X142330000Y-78950000D01*
%TO.C,J10*%
X200730000Y-78950000D02*
X203330000Y-78950000D01*
X203330000Y-78950000D02*
X203330000Y-129870000D01*
X198130000Y-129870000D02*
X203330000Y-129870000D01*
X200730000Y-81550000D02*
X200730000Y-78950000D01*
X198130000Y-78950000D02*
X199460000Y-78950000D01*
X198130000Y-81550000D02*
X198130000Y-129870000D01*
X198130000Y-81550000D02*
X200730000Y-81550000D01*
X198130000Y-80280000D02*
X198130000Y-78950000D01*
%TO.C,C8*%
X212330000Y-89279000D02*
X212330000Y-89945000D01*
X212330000Y-92721000D02*
X217670000Y-92721000D01*
X217670000Y-92055000D02*
X217670000Y-92721000D01*
X212330000Y-92055000D02*
X212330000Y-92721000D01*
X212330000Y-89279000D02*
X217670000Y-89279000D01*
X217670000Y-89279000D02*
X217670000Y-89945000D01*
%TO.C,R6*%
X211730000Y-112960000D02*
X211730000Y-112630000D01*
X211730000Y-115370000D02*
X218270000Y-115370000D01*
X218270000Y-112630000D02*
X218270000Y-112960000D01*
X218270000Y-115370000D02*
X218270000Y-115040000D01*
X211730000Y-115040000D02*
X211730000Y-115370000D01*
X211730000Y-112630000D02*
X218270000Y-112630000D01*
%TO.C,J14*%
X151330000Y-147270000D02*
X151330000Y-149870000D01*
X148670000Y-144670000D02*
X150000000Y-144670000D01*
X148670000Y-147270000D02*
X148670000Y-149870000D01*
X148670000Y-146000000D02*
X148670000Y-144670000D01*
X148670000Y-149870000D02*
X151330000Y-149870000D01*
X148670000Y-147270000D02*
X151330000Y-147270000D01*
%TO.C,U4*%
X272650000Y-120855000D02*
X272650000Y-90135000D01*
X266510000Y-90195000D02*
X264860000Y-90195000D01*
X262370000Y-90135000D02*
X262370000Y-120855000D01*
X270160000Y-90195000D02*
X268510000Y-90195000D01*
X270160000Y-120795000D02*
X270160000Y-90195000D01*
X264860000Y-120795000D02*
X270160000Y-120795000D01*
X264860000Y-90195000D02*
X264860000Y-120795000D01*
X262370000Y-120855000D02*
X272650000Y-120855000D01*
X272650000Y-90135000D02*
X262370000Y-90135000D01*
X266510000Y-90195000D02*
G75*
G03*
X268510000Y-90195000I1000000J0D01*
G01*
%TO.C,C9*%
X264830000Y-84779000D02*
X264830000Y-85445000D01*
X270170000Y-84779000D02*
X270170000Y-85445000D01*
X264830000Y-84779000D02*
X270170000Y-84779000D01*
X264830000Y-87555000D02*
X264830000Y-88221000D01*
X264830000Y-88221000D02*
X270170000Y-88221000D01*
X270170000Y-87555000D02*
X270170000Y-88221000D01*
%TO.C,J8*%
X248170000Y-93545000D02*
X250830000Y-93545000D01*
X248170000Y-90945000D02*
X249500000Y-90945000D01*
X248170000Y-92275000D02*
X248170000Y-90945000D01*
X250830000Y-93545000D02*
X250830000Y-96145000D01*
X248170000Y-93545000D02*
X248170000Y-96145000D01*
X248170000Y-96145000D02*
X250830000Y-96145000D01*
%TO.C,U1*%
X185150000Y-153985000D02*
X174870000Y-153985000D01*
X174870000Y-172005000D02*
X185150000Y-172005000D01*
X179010000Y-154045000D02*
X177360000Y-154045000D01*
X182660000Y-154045000D02*
X181010000Y-154045000D01*
X177360000Y-154045000D02*
X177360000Y-171945000D01*
X177360000Y-171945000D02*
X182660000Y-171945000D01*
X174870000Y-153985000D02*
X174870000Y-172005000D01*
X185150000Y-172005000D02*
X185150000Y-153985000D01*
X182660000Y-171945000D02*
X182660000Y-154045000D01*
X179010000Y-154045000D02*
G75*
G03*
X181010000Y-154045000I1000000J0D01*
G01*
%TO.C,C7*%
X202330000Y-144555000D02*
X202330000Y-145221000D01*
X207670000Y-144555000D02*
X207670000Y-145221000D01*
X207670000Y-141779000D02*
X207670000Y-142445000D01*
X202330000Y-145221000D02*
X207670000Y-145221000D01*
X202330000Y-141779000D02*
X202330000Y-142445000D01*
X202330000Y-141779000D02*
X207670000Y-141779000D01*
%TO.C,RV1*%
X133510000Y-182635000D02*
X140460000Y-182635000D01*
X140460000Y-182635000D02*
X140460000Y-183280000D01*
X133510000Y-184270000D02*
X133510000Y-187375000D01*
X140460000Y-184270000D02*
X140460000Y-187375000D01*
X133510000Y-187375000D02*
X140460000Y-187375000D01*
X133510000Y-182635000D02*
X133510000Y-183280000D01*
%TO.C,R9*%
X160270000Y-137630000D02*
X153730000Y-137630000D01*
X160270000Y-137960000D02*
X160270000Y-137630000D01*
X160270000Y-140040000D02*
X160270000Y-140370000D01*
X153730000Y-140370000D02*
X153730000Y-140040000D01*
X160270000Y-140370000D02*
X153730000Y-140370000D01*
X153730000Y-137630000D02*
X153730000Y-137960000D01*
%TO.C,J9*%
X223170000Y-97000000D02*
X223170000Y-95670000D01*
X223170000Y-98270000D02*
X225830000Y-98270000D01*
X223170000Y-95670000D02*
X224500000Y-95670000D01*
X223170000Y-100870000D02*
X225830000Y-100870000D01*
X223170000Y-98270000D02*
X223170000Y-100870000D01*
X225830000Y-98270000D02*
X225830000Y-100870000D01*
%TO.C,C4*%
X274670000Y-130279000D02*
X274670000Y-130945000D01*
X269330000Y-130279000D02*
X274670000Y-130279000D01*
X269330000Y-133721000D02*
X274670000Y-133721000D01*
X274670000Y-133055000D02*
X274670000Y-133721000D01*
X269330000Y-130279000D02*
X269330000Y-130945000D01*
X269330000Y-133055000D02*
X269330000Y-133721000D01*
%TO.C,J2*%
X251170000Y-202395000D02*
X251170000Y-220235000D01*
X251170000Y-202395000D02*
X253830000Y-202395000D01*
X251170000Y-199795000D02*
X252500000Y-199795000D01*
X253830000Y-202395000D02*
X253830000Y-220235000D01*
X251170000Y-201125000D02*
X251170000Y-199795000D01*
X251170000Y-220235000D02*
X253830000Y-220235000D01*
%TO.C,J5*%
X256125000Y-190330000D02*
X254795000Y-190330000D01*
X275235000Y-190330000D02*
X275235000Y-187670000D01*
X254795000Y-190330000D02*
X254795000Y-189000000D01*
X257395000Y-187670000D02*
X275235000Y-187670000D01*
X257395000Y-190330000D02*
X257395000Y-187670000D01*
X257395000Y-190330000D02*
X275235000Y-190330000D01*
%TO.C,U7*%
X263045000Y-200485000D02*
X263045000Y-251525000D01*
X278455000Y-200545000D02*
X272995000Y-200545000D01*
X280945000Y-200485000D02*
X263045000Y-200485000D01*
X265535000Y-251465000D02*
X278455000Y-251465000D01*
X265535000Y-200545000D02*
X265535000Y-251465000D01*
X270995000Y-200545000D02*
X265535000Y-200545000D01*
X278455000Y-251465000D02*
X278455000Y-200545000D01*
X263045000Y-251525000D02*
X280945000Y-251525000D01*
X280945000Y-251525000D02*
X280945000Y-200485000D01*
X270995000Y-200545000D02*
G75*
G03*
X272995000Y-200545000I1000000J0D01*
G01*
%TO.C,C2*%
X269330000Y-195279000D02*
X274670000Y-195279000D01*
X269330000Y-198055000D02*
X269330000Y-198721000D01*
X274670000Y-195279000D02*
X274670000Y-195945000D01*
X269330000Y-195279000D02*
X269330000Y-195945000D01*
X269330000Y-198721000D02*
X274670000Y-198721000D01*
X274670000Y-198055000D02*
X274670000Y-198721000D01*
%TO.C,J4*%
X159130000Y-81830000D02*
X161730000Y-81830000D01*
X161730000Y-81830000D02*
X161730000Y-79230000D01*
X164330000Y-79230000D02*
X164330000Y-130150000D01*
X159130000Y-79230000D02*
X160460000Y-79230000D01*
X161730000Y-79230000D02*
X164330000Y-79230000D01*
X159130000Y-80560000D02*
X159130000Y-79230000D01*
X159130000Y-130150000D02*
X164330000Y-130150000D01*
X159130000Y-81830000D02*
X159130000Y-130150000D01*
%TO.C,R4*%
X257460000Y-155340000D02*
X257460000Y-155670000D01*
X250920000Y-155670000D02*
X250920000Y-155340000D01*
X257460000Y-153260000D02*
X257460000Y-152930000D01*
X257460000Y-155670000D02*
X250920000Y-155670000D01*
X257460000Y-152930000D02*
X250920000Y-152930000D01*
X250920000Y-152930000D02*
X250920000Y-153260000D01*
%TO.C,J13*%
X144060000Y-151920000D02*
X142160000Y-151920000D01*
X138160000Y-151920000D02*
X129360000Y-151920000D01*
X143210000Y-142520000D02*
X144260000Y-142520000D01*
X144060000Y-142720000D02*
X144060000Y-145320000D01*
X144060000Y-149220000D02*
X144060000Y-151920000D01*
X129360000Y-142720000D02*
X144060000Y-142720000D01*
X144260000Y-143570000D02*
X144260000Y-142520000D01*
X129360000Y-151920000D02*
X129360000Y-142720000D01*
D12*
%TO.C,U3*%
X194407500Y-135150000D02*
X196407500Y-135150000D01*
X197707500Y-136550000D02*
X193107500Y-136550000D01*
D11*
X194177500Y-154110000D02*
X194177500Y-197950000D01*
D12*
X196407500Y-135150000D02*
X197707500Y-136550000D01*
X197707500Y-140150000D02*
X196207500Y-142150000D01*
X194607500Y-147350000D02*
X194607500Y-142150000D01*
D11*
X217277500Y-197950000D02*
X217277500Y-147350000D01*
D12*
X193107500Y-136550000D02*
X194407500Y-135150000D01*
X193107500Y-140150000D02*
X194607500Y-142150000D01*
X193107500Y-140150000D02*
X197707500Y-140150000D01*
X197707500Y-140150000D02*
X197707500Y-136550000D01*
D11*
X194177500Y-197950000D02*
X217277500Y-197950000D01*
X217277500Y-147350000D02*
X194177500Y-147350000D01*
D12*
X194607500Y-142150000D02*
X196207500Y-142150000D01*
D11*
X196457500Y-147350000D02*
X196457500Y-149610000D01*
D12*
X193107500Y-136550000D02*
X193107500Y-140150000D01*
X196207500Y-142150000D02*
X196207500Y-147450000D01*
D11*
X194177500Y-147350000D02*
X194177500Y-149210000D01*
X195807500Y-151660000D02*
G75*
G03*
X195807500Y-151660000I-900000J0D01*
G01*
X197457500Y-151660000D02*
G75*
G03*
X197457500Y-151660000I-2550000J0D01*
G01*
%TO.C,SW1*%
X212750000Y-101250000D02*
X217250000Y-101250000D01*
X218500000Y-98750000D02*
X218500000Y-97250000D01*
X217250000Y-94750000D02*
X212750000Y-94750000D01*
X211500000Y-97250000D02*
X211500000Y-98750000D01*
%TO.C,C1*%
X177330000Y-148279000D02*
X182670000Y-148279000D01*
X177330000Y-151721000D02*
X182670000Y-151721000D01*
X177330000Y-151055000D02*
X177330000Y-151721000D01*
X177330000Y-148279000D02*
X177330000Y-148945000D01*
X182670000Y-148279000D02*
X182670000Y-148945000D01*
X182670000Y-151055000D02*
X182670000Y-151721000D01*
%TO.C,Q1*%
X158590000Y-147813300D02*
X158999000Y-147813300D01*
X159710000Y-155053300D02*
X159710000Y-156383300D01*
X165001000Y-147813300D02*
X165410000Y-147813300D01*
X165410000Y-147813300D02*
X165410000Y-155053300D01*
X164290000Y-155053300D02*
X164290000Y-156383300D01*
X158590000Y-147813300D02*
X158590000Y-155053300D01*
X162000000Y-155053300D02*
X162000000Y-156383300D01*
X158590000Y-155053300D02*
X165410000Y-155053300D01*
%TO.C,J6*%
X248170000Y-105425000D02*
X248170000Y-104095000D01*
X248170000Y-104095000D02*
X249500000Y-104095000D01*
X248170000Y-106695000D02*
X250830000Y-106695000D01*
X248170000Y-106695000D02*
X248170000Y-116915000D01*
X250830000Y-106695000D02*
X250830000Y-116915000D01*
X248170000Y-116915000D02*
X250830000Y-116915000D01*
%TO.C,C3*%
X233330000Y-128805000D02*
X233330000Y-129471000D01*
X233330000Y-126029000D02*
X233330000Y-126695000D01*
X238670000Y-126029000D02*
X238670000Y-126695000D01*
X233330000Y-129471000D02*
X238670000Y-129471000D01*
X238670000Y-128805000D02*
X238670000Y-129471000D01*
X233330000Y-126029000D02*
X238670000Y-126029000D01*
%TO.C,J7*%
X180130000Y-81475000D02*
X180130000Y-129795000D01*
X180130000Y-129795000D02*
X185330000Y-129795000D01*
X180130000Y-81475000D02*
X182730000Y-81475000D01*
X182730000Y-81475000D02*
X182730000Y-78875000D01*
X180130000Y-80205000D02*
X180130000Y-78875000D01*
X182730000Y-78875000D02*
X185330000Y-78875000D01*
X180130000Y-78875000D02*
X181460000Y-78875000D01*
X185330000Y-78875000D02*
X185330000Y-129795000D01*
%TO.C,U6*%
X263045000Y-135560000D02*
X263045000Y-176440000D01*
X265535000Y-135620000D02*
X265535000Y-176380000D01*
X280945000Y-176440000D02*
X280945000Y-135560000D01*
X278455000Y-135620000D02*
X272995000Y-135620000D01*
X263045000Y-176440000D02*
X280945000Y-176440000D01*
X278455000Y-176380000D02*
X278455000Y-135620000D01*
X280945000Y-135560000D02*
X263045000Y-135560000D01*
X270995000Y-135620000D02*
X265535000Y-135620000D01*
X265535000Y-176380000D02*
X278455000Y-176380000D01*
X270995000Y-135620000D02*
G75*
G03*
X272995000Y-135620000I1000000J0D01*
G01*
%TO.C,D1*%
X169290000Y-140545000D02*
X169290000Y-137455000D01*
X163740000Y-138999538D02*
G75*
G03*
X169290000Y-140544830I2990000J-462D01*
G01*
X169290000Y-137455170D02*
G75*
G03*
X163740000Y-139000462I-2560000J-1544830D01*
G01*
X169230000Y-139000000D02*
G75*
G03*
X169230000Y-139000000I-2500000J0D01*
G01*
%TO.C,R3*%
X250920000Y-159470000D02*
X250920000Y-159800000D01*
X257460000Y-159470000D02*
X250920000Y-159470000D01*
X250920000Y-162210000D02*
X250920000Y-161880000D01*
X257460000Y-161880000D02*
X257460000Y-162210000D01*
X257460000Y-162210000D02*
X250920000Y-162210000D01*
X257460000Y-159800000D02*
X257460000Y-159470000D01*
%TO.C,J1*%
X251170000Y-229395000D02*
X251170000Y-247235000D01*
X251170000Y-247235000D02*
X253830000Y-247235000D01*
X251170000Y-228125000D02*
X251170000Y-226795000D01*
X251170000Y-229395000D02*
X253830000Y-229395000D01*
X251170000Y-226795000D02*
X252500000Y-226795000D01*
X253830000Y-229395000D02*
X253830000Y-247235000D01*
%TO.C,U8*%
X242455000Y-251465000D02*
X242455000Y-200545000D01*
X229535000Y-200545000D02*
X229535000Y-251465000D01*
X229535000Y-251465000D02*
X242455000Y-251465000D01*
X244945000Y-200485000D02*
X227045000Y-200485000D01*
X244945000Y-251525000D02*
X244945000Y-200485000D01*
X227045000Y-200485000D02*
X227045000Y-251525000D01*
X242455000Y-200545000D02*
X236995000Y-200545000D01*
X234995000Y-200545000D02*
X229535000Y-200545000D01*
X227045000Y-251525000D02*
X244945000Y-251525000D01*
X234995000Y-200545000D02*
G75*
G03*
X236995000Y-200545000I1000000J0D01*
G01*
%TO.C,R5*%
X250920000Y-168370000D02*
X250920000Y-168040000D01*
X257460000Y-165630000D02*
X250920000Y-165630000D01*
X257460000Y-168370000D02*
X250920000Y-168370000D01*
X257460000Y-165960000D02*
X257460000Y-165630000D01*
X257460000Y-168040000D02*
X257460000Y-168370000D01*
X250920000Y-165630000D02*
X250920000Y-165960000D01*
%TO.C,R1*%
X218270000Y-108370000D02*
X218270000Y-108040000D01*
X211730000Y-105630000D02*
X218270000Y-105630000D01*
X218270000Y-105630000D02*
X218270000Y-105960000D01*
X211730000Y-108370000D02*
X218270000Y-108370000D01*
X211730000Y-105960000D02*
X211730000Y-105630000D01*
X211730000Y-108040000D02*
X211730000Y-108370000D01*
%TO.C,SW2*%
X217250000Y-119750000D02*
X212750000Y-119750000D01*
X218500000Y-123750000D02*
X218500000Y-122250000D01*
X212750000Y-126250000D02*
X217250000Y-126250000D01*
X211500000Y-122250000D02*
X211500000Y-123750000D01*
%TO.C,C11*%
X132330000Y-200279000D02*
X137670000Y-200279000D01*
X132330000Y-203055000D02*
X132330000Y-203721000D01*
X137670000Y-200279000D02*
X137670000Y-200945000D01*
X132330000Y-200279000D02*
X132330000Y-200945000D01*
X137670000Y-203055000D02*
X137670000Y-203721000D01*
X132330000Y-203721000D02*
X137670000Y-203721000D01*
%TD*%
D13*
%TO.C,U9*%
X141000840Y-209499420D03*
X143540840Y-209499420D03*
X146080840Y-209499420D03*
X148620840Y-209499420D03*
X151160840Y-209499420D03*
X153700840Y-209499420D03*
X156240840Y-209499420D03*
X158780840Y-209499420D03*
X161320840Y-209499420D03*
X163860840Y-209499420D03*
X166400840Y-209499420D03*
X168940840Y-209499420D03*
X171480840Y-209499420D03*
X174020840Y-209499420D03*
X176560840Y-209499420D03*
X179100840Y-209499420D03*
%TD*%
M02*
