M48
; DRILL file {KiCad (6.0.7)} date Wed Aug 24 10:03:47 2022
; FORMAT={-:-/ absolute / inch / decimal}
; #@! TF.CreationDate,2022-08-24T10:03:47-05:00
; #@! TF.GenerationSoftware,Kicad,Pcbnew,(6.0.7)
; #@! TF.FileFunction,MixedPlating,1,2
FMAT,2
INCH
; #@! TA.AperFunction,Plated,PTH,ViaDrill
T1C0.0157
; #@! TA.AperFunction,Plated,PTH,ComponentDrill
T2C0.0315
; #@! TA.AperFunction,Plated,PTH,ComponentDrill
T3C0.0354
; #@! TA.AperFunction,Plated,PTH,ComponentDrill
T4C0.0394
; #@! TA.AperFunction,Plated,PTH,ComponentDrill
T5C0.0394
; #@! TA.AperFunction,Plated,PTH,ComponentDrill
T6C0.0433
; #@! TA.AperFunction,Plated,PTH,ComponentDrill
T7C0.1575
%
G90
G05
T1
X6.0497Y-6.2234
X6.9247Y-4.2094
X7.0959Y-6.1485
X7.3383Y-4.8144
X7.4306Y-4.7065
X7.4912Y-4.7069
X7.4999Y-4.6005
X7.5284Y-5.0957
X7.59Y-4.5522
X7.6498Y-4.5479
X7.7599Y-9.0675
X7.8774Y-5.2548
X7.9001Y-5.2106
X7.9095Y-4.2083
X7.9379Y-5.261
X8.0466Y-4.0338
X8.1057Y-4.3472
X8.1733Y-5.2238
X8.1832Y-5.1211
X8.1978Y-5.4715
X8.2331Y-5.2147
X8.2509Y-3.9018
X8.3187Y-5.15
X8.4162Y-3.6626
X8.4315Y-5.2248
X8.4399Y-4.2081
X8.444Y-3.7102
X8.5977Y-6.5677
X8.645Y-5.2071
X8.6736Y-4.9214
X8.6963Y-3.5262
X8.7052Y-4.0052
X8.7116Y-4.9391
X8.7348Y-4.124
X8.7584Y-4.6606
X8.8152Y-4.2946
X8.8226Y-7.0658
X8.9425Y-5.6765
X9.0368Y-8.2074
X9.0678Y-5.0211
X9.1074Y-5.0132
X9.1272Y-8.3734
X9.1486Y-4.9292
X9.1884Y-5.9054
X9.2171Y-4.3977
X9.2286Y-8.448
X9.2389Y-8.5801
X9.2498Y-6.4036
X9.2701Y-6.3266
X9.3223Y-3.9467
X9.3458Y-4.0623
X9.4273Y-7.5199
X9.5408Y-8.2789
X9.5512Y-7.3963
X9.6116Y-7.3355
X9.6745Y-6.2246
X9.7674Y-6.2628
X9.7821Y-6.5015
X9.9766Y-6.4774
X10.0645Y-6.2869
X10.3368Y-5.4187
X10.4429Y-5.2155
X10.6566Y-3.4922
X10.8147Y-5.7094
T2
X5.2165Y-7.9528
X5.2931Y-7.2352
X5.3931Y-7.3352
X5.4134Y-7.9528
X5.4472Y-6.415
X5.4472Y-6.4976
X5.4472Y-6.6
X5.4472Y-6.6827
X5.4931Y-7.2352
X5.5575Y-6.415
X5.5575Y-6.6827
X6.0311Y-5.4724
X6.2354Y-7.2516
X6.2354Y-7.5516
X6.2402Y-6.6929
X6.3311Y-5.4724
X6.437Y-6.6929
X6.8354Y-7.2516
X6.8354Y-7.5516
X6.937Y-6.1171
X6.937Y-6.2171
X6.937Y-6.3171
X6.937Y-6.4171
X6.937Y-6.5171
X6.937Y-6.6171
X6.937Y-6.7171
X6.9882Y-5.9055
X7.185Y-5.9055
X7.237Y-6.1171
X7.237Y-6.2171
X7.237Y-6.3171
X7.237Y-6.4171
X7.237Y-6.5171
X7.237Y-6.6171
X7.237Y-6.7171
X7.9724Y-5.6496
X8.1693Y-5.6496
X8.3146Y-4.2126
X8.3146Y-4.4882
X8.3146Y-5.2756
X8.3661Y-3.5827
X8.563Y-3.5827
X8.6146Y-4.2126
X8.6146Y-4.4882
X8.6146Y-5.2756
X8.9911Y-5.2215
X8.9911Y-5.3215
X8.9911Y-5.4215
X8.9911Y-5.5215
X8.9911Y-5.6215
X8.9911Y-5.7215
X8.9911Y-5.8215
X8.9911Y-5.9215
X8.9911Y-6.0215
X8.9911Y-6.1215
X8.9911Y-6.2215
X8.9911Y-6.3215
X8.9911Y-6.4215
X8.9911Y-6.5215
X8.9911Y-6.6215
X8.9911Y-6.7215
X8.9911Y-6.8215
X8.9911Y-6.9215
X8.9911Y-7.0215
X8.9911Y-7.1215
X8.9911Y-7.9478
X8.9911Y-8.0478
X8.9911Y-8.1478
X8.9911Y-8.2478
X8.9911Y-8.3478
X8.9911Y-8.4478
X8.9911Y-8.5478
X8.9911Y-8.6478
X8.9911Y-8.7478
X8.9911Y-8.8478
X8.9911Y-8.9478
X8.9911Y-9.0478
X8.9911Y-9.1478
X8.9911Y-9.2478
X8.9911Y-9.3478
X8.9911Y-9.4478
X8.9911Y-9.5478
X8.9911Y-9.6478
X8.9911Y-9.7478
X8.9911Y-9.8478
X9.1417Y-3.6132
X9.1417Y-3.7132
X9.1417Y-3.8132
X9.1417Y-3.9132
X9.1417Y-4.0132
X9.1417Y-4.1132
X9.1417Y-4.2132
X9.1417Y-4.3132
X9.1417Y-4.4132
X9.1417Y-4.5132
X9.1417Y-4.6132
X9.1417Y-4.7132
X9.1929Y-3.4154
X9.1929Y-5.0295
X9.1929Y-7.7461
X9.3898Y-3.4154
X9.3898Y-5.0295
X9.3898Y-7.7461
X9.4417Y-3.6132
X9.4417Y-3.7132
X9.4417Y-3.8132
X9.4417Y-3.9132
X9.4417Y-4.0132
X9.4417Y-4.1132
X9.4417Y-4.2132
X9.4417Y-4.3132
X9.4417Y-4.4132
X9.4417Y-4.5132
X9.4417Y-4.6132
X9.4417Y-4.7132
X9.5911Y-5.2215
X9.5911Y-5.3215
X9.5911Y-5.4215
X9.5911Y-5.5215
X9.5911Y-5.6215
X9.5911Y-5.7215
X9.5911Y-5.8215
X9.5911Y-5.9215
X9.5911Y-6.0215
X9.5911Y-6.1215
X9.5911Y-6.2215
X9.5911Y-6.3215
X9.5911Y-6.4215
X9.5911Y-6.5215
X9.5911Y-6.6215
X9.5911Y-6.7215
X9.5911Y-6.8215
X9.5911Y-6.9215
X9.5911Y-7.0215
X9.5911Y-7.1215
X9.5911Y-7.9478
X9.5911Y-8.0478
X9.5911Y-8.1478
X9.5911Y-8.2478
X9.5911Y-8.3478
X9.5911Y-8.4478
X9.5911Y-8.5478
X9.5911Y-8.6478
X9.5911Y-8.7478
X9.5911Y-8.8478
X9.5911Y-8.9478
X9.5911Y-9.0478
X9.5911Y-9.1478
X9.5911Y-9.2478
X9.5911Y-9.3478
X9.5911Y-9.4478
X9.5911Y-9.5478
X9.5911Y-9.6478
X9.5911Y-9.7478
X9.5911Y-9.8478
X9.85Y-5.5512
X9.8575Y-5.7748
X9.8575Y-6.0748
X9.8575Y-6.3323
X9.8575Y-6.5748
X10.15Y-5.5512
X10.1575Y-5.7748
X10.1575Y-6.0748
X10.1575Y-6.3323
X10.1575Y-6.5748
X10.3819Y-3.6033
X10.3819Y-3.7033
X10.3819Y-3.8033
X10.3819Y-3.9033
X10.3819Y-4.0033
X10.3819Y-4.1033
X10.3819Y-4.2033
X10.3819Y-4.3033
X10.3819Y-4.4033
X10.3819Y-4.5033
X10.3819Y-4.6033
X10.3819Y-4.7033
X10.4085Y-5.3917
X10.4085Y-5.4917
X10.4085Y-5.5917
X10.4085Y-5.6917
X10.4085Y-5.7917
X10.4085Y-5.8917
X10.4085Y-5.9917
X10.4085Y-6.0917
X10.4085Y-6.1917
X10.4085Y-6.2917
X10.4085Y-6.3917
X10.4085Y-6.4917
X10.4085Y-6.5917
X10.4085Y-6.6917
X10.4085Y-6.7917
X10.4085Y-6.8917
X10.4085Y-7.9478
X10.4085Y-8.0478
X10.4085Y-8.1478
X10.4085Y-8.2478
X10.4085Y-8.3478
X10.4085Y-8.4478
X10.4085Y-8.5478
X10.4085Y-8.6478
X10.4085Y-8.7478
X10.4085Y-8.8478
X10.4085Y-8.9478
X10.4085Y-9.0478
X10.4085Y-9.1478
X10.4085Y-9.2478
X10.4085Y-9.3478
X10.4085Y-9.4478
X10.4085Y-9.5478
X10.4085Y-9.6478
X10.4085Y-9.7478
X10.4085Y-9.8478
X10.4331Y-3.4055
X10.6102Y-5.1969
X10.6102Y-7.7559
X10.6299Y-3.4055
X10.6819Y-3.6033
X10.6819Y-3.7033
X10.6819Y-3.8033
X10.6819Y-3.9033
X10.6819Y-4.0033
X10.6819Y-4.1033
X10.6819Y-4.2033
X10.6819Y-4.3033
X10.6819Y-4.4033
X10.6819Y-4.5033
X10.6819Y-4.6033
X10.6819Y-4.7033
X10.8071Y-5.1969
X10.8071Y-7.7559
X11.0085Y-5.3917
X11.0085Y-5.4917
X11.0085Y-5.5917
X11.0085Y-5.6917
X11.0085Y-5.7917
X11.0085Y-5.8917
X11.0085Y-5.9917
X11.0085Y-6.0917
X11.0085Y-6.1917
X11.0085Y-6.2917
X11.0085Y-6.3917
X11.0085Y-6.4917
X11.0085Y-6.5917
X11.0085Y-6.6917
X11.0085Y-6.7917
X11.0085Y-6.8917
X11.0085Y-7.9478
X11.0085Y-8.0478
X11.0085Y-8.1478
X11.0085Y-8.2478
X11.0085Y-8.3478
X11.0085Y-8.4478
X11.0085Y-8.5478
X11.0085Y-8.6478
X11.0085Y-8.7478
X11.0085Y-8.8478
X11.0085Y-8.9478
X11.0085Y-9.0478
X11.0085Y-9.1478
X11.0085Y-9.2478
X11.0085Y-9.3478
X11.0085Y-9.4478
X11.0085Y-9.5478
X11.0085Y-9.6478
X11.0085Y-9.7478
X11.0085Y-9.8478
T3
X6.5142Y-5.4724
X6.6142Y-5.4724
T4
X5.4512Y-3.1606
X5.4512Y-3.2606
X5.4512Y-3.3606
X5.4512Y-3.4606
X5.4512Y-3.5606
X5.4512Y-3.6606
X5.4512Y-3.7606
X5.4512Y-3.8606
X5.4512Y-3.9606
X5.4512Y-4.0606
X5.4512Y-4.1606
X5.4512Y-4.2606
X5.4512Y-4.3606
X5.4512Y-4.4606
X5.4512Y-4.5606
X5.4512Y-4.6606
X5.4512Y-4.7606
X5.4512Y-4.8606
X5.4512Y-4.9606
X5.4512Y-5.0606
X5.5512Y-3.1606
X5.5512Y-3.2606
X5.5512Y-3.3606
X5.5512Y-3.4606
X5.5512Y-3.5606
X5.5512Y-3.6606
X5.5512Y-3.7606
X5.5512Y-3.8606
X5.5512Y-3.9606
X5.5512Y-4.0606
X5.5512Y-4.1606
X5.5512Y-4.2606
X5.5512Y-4.3606
X5.5512Y-4.4606
X5.5512Y-4.5606
X5.5512Y-4.6606
X5.5512Y-4.7606
X5.5512Y-4.8606
X5.5512Y-4.9606
X5.5512Y-5.0606
X5.9055Y-5.748
X5.9055Y-5.848
X6.3173Y-3.1717
X6.3173Y-3.2717
X6.3173Y-3.3717
X6.3173Y-3.4717
X6.3173Y-3.5717
X6.3173Y-3.6717
X6.3173Y-3.7717
X6.3173Y-3.8717
X6.3173Y-3.9717
X6.3173Y-4.0717
X6.3173Y-4.1717
X6.3173Y-4.2717
X6.3173Y-4.3717
X6.3173Y-4.4717
X6.3173Y-4.5717
X6.3173Y-4.6717
X6.3173Y-4.7717
X6.3173Y-4.8717
X6.3173Y-4.9717
X6.3173Y-5.0717
X6.4173Y-3.1717
X6.4173Y-3.2717
X6.4173Y-3.3717
X6.4173Y-3.4717
X6.4173Y-3.5717
X6.4173Y-3.6717
X6.4173Y-3.7717
X6.4173Y-3.8717
X6.4173Y-3.9717
X6.4173Y-4.0717
X6.4173Y-4.1717
X6.4173Y-4.2717
X6.4173Y-4.3717
X6.4173Y-4.4717
X6.4173Y-4.5717
X6.4173Y-4.6717
X6.4173Y-4.7717
X6.4173Y-4.8717
X6.4173Y-4.9717
X6.4173Y-5.0717
X7.1441Y-3.1577
X7.1441Y-3.2577
X7.1441Y-3.3577
X7.1441Y-3.4577
X7.1441Y-3.5577
X7.1441Y-3.6577
X7.1441Y-3.7577
X7.1441Y-3.8577
X7.1441Y-3.9577
X7.1441Y-4.0577
X7.1441Y-4.1577
X7.1441Y-4.2577
X7.1441Y-4.3577
X7.1441Y-4.4577
X7.1441Y-4.5577
X7.1441Y-4.6577
X7.1441Y-4.7577
X7.1441Y-4.8577
X7.1441Y-4.9577
X7.1441Y-5.0577
X7.2441Y-3.1577
X7.2441Y-3.2577
X7.2441Y-3.3577
X7.2441Y-3.4577
X7.2441Y-3.5577
X7.2441Y-3.6577
X7.2441Y-3.7577
X7.2441Y-3.8577
X7.2441Y-3.9577
X7.2441Y-4.0577
X7.2441Y-4.1577
X7.2441Y-4.2577
X7.2441Y-4.3577
X7.2441Y-4.4577
X7.2441Y-4.5577
X7.2441Y-4.6577
X7.2441Y-4.7577
X7.2441Y-4.8577
X7.2441Y-4.9577
X7.2441Y-5.0577
X7.7995Y-6.2209
X7.7995Y-6.3209
X7.7995Y-6.4209
X7.7995Y-6.5209
X7.7995Y-6.6209
X7.7995Y-6.7209
X7.7995Y-6.8209
X7.7995Y-6.9209
X7.7995Y-7.0209
X7.7995Y-7.1209
X7.7995Y-7.2209
X7.7995Y-7.3209
X7.7995Y-7.4209
X7.7995Y-7.5209
X7.8528Y-3.1606
X7.8528Y-3.2606
X7.8528Y-3.3606
X7.8528Y-3.4606
X7.8528Y-3.5606
X7.8528Y-3.6606
X7.8528Y-3.7606
X7.8528Y-3.8606
X7.8528Y-3.9606
X7.8528Y-4.0606
X7.8528Y-4.1606
X7.8528Y-4.2606
X7.8528Y-4.3606
X7.8528Y-4.4606
X7.8528Y-4.5606
X7.8528Y-4.6606
X7.8528Y-4.7606
X7.8528Y-4.8606
X7.8528Y-4.9606
X7.8528Y-5.0606
X7.9528Y-3.1606
X7.9528Y-3.2606
X7.9528Y-3.3606
X7.9528Y-3.4606
X7.9528Y-3.5606
X7.9528Y-3.6606
X7.9528Y-3.7606
X7.9528Y-3.8606
X7.9528Y-3.9606
X7.9528Y-4.0606
X7.9528Y-4.1606
X7.9528Y-4.2606
X7.9528Y-4.3606
X7.9528Y-4.4606
X7.9528Y-4.5606
X7.9528Y-4.6606
X7.9528Y-4.7606
X7.9528Y-4.8606
X7.9528Y-4.9606
X7.9528Y-5.0606
X8.3995Y-6.2209
X8.3995Y-6.3209
X8.3995Y-6.4209
X8.3995Y-6.5209
X8.3995Y-6.6209
X8.3995Y-6.7209
X8.3995Y-6.8209
X8.3995Y-6.9209
X8.3995Y-7.0209
X8.3995Y-7.1209
X8.3995Y-7.2209
X8.3995Y-7.3209
X8.3995Y-7.4209
X8.3995Y-7.5209
X8.4252Y-8.8386
X8.4252Y-8.9386
X8.4252Y-9.0386
X8.8386Y-3.8189
X8.8386Y-3.9189
X9.8228Y-3.6329
X9.8228Y-3.7329
X9.8228Y-4.1506
X9.8228Y-4.2506
X9.8228Y-4.3506
X9.8228Y-4.4506
X9.8228Y-4.5506
X9.9409Y-7.9183
X9.9409Y-8.0183
X9.9409Y-8.1183
X9.9409Y-8.2183
X9.9409Y-8.3183
X9.9409Y-8.4183
X9.9409Y-8.5183
X9.9409Y-8.6183
X9.9409Y-8.9813
X9.9409Y-9.0813
X9.9409Y-9.1813
X9.9409Y-9.2813
X9.9409Y-9.3813
X9.9409Y-9.4813
X9.9409Y-9.5813
X9.9409Y-9.6813
X10.0837Y-7.4409
X10.1837Y-7.4409
X10.2837Y-7.4409
X10.3837Y-7.4409
X10.4837Y-7.4409
X10.5837Y-7.4409
X10.6837Y-7.4409
X10.7837Y-7.4409
T5
X5.5512Y-8.248
X5.6512Y-8.248
X5.7512Y-8.248
X5.8512Y-8.248
X5.9512Y-8.248
X6.0512Y-8.248
X6.1512Y-8.248
X6.2512Y-8.248
X6.3512Y-8.248
X6.4512Y-8.248
X6.5512Y-8.248
X6.6512Y-8.248
X6.7512Y-8.248
X6.8512Y-8.248
X6.9512Y-8.248
X7.0512Y-8.248
T6
X6.2878Y-6.1982
X6.378Y-6.1982
X6.4681Y-6.1982
X8.3366Y-3.7697
X8.3366Y-3.9469
X8.3366Y-4.7539
X8.3366Y-4.9311
X8.5925Y-3.7697
X8.5925Y-3.9469
X8.5925Y-4.7539
X8.5925Y-4.9311
T7
X5.2362Y-2.9921
X5.2362Y-10.2953
X11.0236Y-2.9921
X11.0236Y-10.2756
T4
G00X5.3035Y-6.5094
M15
G01X5.3035Y-6.5882
M16
G05
G00X5.3646Y-6.2791
M15
G01X5.3055Y-6.2791
M16
G05
G00X5.3646Y-6.8185
M15
G01X5.3055Y-6.8185
M16
G05
G00X5.4Y-5.7606
M15
G01X5.4Y-5.8394
M16
G05
G00X5.4787Y-5.985
M15
G01X5.5575Y-5.985
M16
G05
G00X5.6362Y-5.7606
M15
G01X5.6362Y-5.8394
M16
G05
T0
M30
