%TF.GenerationSoftware,KiCad,Pcbnew,(6.0.7)*%
%TF.CreationDate,2022-08-22T23:23:10-05:00*%
%TF.ProjectId,6502,36353032-2e6b-4696-9361-645f70636258,rev?*%
%TF.SameCoordinates,Original*%
%TF.FileFunction,Copper,L2,Bot*%
%TF.FilePolarity,Positive*%
%FSLAX46Y46*%
G04 Gerber Fmt 4.6, Leading zero omitted, Abs format (unit mm)*
G04 Created by KiCad (PCBNEW (6.0.7)) date 2022-08-22 23:23:10*
%MOMM*%
%LPD*%
G01*
G04 APERTURE LIST*
G04 Aperture macros list*
%AMRoundRect*
0 Rectangle with rounded corners*
0 $1 Rounding radius*
0 $2 $3 $4 $5 $6 $7 $8 $9 X,Y pos of 4 corners*
0 Add a 4 corners polygon primitive as box body*
4,1,4,$2,$3,$4,$5,$6,$7,$8,$9,$2,$3,0*
0 Add four circle primitives for the rounded corners*
1,1,$1+$1,$2,$3*
1,1,$1+$1,$4,$5*
1,1,$1+$1,$6,$7*
1,1,$1+$1,$8,$9*
0 Add four rect primitives between the rounded corners*
20,1,$1+$1,$2,$3,$4,$5,0*
20,1,$1+$1,$4,$5,$6,$7,0*
20,1,$1+$1,$6,$7,$8,$9,0*
20,1,$1+$1,$8,$9,$2,$3,0*%
G04 Aperture macros list end*
%TA.AperFunction,ComponentPad*%
%ADD10C,6.000000*%
%TD*%
%TA.AperFunction,ComponentPad*%
%ADD11C,1.440000*%
%TD*%
%TA.AperFunction,ComponentPad*%
%ADD12R,1.700000X1.700000*%
%TD*%
%TA.AperFunction,ComponentPad*%
%ADD13O,1.700000X1.700000*%
%TD*%
%TA.AperFunction,ComponentPad*%
%ADD14C,1.600000*%
%TD*%
%TA.AperFunction,ComponentPad*%
%ADD15R,1.600000X1.600000*%
%TD*%
%TA.AperFunction,ComponentPad*%
%ADD16O,1.600000X1.600000*%
%TD*%
%TA.AperFunction,ComponentPad*%
%ADD17O,1.501140X4.000500*%
%TD*%
%TA.AperFunction,ComponentPad*%
%ADD18O,2.000000X4.000000*%
%TD*%
%TA.AperFunction,ComponentPad*%
%ADD19O,3.500000X2.000000*%
%TD*%
%TA.AperFunction,ComponentPad*%
%ADD20R,1.717500X1.800000*%
%TD*%
%TA.AperFunction,ComponentPad*%
%ADD21O,1.717500X1.800000*%
%TD*%
%TA.AperFunction,ComponentPad*%
%ADD22R,3.500000X3.500000*%
%TD*%
%TA.AperFunction,ComponentPad*%
%ADD23RoundRect,0.750000X-0.750000X-1.000000X0.750000X-1.000000X0.750000X1.000000X-0.750000X1.000000X0*%
%TD*%
%TA.AperFunction,ComponentPad*%
%ADD24RoundRect,0.875000X-0.875000X-0.875000X0.875000X-0.875000X0.875000X0.875000X-0.875000X0.875000X0*%
%TD*%
%TA.AperFunction,ComponentPad*%
%ADD25R,2.000000X1.440000*%
%TD*%
%TA.AperFunction,ComponentPad*%
%ADD26O,2.000000X1.440000*%
%TD*%
%TA.AperFunction,ComponentPad*%
%ADD27C,2.000000*%
%TD*%
%TA.AperFunction,ComponentPad*%
%ADD28R,1.800000X1.800000*%
%TD*%
%TA.AperFunction,ComponentPad*%
%ADD29C,1.800000*%
%TD*%
%TA.AperFunction,ViaPad*%
%ADD30C,0.800000*%
%TD*%
%TA.AperFunction,Conductor*%
%ADD31C,0.250000*%
%TD*%
G04 APERTURE END LIST*
D10*
%TO.P,REF\u002A\u002A,1*%
%TO.N,N/C*%
X312000000Y-259000000D03*
%TD*%
%TO.P,REF\u002A\u002A,1*%
%TO.N,N/C*%
X133000000Y-259000000D03*
%TD*%
%TO.P,REF\u002A\u002A,1*%
%TO.N,N/C*%
X312000000Y-77000000D03*
%TD*%
%TO.P,REF\u002A\u002A,1*%
%TO.N,N/C*%
X133000000Y-77000000D03*
%TD*%
D11*
%TO.P,RV1,1,1*%
%TO.N,GND*%
X139525000Y-183775000D03*
%TO.P,RV1,2,2*%
%TO.N,Net-(RV1-Pad2)*%
X136985000Y-186315000D03*
%TO.P,RV1,3,3*%
%TO.N,+5V*%
X134445000Y-183775000D03*
%TD*%
D12*
%TO.P,J3,1,Pin_1*%
%TO.N,1pa6*%
X235000000Y-225475000D03*
D13*
%TO.P,J3,2,Pin_2*%
%TO.N,1pa7*%
X235000000Y-228015000D03*
%TO.P,J3,3,Pin_3*%
%TO.N,1pb7*%
X235000000Y-230555000D03*
%TD*%
D14*
%TO.P,C6,1*%
%TO.N,+5V*%
X158500000Y-170000000D03*
%TO.P,C6,2*%
%TO.N,GND*%
X163500000Y-170000000D03*
%TD*%
D15*
%TO.P,U5,1,~{VP}*%
%TO.N,VP*%
X244375000Y-132625000D03*
D16*
%TO.P,U5,2,RDY*%
%TO.N,RDY*%
X244375000Y-135165000D03*
%TO.P,U5,3,PHI1O*%
%TO.N,PHI1O*%
X244375000Y-137705000D03*
%TO.P,U5,4,~{IRQ}*%
%TO.N,IRQ*%
X244375000Y-140245000D03*
%TO.P,U5,5,~{ML}*%
%TO.N,ML*%
X244375000Y-142785000D03*
%TO.P,U5,6,~{NMI}*%
%TO.N,NMI*%
X244375000Y-145325000D03*
%TO.P,U5,7,SYNC*%
%TO.N,SYNC*%
X244375000Y-147865000D03*
%TO.P,U5,8,VDD*%
%TO.N,+5V*%
X244375000Y-150405000D03*
%TO.P,U5,9,A0*%
%TO.N,a0*%
X244375000Y-152945000D03*
%TO.P,U5,10,A1*%
%TO.N,a1*%
X244375000Y-155485000D03*
%TO.P,U5,11,A2*%
%TO.N,a2*%
X244375000Y-158025000D03*
%TO.P,U5,12,A3*%
%TO.N,a3*%
X244375000Y-160565000D03*
%TO.P,U5,13,A4*%
%TO.N,a4*%
X244375000Y-163105000D03*
%TO.P,U5,14,A5*%
%TO.N,a5*%
X244375000Y-165645000D03*
%TO.P,U5,15,A6*%
%TO.N,a6*%
X244375000Y-168185000D03*
%TO.P,U5,16,A7*%
%TO.N,a7*%
X244375000Y-170725000D03*
%TO.P,U5,17,A8*%
%TO.N,a8*%
X244375000Y-173265000D03*
%TO.P,U5,18,A9*%
%TO.N,a9*%
X244375000Y-175805000D03*
%TO.P,U5,19,A10*%
%TO.N,a10*%
X244375000Y-178345000D03*
%TO.P,U5,20,A11*%
%TO.N,a11*%
X244375000Y-180885000D03*
%TO.P,U5,21,VSS*%
%TO.N,GND*%
X259615000Y-180885000D03*
%TO.P,U5,22,A12*%
%TO.N,a12*%
X259615000Y-178345000D03*
%TO.P,U5,23,A13*%
%TO.N,a13*%
X259615000Y-175805000D03*
%TO.P,U5,24,A14*%
%TO.N,a14*%
X259615000Y-173265000D03*
%TO.P,U5,25,A15*%
%TO.N,a15*%
X259615000Y-170725000D03*
%TO.P,U5,26,D7*%
%TO.N,d7*%
X259615000Y-168185000D03*
%TO.P,U5,27,D6*%
%TO.N,d6*%
X259615000Y-165645000D03*
%TO.P,U5,28,D5*%
%TO.N,d5*%
X259615000Y-163105000D03*
%TO.P,U5,29,D4*%
%TO.N,d4*%
X259615000Y-160565000D03*
%TO.P,U5,30,D3*%
%TO.N,d3*%
X259615000Y-158025000D03*
%TO.P,U5,31,D2*%
%TO.N,d2*%
X259615000Y-155485000D03*
%TO.P,U5,32,D1*%
%TO.N,d1*%
X259615000Y-152945000D03*
%TO.P,U5,33,D0*%
%TO.N,d0*%
X259615000Y-150405000D03*
%TO.P,U5,34,~{RW}*%
%TO.N,RW*%
X259615000Y-147865000D03*
%TO.P,U5,35,NC*%
%TO.N,unconnected-(U5-Pad35)*%
X259615000Y-145325000D03*
%TO.P,U5,36,BE*%
%TO.N,BE*%
X259615000Y-142785000D03*
%TO.P,U5,37,PHI2*%
%TO.N,PHI2*%
X259615000Y-140245000D03*
%TO.P,U5,38,~{SO}*%
%TO.N,+5V*%
X259615000Y-137705000D03*
%TO.P,U5,39,PHI2O*%
%TO.N,unconnected-(U5-Pad39)*%
X259615000Y-135165000D03*
%TO.P,U5,40,~{RES}*%
%TO.N,RESET*%
X259615000Y-132625000D03*
%TD*%
D14*
%TO.P,C5,1*%
%TO.N,GND*%
X249500000Y-86750000D03*
%TO.P,C5,2*%
%TO.N,+5V*%
X254500000Y-86750000D03*
%TD*%
D15*
%TO.P,U2,1,S0*%
%TO.N,VIA1_CS*%
X248200000Y-91775000D03*
D16*
%TO.P,U2,2,S1*%
%TO.N,VIA2_CS*%
X248200000Y-94315000D03*
%TO.P,U2,3,S2*%
%TO.N,dev2*%
X248200000Y-96855000D03*
%TO.P,U2,4,S3*%
%TO.N,dev3*%
X248200000Y-99395000D03*
%TO.P,U2,5,S4*%
%TO.N,dev4*%
X248200000Y-101935000D03*
%TO.P,U2,6,S5*%
%TO.N,dev5*%
X248200000Y-104475000D03*
%TO.P,U2,7,S6*%
%TO.N,dev6*%
X248200000Y-107015000D03*
%TO.P,U2,8,S7*%
%TO.N,dev7*%
X248200000Y-109555000D03*
%TO.P,U2,9,S8*%
%TO.N,dev8*%
X248200000Y-112095000D03*
%TO.P,U2,10,S9*%
%TO.N,dev9*%
X248200000Y-114635000D03*
%TO.P,U2,11,S10*%
%TO.N,dev10*%
X248200000Y-117175000D03*
%TO.P,U2,12,GND*%
%TO.N,GND*%
X248200000Y-119715000D03*
%TO.P,U2,13,S11*%
%TO.N,dev11*%
X255820000Y-119715000D03*
%TO.P,U2,14,S12*%
%TO.N,dev12*%
X255820000Y-117175000D03*
%TO.P,U2,15,S13*%
%TO.N,dev13*%
X255820000Y-114635000D03*
%TO.P,U2,16,S14*%
%TO.N,dev14*%
X255820000Y-112095000D03*
%TO.P,U2,17,S15*%
%TO.N,dev15*%
X255820000Y-109555000D03*
%TO.P,U2,18,E0*%
%TO.N,a15*%
X255820000Y-107015000D03*
%TO.P,U2,19,E1*%
%TO.N,DEVICE_CS*%
X255820000Y-104475000D03*
%TO.P,U2,20,A3*%
%TO.N,a7*%
X255820000Y-101935000D03*
%TO.P,U2,21,A2*%
%TO.N,a6*%
X255820000Y-99395000D03*
%TO.P,U2,22,A1*%
%TO.N,a5*%
X255820000Y-96855000D03*
%TO.P,U2,23,A0*%
%TO.N,a4*%
X255820000Y-94315000D03*
%TO.P,U2,24,VCC*%
%TO.N,+5V*%
X255820000Y-91775000D03*
%TD*%
D17*
%TO.P,U9,1,VSS*%
%TO.N,GND*%
X141000840Y-209499420D03*
%TO.P,U9,2,VDD*%
%TO.N,+5V*%
X143540840Y-209499420D03*
%TO.P,U9,3,VO*%
%TO.N,Net-(RV1-Pad2)*%
X146080840Y-209499420D03*
%TO.P,U9,4,RS*%
%TO.N,1pb4*%
X148620840Y-209499420D03*
%TO.P,U9,5,R/W*%
%TO.N,1pb5*%
X151160840Y-209499420D03*
%TO.P,U9,6,E*%
%TO.N,1pb6*%
X153700840Y-209499420D03*
%TO.P,U9,7,DB0*%
%TO.N,GND*%
X156240840Y-209499420D03*
%TO.P,U9,8,DB1*%
X158780840Y-209499420D03*
%TO.P,U9,9,DB2*%
X161320840Y-209499420D03*
%TO.P,U9,10,DB3*%
X163860840Y-209499420D03*
%TO.P,U9,11,DB4*%
%TO.N,1pb0*%
X166400840Y-209499420D03*
%TO.P,U9,12,DB5*%
%TO.N,1pb1*%
X168940840Y-209499420D03*
%TO.P,U9,13,DB6*%
%TO.N,1pb2*%
X171480840Y-209499420D03*
%TO.P,U9,14,DB7*%
%TO.N,1pb3*%
X174020840Y-209499420D03*
%TO.P,U9,15,A*%
%TO.N,+5V*%
X176560840Y-209499420D03*
%TO.P,U9,16,K*%
%TO.N,GND*%
X179100840Y-209499420D03*
%TD*%
D14*
%TO.P,R7,1*%
%TO.N,1pa3*%
X274000000Y-146680000D03*
D16*
%TO.P,R7,2*%
%TO.N,GND*%
X266380000Y-146680000D03*
%TD*%
D14*
%TO.P,R8,1*%
%TO.N,BE*%
X266190000Y-141000000D03*
D16*
%TO.P,R8,2*%
%TO.N,+5V*%
X273810000Y-141000000D03*
%TD*%
D14*
%TO.P,R2,1*%
%TO.N,+5V*%
X231190000Y-135000000D03*
D16*
%TO.P,R2,2*%
%TO.N,RDY*%
X238810000Y-135000000D03*
%TD*%
D18*
%TO.P,J11,7*%
%TO.N,N/C*%
X134710000Y-166340000D03*
D14*
%TO.P,J11,6*%
%TO.N,unconnected-(J11-Pad6)*%
X141160000Y-162940000D03*
%TO.P,J11,5*%
%TO.N,1pa4*%
X141160000Y-169740000D03*
%TO.P,J11,4*%
%TO.N,+5V*%
X138360000Y-162940000D03*
%TO.P,J11,3*%
%TO.N,GND*%
X138360000Y-169740000D03*
%TO.P,J11,2*%
%TO.N,unconnected-(J11-Pad2)*%
X138360000Y-165040000D03*
D15*
%TO.P,J11,1*%
%TO.N,1pa5*%
X138360000Y-167640000D03*
D19*
%TO.P,J11,7*%
%TO.N,N/C*%
X135510000Y-173190000D03*
X135510000Y-159490000D03*
%TD*%
D14*
%TO.P,C10,1*%
%TO.N,GND*%
X249500000Y-196750000D03*
%TO.P,C10,2*%
%TO.N,+5V*%
X254500000Y-196750000D03*
%TD*%
D20*
%TO.P,U10,1,VI*%
%TO.N,Net-(C12-Pad1)*%
X170710000Y-157433300D03*
D21*
%TO.P,U10,2,GND*%
%TO.N,GND*%
X173000000Y-157433300D03*
%TO.P,U10,3,VO*%
%TO.N,+5V*%
X175290000Y-157433300D03*
%TD*%
D15*
%TO.P,X1,1,NC*%
%TO.N,unconnected-(X1-Pad1)*%
X158380000Y-191810000D03*
D14*
%TO.P,X1,7,GND*%
%TO.N,GND*%
X173620000Y-191810000D03*
%TO.P,X1,8,OUT*%
%TO.N,PHI2*%
X173620000Y-184190000D03*
%TO.P,X1,14,Vcc*%
%TO.N,+5V*%
X158380000Y-184190000D03*
%TD*%
D12*
%TO.P,J12,1,Pin_1*%
%TO.N,a0*%
X138460000Y-80280000D03*
D13*
%TO.P,J12,2,Pin_2*%
%TO.N,d0*%
X141000000Y-80280000D03*
%TO.P,J12,3,Pin_3*%
%TO.N,a1*%
X138460000Y-82820000D03*
%TO.P,J12,4,Pin_4*%
%TO.N,d1*%
X141000000Y-82820000D03*
%TO.P,J12,5,Pin_5*%
%TO.N,a2*%
X138460000Y-85360000D03*
%TO.P,J12,6,Pin_6*%
%TO.N,d2*%
X141000000Y-85360000D03*
%TO.P,J12,7,Pin_7*%
%TO.N,a3*%
X138460000Y-87900000D03*
%TO.P,J12,8,Pin_8*%
%TO.N,d3*%
X141000000Y-87900000D03*
%TO.P,J12,9,Pin_9*%
%TO.N,a4*%
X138460000Y-90440000D03*
%TO.P,J12,10,Pin_10*%
%TO.N,d4*%
X141000000Y-90440000D03*
%TO.P,J12,11,Pin_11*%
%TO.N,a5*%
X138460000Y-92980000D03*
%TO.P,J12,12,Pin_12*%
%TO.N,d5*%
X141000000Y-92980000D03*
%TO.P,J12,13,Pin_13*%
%TO.N,a6*%
X138460000Y-95520000D03*
%TO.P,J12,14,Pin_14*%
%TO.N,d6*%
X141000000Y-95520000D03*
%TO.P,J12,15,Pin_15*%
%TO.N,a7*%
X138460000Y-98060000D03*
%TO.P,J12,16,Pin_16*%
%TO.N,d7*%
X141000000Y-98060000D03*
%TO.P,J12,17,Pin_17*%
%TO.N,a8*%
X138460000Y-100600000D03*
%TO.P,J12,18,Pin_18*%
%TO.N,RW*%
X141000000Y-100600000D03*
%TO.P,J12,19,Pin_19*%
%TO.N,a9*%
X138460000Y-103140000D03*
%TO.P,J12,20,Pin_20*%
%TO.N,PHI2*%
X141000000Y-103140000D03*
%TO.P,J12,21,Pin_21*%
%TO.N,a10*%
X138460000Y-105680000D03*
%TO.P,J12,22,Pin_22*%
%TO.N,RESET*%
X141000000Y-105680000D03*
%TO.P,J12,23,Pin_23*%
%TO.N,a11*%
X138460000Y-108220000D03*
%TO.P,J12,24,Pin_24*%
%TO.N,SYNC*%
X141000000Y-108220000D03*
%TO.P,J12,25,Pin_25*%
%TO.N,a12*%
X138460000Y-110760000D03*
%TO.P,J12,26,Pin_26*%
%TO.N,IRQ*%
X141000000Y-110760000D03*
%TO.P,J12,27,Pin_27*%
%TO.N,a13*%
X138460000Y-113300000D03*
%TO.P,J12,28,Pin_28*%
%TO.N,BE*%
X141000000Y-113300000D03*
%TO.P,J12,29,Pin_29*%
%TO.N,a14*%
X138460000Y-115840000D03*
%TO.P,J12,30,Pin_30*%
%TO.N,RDY*%
X141000000Y-115840000D03*
%TO.P,J12,31,Pin_31*%
%TO.N,a15*%
X138460000Y-118380000D03*
%TO.P,J12,32,Pin_32*%
%TO.N,VP*%
X141000000Y-118380000D03*
%TO.P,J12,33,Pin_33*%
%TO.N,dev13*%
X138460000Y-120920000D03*
%TO.P,J12,34,Pin_34*%
%TO.N,ML*%
X141000000Y-120920000D03*
%TO.P,J12,35,Pin_35*%
%TO.N,dev14*%
X138460000Y-123460000D03*
%TO.P,J12,36,Pin_36*%
%TO.N,NMI*%
X141000000Y-123460000D03*
%TO.P,J12,37,Pin_37*%
%TO.N,dev15*%
X138460000Y-126000000D03*
%TO.P,J12,38,Pin_38*%
%TO.N,PHI1O*%
X141000000Y-126000000D03*
%TO.P,J12,39,Pin_39*%
%TO.N,+5V*%
X138460000Y-128540000D03*
%TO.P,J12,40,Pin_40*%
%TO.N,GND*%
X141000000Y-128540000D03*
%TD*%
D12*
%TO.P,J10,1,Pin_1*%
%TO.N,a0*%
X199460000Y-80280000D03*
D13*
%TO.P,J10,2,Pin_2*%
%TO.N,d0*%
X202000000Y-80280000D03*
%TO.P,J10,3,Pin_3*%
%TO.N,a1*%
X199460000Y-82820000D03*
%TO.P,J10,4,Pin_4*%
%TO.N,d1*%
X202000000Y-82820000D03*
%TO.P,J10,5,Pin_5*%
%TO.N,a2*%
X199460000Y-85360000D03*
%TO.P,J10,6,Pin_6*%
%TO.N,d2*%
X202000000Y-85360000D03*
%TO.P,J10,7,Pin_7*%
%TO.N,a3*%
X199460000Y-87900000D03*
%TO.P,J10,8,Pin_8*%
%TO.N,d3*%
X202000000Y-87900000D03*
%TO.P,J10,9,Pin_9*%
%TO.N,a4*%
X199460000Y-90440000D03*
%TO.P,J10,10,Pin_10*%
%TO.N,d4*%
X202000000Y-90440000D03*
%TO.P,J10,11,Pin_11*%
%TO.N,a5*%
X199460000Y-92980000D03*
%TO.P,J10,12,Pin_12*%
%TO.N,d5*%
X202000000Y-92980000D03*
%TO.P,J10,13,Pin_13*%
%TO.N,a6*%
X199460000Y-95520000D03*
%TO.P,J10,14,Pin_14*%
%TO.N,d6*%
X202000000Y-95520000D03*
%TO.P,J10,15,Pin_15*%
%TO.N,a7*%
X199460000Y-98060000D03*
%TO.P,J10,16,Pin_16*%
%TO.N,d7*%
X202000000Y-98060000D03*
%TO.P,J10,17,Pin_17*%
%TO.N,a8*%
X199460000Y-100600000D03*
%TO.P,J10,18,Pin_18*%
%TO.N,RW*%
X202000000Y-100600000D03*
%TO.P,J10,19,Pin_19*%
%TO.N,a9*%
X199460000Y-103140000D03*
%TO.P,J10,20,Pin_20*%
%TO.N,PHI2*%
X202000000Y-103140000D03*
%TO.P,J10,21,Pin_21*%
%TO.N,a10*%
X199460000Y-105680000D03*
%TO.P,J10,22,Pin_22*%
%TO.N,RESET*%
X202000000Y-105680000D03*
%TO.P,J10,23,Pin_23*%
%TO.N,a11*%
X199460000Y-108220000D03*
%TO.P,J10,24,Pin_24*%
%TO.N,SYNC*%
X202000000Y-108220000D03*
%TO.P,J10,25,Pin_25*%
%TO.N,a12*%
X199460000Y-110760000D03*
%TO.P,J10,26,Pin_26*%
%TO.N,IRQ*%
X202000000Y-110760000D03*
%TO.P,J10,27,Pin_27*%
%TO.N,a13*%
X199460000Y-113300000D03*
%TO.P,J10,28,Pin_28*%
%TO.N,BE*%
X202000000Y-113300000D03*
%TO.P,J10,29,Pin_29*%
%TO.N,a14*%
X199460000Y-115840000D03*
%TO.P,J10,30,Pin_30*%
%TO.N,RDY*%
X202000000Y-115840000D03*
%TO.P,J10,31,Pin_31*%
%TO.N,a15*%
X199460000Y-118380000D03*
%TO.P,J10,32,Pin_32*%
%TO.N,VP*%
X202000000Y-118380000D03*
%TO.P,J10,33,Pin_33*%
%TO.N,dev10*%
X199460000Y-120920000D03*
%TO.P,J10,34,Pin_34*%
%TO.N,ML*%
X202000000Y-120920000D03*
%TO.P,J10,35,Pin_35*%
%TO.N,dev11*%
X199460000Y-123460000D03*
%TO.P,J10,36,Pin_36*%
%TO.N,NMI*%
X202000000Y-123460000D03*
%TO.P,J10,37,Pin_37*%
%TO.N,dev12*%
X199460000Y-126000000D03*
%TO.P,J10,38,Pin_38*%
%TO.N,PHI1O*%
X202000000Y-126000000D03*
%TO.P,J10,39,Pin_39*%
%TO.N,+5V*%
X199460000Y-128540000D03*
%TO.P,J10,40,Pin_40*%
%TO.N,GND*%
X202000000Y-128540000D03*
%TD*%
D14*
%TO.P,C8,1*%
%TO.N,NMI*%
X220500000Y-91000000D03*
%TO.P,C8,2*%
%TO.N,GND*%
X225500000Y-91000000D03*
%TD*%
%TO.P,R6,1*%
%TO.N,+5V*%
X219190000Y-114000000D03*
D16*
%TO.P,R6,2*%
%TO.N,RESET*%
X226810000Y-114000000D03*
%TD*%
D12*
%TO.P,J14,1,Pin_1*%
%TO.N,+5V*%
X150000000Y-146000000D03*
D13*
%TO.P,J14,2,Pin_2*%
%TO.N,GND*%
X150000000Y-148540000D03*
%TD*%
D15*
%TO.P,U4,1,OD/CLK*%
%TO.N,PHI2*%
X295200000Y-91025000D03*
D16*
%TO.P,U4,2,I0*%
%TO.N,RW*%
X295200000Y-93565000D03*
%TO.P,U4,3,I1*%
%TO.N,a15*%
X295200000Y-96105000D03*
%TO.P,U4,4,I2*%
%TO.N,EXT_IN2*%
X295200000Y-98645000D03*
%TO.P,U4,5,I3*%
%TO.N,a14*%
X295200000Y-101185000D03*
%TO.P,U4,6,I4*%
%TO.N,a13*%
X295200000Y-103725000D03*
%TO.P,U4,7,I5*%
%TO.N,a12*%
X295200000Y-106265000D03*
%TO.P,U4,8,I6*%
%TO.N,a11*%
X295200000Y-108805000D03*
%TO.P,U4,9,I7*%
%TO.N,a10*%
X295200000Y-111345000D03*
%TO.P,U4,10,I8*%
%TO.N,a9*%
X295200000Y-113885000D03*
%TO.P,U4,11,I9*%
%TO.N,a8*%
X295200000Y-116425000D03*
%TO.P,U4,12,GND*%
%TO.N,GND*%
X295200000Y-118965000D03*
%TO.P,U4,13,CLK/OD*%
%TO.N,EXT_IN1*%
X302820000Y-118965000D03*
%TO.P,U4,14,LR/O4*%
%TO.N,decode4*%
X302820000Y-116425000D03*
%TO.P,U4,15,A0/O3*%
%TO.N,OE*%
X302820000Y-113885000D03*
%TO.P,U4,16,A1/O2*%
%TO.N,WE*%
X302820000Y-111345000D03*
%TO.P,U4,17,A2/O1*%
%TO.N,ROM_CS*%
X302820000Y-108805000D03*
%TO.P,U4,18,NC/O0*%
%TO.N,RAM_CS*%
X302820000Y-106265000D03*
%TO.P,U4,19,O4/NC*%
%TO.N,decode3*%
X302820000Y-103725000D03*
%TO.P,U4,20,O3/A2*%
%TO.N,decode2*%
X302820000Y-101185000D03*
%TO.P,U4,21,O2/A1*%
%TO.N,DEVICE_CS*%
X302820000Y-98645000D03*
%TO.P,U4,22,O1/A0*%
%TO.N,decode1*%
X302820000Y-96105000D03*
%TO.P,U4,23,O0/LR*%
%TO.N,decode0*%
X302820000Y-93565000D03*
%TO.P,U4,24,VCC*%
%TO.N,+5V*%
X302820000Y-91025000D03*
%TD*%
D14*
%TO.P,C9,1*%
%TO.N,GND*%
X296500000Y-86000000D03*
%TO.P,C9,2*%
%TO.N,+5V*%
X301500000Y-86000000D03*
%TD*%
D12*
%TO.P,J8,1,Pin_1*%
%TO.N,EXT_IN1*%
X281000000Y-91775000D03*
D13*
%TO.P,J8,2,Pin_2*%
%TO.N,EXT_IN2*%
X281000000Y-94315000D03*
%TD*%
D15*
%TO.P,U1,1*%
%TO.N,1VIA_IRQ*%
X217200000Y-223375000D03*
D16*
%TO.P,U1,2*%
%TO.N,2VIA_IRQ*%
X217200000Y-225915000D03*
%TO.P,U1,3*%
%TO.N,IRQ*%
X217200000Y-228455000D03*
%TO.P,U1,4*%
%TO.N,N/C*%
X217200000Y-230995000D03*
%TO.P,U1,5*%
X217200000Y-233535000D03*
%TO.P,U1,6*%
X217200000Y-236075000D03*
%TO.P,U1,7,GND*%
%TO.N,GND*%
X217200000Y-238615000D03*
%TO.P,U1,8*%
%TO.N,N/C*%
X224820000Y-238615000D03*
%TO.P,U1,9*%
X224820000Y-236075000D03*
%TO.P,U1,10*%
X224820000Y-233535000D03*
%TO.P,U1,11*%
X224820000Y-230995000D03*
%TO.P,U1,12*%
X224820000Y-228455000D03*
%TO.P,U1,13*%
X224820000Y-225915000D03*
%TO.P,U1,14,VCC*%
%TO.N,+5V*%
X224820000Y-223375000D03*
%TD*%
D14*
%TO.P,C7,1*%
%TO.N,GND*%
X211500000Y-145000000D03*
%TO.P,C7,2*%
%TO.N,+5V*%
X216500000Y-145000000D03*
%TD*%
%TO.P,C13,1*%
%TO.N,+5V*%
X186000000Y-170000000D03*
%TO.P,C13,2*%
%TO.N,GND*%
X188000000Y-170000000D03*
%TD*%
%TO.P,R9,1*%
%TO.N,Net-(D1-Pad2)*%
X160810000Y-139000000D03*
D16*
%TO.P,R9,2*%
%TO.N,+5V*%
X153190000Y-139000000D03*
%TD*%
D12*
%TO.P,J9,1,Pin_1*%
%TO.N,dev2*%
X239000000Y-97000000D03*
D13*
%TO.P,J9,2,Pin_2*%
%TO.N,dev3*%
X239000000Y-99540000D03*
%TD*%
D14*
%TO.P,C4,1*%
%TO.N,GND*%
X297500000Y-132000000D03*
%TO.P,C4,2*%
%TO.N,+5V*%
X302500000Y-132000000D03*
%TD*%
D12*
%TO.P,J2,1,Pin_1*%
%TO.N,2pa0*%
X280000000Y-201125000D03*
D13*
%TO.P,J2,2,Pin_2*%
%TO.N,2pa1*%
X280000000Y-203665000D03*
%TO.P,J2,3,Pin_3*%
%TO.N,2pa2*%
X280000000Y-206205000D03*
%TO.P,J2,4,Pin_4*%
%TO.N,2pa3*%
X280000000Y-208745000D03*
%TO.P,J2,5,Pin_5*%
%TO.N,2pa4*%
X280000000Y-211285000D03*
%TO.P,J2,6,Pin_6*%
%TO.N,2pa5*%
X280000000Y-213825000D03*
%TO.P,J2,7,Pin_7*%
%TO.N,2pa6*%
X280000000Y-216365000D03*
%TO.P,J2,8,Pin_8*%
%TO.N,2pa7*%
X280000000Y-218905000D03*
%TD*%
D12*
%TO.P,J5,1,Pin_1*%
%TO.N,1CB2*%
X272125000Y-189000000D03*
D13*
%TO.P,J5,2,Pin_2*%
%TO.N,1CB1*%
X274665000Y-189000000D03*
%TO.P,J5,3,Pin_3*%
%TO.N,1CA1*%
X277205000Y-189000000D03*
%TO.P,J5,4,Pin_4*%
%TO.N,1CA2*%
X279745000Y-189000000D03*
%TO.P,J5,5,Pin_5*%
%TO.N,2CB1*%
X282285000Y-189000000D03*
%TO.P,J5,6,Pin_6*%
%TO.N,2CB2*%
X284825000Y-189000000D03*
%TO.P,J5,7,Pin_7*%
%TO.N,2CA1*%
X287365000Y-189000000D03*
%TO.P,J5,8,Pin_8*%
%TO.N,2CA2*%
X289905000Y-189000000D03*
%TD*%
D14*
%TO.P,C12,1*%
%TO.N,Net-(C12-Pad1)*%
X175000000Y-170000000D03*
%TO.P,C12,2*%
%TO.N,GND*%
X177000000Y-170000000D03*
%TD*%
D15*
%TO.P,U7,1,VSS*%
%TO.N,GND*%
X292375000Y-201875000D03*
D16*
%TO.P,U7,2,PA0*%
%TO.N,2pa0*%
X292375000Y-204415000D03*
%TO.P,U7,3,PA1*%
%TO.N,2pa1*%
X292375000Y-206955000D03*
%TO.P,U7,4,PA2*%
%TO.N,2pa2*%
X292375000Y-209495000D03*
%TO.P,U7,5,PA3*%
%TO.N,2pa3*%
X292375000Y-212035000D03*
%TO.P,U7,6,PA4*%
%TO.N,2pa4*%
X292375000Y-214575000D03*
%TO.P,U7,7,PA5*%
%TO.N,2pa5*%
X292375000Y-217115000D03*
%TO.P,U7,8,PA6*%
%TO.N,2pa6*%
X292375000Y-219655000D03*
%TO.P,U7,9,PA7*%
%TO.N,2pa7*%
X292375000Y-222195000D03*
%TO.P,U7,10,PB0*%
%TO.N,2pb0*%
X292375000Y-224735000D03*
%TO.P,U7,11,PB1*%
%TO.N,2pb1*%
X292375000Y-227275000D03*
%TO.P,U7,12,PB2*%
%TO.N,2pb2*%
X292375000Y-229815000D03*
%TO.P,U7,13,PB3*%
%TO.N,2pb3*%
X292375000Y-232355000D03*
%TO.P,U7,14,PB4*%
%TO.N,2pb4*%
X292375000Y-234895000D03*
%TO.P,U7,15,PB5*%
%TO.N,2pb5*%
X292375000Y-237435000D03*
%TO.P,U7,16,PB6*%
%TO.N,2pb6*%
X292375000Y-239975000D03*
%TO.P,U7,17,PB7*%
%TO.N,2pb7*%
X292375000Y-242515000D03*
%TO.P,U7,18,CB1*%
%TO.N,2CB1*%
X292375000Y-245055000D03*
%TO.P,U7,19,CB2*%
%TO.N,2CB2*%
X292375000Y-247595000D03*
%TO.P,U7,20,VDD*%
%TO.N,+5V*%
X292375000Y-250135000D03*
%TO.P,U7,21,~{IRQ}*%
%TO.N,2VIA_IRQ*%
X307615000Y-250135000D03*
%TO.P,U7,22,R~{W}*%
%TO.N,RW*%
X307615000Y-247595000D03*
%TO.P,U7,23,~{CS2}*%
%TO.N,VIA2_CS*%
X307615000Y-245055000D03*
%TO.P,U7,24,CS1*%
%TO.N,+5V*%
X307615000Y-242515000D03*
%TO.P,U7,25,PHI2*%
%TO.N,PHI2*%
X307615000Y-239975000D03*
%TO.P,U7,26,D7*%
%TO.N,d7*%
X307615000Y-237435000D03*
%TO.P,U7,27,D6*%
%TO.N,d6*%
X307615000Y-234895000D03*
%TO.P,U7,28,D5*%
%TO.N,d5*%
X307615000Y-232355000D03*
%TO.P,U7,29,D4*%
%TO.N,d4*%
X307615000Y-229815000D03*
%TO.P,U7,30,D3*%
%TO.N,d3*%
X307615000Y-227275000D03*
%TO.P,U7,31,D2*%
%TO.N,d2*%
X307615000Y-224735000D03*
%TO.P,U7,32,D1*%
%TO.N,d1*%
X307615000Y-222195000D03*
%TO.P,U7,33,D0*%
%TO.N,d0*%
X307615000Y-219655000D03*
%TO.P,U7,34,~{RES}*%
%TO.N,RESET*%
X307615000Y-217115000D03*
%TO.P,U7,35,RS3*%
%TO.N,a3*%
X307615000Y-214575000D03*
%TO.P,U7,36,RS2*%
%TO.N,a2*%
X307615000Y-212035000D03*
%TO.P,U7,37,RS1*%
%TO.N,a1*%
X307615000Y-209495000D03*
%TO.P,U7,38,RS0*%
%TO.N,a0*%
X307615000Y-206955000D03*
%TO.P,U7,39,CA2*%
%TO.N,2CA2*%
X307615000Y-204415000D03*
%TO.P,U7,40,CA1*%
%TO.N,2CA1*%
X307615000Y-201875000D03*
%TD*%
D14*
%TO.P,C2,1*%
%TO.N,GND*%
X297500000Y-197000000D03*
%TO.P,C2,2*%
%TO.N,+5V*%
X302500000Y-197000000D03*
%TD*%
D12*
%TO.P,J4,1,Pin_1*%
%TO.N,a0*%
X160460000Y-80560000D03*
D13*
%TO.P,J4,2,Pin_2*%
%TO.N,d0*%
X163000000Y-80560000D03*
%TO.P,J4,3,Pin_3*%
%TO.N,a1*%
X160460000Y-83100000D03*
%TO.P,J4,4,Pin_4*%
%TO.N,d1*%
X163000000Y-83100000D03*
%TO.P,J4,5,Pin_5*%
%TO.N,a2*%
X160460000Y-85640000D03*
%TO.P,J4,6,Pin_6*%
%TO.N,d2*%
X163000000Y-85640000D03*
%TO.P,J4,7,Pin_7*%
%TO.N,a3*%
X160460000Y-88180000D03*
%TO.P,J4,8,Pin_8*%
%TO.N,d3*%
X163000000Y-88180000D03*
%TO.P,J4,9,Pin_9*%
%TO.N,a4*%
X160460000Y-90720000D03*
%TO.P,J4,10,Pin_10*%
%TO.N,d4*%
X163000000Y-90720000D03*
%TO.P,J4,11,Pin_11*%
%TO.N,a5*%
X160460000Y-93260000D03*
%TO.P,J4,12,Pin_12*%
%TO.N,d5*%
X163000000Y-93260000D03*
%TO.P,J4,13,Pin_13*%
%TO.N,a6*%
X160460000Y-95800000D03*
%TO.P,J4,14,Pin_14*%
%TO.N,d6*%
X163000000Y-95800000D03*
%TO.P,J4,15,Pin_15*%
%TO.N,a7*%
X160460000Y-98340000D03*
%TO.P,J4,16,Pin_16*%
%TO.N,d7*%
X163000000Y-98340000D03*
%TO.P,J4,17,Pin_17*%
%TO.N,a8*%
X160460000Y-100880000D03*
%TO.P,J4,18,Pin_18*%
%TO.N,RW*%
X163000000Y-100880000D03*
%TO.P,J4,19,Pin_19*%
%TO.N,a9*%
X160460000Y-103420000D03*
%TO.P,J4,20,Pin_20*%
%TO.N,PHI2*%
X163000000Y-103420000D03*
%TO.P,J4,21,Pin_21*%
%TO.N,a10*%
X160460000Y-105960000D03*
%TO.P,J4,22,Pin_22*%
%TO.N,RESET*%
X163000000Y-105960000D03*
%TO.P,J4,23,Pin_23*%
%TO.N,a11*%
X160460000Y-108500000D03*
%TO.P,J4,24,Pin_24*%
%TO.N,SYNC*%
X163000000Y-108500000D03*
%TO.P,J4,25,Pin_25*%
%TO.N,a12*%
X160460000Y-111040000D03*
%TO.P,J4,26,Pin_26*%
%TO.N,IRQ*%
X163000000Y-111040000D03*
%TO.P,J4,27,Pin_27*%
%TO.N,a13*%
X160460000Y-113580000D03*
%TO.P,J4,28,Pin_28*%
%TO.N,BE*%
X163000000Y-113580000D03*
%TO.P,J4,29,Pin_29*%
%TO.N,a14*%
X160460000Y-116120000D03*
%TO.P,J4,30,Pin_30*%
%TO.N,RDY*%
X163000000Y-116120000D03*
%TO.P,J4,31,Pin_31*%
%TO.N,a15*%
X160460000Y-118660000D03*
%TO.P,J4,32,Pin_32*%
%TO.N,VP*%
X163000000Y-118660000D03*
%TO.P,J4,33,Pin_33*%
%TO.N,dev4*%
X160460000Y-121200000D03*
%TO.P,J4,34,Pin_34*%
%TO.N,ML*%
X163000000Y-121200000D03*
%TO.P,J4,35,Pin_35*%
%TO.N,dev5*%
X160460000Y-123740000D03*
%TO.P,J4,36,Pin_36*%
%TO.N,NMI*%
X163000000Y-123740000D03*
%TO.P,J4,37,Pin_37*%
%TO.N,dev6*%
X160460000Y-126280000D03*
%TO.P,J4,38,Pin_38*%
%TO.N,PHI1O*%
X163000000Y-126280000D03*
%TO.P,J4,39,Pin_39*%
%TO.N,+5V*%
X160460000Y-128820000D03*
%TO.P,J4,40,Pin_40*%
%TO.N,GND*%
X163000000Y-128820000D03*
%TD*%
D14*
%TO.P,R4,1*%
%TO.N,1pa1*%
X274000000Y-154300000D03*
D16*
%TO.P,R4,2*%
%TO.N,GND*%
X266380000Y-154300000D03*
%TD*%
D22*
%TO.P,J13,1*%
%TO.N,Net-(J13-Pad1)*%
X143160000Y-147320000D03*
D23*
%TO.P,J13,2*%
%TO.N,GND*%
X137160000Y-147320000D03*
D24*
%TO.P,J13,3*%
%TO.N,N/C*%
X140160000Y-152020000D03*
%TD*%
D25*
%TO.P,U3,1,A14*%
%TO.N,a14*%
X207107500Y-159510000D03*
D26*
%TO.P,U3,2,A12*%
%TO.N,a12*%
X207107500Y-162050000D03*
%TO.P,U3,3,A7*%
%TO.N,a7*%
X207107500Y-164590000D03*
%TO.P,U3,4,A6*%
%TO.N,a6*%
X207107500Y-167130000D03*
%TO.P,U3,5,A5*%
%TO.N,a5*%
X207107500Y-169670000D03*
%TO.P,U3,6,A4*%
%TO.N,a4*%
X207107500Y-172210000D03*
%TO.P,U3,7,A3*%
%TO.N,a3*%
X207107500Y-174750000D03*
%TO.P,U3,8,A2*%
%TO.N,a2*%
X207107500Y-177290000D03*
%TO.P,U3,9,A1*%
%TO.N,a1*%
X207107500Y-179830000D03*
%TO.P,U3,10,A0*%
%TO.N,a0*%
X207107500Y-182370000D03*
%TO.P,U3,11,D0*%
%TO.N,d0*%
X207107500Y-184910000D03*
%TO.P,U3,12,D1*%
%TO.N,d1*%
X207107500Y-187450000D03*
%TO.P,U3,13,D2*%
%TO.N,d2*%
X207107500Y-189990000D03*
%TO.P,U3,14,GND*%
%TO.N,GND*%
X207107500Y-192530000D03*
%TO.P,U3,15,D3*%
%TO.N,d3*%
X222347500Y-192530000D03*
%TO.P,U3,16,D4*%
%TO.N,d4*%
X222347500Y-189990000D03*
%TO.P,U3,17,D5*%
%TO.N,d5*%
X222347500Y-187450000D03*
%TO.P,U3,18,D6*%
%TO.N,d6*%
X222347500Y-184910000D03*
%TO.P,U3,19,D7*%
%TO.N,d7*%
X222347500Y-182370000D03*
%TO.P,U3,20,~{CS}*%
%TO.N,ROM_CS*%
X222347500Y-179830000D03*
%TO.P,U3,21,A10*%
%TO.N,a10*%
X222347500Y-177290000D03*
%TO.P,U3,22,~{OE}*%
%TO.N,OE*%
X222347500Y-174750000D03*
%TO.P,U3,23,A11*%
%TO.N,a11*%
X222347500Y-172210000D03*
%TO.P,U3,24,A9*%
%TO.N,a9*%
X222347500Y-169670000D03*
%TO.P,U3,25,A8*%
%TO.N,a8*%
X222347500Y-167130000D03*
%TO.P,U3,26,A13*%
%TO.N,a13*%
X222347500Y-164590000D03*
%TO.P,U3,27,~{WE}*%
%TO.N,WE*%
X222347500Y-162050000D03*
%TO.P,U3,28,VCC*%
%TO.N,+5V*%
X222347500Y-159510000D03*
%TD*%
D27*
%TO.P,SW1,1,1*%
%TO.N,GND*%
X226250000Y-95750000D03*
X219750000Y-95750000D03*
%TO.P,SW1,2,2*%
%TO.N,NMI*%
X219750000Y-100250000D03*
X226250000Y-100250000D03*
%TD*%
D14*
%TO.P,C1,1*%
%TO.N,GND*%
X218500000Y-218000000D03*
%TO.P,C1,2*%
%TO.N,+5V*%
X223500000Y-218000000D03*
%TD*%
D20*
%TO.P,Q1,1,G*%
%TO.N,GND*%
X159710000Y-157433300D03*
D21*
%TO.P,Q1,2,D*%
%TO.N,Net-(J13-Pad1)*%
X162000000Y-157433300D03*
%TO.P,Q1,3,S*%
%TO.N,Net-(C12-Pad1)*%
X164290000Y-157433300D03*
%TD*%
D12*
%TO.P,J6,1,Pin_1*%
%TO.N,decode0*%
X281000000Y-104925000D03*
D13*
%TO.P,J6,2,Pin_2*%
%TO.N,decode1*%
X281000000Y-107465000D03*
%TO.P,J6,3,Pin_3*%
%TO.N,decode2*%
X281000000Y-110005000D03*
%TO.P,J6,4,Pin_4*%
%TO.N,decode3*%
X281000000Y-112545000D03*
%TO.P,J6,5,Pin_5*%
%TO.N,decode4*%
X281000000Y-115085000D03*
%TD*%
D14*
%TO.P,C3,1*%
%TO.N,GND*%
X249500000Y-127750000D03*
%TO.P,C3,2*%
%TO.N,+5V*%
X254500000Y-127750000D03*
%TD*%
D12*
%TO.P,J7,1,Pin_1*%
%TO.N,a0*%
X181460000Y-80205000D03*
D13*
%TO.P,J7,2,Pin_2*%
%TO.N,d0*%
X184000000Y-80205000D03*
%TO.P,J7,3,Pin_3*%
%TO.N,a1*%
X181460000Y-82745000D03*
%TO.P,J7,4,Pin_4*%
%TO.N,d1*%
X184000000Y-82745000D03*
%TO.P,J7,5,Pin_5*%
%TO.N,a2*%
X181460000Y-85285000D03*
%TO.P,J7,6,Pin_6*%
%TO.N,d2*%
X184000000Y-85285000D03*
%TO.P,J7,7,Pin_7*%
%TO.N,a3*%
X181460000Y-87825000D03*
%TO.P,J7,8,Pin_8*%
%TO.N,d3*%
X184000000Y-87825000D03*
%TO.P,J7,9,Pin_9*%
%TO.N,a4*%
X181460000Y-90365000D03*
%TO.P,J7,10,Pin_10*%
%TO.N,d4*%
X184000000Y-90365000D03*
%TO.P,J7,11,Pin_11*%
%TO.N,a5*%
X181460000Y-92905000D03*
%TO.P,J7,12,Pin_12*%
%TO.N,d5*%
X184000000Y-92905000D03*
%TO.P,J7,13,Pin_13*%
%TO.N,a6*%
X181460000Y-95445000D03*
%TO.P,J7,14,Pin_14*%
%TO.N,d6*%
X184000000Y-95445000D03*
%TO.P,J7,15,Pin_15*%
%TO.N,a7*%
X181460000Y-97985000D03*
%TO.P,J7,16,Pin_16*%
%TO.N,d7*%
X184000000Y-97985000D03*
%TO.P,J7,17,Pin_17*%
%TO.N,a8*%
X181460000Y-100525000D03*
%TO.P,J7,18,Pin_18*%
%TO.N,RW*%
X184000000Y-100525000D03*
%TO.P,J7,19,Pin_19*%
%TO.N,a9*%
X181460000Y-103065000D03*
%TO.P,J7,20,Pin_20*%
%TO.N,PHI2*%
X184000000Y-103065000D03*
%TO.P,J7,21,Pin_21*%
%TO.N,a10*%
X181460000Y-105605000D03*
%TO.P,J7,22,Pin_22*%
%TO.N,RESET*%
X184000000Y-105605000D03*
%TO.P,J7,23,Pin_23*%
%TO.N,a11*%
X181460000Y-108145000D03*
%TO.P,J7,24,Pin_24*%
%TO.N,SYNC*%
X184000000Y-108145000D03*
%TO.P,J7,25,Pin_25*%
%TO.N,a12*%
X181460000Y-110685000D03*
%TO.P,J7,26,Pin_26*%
%TO.N,IRQ*%
X184000000Y-110685000D03*
%TO.P,J7,27,Pin_27*%
%TO.N,a13*%
X181460000Y-113225000D03*
%TO.P,J7,28,Pin_28*%
%TO.N,BE*%
X184000000Y-113225000D03*
%TO.P,J7,29,Pin_29*%
%TO.N,a14*%
X181460000Y-115765000D03*
%TO.P,J7,30,Pin_30*%
%TO.N,RDY*%
X184000000Y-115765000D03*
%TO.P,J7,31,Pin_31*%
%TO.N,a15*%
X181460000Y-118305000D03*
%TO.P,J7,32,Pin_32*%
%TO.N,VP*%
X184000000Y-118305000D03*
%TO.P,J7,33,Pin_33*%
%TO.N,dev7*%
X181460000Y-120845000D03*
%TO.P,J7,34,Pin_34*%
%TO.N,ML*%
X184000000Y-120845000D03*
%TO.P,J7,35,Pin_35*%
%TO.N,dev8*%
X181460000Y-123385000D03*
%TO.P,J7,36,Pin_36*%
%TO.N,NMI*%
X184000000Y-123385000D03*
%TO.P,J7,37,Pin_37*%
%TO.N,dev9*%
X181460000Y-125925000D03*
%TO.P,J7,38,Pin_38*%
%TO.N,PHI1O*%
X184000000Y-125925000D03*
%TO.P,J7,39,Pin_39*%
%TO.N,+5V*%
X181460000Y-128465000D03*
%TO.P,J7,40,Pin_40*%
%TO.N,GND*%
X184000000Y-128465000D03*
%TD*%
D15*
%TO.P,U6,1,A18*%
%TO.N,1pa3*%
X292375000Y-136950000D03*
D16*
%TO.P,U6,2,A16*%
%TO.N,1pa1*%
X292375000Y-139490000D03*
%TO.P,U6,3,A14*%
%TO.N,a14*%
X292375000Y-142030000D03*
%TO.P,U6,4,A12*%
%TO.N,a12*%
X292375000Y-144570000D03*
%TO.P,U6,5,A7*%
%TO.N,a7*%
X292375000Y-147110000D03*
%TO.P,U6,6,A6*%
%TO.N,a6*%
X292375000Y-149650000D03*
%TO.P,U6,7,A5*%
%TO.N,a5*%
X292375000Y-152190000D03*
%TO.P,U6,8,A4*%
%TO.N,a4*%
X292375000Y-154730000D03*
%TO.P,U6,9,A3*%
%TO.N,a3*%
X292375000Y-157270000D03*
%TO.P,U6,10,A2*%
%TO.N,a2*%
X292375000Y-159810000D03*
%TO.P,U6,11,A1*%
%TO.N,a1*%
X292375000Y-162350000D03*
%TO.P,U6,12,A0*%
%TO.N,a0*%
X292375000Y-164890000D03*
%TO.P,U6,13,DQ0*%
%TO.N,d0*%
X292375000Y-167430000D03*
%TO.P,U6,14,DQ1*%
%TO.N,d1*%
X292375000Y-169970000D03*
%TO.P,U6,15,DQ2*%
%TO.N,d2*%
X292375000Y-172510000D03*
%TO.P,U6,16,VSS*%
%TO.N,GND*%
X292375000Y-175050000D03*
%TO.P,U6,17,DQ3*%
%TO.N,d3*%
X307615000Y-175050000D03*
%TO.P,U6,18,DQ4*%
%TO.N,d4*%
X307615000Y-172510000D03*
%TO.P,U6,19,DQ5*%
%TO.N,d5*%
X307615000Y-169970000D03*
%TO.P,U6,20,DQ6*%
%TO.N,d6*%
X307615000Y-167430000D03*
%TO.P,U6,21,DQ7*%
%TO.N,d7*%
X307615000Y-164890000D03*
%TO.P,U6,22,CE#*%
%TO.N,RAM_CS*%
X307615000Y-162350000D03*
%TO.P,U6,23,A10*%
%TO.N,a10*%
X307615000Y-159810000D03*
%TO.P,U6,24,OE#*%
%TO.N,OE*%
X307615000Y-157270000D03*
%TO.P,U6,25,A11*%
%TO.N,a11*%
X307615000Y-154730000D03*
%TO.P,U6,26,A9*%
%TO.N,a9*%
X307615000Y-152190000D03*
%TO.P,U6,27,A8*%
%TO.N,a8*%
X307615000Y-149650000D03*
%TO.P,U6,28,A13*%
%TO.N,a13*%
X307615000Y-147110000D03*
%TO.P,U6,29,WE#*%
%TO.N,WE*%
X307615000Y-144570000D03*
%TO.P,U6,30,A17*%
%TO.N,1pa2*%
X307615000Y-142030000D03*
%TO.P,U6,31,A15*%
%TO.N,1pa0*%
X307615000Y-139490000D03*
%TO.P,U6,32,VCC*%
%TO.N,+5V*%
X307615000Y-136950000D03*
%TD*%
D28*
%TO.P,D1,1,K*%
%TO.N,GND*%
X168000000Y-139000000D03*
D29*
%TO.P,D1,2,A*%
%TO.N,Net-(D1-Pad2)*%
X165460000Y-139000000D03*
%TD*%
D14*
%TO.P,R3,1*%
%TO.N,1pa0*%
X274000000Y-160840000D03*
D16*
%TO.P,R3,2*%
%TO.N,GND*%
X266380000Y-160840000D03*
%TD*%
D12*
%TO.P,J1,1,Pin_1*%
%TO.N,2pb0*%
X280000000Y-228125000D03*
D13*
%TO.P,J1,2,Pin_2*%
%TO.N,2pb1*%
X280000000Y-230665000D03*
%TO.P,J1,3,Pin_3*%
%TO.N,2pb2*%
X280000000Y-233205000D03*
%TO.P,J1,4,Pin_4*%
%TO.N,2pb3*%
X280000000Y-235745000D03*
%TO.P,J1,5,Pin_5*%
%TO.N,2pb4*%
X280000000Y-238285000D03*
%TO.P,J1,6,Pin_6*%
%TO.N,2pb5*%
X280000000Y-240825000D03*
%TO.P,J1,7,Pin_7*%
%TO.N,2pb6*%
X280000000Y-243365000D03*
%TO.P,J1,8,Pin_8*%
%TO.N,2pb7*%
X280000000Y-245905000D03*
%TD*%
D15*
%TO.P,U8,1,VSS*%
%TO.N,GND*%
X244375000Y-201875000D03*
D16*
%TO.P,U8,2,PA0*%
%TO.N,1pa0*%
X244375000Y-204415000D03*
%TO.P,U8,3,PA1*%
%TO.N,1pa1*%
X244375000Y-206955000D03*
%TO.P,U8,4,PA2*%
%TO.N,1pa2*%
X244375000Y-209495000D03*
%TO.P,U8,5,PA3*%
%TO.N,1pa3*%
X244375000Y-212035000D03*
%TO.P,U8,6,PA4*%
%TO.N,1pa4*%
X244375000Y-214575000D03*
%TO.P,U8,7,PA5*%
%TO.N,1pa5*%
X244375000Y-217115000D03*
%TO.P,U8,8,PA6*%
%TO.N,1pa6*%
X244375000Y-219655000D03*
%TO.P,U8,9,PA7*%
%TO.N,1pa7*%
X244375000Y-222195000D03*
%TO.P,U8,10,PB0*%
%TO.N,1pb0*%
X244375000Y-224735000D03*
%TO.P,U8,11,PB1*%
%TO.N,1pb1*%
X244375000Y-227275000D03*
%TO.P,U8,12,PB2*%
%TO.N,1pb2*%
X244375000Y-229815000D03*
%TO.P,U8,13,PB3*%
%TO.N,1pb3*%
X244375000Y-232355000D03*
%TO.P,U8,14,PB4*%
%TO.N,1pb4*%
X244375000Y-234895000D03*
%TO.P,U8,15,PB5*%
%TO.N,1pb5*%
X244375000Y-237435000D03*
%TO.P,U8,16,PB6*%
%TO.N,1pb6*%
X244375000Y-239975000D03*
%TO.P,U8,17,PB7*%
%TO.N,1pb7*%
X244375000Y-242515000D03*
%TO.P,U8,18,CB1*%
%TO.N,1CB1*%
X244375000Y-245055000D03*
%TO.P,U8,19,CB2*%
%TO.N,1CB2*%
X244375000Y-247595000D03*
%TO.P,U8,20,VDD*%
%TO.N,+5V*%
X244375000Y-250135000D03*
%TO.P,U8,21,~{IRQ}*%
%TO.N,1VIA_IRQ*%
X259615000Y-250135000D03*
%TO.P,U8,22,R~{W}*%
%TO.N,RW*%
X259615000Y-247595000D03*
%TO.P,U8,23,~{CS2}*%
%TO.N,VIA1_CS*%
X259615000Y-245055000D03*
%TO.P,U8,24,CS1*%
%TO.N,+5V*%
X259615000Y-242515000D03*
%TO.P,U8,25,PHI2*%
%TO.N,PHI2*%
X259615000Y-239975000D03*
%TO.P,U8,26,D7*%
%TO.N,d7*%
X259615000Y-237435000D03*
%TO.P,U8,27,D6*%
%TO.N,d6*%
X259615000Y-234895000D03*
%TO.P,U8,28,D5*%
%TO.N,d5*%
X259615000Y-232355000D03*
%TO.P,U8,29,D4*%
%TO.N,d4*%
X259615000Y-229815000D03*
%TO.P,U8,30,D3*%
%TO.N,d3*%
X259615000Y-227275000D03*
%TO.P,U8,31,D2*%
%TO.N,d2*%
X259615000Y-224735000D03*
%TO.P,U8,32,D1*%
%TO.N,d1*%
X259615000Y-222195000D03*
%TO.P,U8,33,D0*%
%TO.N,d0*%
X259615000Y-219655000D03*
%TO.P,U8,34,~{RES}*%
%TO.N,RESET*%
X259615000Y-217115000D03*
%TO.P,U8,35,RS3*%
%TO.N,a3*%
X259615000Y-214575000D03*
%TO.P,U8,36,RS2*%
%TO.N,a2*%
X259615000Y-212035000D03*
%TO.P,U8,37,RS1*%
%TO.N,a1*%
X259615000Y-209495000D03*
%TO.P,U8,38,RS0*%
%TO.N,a0*%
X259615000Y-206955000D03*
%TO.P,U8,39,CA2*%
%TO.N,1CA2*%
X259615000Y-204415000D03*
%TO.P,U8,40,CA1*%
%TO.N,1CA1*%
X259615000Y-201875000D03*
%TD*%
D14*
%TO.P,R5,1*%
%TO.N,1pa2*%
X274000000Y-167000000D03*
D16*
%TO.P,R5,2*%
%TO.N,GND*%
X266380000Y-167000000D03*
%TD*%
D14*
%TO.P,R1,1*%
%TO.N,+5V*%
X219190000Y-107000000D03*
D16*
%TO.P,R1,2*%
%TO.N,NMI*%
X226810000Y-107000000D03*
%TD*%
D27*
%TO.P,SW2,1,1*%
%TO.N,RESET*%
X226250000Y-120750000D03*
X219750000Y-120750000D03*
%TO.P,SW2,2,2*%
%TO.N,GND*%
X219750000Y-125250000D03*
X226250000Y-125250000D03*
%TD*%
D14*
%TO.P,C11,1*%
%TO.N,GND*%
X132500000Y-202000000D03*
%TO.P,C11,2*%
%TO.N,+5V*%
X137500000Y-202000000D03*
%TD*%
D30*
%TO.N,NMI*%
X224924600Y-123007200D03*
%TO.N,PHI1O*%
X206306400Y-134029000D03*
%TO.N,dev6*%
X235737800Y-120830200D03*
%TO.N,dev5*%
X234093500Y-121581200D03*
%TO.N,ML*%
X189315700Y-138957500D03*
X210081100Y-141481400D03*
%TO.N,dev4*%
X233835600Y-122921300D03*
X158533700Y-123228800D03*
%TO.N,VP*%
X229883300Y-118205100D03*
%TO.N,RDY*%
X227852600Y-116556600D03*
%TO.N,a14*%
X185789000Y-115120200D03*
X262801000Y-156104300D03*
%TO.N,BE*%
X211824000Y-134016200D03*
%TO.N,a13*%
X264628500Y-159796400D03*
X212755500Y-163753000D03*
%TO.N,IRQ*%
X191718800Y-140420900D03*
%TO.N,a12*%
X270607600Y-151338800D03*
%TO.N,SYNC*%
X222151100Y-115108400D03*
%TO.N,RESET*%
X238467500Y-130009400D03*
%TO.N,a10*%
X240846500Y-179073900D03*
X290900800Y-174057100D03*
%TO.N,PHI2*%
X258877800Y-105755900D03*
X288526100Y-96612500D03*
%TO.N,RW*%
X257353900Y-103070300D03*
%TO.N,a8*%
X214831600Y-134098700D03*
%TO.N,d7*%
X192610200Y-161177900D03*
X246571900Y-182623400D03*
%TO.N,a7*%
X255789100Y-148749500D03*
%TO.N,d6*%
X304847400Y-166949100D03*
X238366600Y-185059900D03*
%TO.N,a6*%
X254790500Y-152245600D03*
%TO.N,d5*%
X294897200Y-161030800D03*
X197697400Y-93788800D03*
X231078800Y-187605200D03*
%TO.N,a5*%
X251879600Y-156570400D03*
%TO.N,a3*%
X235983500Y-168522300D03*
X186136500Y-88663000D03*
%TO.N,d2*%
X260831600Y-169823800D03*
%TO.N,a2*%
X233104100Y-173344400D03*
%TO.N,d1*%
X266259700Y-169344800D03*
%TO.N,d0*%
X269670300Y-168915000D03*
%TO.N,a0*%
X232313100Y-182967600D03*
%TO.N,dev9*%
X179973800Y-129301700D03*
X241764800Y-119979600D03*
%TO.N,dev8*%
X188237800Y-133565900D03*
X236060700Y-125092600D03*
%TO.N,dev7*%
X186934100Y-115169700D03*
%TO.N,dev12*%
X203947800Y-118968800D03*
%TO.N,1pa1*%
X274538900Y-148913000D03*
%TO.N,WE*%
X228205700Y-133387600D03*
%TO.N,VIA1_CS*%
X257078000Y-100840700D03*
%TD*%
D31*
%TO.N,+5V*%
X176560800Y-209266900D02*
X176560800Y-209499400D01*
X302820000Y-89899700D02*
X301500000Y-88579700D01*
X139635300Y-128907300D02*
X139635300Y-128540000D01*
X273247400Y-141000000D02*
X272684700Y-141000000D01*
X176560800Y-209733200D02*
X182184900Y-215357300D01*
X247526800Y-248108500D02*
X258486400Y-248108500D01*
X234144700Y-159510000D02*
X222347500Y-159510000D01*
X306489700Y-136950000D02*
X302500000Y-132960300D01*
X152064700Y-139000000D02*
X150896400Y-140168300D01*
X175290000Y-157433300D02*
X176474100Y-157433300D01*
X260434700Y-248865000D02*
X261704700Y-250135000D01*
X197162400Y-129662300D02*
X198284700Y-128540000D01*
X158500000Y-170000000D02*
X162081900Y-166418100D01*
X252965900Y-129284100D02*
X236905900Y-129284100D01*
X162454100Y-127633900D02*
X179453600Y-127633900D01*
X301500000Y-88579700D02*
X301500000Y-86000000D01*
X236905900Y-129284100D02*
X231190000Y-135000000D01*
X245500300Y-250135000D02*
X247526800Y-248108500D01*
X216500000Y-145000000D02*
X209997300Y-151502700D01*
X258486400Y-248108500D02*
X259242900Y-248865000D01*
X143540800Y-207173800D02*
X144464300Y-206250300D01*
X243249700Y-150405000D02*
X234144700Y-159510000D01*
X259000000Y-243640300D02*
X258486400Y-244487600D01*
X150896400Y-140168400D02*
X150896400Y-140168300D01*
X201062400Y-151502700D02*
X186000000Y-166565100D01*
X137500000Y-202000000D02*
X142673800Y-207173800D01*
X144464300Y-206250300D02*
X173544200Y-206250300D01*
X302820000Y-91025000D02*
X302820000Y-89899700D01*
X143540800Y-209499400D02*
X143540800Y-207173800D01*
X186000000Y-166565100D02*
X185605900Y-166565100D01*
X254500000Y-127750000D02*
X252965900Y-129284100D01*
X272684700Y-141000000D02*
X269389700Y-137705000D01*
X181460000Y-128465000D02*
X180284700Y-128465000D01*
X173544200Y-206250300D02*
X176560800Y-209266900D01*
X199460000Y-128540000D02*
X198284700Y-128540000D01*
X285935300Y-130000000D02*
X274935300Y-141000000D01*
X259242900Y-248865000D02*
X260434700Y-248865000D01*
X162081900Y-166418100D02*
X166305200Y-166418100D01*
X179453600Y-127633900D02*
X180284700Y-128465000D01*
X258486400Y-244487600D02*
X258486400Y-248108500D01*
X261704700Y-250135000D02*
X292375000Y-250135000D01*
X150000000Y-144824700D02*
X150896400Y-143928300D01*
X161635300Y-128452700D02*
X162454100Y-127633900D01*
X302500000Y-132000000D02*
X302250000Y-132000000D01*
X150896400Y-140168300D02*
X139635300Y-128907300D01*
X183465300Y-129662300D02*
X197162400Y-129662300D01*
X300250000Y-130000000D02*
X285935300Y-130000000D01*
X256945300Y-91775000D02*
X260140600Y-88579700D01*
X182635300Y-128832300D02*
X183465300Y-129662300D01*
X153190000Y-139000000D02*
X152064700Y-139000000D01*
X255820000Y-91775000D02*
X256945300Y-91775000D01*
X182635300Y-128465000D02*
X182635300Y-128832300D01*
X181460000Y-128465000D02*
X182635300Y-128465000D01*
X150896400Y-143928300D02*
X150896400Y-140168400D01*
X260140600Y-88579700D02*
X301500000Y-88579700D01*
X244375000Y-250135000D02*
X245500300Y-250135000D01*
X176560800Y-209499400D02*
X176560800Y-209733200D01*
X302250000Y-132000000D02*
X300250000Y-130000000D01*
X259615000Y-242515000D02*
X259000000Y-243640300D01*
X142673800Y-207173800D02*
X143540800Y-207173800D01*
X220857300Y-215357300D02*
X223500000Y-218000000D01*
X161635300Y-128820000D02*
X161635300Y-128452700D01*
X138460000Y-128540000D02*
X139635300Y-128540000D01*
X182184900Y-215357300D02*
X220857300Y-215357300D01*
X166305200Y-166418100D02*
X175290000Y-157433300D01*
X186000000Y-166565100D02*
X186000000Y-170000000D01*
X185605900Y-166565100D02*
X176474100Y-157433300D01*
X307615000Y-136950000D02*
X306489700Y-136950000D01*
X273247400Y-141000000D02*
X273810000Y-141000000D01*
X160460000Y-128820000D02*
X161635300Y-128820000D01*
X150000000Y-146000000D02*
X150000000Y-144824700D01*
X274935300Y-141000000D02*
X273810000Y-141000000D01*
X302500000Y-132960300D02*
X302500000Y-132000000D01*
X244375000Y-150405000D02*
X243249700Y-150405000D01*
X269389700Y-137705000D02*
X259615000Y-137705000D01*
X209997300Y-151502700D02*
X201062400Y-151502700D01*
%TO.N,GND*%
X297500000Y-197000000D02*
X293500300Y-200999700D01*
X250625400Y-126624600D02*
X255207000Y-126624600D01*
X200824700Y-128172600D02*
X200824700Y-128540000D01*
X163860800Y-209499400D02*
X161320800Y-209499400D01*
X227488100Y-125250000D02*
X233489200Y-119248900D01*
X260740400Y-135637100D02*
X259942500Y-136435000D01*
X255207000Y-126624600D02*
X260740400Y-132158000D01*
X250685900Y-85564100D02*
X249500000Y-86750000D01*
X297250000Y-132250000D02*
X297500000Y-132000000D01*
X150000000Y-149395400D02*
X151395400Y-149395400D01*
X268394100Y-142202400D02*
X277864100Y-142202400D01*
X219750000Y-95750000D02*
X226250000Y-95750000D01*
X175851400Y-168851400D02*
X164648600Y-168851400D01*
X296500000Y-86000000D02*
X296064100Y-85564100D01*
X164648600Y-168851400D02*
X163500000Y-170000000D01*
X268394100Y-141562700D02*
X268394100Y-142202400D01*
X266380000Y-146680000D02*
X266380000Y-145554700D01*
X133501400Y-202000000D02*
X132500000Y-202000000D01*
X177000000Y-170000000D02*
X175851400Y-168851400D01*
X153000000Y-151907300D02*
X158526000Y-157433300D01*
X285414700Y-180885000D02*
X260740300Y-180885000D01*
X161320800Y-209499400D02*
X158780800Y-209499400D01*
X226250000Y-125250000D02*
X227488100Y-125250000D01*
X206465300Y-125250000D02*
X203175300Y-128540000D01*
X287816500Y-132250000D02*
X297250000Y-132250000D01*
X259942500Y-136435000D02*
X259216000Y-136435000D01*
X246608600Y-119248900D02*
X247074700Y-119715000D01*
X260740400Y-132158000D02*
X260740400Y-135637100D01*
X158780800Y-209499400D02*
X156240800Y-209499400D01*
X259216000Y-136435000D02*
X258489600Y-137161400D01*
X277864100Y-142202400D02*
X287816500Y-132250000D01*
X268394100Y-142202400D02*
X268394100Y-143540600D01*
X233489200Y-119248900D02*
X246608600Y-119248900D01*
X293500300Y-200999700D02*
X293500300Y-201875000D01*
X258489600Y-138177100D02*
X259168200Y-138855700D01*
X292375000Y-175050000D02*
X291249700Y-175050000D01*
X185175300Y-128465000D02*
X186275600Y-127364700D01*
X258489600Y-137161400D02*
X258489600Y-138177100D01*
X291249700Y-175050000D02*
X285414700Y-180885000D01*
X249500000Y-127750000D02*
X250625400Y-126624600D01*
X139235400Y-149395400D02*
X150000000Y-149395400D01*
X268394100Y-143540600D02*
X266380000Y-145554700D01*
X151395400Y-149395400D02*
X153000000Y-151000000D01*
X202000000Y-128540000D02*
X200824700Y-128540000D01*
X137160000Y-147320000D02*
X139235400Y-149395400D01*
X219750000Y-125250000D02*
X226250000Y-125250000D01*
X259168200Y-138855700D02*
X265687100Y-138855700D01*
X150000000Y-148540000D02*
X150000000Y-149395400D01*
X259615000Y-180885000D02*
X260740300Y-180885000D01*
X296064100Y-85564100D02*
X250685900Y-85564100D01*
X153000000Y-151000000D02*
X153000000Y-151907300D01*
X202000000Y-128540000D02*
X203175300Y-128540000D01*
X158526000Y-157433300D02*
X159710000Y-157433300D01*
X292375000Y-201875000D02*
X293500300Y-201875000D01*
X184000000Y-128465000D02*
X185175300Y-128465000D01*
X248200000Y-119715000D02*
X247074700Y-119715000D01*
X266380000Y-154300000D02*
X266380000Y-146680000D01*
X200016800Y-127364700D02*
X200824700Y-128172600D01*
X219750000Y-125250000D02*
X206465300Y-125250000D01*
X186275600Y-127364700D02*
X200016800Y-127364700D01*
X265687100Y-138855700D02*
X268394100Y-141562700D01*
X141000800Y-209499400D02*
X133501400Y-202000000D01*
%TO.N,NMI*%
X203175300Y-123460000D02*
X203628100Y-123007200D01*
X202000000Y-123460000D02*
X203175300Y-123460000D01*
X185175300Y-123385000D02*
X186278900Y-122281400D01*
X186278900Y-122281400D02*
X200821400Y-122281400D01*
X200821400Y-122281400D02*
X202000000Y-123460000D01*
X184000000Y-123385000D02*
X185175300Y-123385000D01*
X203628100Y-123007200D02*
X224924600Y-123007200D01*
X226250000Y-100250000D02*
X219750000Y-100250000D01*
%TO.N,Net-(D1-Pad2)*%
X165460000Y-139000000D02*
X160810000Y-139000000D01*
%TO.N,PHI1O*%
X185175300Y-125925000D02*
X186275600Y-124824700D01*
X182016800Y-127100300D02*
X182824700Y-126292400D01*
X244375000Y-137705000D02*
X243249700Y-137705000D01*
X186275600Y-124824700D02*
X200016800Y-124824700D01*
X200824700Y-125632600D02*
X200824700Y-126000000D01*
X209982400Y-137705000D02*
X243249700Y-137705000D01*
X184000000Y-125925000D02*
X182824700Y-125925000D01*
X164175300Y-126280000D02*
X164995600Y-127100300D01*
X206306400Y-134029000D02*
X209982400Y-137705000D01*
X163000000Y-126280000D02*
X164175300Y-126280000D01*
X202000000Y-126000000D02*
X200824700Y-126000000D01*
X184000000Y-125925000D02*
X185175300Y-125925000D01*
X200016800Y-124824700D02*
X200824700Y-125632600D01*
X164995600Y-127100300D02*
X182016800Y-127100300D01*
X182824700Y-126292400D02*
X182824700Y-125925000D01*
%TO.N,dev6*%
X160460000Y-126280000D02*
X160460000Y-127455300D01*
X160092700Y-127455300D02*
X159235300Y-128312700D01*
X233818600Y-120830200D02*
X235737800Y-120830200D01*
X160451900Y-130588900D02*
X224059900Y-130588900D01*
X160460000Y-127455300D02*
X160092700Y-127455300D01*
X224059900Y-130588900D02*
X233818600Y-120830200D01*
X159235300Y-129372300D02*
X160451900Y-130588900D01*
X159235300Y-128312700D02*
X159235300Y-129372300D01*
%TO.N,dev5*%
X160265400Y-131039300D02*
X224635400Y-131039300D01*
X158784900Y-126223100D02*
X158784900Y-129558800D01*
X160460000Y-124915300D02*
X160092700Y-124915300D01*
X160460000Y-123740000D02*
X160460000Y-124915300D01*
X160092700Y-124915300D02*
X158784900Y-126223100D01*
X224635400Y-131039300D02*
X234093500Y-121581200D01*
X158784900Y-129558800D02*
X160265400Y-131039300D01*
%TO.N,ML*%
X210081100Y-141481400D02*
X191680200Y-141481400D01*
X244375000Y-142785000D02*
X243249700Y-142785000D01*
X161000900Y-122391100D02*
X143646400Y-122391100D01*
X243249700Y-142785000D02*
X241946100Y-141481400D01*
X189315800Y-139117000D02*
X189315800Y-138957500D01*
X182005900Y-122031100D02*
X165006400Y-122031100D01*
X184000000Y-120845000D02*
X182824700Y-120845000D01*
X161824700Y-121200000D02*
X161824700Y-121567300D01*
X141000000Y-120920000D02*
X142175300Y-120920000D01*
X165006400Y-122031100D02*
X164175300Y-121200000D01*
X161824700Y-121567300D02*
X161000900Y-122391100D01*
X182824700Y-120845000D02*
X182824700Y-121212300D01*
X143646400Y-122391100D02*
X142175300Y-120920000D01*
X241946100Y-141481400D02*
X210081100Y-141481400D01*
X191680200Y-141481400D02*
X189315800Y-139117000D01*
X182824700Y-121212300D02*
X182005900Y-122031100D01*
X163000000Y-121200000D02*
X161824700Y-121200000D01*
X189315800Y-138957500D02*
X189315700Y-138957500D01*
X163000000Y-121200000D02*
X164175300Y-121200000D01*
%TO.N,dev4*%
X158533700Y-123228800D02*
X158308500Y-123454000D01*
X225267300Y-131489600D02*
X233835600Y-122921300D01*
X158308500Y-129719300D02*
X160078800Y-131489600D01*
X160078800Y-131489600D02*
X225267300Y-131489600D01*
X158308500Y-123454000D02*
X158308500Y-129719300D01*
%TO.N,VP*%
X202000000Y-118380000D02*
X203175300Y-118380000D01*
X203175300Y-118380000D02*
X203350200Y-118205100D01*
X185175300Y-118305000D02*
X186434800Y-119564500D01*
X141000000Y-118380000D02*
X142175300Y-118380000D01*
X203350200Y-118205100D02*
X229883300Y-118205100D01*
X163000000Y-118660000D02*
X161822800Y-119837200D01*
X143632500Y-119837200D02*
X142175300Y-118380000D01*
X184000000Y-118305000D02*
X185175300Y-118305000D01*
X161822800Y-119837200D02*
X143632500Y-119837200D01*
X200815500Y-119564500D02*
X202000000Y-118380000D01*
X186434800Y-119564500D02*
X200815500Y-119564500D01*
%TO.N,RDY*%
X186425600Y-117015300D02*
X200016800Y-117015300D01*
X183412400Y-115765000D02*
X182824700Y-115765000D01*
X183412400Y-115765000D02*
X184000000Y-115765000D01*
X203891900Y-116556600D02*
X227852600Y-116556600D01*
X163000000Y-116120000D02*
X164175300Y-116120000D01*
X202000000Y-115840000D02*
X200824700Y-115840000D01*
X181971300Y-116951100D02*
X165006400Y-116951100D01*
X182824700Y-116097700D02*
X181971300Y-116951100D01*
X143655200Y-117319900D02*
X142175300Y-115840000D01*
X200016800Y-117015300D02*
X200824700Y-116207400D01*
X185175300Y-115765000D02*
X186425600Y-117015300D01*
X244375000Y-135165000D02*
X243249700Y-135165000D01*
X165006400Y-116951100D02*
X164175300Y-116120000D01*
X161800100Y-117319900D02*
X143655200Y-117319900D01*
X200824700Y-116207400D02*
X200824700Y-115840000D01*
X141000000Y-115840000D02*
X142175300Y-115840000D01*
X238810000Y-135000000D02*
X243084700Y-135000000D01*
X202000000Y-115840000D02*
X203175300Y-115840000D01*
X203175300Y-115840000D02*
X203891900Y-116556600D01*
X184000000Y-115765000D02*
X185175300Y-115765000D01*
X182824700Y-115765000D02*
X182824700Y-116097700D01*
X163000000Y-116120000D02*
X161800100Y-117319900D01*
X243084700Y-135000000D02*
X243249700Y-135165000D01*
%TO.N,a14*%
X292656300Y-143155300D02*
X292375000Y-143155300D01*
X162443200Y-114944700D02*
X161635300Y-115752600D01*
X264372200Y-156104300D02*
X265073800Y-156805900D01*
X293514600Y-150186800D02*
X293514600Y-144013600D01*
X278734400Y-150989200D02*
X292712200Y-150989200D01*
X216327200Y-149245000D02*
X244867500Y-149245000D01*
X186577500Y-115908700D02*
X185789000Y-115120200D01*
X265073800Y-156805900D02*
X268741800Y-156805900D01*
X198284700Y-115840000D02*
X198216000Y-115908700D01*
X260911700Y-154215000D02*
X262801000Y-156104300D01*
X207107500Y-158464700D02*
X216327200Y-149245000D01*
X278284100Y-151439500D02*
X278734400Y-150989200D01*
X249837500Y-154215000D02*
X260911700Y-154215000D01*
X161635300Y-115752600D02*
X161635300Y-116120000D01*
X268741800Y-156805900D02*
X274108200Y-151439500D01*
X199460000Y-115840000D02*
X198284700Y-115840000D01*
X293514600Y-144013600D02*
X292656300Y-143155300D01*
X198216000Y-115908700D02*
X186577500Y-115908700D01*
X180284700Y-115765000D02*
X179464400Y-114944700D01*
X274108200Y-151439500D02*
X278284100Y-151439500D01*
X292712200Y-150989200D02*
X293514600Y-150186800D01*
X179464400Y-114944700D02*
X162443200Y-114944700D01*
X160460000Y-116120000D02*
X161635300Y-116120000D01*
X244867500Y-149245000D02*
X249837500Y-154215000D01*
X181460000Y-115765000D02*
X180284700Y-115765000D01*
X207107500Y-159510000D02*
X207107500Y-158464700D01*
X262801000Y-156104300D02*
X264372200Y-156104300D01*
X292375000Y-142030000D02*
X292375000Y-143155300D01*
%TO.N,BE*%
X214098200Y-136290400D02*
X211824000Y-134016200D01*
X194077700Y-112124700D02*
X192977400Y-113225000D01*
X266190000Y-141000000D02*
X264405000Y-142785000D01*
X200824700Y-113300000D02*
X200824700Y-112932600D01*
X264405000Y-142785000D02*
X259615000Y-142785000D01*
X200824700Y-112932600D02*
X200016800Y-112124700D01*
X161824700Y-113212700D02*
X160984000Y-112372000D01*
X251995100Y-136290400D02*
X214098200Y-136290400D01*
X163000000Y-113580000D02*
X161824700Y-113580000D01*
X258489700Y-142785000D02*
X251995100Y-136290400D01*
X259615000Y-142785000D02*
X258489700Y-142785000D01*
X200016800Y-112124700D02*
X194077700Y-112124700D01*
X160984000Y-112372000D02*
X143103300Y-112372000D01*
X192977400Y-113225000D02*
X184000000Y-113225000D01*
X141000000Y-113300000D02*
X142175300Y-113300000D01*
X161824700Y-113580000D02*
X161824700Y-113212700D01*
X143103300Y-112372000D02*
X142175300Y-113300000D01*
X202000000Y-113300000D02*
X200824700Y-113300000D01*
%TO.N,a13*%
X182635300Y-113592400D02*
X182635300Y-113225000D01*
X272874600Y-162014700D02*
X270516200Y-159656300D01*
X307615000Y-147110000D02*
X306489700Y-147110000D01*
X181460000Y-113225000D02*
X182635300Y-113225000D01*
X184643600Y-114400300D02*
X183443200Y-114400300D01*
X306489700Y-147110000D02*
X297525800Y-156073900D01*
X198284700Y-113300000D02*
X197604500Y-113980200D01*
X213592500Y-164590000D02*
X212755500Y-163753000D01*
X197604500Y-113980200D02*
X185063700Y-113980200D01*
X280901400Y-156073900D02*
X274960600Y-162014700D01*
X185063700Y-113980200D02*
X184643600Y-114400300D01*
X259615000Y-175805000D02*
X258489700Y-175805000D01*
X270516200Y-159656300D02*
X264768600Y-159656300D01*
X297525800Y-156073900D02*
X280901400Y-156073900D01*
X223780300Y-164482500D02*
X223672800Y-164590000D01*
X264768600Y-159656300D02*
X264628500Y-159796400D01*
X274960600Y-162014700D02*
X272874600Y-162014700D01*
X183443200Y-114400300D02*
X182635300Y-113592400D01*
X199460000Y-113300000D02*
X198284700Y-113300000D01*
X222347500Y-164590000D02*
X213592500Y-164590000D01*
X258489700Y-175805000D02*
X247167200Y-164482500D01*
X222347500Y-164590000D02*
X223672800Y-164590000D01*
X247167200Y-164482500D02*
X223780300Y-164482500D01*
%TO.N,IRQ*%
X191718800Y-140420900D02*
X243073800Y-140420900D01*
X161824700Y-111040000D02*
X161824700Y-110672700D01*
X141000000Y-110760000D02*
X142175300Y-110760000D01*
X161824700Y-110672700D02*
X160984000Y-109832000D01*
X185175300Y-110685000D02*
X186275600Y-109584700D01*
X243073800Y-140420900D02*
X243249700Y-140245000D01*
X163000000Y-111040000D02*
X161824700Y-111040000D01*
X200016800Y-109584700D02*
X200824700Y-110392600D01*
X184000000Y-110685000D02*
X185175300Y-110685000D01*
X160984000Y-109832000D02*
X143103300Y-109832000D01*
X202000000Y-110760000D02*
X200824700Y-110760000D01*
X143103300Y-109832000D02*
X142175300Y-110760000D01*
X244375000Y-140245000D02*
X243249700Y-140245000D01*
X186275600Y-109584700D02*
X200016800Y-109584700D01*
X200824700Y-110392600D02*
X200824700Y-110760000D01*
%TO.N,a12*%
X260103400Y-146703500D02*
X217728900Y-146703500D01*
X205765100Y-158667300D02*
X205765100Y-160376700D01*
X190360900Y-110760000D02*
X189260600Y-111860300D01*
X183443200Y-111860300D02*
X182635300Y-111052400D01*
X292375000Y-144570000D02*
X291249700Y-144570000D01*
X278174700Y-149413100D02*
X277949500Y-149638300D01*
X207107500Y-162050000D02*
X207107500Y-161004700D01*
X205765100Y-160376700D02*
X206393100Y-161004700D01*
X206393100Y-161004700D02*
X207107500Y-161004700D01*
X182635300Y-111052400D02*
X182635300Y-110685000D01*
X189260600Y-111860300D02*
X183443200Y-111860300D01*
X272308100Y-149638300D02*
X270607600Y-151338800D01*
X291249700Y-144570000D02*
X286406600Y-149413100D01*
X261749100Y-151273000D02*
X261749100Y-148349200D01*
X286406600Y-149413100D02*
X278174700Y-149413100D01*
X181460000Y-110685000D02*
X182635300Y-110685000D01*
X266883500Y-155429500D02*
X265905600Y-155429500D01*
X270607600Y-151338800D02*
X270607600Y-151705400D01*
X217728900Y-146703500D02*
X205765100Y-158667300D01*
X277949500Y-149638300D02*
X272308100Y-149638300D01*
X199460000Y-110760000D02*
X190360900Y-110760000D01*
X261749100Y-148349200D02*
X260103400Y-146703500D01*
X270607600Y-151705400D02*
X266883500Y-155429500D01*
X265905600Y-155429500D02*
X261749100Y-151273000D01*
%TO.N,SYNC*%
X184000000Y-108145000D02*
X185175300Y-108145000D01*
X161824700Y-108132600D02*
X161824700Y-108500000D01*
X142175300Y-108220000D02*
X143070600Y-107324700D01*
X202000000Y-108220000D02*
X200824700Y-108220000D01*
X143070600Y-107324700D02*
X161016800Y-107324700D01*
X218088600Y-111045900D02*
X222151100Y-115108400D01*
X203175300Y-108220000D02*
X206001200Y-111045900D01*
X141000000Y-108220000D02*
X142175300Y-108220000D01*
X163000000Y-108500000D02*
X161824700Y-108500000D01*
X202000000Y-108220000D02*
X203175300Y-108220000D01*
X206001200Y-111045900D02*
X218088600Y-111045900D01*
X200824700Y-107852600D02*
X200824700Y-108220000D01*
X185175300Y-108145000D02*
X186275600Y-107044700D01*
X161016800Y-107324700D02*
X161824700Y-108132600D01*
X186275600Y-107044700D02*
X200016800Y-107044700D01*
X200016800Y-107044700D02*
X200824700Y-107852600D01*
%TO.N,a11*%
X309672200Y-153798100D02*
X309672200Y-116564800D01*
X183443200Y-109320300D02*
X182635300Y-108512400D01*
X248844400Y-180885000D02*
X250426000Y-182466600D01*
X250426000Y-182466600D02*
X294176100Y-182466600D01*
X223672800Y-172210000D02*
X235058200Y-172210000D01*
X186520700Y-108220000D02*
X185420400Y-109320300D01*
X294176100Y-182466600D02*
X305402700Y-171240000D01*
X295200000Y-108805000D02*
X296325300Y-108805000D01*
X309672200Y-116564800D02*
X303037700Y-109930300D01*
X305402700Y-171240000D02*
X307962500Y-171240000D01*
X222347500Y-172210000D02*
X223672800Y-172210000D01*
X297450600Y-109930300D02*
X296325300Y-108805000D01*
X303037700Y-109930300D02*
X297450600Y-109930300D01*
X307962500Y-171240000D02*
X309640900Y-169561600D01*
X199460000Y-108220000D02*
X186520700Y-108220000D01*
X182635300Y-108512400D02*
X182635300Y-108145000D01*
X243249700Y-180401500D02*
X243249700Y-180885000D01*
X185420400Y-109320300D02*
X183443200Y-109320300D01*
X244375000Y-180885000D02*
X243249700Y-180885000D01*
X309640900Y-155630600D02*
X308740300Y-154730000D01*
X309640900Y-169561600D02*
X309640900Y-155630600D01*
X308740300Y-154730000D02*
X309672200Y-153798100D01*
X181460000Y-108145000D02*
X182635300Y-108145000D01*
X244375000Y-180885000D02*
X248844400Y-180885000D01*
X307615000Y-154730000D02*
X308740300Y-154730000D01*
X235058200Y-172210000D02*
X243249700Y-180401500D01*
%TO.N,RESET*%
X202000000Y-105680000D02*
X203175300Y-105680000D01*
X222280200Y-110595500D02*
X208090800Y-110595500D01*
X143070600Y-104784700D02*
X161016800Y-104784700D01*
X200016800Y-104504700D02*
X200824700Y-105312600D01*
X161824700Y-105592600D02*
X161824700Y-105960000D01*
X142175300Y-105680000D02*
X143070600Y-104784700D01*
X219750000Y-120750000D02*
X226250000Y-120750000D01*
X184000000Y-105605000D02*
X184587700Y-105605000D01*
X238467500Y-130009400D02*
X255874100Y-130009400D01*
X280579700Y-215132500D02*
X283687500Y-218240300D01*
X307615000Y-217115000D02*
X306489700Y-217115000D01*
X184587700Y-105605000D02*
X185688000Y-104504700D01*
X141000000Y-105680000D02*
X142175300Y-105680000D01*
X305364400Y-218240300D02*
X306489700Y-217115000D01*
X161016800Y-104784700D02*
X161824700Y-105592600D01*
X259615000Y-217115000D02*
X260740300Y-217115000D01*
X208090800Y-110595500D02*
X203175300Y-105680000D01*
X201412400Y-105680000D02*
X202000000Y-105680000D01*
X259615000Y-132625000D02*
X258489700Y-132625000D01*
X201412400Y-105680000D02*
X200824700Y-105680000D01*
X226810000Y-114000000D02*
X225684700Y-114000000D01*
X200824700Y-105312600D02*
X200824700Y-105680000D01*
X225684700Y-114000000D02*
X222280200Y-110595500D01*
X260740300Y-217115000D02*
X262722800Y-215132500D01*
X185688000Y-104504700D02*
X200016800Y-104504700D01*
X283687500Y-218240300D02*
X305364400Y-218240300D01*
X262722800Y-215132500D02*
X280579700Y-215132500D01*
X255874100Y-130009400D02*
X258489700Y-132625000D01*
X163000000Y-105960000D02*
X161824700Y-105960000D01*
%TO.N,a10*%
X140443200Y-106855300D02*
X139635300Y-106047400D01*
X186839100Y-105680000D02*
X185705100Y-106814000D01*
X239062600Y-177290000D02*
X223672800Y-177290000D01*
X158389400Y-106855300D02*
X140443200Y-106855300D01*
X247662800Y-178345000D02*
X244375000Y-178345000D01*
X159284700Y-105960000D02*
X158389400Y-106855300D01*
X139635300Y-106047400D02*
X139635300Y-105680000D01*
X181460000Y-105605000D02*
X182635300Y-105605000D01*
X285428100Y-179529800D02*
X248847600Y-179529800D01*
X222347500Y-177290000D02*
X223672800Y-177290000D01*
X248847600Y-179529800D02*
X247662800Y-178345000D01*
X182635300Y-105918500D02*
X182635300Y-105605000D01*
X138460000Y-105680000D02*
X139635300Y-105680000D01*
X185705100Y-106814000D02*
X183530800Y-106814000D01*
X199460000Y-105680000D02*
X186839100Y-105680000D01*
X160460000Y-105960000D02*
X159284700Y-105960000D01*
X240846500Y-179073900D02*
X239062600Y-177290000D01*
X183530800Y-106814000D02*
X182635300Y-105918500D01*
X290900800Y-174057100D02*
X285428100Y-179529800D01*
%TO.N,PHI2*%
X203175300Y-103140000D02*
X205791200Y-105755900D01*
X185175300Y-103065000D02*
X186275600Y-101964700D01*
X259615000Y-239975000D02*
X260740300Y-239975000D01*
X261983400Y-105755900D02*
X271126800Y-96612500D01*
X258489700Y-229635400D02*
X244699300Y-215845000D01*
X141000000Y-103140000D02*
X142175300Y-103140000D01*
X265342400Y-244577100D02*
X260740300Y-239975000D01*
X217835900Y-194476100D02*
X183906100Y-194476100D01*
X285875600Y-244577100D02*
X265342400Y-244577100D01*
X289352400Y-241100300D02*
X285875600Y-244577100D01*
X160997800Y-102225800D02*
X143089500Y-102225800D01*
X244699300Y-215845000D02*
X239204800Y-215845000D01*
X186275600Y-101964700D02*
X200016800Y-101964700D01*
X163000000Y-103420000D02*
X161824700Y-103420000D01*
X143089500Y-102225800D02*
X142175300Y-103140000D01*
X258877800Y-105755900D02*
X261983400Y-105755900D01*
X305364400Y-241100300D02*
X289352400Y-241100300D01*
X184000000Y-103065000D02*
X185175300Y-103065000D01*
X271126800Y-96612500D02*
X288526100Y-96612500D01*
X202000000Y-103140000D02*
X200824700Y-103140000D01*
X259615000Y-239975000D02*
X258489700Y-238849700D01*
X161824700Y-103052700D02*
X160997800Y-102225800D01*
X200016800Y-101964700D02*
X200824700Y-102772600D01*
X161824700Y-103420000D02*
X161824700Y-103052700D01*
X306489700Y-239975000D02*
X305364400Y-241100300D01*
X205791200Y-105755900D02*
X258877800Y-105755900D01*
X307615000Y-239975000D02*
X306489700Y-239975000D01*
X239204800Y-215845000D02*
X217835900Y-194476100D01*
X200824700Y-102772600D02*
X200824700Y-103140000D01*
X202000000Y-103140000D02*
X203175300Y-103140000D01*
X258489700Y-238849700D02*
X258489700Y-229635400D01*
X183906100Y-194476100D02*
X173620000Y-184190000D01*
%TO.N,a9*%
X160460000Y-103420000D02*
X159284700Y-103420000D01*
X243812400Y-175805000D02*
X244375000Y-175805000D01*
X244375000Y-175805000D02*
X245500300Y-175805000D01*
X268248400Y-173331800D02*
X264649900Y-176930300D01*
X139635300Y-103507400D02*
X139635300Y-103140000D01*
X308740300Y-165362300D02*
X307942600Y-166160000D01*
X306014100Y-159806600D02*
X307287500Y-161080000D01*
X186226900Y-103140000D02*
X185126600Y-104240300D01*
X243812400Y-175805000D02*
X243249700Y-175805000D01*
X185126600Y-104240300D02*
X183443200Y-104240300D01*
X198284700Y-103140000D02*
X186226900Y-103140000D01*
X182635300Y-103432400D02*
X182635300Y-103065000D01*
X264649900Y-176930300D02*
X246625600Y-176930300D01*
X306853700Y-166160000D02*
X299378300Y-173635400D01*
X138460000Y-103140000D02*
X139635300Y-103140000D01*
X222347500Y-169670000D02*
X223672800Y-169670000D01*
X158389400Y-104315300D02*
X140443200Y-104315300D01*
X237114700Y-169670000D02*
X243249700Y-175805000D01*
X307287500Y-161080000D02*
X308014000Y-161080000D01*
X307615000Y-152190000D02*
X306014100Y-153790900D01*
X246625600Y-176930300D02*
X245500300Y-175805000D01*
X199460000Y-103140000D02*
X198284700Y-103140000D01*
X291201300Y-173331800D02*
X268248400Y-173331800D01*
X159284700Y-103420000D02*
X158389400Y-104315300D01*
X223672800Y-169670000D02*
X237114700Y-169670000D01*
X140443200Y-104315300D02*
X139635300Y-103507400D01*
X308740300Y-161806300D02*
X308740300Y-165362300D01*
X299378300Y-173635400D02*
X291504900Y-173635400D01*
X307942600Y-166160000D02*
X306853700Y-166160000D01*
X291504900Y-173635400D02*
X291201300Y-173331800D01*
X181460000Y-103065000D02*
X182635300Y-103065000D01*
X308014000Y-161080000D02*
X308740300Y-161806300D01*
X306014100Y-153790900D02*
X306014100Y-159806600D01*
X183443200Y-104240300D02*
X182635300Y-103432400D01*
%TO.N,RW*%
X289420100Y-93565000D02*
X287330500Y-95654600D01*
X143089500Y-99685800D02*
X142175300Y-100600000D01*
X161824700Y-100880000D02*
X161824700Y-100512700D01*
X163000000Y-100880000D02*
X161824700Y-100880000D01*
X287330500Y-95654600D02*
X264769600Y-95654600D01*
X294074700Y-93565000D02*
X289420100Y-93565000D01*
X184000000Y-100525000D02*
X185175300Y-100525000D01*
X160997800Y-99685800D02*
X143089500Y-99685800D01*
X186289300Y-99411000D02*
X199971300Y-99411000D01*
X205645600Y-103070300D02*
X257353900Y-103070300D01*
X202000000Y-100600000D02*
X200824700Y-100600000D01*
X199971300Y-99411000D02*
X200824700Y-100264400D01*
X264769600Y-95654600D02*
X257353900Y-103070300D01*
X161824700Y-100512700D02*
X160997800Y-99685800D01*
X307615000Y-247595000D02*
X306489700Y-247595000D01*
X200824700Y-100264400D02*
X200824700Y-100600000D01*
X141000000Y-100600000D02*
X142175300Y-100600000D01*
X305364400Y-248720300D02*
X306489700Y-247595000D01*
X202000000Y-100600000D02*
X203175300Y-100600000D01*
X259615000Y-247595000D02*
X260740300Y-247595000D01*
X295200000Y-93565000D02*
X294074700Y-93565000D01*
X203175300Y-100600000D02*
X205645600Y-103070300D01*
X261865600Y-248720300D02*
X305364400Y-248720300D01*
X185175300Y-100525000D02*
X186289300Y-99411000D01*
X260740300Y-247595000D02*
X261865600Y-248720300D01*
%TO.N,a8*%
X244375000Y-173265000D02*
X243249700Y-173265000D01*
X214845800Y-134112900D02*
X229755200Y-134112900D01*
X158389400Y-101775300D02*
X140443200Y-101775300D01*
X295200000Y-116425000D02*
X294074700Y-116425000D01*
X138460000Y-100600000D02*
X139635300Y-100600000D01*
X160460000Y-100880000D02*
X159284700Y-100880000D01*
X223672800Y-167130000D02*
X237114700Y-167130000D01*
X285051700Y-125448000D02*
X294074700Y-116425000D01*
X182635300Y-100838500D02*
X182635300Y-100525000D01*
X222347500Y-167130000D02*
X223672800Y-167130000D01*
X181460000Y-100525000D02*
X182635300Y-100525000D01*
X185387400Y-101733300D02*
X183530100Y-101733300D01*
X183530100Y-101733300D02*
X182635300Y-100838500D01*
X186520700Y-100600000D02*
X185387400Y-101733300D01*
X214831600Y-134098700D02*
X214845800Y-134112900D01*
X237114700Y-167130000D02*
X243249700Y-173265000D01*
X199460000Y-100600000D02*
X186520700Y-100600000D01*
X139635300Y-100967400D02*
X139635300Y-100600000D01*
X238420100Y-125448000D02*
X285051700Y-125448000D01*
X140443200Y-101775300D02*
X139635300Y-100967400D01*
X159284700Y-100880000D02*
X158389400Y-101775300D01*
X229755200Y-134112900D02*
X238420100Y-125448000D01*
%TO.N,d7*%
X281268800Y-242005200D02*
X284713700Y-238560300D01*
X186308600Y-96851700D02*
X199929900Y-96851700D01*
X141000000Y-98060000D02*
X142175300Y-98060000D01*
X223010200Y-182370000D02*
X222347500Y-182370000D01*
X284713700Y-238560300D02*
X305364400Y-238560300D01*
X260740300Y-168184900D02*
X260740300Y-168185000D01*
X307615000Y-237435000D02*
X306489700Y-237435000D01*
X163000000Y-98340000D02*
X161824700Y-98340000D01*
X223010200Y-182370000D02*
X223672800Y-182370000D01*
X288249800Y-166015300D02*
X286080200Y-168184900D01*
X307615000Y-164890000D02*
X306489700Y-164890000D01*
X143088400Y-97146900D02*
X142175300Y-98060000D01*
X161824700Y-97972700D02*
X160998900Y-97146900D01*
X200824700Y-97746500D02*
X200824700Y-98060000D01*
X185175300Y-97985000D02*
X186308600Y-96851700D01*
X192610200Y-167094300D02*
X192610200Y-161177900D01*
X259615000Y-237435000D02*
X260740300Y-237435000D01*
X232994700Y-182623400D02*
X232613600Y-182242300D01*
X232613600Y-182242300D02*
X223800500Y-182242300D01*
X259615000Y-168185000D02*
X260740300Y-168185000D01*
X265310500Y-242005200D02*
X281268800Y-242005200D01*
X202000000Y-98060000D02*
X200824700Y-98060000D01*
X223800500Y-182242300D02*
X223672800Y-182370000D01*
X306489700Y-164890000D02*
X305364400Y-166015300D01*
X161824700Y-98340000D02*
X161824700Y-97972700D01*
X305364400Y-166015300D02*
X288249800Y-166015300D01*
X286080200Y-168184900D02*
X260740300Y-168184900D01*
X206840600Y-181324700D02*
X192610200Y-167094300D01*
X160998900Y-97146900D02*
X143088400Y-97146900D01*
X222347500Y-182370000D02*
X222347500Y-181324700D01*
X260740300Y-237435000D02*
X265310500Y-242005200D01*
X184000000Y-97985000D02*
X185175300Y-97985000D01*
X305364400Y-238560300D02*
X306489700Y-237435000D01*
X199929900Y-96851700D02*
X200824700Y-97746500D01*
X246571900Y-182623400D02*
X232994700Y-182623400D01*
X222347500Y-181324700D02*
X206840600Y-181324700D01*
%TO.N,a7*%
X288496300Y-149863400D02*
X278361400Y-149863400D01*
X267395700Y-155905300D02*
X265708400Y-155905300D01*
X182635300Y-97985000D02*
X182635300Y-98352300D01*
X159284700Y-98340000D02*
X158389400Y-99235300D01*
X273212300Y-150088700D02*
X267395700Y-155905300D01*
X278361400Y-149863400D02*
X278136100Y-150088700D01*
X184793800Y-99160400D02*
X185894200Y-98060000D01*
X210896100Y-99253200D02*
X200653200Y-99253200D01*
X260965800Y-151162700D02*
X260965800Y-150158300D01*
X230631800Y-100809700D02*
X228746700Y-98924600D01*
X265708400Y-155905300D02*
X260965800Y-151162700D01*
X255820000Y-101935000D02*
X254694700Y-101935000D01*
X253569400Y-100809700D02*
X230631800Y-100809700D01*
X260965800Y-150158300D02*
X259942500Y-149135000D01*
X254694700Y-101935000D02*
X253569400Y-100809700D01*
X182635300Y-98352300D02*
X183443400Y-99160400D01*
X256174600Y-149135000D02*
X255789100Y-148749500D01*
X278136100Y-150088700D02*
X273212300Y-150088700D01*
X292375000Y-147110000D02*
X291249700Y-147110000D01*
X160460000Y-98340000D02*
X159284700Y-98340000D01*
X211224700Y-98924600D02*
X210896100Y-99253200D01*
X200653200Y-99253200D02*
X199460000Y-98060000D01*
X158389400Y-99235300D02*
X140443200Y-99235300D01*
X181460000Y-97985000D02*
X182635300Y-97985000D01*
X139635300Y-98427400D02*
X139635300Y-98060000D01*
X140443200Y-99235300D02*
X139635300Y-98427400D01*
X228746700Y-98924600D02*
X211224700Y-98924600D01*
X183443400Y-99160400D02*
X184793800Y-99160400D01*
X259942500Y-149135000D02*
X256174600Y-149135000D01*
X185894200Y-98060000D02*
X199460000Y-98060000D01*
X291249700Y-147110000D02*
X288496300Y-149863400D01*
X138460000Y-98060000D02*
X139635300Y-98060000D01*
%TO.N,d6*%
X163000000Y-95800000D02*
X161824700Y-95800000D01*
X259615000Y-234895000D02*
X260740300Y-234895000D01*
X223822700Y-185059900D02*
X238366600Y-185059900D01*
X185175300Y-95445000D02*
X186106200Y-94514100D01*
X200824700Y-95152700D02*
X200824700Y-95520000D01*
X258489700Y-168651500D02*
X259201900Y-169363700D01*
X186106200Y-94514100D02*
X197997900Y-94514100D01*
X184000000Y-95445000D02*
X185175300Y-95445000D01*
X260052900Y-169363700D02*
X260326700Y-169089900D01*
X284713700Y-236020300D02*
X305364400Y-236020300D01*
X300653300Y-171143200D02*
X304847400Y-166949100D01*
X142175300Y-95520000D02*
X143070600Y-94624700D01*
X141000000Y-95520000D02*
X142175300Y-95520000D01*
X259201900Y-169363700D02*
X260052900Y-169363700D01*
X161824700Y-95432600D02*
X161824700Y-95800000D01*
X261265900Y-169089900D02*
X263319200Y-171143200D01*
X281273300Y-239460700D02*
X284713700Y-236020300D01*
X223672800Y-184910000D02*
X223822700Y-185059900D01*
X199996100Y-94324100D02*
X200824700Y-95152700D01*
X161016800Y-94624700D02*
X161824700Y-95432600D01*
X222347500Y-184910000D02*
X223672800Y-184910000D01*
X260740300Y-234895000D02*
X265306000Y-239460700D01*
X265306000Y-239460700D02*
X281273300Y-239460700D01*
X259615000Y-165645000D02*
X259615000Y-166770300D01*
X259333600Y-166770300D02*
X258489700Y-167614200D01*
X198187900Y-94324100D02*
X199996100Y-94324100D01*
X202000000Y-95520000D02*
X200824700Y-95520000D01*
X263319200Y-171143200D02*
X300653300Y-171143200D01*
X305364400Y-236020300D02*
X306489700Y-234895000D01*
X259615000Y-166770300D02*
X259333600Y-166770300D01*
X258489700Y-167614200D02*
X258489700Y-168651500D01*
X260326700Y-169089900D02*
X261265900Y-169089900D01*
X197997900Y-94514100D02*
X198187900Y-94324100D01*
X143070600Y-94624700D02*
X161016800Y-94624700D01*
X307615000Y-234895000D02*
X306489700Y-234895000D01*
%TO.N,a6*%
X183443200Y-96620300D02*
X182635300Y-95812400D01*
X278763400Y-150323300D02*
X278322700Y-150764000D01*
X291249700Y-149650000D02*
X290576400Y-150323300D01*
X290576400Y-150323300D02*
X278763400Y-150323300D01*
X204609900Y-96713200D02*
X200653200Y-96713200D01*
X255609000Y-98269700D02*
X250860000Y-93520700D01*
X292375000Y-149650000D02*
X291249700Y-149650000D01*
X247265200Y-90649700D02*
X244092500Y-93822400D01*
X249192700Y-90649700D02*
X247265200Y-90649700D01*
X268143800Y-156355600D02*
X265521800Y-156355600D01*
X199460000Y-95520000D02*
X186520700Y-95520000D01*
X186520700Y-95520000D02*
X185420400Y-96620300D01*
X260983800Y-151817600D02*
X255218500Y-151817600D01*
X250860000Y-93520700D02*
X250860000Y-92317000D01*
X185420400Y-96620300D02*
X183443200Y-96620300D01*
X273735400Y-150764000D02*
X268143800Y-156355600D01*
X278322700Y-150764000D02*
X273735400Y-150764000D01*
X182635300Y-95812400D02*
X182635300Y-95445000D01*
X265521800Y-156355600D02*
X260983800Y-151817600D01*
X207500700Y-93822400D02*
X204609900Y-96713200D01*
X244092500Y-93822400D02*
X207500700Y-93822400D01*
X200653200Y-96713200D02*
X199460000Y-95520000D01*
X255820000Y-99395000D02*
X255820000Y-98269700D01*
X250860000Y-92317000D02*
X249192700Y-90649700D01*
X255218500Y-151817600D02*
X254790500Y-152245600D01*
X181460000Y-95445000D02*
X182635300Y-95445000D01*
X255820000Y-98269700D02*
X255609000Y-98269700D01*
%TO.N,d5*%
X307615000Y-232355000D02*
X306489700Y-232355000D01*
X265310500Y-236925200D02*
X280632000Y-236925200D01*
X163000000Y-93260000D02*
X161824700Y-93260000D01*
X305364400Y-233480300D02*
X306489700Y-232355000D01*
X261001800Y-163366500D02*
X287693300Y-163366500D01*
X290029000Y-161030800D02*
X294897200Y-161030800D01*
X184000000Y-92905000D02*
X185175300Y-92905000D01*
X259615000Y-232355000D02*
X260740300Y-232355000D01*
X287693300Y-163366500D02*
X290029000Y-161030800D01*
X141000000Y-92980000D02*
X142175300Y-92980000D01*
X222347500Y-187450000D02*
X223672800Y-187450000D01*
X259615000Y-163105000D02*
X260740300Y-163105000D01*
X260740300Y-232355000D02*
X265310500Y-236925200D01*
X161824700Y-93260000D02*
X161824700Y-92892700D01*
X223828000Y-187605200D02*
X231078800Y-187605200D01*
X284076900Y-233480300D02*
X305364400Y-233480300D01*
X161824700Y-92892700D02*
X160997800Y-92065800D01*
X160997800Y-92065800D02*
X143089500Y-92065800D01*
X186059100Y-93788800D02*
X185175300Y-92905000D01*
X260740300Y-163105000D02*
X261001800Y-163366500D01*
X143089500Y-92065800D02*
X142175300Y-92980000D01*
X280632000Y-236925200D02*
X284076900Y-233480300D01*
X223672800Y-187450000D02*
X223828000Y-187605200D01*
X197697400Y-93788800D02*
X186059100Y-93788800D01*
%TO.N,a5*%
X273994600Y-152190000D02*
X292375000Y-152190000D01*
X199460000Y-92980000D02*
X198284700Y-92980000D01*
X252153100Y-156843900D02*
X264474900Y-156843900D01*
X211132500Y-165645000D02*
X208152800Y-168624700D01*
X254942100Y-95729700D02*
X249065200Y-89852800D01*
X182635300Y-92537700D02*
X183463900Y-91709100D01*
X181460000Y-92905000D02*
X182635300Y-92905000D01*
X159284700Y-93260000D02*
X158389400Y-94155300D01*
X183463900Y-91709100D02*
X196376900Y-91709100D01*
X197647800Y-92980000D02*
X198284700Y-92980000D01*
X158389400Y-94155300D02*
X140443200Y-94155300D01*
X268909400Y-157275200D02*
X273994600Y-152190000D01*
X140443200Y-94155300D02*
X139635300Y-93347400D01*
X139635300Y-93347400D02*
X139635300Y-92980000D01*
X199460000Y-92980000D02*
X200635300Y-92980000D01*
X160460000Y-93260000D02*
X159284700Y-93260000D01*
X196376900Y-91709100D02*
X197647800Y-92980000D01*
X255820000Y-95729700D02*
X254942100Y-95729700D01*
X264906200Y-157275200D02*
X268909400Y-157275200D01*
X182635300Y-92905000D02*
X182635300Y-92537700D01*
X202535500Y-91804700D02*
X201443200Y-91804700D01*
X251879600Y-156570400D02*
X252153100Y-156843900D01*
X244375000Y-165645000D02*
X211132500Y-165645000D01*
X255820000Y-96855000D02*
X255820000Y-95729700D01*
X208152800Y-168624700D02*
X207107500Y-168624700D01*
X138460000Y-92980000D02*
X139635300Y-92980000D01*
X249065200Y-89852800D02*
X204487400Y-89852800D01*
X200635300Y-92612600D02*
X200635300Y-92980000D01*
X204487400Y-89852800D02*
X202535500Y-91804700D01*
X201443200Y-91804700D02*
X200635300Y-92612600D01*
X264474900Y-156843900D02*
X264906200Y-157275200D01*
X207107500Y-169670000D02*
X207107500Y-168624700D01*
%TO.N,d4*%
X197266000Y-91643000D02*
X195988000Y-90365000D01*
X284076900Y-230940300D02*
X305364400Y-230940300D01*
X199924600Y-91643000D02*
X197266000Y-91643000D01*
X307615000Y-229815000D02*
X306489700Y-229815000D01*
X222053500Y-191035300D02*
X222347500Y-191035300D01*
X305364400Y-230940300D02*
X306489700Y-229815000D01*
X143089500Y-89525800D02*
X142175300Y-90440000D01*
X161824700Y-90352700D02*
X160997800Y-89525800D01*
X260177700Y-229815000D02*
X260740300Y-229815000D01*
X241358000Y-213305000D02*
X220968700Y-192915700D01*
X200824700Y-90742900D02*
X199924600Y-91643000D01*
X160997800Y-89525800D02*
X143089500Y-89525800D01*
X200824700Y-90440000D02*
X200824700Y-90742900D01*
X163000000Y-90720000D02*
X161824700Y-90720000D01*
X222347500Y-189990000D02*
X222347500Y-191035300D01*
X280632000Y-234385200D02*
X284076900Y-230940300D01*
X244761700Y-213305000D02*
X241358000Y-213305000D01*
X220968700Y-192120100D02*
X222053500Y-191035300D01*
X245873300Y-214416600D02*
X244761700Y-213305000D01*
X259615000Y-229815000D02*
X260177700Y-229815000D01*
X260177700Y-229815000D02*
X245873300Y-215510600D01*
X220968700Y-192915700D02*
X220968700Y-192120100D01*
X265310500Y-234385200D02*
X280632000Y-234385200D01*
X195988000Y-90365000D02*
X184000000Y-90365000D01*
X141000000Y-90440000D02*
X142175300Y-90440000D01*
X245873300Y-215510600D02*
X245873300Y-214416600D01*
X202000000Y-90440000D02*
X200824700Y-90440000D01*
X260740300Y-229815000D02*
X265310500Y-234385200D01*
X161824700Y-90720000D02*
X161824700Y-90352700D01*
%TO.N,a4*%
X206781900Y-171164700D02*
X207107500Y-171164700D01*
X206618700Y-165860000D02*
X205773700Y-166705000D01*
X182635300Y-90365000D02*
X182635300Y-89997700D01*
X212455100Y-163027700D02*
X209622800Y-165860000D01*
X205773700Y-166705000D02*
X205773700Y-170156500D01*
X249640600Y-89260900D02*
X200639100Y-89260900D01*
X182047700Y-90365000D02*
X182635300Y-90365000D01*
X138460000Y-90440000D02*
X139635300Y-90440000D01*
X207107500Y-172210000D02*
X207107500Y-171164700D01*
X205773700Y-170156500D02*
X206781900Y-171164700D01*
X199460000Y-90440000D02*
X198284700Y-90440000D01*
X183477000Y-89156000D02*
X185603800Y-89156000D01*
X209622800Y-165860000D02*
X206618700Y-165860000D01*
X182047700Y-90365000D02*
X181460000Y-90365000D01*
X244375000Y-163105000D02*
X213133300Y-163105000D01*
X185836100Y-89388300D02*
X197233000Y-89388300D01*
X200639100Y-89260900D02*
X199460000Y-90440000D01*
X139635300Y-90440000D02*
X139635300Y-90807400D01*
X255820000Y-94315000D02*
X254694700Y-94315000D01*
X139635300Y-90807400D02*
X140443200Y-91615300D01*
X185603800Y-89156000D02*
X185836100Y-89388300D01*
X158389400Y-91615300D02*
X159284700Y-90720000D01*
X213133300Y-163105000D02*
X213056000Y-163027700D01*
X213056000Y-163027700D02*
X212455100Y-163027700D01*
X140443200Y-91615300D02*
X158389400Y-91615300D01*
X254694700Y-94315000D02*
X249640600Y-89260900D01*
X160460000Y-90720000D02*
X159284700Y-90720000D01*
X182635300Y-89997700D02*
X183477000Y-89156000D01*
X197233000Y-89388300D02*
X198284700Y-90440000D01*
%TO.N,d3*%
X182824700Y-87825000D02*
X182824700Y-88127900D01*
X280632000Y-231845200D02*
X265310500Y-231845200D01*
X307615000Y-176175300D02*
X307615000Y-175050000D01*
X307052400Y-227275000D02*
X307615000Y-227275000D01*
X258489700Y-225305800D02*
X258489700Y-224552200D01*
X258489700Y-224552200D02*
X244702500Y-210765000D01*
X306489700Y-227275000D02*
X305364400Y-228400300D01*
X184000000Y-87825000D02*
X185175300Y-87825000D01*
X182824700Y-88127900D02*
X181941500Y-89011100D01*
X200824700Y-87532700D02*
X200006700Y-86714700D01*
X184000000Y-87825000D02*
X182824700Y-87825000D01*
X200824700Y-87900000D02*
X200824700Y-87532700D01*
X244702500Y-210765000D02*
X239537200Y-210765000D01*
X259615000Y-226431100D02*
X258489700Y-225305800D01*
X308740300Y-225305700D02*
X308740300Y-177300600D01*
X284076900Y-228400300D02*
X280632000Y-231845200D01*
X307615000Y-226431000D02*
X308740300Y-225305700D01*
X161824700Y-87812700D02*
X160984000Y-86972000D01*
X202000000Y-87900000D02*
X200824700Y-87900000D01*
X141000000Y-87900000D02*
X142175300Y-87900000D01*
X186285600Y-86714700D02*
X185175300Y-87825000D01*
X181941500Y-89011100D02*
X165006400Y-89011100D01*
X162412400Y-88180000D02*
X161824700Y-88180000D01*
X305364400Y-228400300D02*
X284076900Y-228400300D01*
X222347500Y-193575300D02*
X222347500Y-192530000D01*
X200006700Y-86714700D02*
X186285600Y-86714700D01*
X165006400Y-89011100D02*
X164175300Y-88180000D01*
X307615000Y-227275000D02*
X307615000Y-226431000D01*
X239537200Y-210765000D02*
X222347500Y-193575300D01*
X265310500Y-231845200D02*
X260740300Y-227275000D01*
X307052400Y-227275000D02*
X306489700Y-227275000D01*
X259615000Y-227275000D02*
X260740300Y-227275000D01*
X163000000Y-88180000D02*
X164175300Y-88180000D01*
X162412400Y-88180000D02*
X163000000Y-88180000D01*
X160984000Y-86972000D02*
X143103300Y-86972000D01*
X308740300Y-177300600D02*
X307615000Y-176175300D01*
X143103300Y-86972000D02*
X142175300Y-87900000D01*
X259615000Y-227275000D02*
X259615000Y-226431100D01*
X161824700Y-88180000D02*
X161824700Y-87812700D01*
%TO.N,a3*%
X262684600Y-212630700D02*
X260740300Y-214575000D01*
X208152800Y-173704700D02*
X207107500Y-173704700D01*
X199460000Y-87900000D02*
X186899500Y-87900000D01*
X244375000Y-160565000D02*
X244375000Y-159439700D01*
X160460000Y-88180000D02*
X159284700Y-88180000D01*
X284485100Y-215714400D02*
X281401400Y-212630700D01*
X259615000Y-214575000D02*
X260740300Y-214575000D01*
X243946100Y-156860700D02*
X243249700Y-157557100D01*
X186899500Y-87900000D02*
X186136500Y-88663000D01*
X244093600Y-159439700D02*
X244375000Y-159439700D01*
X281401400Y-212630700D02*
X262684600Y-212630700D01*
X286054600Y-162465100D02*
X265083700Y-162465100D01*
X305350300Y-215714400D02*
X284485100Y-215714400D01*
X307615000Y-214575000D02*
X306489700Y-214575000D01*
X213335200Y-168522300D02*
X208152800Y-173704700D01*
X248068300Y-156860700D02*
X243946100Y-156860700D01*
X261913600Y-159295000D02*
X250502600Y-159295000D01*
X243249700Y-157557100D02*
X243249700Y-158595800D01*
X139635300Y-88267400D02*
X139635300Y-87900000D01*
X207107500Y-174750000D02*
X207107500Y-173704700D01*
X138460000Y-87900000D02*
X139635300Y-87900000D01*
X306489700Y-214575000D02*
X305350300Y-215714400D01*
X140443200Y-89075300D02*
X139635300Y-88267400D01*
X243249700Y-158595800D02*
X244093600Y-159439700D01*
X291249700Y-157270000D02*
X286054600Y-162465100D01*
X292375000Y-157270000D02*
X291249700Y-157270000D01*
X235983500Y-168522300D02*
X213335200Y-168522300D01*
X159284700Y-88180000D02*
X158389400Y-89075300D01*
X265083700Y-162465100D02*
X261913600Y-159295000D01*
X250502600Y-159295000D02*
X248068300Y-156860700D01*
X158389400Y-89075300D02*
X140443200Y-89075300D01*
%TO.N,d2*%
X305364400Y-225860300D02*
X284935300Y-225860300D01*
X281495200Y-229300400D02*
X265305700Y-229300400D01*
X284935300Y-225860300D02*
X281495200Y-229300400D01*
X184000000Y-85285000D02*
X185175300Y-85285000D01*
X259615000Y-224735000D02*
X260740300Y-224735000D01*
X265305700Y-229300400D02*
X260740300Y-224735000D01*
X263517800Y-172510000D02*
X260831600Y-169823800D01*
X291249700Y-172510000D02*
X263517800Y-172510000D01*
X292375000Y-172510000D02*
X291249700Y-172510000D01*
X307615000Y-224735000D02*
X306489700Y-224735000D01*
X306489700Y-224735000D02*
X305364400Y-225860300D01*
X186275600Y-84184700D02*
X200016800Y-84184700D01*
X185175300Y-85285000D02*
X186275600Y-84184700D01*
X200016800Y-84184700D02*
X200824700Y-84992600D01*
X202000000Y-85360000D02*
X200824700Y-85360000D01*
X200824700Y-84992600D02*
X200824700Y-85360000D01*
%TO.N,a2*%
X179453600Y-84453900D02*
X162507900Y-84453900D01*
X284485100Y-213174400D02*
X281401400Y-210090700D01*
X185420400Y-86460300D02*
X183443200Y-86460300D01*
X292375000Y-159810000D02*
X291249700Y-159810000D01*
X139635300Y-85727300D02*
X140480300Y-86572300D01*
X307615000Y-212035000D02*
X306489700Y-212035000D01*
X261373400Y-161835000D02*
X249310400Y-161835000D01*
X180284700Y-85285000D02*
X179453600Y-84453900D01*
X207107500Y-177290000D02*
X207107500Y-176244700D01*
X181460000Y-85285000D02*
X180284700Y-85285000D01*
X142532200Y-85640000D02*
X160460000Y-85640000D01*
X233104100Y-173344400D02*
X230203800Y-176244700D01*
X290612900Y-159810000D02*
X287506800Y-162916100D01*
X141599900Y-86572300D02*
X142532200Y-85640000D01*
X306489700Y-212035000D02*
X305350300Y-213174400D01*
X183443200Y-86460300D02*
X182635300Y-85652400D01*
X281401400Y-210090700D02*
X262684600Y-210090700D01*
X244375000Y-158025000D02*
X245500300Y-158025000D01*
X245500400Y-158025000D02*
X245500300Y-158025000D01*
X291249700Y-159810000D02*
X290612900Y-159810000D01*
X262454500Y-162916100D02*
X261373400Y-161835000D01*
X182635300Y-85652400D02*
X182635300Y-85285000D01*
X161635300Y-85326500D02*
X161635300Y-85640000D01*
X186520700Y-85360000D02*
X185420400Y-86460300D01*
X160460000Y-85640000D02*
X161635300Y-85640000D01*
X230203800Y-176244700D02*
X207107500Y-176244700D01*
X162507900Y-84453900D02*
X161635300Y-85326500D01*
X287506800Y-162916100D02*
X262454500Y-162916100D01*
X305350300Y-213174400D02*
X284485100Y-213174400D01*
X199460000Y-85360000D02*
X186520700Y-85360000D01*
X139635300Y-85360000D02*
X139635300Y-85727300D01*
X249310400Y-161835000D02*
X245500400Y-158025000D01*
X140480300Y-86572300D02*
X141599900Y-86572300D01*
X259615000Y-212035000D02*
X260740300Y-212035000D01*
X262684600Y-210090700D02*
X260740300Y-212035000D01*
X181460000Y-85285000D02*
X182635300Y-85285000D01*
X138460000Y-85360000D02*
X139635300Y-85360000D01*
%TO.N,d1*%
X161822700Y-84277300D02*
X143632600Y-84277300D01*
X239256200Y-203000400D02*
X224751100Y-188495300D01*
X202000000Y-82820000D02*
X200824700Y-82820000D01*
X305364400Y-223320300D02*
X261865600Y-223320300D01*
X306489700Y-222195000D02*
X305364400Y-223320300D01*
X186275600Y-81644700D02*
X200016800Y-81644700D01*
X185175300Y-82745000D02*
X186275600Y-81644700D01*
X184000000Y-82745000D02*
X185175300Y-82745000D01*
X141000000Y-82820000D02*
X142175300Y-82820000D01*
X266884900Y-169970000D02*
X266259700Y-169344800D01*
X143632600Y-84277300D02*
X142175300Y-82820000D01*
X259615000Y-221351000D02*
X246275100Y-208011100D01*
X261865600Y-223320300D02*
X260740300Y-222195000D01*
X246275100Y-204718300D02*
X244557200Y-203000400D01*
X292375000Y-169970000D02*
X266884900Y-169970000D01*
X224751100Y-188495300D02*
X207107500Y-188495300D01*
X207107500Y-188495300D02*
X207107500Y-187450000D01*
X259615000Y-222195000D02*
X259615000Y-221351000D01*
X246275100Y-208011100D02*
X246275100Y-204718300D01*
X259615000Y-222195000D02*
X260740300Y-222195000D01*
X200824700Y-82452600D02*
X200824700Y-82820000D01*
X200016800Y-81644700D02*
X200824700Y-82452600D01*
X244557200Y-203000400D02*
X239256200Y-203000400D01*
X307615000Y-222195000D02*
X306489700Y-222195000D01*
X163000000Y-83100000D02*
X161822700Y-84277300D01*
%TO.N,a1*%
X284485100Y-210634400D02*
X281401400Y-207550700D01*
X162507900Y-81913900D02*
X179453600Y-81913900D01*
X207107500Y-179830000D02*
X207107500Y-178784700D01*
X262684600Y-207550700D02*
X260740300Y-209495000D01*
X206813500Y-178784700D02*
X205276600Y-177247800D01*
X161635300Y-83100000D02*
X161635300Y-82786500D01*
X306489700Y-209495000D02*
X305350300Y-210634400D01*
X208432900Y-163320000D02*
X211147700Y-160605200D01*
X259615000Y-209495000D02*
X260740300Y-209495000D01*
X161635300Y-82786500D02*
X162507900Y-81913900D01*
X290256400Y-162350000D02*
X291249700Y-162350000D01*
X244132600Y-161979600D02*
X248818100Y-161979600D01*
X281401400Y-207550700D02*
X262684600Y-207550700D01*
X288368300Y-164238100D02*
X290256400Y-162350000D01*
X242758200Y-160605200D02*
X244132600Y-161979600D01*
X207107500Y-178784700D02*
X206813500Y-178784700D01*
X185706100Y-83953000D02*
X186839100Y-82820000D01*
X206608400Y-163320000D02*
X208432900Y-163320000D01*
X181460000Y-82745000D02*
X180284700Y-82745000D01*
X211147700Y-160605200D02*
X242758200Y-160605200D01*
X242758200Y-160605200D02*
X242758200Y-157101800D01*
X182635300Y-83058500D02*
X183529800Y-83953000D01*
X307615000Y-209495000D02*
X306489700Y-209495000D01*
X305350300Y-210634400D02*
X284485100Y-210634400D01*
X248818100Y-161979600D02*
X251076600Y-164238100D01*
X160460000Y-83100000D02*
X161635300Y-83100000D01*
X242758200Y-157101800D02*
X244375000Y-155485000D01*
X183529800Y-83953000D02*
X185706100Y-83953000D01*
X179453600Y-81913900D02*
X180284700Y-82745000D01*
X251076600Y-164238100D02*
X288368300Y-164238100D01*
X205276600Y-177247800D02*
X205276600Y-164651800D01*
X292375000Y-162350000D02*
X291249700Y-162350000D01*
X182635300Y-82745000D02*
X182635300Y-83058500D01*
X181460000Y-82745000D02*
X182635300Y-82745000D01*
X186839100Y-82820000D02*
X199460000Y-82820000D01*
X205276600Y-164651800D02*
X206608400Y-163320000D01*
%TO.N,d0*%
X163000000Y-80560000D02*
X164175300Y-80560000D01*
X258489700Y-217685800D02*
X258489700Y-213884100D01*
X262671700Y-217723600D02*
X260740300Y-219655000D01*
X306489700Y-219655000D02*
X305350300Y-220794400D01*
X305350300Y-220794400D02*
X284485100Y-220794400D01*
X292375000Y-167430000D02*
X291249700Y-167430000D01*
X161457300Y-81735400D02*
X143630700Y-81735400D01*
X141000000Y-80280000D02*
X142175300Y-80280000D01*
X164995600Y-81380300D02*
X164175300Y-80560000D01*
X184000000Y-80205000D02*
X182824700Y-80205000D01*
X161824700Y-80560000D02*
X161824700Y-81368000D01*
X281414300Y-217723600D02*
X262671700Y-217723600D01*
X291249700Y-167430000D02*
X289764700Y-168915000D01*
X207107500Y-185955300D02*
X207107500Y-184910000D01*
X259615000Y-219655000D02*
X260740300Y-219655000D01*
X163000000Y-80560000D02*
X161824700Y-80560000D01*
X143630700Y-81735400D02*
X142175300Y-80280000D01*
X182824700Y-80205000D02*
X182824700Y-81013000D01*
X259615000Y-219655000D02*
X259615000Y-218811100D01*
X259615000Y-218811100D02*
X258489700Y-217685800D01*
X182457400Y-81380300D02*
X164995600Y-81380300D01*
X230560900Y-185955300D02*
X207107500Y-185955300D01*
X182824700Y-81013000D02*
X182457400Y-81380300D01*
X289764700Y-168915000D02*
X269670300Y-168915000D01*
X161824700Y-81368000D02*
X161457300Y-81735400D01*
X258489700Y-213884100D02*
X230560900Y-185955300D01*
X307615000Y-219655000D02*
X306489700Y-219655000D01*
X284485100Y-220794400D02*
X281414300Y-217723600D01*
%TO.N,a0*%
X258489700Y-204985800D02*
X258489700Y-204122500D01*
X305350300Y-208094400D02*
X284485100Y-208094400D01*
X196985500Y-78980800D02*
X182684200Y-78980800D01*
X182684200Y-78980800D02*
X181460000Y-80205000D01*
X259615000Y-206111100D02*
X258489700Y-204985800D01*
X281401400Y-205010700D02*
X262684600Y-205010700D01*
X237782500Y-183415300D02*
X232313100Y-183415300D01*
X207107500Y-182370000D02*
X207107500Y-183415300D01*
X198284700Y-80280000D02*
X196985500Y-78980800D01*
X284485100Y-208094400D02*
X281401400Y-205010700D01*
X207107500Y-183415300D02*
X232313100Y-183415300D01*
X307615000Y-206955000D02*
X306489700Y-206955000D01*
X262684600Y-205010700D02*
X260740300Y-206955000D01*
X232313100Y-183415300D02*
X232313100Y-182967600D01*
X259615000Y-206955000D02*
X259615000Y-206111100D01*
X306489700Y-206955000D02*
X305350300Y-208094400D01*
X199460000Y-80280000D02*
X198284700Y-80280000D01*
X258489700Y-204122500D02*
X237782500Y-183415300D01*
X259615000Y-206955000D02*
X260740300Y-206955000D01*
%TO.N,2pb5*%
X280000000Y-240825000D02*
X281175300Y-240825000D01*
X281175300Y-240825000D02*
X284565300Y-237435000D01*
X284565300Y-237435000D02*
X292375000Y-237435000D01*
%TO.N,2pb4*%
X280000000Y-238285000D02*
X281175300Y-238285000D01*
X281175300Y-238285000D02*
X284565300Y-234895000D01*
X284565300Y-234895000D02*
X292375000Y-234895000D01*
%TO.N,2pb3*%
X281175300Y-235745000D02*
X284565300Y-232355000D01*
X284565300Y-232355000D02*
X292375000Y-232355000D01*
X280000000Y-235745000D02*
X281175300Y-235745000D01*
%TO.N,2pb2*%
X280000000Y-233205000D02*
X281175300Y-233205000D01*
X284565300Y-229815000D02*
X292375000Y-229815000D01*
X281175300Y-233205000D02*
X284565300Y-229815000D01*
%TO.N,2pb1*%
X281175300Y-230665000D02*
X284565300Y-227275000D01*
X280000000Y-230665000D02*
X281175300Y-230665000D01*
X284565300Y-227275000D02*
X292375000Y-227275000D01*
%TO.N,2pb0*%
X284565300Y-224735000D02*
X292375000Y-224735000D01*
X280000000Y-228125000D02*
X281175300Y-228125000D01*
X281175300Y-228125000D02*
X284565300Y-224735000D01*
%TO.N,2pa7*%
X280000000Y-218905000D02*
X281175300Y-218905000D01*
X281175300Y-218905000D02*
X284465300Y-222195000D01*
X284465300Y-222195000D02*
X292375000Y-222195000D01*
%TO.N,2pa6*%
X292375000Y-219655000D02*
X284465300Y-219655000D01*
X280000000Y-216365000D02*
X281175300Y-216365000D01*
X284465300Y-219655000D02*
X281175300Y-216365000D01*
%TO.N,2pa5*%
X292375000Y-217115000D02*
X284465300Y-217115000D01*
X280000000Y-213825000D02*
X281175300Y-213825000D01*
X284465300Y-217115000D02*
X281175300Y-213825000D01*
%TO.N,2pa4*%
X284465300Y-214575000D02*
X281175300Y-211285000D01*
X280000000Y-211285000D02*
X281175300Y-211285000D01*
X292375000Y-214575000D02*
X284465300Y-214575000D01*
%TO.N,2pa3*%
X292375000Y-212035000D02*
X284465300Y-212035000D01*
X284465300Y-212035000D02*
X281175300Y-208745000D01*
X280000000Y-208745000D02*
X281175300Y-208745000D01*
%TO.N,2pa2*%
X292375000Y-209495000D02*
X284465300Y-209495000D01*
X284465300Y-209495000D02*
X281175300Y-206205000D01*
X280000000Y-206205000D02*
X281175300Y-206205000D01*
%TO.N,2pa1*%
X284465300Y-206955000D02*
X281175300Y-203665000D01*
X292375000Y-206955000D02*
X284465300Y-206955000D01*
X280000000Y-203665000D02*
X281175300Y-203665000D01*
%TO.N,2pa0*%
X280000000Y-201125000D02*
X281175300Y-201125000D01*
X284465300Y-204415000D02*
X292375000Y-204415000D01*
X281175300Y-201125000D02*
X284465300Y-204415000D01*
%TO.N,dev9*%
X179973800Y-129301700D02*
X180810600Y-130138500D01*
X233395400Y-119979600D02*
X241764800Y-119979600D01*
X223236500Y-130138500D02*
X233395400Y-119979600D01*
X180810600Y-130138500D02*
X223236500Y-130138500D01*
%TO.N,dev8*%
X188237800Y-133565900D02*
X188512900Y-133290800D01*
X226996000Y-133290800D02*
X228811500Y-131475300D01*
X188512900Y-133290800D02*
X226996000Y-133290800D01*
X228811500Y-131475300D02*
X229678000Y-131475300D01*
X229678000Y-131475300D02*
X236060700Y-125092600D01*
%TO.N,dev7*%
X247074700Y-109555000D02*
X233828500Y-109555000D01*
X248200000Y-109555000D02*
X247074700Y-109555000D01*
X209878200Y-115869600D02*
X208645900Y-114637300D01*
X233828500Y-109555000D02*
X227513900Y-115869600D01*
X208645900Y-114637300D02*
X187466500Y-114637300D01*
X227513900Y-115869600D02*
X209878200Y-115869600D01*
X187466500Y-114637300D02*
X186934100Y-115169700D01*
%TO.N,decode4*%
X302820000Y-116425000D02*
X301694700Y-116425000D01*
X300354700Y-115085000D02*
X301694700Y-116425000D01*
X281000000Y-115085000D02*
X300354700Y-115085000D01*
%TO.N,decode3*%
X282175300Y-112545000D02*
X289870000Y-104850300D01*
X281000000Y-112545000D02*
X282175300Y-112545000D01*
X289870000Y-104850300D02*
X300569400Y-104850300D01*
X300569400Y-104850300D02*
X301694700Y-103725000D01*
X302820000Y-103725000D02*
X301694700Y-103725000D01*
%TO.N,decode2*%
X300569400Y-102310300D02*
X301694700Y-101185000D01*
X282175300Y-110005000D02*
X289870000Y-102310300D01*
X302820000Y-101185000D02*
X301694700Y-101185000D01*
X289870000Y-102310300D02*
X300569400Y-102310300D01*
X281000000Y-110005000D02*
X282175300Y-110005000D01*
%TO.N,decode1*%
X302820000Y-96105000D02*
X301694700Y-96105000D01*
X289725300Y-99915000D02*
X297884700Y-99915000D01*
X282175300Y-107465000D02*
X289725300Y-99915000D01*
X297884700Y-99915000D02*
X301694700Y-96105000D01*
X281000000Y-107465000D02*
X282175300Y-107465000D01*
%TO.N,decode0*%
X281000000Y-104925000D02*
X282175300Y-104925000D01*
X283703400Y-104925000D02*
X291289100Y-97339300D01*
X297920400Y-97339300D02*
X301694700Y-93565000D01*
X302820000Y-93565000D02*
X301694700Y-93565000D01*
X282175300Y-104925000D02*
X283703400Y-104925000D01*
X291289100Y-97339300D02*
X297920400Y-97339300D01*
%TO.N,2CA2*%
X306489700Y-204327800D02*
X306489700Y-204415000D01*
X291161900Y-189000000D02*
X306489700Y-204327800D01*
X289905000Y-189000000D02*
X291161900Y-189000000D01*
X307615000Y-204415000D02*
X306489700Y-204415000D01*
%TO.N,2CA1*%
X288173000Y-189000000D02*
X289359500Y-187813500D01*
X289359500Y-187813500D02*
X291232300Y-187813500D01*
X291232300Y-187813500D02*
X305293800Y-201875000D01*
X287365000Y-189000000D02*
X288173000Y-189000000D01*
X305293800Y-201875000D02*
X307615000Y-201875000D01*
%TO.N,1CA2*%
X279745000Y-189000000D02*
X278937000Y-189000000D01*
X263522000Y-204415000D02*
X259615000Y-204415000D01*
X278937000Y-189000000D02*
X263522000Y-204415000D01*
%TO.N,1CA1*%
X276029700Y-189367300D02*
X263522000Y-201875000D01*
X276837700Y-189367300D02*
X277205000Y-189000000D01*
X263522000Y-201875000D02*
X259615000Y-201875000D01*
X276029700Y-189367300D02*
X276837700Y-189367300D01*
%TO.N,dev12*%
X255820000Y-117175000D02*
X254694700Y-117175000D01*
X233475800Y-116035600D02*
X253555300Y-116035600D01*
X203947800Y-118968800D02*
X230542600Y-118968800D01*
X230542600Y-118968800D02*
X233475800Y-116035600D01*
X253555300Y-116035600D02*
X254694700Y-117175000D01*
%TO.N,dev11*%
X233511500Y-118589700D02*
X253569400Y-118589700D01*
X255820000Y-119715000D02*
X254694700Y-119715000D01*
X200635300Y-123460000D02*
X200635300Y-123827300D01*
X253569400Y-118589700D02*
X254694700Y-119715000D01*
X200635300Y-123827300D02*
X201463800Y-124655800D01*
X205922100Y-123732500D02*
X228368700Y-123732500D01*
X228368700Y-123732500D02*
X233511500Y-118589700D01*
X199460000Y-123460000D02*
X200635300Y-123460000D01*
X204998800Y-124655800D02*
X205922100Y-123732500D01*
X201463800Y-124655800D02*
X204998800Y-124655800D01*
%TO.N,dev10*%
X230723600Y-119424700D02*
X232973300Y-117175000D01*
X200635300Y-120617100D02*
X201558200Y-119694200D01*
X211634000Y-119424700D02*
X230723600Y-119424700D01*
X232973300Y-117175000D02*
X248200000Y-117175000D01*
X200635300Y-120920000D02*
X200635300Y-120617100D01*
X201558200Y-119694200D02*
X211364500Y-119694200D01*
X199460000Y-120920000D02*
X200635300Y-120920000D01*
X211364500Y-119694200D02*
X211634000Y-119424700D01*
%TO.N,1pa5*%
X139760000Y-169952800D02*
X166618700Y-196811500D01*
X138360000Y-167640000D02*
X139760000Y-169040000D01*
X139760000Y-169040000D02*
X139760000Y-169952800D01*
X166618700Y-196811500D02*
X215709100Y-196811500D01*
X215709100Y-196811500D02*
X236012600Y-217115000D01*
X236012600Y-217115000D02*
X244375000Y-217115000D01*
%TO.N,a15*%
X179453600Y-117473900D02*
X180284700Y-118305000D01*
X200635300Y-118012700D02*
X201455100Y-117192900D01*
X250884700Y-110825000D02*
X254694700Y-107015000D01*
X182635300Y-118305000D02*
X182635300Y-117937700D01*
X204528500Y-117192900D02*
X204617600Y-117282000D01*
X180872400Y-118305000D02*
X181460000Y-118305000D01*
X181460000Y-118305000D02*
X182635300Y-118305000D01*
X256945300Y-107015000D02*
X265132900Y-107015000D01*
X199460000Y-118380000D02*
X200635300Y-118380000D01*
X160460000Y-118660000D02*
X161635300Y-118660000D01*
X289281800Y-98709700D02*
X291886500Y-96105000D01*
X184626300Y-117119100D02*
X185887200Y-118380000D01*
X204617600Y-117282000D02*
X228315800Y-117282000D01*
X180872400Y-118305000D02*
X180284700Y-118305000D01*
X273438200Y-98709700D02*
X289281800Y-98709700D01*
X200635300Y-118380000D02*
X200635300Y-118012700D01*
X185887200Y-118380000D02*
X199460000Y-118380000D01*
X234772800Y-110825000D02*
X250884700Y-110825000D01*
X161635300Y-118660000D02*
X161635300Y-118357100D01*
X295200000Y-96105000D02*
X294074700Y-96105000D01*
X183453900Y-117119100D02*
X184626300Y-117119100D01*
X265132900Y-107015000D02*
X273438200Y-98709700D01*
X255820000Y-107015000D02*
X256945300Y-107015000D01*
X161635300Y-118357100D02*
X162518500Y-117473900D01*
X255820000Y-107015000D02*
X254694700Y-107015000D01*
X182635300Y-117937700D02*
X183453900Y-117119100D01*
X291886500Y-96105000D02*
X294074700Y-96105000D01*
X228315800Y-117282000D02*
X234772800Y-110825000D01*
X201455100Y-117192900D02*
X204528500Y-117192900D01*
X162518500Y-117473900D02*
X179453600Y-117473900D01*
%TO.N,1pa4*%
X199853200Y-191260000D02*
X179749100Y-171155900D01*
X241516200Y-214575000D02*
X218201200Y-191260000D01*
X244375000Y-214575000D02*
X241516200Y-214575000D01*
X218201200Y-191260000D02*
X199853200Y-191260000D01*
X179749100Y-171155900D02*
X142575900Y-171155900D01*
X142575900Y-171155900D02*
X141160000Y-169740000D01*
%TO.N,dev3*%
X239000000Y-99540000D02*
X246929700Y-99540000D01*
X246929700Y-99540000D02*
X247074700Y-99395000D01*
X248200000Y-99395000D02*
X247074700Y-99395000D01*
%TO.N,dev2*%
X246929700Y-97000000D02*
X247074700Y-96855000D01*
X248200000Y-96855000D02*
X247074700Y-96855000D01*
X239000000Y-97000000D02*
X246929700Y-97000000D01*
%TO.N,dev15*%
X147745800Y-132840500D02*
X142080600Y-127175300D01*
X257895800Y-112474800D02*
X257895800Y-120596400D01*
X256101300Y-110680300D02*
X257895800Y-112474800D01*
X255820000Y-110680300D02*
X256101300Y-110680300D01*
X254124900Y-124367300D02*
X235740700Y-124367300D01*
X257895800Y-120596400D02*
X254124900Y-124367300D01*
X225827100Y-132840500D02*
X147745800Y-132840500D01*
X255820000Y-109555000D02*
X255820000Y-110680300D01*
X138460000Y-126000000D02*
X139635300Y-126000000D01*
X235740700Y-124367300D02*
X229242200Y-130865800D01*
X142080600Y-127175300D02*
X140443200Y-127175300D01*
X227801800Y-130865800D02*
X225827100Y-132840500D01*
X139635300Y-126367400D02*
X139635300Y-126000000D01*
X140443200Y-127175300D02*
X139635300Y-126367400D01*
X229242200Y-130865800D02*
X227801800Y-130865800D01*
%TO.N,dev14*%
X235554100Y-123917000D02*
X229055600Y-130415500D01*
X255820000Y-113220300D02*
X256101300Y-113220300D01*
X257425700Y-120400500D02*
X253909200Y-123917000D01*
X227615200Y-130415500D02*
X225640500Y-132390200D01*
X143838300Y-124635300D02*
X140443200Y-124635300D01*
X225640500Y-132390200D02*
X151593200Y-132390200D01*
X138460000Y-123460000D02*
X139635300Y-123460000D01*
X229055600Y-130415500D02*
X227615200Y-130415500D01*
X253909200Y-123917000D02*
X235554100Y-123917000D01*
X257425700Y-114544700D02*
X257425700Y-120400500D01*
X140443200Y-124635300D02*
X139635300Y-123827400D01*
X151593200Y-132390200D02*
X143838300Y-124635300D01*
X256101300Y-113220300D02*
X257425700Y-114544700D01*
X139635300Y-123827400D02*
X139635300Y-123460000D01*
X255820000Y-112095000D02*
X255820000Y-113220300D01*
%TO.N,dev13*%
X235367500Y-123466700D02*
X235187500Y-123646700D01*
X139635300Y-121287400D02*
X139635300Y-120920000D01*
X255820000Y-115760300D02*
X256101400Y-115760300D01*
X151793700Y-131939900D02*
X141949100Y-122095300D01*
X235187500Y-123646700D02*
X233747100Y-123646700D01*
X233747100Y-123646700D02*
X225453900Y-131939900D01*
X225453900Y-131939900D02*
X151793700Y-131939900D01*
X255820000Y-114635000D02*
X255820000Y-115760300D01*
X256945300Y-116604200D02*
X256945300Y-120214600D01*
X140443200Y-122095300D02*
X139635300Y-121287400D01*
X141949100Y-122095300D02*
X140443200Y-122095300D01*
X256101400Y-115760300D02*
X256945300Y-116604200D01*
X253693200Y-123466700D02*
X235367500Y-123466700D01*
X256945300Y-120214600D02*
X253693200Y-123466700D01*
X138460000Y-120920000D02*
X139635300Y-120920000D01*
%TO.N,1pa0*%
X307615000Y-139490000D02*
X306489700Y-139490000D01*
X292715300Y-153545700D02*
X281294300Y-153545700D01*
X281294300Y-153545700D02*
X274000000Y-160840000D01*
X306489700Y-139771300D02*
X292715300Y-153545700D01*
X306489700Y-139490000D02*
X306489700Y-139771300D01*
%TO.N,1pa1*%
X291249700Y-139490000D02*
X281826700Y-148913000D01*
X281826700Y-148913000D02*
X274538900Y-148913000D01*
X292375000Y-139490000D02*
X291249700Y-139490000D01*
%TO.N,1pa2*%
X274000000Y-167000000D02*
X286599700Y-167000000D01*
X308771600Y-147574500D02*
X308771600Y-144040400D01*
X290080800Y-163518900D02*
X293434900Y-163518900D01*
X307886500Y-143155300D02*
X307615000Y-143155300D01*
X295622500Y-160027700D02*
X307270200Y-148380000D01*
X307615000Y-142030000D02*
X307615000Y-143155300D01*
X307966100Y-148380000D02*
X308771600Y-147574500D01*
X308771600Y-144040400D02*
X307886500Y-143155300D01*
X307270200Y-148380000D02*
X307966100Y-148380000D01*
X293434900Y-163518900D02*
X295622500Y-161331300D01*
X295622500Y-161331300D02*
X295622500Y-160027700D01*
X286599700Y-167000000D02*
X290080800Y-163518900D01*
%TO.N,1pa3*%
X291249700Y-136950000D02*
X281519700Y-146680000D01*
X292375000Y-136950000D02*
X291249700Y-136950000D01*
X281519700Y-146680000D02*
X274000000Y-146680000D01*
%TO.N,2VIA_IRQ*%
X222135300Y-229725000D02*
X218325300Y-225915000D01*
X307615000Y-249291100D02*
X308740300Y-248165800D01*
X218325300Y-225915000D02*
X217200000Y-225915000D01*
X308740300Y-247128500D02*
X308025400Y-246413600D01*
X226973500Y-229725000D02*
X222135300Y-229725000D01*
X307615000Y-250135000D02*
X307615000Y-249291100D01*
X258634500Y-241245000D02*
X253554500Y-236165000D01*
X308740300Y-248165800D02*
X308740300Y-247128500D01*
X291054700Y-247115100D02*
X265820700Y-247115100D01*
X291756200Y-246413600D02*
X291054700Y-247115100D01*
X308025400Y-246413600D02*
X291756200Y-246413600D01*
X259950600Y-241245000D02*
X258634500Y-241245000D01*
X265820700Y-247115100D02*
X259950600Y-241245000D01*
X253554500Y-236165000D02*
X233413500Y-236165000D01*
X233413500Y-236165000D02*
X226973500Y-229725000D01*
%TO.N,DEVICE_CS*%
X288911800Y-94710200D02*
X287517000Y-96105000D01*
X287517000Y-96105000D02*
X268422500Y-96105000D01*
X255820000Y-104475000D02*
X256945300Y-104475000D01*
X260052500Y-104475000D02*
X256945300Y-104475000D01*
X303946700Y-93096400D02*
X303285900Y-92435600D01*
X299279400Y-94710200D02*
X288911800Y-94710200D01*
X303946700Y-96674300D02*
X303946700Y-93096400D01*
X303285900Y-92435600D02*
X301554000Y-92435600D01*
X303101300Y-97519700D02*
X303946700Y-96674300D01*
X268422500Y-96105000D02*
X260052500Y-104475000D01*
X302820000Y-98645000D02*
X302820000Y-97519700D01*
X301554000Y-92435600D02*
X299279400Y-94710200D01*
X302820000Y-97519700D02*
X303101300Y-97519700D01*
%TO.N,ROM_CS*%
X245635400Y-182047000D02*
X245784400Y-181898000D01*
X245784400Y-181898000D02*
X249220500Y-181898000D01*
X310122500Y-171648900D02*
X310122500Y-116107500D01*
X250289600Y-182967100D02*
X296560000Y-182967100D01*
X222347500Y-179830000D02*
X240819300Y-179830000D01*
X310122500Y-116107500D02*
X302820000Y-108805000D01*
X249220500Y-181898000D02*
X250289600Y-182967100D01*
X296560000Y-182967100D02*
X305747100Y-173780000D01*
X243036300Y-182047000D02*
X245635400Y-182047000D01*
X307991400Y-173780000D02*
X310122500Y-171648900D01*
X240819300Y-179830000D02*
X243036300Y-182047000D01*
X305747100Y-173780000D02*
X307991400Y-173780000D01*
%TO.N,WE*%
X229206800Y-133387600D02*
X228205700Y-133387600D01*
X287754300Y-113815000D02*
X275463800Y-113815000D01*
X302820000Y-111345000D02*
X301694700Y-111345000D01*
X264418200Y-124860600D02*
X237733800Y-124860600D01*
X301694700Y-111345000D02*
X300569400Y-112470300D01*
X275463800Y-113815000D02*
X264418200Y-124860600D01*
X237733800Y-124860600D02*
X229206800Y-133387600D01*
X289099000Y-112470300D02*
X287754300Y-113815000D01*
X300569400Y-112470300D02*
X289099000Y-112470300D01*
%TO.N,OE*%
X222347500Y-173704700D02*
X222041300Y-173704700D01*
X234849400Y-171113000D02*
X243249600Y-179513200D01*
X306476300Y-154275500D02*
X307291800Y-153460000D01*
X222347500Y-174750000D02*
X222347500Y-173704700D01*
X309190600Y-167446000D02*
X309190600Y-159753500D01*
X306476300Y-155287300D02*
X306476300Y-154275500D01*
X221008400Y-171735400D02*
X221630800Y-171113000D01*
X309221900Y-152254300D02*
X309221900Y-121130900D01*
X307615000Y-157270000D02*
X307615000Y-158395300D01*
X221008400Y-172671800D02*
X221008400Y-171735400D01*
X308053200Y-168583400D02*
X309190600Y-167446000D01*
X307615000Y-156707300D02*
X307615000Y-156144700D01*
X243249600Y-179513200D02*
X248194100Y-179513200D01*
X309190600Y-159753500D02*
X307832400Y-158395300D01*
X221630800Y-171113000D02*
X234849400Y-171113000D01*
X309221900Y-121130900D02*
X303101300Y-115010300D01*
X302820000Y-113885000D02*
X302820000Y-115010300D01*
X303101300Y-115010300D02*
X302820000Y-115010300D01*
X292744200Y-182010900D02*
X306171700Y-168583400D01*
X306171700Y-168583400D02*
X308053200Y-168583400D01*
X250691800Y-182010900D02*
X292744200Y-182010900D01*
X248194100Y-179513200D02*
X250691800Y-182010900D01*
X307333700Y-156144700D02*
X306476300Y-155287300D01*
X307615000Y-156144700D02*
X307333700Y-156144700D01*
X307832400Y-158395300D02*
X307615000Y-158395300D01*
X308016200Y-153460000D02*
X309221900Y-152254300D01*
X307615000Y-156707300D02*
X307615000Y-157270000D01*
X222041300Y-173704700D02*
X221008400Y-172671800D01*
X307291800Y-153460000D02*
X308016200Y-153460000D01*
%TO.N,VIA1_CS*%
X249325300Y-93744200D02*
X249325300Y-94491900D01*
X249325300Y-94491900D02*
X255486400Y-100653000D01*
X255486400Y-100653000D02*
X256890300Y-100653000D01*
X248200000Y-91775000D02*
X248200000Y-92900300D01*
X248481400Y-92900300D02*
X249325300Y-93744200D01*
X248200000Y-92900300D02*
X248481400Y-92900300D01*
X256890300Y-100653000D02*
X257078000Y-100840700D01*
%TO.N,1pb6*%
X181850800Y-239975000D02*
X244375000Y-239975000D01*
X153700800Y-209499400D02*
X153700800Y-211825000D01*
X153700800Y-211825000D02*
X181850800Y-239975000D01*
%TO.N,1pb5*%
X181401100Y-237435000D02*
X154970800Y-211004700D01*
X154970800Y-211004700D02*
X154970800Y-207941500D01*
X154970800Y-207941500D02*
X154194900Y-207165600D01*
X154194900Y-207165600D02*
X153225000Y-207165600D01*
X244375000Y-237435000D02*
X181401100Y-237435000D01*
X151160800Y-209229800D02*
X151160800Y-209499400D01*
X153225000Y-207165600D02*
X151160800Y-209229800D01*
%TO.N,1pb4*%
X148620800Y-209499400D02*
X148620800Y-209208600D01*
X163867500Y-206715200D02*
X165130800Y-207978500D01*
X178569900Y-224500400D02*
X225474300Y-224500400D01*
X165130800Y-211061300D02*
X178569900Y-224500400D01*
X151114200Y-206715200D02*
X163867500Y-206715200D01*
X235868900Y-234895000D02*
X244375000Y-234895000D01*
X225474300Y-224500400D02*
X235868900Y-234895000D01*
X148620800Y-209208600D02*
X151114200Y-206715200D01*
X165130800Y-207978500D02*
X165130800Y-211061300D01*
%TO.N,1pb3*%
X245993600Y-230736400D02*
X244375000Y-232355000D01*
X245993600Y-224761700D02*
X245993600Y-230736400D01*
X174020800Y-209732300D02*
X183413900Y-219125400D01*
X238770100Y-219125400D02*
X243109700Y-223465000D01*
X244696900Y-223465000D02*
X245993600Y-224761700D01*
X243109700Y-223465000D02*
X244696900Y-223465000D01*
X174020800Y-209499400D02*
X174020800Y-209732300D01*
X183413900Y-219125400D02*
X238770100Y-219125400D01*
%TO.N,1pb2*%
X238689600Y-220926600D02*
X180582400Y-220926600D01*
X180582400Y-220926600D02*
X171480800Y-211825000D01*
X245500300Y-226729200D02*
X244776100Y-226005000D01*
X171480800Y-211825000D02*
X171480800Y-209499400D01*
X245500300Y-228689700D02*
X245500300Y-226729200D01*
X243768000Y-226005000D02*
X238689600Y-220926600D01*
X244375000Y-229815000D02*
X245500300Y-228689700D01*
X244776100Y-226005000D02*
X243768000Y-226005000D01*
%TO.N,1pb1*%
X168940800Y-211825000D02*
X178492700Y-221376900D01*
X178492700Y-221376900D02*
X237351600Y-221376900D01*
X168940800Y-209499400D02*
X168940800Y-211825000D01*
X244375000Y-227275000D02*
X243249700Y-227275000D01*
X237351600Y-221376900D02*
X243249700Y-227275000D01*
%TO.N,1pb0*%
X181760000Y-220026000D02*
X238540700Y-220026000D01*
X172750800Y-211016800D02*
X181760000Y-220026000D01*
X166400800Y-209249600D02*
X168489900Y-207160500D01*
X172750800Y-207978000D02*
X172750800Y-211016800D01*
X171933300Y-207160500D02*
X172750800Y-207978000D01*
X244375000Y-224735000D02*
X243249700Y-224735000D01*
X168489900Y-207160500D02*
X171933300Y-207160500D01*
X166400800Y-209499400D02*
X166400800Y-209249600D01*
X238540700Y-220026000D02*
X243249700Y-224735000D01*
%TO.N,Net-(J13-Pad1)*%
X151886700Y-147320000D02*
X162000000Y-157433300D01*
X143160000Y-147320000D02*
X151886700Y-147320000D01*
%TD*%
M02*
