%TF.GenerationSoftware,KiCad,Pcbnew,(6.0.7)*%
%TF.CreationDate,2022-08-24T10:03:48-05:00*%
%TF.ProjectId,6502,36353032-2e6b-4696-9361-645f70636258,rev?*%
%TF.SameCoordinates,Original*%
%TF.FileFunction,Soldermask,Top*%
%TF.FilePolarity,Negative*%
%FSLAX46Y46*%
G04 Gerber Fmt 4.6, Leading zero omitted, Abs format (unit mm)*
G04 Created by KiCad (PCBNEW (6.0.7)) date 2022-08-24 10:03:48*
%MOMM*%
%LPD*%
G01*
G04 APERTURE LIST*
G04 Aperture macros list*
%AMRoundRect*
0 Rectangle with rounded corners*
0 $1 Rounding radius*
0 $2 $3 $4 $5 $6 $7 $8 $9 X,Y pos of 4 corners*
0 Add a 4 corners polygon primitive as box body*
4,1,4,$2,$3,$4,$5,$6,$7,$8,$9,$2,$3,0*
0 Add four circle primitives for the rounded corners*
1,1,$1+$1,$2,$3*
1,1,$1+$1,$4,$5*
1,1,$1+$1,$6,$7*
1,1,$1+$1,$8,$9*
0 Add four rect primitives between the rounded corners*
20,1,$1+$1,$2,$3,$4,$5,0*
20,1,$1+$1,$4,$5,$6,$7,0*
20,1,$1+$1,$6,$7,$8,$9,0*
20,1,$1+$1,$8,$9,$2,$3,0*%
G04 Aperture macros list end*
%ADD10R,1.700000X1.700000*%
%ADD11O,1.700000X1.700000*%
%ADD12C,1.600000*%
%ADD13R,1.600000X1.600000*%
%ADD14O,1.600000X1.600000*%
%ADD15C,8.000000*%
%ADD16O,1.501140X4.000500*%
%ADD17O,3.500000X2.000000*%
%ADD18O,2.000000X4.000000*%
%ADD19C,1.440000*%
%ADD20R,3.500000X3.500000*%
%ADD21RoundRect,0.750000X-0.750000X-1.000000X0.750000X-1.000000X0.750000X1.000000X-0.750000X1.000000X0*%
%ADD22RoundRect,0.875000X-0.875000X-0.875000X0.875000X-0.875000X0.875000X0.875000X-0.875000X0.875000X0*%
%ADD23R,2.000000X1.440000*%
%ADD24O,2.000000X1.440000*%
%ADD25C,2.000000*%
%ADD26R,1.717500X1.800000*%
%ADD27O,1.717500X1.800000*%
%ADD28R,5.700000X6.200000*%
%ADD29R,1.800000X1.800000*%
%ADD30C,1.800000*%
G04 APERTURE END LIST*
D10*
%TO.C,J3*%
X214000000Y-224500000D03*
D11*
X214000000Y-227040000D03*
X214000000Y-229580000D03*
%TD*%
D12*
%TO.C,C6*%
X158500000Y-170000000D03*
X163500000Y-170000000D03*
%TD*%
D13*
%TO.C,U5*%
X228375000Y-132625000D03*
D14*
X228375000Y-135165000D03*
X228375000Y-137705000D03*
X228375000Y-140245000D03*
X228375000Y-142785000D03*
X228375000Y-145325000D03*
X228375000Y-147865000D03*
X228375000Y-150405000D03*
X228375000Y-152945000D03*
X228375000Y-155485000D03*
X228375000Y-158025000D03*
X228375000Y-160565000D03*
X228375000Y-163105000D03*
X228375000Y-165645000D03*
X228375000Y-168185000D03*
X228375000Y-170725000D03*
X228375000Y-173265000D03*
X228375000Y-175805000D03*
X228375000Y-178345000D03*
X228375000Y-180885000D03*
X243615000Y-180885000D03*
X243615000Y-178345000D03*
X243615000Y-175805000D03*
X243615000Y-173265000D03*
X243615000Y-170725000D03*
X243615000Y-168185000D03*
X243615000Y-165645000D03*
X243615000Y-163105000D03*
X243615000Y-160565000D03*
X243615000Y-158025000D03*
X243615000Y-155485000D03*
X243615000Y-152945000D03*
X243615000Y-150405000D03*
X243615000Y-147865000D03*
X243615000Y-145325000D03*
X243615000Y-142785000D03*
X243615000Y-140245000D03*
X243615000Y-137705000D03*
X243615000Y-135165000D03*
X243615000Y-132625000D03*
%TD*%
D12*
%TO.C,C5*%
X233500000Y-86750000D03*
X238500000Y-86750000D03*
%TD*%
D13*
%TO.C,U2*%
X232200000Y-91775000D03*
D14*
X232200000Y-94315000D03*
X232200000Y-96855000D03*
X232200000Y-99395000D03*
X232200000Y-101935000D03*
X232200000Y-104475000D03*
X232200000Y-107015000D03*
X232200000Y-109555000D03*
X232200000Y-112095000D03*
X232200000Y-114635000D03*
X232200000Y-117175000D03*
X232200000Y-119715000D03*
X239820000Y-119715000D03*
X239820000Y-117175000D03*
X239820000Y-114635000D03*
X239820000Y-112095000D03*
X239820000Y-109555000D03*
X239820000Y-107015000D03*
X239820000Y-104475000D03*
X239820000Y-101935000D03*
X239820000Y-99395000D03*
X239820000Y-96855000D03*
X239820000Y-94315000D03*
X239820000Y-91775000D03*
%TD*%
D15*
%TO.C,REF2*%
X280000000Y-76000000D03*
%TD*%
D16*
%TO.C,U9*%
X141000840Y-209499420D03*
X143540840Y-209499420D03*
X146080840Y-209499420D03*
X148620840Y-209499420D03*
X151160840Y-209499420D03*
X153700840Y-209499420D03*
X156240840Y-209499420D03*
X158780840Y-209499420D03*
X161320840Y-209499420D03*
X163860840Y-209499420D03*
X166400840Y-209499420D03*
X168940840Y-209499420D03*
X171480840Y-209499420D03*
X174020840Y-209499420D03*
X176560840Y-209499420D03*
X179100840Y-209499420D03*
%TD*%
D12*
%TO.C,R7*%
X258000000Y-146680000D03*
D14*
X250380000Y-146680000D03*
%TD*%
D12*
%TO.C,R8*%
X250190000Y-141000000D03*
D14*
X257810000Y-141000000D03*
%TD*%
D12*
%TO.C,R2*%
X211190000Y-134000000D03*
D14*
X218810000Y-134000000D03*
%TD*%
D13*
%TO.C,J11*%
X138360000Y-167640000D03*
D12*
X138360000Y-165040000D03*
X138360000Y-169740000D03*
X138360000Y-162940000D03*
X141160000Y-169740000D03*
X141160000Y-162940000D03*
D17*
X135510000Y-173190000D03*
D18*
X134710000Y-166340000D03*
D17*
X135510000Y-159490000D03*
%TD*%
D12*
%TO.C,C10*%
X233500000Y-196750000D03*
X238500000Y-196750000D03*
%TD*%
D13*
%TO.C,X1*%
X158380000Y-191810000D03*
D12*
X173620000Y-191810000D03*
X173620000Y-184190000D03*
X158380000Y-184190000D03*
%TD*%
D10*
%TO.C,J12*%
X138460000Y-80280000D03*
D11*
X141000000Y-80280000D03*
X138460000Y-82820000D03*
X141000000Y-82820000D03*
X138460000Y-85360000D03*
X141000000Y-85360000D03*
X138460000Y-87900000D03*
X141000000Y-87900000D03*
X138460000Y-90440000D03*
X141000000Y-90440000D03*
X138460000Y-92980000D03*
X141000000Y-92980000D03*
X138460000Y-95520000D03*
X141000000Y-95520000D03*
X138460000Y-98060000D03*
X141000000Y-98060000D03*
X138460000Y-100600000D03*
X141000000Y-100600000D03*
X138460000Y-103140000D03*
X141000000Y-103140000D03*
X138460000Y-105680000D03*
X141000000Y-105680000D03*
X138460000Y-108220000D03*
X141000000Y-108220000D03*
X138460000Y-110760000D03*
X141000000Y-110760000D03*
X138460000Y-113300000D03*
X141000000Y-113300000D03*
X138460000Y-115840000D03*
X141000000Y-115840000D03*
X138460000Y-118380000D03*
X141000000Y-118380000D03*
X138460000Y-120920000D03*
X141000000Y-120920000D03*
X138460000Y-123460000D03*
X141000000Y-123460000D03*
X138460000Y-126000000D03*
X141000000Y-126000000D03*
X138460000Y-128540000D03*
X141000000Y-128540000D03*
%TD*%
D10*
%TO.C,J10*%
X199460000Y-80280000D03*
D11*
X202000000Y-80280000D03*
X199460000Y-82820000D03*
X202000000Y-82820000D03*
X199460000Y-85360000D03*
X202000000Y-85360000D03*
X199460000Y-87900000D03*
X202000000Y-87900000D03*
X199460000Y-90440000D03*
X202000000Y-90440000D03*
X199460000Y-92980000D03*
X202000000Y-92980000D03*
X199460000Y-95520000D03*
X202000000Y-95520000D03*
X199460000Y-98060000D03*
X202000000Y-98060000D03*
X199460000Y-100600000D03*
X202000000Y-100600000D03*
X199460000Y-103140000D03*
X202000000Y-103140000D03*
X199460000Y-105680000D03*
X202000000Y-105680000D03*
X199460000Y-108220000D03*
X202000000Y-108220000D03*
X199460000Y-110760000D03*
X202000000Y-110760000D03*
X199460000Y-113300000D03*
X202000000Y-113300000D03*
X199460000Y-115840000D03*
X202000000Y-115840000D03*
X199460000Y-118380000D03*
X202000000Y-118380000D03*
X199460000Y-120920000D03*
X202000000Y-120920000D03*
X199460000Y-123460000D03*
X202000000Y-123460000D03*
X199460000Y-126000000D03*
X202000000Y-126000000D03*
X199460000Y-128540000D03*
X202000000Y-128540000D03*
%TD*%
D12*
%TO.C,C8*%
X212500000Y-91000000D03*
X217500000Y-91000000D03*
%TD*%
%TO.C,R6*%
X211190000Y-114000000D03*
D14*
X218810000Y-114000000D03*
%TD*%
D10*
%TO.C,J14*%
X150000000Y-146000000D03*
D11*
X150000000Y-148540000D03*
%TD*%
D13*
%TO.C,U4*%
X263700000Y-91525000D03*
D14*
X263700000Y-94065000D03*
X263700000Y-96605000D03*
X263700000Y-99145000D03*
X263700000Y-101685000D03*
X263700000Y-104225000D03*
X263700000Y-106765000D03*
X263700000Y-109305000D03*
X263700000Y-111845000D03*
X263700000Y-114385000D03*
X263700000Y-116925000D03*
X263700000Y-119465000D03*
X271320000Y-119465000D03*
X271320000Y-116925000D03*
X271320000Y-114385000D03*
X271320000Y-111845000D03*
X271320000Y-109305000D03*
X271320000Y-106765000D03*
X271320000Y-104225000D03*
X271320000Y-101685000D03*
X271320000Y-99145000D03*
X271320000Y-96605000D03*
X271320000Y-94065000D03*
X271320000Y-91525000D03*
%TD*%
D12*
%TO.C,C9*%
X265000000Y-86500000D03*
X270000000Y-86500000D03*
%TD*%
D15*
%TO.C,REF4*%
X280000000Y-261000000D03*
%TD*%
D10*
%TO.C,J8*%
X249500000Y-92275000D03*
D11*
X249500000Y-94815000D03*
%TD*%
D13*
%TO.C,U1*%
X176200000Y-155375000D03*
D14*
X176200000Y-157915000D03*
X176200000Y-160455000D03*
X176200000Y-162995000D03*
X176200000Y-165535000D03*
X176200000Y-168075000D03*
X176200000Y-170615000D03*
X183820000Y-170615000D03*
X183820000Y-168075000D03*
X183820000Y-165535000D03*
X183820000Y-162995000D03*
X183820000Y-160455000D03*
X183820000Y-157915000D03*
X183820000Y-155375000D03*
%TD*%
D12*
%TO.C,C7*%
X202500000Y-143500000D03*
X207500000Y-143500000D03*
%TD*%
D15*
%TO.C,REF1*%
X133000000Y-76000000D03*
%TD*%
D19*
%TO.C,RV1*%
X139525000Y-183775000D03*
X136985000Y-186315000D03*
X134445000Y-183775000D03*
%TD*%
D15*
%TO.C,REF3*%
X133000000Y-261500000D03*
%TD*%
D12*
%TO.C,R9*%
X160810000Y-139000000D03*
D14*
X153190000Y-139000000D03*
%TD*%
D10*
%TO.C,J9*%
X224500000Y-97000000D03*
D11*
X224500000Y-99540000D03*
%TD*%
D12*
%TO.C,C4*%
X269500000Y-132000000D03*
X274500000Y-132000000D03*
%TD*%
D10*
%TO.C,J2*%
X252500000Y-201125000D03*
D11*
X252500000Y-203665000D03*
X252500000Y-206205000D03*
X252500000Y-208745000D03*
X252500000Y-211285000D03*
X252500000Y-213825000D03*
X252500000Y-216365000D03*
X252500000Y-218905000D03*
%TD*%
D10*
%TO.C,J5*%
X256125000Y-189000000D03*
D11*
X258665000Y-189000000D03*
X261205000Y-189000000D03*
X263745000Y-189000000D03*
X266285000Y-189000000D03*
X268825000Y-189000000D03*
X271365000Y-189000000D03*
X273905000Y-189000000D03*
%TD*%
D13*
%TO.C,U7*%
X264375000Y-201875000D03*
D14*
X264375000Y-204415000D03*
X264375000Y-206955000D03*
X264375000Y-209495000D03*
X264375000Y-212035000D03*
X264375000Y-214575000D03*
X264375000Y-217115000D03*
X264375000Y-219655000D03*
X264375000Y-222195000D03*
X264375000Y-224735000D03*
X264375000Y-227275000D03*
X264375000Y-229815000D03*
X264375000Y-232355000D03*
X264375000Y-234895000D03*
X264375000Y-237435000D03*
X264375000Y-239975000D03*
X264375000Y-242515000D03*
X264375000Y-245055000D03*
X264375000Y-247595000D03*
X264375000Y-250135000D03*
X279615000Y-250135000D03*
X279615000Y-247595000D03*
X279615000Y-245055000D03*
X279615000Y-242515000D03*
X279615000Y-239975000D03*
X279615000Y-237435000D03*
X279615000Y-234895000D03*
X279615000Y-232355000D03*
X279615000Y-229815000D03*
X279615000Y-227275000D03*
X279615000Y-224735000D03*
X279615000Y-222195000D03*
X279615000Y-219655000D03*
X279615000Y-217115000D03*
X279615000Y-214575000D03*
X279615000Y-212035000D03*
X279615000Y-209495000D03*
X279615000Y-206955000D03*
X279615000Y-204415000D03*
X279615000Y-201875000D03*
%TD*%
D12*
%TO.C,C2*%
X269500000Y-197000000D03*
X274500000Y-197000000D03*
%TD*%
D10*
%TO.C,J4*%
X160460000Y-80560000D03*
D11*
X163000000Y-80560000D03*
X160460000Y-83100000D03*
X163000000Y-83100000D03*
X160460000Y-85640000D03*
X163000000Y-85640000D03*
X160460000Y-88180000D03*
X163000000Y-88180000D03*
X160460000Y-90720000D03*
X163000000Y-90720000D03*
X160460000Y-93260000D03*
X163000000Y-93260000D03*
X160460000Y-95800000D03*
X163000000Y-95800000D03*
X160460000Y-98340000D03*
X163000000Y-98340000D03*
X160460000Y-100880000D03*
X163000000Y-100880000D03*
X160460000Y-103420000D03*
X163000000Y-103420000D03*
X160460000Y-105960000D03*
X163000000Y-105960000D03*
X160460000Y-108500000D03*
X163000000Y-108500000D03*
X160460000Y-111040000D03*
X163000000Y-111040000D03*
X160460000Y-113580000D03*
X163000000Y-113580000D03*
X160460000Y-116120000D03*
X163000000Y-116120000D03*
X160460000Y-118660000D03*
X163000000Y-118660000D03*
X160460000Y-121200000D03*
X163000000Y-121200000D03*
X160460000Y-123740000D03*
X163000000Y-123740000D03*
X160460000Y-126280000D03*
X163000000Y-126280000D03*
X160460000Y-128820000D03*
X163000000Y-128820000D03*
%TD*%
D12*
%TO.C,R4*%
X258000000Y-154300000D03*
D14*
X250380000Y-154300000D03*
%TD*%
D20*
%TO.C,J13*%
X143160000Y-147320000D03*
D21*
X137160000Y-147320000D03*
D22*
X140160000Y-152020000D03*
%TD*%
D23*
%TO.C,U3*%
X198107500Y-158010000D03*
D24*
X198107500Y-160550000D03*
X198107500Y-163090000D03*
X198107500Y-165630000D03*
X198107500Y-168170000D03*
X198107500Y-170710000D03*
X198107500Y-173250000D03*
X198107500Y-175790000D03*
X198107500Y-178330000D03*
X198107500Y-180870000D03*
X198107500Y-183410000D03*
X198107500Y-185950000D03*
X198107500Y-188490000D03*
X198107500Y-191030000D03*
X213347500Y-191030000D03*
X213347500Y-188490000D03*
X213347500Y-185950000D03*
X213347500Y-183410000D03*
X213347500Y-180870000D03*
X213347500Y-178330000D03*
X213347500Y-175790000D03*
X213347500Y-173250000D03*
X213347500Y-170710000D03*
X213347500Y-168170000D03*
X213347500Y-165630000D03*
X213347500Y-163090000D03*
X213347500Y-160550000D03*
X213347500Y-158010000D03*
%TD*%
D25*
%TO.C,SW1*%
X211750000Y-95750000D03*
X218250000Y-95750000D03*
X218250000Y-100250000D03*
X211750000Y-100250000D03*
%TD*%
D12*
%TO.C,C1*%
X177500000Y-150000000D03*
X182500000Y-150000000D03*
%TD*%
D26*
%TO.C,Q1*%
X159710000Y-157433300D03*
D27*
X162000000Y-157433300D03*
X164290000Y-157433300D03*
D28*
X162000000Y-149999967D03*
%TD*%
D10*
%TO.C,J6*%
X249500000Y-105425000D03*
D11*
X249500000Y-107965000D03*
X249500000Y-110505000D03*
X249500000Y-113045000D03*
X249500000Y-115585000D03*
%TD*%
D12*
%TO.C,C3*%
X233500000Y-127750000D03*
X238500000Y-127750000D03*
%TD*%
D10*
%TO.C,J7*%
X181460000Y-80205000D03*
D11*
X184000000Y-80205000D03*
X181460000Y-82745000D03*
X184000000Y-82745000D03*
X181460000Y-85285000D03*
X184000000Y-85285000D03*
X181460000Y-87825000D03*
X184000000Y-87825000D03*
X181460000Y-90365000D03*
X184000000Y-90365000D03*
X181460000Y-92905000D03*
X184000000Y-92905000D03*
X181460000Y-95445000D03*
X184000000Y-95445000D03*
X181460000Y-97985000D03*
X184000000Y-97985000D03*
X181460000Y-100525000D03*
X184000000Y-100525000D03*
X181460000Y-103065000D03*
X184000000Y-103065000D03*
X181460000Y-105605000D03*
X184000000Y-105605000D03*
X181460000Y-108145000D03*
X184000000Y-108145000D03*
X181460000Y-110685000D03*
X184000000Y-110685000D03*
X181460000Y-113225000D03*
X184000000Y-113225000D03*
X181460000Y-115765000D03*
X184000000Y-115765000D03*
X181460000Y-118305000D03*
X184000000Y-118305000D03*
X181460000Y-120845000D03*
X184000000Y-120845000D03*
X181460000Y-123385000D03*
X184000000Y-123385000D03*
X181460000Y-125925000D03*
X184000000Y-125925000D03*
X181460000Y-128465000D03*
X184000000Y-128465000D03*
%TD*%
D13*
%TO.C,U6*%
X264375000Y-136950000D03*
D14*
X264375000Y-139490000D03*
X264375000Y-142030000D03*
X264375000Y-144570000D03*
X264375000Y-147110000D03*
X264375000Y-149650000D03*
X264375000Y-152190000D03*
X264375000Y-154730000D03*
X264375000Y-157270000D03*
X264375000Y-159810000D03*
X264375000Y-162350000D03*
X264375000Y-164890000D03*
X264375000Y-167430000D03*
X264375000Y-169970000D03*
X264375000Y-172510000D03*
X264375000Y-175050000D03*
X279615000Y-175050000D03*
X279615000Y-172510000D03*
X279615000Y-169970000D03*
X279615000Y-167430000D03*
X279615000Y-164890000D03*
X279615000Y-162350000D03*
X279615000Y-159810000D03*
X279615000Y-157270000D03*
X279615000Y-154730000D03*
X279615000Y-152190000D03*
X279615000Y-149650000D03*
X279615000Y-147110000D03*
X279615000Y-144570000D03*
X279615000Y-142030000D03*
X279615000Y-139490000D03*
X279615000Y-136950000D03*
%TD*%
D29*
%TO.C,D1*%
X168000000Y-139000000D03*
D30*
X165460000Y-139000000D03*
%TD*%
D12*
%TO.C,R3*%
X258000000Y-160840000D03*
D14*
X250380000Y-160840000D03*
%TD*%
D10*
%TO.C,J1*%
X252500000Y-228125000D03*
D11*
X252500000Y-230665000D03*
X252500000Y-233205000D03*
X252500000Y-235745000D03*
X252500000Y-238285000D03*
X252500000Y-240825000D03*
X252500000Y-243365000D03*
X252500000Y-245905000D03*
%TD*%
D13*
%TO.C,U8*%
X228375000Y-201875000D03*
D14*
X228375000Y-204415000D03*
X228375000Y-206955000D03*
X228375000Y-209495000D03*
X228375000Y-212035000D03*
X228375000Y-214575000D03*
X228375000Y-217115000D03*
X228375000Y-219655000D03*
X228375000Y-222195000D03*
X228375000Y-224735000D03*
X228375000Y-227275000D03*
X228375000Y-229815000D03*
X228375000Y-232355000D03*
X228375000Y-234895000D03*
X228375000Y-237435000D03*
X228375000Y-239975000D03*
X228375000Y-242515000D03*
X228375000Y-245055000D03*
X228375000Y-247595000D03*
X228375000Y-250135000D03*
X243615000Y-250135000D03*
X243615000Y-247595000D03*
X243615000Y-245055000D03*
X243615000Y-242515000D03*
X243615000Y-239975000D03*
X243615000Y-237435000D03*
X243615000Y-234895000D03*
X243615000Y-232355000D03*
X243615000Y-229815000D03*
X243615000Y-227275000D03*
X243615000Y-224735000D03*
X243615000Y-222195000D03*
X243615000Y-219655000D03*
X243615000Y-217115000D03*
X243615000Y-214575000D03*
X243615000Y-212035000D03*
X243615000Y-209495000D03*
X243615000Y-206955000D03*
X243615000Y-204415000D03*
X243615000Y-201875000D03*
%TD*%
D12*
%TO.C,R5*%
X258000000Y-167000000D03*
D14*
X250380000Y-167000000D03*
%TD*%
D12*
%TO.C,R1*%
X211190000Y-107000000D03*
D14*
X218810000Y-107000000D03*
%TD*%
D25*
%TO.C,SW2*%
X211750000Y-120750000D03*
X218250000Y-120750000D03*
X218250000Y-125250000D03*
X211750000Y-125250000D03*
%TD*%
D12*
%TO.C,C11*%
X132500000Y-202000000D03*
X137500000Y-202000000D03*
%TD*%
M02*
