M48
; DRILL file {KiCad (6.0.7)} date Sun Aug 28 18:23:31 2022
; FORMAT={-:-/ absolute / inch / decimal}
; #@! TF.CreationDate,2022-08-28T18:23:31-05:00
; #@! TF.GenerationSoftware,Kicad,Pcbnew,(6.0.7)
; #@! TF.FileFunction,MixedPlating,1,2
FMAT,2
INCH
; #@! TA.AperFunction,Plated,PTH,ViaDrill
T1C0.0157
; #@! TA.AperFunction,Plated,PTH,ComponentDrill
T2C0.0276
; #@! TA.AperFunction,Plated,PTH,ComponentDrill
T3C0.0315
; #@! TA.AperFunction,Plated,PTH,ComponentDrill
T4C0.0354
; #@! TA.AperFunction,Plated,PTH,ComponentDrill
T5C0.0394
; #@! TA.AperFunction,Plated,PTH,ComponentDrill
T6C0.0394
; #@! TA.AperFunction,Plated,PTH,ComponentDrill
T7C0.0433
; #@! TA.AperFunction,Plated,PTH,ComponentDrill
T8C0.1181
%
G90
G05
T1
X5.7044Y-5.4764
X6.5617Y-5.4596
X6.8063Y-4.307
X6.8708Y-3.6103
X6.9179Y-4.504
X6.9418Y-3.6103
X6.9554Y-6.6429
X6.9564Y-6.7172
X6.9932Y-4.176
X7.0033Y-7.036
X7.0534Y-4.1279
X7.1226Y-5.5725
X7.1843Y-5.4153
X7.2051Y-5.7437
X7.2391Y-6.1199
X7.4029Y-7.1268
X7.4511Y-5.4596
X7.5022Y-7.1066
X7.5976Y-6.9811
X7.6047Y-7.5208
X7.6113Y-6.632
X7.7853Y-5.2533
X7.9792Y-5.3067
X8.0372Y-5.5259
X8.0459Y-5.1736
X8.05Y-6.5818
X8.0519Y-5.0596
X8.0553Y-4.9282
X8.0745Y-5.6264
X8.1218Y-7.5591
X8.1432Y-7.1363
X8.1684Y-5.2356
X8.1847Y-6.4398
X8.2087Y-3.4449
X8.2139Y-6.5355
X8.2183Y-7.1817
X8.2575Y-5.1169
X8.3208Y-7.8305
X8.4355Y-4.8618
X8.449Y-4.6148
X8.4507Y-7.0556
X8.5165Y-8.449
X8.6107Y-6.7252
X8.6274Y-6.6284
X8.6311Y-6.8783
X8.6412Y-8.8303
X8.6728Y-8.91
X8.6933Y-6.8786
X8.7368Y-4.2059
X8.7925Y-4.1596
X8.8401Y-6.335
X8.8598Y-4.0602
X8.9632Y-8.0436
X9.0188Y-7.291
X9.0285Y-5.7849
X9.0569Y-7.9499
X9.1414Y-5.9722
X9.1489Y-8.8428
X9.2072Y-6.0613
X9.2561Y-3.7777
X9.265Y-6.11
X9.2756Y-7.4631
X9.2871Y-5.5742
X9.296Y-9.0947
X9.4003Y-5.8714
X9.418Y-4.0626
X9.4744Y-6.9722
X9.4906Y-7.4167
X9.4973Y-5.0906
X9.5308Y-6.2174
X9.5955Y-7.1344
X9.5967Y-6.7418
X9.7449Y-6.4155
X9.757Y-6.376
X9.7982Y-5.7224
X9.9245Y-6.6992
X9.9425Y-6.0633
X9.9435Y-6.5765
X9.9574Y-7.1897
X10.0086Y-5.9985
X10.0098Y-4.9881
X10.0232Y-5.7806
X10.0382Y-6.1417
X10.0403Y-9.9277
X10.0469Y-6.2363
X10.0649Y-5.7529
X10.0755Y-6.2668
X10.0821Y-6.027
X10.1039Y-6.2377
X10.126Y-5.3172
X10.2344Y-5.0049
X10.5047Y-8.2029
X10.5609Y-8.1832
T2
X8.3146Y-4.3307
X8.3146Y-4.5472
X8.3146Y-5.1575
X8.6146Y-4.3307
X8.6146Y-4.5472
X8.6146Y-5.1575
X9.5744Y-5.9843
X9.5819Y-6.1417
X9.5819Y-6.2992
X9.5819Y-6.4567
X9.5819Y-6.6142
X9.8744Y-5.9843
X9.8819Y-6.1417
X9.8819Y-6.2992
X9.8819Y-6.4567
X9.8819Y-6.6142
T3
X5.1947Y-7.1959
X5.2165Y-7.9528
X5.2947Y-7.2959
X5.3947Y-7.1959
X5.4134Y-7.9528
X5.4472Y-6.5472
X5.4472Y-6.6299
X5.4472Y-6.7323
X5.4472Y-6.815
X5.5575Y-6.5472
X5.5575Y-6.815
X5.722Y-7.0276
X5.7677Y-7.5394
X5.9646Y-7.5394
X6.122Y-7.0276
X6.3732Y-7.5469
X6.3732Y-7.8469
X6.5236Y-6.5699
X6.5236Y-6.6699
X6.5236Y-6.7699
X6.5236Y-6.8699
X6.5236Y-6.9699
X6.5236Y-7.0699
X6.5236Y-7.1699
X6.5748Y-6.3583
X6.7717Y-6.3583
X6.8236Y-6.5699
X6.8236Y-6.6699
X6.8236Y-6.7699
X6.8236Y-6.8699
X6.8236Y-6.9699
X6.8236Y-7.0699
X6.8236Y-7.1699
X6.9732Y-7.5469
X6.9732Y-7.8469
X7.5394Y-5.9055
X7.7362Y-5.9055
X8.2677Y-3.5433
X8.3661Y-3.7402
X8.563Y-3.7402
X8.6677Y-3.5433
X8.7549Y-5.5167
X8.7549Y-5.6167
X8.7549Y-5.7167
X8.7549Y-5.8167
X8.7549Y-5.9167
X8.7549Y-6.0167
X8.7549Y-6.1167
X8.7549Y-6.2167
X8.7549Y-6.3167
X8.7549Y-6.4167
X8.7549Y-6.5167
X8.7549Y-6.6167
X8.7549Y-6.7167
X8.7549Y-6.8167
X8.7549Y-6.9167
X8.7549Y-7.0167
X8.7549Y-7.1167
X8.7549Y-7.2167
X8.7549Y-7.3167
X8.7549Y-7.4167
X8.7549Y-7.9478
X8.7549Y-8.0478
X8.7549Y-8.1478
X8.7549Y-8.2478
X8.7549Y-8.3478
X8.7549Y-8.4478
X8.7549Y-8.5478
X8.7549Y-8.6478
X8.7549Y-8.7478
X8.7549Y-8.8478
X8.7549Y-8.9478
X8.7549Y-9.0478
X8.7549Y-9.1478
X8.7549Y-9.2478
X8.7549Y-9.3478
X8.7549Y-9.4478
X8.7549Y-9.5478
X8.7549Y-9.6478
X8.7549Y-9.7478
X8.7549Y-9.8478
X8.9055Y-3.9183
X8.9055Y-4.0183
X8.9055Y-4.1183
X8.9055Y-4.2183
X8.9055Y-4.3183
X8.9055Y-4.4183
X8.9055Y-4.5183
X8.9055Y-4.6183
X8.9055Y-4.7183
X8.9055Y-4.8183
X8.9055Y-4.9183
X8.9055Y-5.0183
X8.9567Y-3.7205
X8.9567Y-5.3248
X8.9567Y-7.7461
X9.1535Y-3.7205
X9.1535Y-5.3248
X9.1535Y-7.7461
X9.2055Y-3.9183
X9.2055Y-4.0183
X9.2055Y-4.1183
X9.2055Y-4.2183
X9.2055Y-4.3183
X9.2055Y-4.4183
X9.2055Y-4.5183
X9.2055Y-4.6183
X9.2055Y-4.7183
X9.2055Y-4.8183
X9.2055Y-4.9183
X9.2055Y-5.0183
X9.3549Y-5.5167
X9.3549Y-5.6167
X9.3549Y-5.7167
X9.3549Y-5.8167
X9.3549Y-5.9167
X9.3549Y-6.0167
X9.3549Y-6.1167
X9.3549Y-6.2167
X9.3549Y-6.3167
X9.3549Y-6.4167
X9.3549Y-6.5167
X9.3549Y-6.6167
X9.3549Y-6.7167
X9.3549Y-6.8167
X9.3549Y-6.9167
X9.3549Y-7.0167
X9.3549Y-7.1167
X9.3549Y-7.2167
X9.3549Y-7.3167
X9.3549Y-7.4167
X9.3549Y-7.9478
X9.3549Y-8.0478
X9.3549Y-8.1478
X9.3549Y-8.2478
X9.3549Y-8.3478
X9.3549Y-8.4478
X9.3549Y-8.5478
X9.3549Y-8.6478
X9.3549Y-8.7478
X9.3549Y-8.8478
X9.3549Y-8.9478
X9.3549Y-9.0478
X9.3549Y-9.1478
X9.3549Y-9.2478
X9.3549Y-9.3478
X9.3549Y-9.4478
X9.3549Y-9.5478
X9.3549Y-9.6478
X9.3549Y-9.7478
X9.3549Y-9.8478
X10.126Y-3.9183
X10.126Y-4.0183
X10.126Y-4.1183
X10.126Y-4.2183
X10.126Y-4.3183
X10.126Y-4.4183
X10.126Y-4.5183
X10.126Y-4.6183
X10.126Y-4.7183
X10.126Y-4.8183
X10.126Y-4.9183
X10.126Y-5.0183
X10.1526Y-5.7067
X10.1526Y-5.8067
X10.1526Y-5.9067
X10.1526Y-6.0067
X10.1526Y-6.1067
X10.1526Y-6.2067
X10.1526Y-6.3067
X10.1526Y-6.4067
X10.1526Y-6.5067
X10.1526Y-6.6067
X10.1526Y-6.7067
X10.1526Y-6.8067
X10.1526Y-6.9067
X10.1526Y-7.0067
X10.1526Y-7.1067
X10.1526Y-7.2067
X10.1526Y-7.9675
X10.1526Y-8.0675
X10.1526Y-8.1675
X10.1526Y-8.2675
X10.1526Y-8.3675
X10.1526Y-8.4675
X10.1526Y-8.5675
X10.1526Y-8.6675
X10.1526Y-8.7675
X10.1526Y-8.8675
X10.1526Y-8.9675
X10.1526Y-9.0675
X10.1526Y-9.1675
X10.1526Y-9.2675
X10.1526Y-9.3675
X10.1526Y-9.4675
X10.1526Y-9.5675
X10.1526Y-9.6675
X10.1526Y-9.7675
X10.1526Y-9.8675
X10.1772Y-3.7205
X10.3543Y-5.5118
X10.3543Y-7.7756
X10.374Y-3.7205
X10.426Y-3.9183
X10.426Y-4.0183
X10.426Y-4.1183
X10.426Y-4.2183
X10.426Y-4.3183
X10.426Y-4.4183
X10.426Y-4.5183
X10.426Y-4.6183
X10.426Y-4.7183
X10.426Y-4.8183
X10.426Y-4.9183
X10.426Y-5.0183
X10.5512Y-5.5118
X10.5512Y-7.7756
X10.7526Y-5.7067
X10.7526Y-5.8067
X10.7526Y-5.9067
X10.7526Y-6.0067
X10.7526Y-6.1067
X10.7526Y-6.2067
X10.7526Y-6.3067
X10.7526Y-6.4067
X10.7526Y-6.5067
X10.7526Y-6.6067
X10.7526Y-6.7067
X10.7526Y-6.8067
X10.7526Y-6.9067
X10.7526Y-7.0067
X10.7526Y-7.1067
X10.7526Y-7.2067
X10.7526Y-7.9675
X10.7526Y-8.0675
X10.7526Y-8.1675
X10.7526Y-8.2675
X10.7526Y-8.3675
X10.7526Y-8.4675
X10.7526Y-8.5675
X10.7526Y-8.6675
X10.7526Y-8.7675
X10.7526Y-8.8675
X10.7526Y-8.9675
X10.7526Y-9.0675
X10.7526Y-9.1675
X10.7526Y-9.2675
X10.7526Y-9.3675
X10.7526Y-9.4675
X10.7526Y-9.5675
X10.7526Y-9.6675
X10.7526Y-9.7675
X10.7526Y-9.8675
T4
X5.9222Y-6.6339
X6.0222Y-6.6339
T5
X5.2648Y-7.6575
X5.3648Y-7.6575
X5.4419Y-3.4596
X5.4419Y-3.5596
X5.4419Y-3.6596
X5.4419Y-3.7596
X5.4419Y-3.8596
X5.4419Y-3.9596
X5.4419Y-4.0596
X5.4419Y-4.1596
X5.4419Y-4.2596
X5.4419Y-4.3596
X5.4419Y-4.4596
X5.4419Y-4.5596
X5.4419Y-4.6596
X5.4419Y-4.7596
X5.4419Y-4.8596
X5.4419Y-4.9596
X5.4419Y-5.0596
X5.4419Y-5.1596
X5.4419Y-5.2596
X5.4419Y-5.3596
X5.5419Y-3.4596
X5.5419Y-3.5596
X5.5419Y-3.6596
X5.5419Y-3.7596
X5.5419Y-3.8596
X5.5419Y-3.9596
X5.5419Y-4.0596
X5.5419Y-4.1596
X5.5419Y-4.2596
X5.5419Y-4.3596
X5.5419Y-4.4596
X5.5419Y-4.5596
X5.5419Y-4.6596
X5.5419Y-4.7596
X5.5419Y-4.8596
X5.5419Y-4.9596
X5.5419Y-5.0596
X5.5419Y-5.1596
X5.5419Y-5.2596
X5.5419Y-5.3596
X6.3081Y-3.4707
X6.3081Y-3.5707
X6.3081Y-3.6707
X6.3081Y-3.7707
X6.3081Y-3.8707
X6.3081Y-3.9707
X6.3081Y-4.0707
X6.3081Y-4.1707
X6.3081Y-4.2707
X6.3081Y-4.3707
X6.3081Y-4.4707
X6.3081Y-4.5707
X6.3081Y-4.6707
X6.3081Y-4.7707
X6.3081Y-4.8707
X6.3081Y-4.9707
X6.3081Y-5.0707
X6.3081Y-5.1707
X6.3081Y-5.2707
X6.3081Y-5.3707
X6.4081Y-3.4707
X6.4081Y-3.5707
X6.4081Y-3.6707
X6.4081Y-3.7707
X6.4081Y-3.8707
X6.4081Y-3.9707
X6.4081Y-4.0707
X6.4081Y-4.1707
X6.4081Y-4.2707
X6.4081Y-4.3707
X6.4081Y-4.4707
X6.4081Y-4.5707
X6.4081Y-4.6707
X6.4081Y-4.7707
X6.4081Y-4.8707
X6.4081Y-4.9707
X6.4081Y-5.0707
X6.4081Y-5.1707
X6.4081Y-5.2707
X6.4081Y-5.3707
X7.1348Y-3.4567
X7.1348Y-3.5567
X7.1348Y-3.6567
X7.1348Y-3.7567
X7.1348Y-3.8567
X7.1348Y-3.9567
X7.1348Y-4.0567
X7.1348Y-4.1567
X7.1348Y-4.2567
X7.1348Y-4.3567
X7.1348Y-4.4567
X7.1348Y-4.5567
X7.1348Y-4.6567
X7.1348Y-4.7567
X7.1348Y-4.8567
X7.1348Y-4.9567
X7.1348Y-5.0567
X7.1348Y-5.1567
X7.1348Y-5.2567
X7.1348Y-5.3567
X7.2348Y-3.4567
X7.2348Y-3.5567
X7.2348Y-3.6567
X7.2348Y-3.7567
X7.2348Y-3.8567
X7.2348Y-3.9567
X7.2348Y-4.0567
X7.2348Y-4.1567
X7.2348Y-4.2567
X7.2348Y-4.3567
X7.2348Y-4.4567
X7.2348Y-4.5567
X7.2348Y-4.6567
X7.2348Y-4.7567
X7.2348Y-4.8567
X7.2348Y-4.9567
X7.2348Y-5.0567
X7.2348Y-5.1567
X7.2348Y-5.2567
X7.2348Y-5.3567
X7.3664Y-6.4768
X7.3664Y-6.5768
X7.3664Y-6.6768
X7.3664Y-6.7768
X7.3664Y-6.8768
X7.3664Y-6.9768
X7.3664Y-7.0768
X7.3664Y-7.1768
X7.3664Y-7.2768
X7.3664Y-7.3768
X7.3664Y-7.4768
X7.3664Y-7.5768
X7.3664Y-7.6768
X7.3664Y-7.7768
X7.8435Y-3.4596
X7.8435Y-3.5596
X7.8435Y-3.6596
X7.8435Y-3.7596
X7.8435Y-3.8596
X7.8435Y-3.9596
X7.8435Y-4.0596
X7.8435Y-4.1596
X7.8435Y-4.2596
X7.8435Y-4.3596
X7.8435Y-4.4596
X7.8435Y-4.5596
X7.8435Y-4.6596
X7.8435Y-4.7596
X7.8435Y-4.8596
X7.8435Y-4.9596
X7.8435Y-5.0596
X7.8435Y-5.1596
X7.8435Y-5.2596
X7.8435Y-5.3596
X7.9435Y-3.4596
X7.9435Y-3.5596
X7.9435Y-3.6596
X7.9435Y-3.7596
X7.9435Y-3.8596
X7.9435Y-3.9596
X7.9435Y-4.0596
X7.9435Y-4.1596
X7.9435Y-4.2596
X7.9435Y-4.3596
X7.9435Y-4.4596
X7.9435Y-4.5596
X7.9435Y-4.6596
X7.9435Y-4.7596
X7.9435Y-4.8596
X7.9435Y-4.9596
X7.9435Y-5.0596
X7.9435Y-5.1596
X7.9435Y-5.2596
X7.9435Y-5.3596
X7.9664Y-6.4768
X7.9664Y-6.5768
X7.9664Y-6.6768
X7.9664Y-6.7768
X7.9664Y-6.8768
X7.9664Y-6.9768
X7.9664Y-7.0768
X7.9664Y-7.1768
X7.9664Y-7.2768
X7.9664Y-7.3768
X7.9664Y-7.4768
X7.9664Y-7.5768
X7.9664Y-7.6768
X7.9664Y-7.7768
X8.4252Y-8.8573
X8.4252Y-8.9573
X8.4252Y-9.0573
X9.4144Y-10.0394
X9.5144Y-10.0394
X9.6144Y-10.0394
X9.7144Y-10.0394
X9.7638Y-7.9183
X9.7638Y-8.0183
X9.7638Y-8.1183
X9.7638Y-8.2183
X9.7638Y-8.3183
X9.7638Y-8.4183
X9.7638Y-8.5183
X9.7638Y-8.6183
X9.7638Y-8.9616
X9.7638Y-9.0616
X9.7638Y-9.1616
X9.7638Y-9.2616
X9.7638Y-9.3616
X9.7638Y-9.4616
X9.7638Y-9.5616
X9.7638Y-9.6616
X9.8144Y-10.0394
X9.9144Y-10.0394
X10.0144Y-10.0394
X10.1144Y-10.0394
X10.6693Y-4.1526
X10.6693Y-4.2526
X10.6693Y-4.3526
T6
X5.5512Y-8.248
X5.6512Y-8.248
X5.7512Y-8.248
X5.8512Y-8.248
X5.9512Y-8.248
X6.0512Y-8.248
X6.1512Y-8.248
X6.2512Y-8.248
X6.3512Y-8.248
X6.4512Y-8.248
X6.5512Y-8.248
X6.6512Y-8.248
X6.7512Y-8.248
X6.8512Y-8.248
X6.9512Y-8.248
X7.0512Y-8.248
T7
X5.8819Y-6.1148
X5.972Y-6.1148
X6.0622Y-6.1148
X8.3366Y-3.9272
X8.3366Y-4.1043
X8.3366Y-4.7539
X8.3366Y-4.9311
X8.5925Y-3.9272
X8.5925Y-4.1043
X8.5925Y-4.7539
X8.5925Y-4.9311
T8
X5.1969Y-3.3268
X5.1969Y-10.1969
X10.7677Y-3.3268
X10.7874Y-10.1772
T5
G00X5.3035Y-6.6417
M15
G01X5.3035Y-6.7205
M16
G05
G00X5.3646Y-6.4114
M15
G01X5.3055Y-6.4114
M16
G05
G00X5.3646Y-6.9508
M15
G01X5.3055Y-6.9508
M16
G05
G00X5.4Y-5.9466
M15
G01X5.4Y-6.0253
M16
G05
G00X5.4787Y-6.171
M15
G01X5.5575Y-6.171
M16
G05
G00X5.6362Y-5.9466
M15
G01X5.6362Y-6.0253
M16
G05
T0
M30
