M48
; DRILL file {KiCad 7.0.2} date Fri Jul 28 16:21:55 2023
; FORMAT={-:-/ absolute / metric / decimal}
; #@! TF.CreationDate,2023-07-28T16:21:55-05:00
; #@! TF.GenerationSoftware,Kicad,Pcbnew,7.0.2
; #@! TF.FileFunction,Plated,1,2,PTH
FMAT,2
METRIC
; #@! TA.AperFunction,Plated,PTH,ViaDrill
T1C0.400
; #@! TA.AperFunction,Plated,PTH,ComponentDrill
T2C0.800
; #@! TA.AperFunction,Plated,PTH,ComponentDrill
T3C0.900
; #@! TA.AperFunction,Plated,PTH,ComponentDrill
T4C1.000
; #@! TA.AperFunction,Plated,PTH,ComponentDrill
T5C1.001
; #@! TA.AperFunction,Plated,PTH,ComponentDrill
T6C1.100
; #@! TA.AperFunction,Plated,PTH,ComponentDrill
T7C2.000
; #@! TA.AperFunction,Plated,PTH,ComponentDrill
T8C2.500
; #@! TA.AperFunction,Plated,PTH,ComponentDrill
T9C3.200
%
G90
G05
T1
X55.93Y-76.472
X64.086Y-123.753
X64.585Y-125.852
X73.363Y-99.793
X76.552Y-92.812
X87.429Y-94.396
X88.274Y-93.54
X89.145Y-96.112
X90.886Y-96.019
X92.439Y-132.328
X94.938Y-48.982
X96.054Y-109.662
X96.315Y-133.31
X96.513Y-113.152
X96.545Y-71.399
X97.878Y-134.89
X98.977Y-87.258
X100.086Y-108.271
X100.387Y-53.369
X100.394Y-89.512
X101.297Y-97.436
X102.071Y-108.621
X102.839Y-128.415
X103.309Y-139.254
X103.701Y-109.331
X104.18Y-117.676
X104.569Y-77.554
X104.681Y-128.686
X105.69Y-156.602
X105.865Y-161.936
X106.134Y-155.159
X106.363Y-148.173
X106.622Y-99.713
X108.03Y-106.067
X108.668Y-57.153
X108.923Y-97.722
X111.567Y-144.667
X112.221Y-75.072
X112.48Y-168.43
X114.189Y-119.899
X114.494Y-179.213
X114.739Y-77.593
X117.695Y-134.244
X118.31Y-53.856
X119.517Y-139.157
X119.523Y-140.41
X120.151Y-143.008
X120.743Y-130.866
X122.236Y-149.443
X122.669Y-71.942
X122.941Y-104.702
X123.092Y-66.634
X123.349Y-172.377
X124.55Y-104.016
X125.883Y-108.901
X126.512Y-141.052
X126.999Y-50.334
X128.385Y-165.13
X128.409Y-127.192
X128.906Y-131.538
X129.066Y-153.534
X129.411Y-49.502
X130.24Y-85.946
X131.868Y-128.004
X135.459Y-133.464
X136.145Y-124.893
X137.171Y-107.39
X137.388Y-141.427
X138.678Y-121.355
X138.678Y-123.171
X139.105Y-145.477
X139.394Y-186.24
X143.88Y-163.964
X144.595Y-125.09
X145.028Y-119.883
X145.402Y-153.892
X145.732Y-149.095
X145.77Y-146.296
X147.713Y-198.451
X148.221Y-165.17
X148.252Y-149.841
X153.532Y-171.581
X153.928Y-210.923
X154.55Y-183.613
X154.771Y-209.992
X158.44Y-129.479
X164.004Y-150.068
X165.512Y-115.145
X165.717Y-131.824
X166.417Y-65.417
X166.875Y-72.997
X166.884Y-63.661
X168.459Y-63.695
X169.216Y-67.099
X174.541Y-72.913
X175.742Y-132.919
X181.632Y-181.503
X183.833Y-109.34
X184.282Y-112.468
X184.4Y-99.124
X184.548Y-98.11
X185.049Y-172.219
X185.145Y-102.594
X190.389Y-108.169
X190.442Y-103.609
X198.053Y-115.618
X202.325Y-127.197
X206.779Y-149.907
X208.828Y-148.482
T2
X49.938Y-131.22
X49.938Y-138.02
X50.032Y-114.172
X50.032Y-120.972
X51.388Y-194.564
X52.324Y-63.5
X52.324Y-73.66
X52.738Y-131.22
X52.738Y-133.32
X52.738Y-135.92
X52.738Y-138.02
X52.832Y-114.172
X52.832Y-116.272
X52.832Y-118.872
X52.832Y-120.972
X56.388Y-194.564
X61.992Y-194.564
X63.992Y-194.564
X67.596Y-141.224
X69.088Y-149.352
X69.088Y-159.512
X69.104Y-194.564
X69.596Y-141.224
X71.104Y-194.564
X71.628Y-170.18
X71.628Y-175.26
X71.628Y-179.832
X71.628Y-184.912
X73.152Y-150.368
X73.152Y-152.908
X73.152Y-155.448
X73.152Y-157.988
X74.208Y-190.5
X74.96Y-145.288
X78.232Y-106.172
X78.232Y-111.252
X78.232Y-116.332
X78.232Y-120.904
X78.232Y-132.08
X78.232Y-136.652
X79.208Y-190.5
X79.96Y-145.288
X80.772Y-150.368
X80.772Y-152.908
X80.772Y-155.448
X80.772Y-157.988
X80.812Y-126.492
X81.788Y-170.18
X81.788Y-175.26
X81.788Y-179.832
X81.788Y-184.912
X83.86Y-157.988
X85.812Y-126.492
X88.392Y-106.172
X88.392Y-111.252
X88.392Y-116.332
X88.392Y-120.904
X88.392Y-132.08
X88.392Y-136.652
X88.392Y-170.18
X88.392Y-174.752
X88.392Y-179.324
X88.392Y-184.404
X88.86Y-157.988
X91.012Y-189.992
X93.472Y-110.744
X93.472Y-113.284
X93.472Y-115.824
X93.472Y-118.364
X93.472Y-120.904
X93.472Y-123.444
X93.472Y-125.984
X93.472Y-128.524
X93.472Y-131.064
X93.472Y-133.604
X93.472Y-136.144
X93.472Y-138.684
X93.472Y-141.224
X93.472Y-143.764
X93.472Y-146.304
X93.472Y-148.844
X93.472Y-151.384
X93.472Y-153.924
X93.472Y-156.464
X93.472Y-159.004
X96.012Y-189.992
X98.552Y-170.18
X98.552Y-174.752
X98.552Y-179.324
X98.552Y-184.404
X98.592Y-105.664
X103.592Y-105.664
X106.172Y-182.626
X106.172Y-190.246
X108.712Y-110.744
X108.712Y-113.284
X108.712Y-115.824
X108.712Y-118.364
X108.712Y-120.904
X108.712Y-123.444
X108.712Y-125.984
X108.712Y-128.524
X108.712Y-131.064
X108.712Y-133.604
X108.712Y-136.144
X108.712Y-138.684
X108.712Y-141.224
X108.712Y-143.764
X108.712Y-146.304
X108.712Y-148.844
X108.712Y-151.384
X108.712Y-153.924
X108.712Y-156.464
X108.712Y-159.004
X109.728Y-50.8
X109.728Y-53.34
X109.728Y-55.88
X109.728Y-58.42
X109.728Y-60.96
X109.728Y-63.5
X109.728Y-66.04
X109.728Y-68.58
X109.728Y-71.12
X109.728Y-73.66
X109.728Y-76.2
X109.728Y-78.74
X109.728Y-81.28
X109.728Y-83.82
X109.728Y-86.36
X109.728Y-88.9
X109.728Y-91.44
X109.728Y-93.98
X109.728Y-96.52
X109.728Y-99.06
X113.792Y-160.528
X113.792Y-165.1
X113.792Y-169.672
X113.792Y-174.244
X114.848Y-45.72
X116.84Y-110.993
X116.84Y-113.533
X116.84Y-116.073
X116.84Y-118.613
X116.84Y-121.153
X116.84Y-123.693
X116.84Y-126.233
X116.84Y-137.16
X116.84Y-139.7
X116.84Y-142.24
X116.84Y-144.78
X116.84Y-147.32
X116.84Y-149.86
X116.84Y-152.4
X118.364Y-106.172
X118.444Y-132.08
X119.848Y-45.72
X121.412Y-182.626
X121.412Y-190.246
X123.364Y-106.172
X123.444Y-132.08
X123.952Y-160.528
X123.952Y-165.1
X123.952Y-169.672
X123.952Y-174.244
X124.46Y-110.993
X124.46Y-113.533
X124.46Y-116.073
X124.46Y-118.613
X124.46Y-121.153
X124.46Y-123.693
X124.46Y-126.233
X124.46Y-137.16
X124.46Y-139.7
X124.46Y-142.24
X124.46Y-144.78
X124.46Y-147.32
X124.46Y-149.86
X124.46Y-152.4
X124.968Y-50.8
X124.968Y-53.34
X124.968Y-55.88
X124.968Y-58.42
X124.968Y-60.96
X124.968Y-63.5
X124.968Y-66.04
X124.968Y-68.58
X124.968Y-71.12
X124.968Y-73.66
X124.968Y-76.2
X124.968Y-78.74
X124.968Y-81.28
X124.968Y-83.82
X124.968Y-86.36
X124.968Y-88.9
X124.968Y-91.44
X124.968Y-93.98
X124.968Y-96.52
X124.968Y-99.06
X130.556Y-157.48
X130.556Y-160.02
X130.556Y-162.56
X130.556Y-165.1
X130.556Y-167.64
X130.556Y-170.18
X130.556Y-172.72
X130.556Y-175.26
X130.556Y-177.8
X130.556Y-180.34
X130.556Y-182.88
X130.556Y-185.42
X130.556Y-187.96
X130.556Y-190.5
X130.556Y-193.04
X130.556Y-195.58
X130.556Y-198.12
X130.556Y-200.66
X130.556Y-203.2
X130.556Y-205.74
X133.32Y-110.993
X133.32Y-113.533
X133.32Y-116.073
X133.32Y-118.613
X133.32Y-121.153
X133.32Y-123.693
X133.32Y-126.233
X133.32Y-128.773
X133.32Y-131.313
X133.32Y-133.853
X133.32Y-136.393
X133.32Y-138.933
X134.66Y-106.172
X135.676Y-152.4
X136.647Y-51.059
X136.647Y-53.599
X136.647Y-56.139
X136.647Y-58.679
X136.647Y-61.219
X136.647Y-63.759
X136.647Y-66.299
X136.647Y-68.839
X136.647Y-71.379
X136.647Y-73.919
X136.647Y-76.459
X136.647Y-78.999
X136.647Y-81.539
X136.647Y-84.079
X136.647Y-86.619
X136.647Y-89.159
X136.647Y-91.699
X136.647Y-94.239
X136.647Y-96.779
X136.647Y-99.319
X139.66Y-106.172
X140.676Y-152.4
X140.94Y-110.993
X140.94Y-113.533
X140.94Y-116.073
X140.94Y-118.613
X140.94Y-121.153
X140.94Y-123.693
X140.94Y-126.233
X140.94Y-128.773
X140.94Y-131.313
X140.94Y-133.853
X140.94Y-136.393
X140.94Y-138.933
X141.812Y-45.72
X145.796Y-157.48
X145.796Y-160.02
X145.796Y-162.56
X145.796Y-165.1
X145.796Y-167.64
X145.796Y-170.18
X145.796Y-172.72
X145.796Y-175.26
X145.796Y-177.8
X145.796Y-180.34
X145.796Y-182.88
X145.796Y-185.42
X145.796Y-187.96
X145.796Y-190.5
X145.796Y-193.04
X145.796Y-195.58
X145.796Y-198.12
X145.796Y-200.66
X145.796Y-203.2
X145.796Y-205.74
X146.812Y-45.72
X151.887Y-51.059
X151.887Y-53.599
X151.887Y-56.139
X151.887Y-58.679
X151.887Y-61.219
X151.887Y-63.759
X151.887Y-66.299
X151.887Y-68.839
X151.887Y-71.379
X151.887Y-73.919
X151.887Y-76.459
X151.887Y-78.999
X151.887Y-81.539
X151.887Y-84.079
X151.887Y-86.619
X151.887Y-89.159
X151.887Y-91.699
X151.887Y-94.239
X151.887Y-96.779
X151.887Y-99.319
X152.908Y-110.993
X152.908Y-113.533
X152.908Y-116.073
X152.908Y-118.613
X152.908Y-121.153
X152.908Y-123.693
X152.908Y-126.233
X152.908Y-128.773
X152.908Y-131.313
X152.908Y-133.853
X152.908Y-136.393
X152.908Y-138.933
X154.432Y-39.624
X154.432Y-44.704
X154.512Y-106.172
X156.972Y-42.164
X156.972Y-157.48
X156.972Y-160.02
X156.972Y-162.56
X156.972Y-165.1
X156.972Y-167.64
X156.972Y-170.18
X156.972Y-172.72
X156.972Y-175.26
X156.972Y-177.8
X156.972Y-180.34
X156.972Y-182.88
X156.972Y-185.42
X156.972Y-187.96
X156.972Y-190.5
X156.972Y-193.04
X156.972Y-195.58
X156.972Y-198.12
X156.972Y-200.66
X156.972Y-203.2
X156.972Y-205.74
X159.512Y-106.172
X160.528Y-110.993
X160.528Y-113.533
X160.528Y-116.073
X160.528Y-118.613
X160.528Y-121.153
X160.528Y-123.693
X160.528Y-126.233
X160.528Y-128.773
X160.528Y-131.313
X160.528Y-133.853
X160.528Y-136.393
X160.528Y-138.933
X162.092Y-152.4
X163.108Y-41.148
X167.092Y-152.4
X167.396Y-111.252
X167.396Y-113.792
X167.396Y-116.332
X167.396Y-118.872
X167.396Y-121.412
X167.396Y-123.952
X167.396Y-126.492
X167.396Y-129.032
X167.64Y-136.144
X167.64Y-146.304
X168.108Y-41.148
X168.696Y-106.172
X172.212Y-136.144
X172.212Y-146.304
X172.212Y-157.48
X172.212Y-160.02
X172.212Y-162.56
X172.212Y-165.1
X172.212Y-167.64
X172.212Y-170.18
X172.212Y-172.72
X172.212Y-175.26
X172.212Y-177.8
X172.212Y-180.34
X172.212Y-182.88
X172.212Y-185.42
X172.212Y-187.96
X172.212Y-190.5
X172.212Y-193.04
X172.212Y-195.58
X172.212Y-198.12
X172.212Y-200.66
X172.212Y-203.2
X172.212Y-205.74
X173.696Y-106.172
X175.016Y-111.252
X175.016Y-113.792
X175.016Y-116.332
X175.016Y-118.872
X175.016Y-121.412
X175.016Y-123.952
X175.016Y-126.492
X175.016Y-129.032
X176.784Y-136.144
X176.784Y-146.304
X181.356Y-136.144
X181.356Y-146.304
X187.452Y-169.911
X187.452Y-172.451
X187.452Y-174.991
X187.452Y-177.531
X187.452Y-180.071
X187.452Y-182.611
X187.452Y-185.151
X187.452Y-187.691
X187.452Y-190.231
X187.452Y-192.771
X187.452Y-195.311
X187.452Y-197.851
X187.452Y-200.391
X187.452Y-202.931
X188.976Y-111.252
X188.976Y-113.792
X188.976Y-116.332
X188.976Y-118.872
X188.976Y-121.412
X188.976Y-123.952
X188.976Y-126.492
X188.976Y-129.032
X188.976Y-131.572
X188.976Y-134.112
X188.976Y-136.652
X188.976Y-139.192
X188.976Y-141.732
X188.976Y-144.272
X188.976Y-146.812
X188.976Y-149.352
X192.572Y-165.1
X194.056Y-106.172
X197.572Y-165.1
X199.056Y-106.172
X202.692Y-169.911
X202.692Y-172.451
X202.692Y-174.991
X202.692Y-177.531
X202.692Y-180.071
X202.692Y-182.611
X202.692Y-185.151
X202.692Y-187.691
X202.692Y-190.231
X202.692Y-192.771
X202.692Y-195.311
X202.692Y-197.851
X202.692Y-200.391
X202.692Y-202.931
X204.216Y-111.252
X204.216Y-113.792
X204.216Y-116.332
X204.216Y-118.872
X204.216Y-121.412
X204.216Y-123.952
X204.216Y-126.492
X204.216Y-129.032
X204.216Y-131.572
X204.216Y-134.112
X204.216Y-136.652
X204.216Y-139.192
X204.216Y-141.732
X204.216Y-144.272
X204.216Y-146.812
X204.216Y-149.352
X213.884Y-183.896
X213.9Y-191.516
X213.9Y-199.136
X213.9Y-206.756
X215.884Y-183.896
X215.9Y-191.516
X215.9Y-199.136
X215.9Y-206.756
X219.456Y-166.878
X219.456Y-174.498
X223.276Y-187.188
X223.276Y-189.728
X223.276Y-192.268
X223.276Y-194.808
X223.276Y-197.348
X223.276Y-199.888
X223.276Y-202.428
X223.276Y-204.968
X224.576Y-182.372
X224.616Y-106.172
X229.576Y-182.372
X229.616Y-106.172
X230.896Y-187.188
X230.896Y-189.728
X230.896Y-192.268
X230.896Y-194.808
X230.896Y-197.348
X230.896Y-199.888
X230.896Y-202.428
X230.896Y-204.968
X234.696Y-166.878
X234.696Y-174.498
T3
X50.8Y-56.388
X53.34Y-56.388
X68.152Y-97.632
X68.152Y-103.632
X70.652Y-97.632
X70.652Y-103.632
X73.152Y-97.632
X73.152Y-103.632
X82.296Y-99.06
X84.836Y-99.06
T4
X51.034Y-79.781
X53.574Y-79.781
X58.12Y-155.157
X58.12Y-157.927
X58.12Y-160.697
X58.12Y-163.467
X58.928Y-42.164
X58.928Y-44.704
X58.928Y-47.244
X58.928Y-49.784
X58.928Y-52.324
X58.928Y-54.864
X58.928Y-57.404
X58.928Y-59.944
X58.928Y-62.484
X58.928Y-65.024
X58.928Y-67.564
X58.928Y-70.104
X58.928Y-72.644
X58.928Y-75.184
X58.928Y-77.724
X58.928Y-80.264
X58.928Y-82.804
X58.928Y-85.344
X58.928Y-87.884
X58.928Y-90.424
X60.96Y-153.772
X60.96Y-156.542
X60.96Y-159.312
X60.96Y-162.082
X60.96Y-164.852
X61.468Y-42.164
X61.468Y-44.704
X61.468Y-47.244
X61.468Y-49.784
X61.468Y-52.324
X61.468Y-54.864
X61.468Y-57.404
X61.468Y-59.944
X61.468Y-62.484
X61.468Y-65.024
X61.468Y-67.564
X61.468Y-70.104
X61.468Y-72.644
X61.468Y-75.184
X61.468Y-77.724
X61.468Y-80.264
X61.468Y-82.804
X61.468Y-85.344
X61.468Y-87.884
X61.468Y-90.424
X74.676Y-42.164
X74.676Y-44.704
X74.676Y-47.244
X74.676Y-49.784
X74.676Y-52.324
X74.676Y-54.864
X74.676Y-57.404
X74.676Y-59.944
X74.676Y-62.484
X74.676Y-65.024
X74.676Y-67.564
X74.676Y-70.104
X74.676Y-72.644
X74.676Y-75.184
X74.676Y-77.724
X74.676Y-80.264
X74.676Y-82.804
X74.676Y-85.344
X74.676Y-87.884
X74.676Y-90.424
X77.216Y-42.164
X77.216Y-44.704
X77.216Y-47.244
X77.216Y-49.784
X77.216Y-52.324
X77.216Y-54.864
X77.216Y-57.404
X77.216Y-59.944
X77.216Y-62.484
X77.216Y-65.024
X77.216Y-67.564
X77.216Y-70.104
X77.216Y-72.644
X77.216Y-75.184
X77.216Y-77.724
X77.216Y-80.264
X77.216Y-82.804
X77.216Y-85.344
X77.216Y-87.884
X77.216Y-90.424
X82.296Y-199.644
X82.296Y-209.296
X84.836Y-199.644
X84.836Y-209.296
X87.376Y-199.644
X87.376Y-209.296
X89.916Y-199.644
X89.916Y-209.296
X90.424Y-42.164
X90.424Y-44.704
X90.424Y-47.244
X90.424Y-49.784
X90.424Y-52.324
X90.424Y-54.864
X90.424Y-57.404
X90.424Y-59.944
X90.424Y-62.484
X90.424Y-65.024
X90.424Y-67.564
X90.424Y-70.104
X90.424Y-72.644
X90.424Y-75.184
X90.424Y-77.724
X90.424Y-80.264
X90.424Y-82.804
X90.424Y-85.344
X90.424Y-87.884
X90.424Y-90.424
X92.456Y-199.644
X92.456Y-209.296
X92.964Y-42.164
X92.964Y-44.704
X92.964Y-47.244
X92.964Y-49.784
X92.964Y-52.324
X92.964Y-54.864
X92.964Y-57.404
X92.964Y-59.944
X92.964Y-62.484
X92.964Y-65.024
X92.964Y-67.564
X92.964Y-70.104
X92.964Y-72.644
X92.964Y-75.184
X92.964Y-77.724
X92.964Y-80.264
X92.964Y-82.804
X92.964Y-85.344
X92.964Y-87.884
X92.964Y-90.424
X94.996Y-199.644
X94.996Y-209.296
X97.536Y-199.644
X97.536Y-209.296
X100.076Y-199.644
X100.076Y-209.296
X102.616Y-52.085
X102.616Y-54.625
X102.616Y-57.165
X102.616Y-59.705
X102.616Y-62.245
X102.616Y-64.785
X102.616Y-67.325
X102.616Y-69.865
X102.616Y-76.2
X102.616Y-78.74
X102.616Y-81.28
X102.616Y-83.82
X102.616Y-86.36
X102.616Y-88.9
X102.616Y-91.44
X102.616Y-93.98
X106.172Y-209.296
X106.68Y-176.276
X106.68Y-199.644
X108.712Y-209.296
X109.22Y-176.276
X109.22Y-199.644
X111.252Y-209.296
X111.76Y-199.644
X113.792Y-209.296
X114.3Y-199.644
X116.332Y-209.296
X116.84Y-199.644
X117.109Y-40.132
X118.872Y-209.296
X119.38Y-199.644
X119.649Y-40.132
X121.412Y-209.296
X121.92Y-199.644
X122.189Y-40.132
X123.952Y-209.296
X124.46Y-199.644
X124.729Y-40.132
X127.269Y-40.132
X129.809Y-40.132
X132.349Y-40.132
X134.889Y-40.132
X147.828Y-129.032
X147.828Y-131.572
X147.828Y-134.112
X147.828Y-136.652
X147.828Y-139.192
X147.828Y-141.732
X147.828Y-144.272
X147.828Y-146.812
X148.336Y-114.3
X148.336Y-116.84
X148.336Y-119.38
X148.336Y-121.92
X189.992Y-210.312
X192.532Y-210.312
X195.072Y-210.312
X197.612Y-210.312
X200.152Y-210.312
X219.456Y-120.542
X219.456Y-123.082
X219.456Y-125.622
X219.456Y-128.162
X219.456Y-130.702
X219.456Y-133.242
X219.456Y-135.782
X219.456Y-138.322
X219.456Y-140.862
X219.456Y-143.402
X219.456Y-145.942
X219.456Y-148.482
X219.456Y-151.022
X219.456Y-153.562
X234.696Y-120.542
X234.696Y-123.082
X234.696Y-125.622
X234.696Y-128.162
X234.696Y-130.702
X234.696Y-133.242
X234.696Y-135.782
X234.696Y-138.322
X234.696Y-140.862
X234.696Y-143.402
X234.696Y-145.942
X234.696Y-148.482
X234.696Y-151.022
X234.696Y-153.562
T5
X171.174Y-49.207
X173.714Y-49.207
X176.254Y-49.207
X178.794Y-49.207
X181.334Y-49.207
X183.874Y-49.207
X186.414Y-49.207
X188.954Y-49.207
X191.494Y-49.207
X194.034Y-49.207
X196.574Y-49.207
X199.114Y-49.207
X201.654Y-49.207
X204.194Y-49.207
X206.734Y-49.207
X209.274Y-49.207
T6
X53.34Y-86.36
X53.34Y-88.9
X53.34Y-91.44
X66.854Y-111.542
X66.854Y-116.042
X66.854Y-125.548
X66.854Y-130.048
X73.354Y-111.542
X73.354Y-116.042
X73.354Y-125.548
X73.354Y-130.048
T7
X53.096Y-180.848
X55.546Y-178.848
X59.246Y-180.848
X61.146Y-178.848
X64.896Y-180.848
T8
X51.816Y-39.624
X51.816Y-209.296
X238.76Y-39.624
X238.76Y-209.296
T9
X59.54Y-146.812
X59.54Y-171.812
T4
G00X54.838Y-127.77
M15
G01X56.338Y-127.77
M16
G05
G00X54.838Y-141.47
M15
G01X56.338Y-141.47
M16
G05
G00X54.932Y-110.722
M15
G01X56.432Y-110.722
M16
G05
G00X54.932Y-124.422
M15
G01X56.432Y-124.422
M16
G05
G00X55.88Y-100.15
M15
G01X55.88Y-102.15
M16
G05
G00X56.388Y-135.62
M15
G01X56.388Y-133.62
M16
G05
G00X56.482Y-118.572
M15
G01X56.482Y-116.572
M16
G05
G00X57.88Y-105.85
M15
G01X59.88Y-105.85
M16
G05
G00X61.88Y-100.15
M15
G01X61.88Y-102.15
M16
G05
T0
M30
