%TF.GenerationSoftware,KiCad,Pcbnew,7.0.5*%
%TF.CreationDate,2023-07-25T18:53:58-05:00*%
%TF.ProjectId,6502v2.0,36353032-7632-42e3-902e-6b696361645f,rev?*%
%TF.SameCoordinates,Original*%
%TF.FileFunction,Legend,Top*%
%TF.FilePolarity,Positive*%
%FSLAX46Y46*%
G04 Gerber Fmt 4.6, Leading zero omitted, Abs format (unit mm)*
G04 Created by KiCad (PCBNEW 7.0.5) date 2023-07-25 18:53:58*
%MOMM*%
%LPD*%
G01*
G04 APERTURE LIST*
%ADD10C,0.150000*%
%ADD11C,0.120000*%
%ADD12C,0.100000*%
%ADD13C,0.127000*%
%ADD14C,0.200000*%
%ADD15O,1.501140X4.000500*%
G04 APERTURE END LIST*
D10*
X31753350Y-196481819D02*
X31562874Y-196481819D01*
X31562874Y-196481819D02*
X31467636Y-196529438D01*
X31467636Y-196529438D02*
X31420017Y-196577057D01*
X31420017Y-196577057D02*
X31324779Y-196719914D01*
X31324779Y-196719914D02*
X31277160Y-196910390D01*
X31277160Y-196910390D02*
X31277160Y-197291342D01*
X31277160Y-197291342D02*
X31324779Y-197386580D01*
X31324779Y-197386580D02*
X31372398Y-197434200D01*
X31372398Y-197434200D02*
X31467636Y-197481819D01*
X31467636Y-197481819D02*
X31658112Y-197481819D01*
X31658112Y-197481819D02*
X31753350Y-197434200D01*
X31753350Y-197434200D02*
X31800969Y-197386580D01*
X31800969Y-197386580D02*
X31848588Y-197291342D01*
X31848588Y-197291342D02*
X31848588Y-197053247D01*
X31848588Y-197053247D02*
X31800969Y-196958009D01*
X31800969Y-196958009D02*
X31753350Y-196910390D01*
X31753350Y-196910390D02*
X31658112Y-196862771D01*
X31658112Y-196862771D02*
X31467636Y-196862771D01*
X31467636Y-196862771D02*
X31372398Y-196910390D01*
X31372398Y-196910390D02*
X31324779Y-196958009D01*
X31324779Y-196958009D02*
X31277160Y-197053247D01*
X32753350Y-196481819D02*
X32277160Y-196481819D01*
X32277160Y-196481819D02*
X32229541Y-196958009D01*
X32229541Y-196958009D02*
X32277160Y-196910390D01*
X32277160Y-196910390D02*
X32372398Y-196862771D01*
X32372398Y-196862771D02*
X32610493Y-196862771D01*
X32610493Y-196862771D02*
X32705731Y-196910390D01*
X32705731Y-196910390D02*
X32753350Y-196958009D01*
X32753350Y-196958009D02*
X32800969Y-197053247D01*
X32800969Y-197053247D02*
X32800969Y-197291342D01*
X32800969Y-197291342D02*
X32753350Y-197386580D01*
X32753350Y-197386580D02*
X32705731Y-197434200D01*
X32705731Y-197434200D02*
X32610493Y-197481819D01*
X32610493Y-197481819D02*
X32372398Y-197481819D01*
X32372398Y-197481819D02*
X32277160Y-197434200D01*
X32277160Y-197434200D02*
X32229541Y-197386580D01*
X33420017Y-196481819D02*
X33515255Y-196481819D01*
X33515255Y-196481819D02*
X33610493Y-196529438D01*
X33610493Y-196529438D02*
X33658112Y-196577057D01*
X33658112Y-196577057D02*
X33705731Y-196672295D01*
X33705731Y-196672295D02*
X33753350Y-196862771D01*
X33753350Y-196862771D02*
X33753350Y-197100866D01*
X33753350Y-197100866D02*
X33705731Y-197291342D01*
X33705731Y-197291342D02*
X33658112Y-197386580D01*
X33658112Y-197386580D02*
X33610493Y-197434200D01*
X33610493Y-197434200D02*
X33515255Y-197481819D01*
X33515255Y-197481819D02*
X33420017Y-197481819D01*
X33420017Y-197481819D02*
X33324779Y-197434200D01*
X33324779Y-197434200D02*
X33277160Y-197386580D01*
X33277160Y-197386580D02*
X33229541Y-197291342D01*
X33229541Y-197291342D02*
X33181922Y-197100866D01*
X33181922Y-197100866D02*
X33181922Y-196862771D01*
X33181922Y-196862771D02*
X33229541Y-196672295D01*
X33229541Y-196672295D02*
X33277160Y-196577057D01*
X33277160Y-196577057D02*
X33324779Y-196529438D01*
X33324779Y-196529438D02*
X33420017Y-196481819D01*
X34134303Y-196577057D02*
X34181922Y-196529438D01*
X34181922Y-196529438D02*
X34277160Y-196481819D01*
X34277160Y-196481819D02*
X34515255Y-196481819D01*
X34515255Y-196481819D02*
X34610493Y-196529438D01*
X34610493Y-196529438D02*
X34658112Y-196577057D01*
X34658112Y-196577057D02*
X34705731Y-196672295D01*
X34705731Y-196672295D02*
X34705731Y-196767533D01*
X34705731Y-196767533D02*
X34658112Y-196910390D01*
X34658112Y-196910390D02*
X34086684Y-197481819D01*
X34086684Y-197481819D02*
X34705731Y-197481819D01*
X35134303Y-197386580D02*
X35181922Y-197434200D01*
X35181922Y-197434200D02*
X35134303Y-197481819D01*
X35134303Y-197481819D02*
X35086684Y-197434200D01*
X35086684Y-197434200D02*
X35134303Y-197386580D01*
X35134303Y-197386580D02*
X35134303Y-197481819D01*
X35134303Y-196862771D02*
X35181922Y-196910390D01*
X35181922Y-196910390D02*
X35134303Y-196958009D01*
X35134303Y-196958009D02*
X35086684Y-196910390D01*
X35086684Y-196910390D02*
X35134303Y-196862771D01*
X35134303Y-196862771D02*
X35134303Y-196958009D01*
X36324779Y-197434200D02*
X36467636Y-197481819D01*
X36467636Y-197481819D02*
X36705731Y-197481819D01*
X36705731Y-197481819D02*
X36800969Y-197434200D01*
X36800969Y-197434200D02*
X36848588Y-197386580D01*
X36848588Y-197386580D02*
X36896207Y-197291342D01*
X36896207Y-197291342D02*
X36896207Y-197196104D01*
X36896207Y-197196104D02*
X36848588Y-197100866D01*
X36848588Y-197100866D02*
X36800969Y-197053247D01*
X36800969Y-197053247D02*
X36705731Y-197005628D01*
X36705731Y-197005628D02*
X36515255Y-196958009D01*
X36515255Y-196958009D02*
X36420017Y-196910390D01*
X36420017Y-196910390D02*
X36372398Y-196862771D01*
X36372398Y-196862771D02*
X36324779Y-196767533D01*
X36324779Y-196767533D02*
X36324779Y-196672295D01*
X36324779Y-196672295D02*
X36372398Y-196577057D01*
X36372398Y-196577057D02*
X36420017Y-196529438D01*
X36420017Y-196529438D02*
X36515255Y-196481819D01*
X36515255Y-196481819D02*
X36753350Y-196481819D01*
X36753350Y-196481819D02*
X36896207Y-196529438D01*
X37181922Y-196815152D02*
X37562874Y-196815152D01*
X37324779Y-196481819D02*
X37324779Y-197338961D01*
X37324779Y-197338961D02*
X37372398Y-197434200D01*
X37372398Y-197434200D02*
X37467636Y-197481819D01*
X37467636Y-197481819D02*
X37562874Y-197481819D01*
X37896208Y-197481819D02*
X37896208Y-196815152D01*
X37896208Y-197005628D02*
X37943827Y-196910390D01*
X37943827Y-196910390D02*
X37991446Y-196862771D01*
X37991446Y-196862771D02*
X38086684Y-196815152D01*
X38086684Y-196815152D02*
X38181922Y-196815152D01*
X38943827Y-197481819D02*
X38943827Y-196958009D01*
X38943827Y-196958009D02*
X38896208Y-196862771D01*
X38896208Y-196862771D02*
X38800970Y-196815152D01*
X38800970Y-196815152D02*
X38610494Y-196815152D01*
X38610494Y-196815152D02*
X38515256Y-196862771D01*
X38943827Y-197434200D02*
X38848589Y-197481819D01*
X38848589Y-197481819D02*
X38610494Y-197481819D01*
X38610494Y-197481819D02*
X38515256Y-197434200D01*
X38515256Y-197434200D02*
X38467637Y-197338961D01*
X38467637Y-197338961D02*
X38467637Y-197243723D01*
X38467637Y-197243723D02*
X38515256Y-197148485D01*
X38515256Y-197148485D02*
X38610494Y-197100866D01*
X38610494Y-197100866D02*
X38848589Y-197100866D01*
X38848589Y-197100866D02*
X38943827Y-197053247D01*
X39420018Y-197481819D02*
X39420018Y-196481819D01*
X39848589Y-197481819D02*
X39848589Y-196958009D01*
X39848589Y-196958009D02*
X39800970Y-196862771D01*
X39800970Y-196862771D02*
X39705732Y-196815152D01*
X39705732Y-196815152D02*
X39562875Y-196815152D01*
X39562875Y-196815152D02*
X39467637Y-196862771D01*
X39467637Y-196862771D02*
X39420018Y-196910390D01*
X40324780Y-197481819D02*
X40324780Y-196815152D01*
X40324780Y-196481819D02*
X40277161Y-196529438D01*
X40277161Y-196529438D02*
X40324780Y-196577057D01*
X40324780Y-196577057D02*
X40372399Y-196529438D01*
X40372399Y-196529438D02*
X40324780Y-196481819D01*
X40324780Y-196481819D02*
X40324780Y-196577057D01*
X40800970Y-196815152D02*
X40800970Y-197481819D01*
X40800970Y-196910390D02*
X40848589Y-196862771D01*
X40848589Y-196862771D02*
X40943827Y-196815152D01*
X40943827Y-196815152D02*
X41086684Y-196815152D01*
X41086684Y-196815152D02*
X41181922Y-196862771D01*
X41181922Y-196862771D02*
X41229541Y-196958009D01*
X41229541Y-196958009D02*
X41229541Y-197481819D01*
X41705732Y-196815152D02*
X41705732Y-197672295D01*
X41705732Y-197672295D02*
X41658113Y-197767533D01*
X41658113Y-197767533D02*
X41562875Y-197815152D01*
X41562875Y-197815152D02*
X41515256Y-197815152D01*
X41705732Y-196481819D02*
X41658113Y-196529438D01*
X41658113Y-196529438D02*
X41705732Y-196577057D01*
X41705732Y-196577057D02*
X41753351Y-196529438D01*
X41753351Y-196529438D02*
X41705732Y-196481819D01*
X41705732Y-196481819D02*
X41705732Y-196577057D01*
X42610493Y-197481819D02*
X42610493Y-196958009D01*
X42610493Y-196958009D02*
X42562874Y-196862771D01*
X42562874Y-196862771D02*
X42467636Y-196815152D01*
X42467636Y-196815152D02*
X42277160Y-196815152D01*
X42277160Y-196815152D02*
X42181922Y-196862771D01*
X42610493Y-197434200D02*
X42515255Y-197481819D01*
X42515255Y-197481819D02*
X42277160Y-197481819D01*
X42277160Y-197481819D02*
X42181922Y-197434200D01*
X42181922Y-197434200D02*
X42134303Y-197338961D01*
X42134303Y-197338961D02*
X42134303Y-197243723D01*
X42134303Y-197243723D02*
X42181922Y-197148485D01*
X42181922Y-197148485D02*
X42277160Y-197100866D01*
X42277160Y-197100866D02*
X42515255Y-197100866D01*
X42515255Y-197100866D02*
X42610493Y-197053247D01*
X43848589Y-197481819D02*
X43848589Y-196481819D01*
X43848589Y-196481819D02*
X44181922Y-197196104D01*
X44181922Y-197196104D02*
X44515255Y-196481819D01*
X44515255Y-196481819D02*
X44515255Y-197481819D01*
X45420017Y-197481819D02*
X45420017Y-196958009D01*
X45420017Y-196958009D02*
X45372398Y-196862771D01*
X45372398Y-196862771D02*
X45277160Y-196815152D01*
X45277160Y-196815152D02*
X45086684Y-196815152D01*
X45086684Y-196815152D02*
X44991446Y-196862771D01*
X45420017Y-197434200D02*
X45324779Y-197481819D01*
X45324779Y-197481819D02*
X45086684Y-197481819D01*
X45086684Y-197481819D02*
X44991446Y-197434200D01*
X44991446Y-197434200D02*
X44943827Y-197338961D01*
X44943827Y-197338961D02*
X44943827Y-197243723D01*
X44943827Y-197243723D02*
X44991446Y-197148485D01*
X44991446Y-197148485D02*
X45086684Y-197100866D01*
X45086684Y-197100866D02*
X45324779Y-197100866D01*
X45324779Y-197100866D02*
X45420017Y-197053247D01*
X45896208Y-197481819D02*
X45896208Y-196815152D01*
X45896208Y-197005628D02*
X45943827Y-196910390D01*
X45943827Y-196910390D02*
X45991446Y-196862771D01*
X45991446Y-196862771D02*
X46086684Y-196815152D01*
X46086684Y-196815152D02*
X46181922Y-196815152D01*
X46515256Y-197481819D02*
X46515256Y-196815152D01*
X46515256Y-196481819D02*
X46467637Y-196529438D01*
X46467637Y-196529438D02*
X46515256Y-196577057D01*
X46515256Y-196577057D02*
X46562875Y-196529438D01*
X46562875Y-196529438D02*
X46515256Y-196481819D01*
X46515256Y-196481819D02*
X46515256Y-196577057D01*
X46991446Y-196815152D02*
X46991446Y-197481819D01*
X46991446Y-196910390D02*
X47039065Y-196862771D01*
X47039065Y-196862771D02*
X47134303Y-196815152D01*
X47134303Y-196815152D02*
X47277160Y-196815152D01*
X47277160Y-196815152D02*
X47372398Y-196862771D01*
X47372398Y-196862771D02*
X47420017Y-196958009D01*
X47420017Y-196958009D02*
X47420017Y-197481819D01*
X47896208Y-197481819D02*
X47896208Y-196481819D01*
X47991446Y-197100866D02*
X48277160Y-197481819D01*
X48277160Y-196815152D02*
X47896208Y-197196104D01*
X48848589Y-197481819D02*
X48753351Y-197434200D01*
X48753351Y-197434200D02*
X48705732Y-197386580D01*
X48705732Y-197386580D02*
X48658113Y-197291342D01*
X48658113Y-197291342D02*
X48658113Y-197005628D01*
X48658113Y-197005628D02*
X48705732Y-196910390D01*
X48705732Y-196910390D02*
X48753351Y-196862771D01*
X48753351Y-196862771D02*
X48848589Y-196815152D01*
X48848589Y-196815152D02*
X48991446Y-196815152D01*
X48991446Y-196815152D02*
X49086684Y-196862771D01*
X49086684Y-196862771D02*
X49134303Y-196910390D01*
X49134303Y-196910390D02*
X49181922Y-197005628D01*
X49181922Y-197005628D02*
X49181922Y-197291342D01*
X49181922Y-197291342D02*
X49134303Y-197386580D01*
X49134303Y-197386580D02*
X49086684Y-197434200D01*
X49086684Y-197434200D02*
X48991446Y-197481819D01*
X48991446Y-197481819D02*
X48848589Y-197481819D01*
X49515256Y-196815152D02*
X49753351Y-197481819D01*
X49753351Y-197481819D02*
X49991446Y-196815152D01*
X50372399Y-197481819D02*
X50372399Y-196815152D01*
X50372399Y-196481819D02*
X50324780Y-196529438D01*
X50324780Y-196529438D02*
X50372399Y-196577057D01*
X50372399Y-196577057D02*
X50420018Y-196529438D01*
X50420018Y-196529438D02*
X50372399Y-196481819D01*
X50372399Y-196481819D02*
X50372399Y-196577057D01*
X51277160Y-197434200D02*
X51181922Y-197481819D01*
X51181922Y-197481819D02*
X50991446Y-197481819D01*
X50991446Y-197481819D02*
X50896208Y-197434200D01*
X50896208Y-197434200D02*
X50848589Y-197386580D01*
X50848589Y-197386580D02*
X50800970Y-197291342D01*
X50800970Y-197291342D02*
X50800970Y-197005628D01*
X50800970Y-197005628D02*
X50848589Y-196910390D01*
X50848589Y-196910390D02*
X50896208Y-196862771D01*
X50896208Y-196862771D02*
X50991446Y-196815152D01*
X50991446Y-196815152D02*
X51181922Y-196815152D01*
X51181922Y-196815152D02*
X51277160Y-196862771D01*
X51753351Y-197434200D02*
X51753351Y-197481819D01*
X51753351Y-197481819D02*
X51705732Y-197577057D01*
X51705732Y-197577057D02*
X51658113Y-197624676D01*
X52896208Y-196577057D02*
X52943827Y-196529438D01*
X52943827Y-196529438D02*
X53039065Y-196481819D01*
X53039065Y-196481819D02*
X53277160Y-196481819D01*
X53277160Y-196481819D02*
X53372398Y-196529438D01*
X53372398Y-196529438D02*
X53420017Y-196577057D01*
X53420017Y-196577057D02*
X53467636Y-196672295D01*
X53467636Y-196672295D02*
X53467636Y-196767533D01*
X53467636Y-196767533D02*
X53420017Y-196910390D01*
X53420017Y-196910390D02*
X52848589Y-197481819D01*
X52848589Y-197481819D02*
X53467636Y-197481819D01*
X54086684Y-196481819D02*
X54181922Y-196481819D01*
X54181922Y-196481819D02*
X54277160Y-196529438D01*
X54277160Y-196529438D02*
X54324779Y-196577057D01*
X54324779Y-196577057D02*
X54372398Y-196672295D01*
X54372398Y-196672295D02*
X54420017Y-196862771D01*
X54420017Y-196862771D02*
X54420017Y-197100866D01*
X54420017Y-197100866D02*
X54372398Y-197291342D01*
X54372398Y-197291342D02*
X54324779Y-197386580D01*
X54324779Y-197386580D02*
X54277160Y-197434200D01*
X54277160Y-197434200D02*
X54181922Y-197481819D01*
X54181922Y-197481819D02*
X54086684Y-197481819D01*
X54086684Y-197481819D02*
X53991446Y-197434200D01*
X53991446Y-197434200D02*
X53943827Y-197386580D01*
X53943827Y-197386580D02*
X53896208Y-197291342D01*
X53896208Y-197291342D02*
X53848589Y-197100866D01*
X53848589Y-197100866D02*
X53848589Y-196862771D01*
X53848589Y-196862771D02*
X53896208Y-196672295D01*
X53896208Y-196672295D02*
X53943827Y-196577057D01*
X53943827Y-196577057D02*
X53991446Y-196529438D01*
X53991446Y-196529438D02*
X54086684Y-196481819D01*
X54800970Y-196577057D02*
X54848589Y-196529438D01*
X54848589Y-196529438D02*
X54943827Y-196481819D01*
X54943827Y-196481819D02*
X55181922Y-196481819D01*
X55181922Y-196481819D02*
X55277160Y-196529438D01*
X55277160Y-196529438D02*
X55324779Y-196577057D01*
X55324779Y-196577057D02*
X55372398Y-196672295D01*
X55372398Y-196672295D02*
X55372398Y-196767533D01*
X55372398Y-196767533D02*
X55324779Y-196910390D01*
X55324779Y-196910390D02*
X54753351Y-197481819D01*
X54753351Y-197481819D02*
X55372398Y-197481819D01*
X55705732Y-196481819D02*
X56324779Y-196481819D01*
X56324779Y-196481819D02*
X55991446Y-196862771D01*
X55991446Y-196862771D02*
X56134303Y-196862771D01*
X56134303Y-196862771D02*
X56229541Y-196910390D01*
X56229541Y-196910390D02*
X56277160Y-196958009D01*
X56277160Y-196958009D02*
X56324779Y-197053247D01*
X56324779Y-197053247D02*
X56324779Y-197291342D01*
X56324779Y-197291342D02*
X56277160Y-197386580D01*
X56277160Y-197386580D02*
X56229541Y-197434200D01*
X56229541Y-197434200D02*
X56134303Y-197481819D01*
X56134303Y-197481819D02*
X55848589Y-197481819D01*
X55848589Y-197481819D02*
X55753351Y-197434200D01*
X55753351Y-197434200D02*
X55705732Y-197386580D01*
%TO.C,REF4*%
X237712380Y-206250819D02*
X237379047Y-205774628D01*
X237140952Y-206250819D02*
X237140952Y-205250819D01*
X237140952Y-205250819D02*
X237521904Y-205250819D01*
X237521904Y-205250819D02*
X237617142Y-205298438D01*
X237617142Y-205298438D02*
X237664761Y-205346057D01*
X237664761Y-205346057D02*
X237712380Y-205441295D01*
X237712380Y-205441295D02*
X237712380Y-205584152D01*
X237712380Y-205584152D02*
X237664761Y-205679390D01*
X237664761Y-205679390D02*
X237617142Y-205727009D01*
X237617142Y-205727009D02*
X237521904Y-205774628D01*
X237521904Y-205774628D02*
X237140952Y-205774628D01*
X238140952Y-205727009D02*
X238474285Y-205727009D01*
X238617142Y-206250819D02*
X238140952Y-206250819D01*
X238140952Y-206250819D02*
X238140952Y-205250819D01*
X238140952Y-205250819D02*
X238617142Y-205250819D01*
X239379047Y-205727009D02*
X239045714Y-205727009D01*
X239045714Y-206250819D02*
X239045714Y-205250819D01*
X239045714Y-205250819D02*
X239521904Y-205250819D01*
X240331428Y-205584152D02*
X240331428Y-206250819D01*
X240093333Y-205203200D02*
X239855238Y-205917485D01*
X239855238Y-205917485D02*
X240474285Y-205917485D01*
%TO.C,REF3*%
X29940380Y-206250819D02*
X29607047Y-205774628D01*
X29368952Y-206250819D02*
X29368952Y-205250819D01*
X29368952Y-205250819D02*
X29749904Y-205250819D01*
X29749904Y-205250819D02*
X29845142Y-205298438D01*
X29845142Y-205298438D02*
X29892761Y-205346057D01*
X29892761Y-205346057D02*
X29940380Y-205441295D01*
X29940380Y-205441295D02*
X29940380Y-205584152D01*
X29940380Y-205584152D02*
X29892761Y-205679390D01*
X29892761Y-205679390D02*
X29845142Y-205727009D01*
X29845142Y-205727009D02*
X29749904Y-205774628D01*
X29749904Y-205774628D02*
X29368952Y-205774628D01*
X30368952Y-205727009D02*
X30702285Y-205727009D01*
X30845142Y-206250819D02*
X30368952Y-206250819D01*
X30368952Y-206250819D02*
X30368952Y-205250819D01*
X30368952Y-205250819D02*
X30845142Y-205250819D01*
X31607047Y-205727009D02*
X31273714Y-205727009D01*
X31273714Y-206250819D02*
X31273714Y-205250819D01*
X31273714Y-205250819D02*
X31749904Y-205250819D01*
X32035619Y-205250819D02*
X32654666Y-205250819D01*
X32654666Y-205250819D02*
X32321333Y-205631771D01*
X32321333Y-205631771D02*
X32464190Y-205631771D01*
X32464190Y-205631771D02*
X32559428Y-205679390D01*
X32559428Y-205679390D02*
X32607047Y-205727009D01*
X32607047Y-205727009D02*
X32654666Y-205822247D01*
X32654666Y-205822247D02*
X32654666Y-206060342D01*
X32654666Y-206060342D02*
X32607047Y-206155580D01*
X32607047Y-206155580D02*
X32559428Y-206203200D01*
X32559428Y-206203200D02*
X32464190Y-206250819D01*
X32464190Y-206250819D02*
X32178476Y-206250819D01*
X32178476Y-206250819D02*
X32083238Y-206203200D01*
X32083238Y-206203200D02*
X32035619Y-206155580D01*
%TO.C,REF1*%
X29940380Y-36578819D02*
X29607047Y-36102628D01*
X29368952Y-36578819D02*
X29368952Y-35578819D01*
X29368952Y-35578819D02*
X29749904Y-35578819D01*
X29749904Y-35578819D02*
X29845142Y-35626438D01*
X29845142Y-35626438D02*
X29892761Y-35674057D01*
X29892761Y-35674057D02*
X29940380Y-35769295D01*
X29940380Y-35769295D02*
X29940380Y-35912152D01*
X29940380Y-35912152D02*
X29892761Y-36007390D01*
X29892761Y-36007390D02*
X29845142Y-36055009D01*
X29845142Y-36055009D02*
X29749904Y-36102628D01*
X29749904Y-36102628D02*
X29368952Y-36102628D01*
X30368952Y-36055009D02*
X30702285Y-36055009D01*
X30845142Y-36578819D02*
X30368952Y-36578819D01*
X30368952Y-36578819D02*
X30368952Y-35578819D01*
X30368952Y-35578819D02*
X30845142Y-35578819D01*
X31607047Y-36055009D02*
X31273714Y-36055009D01*
X31273714Y-36578819D02*
X31273714Y-35578819D01*
X31273714Y-35578819D02*
X31749904Y-35578819D01*
X32654666Y-36578819D02*
X32083238Y-36578819D01*
X32368952Y-36578819D02*
X32368952Y-35578819D01*
X32368952Y-35578819D02*
X32273714Y-35721676D01*
X32273714Y-35721676D02*
X32178476Y-35816914D01*
X32178476Y-35816914D02*
X32083238Y-35864533D01*
%TO.C,X2*%
X226266476Y-162692819D02*
X226933142Y-163692819D01*
X226933142Y-162692819D02*
X226266476Y-163692819D01*
X227266476Y-162788057D02*
X227314095Y-162740438D01*
X227314095Y-162740438D02*
X227409333Y-162692819D01*
X227409333Y-162692819D02*
X227647428Y-162692819D01*
X227647428Y-162692819D02*
X227742666Y-162740438D01*
X227742666Y-162740438D02*
X227790285Y-162788057D01*
X227790285Y-162788057D02*
X227837904Y-162883295D01*
X227837904Y-162883295D02*
X227837904Y-162978533D01*
X227837904Y-162978533D02*
X227790285Y-163121390D01*
X227790285Y-163121390D02*
X227218857Y-163692819D01*
X227218857Y-163692819D02*
X227837904Y-163692819D01*
%TO.C,X1*%
X96726476Y-173360819D02*
X97393142Y-174360819D01*
X97393142Y-173360819D02*
X96726476Y-174360819D01*
X98297904Y-174360819D02*
X97726476Y-174360819D01*
X98012190Y-174360819D02*
X98012190Y-173360819D01*
X98012190Y-173360819D02*
X97916952Y-173503676D01*
X97916952Y-173503676D02*
X97821714Y-173598914D01*
X97821714Y-173598914D02*
X97726476Y-173646533D01*
%TO.C,U16*%
X163353905Y-154604819D02*
X163353905Y-155414342D01*
X163353905Y-155414342D02*
X163401524Y-155509580D01*
X163401524Y-155509580D02*
X163449143Y-155557200D01*
X163449143Y-155557200D02*
X163544381Y-155604819D01*
X163544381Y-155604819D02*
X163734857Y-155604819D01*
X163734857Y-155604819D02*
X163830095Y-155557200D01*
X163830095Y-155557200D02*
X163877714Y-155509580D01*
X163877714Y-155509580D02*
X163925333Y-155414342D01*
X163925333Y-155414342D02*
X163925333Y-154604819D01*
X164925333Y-155604819D02*
X164353905Y-155604819D01*
X164639619Y-155604819D02*
X164639619Y-154604819D01*
X164639619Y-154604819D02*
X164544381Y-154747676D01*
X164544381Y-154747676D02*
X164449143Y-154842914D01*
X164449143Y-154842914D02*
X164353905Y-154890533D01*
X165782476Y-154604819D02*
X165592000Y-154604819D01*
X165592000Y-154604819D02*
X165496762Y-154652438D01*
X165496762Y-154652438D02*
X165449143Y-154700057D01*
X165449143Y-154700057D02*
X165353905Y-154842914D01*
X165353905Y-154842914D02*
X165306286Y-155033390D01*
X165306286Y-155033390D02*
X165306286Y-155414342D01*
X165306286Y-155414342D02*
X165353905Y-155509580D01*
X165353905Y-155509580D02*
X165401524Y-155557200D01*
X165401524Y-155557200D02*
X165496762Y-155604819D01*
X165496762Y-155604819D02*
X165687238Y-155604819D01*
X165687238Y-155604819D02*
X165782476Y-155557200D01*
X165782476Y-155557200D02*
X165830095Y-155509580D01*
X165830095Y-155509580D02*
X165877714Y-155414342D01*
X165877714Y-155414342D02*
X165877714Y-155176247D01*
X165877714Y-155176247D02*
X165830095Y-155081009D01*
X165830095Y-155081009D02*
X165782476Y-155033390D01*
X165782476Y-155033390D02*
X165687238Y-154985771D01*
X165687238Y-154985771D02*
X165496762Y-154985771D01*
X165496762Y-154985771D02*
X165401524Y-155033390D01*
X165401524Y-155033390D02*
X165353905Y-155081009D01*
X165353905Y-155081009D02*
X165306286Y-155176247D01*
%TO.C,U15*%
X136937905Y-154604819D02*
X136937905Y-155414342D01*
X136937905Y-155414342D02*
X136985524Y-155509580D01*
X136985524Y-155509580D02*
X137033143Y-155557200D01*
X137033143Y-155557200D02*
X137128381Y-155604819D01*
X137128381Y-155604819D02*
X137318857Y-155604819D01*
X137318857Y-155604819D02*
X137414095Y-155557200D01*
X137414095Y-155557200D02*
X137461714Y-155509580D01*
X137461714Y-155509580D02*
X137509333Y-155414342D01*
X137509333Y-155414342D02*
X137509333Y-154604819D01*
X138509333Y-155604819D02*
X137937905Y-155604819D01*
X138223619Y-155604819D02*
X138223619Y-154604819D01*
X138223619Y-154604819D02*
X138128381Y-154747676D01*
X138128381Y-154747676D02*
X138033143Y-154842914D01*
X138033143Y-154842914D02*
X137937905Y-154890533D01*
X139414095Y-154604819D02*
X138937905Y-154604819D01*
X138937905Y-154604819D02*
X138890286Y-155081009D01*
X138890286Y-155081009D02*
X138937905Y-155033390D01*
X138937905Y-155033390D02*
X139033143Y-154985771D01*
X139033143Y-154985771D02*
X139271238Y-154985771D01*
X139271238Y-154985771D02*
X139366476Y-155033390D01*
X139366476Y-155033390D02*
X139414095Y-155081009D01*
X139414095Y-155081009D02*
X139461714Y-155176247D01*
X139461714Y-155176247D02*
X139461714Y-155414342D01*
X139461714Y-155414342D02*
X139414095Y-155509580D01*
X139414095Y-155509580D02*
X139366476Y-155557200D01*
X139366476Y-155557200D02*
X139271238Y-155604819D01*
X139271238Y-155604819D02*
X139033143Y-155604819D01*
X139033143Y-155604819D02*
X138937905Y-155557200D01*
X138937905Y-155557200D02*
X138890286Y-155509580D01*
%TO.C,U14*%
X119411905Y-108117819D02*
X119411905Y-108927342D01*
X119411905Y-108927342D02*
X119459524Y-109022580D01*
X119459524Y-109022580D02*
X119507143Y-109070200D01*
X119507143Y-109070200D02*
X119602381Y-109117819D01*
X119602381Y-109117819D02*
X119792857Y-109117819D01*
X119792857Y-109117819D02*
X119888095Y-109070200D01*
X119888095Y-109070200D02*
X119935714Y-109022580D01*
X119935714Y-109022580D02*
X119983333Y-108927342D01*
X119983333Y-108927342D02*
X119983333Y-108117819D01*
X120983333Y-109117819D02*
X120411905Y-109117819D01*
X120697619Y-109117819D02*
X120697619Y-108117819D01*
X120697619Y-108117819D02*
X120602381Y-108260676D01*
X120602381Y-108260676D02*
X120507143Y-108355914D01*
X120507143Y-108355914D02*
X120411905Y-108403533D01*
X121840476Y-108451152D02*
X121840476Y-109117819D01*
X121602381Y-108070200D02*
X121364286Y-108784485D01*
X121364286Y-108784485D02*
X121983333Y-108784485D01*
%TO.C,U13*%
X225847905Y-184312819D02*
X225847905Y-185122342D01*
X225847905Y-185122342D02*
X225895524Y-185217580D01*
X225895524Y-185217580D02*
X225943143Y-185265200D01*
X225943143Y-185265200D02*
X226038381Y-185312819D01*
X226038381Y-185312819D02*
X226228857Y-185312819D01*
X226228857Y-185312819D02*
X226324095Y-185265200D01*
X226324095Y-185265200D02*
X226371714Y-185217580D01*
X226371714Y-185217580D02*
X226419333Y-185122342D01*
X226419333Y-185122342D02*
X226419333Y-184312819D01*
X227419333Y-185312819D02*
X226847905Y-185312819D01*
X227133619Y-185312819D02*
X227133619Y-184312819D01*
X227133619Y-184312819D02*
X227038381Y-184455676D01*
X227038381Y-184455676D02*
X226943143Y-184550914D01*
X226943143Y-184550914D02*
X226847905Y-184598533D01*
X227752667Y-184312819D02*
X228371714Y-184312819D01*
X228371714Y-184312819D02*
X228038381Y-184693771D01*
X228038381Y-184693771D02*
X228181238Y-184693771D01*
X228181238Y-184693771D02*
X228276476Y-184741390D01*
X228276476Y-184741390D02*
X228324095Y-184789009D01*
X228324095Y-184789009D02*
X228371714Y-184884247D01*
X228371714Y-184884247D02*
X228371714Y-185122342D01*
X228371714Y-185122342D02*
X228324095Y-185217580D01*
X228324095Y-185217580D02*
X228276476Y-185265200D01*
X228276476Y-185265200D02*
X228181238Y-185312819D01*
X228181238Y-185312819D02*
X227895524Y-185312819D01*
X227895524Y-185312819D02*
X227800286Y-185265200D01*
X227800286Y-185265200D02*
X227752667Y-185217580D01*
%TO.C,U12*%
X193833905Y-167035819D02*
X193833905Y-167845342D01*
X193833905Y-167845342D02*
X193881524Y-167940580D01*
X193881524Y-167940580D02*
X193929143Y-167988200D01*
X193929143Y-167988200D02*
X194024381Y-168035819D01*
X194024381Y-168035819D02*
X194214857Y-168035819D01*
X194214857Y-168035819D02*
X194310095Y-167988200D01*
X194310095Y-167988200D02*
X194357714Y-167940580D01*
X194357714Y-167940580D02*
X194405333Y-167845342D01*
X194405333Y-167845342D02*
X194405333Y-167035819D01*
X195405333Y-168035819D02*
X194833905Y-168035819D01*
X195119619Y-168035819D02*
X195119619Y-167035819D01*
X195119619Y-167035819D02*
X195024381Y-167178676D01*
X195024381Y-167178676D02*
X194929143Y-167273914D01*
X194929143Y-167273914D02*
X194833905Y-167321533D01*
X195786286Y-167131057D02*
X195833905Y-167083438D01*
X195833905Y-167083438D02*
X195929143Y-167035819D01*
X195929143Y-167035819D02*
X196167238Y-167035819D01*
X196167238Y-167035819D02*
X196262476Y-167083438D01*
X196262476Y-167083438D02*
X196310095Y-167131057D01*
X196310095Y-167131057D02*
X196357714Y-167226295D01*
X196357714Y-167226295D02*
X196357714Y-167321533D01*
X196357714Y-167321533D02*
X196310095Y-167464390D01*
X196310095Y-167464390D02*
X195738667Y-168035819D01*
X195738667Y-168035819D02*
X196357714Y-168035819D01*
%TO.C,U11*%
X67595905Y-148508819D02*
X67595905Y-149318342D01*
X67595905Y-149318342D02*
X67643524Y-149413580D01*
X67643524Y-149413580D02*
X67691143Y-149461200D01*
X67691143Y-149461200D02*
X67786381Y-149508819D01*
X67786381Y-149508819D02*
X67976857Y-149508819D01*
X67976857Y-149508819D02*
X68072095Y-149461200D01*
X68072095Y-149461200D02*
X68119714Y-149413580D01*
X68119714Y-149413580D02*
X68167333Y-149318342D01*
X68167333Y-149318342D02*
X68167333Y-148508819D01*
X69167333Y-149508819D02*
X68595905Y-149508819D01*
X68881619Y-149508819D02*
X68881619Y-148508819D01*
X68881619Y-148508819D02*
X68786381Y-148651676D01*
X68786381Y-148651676D02*
X68691143Y-148746914D01*
X68691143Y-148746914D02*
X68595905Y-148794533D01*
X70119714Y-149508819D02*
X69548286Y-149508819D01*
X69834000Y-149508819D02*
X69834000Y-148508819D01*
X69834000Y-148508819D02*
X69738762Y-148651676D01*
X69738762Y-148651676D02*
X69643524Y-148746914D01*
X69643524Y-148746914D02*
X69548286Y-148794533D01*
%TO.C,U9*%
X137922095Y-47924819D02*
X137922095Y-48734342D01*
X137922095Y-48734342D02*
X137969714Y-48829580D01*
X137969714Y-48829580D02*
X138017333Y-48877200D01*
X138017333Y-48877200D02*
X138112571Y-48924819D01*
X138112571Y-48924819D02*
X138303047Y-48924819D01*
X138303047Y-48924819D02*
X138398285Y-48877200D01*
X138398285Y-48877200D02*
X138445904Y-48829580D01*
X138445904Y-48829580D02*
X138493523Y-48734342D01*
X138493523Y-48734342D02*
X138493523Y-47924819D01*
X139017333Y-48924819D02*
X139207809Y-48924819D01*
X139207809Y-48924819D02*
X139303047Y-48877200D01*
X139303047Y-48877200D02*
X139350666Y-48829580D01*
X139350666Y-48829580D02*
X139445904Y-48686723D01*
X139445904Y-48686723D02*
X139493523Y-48496247D01*
X139493523Y-48496247D02*
X139493523Y-48115295D01*
X139493523Y-48115295D02*
X139445904Y-48020057D01*
X139445904Y-48020057D02*
X139398285Y-47972438D01*
X139398285Y-47972438D02*
X139303047Y-47924819D01*
X139303047Y-47924819D02*
X139112571Y-47924819D01*
X139112571Y-47924819D02*
X139017333Y-47972438D01*
X139017333Y-47972438D02*
X138969714Y-48020057D01*
X138969714Y-48020057D02*
X138922095Y-48115295D01*
X138922095Y-48115295D02*
X138922095Y-48353390D01*
X138922095Y-48353390D02*
X138969714Y-48448628D01*
X138969714Y-48448628D02*
X139017333Y-48496247D01*
X139017333Y-48496247D02*
X139112571Y-48543866D01*
X139112571Y-48543866D02*
X139303047Y-48543866D01*
X139303047Y-48543866D02*
X139398285Y-48496247D01*
X139398285Y-48496247D02*
X139445904Y-48448628D01*
X139445904Y-48448628D02*
X139493523Y-48353390D01*
%TO.C,U8*%
X195834095Y-108376819D02*
X195834095Y-109186342D01*
X195834095Y-109186342D02*
X195881714Y-109281580D01*
X195881714Y-109281580D02*
X195929333Y-109329200D01*
X195929333Y-109329200D02*
X196024571Y-109376819D01*
X196024571Y-109376819D02*
X196215047Y-109376819D01*
X196215047Y-109376819D02*
X196310285Y-109329200D01*
X196310285Y-109329200D02*
X196357904Y-109281580D01*
X196357904Y-109281580D02*
X196405523Y-109186342D01*
X196405523Y-109186342D02*
X196405523Y-108376819D01*
X197024571Y-108805390D02*
X196929333Y-108757771D01*
X196929333Y-108757771D02*
X196881714Y-108710152D01*
X196881714Y-108710152D02*
X196834095Y-108614914D01*
X196834095Y-108614914D02*
X196834095Y-108567295D01*
X196834095Y-108567295D02*
X196881714Y-108472057D01*
X196881714Y-108472057D02*
X196929333Y-108424438D01*
X196929333Y-108424438D02*
X197024571Y-108376819D01*
X197024571Y-108376819D02*
X197215047Y-108376819D01*
X197215047Y-108376819D02*
X197310285Y-108424438D01*
X197310285Y-108424438D02*
X197357904Y-108472057D01*
X197357904Y-108472057D02*
X197405523Y-108567295D01*
X197405523Y-108567295D02*
X197405523Y-108614914D01*
X197405523Y-108614914D02*
X197357904Y-108710152D01*
X197357904Y-108710152D02*
X197310285Y-108757771D01*
X197310285Y-108757771D02*
X197215047Y-108805390D01*
X197215047Y-108805390D02*
X197024571Y-108805390D01*
X197024571Y-108805390D02*
X196929333Y-108853009D01*
X196929333Y-108853009D02*
X196881714Y-108900628D01*
X196881714Y-108900628D02*
X196834095Y-108995866D01*
X196834095Y-108995866D02*
X196834095Y-109186342D01*
X196834095Y-109186342D02*
X196881714Y-109281580D01*
X196881714Y-109281580D02*
X196929333Y-109329200D01*
X196929333Y-109329200D02*
X197024571Y-109376819D01*
X197024571Y-109376819D02*
X197215047Y-109376819D01*
X197215047Y-109376819D02*
X197310285Y-109329200D01*
X197310285Y-109329200D02*
X197357904Y-109281580D01*
X197357904Y-109281580D02*
X197405523Y-109186342D01*
X197405523Y-109186342D02*
X197405523Y-108995866D01*
X197405523Y-108995866D02*
X197357904Y-108900628D01*
X197357904Y-108900628D02*
X197310285Y-108853009D01*
X197310285Y-108853009D02*
X197215047Y-108805390D01*
%TO.C,U7*%
X110998095Y-47924819D02*
X110998095Y-48734342D01*
X110998095Y-48734342D02*
X111045714Y-48829580D01*
X111045714Y-48829580D02*
X111093333Y-48877200D01*
X111093333Y-48877200D02*
X111188571Y-48924819D01*
X111188571Y-48924819D02*
X111379047Y-48924819D01*
X111379047Y-48924819D02*
X111474285Y-48877200D01*
X111474285Y-48877200D02*
X111521904Y-48829580D01*
X111521904Y-48829580D02*
X111569523Y-48734342D01*
X111569523Y-48734342D02*
X111569523Y-47924819D01*
X111950476Y-47924819D02*
X112617142Y-47924819D01*
X112617142Y-47924819D02*
X112188571Y-48924819D01*
%TO.C,U6*%
X170444095Y-108376819D02*
X170444095Y-109186342D01*
X170444095Y-109186342D02*
X170491714Y-109281580D01*
X170491714Y-109281580D02*
X170539333Y-109329200D01*
X170539333Y-109329200D02*
X170634571Y-109376819D01*
X170634571Y-109376819D02*
X170825047Y-109376819D01*
X170825047Y-109376819D02*
X170920285Y-109329200D01*
X170920285Y-109329200D02*
X170967904Y-109281580D01*
X170967904Y-109281580D02*
X171015523Y-109186342D01*
X171015523Y-109186342D02*
X171015523Y-108376819D01*
X171920285Y-108376819D02*
X171729809Y-108376819D01*
X171729809Y-108376819D02*
X171634571Y-108424438D01*
X171634571Y-108424438D02*
X171586952Y-108472057D01*
X171586952Y-108472057D02*
X171491714Y-108614914D01*
X171491714Y-108614914D02*
X171444095Y-108805390D01*
X171444095Y-108805390D02*
X171444095Y-109186342D01*
X171444095Y-109186342D02*
X171491714Y-109281580D01*
X171491714Y-109281580D02*
X171539333Y-109329200D01*
X171539333Y-109329200D02*
X171634571Y-109376819D01*
X171634571Y-109376819D02*
X171825047Y-109376819D01*
X171825047Y-109376819D02*
X171920285Y-109329200D01*
X171920285Y-109329200D02*
X171967904Y-109281580D01*
X171967904Y-109281580D02*
X172015523Y-109186342D01*
X172015523Y-109186342D02*
X172015523Y-108948247D01*
X172015523Y-108948247D02*
X171967904Y-108853009D01*
X171967904Y-108853009D02*
X171920285Y-108805390D01*
X171920285Y-108805390D02*
X171825047Y-108757771D01*
X171825047Y-108757771D02*
X171634571Y-108757771D01*
X171634571Y-108757771D02*
X171539333Y-108805390D01*
X171539333Y-108805390D02*
X171491714Y-108853009D01*
X171491714Y-108853009D02*
X171444095Y-108948247D01*
%TO.C,U5*%
X96266095Y-107868819D02*
X96266095Y-108678342D01*
X96266095Y-108678342D02*
X96313714Y-108773580D01*
X96313714Y-108773580D02*
X96361333Y-108821200D01*
X96361333Y-108821200D02*
X96456571Y-108868819D01*
X96456571Y-108868819D02*
X96647047Y-108868819D01*
X96647047Y-108868819D02*
X96742285Y-108821200D01*
X96742285Y-108821200D02*
X96789904Y-108773580D01*
X96789904Y-108773580D02*
X96837523Y-108678342D01*
X96837523Y-108678342D02*
X96837523Y-107868819D01*
X97789904Y-107868819D02*
X97313714Y-107868819D01*
X97313714Y-107868819D02*
X97266095Y-108345009D01*
X97266095Y-108345009D02*
X97313714Y-108297390D01*
X97313714Y-108297390D02*
X97408952Y-108249771D01*
X97408952Y-108249771D02*
X97647047Y-108249771D01*
X97647047Y-108249771D02*
X97742285Y-108297390D01*
X97742285Y-108297390D02*
X97789904Y-108345009D01*
X97789904Y-108345009D02*
X97837523Y-108440247D01*
X97837523Y-108440247D02*
X97837523Y-108678342D01*
X97837523Y-108678342D02*
X97789904Y-108773580D01*
X97789904Y-108773580D02*
X97742285Y-108821200D01*
X97742285Y-108821200D02*
X97647047Y-108868819D01*
X97647047Y-108868819D02*
X97408952Y-108868819D01*
X97408952Y-108868819D02*
X97313714Y-108821200D01*
X97313714Y-108821200D02*
X97266095Y-108773580D01*
%TO.C,U4*%
X138440095Y-108117819D02*
X138440095Y-108927342D01*
X138440095Y-108927342D02*
X138487714Y-109022580D01*
X138487714Y-109022580D02*
X138535333Y-109070200D01*
X138535333Y-109070200D02*
X138630571Y-109117819D01*
X138630571Y-109117819D02*
X138821047Y-109117819D01*
X138821047Y-109117819D02*
X138916285Y-109070200D01*
X138916285Y-109070200D02*
X138963904Y-109022580D01*
X138963904Y-109022580D02*
X139011523Y-108927342D01*
X139011523Y-108927342D02*
X139011523Y-108117819D01*
X139916285Y-108451152D02*
X139916285Y-109117819D01*
X139678190Y-108070200D02*
X139440095Y-108784485D01*
X139440095Y-108784485D02*
X140059142Y-108784485D01*
%TO.C,U3*%
X226314095Y-108436819D02*
X226314095Y-109246342D01*
X226314095Y-109246342D02*
X226361714Y-109341580D01*
X226361714Y-109341580D02*
X226409333Y-109389200D01*
X226409333Y-109389200D02*
X226504571Y-109436819D01*
X226504571Y-109436819D02*
X226695047Y-109436819D01*
X226695047Y-109436819D02*
X226790285Y-109389200D01*
X226790285Y-109389200D02*
X226837904Y-109341580D01*
X226837904Y-109341580D02*
X226885523Y-109246342D01*
X226885523Y-109246342D02*
X226885523Y-108436819D01*
X227266476Y-108436819D02*
X227885523Y-108436819D01*
X227885523Y-108436819D02*
X227552190Y-108817771D01*
X227552190Y-108817771D02*
X227695047Y-108817771D01*
X227695047Y-108817771D02*
X227790285Y-108865390D01*
X227790285Y-108865390D02*
X227837904Y-108913009D01*
X227837904Y-108913009D02*
X227885523Y-109008247D01*
X227885523Y-109008247D02*
X227885523Y-109246342D01*
X227885523Y-109246342D02*
X227837904Y-109341580D01*
X227837904Y-109341580D02*
X227790285Y-109389200D01*
X227790285Y-109389200D02*
X227695047Y-109436819D01*
X227695047Y-109436819D02*
X227409333Y-109436819D01*
X227409333Y-109436819D02*
X227314095Y-109389200D01*
X227314095Y-109389200D02*
X227266476Y-109341580D01*
%TO.C,U2*%
X155956095Y-108117819D02*
X155956095Y-108927342D01*
X155956095Y-108927342D02*
X156003714Y-109022580D01*
X156003714Y-109022580D02*
X156051333Y-109070200D01*
X156051333Y-109070200D02*
X156146571Y-109117819D01*
X156146571Y-109117819D02*
X156337047Y-109117819D01*
X156337047Y-109117819D02*
X156432285Y-109070200D01*
X156432285Y-109070200D02*
X156479904Y-109022580D01*
X156479904Y-109022580D02*
X156527523Y-108927342D01*
X156527523Y-108927342D02*
X156527523Y-108117819D01*
X156956095Y-108213057D02*
X157003714Y-108165438D01*
X157003714Y-108165438D02*
X157098952Y-108117819D01*
X157098952Y-108117819D02*
X157337047Y-108117819D01*
X157337047Y-108117819D02*
X157432285Y-108165438D01*
X157432285Y-108165438D02*
X157479904Y-108213057D01*
X157479904Y-108213057D02*
X157527523Y-108308295D01*
X157527523Y-108308295D02*
X157527523Y-108403533D01*
X157527523Y-108403533D02*
X157479904Y-108546390D01*
X157479904Y-108546390D02*
X156908476Y-109117819D01*
X156908476Y-109117819D02*
X157527523Y-109117819D01*
%TO.C,U1*%
X119888095Y-134284819D02*
X119888095Y-135094342D01*
X119888095Y-135094342D02*
X119935714Y-135189580D01*
X119935714Y-135189580D02*
X119983333Y-135237200D01*
X119983333Y-135237200D02*
X120078571Y-135284819D01*
X120078571Y-135284819D02*
X120269047Y-135284819D01*
X120269047Y-135284819D02*
X120364285Y-135237200D01*
X120364285Y-135237200D02*
X120411904Y-135189580D01*
X120411904Y-135189580D02*
X120459523Y-135094342D01*
X120459523Y-135094342D02*
X120459523Y-134284819D01*
X121459523Y-135284819D02*
X120888095Y-135284819D01*
X121173809Y-135284819D02*
X121173809Y-134284819D01*
X121173809Y-134284819D02*
X121078571Y-134427676D01*
X121078571Y-134427676D02*
X120983333Y-134522914D01*
X120983333Y-134522914D02*
X120888095Y-134570533D01*
%TO.C,SW3*%
X54078667Y-95289200D02*
X54221524Y-95336819D01*
X54221524Y-95336819D02*
X54459619Y-95336819D01*
X54459619Y-95336819D02*
X54554857Y-95289200D01*
X54554857Y-95289200D02*
X54602476Y-95241580D01*
X54602476Y-95241580D02*
X54650095Y-95146342D01*
X54650095Y-95146342D02*
X54650095Y-95051104D01*
X54650095Y-95051104D02*
X54602476Y-94955866D01*
X54602476Y-94955866D02*
X54554857Y-94908247D01*
X54554857Y-94908247D02*
X54459619Y-94860628D01*
X54459619Y-94860628D02*
X54269143Y-94813009D01*
X54269143Y-94813009D02*
X54173905Y-94765390D01*
X54173905Y-94765390D02*
X54126286Y-94717771D01*
X54126286Y-94717771D02*
X54078667Y-94622533D01*
X54078667Y-94622533D02*
X54078667Y-94527295D01*
X54078667Y-94527295D02*
X54126286Y-94432057D01*
X54126286Y-94432057D02*
X54173905Y-94384438D01*
X54173905Y-94384438D02*
X54269143Y-94336819D01*
X54269143Y-94336819D02*
X54507238Y-94336819D01*
X54507238Y-94336819D02*
X54650095Y-94384438D01*
X54983429Y-94336819D02*
X55221524Y-95336819D01*
X55221524Y-95336819D02*
X55412000Y-94622533D01*
X55412000Y-94622533D02*
X55602476Y-95336819D01*
X55602476Y-95336819D02*
X55840572Y-94336819D01*
X56126286Y-94336819D02*
X56745333Y-94336819D01*
X56745333Y-94336819D02*
X56412000Y-94717771D01*
X56412000Y-94717771D02*
X56554857Y-94717771D01*
X56554857Y-94717771D02*
X56650095Y-94765390D01*
X56650095Y-94765390D02*
X56697714Y-94813009D01*
X56697714Y-94813009D02*
X56745333Y-94908247D01*
X56745333Y-94908247D02*
X56745333Y-95146342D01*
X56745333Y-95146342D02*
X56697714Y-95241580D01*
X56697714Y-95241580D02*
X56650095Y-95289200D01*
X56650095Y-95289200D02*
X56554857Y-95336819D01*
X56554857Y-95336819D02*
X56269143Y-95336819D01*
X56269143Y-95336819D02*
X56173905Y-95289200D01*
X56173905Y-95289200D02*
X56126286Y-95241580D01*
%TO.C,SW2*%
X54344667Y-109949200D02*
X54487524Y-109996819D01*
X54487524Y-109996819D02*
X54725619Y-109996819D01*
X54725619Y-109996819D02*
X54820857Y-109949200D01*
X54820857Y-109949200D02*
X54868476Y-109901580D01*
X54868476Y-109901580D02*
X54916095Y-109806342D01*
X54916095Y-109806342D02*
X54916095Y-109711104D01*
X54916095Y-109711104D02*
X54868476Y-109615866D01*
X54868476Y-109615866D02*
X54820857Y-109568247D01*
X54820857Y-109568247D02*
X54725619Y-109520628D01*
X54725619Y-109520628D02*
X54535143Y-109473009D01*
X54535143Y-109473009D02*
X54439905Y-109425390D01*
X54439905Y-109425390D02*
X54392286Y-109377771D01*
X54392286Y-109377771D02*
X54344667Y-109282533D01*
X54344667Y-109282533D02*
X54344667Y-109187295D01*
X54344667Y-109187295D02*
X54392286Y-109092057D01*
X54392286Y-109092057D02*
X54439905Y-109044438D01*
X54439905Y-109044438D02*
X54535143Y-108996819D01*
X54535143Y-108996819D02*
X54773238Y-108996819D01*
X54773238Y-108996819D02*
X54916095Y-109044438D01*
X55249429Y-108996819D02*
X55487524Y-109996819D01*
X55487524Y-109996819D02*
X55678000Y-109282533D01*
X55678000Y-109282533D02*
X55868476Y-109996819D01*
X55868476Y-109996819D02*
X56106572Y-108996819D01*
X56439905Y-109092057D02*
X56487524Y-109044438D01*
X56487524Y-109044438D02*
X56582762Y-108996819D01*
X56582762Y-108996819D02*
X56820857Y-108996819D01*
X56820857Y-108996819D02*
X56916095Y-109044438D01*
X56916095Y-109044438D02*
X56963714Y-109092057D01*
X56963714Y-109092057D02*
X57011333Y-109187295D01*
X57011333Y-109187295D02*
X57011333Y-109282533D01*
X57011333Y-109282533D02*
X56963714Y-109425390D01*
X56963714Y-109425390D02*
X56392286Y-109996819D01*
X56392286Y-109996819D02*
X57011333Y-109996819D01*
%TO.C,SW1*%
X54344667Y-123955200D02*
X54487524Y-124002819D01*
X54487524Y-124002819D02*
X54725619Y-124002819D01*
X54725619Y-124002819D02*
X54820857Y-123955200D01*
X54820857Y-123955200D02*
X54868476Y-123907580D01*
X54868476Y-123907580D02*
X54916095Y-123812342D01*
X54916095Y-123812342D02*
X54916095Y-123717104D01*
X54916095Y-123717104D02*
X54868476Y-123621866D01*
X54868476Y-123621866D02*
X54820857Y-123574247D01*
X54820857Y-123574247D02*
X54725619Y-123526628D01*
X54725619Y-123526628D02*
X54535143Y-123479009D01*
X54535143Y-123479009D02*
X54439905Y-123431390D01*
X54439905Y-123431390D02*
X54392286Y-123383771D01*
X54392286Y-123383771D02*
X54344667Y-123288533D01*
X54344667Y-123288533D02*
X54344667Y-123193295D01*
X54344667Y-123193295D02*
X54392286Y-123098057D01*
X54392286Y-123098057D02*
X54439905Y-123050438D01*
X54439905Y-123050438D02*
X54535143Y-123002819D01*
X54535143Y-123002819D02*
X54773238Y-123002819D01*
X54773238Y-123002819D02*
X54916095Y-123050438D01*
X55249429Y-123002819D02*
X55487524Y-124002819D01*
X55487524Y-124002819D02*
X55678000Y-123288533D01*
X55678000Y-123288533D02*
X55868476Y-124002819D01*
X55868476Y-124002819D02*
X56106572Y-123002819D01*
X57011333Y-124002819D02*
X56439905Y-124002819D01*
X56725619Y-124002819D02*
X56725619Y-123002819D01*
X56725619Y-123002819D02*
X56630381Y-123145676D01*
X56630381Y-123145676D02*
X56535143Y-123240914D01*
X56535143Y-123240914D02*
X56439905Y-123288533D01*
%TO.C,RV1*%
X153821761Y-36603819D02*
X153488428Y-36127628D01*
X153250333Y-36603819D02*
X153250333Y-35603819D01*
X153250333Y-35603819D02*
X153631285Y-35603819D01*
X153631285Y-35603819D02*
X153726523Y-35651438D01*
X153726523Y-35651438D02*
X153774142Y-35699057D01*
X153774142Y-35699057D02*
X153821761Y-35794295D01*
X153821761Y-35794295D02*
X153821761Y-35937152D01*
X153821761Y-35937152D02*
X153774142Y-36032390D01*
X153774142Y-36032390D02*
X153726523Y-36080009D01*
X153726523Y-36080009D02*
X153631285Y-36127628D01*
X153631285Y-36127628D02*
X153250333Y-36127628D01*
X154107476Y-35603819D02*
X154440809Y-36603819D01*
X154440809Y-36603819D02*
X154774142Y-35603819D01*
X155631285Y-36603819D02*
X155059857Y-36603819D01*
X155345571Y-36603819D02*
X155345571Y-35603819D01*
X155345571Y-35603819D02*
X155250333Y-35746676D01*
X155250333Y-35746676D02*
X155155095Y-35841914D01*
X155155095Y-35841914D02*
X155059857Y-35889533D01*
%TO.C,R24*%
X75557142Y-169788819D02*
X75223809Y-169312628D01*
X74985714Y-169788819D02*
X74985714Y-168788819D01*
X74985714Y-168788819D02*
X75366666Y-168788819D01*
X75366666Y-168788819D02*
X75461904Y-168836438D01*
X75461904Y-168836438D02*
X75509523Y-168884057D01*
X75509523Y-168884057D02*
X75557142Y-168979295D01*
X75557142Y-168979295D02*
X75557142Y-169122152D01*
X75557142Y-169122152D02*
X75509523Y-169217390D01*
X75509523Y-169217390D02*
X75461904Y-169265009D01*
X75461904Y-169265009D02*
X75366666Y-169312628D01*
X75366666Y-169312628D02*
X74985714Y-169312628D01*
X75938095Y-168884057D02*
X75985714Y-168836438D01*
X75985714Y-168836438D02*
X76080952Y-168788819D01*
X76080952Y-168788819D02*
X76319047Y-168788819D01*
X76319047Y-168788819D02*
X76414285Y-168836438D01*
X76414285Y-168836438D02*
X76461904Y-168884057D01*
X76461904Y-168884057D02*
X76509523Y-168979295D01*
X76509523Y-168979295D02*
X76509523Y-169074533D01*
X76509523Y-169074533D02*
X76461904Y-169217390D01*
X76461904Y-169217390D02*
X75890476Y-169788819D01*
X75890476Y-169788819D02*
X76509523Y-169788819D01*
X77366666Y-169122152D02*
X77366666Y-169788819D01*
X77128571Y-168741200D02*
X76890476Y-169455485D01*
X76890476Y-169455485D02*
X77509523Y-169455485D01*
%TO.C,R23*%
X75557142Y-184012819D02*
X75223809Y-183536628D01*
X74985714Y-184012819D02*
X74985714Y-183012819D01*
X74985714Y-183012819D02*
X75366666Y-183012819D01*
X75366666Y-183012819D02*
X75461904Y-183060438D01*
X75461904Y-183060438D02*
X75509523Y-183108057D01*
X75509523Y-183108057D02*
X75557142Y-183203295D01*
X75557142Y-183203295D02*
X75557142Y-183346152D01*
X75557142Y-183346152D02*
X75509523Y-183441390D01*
X75509523Y-183441390D02*
X75461904Y-183489009D01*
X75461904Y-183489009D02*
X75366666Y-183536628D01*
X75366666Y-183536628D02*
X74985714Y-183536628D01*
X75938095Y-183108057D02*
X75985714Y-183060438D01*
X75985714Y-183060438D02*
X76080952Y-183012819D01*
X76080952Y-183012819D02*
X76319047Y-183012819D01*
X76319047Y-183012819D02*
X76414285Y-183060438D01*
X76414285Y-183060438D02*
X76461904Y-183108057D01*
X76461904Y-183108057D02*
X76509523Y-183203295D01*
X76509523Y-183203295D02*
X76509523Y-183298533D01*
X76509523Y-183298533D02*
X76461904Y-183441390D01*
X76461904Y-183441390D02*
X75890476Y-184012819D01*
X75890476Y-184012819D02*
X76509523Y-184012819D01*
X76842857Y-183012819D02*
X77461904Y-183012819D01*
X77461904Y-183012819D02*
X77128571Y-183393771D01*
X77128571Y-183393771D02*
X77271428Y-183393771D01*
X77271428Y-183393771D02*
X77366666Y-183441390D01*
X77366666Y-183441390D02*
X77414285Y-183489009D01*
X77414285Y-183489009D02*
X77461904Y-183584247D01*
X77461904Y-183584247D02*
X77461904Y-183822342D01*
X77461904Y-183822342D02*
X77414285Y-183917580D01*
X77414285Y-183917580D02*
X77366666Y-183965200D01*
X77366666Y-183965200D02*
X77271428Y-184012819D01*
X77271428Y-184012819D02*
X76985714Y-184012819D01*
X76985714Y-184012819D02*
X76890476Y-183965200D01*
X76890476Y-183965200D02*
X76842857Y-183917580D01*
%TO.C,R22*%
X75557142Y-174360819D02*
X75223809Y-173884628D01*
X74985714Y-174360819D02*
X74985714Y-173360819D01*
X74985714Y-173360819D02*
X75366666Y-173360819D01*
X75366666Y-173360819D02*
X75461904Y-173408438D01*
X75461904Y-173408438D02*
X75509523Y-173456057D01*
X75509523Y-173456057D02*
X75557142Y-173551295D01*
X75557142Y-173551295D02*
X75557142Y-173694152D01*
X75557142Y-173694152D02*
X75509523Y-173789390D01*
X75509523Y-173789390D02*
X75461904Y-173837009D01*
X75461904Y-173837009D02*
X75366666Y-173884628D01*
X75366666Y-173884628D02*
X74985714Y-173884628D01*
X75938095Y-173456057D02*
X75985714Y-173408438D01*
X75985714Y-173408438D02*
X76080952Y-173360819D01*
X76080952Y-173360819D02*
X76319047Y-173360819D01*
X76319047Y-173360819D02*
X76414285Y-173408438D01*
X76414285Y-173408438D02*
X76461904Y-173456057D01*
X76461904Y-173456057D02*
X76509523Y-173551295D01*
X76509523Y-173551295D02*
X76509523Y-173646533D01*
X76509523Y-173646533D02*
X76461904Y-173789390D01*
X76461904Y-173789390D02*
X75890476Y-174360819D01*
X75890476Y-174360819D02*
X76509523Y-174360819D01*
X76890476Y-173456057D02*
X76938095Y-173408438D01*
X76938095Y-173408438D02*
X77033333Y-173360819D01*
X77033333Y-173360819D02*
X77271428Y-173360819D01*
X77271428Y-173360819D02*
X77366666Y-173408438D01*
X77366666Y-173408438D02*
X77414285Y-173456057D01*
X77414285Y-173456057D02*
X77461904Y-173551295D01*
X77461904Y-173551295D02*
X77461904Y-173646533D01*
X77461904Y-173646533D02*
X77414285Y-173789390D01*
X77414285Y-173789390D02*
X76842857Y-174360819D01*
X76842857Y-174360819D02*
X77461904Y-174360819D01*
%TO.C,R21*%
X75557142Y-178932819D02*
X75223809Y-178456628D01*
X74985714Y-178932819D02*
X74985714Y-177932819D01*
X74985714Y-177932819D02*
X75366666Y-177932819D01*
X75366666Y-177932819D02*
X75461904Y-177980438D01*
X75461904Y-177980438D02*
X75509523Y-178028057D01*
X75509523Y-178028057D02*
X75557142Y-178123295D01*
X75557142Y-178123295D02*
X75557142Y-178266152D01*
X75557142Y-178266152D02*
X75509523Y-178361390D01*
X75509523Y-178361390D02*
X75461904Y-178409009D01*
X75461904Y-178409009D02*
X75366666Y-178456628D01*
X75366666Y-178456628D02*
X74985714Y-178456628D01*
X75938095Y-178028057D02*
X75985714Y-177980438D01*
X75985714Y-177980438D02*
X76080952Y-177932819D01*
X76080952Y-177932819D02*
X76319047Y-177932819D01*
X76319047Y-177932819D02*
X76414285Y-177980438D01*
X76414285Y-177980438D02*
X76461904Y-178028057D01*
X76461904Y-178028057D02*
X76509523Y-178123295D01*
X76509523Y-178123295D02*
X76509523Y-178218533D01*
X76509523Y-178218533D02*
X76461904Y-178361390D01*
X76461904Y-178361390D02*
X75890476Y-178932819D01*
X75890476Y-178932819D02*
X76509523Y-178932819D01*
X77461904Y-178932819D02*
X76890476Y-178932819D01*
X77176190Y-178932819D02*
X77176190Y-177932819D01*
X77176190Y-177932819D02*
X77080952Y-178075676D01*
X77080952Y-178075676D02*
X76985714Y-178170914D01*
X76985714Y-178170914D02*
X76890476Y-178218533D01*
%TO.C,R20*%
X118229142Y-169618819D02*
X117895809Y-169142628D01*
X117657714Y-169618819D02*
X117657714Y-168618819D01*
X117657714Y-168618819D02*
X118038666Y-168618819D01*
X118038666Y-168618819D02*
X118133904Y-168666438D01*
X118133904Y-168666438D02*
X118181523Y-168714057D01*
X118181523Y-168714057D02*
X118229142Y-168809295D01*
X118229142Y-168809295D02*
X118229142Y-168952152D01*
X118229142Y-168952152D02*
X118181523Y-169047390D01*
X118181523Y-169047390D02*
X118133904Y-169095009D01*
X118133904Y-169095009D02*
X118038666Y-169142628D01*
X118038666Y-169142628D02*
X117657714Y-169142628D01*
X118610095Y-168714057D02*
X118657714Y-168666438D01*
X118657714Y-168666438D02*
X118752952Y-168618819D01*
X118752952Y-168618819D02*
X118991047Y-168618819D01*
X118991047Y-168618819D02*
X119086285Y-168666438D01*
X119086285Y-168666438D02*
X119133904Y-168714057D01*
X119133904Y-168714057D02*
X119181523Y-168809295D01*
X119181523Y-168809295D02*
X119181523Y-168904533D01*
X119181523Y-168904533D02*
X119133904Y-169047390D01*
X119133904Y-169047390D02*
X118562476Y-169618819D01*
X118562476Y-169618819D02*
X119181523Y-169618819D01*
X119800571Y-168618819D02*
X119895809Y-168618819D01*
X119895809Y-168618819D02*
X119991047Y-168666438D01*
X119991047Y-168666438D02*
X120038666Y-168714057D01*
X120038666Y-168714057D02*
X120086285Y-168809295D01*
X120086285Y-168809295D02*
X120133904Y-168999771D01*
X120133904Y-168999771D02*
X120133904Y-169237866D01*
X120133904Y-169237866D02*
X120086285Y-169428342D01*
X120086285Y-169428342D02*
X120038666Y-169523580D01*
X120038666Y-169523580D02*
X119991047Y-169571200D01*
X119991047Y-169571200D02*
X119895809Y-169618819D01*
X119895809Y-169618819D02*
X119800571Y-169618819D01*
X119800571Y-169618819D02*
X119705333Y-169571200D01*
X119705333Y-169571200D02*
X119657714Y-169523580D01*
X119657714Y-169523580D02*
X119610095Y-169428342D01*
X119610095Y-169428342D02*
X119562476Y-169237866D01*
X119562476Y-169237866D02*
X119562476Y-168999771D01*
X119562476Y-168999771D02*
X119610095Y-168809295D01*
X119610095Y-168809295D02*
X119657714Y-168714057D01*
X119657714Y-168714057D02*
X119705333Y-168666438D01*
X119705333Y-168666438D02*
X119800571Y-168618819D01*
%TO.C,R19*%
X118229142Y-178424819D02*
X117895809Y-177948628D01*
X117657714Y-178424819D02*
X117657714Y-177424819D01*
X117657714Y-177424819D02*
X118038666Y-177424819D01*
X118038666Y-177424819D02*
X118133904Y-177472438D01*
X118133904Y-177472438D02*
X118181523Y-177520057D01*
X118181523Y-177520057D02*
X118229142Y-177615295D01*
X118229142Y-177615295D02*
X118229142Y-177758152D01*
X118229142Y-177758152D02*
X118181523Y-177853390D01*
X118181523Y-177853390D02*
X118133904Y-177901009D01*
X118133904Y-177901009D02*
X118038666Y-177948628D01*
X118038666Y-177948628D02*
X117657714Y-177948628D01*
X119181523Y-178424819D02*
X118610095Y-178424819D01*
X118895809Y-178424819D02*
X118895809Y-177424819D01*
X118895809Y-177424819D02*
X118800571Y-177567676D01*
X118800571Y-177567676D02*
X118705333Y-177662914D01*
X118705333Y-177662914D02*
X118610095Y-177710533D01*
X119657714Y-178424819D02*
X119848190Y-178424819D01*
X119848190Y-178424819D02*
X119943428Y-178377200D01*
X119943428Y-178377200D02*
X119991047Y-178329580D01*
X119991047Y-178329580D02*
X120086285Y-178186723D01*
X120086285Y-178186723D02*
X120133904Y-177996247D01*
X120133904Y-177996247D02*
X120133904Y-177615295D01*
X120133904Y-177615295D02*
X120086285Y-177520057D01*
X120086285Y-177520057D02*
X120038666Y-177472438D01*
X120038666Y-177472438D02*
X119943428Y-177424819D01*
X119943428Y-177424819D02*
X119752952Y-177424819D01*
X119752952Y-177424819D02*
X119657714Y-177472438D01*
X119657714Y-177472438D02*
X119610095Y-177520057D01*
X119610095Y-177520057D02*
X119562476Y-177615295D01*
X119562476Y-177615295D02*
X119562476Y-177853390D01*
X119562476Y-177853390D02*
X119610095Y-177948628D01*
X119610095Y-177948628D02*
X119657714Y-177996247D01*
X119657714Y-177996247D02*
X119752952Y-178043866D01*
X119752952Y-178043866D02*
X119943428Y-178043866D01*
X119943428Y-178043866D02*
X120038666Y-177996247D01*
X120038666Y-177996247D02*
X120086285Y-177948628D01*
X120086285Y-177948628D02*
X120133904Y-177853390D01*
%TO.C,R18*%
X58793142Y-175206819D02*
X58459809Y-174730628D01*
X58221714Y-175206819D02*
X58221714Y-174206819D01*
X58221714Y-174206819D02*
X58602666Y-174206819D01*
X58602666Y-174206819D02*
X58697904Y-174254438D01*
X58697904Y-174254438D02*
X58745523Y-174302057D01*
X58745523Y-174302057D02*
X58793142Y-174397295D01*
X58793142Y-174397295D02*
X58793142Y-174540152D01*
X58793142Y-174540152D02*
X58745523Y-174635390D01*
X58745523Y-174635390D02*
X58697904Y-174683009D01*
X58697904Y-174683009D02*
X58602666Y-174730628D01*
X58602666Y-174730628D02*
X58221714Y-174730628D01*
X59745523Y-175206819D02*
X59174095Y-175206819D01*
X59459809Y-175206819D02*
X59459809Y-174206819D01*
X59459809Y-174206819D02*
X59364571Y-174349676D01*
X59364571Y-174349676D02*
X59269333Y-174444914D01*
X59269333Y-174444914D02*
X59174095Y-174492533D01*
X60316952Y-174635390D02*
X60221714Y-174587771D01*
X60221714Y-174587771D02*
X60174095Y-174540152D01*
X60174095Y-174540152D02*
X60126476Y-174444914D01*
X60126476Y-174444914D02*
X60126476Y-174397295D01*
X60126476Y-174397295D02*
X60174095Y-174302057D01*
X60174095Y-174302057D02*
X60221714Y-174254438D01*
X60221714Y-174254438D02*
X60316952Y-174206819D01*
X60316952Y-174206819D02*
X60507428Y-174206819D01*
X60507428Y-174206819D02*
X60602666Y-174254438D01*
X60602666Y-174254438D02*
X60650285Y-174302057D01*
X60650285Y-174302057D02*
X60697904Y-174397295D01*
X60697904Y-174397295D02*
X60697904Y-174444914D01*
X60697904Y-174444914D02*
X60650285Y-174540152D01*
X60650285Y-174540152D02*
X60602666Y-174587771D01*
X60602666Y-174587771D02*
X60507428Y-174635390D01*
X60507428Y-174635390D02*
X60316952Y-174635390D01*
X60316952Y-174635390D02*
X60221714Y-174683009D01*
X60221714Y-174683009D02*
X60174095Y-174730628D01*
X60174095Y-174730628D02*
X60126476Y-174825866D01*
X60126476Y-174825866D02*
X60126476Y-175016342D01*
X60126476Y-175016342D02*
X60174095Y-175111580D01*
X60174095Y-175111580D02*
X60221714Y-175159200D01*
X60221714Y-175159200D02*
X60316952Y-175206819D01*
X60316952Y-175206819D02*
X60507428Y-175206819D01*
X60507428Y-175206819D02*
X60602666Y-175159200D01*
X60602666Y-175159200D02*
X60650285Y-175111580D01*
X60650285Y-175111580D02*
X60697904Y-175016342D01*
X60697904Y-175016342D02*
X60697904Y-174825866D01*
X60697904Y-174825866D02*
X60650285Y-174730628D01*
X60650285Y-174730628D02*
X60602666Y-174683009D01*
X60602666Y-174683009D02*
X60507428Y-174635390D01*
%TO.C,R17*%
X58793142Y-184858819D02*
X58459809Y-184382628D01*
X58221714Y-184858819D02*
X58221714Y-183858819D01*
X58221714Y-183858819D02*
X58602666Y-183858819D01*
X58602666Y-183858819D02*
X58697904Y-183906438D01*
X58697904Y-183906438D02*
X58745523Y-183954057D01*
X58745523Y-183954057D02*
X58793142Y-184049295D01*
X58793142Y-184049295D02*
X58793142Y-184192152D01*
X58793142Y-184192152D02*
X58745523Y-184287390D01*
X58745523Y-184287390D02*
X58697904Y-184335009D01*
X58697904Y-184335009D02*
X58602666Y-184382628D01*
X58602666Y-184382628D02*
X58221714Y-184382628D01*
X59745523Y-184858819D02*
X59174095Y-184858819D01*
X59459809Y-184858819D02*
X59459809Y-183858819D01*
X59459809Y-183858819D02*
X59364571Y-184001676D01*
X59364571Y-184001676D02*
X59269333Y-184096914D01*
X59269333Y-184096914D02*
X59174095Y-184144533D01*
X60078857Y-183858819D02*
X60745523Y-183858819D01*
X60745523Y-183858819D02*
X60316952Y-184858819D01*
%TO.C,R16*%
X58793142Y-179778819D02*
X58459809Y-179302628D01*
X58221714Y-179778819D02*
X58221714Y-178778819D01*
X58221714Y-178778819D02*
X58602666Y-178778819D01*
X58602666Y-178778819D02*
X58697904Y-178826438D01*
X58697904Y-178826438D02*
X58745523Y-178874057D01*
X58745523Y-178874057D02*
X58793142Y-178969295D01*
X58793142Y-178969295D02*
X58793142Y-179112152D01*
X58793142Y-179112152D02*
X58745523Y-179207390D01*
X58745523Y-179207390D02*
X58697904Y-179255009D01*
X58697904Y-179255009D02*
X58602666Y-179302628D01*
X58602666Y-179302628D02*
X58221714Y-179302628D01*
X59745523Y-179778819D02*
X59174095Y-179778819D01*
X59459809Y-179778819D02*
X59459809Y-178778819D01*
X59459809Y-178778819D02*
X59364571Y-178921676D01*
X59364571Y-178921676D02*
X59269333Y-179016914D01*
X59269333Y-179016914D02*
X59174095Y-179064533D01*
X60602666Y-178778819D02*
X60412190Y-178778819D01*
X60412190Y-178778819D02*
X60316952Y-178826438D01*
X60316952Y-178826438D02*
X60269333Y-178874057D01*
X60269333Y-178874057D02*
X60174095Y-179016914D01*
X60174095Y-179016914D02*
X60126476Y-179207390D01*
X60126476Y-179207390D02*
X60126476Y-179588342D01*
X60126476Y-179588342D02*
X60174095Y-179683580D01*
X60174095Y-179683580D02*
X60221714Y-179731200D01*
X60221714Y-179731200D02*
X60316952Y-179778819D01*
X60316952Y-179778819D02*
X60507428Y-179778819D01*
X60507428Y-179778819D02*
X60602666Y-179731200D01*
X60602666Y-179731200D02*
X60650285Y-179683580D01*
X60650285Y-179683580D02*
X60697904Y-179588342D01*
X60697904Y-179588342D02*
X60697904Y-179350247D01*
X60697904Y-179350247D02*
X60650285Y-179255009D01*
X60650285Y-179255009D02*
X60602666Y-179207390D01*
X60602666Y-179207390D02*
X60507428Y-179159771D01*
X60507428Y-179159771D02*
X60316952Y-179159771D01*
X60316952Y-179159771D02*
X60221714Y-179207390D01*
X60221714Y-179207390D02*
X60174095Y-179255009D01*
X60174095Y-179255009D02*
X60126476Y-179350247D01*
%TO.C,R15*%
X58793142Y-169788819D02*
X58459809Y-169312628D01*
X58221714Y-169788819D02*
X58221714Y-168788819D01*
X58221714Y-168788819D02*
X58602666Y-168788819D01*
X58602666Y-168788819D02*
X58697904Y-168836438D01*
X58697904Y-168836438D02*
X58745523Y-168884057D01*
X58745523Y-168884057D02*
X58793142Y-168979295D01*
X58793142Y-168979295D02*
X58793142Y-169122152D01*
X58793142Y-169122152D02*
X58745523Y-169217390D01*
X58745523Y-169217390D02*
X58697904Y-169265009D01*
X58697904Y-169265009D02*
X58602666Y-169312628D01*
X58602666Y-169312628D02*
X58221714Y-169312628D01*
X59745523Y-169788819D02*
X59174095Y-169788819D01*
X59459809Y-169788819D02*
X59459809Y-168788819D01*
X59459809Y-168788819D02*
X59364571Y-168931676D01*
X59364571Y-168931676D02*
X59269333Y-169026914D01*
X59269333Y-169026914D02*
X59174095Y-169074533D01*
X60650285Y-168788819D02*
X60174095Y-168788819D01*
X60174095Y-168788819D02*
X60126476Y-169265009D01*
X60126476Y-169265009D02*
X60174095Y-169217390D01*
X60174095Y-169217390D02*
X60269333Y-169169771D01*
X60269333Y-169169771D02*
X60507428Y-169169771D01*
X60507428Y-169169771D02*
X60602666Y-169217390D01*
X60602666Y-169217390D02*
X60650285Y-169265009D01*
X60650285Y-169265009D02*
X60697904Y-169360247D01*
X60697904Y-169360247D02*
X60697904Y-169598342D01*
X60697904Y-169598342D02*
X60650285Y-169693580D01*
X60650285Y-169693580D02*
X60602666Y-169741200D01*
X60602666Y-169741200D02*
X60507428Y-169788819D01*
X60507428Y-169788819D02*
X60269333Y-169788819D01*
X60269333Y-169788819D02*
X60174095Y-169741200D01*
X60174095Y-169741200D02*
X60126476Y-169693580D01*
%TO.C,R14*%
X118229142Y-174190819D02*
X117895809Y-173714628D01*
X117657714Y-174190819D02*
X117657714Y-173190819D01*
X117657714Y-173190819D02*
X118038666Y-173190819D01*
X118038666Y-173190819D02*
X118133904Y-173238438D01*
X118133904Y-173238438D02*
X118181523Y-173286057D01*
X118181523Y-173286057D02*
X118229142Y-173381295D01*
X118229142Y-173381295D02*
X118229142Y-173524152D01*
X118229142Y-173524152D02*
X118181523Y-173619390D01*
X118181523Y-173619390D02*
X118133904Y-173667009D01*
X118133904Y-173667009D02*
X118038666Y-173714628D01*
X118038666Y-173714628D02*
X117657714Y-173714628D01*
X119181523Y-174190819D02*
X118610095Y-174190819D01*
X118895809Y-174190819D02*
X118895809Y-173190819D01*
X118895809Y-173190819D02*
X118800571Y-173333676D01*
X118800571Y-173333676D02*
X118705333Y-173428914D01*
X118705333Y-173428914D02*
X118610095Y-173476533D01*
X120038666Y-173524152D02*
X120038666Y-174190819D01*
X119800571Y-173143200D02*
X119562476Y-173857485D01*
X119562476Y-173857485D02*
X120181523Y-173857485D01*
%TO.C,R13*%
X118229142Y-164708819D02*
X117895809Y-164232628D01*
X117657714Y-164708819D02*
X117657714Y-163708819D01*
X117657714Y-163708819D02*
X118038666Y-163708819D01*
X118038666Y-163708819D02*
X118133904Y-163756438D01*
X118133904Y-163756438D02*
X118181523Y-163804057D01*
X118181523Y-163804057D02*
X118229142Y-163899295D01*
X118229142Y-163899295D02*
X118229142Y-164042152D01*
X118229142Y-164042152D02*
X118181523Y-164137390D01*
X118181523Y-164137390D02*
X118133904Y-164185009D01*
X118133904Y-164185009D02*
X118038666Y-164232628D01*
X118038666Y-164232628D02*
X117657714Y-164232628D01*
X119181523Y-164708819D02*
X118610095Y-164708819D01*
X118895809Y-164708819D02*
X118895809Y-163708819D01*
X118895809Y-163708819D02*
X118800571Y-163851676D01*
X118800571Y-163851676D02*
X118705333Y-163946914D01*
X118705333Y-163946914D02*
X118610095Y-163994533D01*
X119514857Y-163708819D02*
X120133904Y-163708819D01*
X120133904Y-163708819D02*
X119800571Y-164089771D01*
X119800571Y-164089771D02*
X119943428Y-164089771D01*
X119943428Y-164089771D02*
X120038666Y-164137390D01*
X120038666Y-164137390D02*
X120086285Y-164185009D01*
X120086285Y-164185009D02*
X120133904Y-164280247D01*
X120133904Y-164280247D02*
X120133904Y-164518342D01*
X120133904Y-164518342D02*
X120086285Y-164613580D01*
X120086285Y-164613580D02*
X120038666Y-164661200D01*
X120038666Y-164661200D02*
X119943428Y-164708819D01*
X119943428Y-164708819D02*
X119657714Y-164708819D01*
X119657714Y-164708819D02*
X119562476Y-164661200D01*
X119562476Y-164661200D02*
X119514857Y-164613580D01*
%TO.C,R12*%
X55488819Y-155074857D02*
X55012628Y-155408190D01*
X55488819Y-155646285D02*
X54488819Y-155646285D01*
X54488819Y-155646285D02*
X54488819Y-155265333D01*
X54488819Y-155265333D02*
X54536438Y-155170095D01*
X54536438Y-155170095D02*
X54584057Y-155122476D01*
X54584057Y-155122476D02*
X54679295Y-155074857D01*
X54679295Y-155074857D02*
X54822152Y-155074857D01*
X54822152Y-155074857D02*
X54917390Y-155122476D01*
X54917390Y-155122476D02*
X54965009Y-155170095D01*
X54965009Y-155170095D02*
X55012628Y-155265333D01*
X55012628Y-155265333D02*
X55012628Y-155646285D01*
X55488819Y-154122476D02*
X55488819Y-154693904D01*
X55488819Y-154408190D02*
X54488819Y-154408190D01*
X54488819Y-154408190D02*
X54631676Y-154503428D01*
X54631676Y-154503428D02*
X54726914Y-154598666D01*
X54726914Y-154598666D02*
X54774533Y-154693904D01*
X54584057Y-153741523D02*
X54536438Y-153693904D01*
X54536438Y-153693904D02*
X54488819Y-153598666D01*
X54488819Y-153598666D02*
X54488819Y-153360571D01*
X54488819Y-153360571D02*
X54536438Y-153265333D01*
X54536438Y-153265333D02*
X54584057Y-153217714D01*
X54584057Y-153217714D02*
X54679295Y-153170095D01*
X54679295Y-153170095D02*
X54774533Y-153170095D01*
X54774533Y-153170095D02*
X54917390Y-153217714D01*
X54917390Y-153217714D02*
X55488819Y-153789142D01*
X55488819Y-153789142D02*
X55488819Y-153170095D01*
%TO.C,R11*%
X82161142Y-101884819D02*
X81827809Y-101408628D01*
X81589714Y-101884819D02*
X81589714Y-100884819D01*
X81589714Y-100884819D02*
X81970666Y-100884819D01*
X81970666Y-100884819D02*
X82065904Y-100932438D01*
X82065904Y-100932438D02*
X82113523Y-100980057D01*
X82113523Y-100980057D02*
X82161142Y-101075295D01*
X82161142Y-101075295D02*
X82161142Y-101218152D01*
X82161142Y-101218152D02*
X82113523Y-101313390D01*
X82113523Y-101313390D02*
X82065904Y-101361009D01*
X82065904Y-101361009D02*
X81970666Y-101408628D01*
X81970666Y-101408628D02*
X81589714Y-101408628D01*
X83113523Y-101884819D02*
X82542095Y-101884819D01*
X82827809Y-101884819D02*
X82827809Y-100884819D01*
X82827809Y-100884819D02*
X82732571Y-101027676D01*
X82732571Y-101027676D02*
X82637333Y-101122914D01*
X82637333Y-101122914D02*
X82542095Y-101170533D01*
X84065904Y-101884819D02*
X83494476Y-101884819D01*
X83780190Y-101884819D02*
X83780190Y-100884819D01*
X83780190Y-100884819D02*
X83684952Y-101027676D01*
X83684952Y-101027676D02*
X83589714Y-101122914D01*
X83589714Y-101122914D02*
X83494476Y-101170533D01*
%TO.C,R10*%
X37965142Y-60228819D02*
X37631809Y-59752628D01*
X37393714Y-60228819D02*
X37393714Y-59228819D01*
X37393714Y-59228819D02*
X37774666Y-59228819D01*
X37774666Y-59228819D02*
X37869904Y-59276438D01*
X37869904Y-59276438D02*
X37917523Y-59324057D01*
X37917523Y-59324057D02*
X37965142Y-59419295D01*
X37965142Y-59419295D02*
X37965142Y-59562152D01*
X37965142Y-59562152D02*
X37917523Y-59657390D01*
X37917523Y-59657390D02*
X37869904Y-59705009D01*
X37869904Y-59705009D02*
X37774666Y-59752628D01*
X37774666Y-59752628D02*
X37393714Y-59752628D01*
X38917523Y-60228819D02*
X38346095Y-60228819D01*
X38631809Y-60228819D02*
X38631809Y-59228819D01*
X38631809Y-59228819D02*
X38536571Y-59371676D01*
X38536571Y-59371676D02*
X38441333Y-59466914D01*
X38441333Y-59466914D02*
X38346095Y-59514533D01*
X39536571Y-59228819D02*
X39631809Y-59228819D01*
X39631809Y-59228819D02*
X39727047Y-59276438D01*
X39727047Y-59276438D02*
X39774666Y-59324057D01*
X39774666Y-59324057D02*
X39822285Y-59419295D01*
X39822285Y-59419295D02*
X39869904Y-59609771D01*
X39869904Y-59609771D02*
X39869904Y-59847866D01*
X39869904Y-59847866D02*
X39822285Y-60038342D01*
X39822285Y-60038342D02*
X39774666Y-60133580D01*
X39774666Y-60133580D02*
X39727047Y-60181200D01*
X39727047Y-60181200D02*
X39631809Y-60228819D01*
X39631809Y-60228819D02*
X39536571Y-60228819D01*
X39536571Y-60228819D02*
X39441333Y-60181200D01*
X39441333Y-60181200D02*
X39393714Y-60133580D01*
X39393714Y-60133580D02*
X39346095Y-60038342D01*
X39346095Y-60038342D02*
X39298476Y-59847866D01*
X39298476Y-59847866D02*
X39298476Y-59609771D01*
X39298476Y-59609771D02*
X39346095Y-59419295D01*
X39346095Y-59419295D02*
X39393714Y-59324057D01*
X39393714Y-59324057D02*
X39441333Y-59276438D01*
X39441333Y-59276438D02*
X39536571Y-59228819D01*
%TO.C,R9*%
X75525333Y-129994819D02*
X75192000Y-129518628D01*
X74953905Y-129994819D02*
X74953905Y-128994819D01*
X74953905Y-128994819D02*
X75334857Y-128994819D01*
X75334857Y-128994819D02*
X75430095Y-129042438D01*
X75430095Y-129042438D02*
X75477714Y-129090057D01*
X75477714Y-129090057D02*
X75525333Y-129185295D01*
X75525333Y-129185295D02*
X75525333Y-129328152D01*
X75525333Y-129328152D02*
X75477714Y-129423390D01*
X75477714Y-129423390D02*
X75430095Y-129471009D01*
X75430095Y-129471009D02*
X75334857Y-129518628D01*
X75334857Y-129518628D02*
X74953905Y-129518628D01*
X76001524Y-129994819D02*
X76192000Y-129994819D01*
X76192000Y-129994819D02*
X76287238Y-129947200D01*
X76287238Y-129947200D02*
X76334857Y-129899580D01*
X76334857Y-129899580D02*
X76430095Y-129756723D01*
X76430095Y-129756723D02*
X76477714Y-129566247D01*
X76477714Y-129566247D02*
X76477714Y-129185295D01*
X76477714Y-129185295D02*
X76430095Y-129090057D01*
X76430095Y-129090057D02*
X76382476Y-129042438D01*
X76382476Y-129042438D02*
X76287238Y-128994819D01*
X76287238Y-128994819D02*
X76096762Y-128994819D01*
X76096762Y-128994819D02*
X76001524Y-129042438D01*
X76001524Y-129042438D02*
X75953905Y-129090057D01*
X75953905Y-129090057D02*
X75906286Y-129185295D01*
X75906286Y-129185295D02*
X75906286Y-129423390D01*
X75906286Y-129423390D02*
X75953905Y-129518628D01*
X75953905Y-129518628D02*
X76001524Y-129566247D01*
X76001524Y-129566247D02*
X76096762Y-129613866D01*
X76096762Y-129613866D02*
X76287238Y-129613866D01*
X76287238Y-129613866D02*
X76382476Y-129566247D01*
X76382476Y-129566247D02*
X76430095Y-129518628D01*
X76430095Y-129518628D02*
X76477714Y-129423390D01*
%TO.C,R8*%
X75525333Y-134736819D02*
X75192000Y-134260628D01*
X74953905Y-134736819D02*
X74953905Y-133736819D01*
X74953905Y-133736819D02*
X75334857Y-133736819D01*
X75334857Y-133736819D02*
X75430095Y-133784438D01*
X75430095Y-133784438D02*
X75477714Y-133832057D01*
X75477714Y-133832057D02*
X75525333Y-133927295D01*
X75525333Y-133927295D02*
X75525333Y-134070152D01*
X75525333Y-134070152D02*
X75477714Y-134165390D01*
X75477714Y-134165390D02*
X75430095Y-134213009D01*
X75430095Y-134213009D02*
X75334857Y-134260628D01*
X75334857Y-134260628D02*
X74953905Y-134260628D01*
X76096762Y-134165390D02*
X76001524Y-134117771D01*
X76001524Y-134117771D02*
X75953905Y-134070152D01*
X75953905Y-134070152D02*
X75906286Y-133974914D01*
X75906286Y-133974914D02*
X75906286Y-133927295D01*
X75906286Y-133927295D02*
X75953905Y-133832057D01*
X75953905Y-133832057D02*
X76001524Y-133784438D01*
X76001524Y-133784438D02*
X76096762Y-133736819D01*
X76096762Y-133736819D02*
X76287238Y-133736819D01*
X76287238Y-133736819D02*
X76382476Y-133784438D01*
X76382476Y-133784438D02*
X76430095Y-133832057D01*
X76430095Y-133832057D02*
X76477714Y-133927295D01*
X76477714Y-133927295D02*
X76477714Y-133974914D01*
X76477714Y-133974914D02*
X76430095Y-134070152D01*
X76430095Y-134070152D02*
X76382476Y-134117771D01*
X76382476Y-134117771D02*
X76287238Y-134165390D01*
X76287238Y-134165390D02*
X76096762Y-134165390D01*
X76096762Y-134165390D02*
X76001524Y-134213009D01*
X76001524Y-134213009D02*
X75953905Y-134260628D01*
X75953905Y-134260628D02*
X75906286Y-134355866D01*
X75906286Y-134355866D02*
X75906286Y-134546342D01*
X75906286Y-134546342D02*
X75953905Y-134641580D01*
X75953905Y-134641580D02*
X76001524Y-134689200D01*
X76001524Y-134689200D02*
X76096762Y-134736819D01*
X76096762Y-134736819D02*
X76287238Y-134736819D01*
X76287238Y-134736819D02*
X76382476Y-134689200D01*
X76382476Y-134689200D02*
X76430095Y-134641580D01*
X76430095Y-134641580D02*
X76477714Y-134546342D01*
X76477714Y-134546342D02*
X76477714Y-134355866D01*
X76477714Y-134355866D02*
X76430095Y-134260628D01*
X76430095Y-134260628D02*
X76382476Y-134213009D01*
X76382476Y-134213009D02*
X76287238Y-134165390D01*
%TO.C,R7*%
X179440819Y-141390666D02*
X178964628Y-141723999D01*
X179440819Y-141962094D02*
X178440819Y-141962094D01*
X178440819Y-141962094D02*
X178440819Y-141581142D01*
X178440819Y-141581142D02*
X178488438Y-141485904D01*
X178488438Y-141485904D02*
X178536057Y-141438285D01*
X178536057Y-141438285D02*
X178631295Y-141390666D01*
X178631295Y-141390666D02*
X178774152Y-141390666D01*
X178774152Y-141390666D02*
X178869390Y-141438285D01*
X178869390Y-141438285D02*
X178917009Y-141485904D01*
X178917009Y-141485904D02*
X178964628Y-141581142D01*
X178964628Y-141581142D02*
X178964628Y-141962094D01*
X178440819Y-141057332D02*
X178440819Y-140390666D01*
X178440819Y-140390666D02*
X179440819Y-140819237D01*
%TO.C,R6*%
X174868819Y-141390666D02*
X174392628Y-141723999D01*
X174868819Y-141962094D02*
X173868819Y-141962094D01*
X173868819Y-141962094D02*
X173868819Y-141581142D01*
X173868819Y-141581142D02*
X173916438Y-141485904D01*
X173916438Y-141485904D02*
X173964057Y-141438285D01*
X173964057Y-141438285D02*
X174059295Y-141390666D01*
X174059295Y-141390666D02*
X174202152Y-141390666D01*
X174202152Y-141390666D02*
X174297390Y-141438285D01*
X174297390Y-141438285D02*
X174345009Y-141485904D01*
X174345009Y-141485904D02*
X174392628Y-141581142D01*
X174392628Y-141581142D02*
X174392628Y-141962094D01*
X173868819Y-140533523D02*
X173868819Y-140723999D01*
X173868819Y-140723999D02*
X173916438Y-140819237D01*
X173916438Y-140819237D02*
X173964057Y-140866856D01*
X173964057Y-140866856D02*
X174106914Y-140962094D01*
X174106914Y-140962094D02*
X174297390Y-141009713D01*
X174297390Y-141009713D02*
X174678342Y-141009713D01*
X174678342Y-141009713D02*
X174773580Y-140962094D01*
X174773580Y-140962094D02*
X174821200Y-140914475D01*
X174821200Y-140914475D02*
X174868819Y-140819237D01*
X174868819Y-140819237D02*
X174868819Y-140628761D01*
X174868819Y-140628761D02*
X174821200Y-140533523D01*
X174821200Y-140533523D02*
X174773580Y-140485904D01*
X174773580Y-140485904D02*
X174678342Y-140438285D01*
X174678342Y-140438285D02*
X174440247Y-140438285D01*
X174440247Y-140438285D02*
X174345009Y-140485904D01*
X174345009Y-140485904D02*
X174297390Y-140533523D01*
X174297390Y-140533523D02*
X174249771Y-140628761D01*
X174249771Y-140628761D02*
X174249771Y-140819237D01*
X174249771Y-140819237D02*
X174297390Y-140914475D01*
X174297390Y-140914475D02*
X174345009Y-140962094D01*
X174345009Y-140962094D02*
X174440247Y-141009713D01*
%TO.C,R5*%
X170296819Y-141390666D02*
X169820628Y-141723999D01*
X170296819Y-141962094D02*
X169296819Y-141962094D01*
X169296819Y-141962094D02*
X169296819Y-141581142D01*
X169296819Y-141581142D02*
X169344438Y-141485904D01*
X169344438Y-141485904D02*
X169392057Y-141438285D01*
X169392057Y-141438285D02*
X169487295Y-141390666D01*
X169487295Y-141390666D02*
X169630152Y-141390666D01*
X169630152Y-141390666D02*
X169725390Y-141438285D01*
X169725390Y-141438285D02*
X169773009Y-141485904D01*
X169773009Y-141485904D02*
X169820628Y-141581142D01*
X169820628Y-141581142D02*
X169820628Y-141962094D01*
X169296819Y-140485904D02*
X169296819Y-140962094D01*
X169296819Y-140962094D02*
X169773009Y-141009713D01*
X169773009Y-141009713D02*
X169725390Y-140962094D01*
X169725390Y-140962094D02*
X169677771Y-140866856D01*
X169677771Y-140866856D02*
X169677771Y-140628761D01*
X169677771Y-140628761D02*
X169725390Y-140533523D01*
X169725390Y-140533523D02*
X169773009Y-140485904D01*
X169773009Y-140485904D02*
X169868247Y-140438285D01*
X169868247Y-140438285D02*
X170106342Y-140438285D01*
X170106342Y-140438285D02*
X170201580Y-140485904D01*
X170201580Y-140485904D02*
X170249200Y-140533523D01*
X170249200Y-140533523D02*
X170296819Y-140628761D01*
X170296819Y-140628761D02*
X170296819Y-140866856D01*
X170296819Y-140866856D02*
X170249200Y-140962094D01*
X170249200Y-140962094D02*
X170201580Y-141009713D01*
%TO.C,R4*%
X165724819Y-141390666D02*
X165248628Y-141723999D01*
X165724819Y-141962094D02*
X164724819Y-141962094D01*
X164724819Y-141962094D02*
X164724819Y-141581142D01*
X164724819Y-141581142D02*
X164772438Y-141485904D01*
X164772438Y-141485904D02*
X164820057Y-141438285D01*
X164820057Y-141438285D02*
X164915295Y-141390666D01*
X164915295Y-141390666D02*
X165058152Y-141390666D01*
X165058152Y-141390666D02*
X165153390Y-141438285D01*
X165153390Y-141438285D02*
X165201009Y-141485904D01*
X165201009Y-141485904D02*
X165248628Y-141581142D01*
X165248628Y-141581142D02*
X165248628Y-141962094D01*
X165058152Y-140533523D02*
X165724819Y-140533523D01*
X164677200Y-140771618D02*
X165391485Y-141009713D01*
X165391485Y-141009713D02*
X165391485Y-140390666D01*
%TO.C,R3*%
X75525333Y-109336819D02*
X75192000Y-108860628D01*
X74953905Y-109336819D02*
X74953905Y-108336819D01*
X74953905Y-108336819D02*
X75334857Y-108336819D01*
X75334857Y-108336819D02*
X75430095Y-108384438D01*
X75430095Y-108384438D02*
X75477714Y-108432057D01*
X75477714Y-108432057D02*
X75525333Y-108527295D01*
X75525333Y-108527295D02*
X75525333Y-108670152D01*
X75525333Y-108670152D02*
X75477714Y-108765390D01*
X75477714Y-108765390D02*
X75430095Y-108813009D01*
X75430095Y-108813009D02*
X75334857Y-108860628D01*
X75334857Y-108860628D02*
X74953905Y-108860628D01*
X75858667Y-108336819D02*
X76477714Y-108336819D01*
X76477714Y-108336819D02*
X76144381Y-108717771D01*
X76144381Y-108717771D02*
X76287238Y-108717771D01*
X76287238Y-108717771D02*
X76382476Y-108765390D01*
X76382476Y-108765390D02*
X76430095Y-108813009D01*
X76430095Y-108813009D02*
X76477714Y-108908247D01*
X76477714Y-108908247D02*
X76477714Y-109146342D01*
X76477714Y-109146342D02*
X76430095Y-109241580D01*
X76430095Y-109241580D02*
X76382476Y-109289200D01*
X76382476Y-109289200D02*
X76287238Y-109336819D01*
X76287238Y-109336819D02*
X76001524Y-109336819D01*
X76001524Y-109336819D02*
X75906286Y-109289200D01*
X75906286Y-109289200D02*
X75858667Y-109241580D01*
%TO.C,R2*%
X75525333Y-114416819D02*
X75192000Y-113940628D01*
X74953905Y-114416819D02*
X74953905Y-113416819D01*
X74953905Y-113416819D02*
X75334857Y-113416819D01*
X75334857Y-113416819D02*
X75430095Y-113464438D01*
X75430095Y-113464438D02*
X75477714Y-113512057D01*
X75477714Y-113512057D02*
X75525333Y-113607295D01*
X75525333Y-113607295D02*
X75525333Y-113750152D01*
X75525333Y-113750152D02*
X75477714Y-113845390D01*
X75477714Y-113845390D02*
X75430095Y-113893009D01*
X75430095Y-113893009D02*
X75334857Y-113940628D01*
X75334857Y-113940628D02*
X74953905Y-113940628D01*
X75906286Y-113512057D02*
X75953905Y-113464438D01*
X75953905Y-113464438D02*
X76049143Y-113416819D01*
X76049143Y-113416819D02*
X76287238Y-113416819D01*
X76287238Y-113416819D02*
X76382476Y-113464438D01*
X76382476Y-113464438D02*
X76430095Y-113512057D01*
X76430095Y-113512057D02*
X76477714Y-113607295D01*
X76477714Y-113607295D02*
X76477714Y-113702533D01*
X76477714Y-113702533D02*
X76430095Y-113845390D01*
X76430095Y-113845390D02*
X75858667Y-114416819D01*
X75858667Y-114416819D02*
X76477714Y-114416819D01*
%TO.C,R1*%
X75525333Y-118988819D02*
X75192000Y-118512628D01*
X74953905Y-118988819D02*
X74953905Y-117988819D01*
X74953905Y-117988819D02*
X75334857Y-117988819D01*
X75334857Y-117988819D02*
X75430095Y-118036438D01*
X75430095Y-118036438D02*
X75477714Y-118084057D01*
X75477714Y-118084057D02*
X75525333Y-118179295D01*
X75525333Y-118179295D02*
X75525333Y-118322152D01*
X75525333Y-118322152D02*
X75477714Y-118417390D01*
X75477714Y-118417390D02*
X75430095Y-118465009D01*
X75430095Y-118465009D02*
X75334857Y-118512628D01*
X75334857Y-118512628D02*
X74953905Y-118512628D01*
X76477714Y-118988819D02*
X75906286Y-118988819D01*
X76192000Y-118988819D02*
X76192000Y-117988819D01*
X76192000Y-117988819D02*
X76096762Y-118131676D01*
X76096762Y-118131676D02*
X76001524Y-118226914D01*
X76001524Y-118226914D02*
X75906286Y-118274533D01*
%TO.C,Q1*%
X39020761Y-83077057D02*
X38925523Y-83029438D01*
X38925523Y-83029438D02*
X38830285Y-82934200D01*
X38830285Y-82934200D02*
X38687428Y-82791342D01*
X38687428Y-82791342D02*
X38592190Y-82743723D01*
X38592190Y-82743723D02*
X38496952Y-82743723D01*
X38544571Y-82981819D02*
X38449333Y-82934200D01*
X38449333Y-82934200D02*
X38354095Y-82838961D01*
X38354095Y-82838961D02*
X38306476Y-82648485D01*
X38306476Y-82648485D02*
X38306476Y-82315152D01*
X38306476Y-82315152D02*
X38354095Y-82124676D01*
X38354095Y-82124676D02*
X38449333Y-82029438D01*
X38449333Y-82029438D02*
X38544571Y-81981819D01*
X38544571Y-81981819D02*
X38735047Y-81981819D01*
X38735047Y-81981819D02*
X38830285Y-82029438D01*
X38830285Y-82029438D02*
X38925523Y-82124676D01*
X38925523Y-82124676D02*
X38973142Y-82315152D01*
X38973142Y-82315152D02*
X38973142Y-82648485D01*
X38973142Y-82648485D02*
X38925523Y-82838961D01*
X38925523Y-82838961D02*
X38830285Y-82934200D01*
X38830285Y-82934200D02*
X38735047Y-82981819D01*
X38735047Y-82981819D02*
X38544571Y-82981819D01*
X39925523Y-82981819D02*
X39354095Y-82981819D01*
X39639809Y-82981819D02*
X39639809Y-81981819D01*
X39639809Y-81981819D02*
X39544571Y-82124676D01*
X39544571Y-82124676D02*
X39449333Y-82219914D01*
X39449333Y-82219914D02*
X39354095Y-82267533D01*
%TO.C,JP1*%
X93204819Y-170505333D02*
X93919104Y-170505333D01*
X93919104Y-170505333D02*
X94061961Y-170552952D01*
X94061961Y-170552952D02*
X94157200Y-170648190D01*
X94157200Y-170648190D02*
X94204819Y-170791047D01*
X94204819Y-170791047D02*
X94204819Y-170886285D01*
X94204819Y-170029142D02*
X93204819Y-170029142D01*
X93204819Y-170029142D02*
X93204819Y-169648190D01*
X93204819Y-169648190D02*
X93252438Y-169552952D01*
X93252438Y-169552952D02*
X93300057Y-169505333D01*
X93300057Y-169505333D02*
X93395295Y-169457714D01*
X93395295Y-169457714D02*
X93538152Y-169457714D01*
X93538152Y-169457714D02*
X93633390Y-169505333D01*
X93633390Y-169505333D02*
X93681009Y-169552952D01*
X93681009Y-169552952D02*
X93728628Y-169648190D01*
X93728628Y-169648190D02*
X93728628Y-170029142D01*
X94204819Y-168505333D02*
X94204819Y-169076761D01*
X94204819Y-168791047D02*
X93204819Y-168791047D01*
X93204819Y-168791047D02*
X93347676Y-168886285D01*
X93347676Y-168886285D02*
X93442914Y-168981523D01*
X93442914Y-168981523D02*
X93490533Y-169076761D01*
%TO.C,J19*%
X33882676Y-169481219D02*
X33882676Y-170195504D01*
X33882676Y-170195504D02*
X33835057Y-170338361D01*
X33835057Y-170338361D02*
X33739819Y-170433600D01*
X33739819Y-170433600D02*
X33596962Y-170481219D01*
X33596962Y-170481219D02*
X33501724Y-170481219D01*
X34882676Y-170481219D02*
X34311248Y-170481219D01*
X34596962Y-170481219D02*
X34596962Y-169481219D01*
X34596962Y-169481219D02*
X34501724Y-169624076D01*
X34501724Y-169624076D02*
X34406486Y-169719314D01*
X34406486Y-169719314D02*
X34311248Y-169766933D01*
X35358867Y-170481219D02*
X35549343Y-170481219D01*
X35549343Y-170481219D02*
X35644581Y-170433600D01*
X35644581Y-170433600D02*
X35692200Y-170385980D01*
X35692200Y-170385980D02*
X35787438Y-170243123D01*
X35787438Y-170243123D02*
X35835057Y-170052647D01*
X35835057Y-170052647D02*
X35835057Y-169671695D01*
X35835057Y-169671695D02*
X35787438Y-169576457D01*
X35787438Y-169576457D02*
X35739819Y-169528838D01*
X35739819Y-169528838D02*
X35644581Y-169481219D01*
X35644581Y-169481219D02*
X35454105Y-169481219D01*
X35454105Y-169481219D02*
X35358867Y-169528838D01*
X35358867Y-169528838D02*
X35311248Y-169576457D01*
X35311248Y-169576457D02*
X35263629Y-169671695D01*
X35263629Y-169671695D02*
X35263629Y-169909790D01*
X35263629Y-169909790D02*
X35311248Y-170005028D01*
X35311248Y-170005028D02*
X35358867Y-170052647D01*
X35358867Y-170052647D02*
X35454105Y-170100266D01*
X35454105Y-170100266D02*
X35644581Y-170100266D01*
X35644581Y-170100266D02*
X35739819Y-170052647D01*
X35739819Y-170052647D02*
X35787438Y-170005028D01*
X35787438Y-170005028D02*
X35835057Y-169909790D01*
%TO.C,J18*%
X101860819Y-210105523D02*
X102575104Y-210105523D01*
X102575104Y-210105523D02*
X102717961Y-210153142D01*
X102717961Y-210153142D02*
X102813200Y-210248380D01*
X102813200Y-210248380D02*
X102860819Y-210391237D01*
X102860819Y-210391237D02*
X102860819Y-210486475D01*
X102860819Y-209105523D02*
X102860819Y-209676951D01*
X102860819Y-209391237D02*
X101860819Y-209391237D01*
X101860819Y-209391237D02*
X102003676Y-209486475D01*
X102003676Y-209486475D02*
X102098914Y-209581713D01*
X102098914Y-209581713D02*
X102146533Y-209676951D01*
X102289390Y-208534094D02*
X102241771Y-208629332D01*
X102241771Y-208629332D02*
X102194152Y-208676951D01*
X102194152Y-208676951D02*
X102098914Y-208724570D01*
X102098914Y-208724570D02*
X102051295Y-208724570D01*
X102051295Y-208724570D02*
X101956057Y-208676951D01*
X101956057Y-208676951D02*
X101908438Y-208629332D01*
X101908438Y-208629332D02*
X101860819Y-208534094D01*
X101860819Y-208534094D02*
X101860819Y-208343618D01*
X101860819Y-208343618D02*
X101908438Y-208248380D01*
X101908438Y-208248380D02*
X101956057Y-208200761D01*
X101956057Y-208200761D02*
X102051295Y-208153142D01*
X102051295Y-208153142D02*
X102098914Y-208153142D01*
X102098914Y-208153142D02*
X102194152Y-208200761D01*
X102194152Y-208200761D02*
X102241771Y-208248380D01*
X102241771Y-208248380D02*
X102289390Y-208343618D01*
X102289390Y-208343618D02*
X102289390Y-208534094D01*
X102289390Y-208534094D02*
X102337009Y-208629332D01*
X102337009Y-208629332D02*
X102384628Y-208676951D01*
X102384628Y-208676951D02*
X102479866Y-208724570D01*
X102479866Y-208724570D02*
X102670342Y-208724570D01*
X102670342Y-208724570D02*
X102765580Y-208676951D01*
X102765580Y-208676951D02*
X102813200Y-208629332D01*
X102813200Y-208629332D02*
X102860819Y-208534094D01*
X102860819Y-208534094D02*
X102860819Y-208343618D01*
X102860819Y-208343618D02*
X102813200Y-208248380D01*
X102813200Y-208248380D02*
X102765580Y-208200761D01*
X102765580Y-208200761D02*
X102670342Y-208153142D01*
X102670342Y-208153142D02*
X102479866Y-208153142D01*
X102479866Y-208153142D02*
X102384628Y-208200761D01*
X102384628Y-208200761D02*
X102337009Y-208248380D01*
X102337009Y-208248380D02*
X102289390Y-208343618D01*
%TO.C,J17*%
X125736819Y-210105523D02*
X126451104Y-210105523D01*
X126451104Y-210105523D02*
X126593961Y-210153142D01*
X126593961Y-210153142D02*
X126689200Y-210248380D01*
X126689200Y-210248380D02*
X126736819Y-210391237D01*
X126736819Y-210391237D02*
X126736819Y-210486475D01*
X126736819Y-209105523D02*
X126736819Y-209676951D01*
X126736819Y-209391237D02*
X125736819Y-209391237D01*
X125736819Y-209391237D02*
X125879676Y-209486475D01*
X125879676Y-209486475D02*
X125974914Y-209581713D01*
X125974914Y-209581713D02*
X126022533Y-209676951D01*
X125736819Y-208772189D02*
X125736819Y-208105523D01*
X125736819Y-208105523D02*
X126736819Y-208534094D01*
%TO.C,J16*%
X126244819Y-200453523D02*
X126959104Y-200453523D01*
X126959104Y-200453523D02*
X127101961Y-200501142D01*
X127101961Y-200501142D02*
X127197200Y-200596380D01*
X127197200Y-200596380D02*
X127244819Y-200739237D01*
X127244819Y-200739237D02*
X127244819Y-200834475D01*
X127244819Y-199453523D02*
X127244819Y-200024951D01*
X127244819Y-199739237D02*
X126244819Y-199739237D01*
X126244819Y-199739237D02*
X126387676Y-199834475D01*
X126387676Y-199834475D02*
X126482914Y-199929713D01*
X126482914Y-199929713D02*
X126530533Y-200024951D01*
X126244819Y-198596380D02*
X126244819Y-198786856D01*
X126244819Y-198786856D02*
X126292438Y-198882094D01*
X126292438Y-198882094D02*
X126340057Y-198929713D01*
X126340057Y-198929713D02*
X126482914Y-199024951D01*
X126482914Y-199024951D02*
X126673390Y-199072570D01*
X126673390Y-199072570D02*
X127054342Y-199072570D01*
X127054342Y-199072570D02*
X127149580Y-199024951D01*
X127149580Y-199024951D02*
X127197200Y-198977332D01*
X127197200Y-198977332D02*
X127244819Y-198882094D01*
X127244819Y-198882094D02*
X127244819Y-198691618D01*
X127244819Y-198691618D02*
X127197200Y-198596380D01*
X127197200Y-198596380D02*
X127149580Y-198548761D01*
X127149580Y-198548761D02*
X127054342Y-198501142D01*
X127054342Y-198501142D02*
X126816247Y-198501142D01*
X126816247Y-198501142D02*
X126721009Y-198548761D01*
X126721009Y-198548761D02*
X126673390Y-198596380D01*
X126673390Y-198596380D02*
X126625771Y-198691618D01*
X126625771Y-198691618D02*
X126625771Y-198882094D01*
X126625771Y-198882094D02*
X126673390Y-198977332D01*
X126673390Y-198977332D02*
X126721009Y-199024951D01*
X126721009Y-199024951D02*
X126816247Y-199072570D01*
%TO.C,J15*%
X101860819Y-200453523D02*
X102575104Y-200453523D01*
X102575104Y-200453523D02*
X102717961Y-200501142D01*
X102717961Y-200501142D02*
X102813200Y-200596380D01*
X102813200Y-200596380D02*
X102860819Y-200739237D01*
X102860819Y-200739237D02*
X102860819Y-200834475D01*
X102860819Y-199453523D02*
X102860819Y-200024951D01*
X102860819Y-199739237D02*
X101860819Y-199739237D01*
X101860819Y-199739237D02*
X102003676Y-199834475D01*
X102003676Y-199834475D02*
X102098914Y-199929713D01*
X102098914Y-199929713D02*
X102146533Y-200024951D01*
X101860819Y-198548761D02*
X101860819Y-199024951D01*
X101860819Y-199024951D02*
X102337009Y-199072570D01*
X102337009Y-199072570D02*
X102289390Y-199024951D01*
X102289390Y-199024951D02*
X102241771Y-198929713D01*
X102241771Y-198929713D02*
X102241771Y-198691618D01*
X102241771Y-198691618D02*
X102289390Y-198596380D01*
X102289390Y-198596380D02*
X102337009Y-198548761D01*
X102337009Y-198548761D02*
X102432247Y-198501142D01*
X102432247Y-198501142D02*
X102670342Y-198501142D01*
X102670342Y-198501142D02*
X102765580Y-198548761D01*
X102765580Y-198548761D02*
X102813200Y-198596380D01*
X102813200Y-198596380D02*
X102860819Y-198691618D01*
X102860819Y-198691618D02*
X102860819Y-198929713D01*
X102860819Y-198929713D02*
X102813200Y-199024951D01*
X102813200Y-199024951D02*
X102765580Y-199072570D01*
%TO.C,J14*%
X187116819Y-211121523D02*
X187831104Y-211121523D01*
X187831104Y-211121523D02*
X187973961Y-211169142D01*
X187973961Y-211169142D02*
X188069200Y-211264380D01*
X188069200Y-211264380D02*
X188116819Y-211407237D01*
X188116819Y-211407237D02*
X188116819Y-211502475D01*
X188116819Y-210121523D02*
X188116819Y-210692951D01*
X188116819Y-210407237D02*
X187116819Y-210407237D01*
X187116819Y-210407237D02*
X187259676Y-210502475D01*
X187259676Y-210502475D02*
X187354914Y-210597713D01*
X187354914Y-210597713D02*
X187402533Y-210692951D01*
X187450152Y-209264380D02*
X188116819Y-209264380D01*
X187069200Y-209502475D02*
X187783485Y-209740570D01*
X187783485Y-209740570D02*
X187783485Y-209121523D01*
%TO.C,J13*%
X48886819Y-154533523D02*
X49601104Y-154533523D01*
X49601104Y-154533523D02*
X49743961Y-154581142D01*
X49743961Y-154581142D02*
X49839200Y-154676380D01*
X49839200Y-154676380D02*
X49886819Y-154819237D01*
X49886819Y-154819237D02*
X49886819Y-154914475D01*
X49886819Y-153533523D02*
X49886819Y-154104951D01*
X49886819Y-153819237D02*
X48886819Y-153819237D01*
X48886819Y-153819237D02*
X49029676Y-153914475D01*
X49029676Y-153914475D02*
X49124914Y-154009713D01*
X49124914Y-154009713D02*
X49172533Y-154104951D01*
X48886819Y-153200189D02*
X48886819Y-152581142D01*
X48886819Y-152581142D02*
X49267771Y-152914475D01*
X49267771Y-152914475D02*
X49267771Y-152771618D01*
X49267771Y-152771618D02*
X49315390Y-152676380D01*
X49315390Y-152676380D02*
X49363009Y-152628761D01*
X49363009Y-152628761D02*
X49458247Y-152581142D01*
X49458247Y-152581142D02*
X49696342Y-152581142D01*
X49696342Y-152581142D02*
X49791580Y-152628761D01*
X49791580Y-152628761D02*
X49839200Y-152676380D01*
X49839200Y-152676380D02*
X49886819Y-152771618D01*
X49886819Y-152771618D02*
X49886819Y-153057332D01*
X49886819Y-153057332D02*
X49839200Y-153152570D01*
X49839200Y-153152570D02*
X49791580Y-153200189D01*
%TO.C,J12*%
X65284819Y-210105523D02*
X65999104Y-210105523D01*
X65999104Y-210105523D02*
X66141961Y-210153142D01*
X66141961Y-210153142D02*
X66237200Y-210248380D01*
X66237200Y-210248380D02*
X66284819Y-210391237D01*
X66284819Y-210391237D02*
X66284819Y-210486475D01*
X66284819Y-209105523D02*
X66284819Y-209676951D01*
X66284819Y-209391237D02*
X65284819Y-209391237D01*
X65284819Y-209391237D02*
X65427676Y-209486475D01*
X65427676Y-209486475D02*
X65522914Y-209581713D01*
X65522914Y-209581713D02*
X65570533Y-209676951D01*
X65380057Y-208724570D02*
X65332438Y-208676951D01*
X65332438Y-208676951D02*
X65284819Y-208581713D01*
X65284819Y-208581713D02*
X65284819Y-208343618D01*
X65284819Y-208343618D02*
X65332438Y-208248380D01*
X65332438Y-208248380D02*
X65380057Y-208200761D01*
X65380057Y-208200761D02*
X65475295Y-208153142D01*
X65475295Y-208153142D02*
X65570533Y-208153142D01*
X65570533Y-208153142D02*
X65713390Y-208200761D01*
X65713390Y-208200761D02*
X66284819Y-208772189D01*
X66284819Y-208772189D02*
X66284819Y-208153142D01*
%TO.C,J11*%
X25014819Y-129811523D02*
X25729104Y-129811523D01*
X25729104Y-129811523D02*
X25871961Y-129859142D01*
X25871961Y-129859142D02*
X25967200Y-129954380D01*
X25967200Y-129954380D02*
X26014819Y-130097237D01*
X26014819Y-130097237D02*
X26014819Y-130192475D01*
X26014819Y-128811523D02*
X26014819Y-129382951D01*
X26014819Y-129097237D02*
X25014819Y-129097237D01*
X25014819Y-129097237D02*
X25157676Y-129192475D01*
X25157676Y-129192475D02*
X25252914Y-129287713D01*
X25252914Y-129287713D02*
X25300533Y-129382951D01*
X26014819Y-127859142D02*
X26014819Y-128430570D01*
X26014819Y-128144856D02*
X25014819Y-128144856D01*
X25014819Y-128144856D02*
X25157676Y-128240094D01*
X25157676Y-128240094D02*
X25252914Y-128335332D01*
X25252914Y-128335332D02*
X25300533Y-128430570D01*
%TO.C,J10*%
X85296476Y-39288819D02*
X85296476Y-40003104D01*
X85296476Y-40003104D02*
X85248857Y-40145961D01*
X85248857Y-40145961D02*
X85153619Y-40241200D01*
X85153619Y-40241200D02*
X85010762Y-40288819D01*
X85010762Y-40288819D02*
X84915524Y-40288819D01*
X86296476Y-40288819D02*
X85725048Y-40288819D01*
X86010762Y-40288819D02*
X86010762Y-39288819D01*
X86010762Y-39288819D02*
X85915524Y-39431676D01*
X85915524Y-39431676D02*
X85820286Y-39526914D01*
X85820286Y-39526914D02*
X85725048Y-39574533D01*
X86915524Y-39288819D02*
X87010762Y-39288819D01*
X87010762Y-39288819D02*
X87106000Y-39336438D01*
X87106000Y-39336438D02*
X87153619Y-39384057D01*
X87153619Y-39384057D02*
X87201238Y-39479295D01*
X87201238Y-39479295D02*
X87248857Y-39669771D01*
X87248857Y-39669771D02*
X87248857Y-39907866D01*
X87248857Y-39907866D02*
X87201238Y-40098342D01*
X87201238Y-40098342D02*
X87153619Y-40193580D01*
X87153619Y-40193580D02*
X87106000Y-40241200D01*
X87106000Y-40241200D02*
X87010762Y-40288819D01*
X87010762Y-40288819D02*
X86915524Y-40288819D01*
X86915524Y-40288819D02*
X86820286Y-40241200D01*
X86820286Y-40241200D02*
X86772667Y-40193580D01*
X86772667Y-40193580D02*
X86725048Y-40098342D01*
X86725048Y-40098342D02*
X86677429Y-39907866D01*
X86677429Y-39907866D02*
X86677429Y-39669771D01*
X86677429Y-39669771D02*
X86725048Y-39479295D01*
X86725048Y-39479295D02*
X86772667Y-39384057D01*
X86772667Y-39384057D02*
X86820286Y-39336438D01*
X86820286Y-39336438D02*
X86915524Y-39288819D01*
%TO.C,J9*%
X25108819Y-112287333D02*
X25823104Y-112287333D01*
X25823104Y-112287333D02*
X25965961Y-112334952D01*
X25965961Y-112334952D02*
X26061200Y-112430190D01*
X26061200Y-112430190D02*
X26108819Y-112573047D01*
X26108819Y-112573047D02*
X26108819Y-112668285D01*
X26108819Y-111763523D02*
X26108819Y-111573047D01*
X26108819Y-111573047D02*
X26061200Y-111477809D01*
X26061200Y-111477809D02*
X26013580Y-111430190D01*
X26013580Y-111430190D02*
X25870723Y-111334952D01*
X25870723Y-111334952D02*
X25680247Y-111287333D01*
X25680247Y-111287333D02*
X25299295Y-111287333D01*
X25299295Y-111287333D02*
X25204057Y-111334952D01*
X25204057Y-111334952D02*
X25156438Y-111382571D01*
X25156438Y-111382571D02*
X25108819Y-111477809D01*
X25108819Y-111477809D02*
X25108819Y-111668285D01*
X25108819Y-111668285D02*
X25156438Y-111763523D01*
X25156438Y-111763523D02*
X25204057Y-111811142D01*
X25204057Y-111811142D02*
X25299295Y-111858761D01*
X25299295Y-111858761D02*
X25537390Y-111858761D01*
X25537390Y-111858761D02*
X25632628Y-111811142D01*
X25632628Y-111811142D02*
X25680247Y-111763523D01*
X25680247Y-111763523D02*
X25727866Y-111668285D01*
X25727866Y-111668285D02*
X25727866Y-111477809D01*
X25727866Y-111477809D02*
X25680247Y-111382571D01*
X25680247Y-111382571D02*
X25632628Y-111334952D01*
X25632628Y-111334952D02*
X25537390Y-111287333D01*
%TO.C,J8*%
X42356819Y-64341333D02*
X43071104Y-64341333D01*
X43071104Y-64341333D02*
X43213961Y-64388952D01*
X43213961Y-64388952D02*
X43309200Y-64484190D01*
X43309200Y-64484190D02*
X43356819Y-64627047D01*
X43356819Y-64627047D02*
X43356819Y-64722285D01*
X42785390Y-63722285D02*
X42737771Y-63817523D01*
X42737771Y-63817523D02*
X42690152Y-63865142D01*
X42690152Y-63865142D02*
X42594914Y-63912761D01*
X42594914Y-63912761D02*
X42547295Y-63912761D01*
X42547295Y-63912761D02*
X42452057Y-63865142D01*
X42452057Y-63865142D02*
X42404438Y-63817523D01*
X42404438Y-63817523D02*
X42356819Y-63722285D01*
X42356819Y-63722285D02*
X42356819Y-63531809D01*
X42356819Y-63531809D02*
X42404438Y-63436571D01*
X42404438Y-63436571D02*
X42452057Y-63388952D01*
X42452057Y-63388952D02*
X42547295Y-63341333D01*
X42547295Y-63341333D02*
X42594914Y-63341333D01*
X42594914Y-63341333D02*
X42690152Y-63388952D01*
X42690152Y-63388952D02*
X42737771Y-63436571D01*
X42737771Y-63436571D02*
X42785390Y-63531809D01*
X42785390Y-63531809D02*
X42785390Y-63722285D01*
X42785390Y-63722285D02*
X42833009Y-63817523D01*
X42833009Y-63817523D02*
X42880628Y-63865142D01*
X42880628Y-63865142D02*
X42975866Y-63912761D01*
X42975866Y-63912761D02*
X43166342Y-63912761D01*
X43166342Y-63912761D02*
X43261580Y-63865142D01*
X43261580Y-63865142D02*
X43309200Y-63817523D01*
X43309200Y-63817523D02*
X43356819Y-63722285D01*
X43356819Y-63722285D02*
X43356819Y-63531809D01*
X43356819Y-63531809D02*
X43309200Y-63436571D01*
X43309200Y-63436571D02*
X43261580Y-63388952D01*
X43261580Y-63388952D02*
X43166342Y-63341333D01*
X43166342Y-63341333D02*
X42975866Y-63341333D01*
X42975866Y-63341333D02*
X42880628Y-63388952D01*
X42880628Y-63388952D02*
X42833009Y-63436571D01*
X42833009Y-63436571D02*
X42785390Y-63531809D01*
%TO.C,J7*%
X70024666Y-39288819D02*
X70024666Y-40003104D01*
X70024666Y-40003104D02*
X69977047Y-40145961D01*
X69977047Y-40145961D02*
X69881809Y-40241200D01*
X69881809Y-40241200D02*
X69738952Y-40288819D01*
X69738952Y-40288819D02*
X69643714Y-40288819D01*
X70405619Y-39288819D02*
X71072285Y-39288819D01*
X71072285Y-39288819D02*
X70643714Y-40288819D01*
%TO.C,J6*%
X32268666Y-100767319D02*
X32268666Y-101481604D01*
X32268666Y-101481604D02*
X32221047Y-101624461D01*
X32221047Y-101624461D02*
X32125809Y-101719700D01*
X32125809Y-101719700D02*
X31982952Y-101767319D01*
X31982952Y-101767319D02*
X31887714Y-101767319D01*
X33173428Y-100767319D02*
X32982952Y-100767319D01*
X32982952Y-100767319D02*
X32887714Y-100814938D01*
X32887714Y-100814938D02*
X32840095Y-100862557D01*
X32840095Y-100862557D02*
X32744857Y-101005414D01*
X32744857Y-101005414D02*
X32697238Y-101195890D01*
X32697238Y-101195890D02*
X32697238Y-101576842D01*
X32697238Y-101576842D02*
X32744857Y-101672080D01*
X32744857Y-101672080D02*
X32792476Y-101719700D01*
X32792476Y-101719700D02*
X32887714Y-101767319D01*
X32887714Y-101767319D02*
X33078190Y-101767319D01*
X33078190Y-101767319D02*
X33173428Y-101719700D01*
X33173428Y-101719700D02*
X33221047Y-101672080D01*
X33221047Y-101672080D02*
X33268666Y-101576842D01*
X33268666Y-101576842D02*
X33268666Y-101338747D01*
X33268666Y-101338747D02*
X33221047Y-101243509D01*
X33221047Y-101243509D02*
X33173428Y-101195890D01*
X33173428Y-101195890D02*
X33078190Y-101148271D01*
X33078190Y-101148271D02*
X32887714Y-101148271D01*
X32887714Y-101148271D02*
X32792476Y-101195890D01*
X32792476Y-101195890D02*
X32744857Y-101243509D01*
X32744857Y-101243509D02*
X32697238Y-101338747D01*
%TO.C,J5*%
X52496819Y-203533333D02*
X53211104Y-203533333D01*
X53211104Y-203533333D02*
X53353961Y-203580952D01*
X53353961Y-203580952D02*
X53449200Y-203676190D01*
X53449200Y-203676190D02*
X53496819Y-203819047D01*
X53496819Y-203819047D02*
X53496819Y-203914285D01*
X52496819Y-202580952D02*
X52496819Y-203057142D01*
X52496819Y-203057142D02*
X52973009Y-203104761D01*
X52973009Y-203104761D02*
X52925390Y-203057142D01*
X52925390Y-203057142D02*
X52877771Y-202961904D01*
X52877771Y-202961904D02*
X52877771Y-202723809D01*
X52877771Y-202723809D02*
X52925390Y-202628571D01*
X52925390Y-202628571D02*
X52973009Y-202580952D01*
X52973009Y-202580952D02*
X53068247Y-202533333D01*
X53068247Y-202533333D02*
X53306342Y-202533333D01*
X53306342Y-202533333D02*
X53401580Y-202580952D01*
X53401580Y-202580952D02*
X53449200Y-202628571D01*
X53449200Y-202628571D02*
X53496819Y-202723809D01*
X53496819Y-202723809D02*
X53496819Y-202961904D01*
X53496819Y-202961904D02*
X53449200Y-203057142D01*
X53449200Y-203057142D02*
X53401580Y-203104761D01*
%TO.C,J4*%
X125142666Y-50225819D02*
X125142666Y-50940104D01*
X125142666Y-50940104D02*
X125095047Y-51082961D01*
X125095047Y-51082961D02*
X124999809Y-51178200D01*
X124999809Y-51178200D02*
X124856952Y-51225819D01*
X124856952Y-51225819D02*
X124761714Y-51225819D01*
X126047428Y-50559152D02*
X126047428Y-51225819D01*
X125809333Y-50178200D02*
X125571238Y-50892485D01*
X125571238Y-50892485D02*
X126190285Y-50892485D01*
%TO.C,J3*%
X114233819Y-40465333D02*
X114948104Y-40465333D01*
X114948104Y-40465333D02*
X115090961Y-40512952D01*
X115090961Y-40512952D02*
X115186200Y-40608190D01*
X115186200Y-40608190D02*
X115233819Y-40751047D01*
X115233819Y-40751047D02*
X115233819Y-40846285D01*
X114233819Y-40084380D02*
X114233819Y-39465333D01*
X114233819Y-39465333D02*
X114614771Y-39798666D01*
X114614771Y-39798666D02*
X114614771Y-39655809D01*
X114614771Y-39655809D02*
X114662390Y-39560571D01*
X114662390Y-39560571D02*
X114710009Y-39512952D01*
X114710009Y-39512952D02*
X114805247Y-39465333D01*
X114805247Y-39465333D02*
X115043342Y-39465333D01*
X115043342Y-39465333D02*
X115138580Y-39512952D01*
X115138580Y-39512952D02*
X115186200Y-39560571D01*
X115186200Y-39560571D02*
X115233819Y-39655809D01*
X115233819Y-39655809D02*
X115233819Y-39941523D01*
X115233819Y-39941523D02*
X115186200Y-40036761D01*
X115186200Y-40036761D02*
X115138580Y-40084380D01*
%TO.C,J2*%
X54276666Y-39288819D02*
X54276666Y-40003104D01*
X54276666Y-40003104D02*
X54229047Y-40145961D01*
X54229047Y-40145961D02*
X54133809Y-40241200D01*
X54133809Y-40241200D02*
X53990952Y-40288819D01*
X53990952Y-40288819D02*
X53895714Y-40288819D01*
X54705238Y-39384057D02*
X54752857Y-39336438D01*
X54752857Y-39336438D02*
X54848095Y-39288819D01*
X54848095Y-39288819D02*
X55086190Y-39288819D01*
X55086190Y-39288819D02*
X55181428Y-39336438D01*
X55181428Y-39336438D02*
X55229047Y-39384057D01*
X55229047Y-39384057D02*
X55276666Y-39479295D01*
X55276666Y-39479295D02*
X55276666Y-39574533D01*
X55276666Y-39574533D02*
X55229047Y-39717390D01*
X55229047Y-39717390D02*
X54657619Y-40288819D01*
X54657619Y-40288819D02*
X55276666Y-40288819D01*
%TO.C,J1*%
X125142666Y-73832819D02*
X125142666Y-74547104D01*
X125142666Y-74547104D02*
X125095047Y-74689961D01*
X125095047Y-74689961D02*
X124999809Y-74785200D01*
X124999809Y-74785200D02*
X124856952Y-74832819D01*
X124856952Y-74832819D02*
X124761714Y-74832819D01*
X126142666Y-74832819D02*
X125571238Y-74832819D01*
X125856952Y-74832819D02*
X125856952Y-73832819D01*
X125856952Y-73832819D02*
X125761714Y-73975676D01*
X125761714Y-73975676D02*
X125666476Y-74070914D01*
X125666476Y-74070914D02*
X125571238Y-74118533D01*
%TO.C,D2*%
X69619905Y-95554819D02*
X69619905Y-94554819D01*
X69619905Y-94554819D02*
X69858000Y-94554819D01*
X69858000Y-94554819D02*
X70000857Y-94602438D01*
X70000857Y-94602438D02*
X70096095Y-94697676D01*
X70096095Y-94697676D02*
X70143714Y-94792914D01*
X70143714Y-94792914D02*
X70191333Y-94983390D01*
X70191333Y-94983390D02*
X70191333Y-95126247D01*
X70191333Y-95126247D02*
X70143714Y-95316723D01*
X70143714Y-95316723D02*
X70096095Y-95411961D01*
X70096095Y-95411961D02*
X70000857Y-95507200D01*
X70000857Y-95507200D02*
X69858000Y-95554819D01*
X69858000Y-95554819D02*
X69619905Y-95554819D01*
X70572286Y-94650057D02*
X70619905Y-94602438D01*
X70619905Y-94602438D02*
X70715143Y-94554819D01*
X70715143Y-94554819D02*
X70953238Y-94554819D01*
X70953238Y-94554819D02*
X71048476Y-94602438D01*
X71048476Y-94602438D02*
X71096095Y-94650057D01*
X71096095Y-94650057D02*
X71143714Y-94745295D01*
X71143714Y-94745295D02*
X71143714Y-94840533D01*
X71143714Y-94840533D02*
X71096095Y-94983390D01*
X71096095Y-94983390D02*
X70524667Y-95554819D01*
X70524667Y-95554819D02*
X71143714Y-95554819D01*
%TO.C,D1*%
X37615905Y-47294819D02*
X37615905Y-46294819D01*
X37615905Y-46294819D02*
X37854000Y-46294819D01*
X37854000Y-46294819D02*
X37996857Y-46342438D01*
X37996857Y-46342438D02*
X38092095Y-46437676D01*
X38092095Y-46437676D02*
X38139714Y-46532914D01*
X38139714Y-46532914D02*
X38187333Y-46723390D01*
X38187333Y-46723390D02*
X38187333Y-46866247D01*
X38187333Y-46866247D02*
X38139714Y-47056723D01*
X38139714Y-47056723D02*
X38092095Y-47151961D01*
X38092095Y-47151961D02*
X37996857Y-47247200D01*
X37996857Y-47247200D02*
X37854000Y-47294819D01*
X37854000Y-47294819D02*
X37615905Y-47294819D01*
X39139714Y-47294819D02*
X38568286Y-47294819D01*
X38854000Y-47294819D02*
X38854000Y-46294819D01*
X38854000Y-46294819D02*
X38758762Y-46437676D01*
X38758762Y-46437676D02*
X38663524Y-46532914D01*
X38663524Y-46532914D02*
X38568286Y-46580533D01*
%TO.C,C28*%
X58793142Y-189843580D02*
X58745523Y-189891200D01*
X58745523Y-189891200D02*
X58602666Y-189938819D01*
X58602666Y-189938819D02*
X58507428Y-189938819D01*
X58507428Y-189938819D02*
X58364571Y-189891200D01*
X58364571Y-189891200D02*
X58269333Y-189795961D01*
X58269333Y-189795961D02*
X58221714Y-189700723D01*
X58221714Y-189700723D02*
X58174095Y-189510247D01*
X58174095Y-189510247D02*
X58174095Y-189367390D01*
X58174095Y-189367390D02*
X58221714Y-189176914D01*
X58221714Y-189176914D02*
X58269333Y-189081676D01*
X58269333Y-189081676D02*
X58364571Y-188986438D01*
X58364571Y-188986438D02*
X58507428Y-188938819D01*
X58507428Y-188938819D02*
X58602666Y-188938819D01*
X58602666Y-188938819D02*
X58745523Y-188986438D01*
X58745523Y-188986438D02*
X58793142Y-189034057D01*
X59174095Y-189034057D02*
X59221714Y-188986438D01*
X59221714Y-188986438D02*
X59316952Y-188938819D01*
X59316952Y-188938819D02*
X59555047Y-188938819D01*
X59555047Y-188938819D02*
X59650285Y-188986438D01*
X59650285Y-188986438D02*
X59697904Y-189034057D01*
X59697904Y-189034057D02*
X59745523Y-189129295D01*
X59745523Y-189129295D02*
X59745523Y-189224533D01*
X59745523Y-189224533D02*
X59697904Y-189367390D01*
X59697904Y-189367390D02*
X59126476Y-189938819D01*
X59126476Y-189938819D02*
X59745523Y-189938819D01*
X60316952Y-189367390D02*
X60221714Y-189319771D01*
X60221714Y-189319771D02*
X60174095Y-189272152D01*
X60174095Y-189272152D02*
X60126476Y-189176914D01*
X60126476Y-189176914D02*
X60126476Y-189129295D01*
X60126476Y-189129295D02*
X60174095Y-189034057D01*
X60174095Y-189034057D02*
X60221714Y-188986438D01*
X60221714Y-188986438D02*
X60316952Y-188938819D01*
X60316952Y-188938819D02*
X60507428Y-188938819D01*
X60507428Y-188938819D02*
X60602666Y-188986438D01*
X60602666Y-188986438D02*
X60650285Y-189034057D01*
X60650285Y-189034057D02*
X60697904Y-189129295D01*
X60697904Y-189129295D02*
X60697904Y-189176914D01*
X60697904Y-189176914D02*
X60650285Y-189272152D01*
X60650285Y-189272152D02*
X60602666Y-189319771D01*
X60602666Y-189319771D02*
X60507428Y-189367390D01*
X60507428Y-189367390D02*
X60316952Y-189367390D01*
X60316952Y-189367390D02*
X60221714Y-189415009D01*
X60221714Y-189415009D02*
X60174095Y-189462628D01*
X60174095Y-189462628D02*
X60126476Y-189557866D01*
X60126476Y-189557866D02*
X60126476Y-189748342D01*
X60126476Y-189748342D02*
X60174095Y-189843580D01*
X60174095Y-189843580D02*
X60221714Y-189891200D01*
X60221714Y-189891200D02*
X60316952Y-189938819D01*
X60316952Y-189938819D02*
X60507428Y-189938819D01*
X60507428Y-189938819D02*
X60602666Y-189891200D01*
X60602666Y-189891200D02*
X60650285Y-189843580D01*
X60650285Y-189843580D02*
X60697904Y-189748342D01*
X60697904Y-189748342D02*
X60697904Y-189557866D01*
X60697904Y-189557866D02*
X60650285Y-189462628D01*
X60650285Y-189462628D02*
X60602666Y-189415009D01*
X60602666Y-189415009D02*
X60507428Y-189367390D01*
%TO.C,C27*%
X33409142Y-183553580D02*
X33361523Y-183601200D01*
X33361523Y-183601200D02*
X33218666Y-183648819D01*
X33218666Y-183648819D02*
X33123428Y-183648819D01*
X33123428Y-183648819D02*
X32980571Y-183601200D01*
X32980571Y-183601200D02*
X32885333Y-183505961D01*
X32885333Y-183505961D02*
X32837714Y-183410723D01*
X32837714Y-183410723D02*
X32790095Y-183220247D01*
X32790095Y-183220247D02*
X32790095Y-183077390D01*
X32790095Y-183077390D02*
X32837714Y-182886914D01*
X32837714Y-182886914D02*
X32885333Y-182791676D01*
X32885333Y-182791676D02*
X32980571Y-182696438D01*
X32980571Y-182696438D02*
X33123428Y-182648819D01*
X33123428Y-182648819D02*
X33218666Y-182648819D01*
X33218666Y-182648819D02*
X33361523Y-182696438D01*
X33361523Y-182696438D02*
X33409142Y-182744057D01*
X33790095Y-182744057D02*
X33837714Y-182696438D01*
X33837714Y-182696438D02*
X33932952Y-182648819D01*
X33932952Y-182648819D02*
X34171047Y-182648819D01*
X34171047Y-182648819D02*
X34266285Y-182696438D01*
X34266285Y-182696438D02*
X34313904Y-182744057D01*
X34313904Y-182744057D02*
X34361523Y-182839295D01*
X34361523Y-182839295D02*
X34361523Y-182934533D01*
X34361523Y-182934533D02*
X34313904Y-183077390D01*
X34313904Y-183077390D02*
X33742476Y-183648819D01*
X33742476Y-183648819D02*
X34361523Y-183648819D01*
X34694857Y-182648819D02*
X35361523Y-182648819D01*
X35361523Y-182648819D02*
X34932952Y-183648819D01*
%TO.C,C26*%
X194429142Y-162919580D02*
X194381523Y-162967200D01*
X194381523Y-162967200D02*
X194238666Y-163014819D01*
X194238666Y-163014819D02*
X194143428Y-163014819D01*
X194143428Y-163014819D02*
X194000571Y-162967200D01*
X194000571Y-162967200D02*
X193905333Y-162871961D01*
X193905333Y-162871961D02*
X193857714Y-162776723D01*
X193857714Y-162776723D02*
X193810095Y-162586247D01*
X193810095Y-162586247D02*
X193810095Y-162443390D01*
X193810095Y-162443390D02*
X193857714Y-162252914D01*
X193857714Y-162252914D02*
X193905333Y-162157676D01*
X193905333Y-162157676D02*
X194000571Y-162062438D01*
X194000571Y-162062438D02*
X194143428Y-162014819D01*
X194143428Y-162014819D02*
X194238666Y-162014819D01*
X194238666Y-162014819D02*
X194381523Y-162062438D01*
X194381523Y-162062438D02*
X194429142Y-162110057D01*
X194810095Y-162110057D02*
X194857714Y-162062438D01*
X194857714Y-162062438D02*
X194952952Y-162014819D01*
X194952952Y-162014819D02*
X195191047Y-162014819D01*
X195191047Y-162014819D02*
X195286285Y-162062438D01*
X195286285Y-162062438D02*
X195333904Y-162110057D01*
X195333904Y-162110057D02*
X195381523Y-162205295D01*
X195381523Y-162205295D02*
X195381523Y-162300533D01*
X195381523Y-162300533D02*
X195333904Y-162443390D01*
X195333904Y-162443390D02*
X194762476Y-163014819D01*
X194762476Y-163014819D02*
X195381523Y-163014819D01*
X196238666Y-162014819D02*
X196048190Y-162014819D01*
X196048190Y-162014819D02*
X195952952Y-162062438D01*
X195952952Y-162062438D02*
X195905333Y-162110057D01*
X195905333Y-162110057D02*
X195810095Y-162252914D01*
X195810095Y-162252914D02*
X195762476Y-162443390D01*
X195762476Y-162443390D02*
X195762476Y-162824342D01*
X195762476Y-162824342D02*
X195810095Y-162919580D01*
X195810095Y-162919580D02*
X195857714Y-162967200D01*
X195857714Y-162967200D02*
X195952952Y-163014819D01*
X195952952Y-163014819D02*
X196143428Y-163014819D01*
X196143428Y-163014819D02*
X196238666Y-162967200D01*
X196238666Y-162967200D02*
X196286285Y-162919580D01*
X196286285Y-162919580D02*
X196333904Y-162824342D01*
X196333904Y-162824342D02*
X196333904Y-162586247D01*
X196333904Y-162586247D02*
X196286285Y-162491009D01*
X196286285Y-162491009D02*
X196238666Y-162443390D01*
X196238666Y-162443390D02*
X196143428Y-162395771D01*
X196143428Y-162395771D02*
X195952952Y-162395771D01*
X195952952Y-162395771D02*
X195857714Y-162443390D01*
X195857714Y-162443390D02*
X195810095Y-162491009D01*
X195810095Y-162491009D02*
X195762476Y-162586247D01*
%TO.C,C25*%
X163989142Y-150219580D02*
X163941523Y-150267200D01*
X163941523Y-150267200D02*
X163798666Y-150314819D01*
X163798666Y-150314819D02*
X163703428Y-150314819D01*
X163703428Y-150314819D02*
X163560571Y-150267200D01*
X163560571Y-150267200D02*
X163465333Y-150171961D01*
X163465333Y-150171961D02*
X163417714Y-150076723D01*
X163417714Y-150076723D02*
X163370095Y-149886247D01*
X163370095Y-149886247D02*
X163370095Y-149743390D01*
X163370095Y-149743390D02*
X163417714Y-149552914D01*
X163417714Y-149552914D02*
X163465333Y-149457676D01*
X163465333Y-149457676D02*
X163560571Y-149362438D01*
X163560571Y-149362438D02*
X163703428Y-149314819D01*
X163703428Y-149314819D02*
X163798666Y-149314819D01*
X163798666Y-149314819D02*
X163941523Y-149362438D01*
X163941523Y-149362438D02*
X163989142Y-149410057D01*
X164370095Y-149410057D02*
X164417714Y-149362438D01*
X164417714Y-149362438D02*
X164512952Y-149314819D01*
X164512952Y-149314819D02*
X164751047Y-149314819D01*
X164751047Y-149314819D02*
X164846285Y-149362438D01*
X164846285Y-149362438D02*
X164893904Y-149410057D01*
X164893904Y-149410057D02*
X164941523Y-149505295D01*
X164941523Y-149505295D02*
X164941523Y-149600533D01*
X164941523Y-149600533D02*
X164893904Y-149743390D01*
X164893904Y-149743390D02*
X164322476Y-150314819D01*
X164322476Y-150314819D02*
X164941523Y-150314819D01*
X165846285Y-149314819D02*
X165370095Y-149314819D01*
X165370095Y-149314819D02*
X165322476Y-149791009D01*
X165322476Y-149791009D02*
X165370095Y-149743390D01*
X165370095Y-149743390D02*
X165465333Y-149695771D01*
X165465333Y-149695771D02*
X165703428Y-149695771D01*
X165703428Y-149695771D02*
X165798666Y-149743390D01*
X165798666Y-149743390D02*
X165846285Y-149791009D01*
X165846285Y-149791009D02*
X165893904Y-149886247D01*
X165893904Y-149886247D02*
X165893904Y-150124342D01*
X165893904Y-150124342D02*
X165846285Y-150219580D01*
X165846285Y-150219580D02*
X165798666Y-150267200D01*
X165798666Y-150267200D02*
X165703428Y-150314819D01*
X165703428Y-150314819D02*
X165465333Y-150314819D01*
X165465333Y-150314819D02*
X165370095Y-150267200D01*
X165370095Y-150267200D02*
X165322476Y-150219580D01*
%TO.C,C24*%
X226433142Y-180191580D02*
X226385523Y-180239200D01*
X226385523Y-180239200D02*
X226242666Y-180286819D01*
X226242666Y-180286819D02*
X226147428Y-180286819D01*
X226147428Y-180286819D02*
X226004571Y-180239200D01*
X226004571Y-180239200D02*
X225909333Y-180143961D01*
X225909333Y-180143961D02*
X225861714Y-180048723D01*
X225861714Y-180048723D02*
X225814095Y-179858247D01*
X225814095Y-179858247D02*
X225814095Y-179715390D01*
X225814095Y-179715390D02*
X225861714Y-179524914D01*
X225861714Y-179524914D02*
X225909333Y-179429676D01*
X225909333Y-179429676D02*
X226004571Y-179334438D01*
X226004571Y-179334438D02*
X226147428Y-179286819D01*
X226147428Y-179286819D02*
X226242666Y-179286819D01*
X226242666Y-179286819D02*
X226385523Y-179334438D01*
X226385523Y-179334438D02*
X226433142Y-179382057D01*
X226814095Y-179382057D02*
X226861714Y-179334438D01*
X226861714Y-179334438D02*
X226956952Y-179286819D01*
X226956952Y-179286819D02*
X227195047Y-179286819D01*
X227195047Y-179286819D02*
X227290285Y-179334438D01*
X227290285Y-179334438D02*
X227337904Y-179382057D01*
X227337904Y-179382057D02*
X227385523Y-179477295D01*
X227385523Y-179477295D02*
X227385523Y-179572533D01*
X227385523Y-179572533D02*
X227337904Y-179715390D01*
X227337904Y-179715390D02*
X226766476Y-180286819D01*
X226766476Y-180286819D02*
X227385523Y-180286819D01*
X228242666Y-179620152D02*
X228242666Y-180286819D01*
X228004571Y-179239200D02*
X227766476Y-179953485D01*
X227766476Y-179953485D02*
X228385523Y-179953485D01*
%TO.C,C23*%
X75597142Y-189025580D02*
X75549523Y-189073200D01*
X75549523Y-189073200D02*
X75406666Y-189120819D01*
X75406666Y-189120819D02*
X75311428Y-189120819D01*
X75311428Y-189120819D02*
X75168571Y-189073200D01*
X75168571Y-189073200D02*
X75073333Y-188977961D01*
X75073333Y-188977961D02*
X75025714Y-188882723D01*
X75025714Y-188882723D02*
X74978095Y-188692247D01*
X74978095Y-188692247D02*
X74978095Y-188549390D01*
X74978095Y-188549390D02*
X75025714Y-188358914D01*
X75025714Y-188358914D02*
X75073333Y-188263676D01*
X75073333Y-188263676D02*
X75168571Y-188168438D01*
X75168571Y-188168438D02*
X75311428Y-188120819D01*
X75311428Y-188120819D02*
X75406666Y-188120819D01*
X75406666Y-188120819D02*
X75549523Y-188168438D01*
X75549523Y-188168438D02*
X75597142Y-188216057D01*
X75978095Y-188216057D02*
X76025714Y-188168438D01*
X76025714Y-188168438D02*
X76120952Y-188120819D01*
X76120952Y-188120819D02*
X76359047Y-188120819D01*
X76359047Y-188120819D02*
X76454285Y-188168438D01*
X76454285Y-188168438D02*
X76501904Y-188216057D01*
X76501904Y-188216057D02*
X76549523Y-188311295D01*
X76549523Y-188311295D02*
X76549523Y-188406533D01*
X76549523Y-188406533D02*
X76501904Y-188549390D01*
X76501904Y-188549390D02*
X75930476Y-189120819D01*
X75930476Y-189120819D02*
X76549523Y-189120819D01*
X76882857Y-188120819D02*
X77501904Y-188120819D01*
X77501904Y-188120819D02*
X77168571Y-188501771D01*
X77168571Y-188501771D02*
X77311428Y-188501771D01*
X77311428Y-188501771D02*
X77406666Y-188549390D01*
X77406666Y-188549390D02*
X77454285Y-188597009D01*
X77454285Y-188597009D02*
X77501904Y-188692247D01*
X77501904Y-188692247D02*
X77501904Y-188930342D01*
X77501904Y-188930342D02*
X77454285Y-189025580D01*
X77454285Y-189025580D02*
X77406666Y-189073200D01*
X77406666Y-189073200D02*
X77311428Y-189120819D01*
X77311428Y-189120819D02*
X77025714Y-189120819D01*
X77025714Y-189120819D02*
X76930476Y-189073200D01*
X76930476Y-189073200D02*
X76882857Y-189025580D01*
%TO.C,C22*%
X42521142Y-183553580D02*
X42473523Y-183601200D01*
X42473523Y-183601200D02*
X42330666Y-183648819D01*
X42330666Y-183648819D02*
X42235428Y-183648819D01*
X42235428Y-183648819D02*
X42092571Y-183601200D01*
X42092571Y-183601200D02*
X41997333Y-183505961D01*
X41997333Y-183505961D02*
X41949714Y-183410723D01*
X41949714Y-183410723D02*
X41902095Y-183220247D01*
X41902095Y-183220247D02*
X41902095Y-183077390D01*
X41902095Y-183077390D02*
X41949714Y-182886914D01*
X41949714Y-182886914D02*
X41997333Y-182791676D01*
X41997333Y-182791676D02*
X42092571Y-182696438D01*
X42092571Y-182696438D02*
X42235428Y-182648819D01*
X42235428Y-182648819D02*
X42330666Y-182648819D01*
X42330666Y-182648819D02*
X42473523Y-182696438D01*
X42473523Y-182696438D02*
X42521142Y-182744057D01*
X42902095Y-182744057D02*
X42949714Y-182696438D01*
X42949714Y-182696438D02*
X43044952Y-182648819D01*
X43044952Y-182648819D02*
X43283047Y-182648819D01*
X43283047Y-182648819D02*
X43378285Y-182696438D01*
X43378285Y-182696438D02*
X43425904Y-182744057D01*
X43425904Y-182744057D02*
X43473523Y-182839295D01*
X43473523Y-182839295D02*
X43473523Y-182934533D01*
X43473523Y-182934533D02*
X43425904Y-183077390D01*
X43425904Y-183077390D02*
X42854476Y-183648819D01*
X42854476Y-183648819D02*
X43473523Y-183648819D01*
X43854476Y-182744057D02*
X43902095Y-182696438D01*
X43902095Y-182696438D02*
X43997333Y-182648819D01*
X43997333Y-182648819D02*
X44235428Y-182648819D01*
X44235428Y-182648819D02*
X44330666Y-182696438D01*
X44330666Y-182696438D02*
X44378285Y-182744057D01*
X44378285Y-182744057D02*
X44425904Y-182839295D01*
X44425904Y-182839295D02*
X44425904Y-182934533D01*
X44425904Y-182934533D02*
X44378285Y-183077390D01*
X44378285Y-183077390D02*
X43806857Y-183648819D01*
X43806857Y-183648819D02*
X44425904Y-183648819D01*
%TO.C,C21*%
X214257142Y-210865580D02*
X214209523Y-210913200D01*
X214209523Y-210913200D02*
X214066666Y-210960819D01*
X214066666Y-210960819D02*
X213971428Y-210960819D01*
X213971428Y-210960819D02*
X213828571Y-210913200D01*
X213828571Y-210913200D02*
X213733333Y-210817961D01*
X213733333Y-210817961D02*
X213685714Y-210722723D01*
X213685714Y-210722723D02*
X213638095Y-210532247D01*
X213638095Y-210532247D02*
X213638095Y-210389390D01*
X213638095Y-210389390D02*
X213685714Y-210198914D01*
X213685714Y-210198914D02*
X213733333Y-210103676D01*
X213733333Y-210103676D02*
X213828571Y-210008438D01*
X213828571Y-210008438D02*
X213971428Y-209960819D01*
X213971428Y-209960819D02*
X214066666Y-209960819D01*
X214066666Y-209960819D02*
X214209523Y-210008438D01*
X214209523Y-210008438D02*
X214257142Y-210056057D01*
X214638095Y-210056057D02*
X214685714Y-210008438D01*
X214685714Y-210008438D02*
X214780952Y-209960819D01*
X214780952Y-209960819D02*
X215019047Y-209960819D01*
X215019047Y-209960819D02*
X215114285Y-210008438D01*
X215114285Y-210008438D02*
X215161904Y-210056057D01*
X215161904Y-210056057D02*
X215209523Y-210151295D01*
X215209523Y-210151295D02*
X215209523Y-210246533D01*
X215209523Y-210246533D02*
X215161904Y-210389390D01*
X215161904Y-210389390D02*
X214590476Y-210960819D01*
X214590476Y-210960819D02*
X215209523Y-210960819D01*
X216161904Y-210960819D02*
X215590476Y-210960819D01*
X215876190Y-210960819D02*
X215876190Y-209960819D01*
X215876190Y-209960819D02*
X215780952Y-210103676D01*
X215780952Y-210103676D02*
X215685714Y-210198914D01*
X215685714Y-210198914D02*
X215590476Y-210246533D01*
%TO.C,C20*%
X214241142Y-188005580D02*
X214193523Y-188053200D01*
X214193523Y-188053200D02*
X214050666Y-188100819D01*
X214050666Y-188100819D02*
X213955428Y-188100819D01*
X213955428Y-188100819D02*
X213812571Y-188053200D01*
X213812571Y-188053200D02*
X213717333Y-187957961D01*
X213717333Y-187957961D02*
X213669714Y-187862723D01*
X213669714Y-187862723D02*
X213622095Y-187672247D01*
X213622095Y-187672247D02*
X213622095Y-187529390D01*
X213622095Y-187529390D02*
X213669714Y-187338914D01*
X213669714Y-187338914D02*
X213717333Y-187243676D01*
X213717333Y-187243676D02*
X213812571Y-187148438D01*
X213812571Y-187148438D02*
X213955428Y-187100819D01*
X213955428Y-187100819D02*
X214050666Y-187100819D01*
X214050666Y-187100819D02*
X214193523Y-187148438D01*
X214193523Y-187148438D02*
X214241142Y-187196057D01*
X214622095Y-187196057D02*
X214669714Y-187148438D01*
X214669714Y-187148438D02*
X214764952Y-187100819D01*
X214764952Y-187100819D02*
X215003047Y-187100819D01*
X215003047Y-187100819D02*
X215098285Y-187148438D01*
X215098285Y-187148438D02*
X215145904Y-187196057D01*
X215145904Y-187196057D02*
X215193523Y-187291295D01*
X215193523Y-187291295D02*
X215193523Y-187386533D01*
X215193523Y-187386533D02*
X215145904Y-187529390D01*
X215145904Y-187529390D02*
X214574476Y-188100819D01*
X214574476Y-188100819D02*
X215193523Y-188100819D01*
X215812571Y-187100819D02*
X215907809Y-187100819D01*
X215907809Y-187100819D02*
X216003047Y-187148438D01*
X216003047Y-187148438D02*
X216050666Y-187196057D01*
X216050666Y-187196057D02*
X216098285Y-187291295D01*
X216098285Y-187291295D02*
X216145904Y-187481771D01*
X216145904Y-187481771D02*
X216145904Y-187719866D01*
X216145904Y-187719866D02*
X216098285Y-187910342D01*
X216098285Y-187910342D02*
X216050666Y-188005580D01*
X216050666Y-188005580D02*
X216003047Y-188053200D01*
X216003047Y-188053200D02*
X215907809Y-188100819D01*
X215907809Y-188100819D02*
X215812571Y-188100819D01*
X215812571Y-188100819D02*
X215717333Y-188053200D01*
X215717333Y-188053200D02*
X215669714Y-188005580D01*
X215669714Y-188005580D02*
X215622095Y-187910342D01*
X215622095Y-187910342D02*
X215574476Y-187719866D01*
X215574476Y-187719866D02*
X215574476Y-187481771D01*
X215574476Y-187481771D02*
X215622095Y-187291295D01*
X215622095Y-187291295D02*
X215669714Y-187196057D01*
X215669714Y-187196057D02*
X215717333Y-187148438D01*
X215717333Y-187148438D02*
X215812571Y-187100819D01*
%TO.C,C19*%
X214257142Y-203245580D02*
X214209523Y-203293200D01*
X214209523Y-203293200D02*
X214066666Y-203340819D01*
X214066666Y-203340819D02*
X213971428Y-203340819D01*
X213971428Y-203340819D02*
X213828571Y-203293200D01*
X213828571Y-203293200D02*
X213733333Y-203197961D01*
X213733333Y-203197961D02*
X213685714Y-203102723D01*
X213685714Y-203102723D02*
X213638095Y-202912247D01*
X213638095Y-202912247D02*
X213638095Y-202769390D01*
X213638095Y-202769390D02*
X213685714Y-202578914D01*
X213685714Y-202578914D02*
X213733333Y-202483676D01*
X213733333Y-202483676D02*
X213828571Y-202388438D01*
X213828571Y-202388438D02*
X213971428Y-202340819D01*
X213971428Y-202340819D02*
X214066666Y-202340819D01*
X214066666Y-202340819D02*
X214209523Y-202388438D01*
X214209523Y-202388438D02*
X214257142Y-202436057D01*
X215209523Y-203340819D02*
X214638095Y-203340819D01*
X214923809Y-203340819D02*
X214923809Y-202340819D01*
X214923809Y-202340819D02*
X214828571Y-202483676D01*
X214828571Y-202483676D02*
X214733333Y-202578914D01*
X214733333Y-202578914D02*
X214638095Y-202626533D01*
X215685714Y-203340819D02*
X215876190Y-203340819D01*
X215876190Y-203340819D02*
X215971428Y-203293200D01*
X215971428Y-203293200D02*
X216019047Y-203245580D01*
X216019047Y-203245580D02*
X216114285Y-203102723D01*
X216114285Y-203102723D02*
X216161904Y-202912247D01*
X216161904Y-202912247D02*
X216161904Y-202531295D01*
X216161904Y-202531295D02*
X216114285Y-202436057D01*
X216114285Y-202436057D02*
X216066666Y-202388438D01*
X216066666Y-202388438D02*
X215971428Y-202340819D01*
X215971428Y-202340819D02*
X215780952Y-202340819D01*
X215780952Y-202340819D02*
X215685714Y-202388438D01*
X215685714Y-202388438D02*
X215638095Y-202436057D01*
X215638095Y-202436057D02*
X215590476Y-202531295D01*
X215590476Y-202531295D02*
X215590476Y-202769390D01*
X215590476Y-202769390D02*
X215638095Y-202864628D01*
X215638095Y-202864628D02*
X215685714Y-202912247D01*
X215685714Y-202912247D02*
X215780952Y-202959866D01*
X215780952Y-202959866D02*
X215971428Y-202959866D01*
X215971428Y-202959866D02*
X216066666Y-202912247D01*
X216066666Y-202912247D02*
X216114285Y-202864628D01*
X216114285Y-202864628D02*
X216161904Y-202769390D01*
%TO.C,C18*%
X214257142Y-195625580D02*
X214209523Y-195673200D01*
X214209523Y-195673200D02*
X214066666Y-195720819D01*
X214066666Y-195720819D02*
X213971428Y-195720819D01*
X213971428Y-195720819D02*
X213828571Y-195673200D01*
X213828571Y-195673200D02*
X213733333Y-195577961D01*
X213733333Y-195577961D02*
X213685714Y-195482723D01*
X213685714Y-195482723D02*
X213638095Y-195292247D01*
X213638095Y-195292247D02*
X213638095Y-195149390D01*
X213638095Y-195149390D02*
X213685714Y-194958914D01*
X213685714Y-194958914D02*
X213733333Y-194863676D01*
X213733333Y-194863676D02*
X213828571Y-194768438D01*
X213828571Y-194768438D02*
X213971428Y-194720819D01*
X213971428Y-194720819D02*
X214066666Y-194720819D01*
X214066666Y-194720819D02*
X214209523Y-194768438D01*
X214209523Y-194768438D02*
X214257142Y-194816057D01*
X215209523Y-195720819D02*
X214638095Y-195720819D01*
X214923809Y-195720819D02*
X214923809Y-194720819D01*
X214923809Y-194720819D02*
X214828571Y-194863676D01*
X214828571Y-194863676D02*
X214733333Y-194958914D01*
X214733333Y-194958914D02*
X214638095Y-195006533D01*
X215780952Y-195149390D02*
X215685714Y-195101771D01*
X215685714Y-195101771D02*
X215638095Y-195054152D01*
X215638095Y-195054152D02*
X215590476Y-194958914D01*
X215590476Y-194958914D02*
X215590476Y-194911295D01*
X215590476Y-194911295D02*
X215638095Y-194816057D01*
X215638095Y-194816057D02*
X215685714Y-194768438D01*
X215685714Y-194768438D02*
X215780952Y-194720819D01*
X215780952Y-194720819D02*
X215971428Y-194720819D01*
X215971428Y-194720819D02*
X216066666Y-194768438D01*
X216066666Y-194768438D02*
X216114285Y-194816057D01*
X216114285Y-194816057D02*
X216161904Y-194911295D01*
X216161904Y-194911295D02*
X216161904Y-194958914D01*
X216161904Y-194958914D02*
X216114285Y-195054152D01*
X216114285Y-195054152D02*
X216066666Y-195101771D01*
X216066666Y-195101771D02*
X215971428Y-195149390D01*
X215971428Y-195149390D02*
X215780952Y-195149390D01*
X215780952Y-195149390D02*
X215685714Y-195197009D01*
X215685714Y-195197009D02*
X215638095Y-195244628D01*
X215638095Y-195244628D02*
X215590476Y-195339866D01*
X215590476Y-195339866D02*
X215590476Y-195530342D01*
X215590476Y-195530342D02*
X215638095Y-195625580D01*
X215638095Y-195625580D02*
X215685714Y-195673200D01*
X215685714Y-195673200D02*
X215780952Y-195720819D01*
X215780952Y-195720819D02*
X215971428Y-195720819D01*
X215971428Y-195720819D02*
X216066666Y-195673200D01*
X216066666Y-195673200D02*
X216114285Y-195625580D01*
X216114285Y-195625580D02*
X216161904Y-195530342D01*
X216161904Y-195530342D02*
X216161904Y-195339866D01*
X216161904Y-195339866D02*
X216114285Y-195244628D01*
X216114285Y-195244628D02*
X216066666Y-195197009D01*
X216066666Y-195197009D02*
X215971428Y-195149390D01*
%TO.C,C17*%
X137533142Y-150219580D02*
X137485523Y-150267200D01*
X137485523Y-150267200D02*
X137342666Y-150314819D01*
X137342666Y-150314819D02*
X137247428Y-150314819D01*
X137247428Y-150314819D02*
X137104571Y-150267200D01*
X137104571Y-150267200D02*
X137009333Y-150171961D01*
X137009333Y-150171961D02*
X136961714Y-150076723D01*
X136961714Y-150076723D02*
X136914095Y-149886247D01*
X136914095Y-149886247D02*
X136914095Y-149743390D01*
X136914095Y-149743390D02*
X136961714Y-149552914D01*
X136961714Y-149552914D02*
X137009333Y-149457676D01*
X137009333Y-149457676D02*
X137104571Y-149362438D01*
X137104571Y-149362438D02*
X137247428Y-149314819D01*
X137247428Y-149314819D02*
X137342666Y-149314819D01*
X137342666Y-149314819D02*
X137485523Y-149362438D01*
X137485523Y-149362438D02*
X137533142Y-149410057D01*
X138485523Y-150314819D02*
X137914095Y-150314819D01*
X138199809Y-150314819D02*
X138199809Y-149314819D01*
X138199809Y-149314819D02*
X138104571Y-149457676D01*
X138104571Y-149457676D02*
X138009333Y-149552914D01*
X138009333Y-149552914D02*
X137914095Y-149600533D01*
X138818857Y-149314819D02*
X139485523Y-149314819D01*
X139485523Y-149314819D02*
X139056952Y-150314819D01*
%TO.C,C16*%
X68689142Y-143813580D02*
X68641523Y-143861200D01*
X68641523Y-143861200D02*
X68498666Y-143908819D01*
X68498666Y-143908819D02*
X68403428Y-143908819D01*
X68403428Y-143908819D02*
X68260571Y-143861200D01*
X68260571Y-143861200D02*
X68165333Y-143765961D01*
X68165333Y-143765961D02*
X68117714Y-143670723D01*
X68117714Y-143670723D02*
X68070095Y-143480247D01*
X68070095Y-143480247D02*
X68070095Y-143337390D01*
X68070095Y-143337390D02*
X68117714Y-143146914D01*
X68117714Y-143146914D02*
X68165333Y-143051676D01*
X68165333Y-143051676D02*
X68260571Y-142956438D01*
X68260571Y-142956438D02*
X68403428Y-142908819D01*
X68403428Y-142908819D02*
X68498666Y-142908819D01*
X68498666Y-142908819D02*
X68641523Y-142956438D01*
X68641523Y-142956438D02*
X68689142Y-143004057D01*
X69641523Y-143908819D02*
X69070095Y-143908819D01*
X69355809Y-143908819D02*
X69355809Y-142908819D01*
X69355809Y-142908819D02*
X69260571Y-143051676D01*
X69260571Y-143051676D02*
X69165333Y-143146914D01*
X69165333Y-143146914D02*
X69070095Y-143194533D01*
X70498666Y-142908819D02*
X70308190Y-142908819D01*
X70308190Y-142908819D02*
X70212952Y-142956438D01*
X70212952Y-142956438D02*
X70165333Y-143004057D01*
X70165333Y-143004057D02*
X70070095Y-143146914D01*
X70070095Y-143146914D02*
X70022476Y-143337390D01*
X70022476Y-143337390D02*
X70022476Y-143718342D01*
X70022476Y-143718342D02*
X70070095Y-143813580D01*
X70070095Y-143813580D02*
X70117714Y-143861200D01*
X70117714Y-143861200D02*
X70212952Y-143908819D01*
X70212952Y-143908819D02*
X70403428Y-143908819D01*
X70403428Y-143908819D02*
X70498666Y-143861200D01*
X70498666Y-143861200D02*
X70546285Y-143813580D01*
X70546285Y-143813580D02*
X70593904Y-143718342D01*
X70593904Y-143718342D02*
X70593904Y-143480247D01*
X70593904Y-143480247D02*
X70546285Y-143385009D01*
X70546285Y-143385009D02*
X70498666Y-143337390D01*
X70498666Y-143337390D02*
X70403428Y-143289771D01*
X70403428Y-143289771D02*
X70212952Y-143289771D01*
X70212952Y-143289771D02*
X70117714Y-143337390D01*
X70117714Y-143337390D02*
X70070095Y-143385009D01*
X70070095Y-143385009D02*
X70022476Y-143480247D01*
%TO.C,C15*%
X56269142Y-139357580D02*
X56221523Y-139405200D01*
X56221523Y-139405200D02*
X56078666Y-139452819D01*
X56078666Y-139452819D02*
X55983428Y-139452819D01*
X55983428Y-139452819D02*
X55840571Y-139405200D01*
X55840571Y-139405200D02*
X55745333Y-139309961D01*
X55745333Y-139309961D02*
X55697714Y-139214723D01*
X55697714Y-139214723D02*
X55650095Y-139024247D01*
X55650095Y-139024247D02*
X55650095Y-138881390D01*
X55650095Y-138881390D02*
X55697714Y-138690914D01*
X55697714Y-138690914D02*
X55745333Y-138595676D01*
X55745333Y-138595676D02*
X55840571Y-138500438D01*
X55840571Y-138500438D02*
X55983428Y-138452819D01*
X55983428Y-138452819D02*
X56078666Y-138452819D01*
X56078666Y-138452819D02*
X56221523Y-138500438D01*
X56221523Y-138500438D02*
X56269142Y-138548057D01*
X57221523Y-139452819D02*
X56650095Y-139452819D01*
X56935809Y-139452819D02*
X56935809Y-138452819D01*
X56935809Y-138452819D02*
X56840571Y-138595676D01*
X56840571Y-138595676D02*
X56745333Y-138690914D01*
X56745333Y-138690914D02*
X56650095Y-138738533D01*
X58126285Y-138452819D02*
X57650095Y-138452819D01*
X57650095Y-138452819D02*
X57602476Y-138929009D01*
X57602476Y-138929009D02*
X57650095Y-138881390D01*
X57650095Y-138881390D02*
X57745333Y-138833771D01*
X57745333Y-138833771D02*
X57983428Y-138833771D01*
X57983428Y-138833771D02*
X58078666Y-138881390D01*
X58078666Y-138881390D02*
X58126285Y-138929009D01*
X58126285Y-138929009D02*
X58173904Y-139024247D01*
X58173904Y-139024247D02*
X58173904Y-139262342D01*
X58173904Y-139262342D02*
X58126285Y-139357580D01*
X58126285Y-139357580D02*
X58078666Y-139405200D01*
X58078666Y-139405200D02*
X57983428Y-139452819D01*
X57983428Y-139452819D02*
X57745333Y-139452819D01*
X57745333Y-139452819D02*
X57650095Y-139405200D01*
X57650095Y-139405200D02*
X57602476Y-139357580D01*
%TO.C,C14*%
X164965142Y-38657580D02*
X164917523Y-38705200D01*
X164917523Y-38705200D02*
X164774666Y-38752819D01*
X164774666Y-38752819D02*
X164679428Y-38752819D01*
X164679428Y-38752819D02*
X164536571Y-38705200D01*
X164536571Y-38705200D02*
X164441333Y-38609961D01*
X164441333Y-38609961D02*
X164393714Y-38514723D01*
X164393714Y-38514723D02*
X164346095Y-38324247D01*
X164346095Y-38324247D02*
X164346095Y-38181390D01*
X164346095Y-38181390D02*
X164393714Y-37990914D01*
X164393714Y-37990914D02*
X164441333Y-37895676D01*
X164441333Y-37895676D02*
X164536571Y-37800438D01*
X164536571Y-37800438D02*
X164679428Y-37752819D01*
X164679428Y-37752819D02*
X164774666Y-37752819D01*
X164774666Y-37752819D02*
X164917523Y-37800438D01*
X164917523Y-37800438D02*
X164965142Y-37848057D01*
X165917523Y-38752819D02*
X165346095Y-38752819D01*
X165631809Y-38752819D02*
X165631809Y-37752819D01*
X165631809Y-37752819D02*
X165536571Y-37895676D01*
X165536571Y-37895676D02*
X165441333Y-37990914D01*
X165441333Y-37990914D02*
X165346095Y-38038533D01*
X166774666Y-38086152D02*
X166774666Y-38752819D01*
X166536571Y-37705200D02*
X166298476Y-38419485D01*
X166298476Y-38419485D02*
X166917523Y-38419485D01*
%TO.C,C13*%
X77589142Y-156513580D02*
X77541523Y-156561200D01*
X77541523Y-156561200D02*
X77398666Y-156608819D01*
X77398666Y-156608819D02*
X77303428Y-156608819D01*
X77303428Y-156608819D02*
X77160571Y-156561200D01*
X77160571Y-156561200D02*
X77065333Y-156465961D01*
X77065333Y-156465961D02*
X77017714Y-156370723D01*
X77017714Y-156370723D02*
X76970095Y-156180247D01*
X76970095Y-156180247D02*
X76970095Y-156037390D01*
X76970095Y-156037390D02*
X77017714Y-155846914D01*
X77017714Y-155846914D02*
X77065333Y-155751676D01*
X77065333Y-155751676D02*
X77160571Y-155656438D01*
X77160571Y-155656438D02*
X77303428Y-155608819D01*
X77303428Y-155608819D02*
X77398666Y-155608819D01*
X77398666Y-155608819D02*
X77541523Y-155656438D01*
X77541523Y-155656438D02*
X77589142Y-155704057D01*
X78541523Y-156608819D02*
X77970095Y-156608819D01*
X78255809Y-156608819D02*
X78255809Y-155608819D01*
X78255809Y-155608819D02*
X78160571Y-155751676D01*
X78160571Y-155751676D02*
X78065333Y-155846914D01*
X78065333Y-155846914D02*
X77970095Y-155894533D01*
X78874857Y-155608819D02*
X79493904Y-155608819D01*
X79493904Y-155608819D02*
X79160571Y-155989771D01*
X79160571Y-155989771D02*
X79303428Y-155989771D01*
X79303428Y-155989771D02*
X79398666Y-156037390D01*
X79398666Y-156037390D02*
X79446285Y-156085009D01*
X79446285Y-156085009D02*
X79493904Y-156180247D01*
X79493904Y-156180247D02*
X79493904Y-156418342D01*
X79493904Y-156418342D02*
X79446285Y-156513580D01*
X79446285Y-156513580D02*
X79398666Y-156561200D01*
X79398666Y-156561200D02*
X79303428Y-156608819D01*
X79303428Y-156608819D02*
X79017714Y-156608819D01*
X79017714Y-156608819D02*
X78922476Y-156561200D01*
X78922476Y-156561200D02*
X78874857Y-156513580D01*
%TO.C,C12*%
X37965142Y-80777580D02*
X37917523Y-80825200D01*
X37917523Y-80825200D02*
X37774666Y-80872819D01*
X37774666Y-80872819D02*
X37679428Y-80872819D01*
X37679428Y-80872819D02*
X37536571Y-80825200D01*
X37536571Y-80825200D02*
X37441333Y-80729961D01*
X37441333Y-80729961D02*
X37393714Y-80634723D01*
X37393714Y-80634723D02*
X37346095Y-80444247D01*
X37346095Y-80444247D02*
X37346095Y-80301390D01*
X37346095Y-80301390D02*
X37393714Y-80110914D01*
X37393714Y-80110914D02*
X37441333Y-80015676D01*
X37441333Y-80015676D02*
X37536571Y-79920438D01*
X37536571Y-79920438D02*
X37679428Y-79872819D01*
X37679428Y-79872819D02*
X37774666Y-79872819D01*
X37774666Y-79872819D02*
X37917523Y-79920438D01*
X37917523Y-79920438D02*
X37965142Y-79968057D01*
X38917523Y-80872819D02*
X38346095Y-80872819D01*
X38631809Y-80872819D02*
X38631809Y-79872819D01*
X38631809Y-79872819D02*
X38536571Y-80015676D01*
X38536571Y-80015676D02*
X38441333Y-80110914D01*
X38441333Y-80110914D02*
X38346095Y-80158533D01*
X39298476Y-79968057D02*
X39346095Y-79920438D01*
X39346095Y-79920438D02*
X39441333Y-79872819D01*
X39441333Y-79872819D02*
X39679428Y-79872819D01*
X39679428Y-79872819D02*
X39774666Y-79920438D01*
X39774666Y-79920438D02*
X39822285Y-79968057D01*
X39822285Y-79968057D02*
X39869904Y-80063295D01*
X39869904Y-80063295D02*
X39869904Y-80158533D01*
X39869904Y-80158533D02*
X39822285Y-80301390D01*
X39822285Y-80301390D02*
X39250857Y-80872819D01*
X39250857Y-80872819D02*
X39869904Y-80872819D01*
%TO.C,C11*%
X170553142Y-103991580D02*
X170505523Y-104039200D01*
X170505523Y-104039200D02*
X170362666Y-104086819D01*
X170362666Y-104086819D02*
X170267428Y-104086819D01*
X170267428Y-104086819D02*
X170124571Y-104039200D01*
X170124571Y-104039200D02*
X170029333Y-103943961D01*
X170029333Y-103943961D02*
X169981714Y-103848723D01*
X169981714Y-103848723D02*
X169934095Y-103658247D01*
X169934095Y-103658247D02*
X169934095Y-103515390D01*
X169934095Y-103515390D02*
X169981714Y-103324914D01*
X169981714Y-103324914D02*
X170029333Y-103229676D01*
X170029333Y-103229676D02*
X170124571Y-103134438D01*
X170124571Y-103134438D02*
X170267428Y-103086819D01*
X170267428Y-103086819D02*
X170362666Y-103086819D01*
X170362666Y-103086819D02*
X170505523Y-103134438D01*
X170505523Y-103134438D02*
X170553142Y-103182057D01*
X171505523Y-104086819D02*
X170934095Y-104086819D01*
X171219809Y-104086819D02*
X171219809Y-103086819D01*
X171219809Y-103086819D02*
X171124571Y-103229676D01*
X171124571Y-103229676D02*
X171029333Y-103324914D01*
X171029333Y-103324914D02*
X170934095Y-103372533D01*
X172457904Y-104086819D02*
X171886476Y-104086819D01*
X172172190Y-104086819D02*
X172172190Y-103086819D01*
X172172190Y-103086819D02*
X172076952Y-103229676D01*
X172076952Y-103229676D02*
X171981714Y-103324914D01*
X171981714Y-103324914D02*
X171886476Y-103372533D01*
%TO.C,C10*%
X120221142Y-103991580D02*
X120173523Y-104039200D01*
X120173523Y-104039200D02*
X120030666Y-104086819D01*
X120030666Y-104086819D02*
X119935428Y-104086819D01*
X119935428Y-104086819D02*
X119792571Y-104039200D01*
X119792571Y-104039200D02*
X119697333Y-103943961D01*
X119697333Y-103943961D02*
X119649714Y-103848723D01*
X119649714Y-103848723D02*
X119602095Y-103658247D01*
X119602095Y-103658247D02*
X119602095Y-103515390D01*
X119602095Y-103515390D02*
X119649714Y-103324914D01*
X119649714Y-103324914D02*
X119697333Y-103229676D01*
X119697333Y-103229676D02*
X119792571Y-103134438D01*
X119792571Y-103134438D02*
X119935428Y-103086819D01*
X119935428Y-103086819D02*
X120030666Y-103086819D01*
X120030666Y-103086819D02*
X120173523Y-103134438D01*
X120173523Y-103134438D02*
X120221142Y-103182057D01*
X121173523Y-104086819D02*
X120602095Y-104086819D01*
X120887809Y-104086819D02*
X120887809Y-103086819D01*
X120887809Y-103086819D02*
X120792571Y-103229676D01*
X120792571Y-103229676D02*
X120697333Y-103324914D01*
X120697333Y-103324914D02*
X120602095Y-103372533D01*
X121792571Y-103086819D02*
X121887809Y-103086819D01*
X121887809Y-103086819D02*
X121983047Y-103134438D01*
X121983047Y-103134438D02*
X122030666Y-103182057D01*
X122030666Y-103182057D02*
X122078285Y-103277295D01*
X122078285Y-103277295D02*
X122125904Y-103467771D01*
X122125904Y-103467771D02*
X122125904Y-103705866D01*
X122125904Y-103705866D02*
X122078285Y-103896342D01*
X122078285Y-103896342D02*
X122030666Y-103991580D01*
X122030666Y-103991580D02*
X121983047Y-104039200D01*
X121983047Y-104039200D02*
X121887809Y-104086819D01*
X121887809Y-104086819D02*
X121792571Y-104086819D01*
X121792571Y-104086819D02*
X121697333Y-104039200D01*
X121697333Y-104039200D02*
X121649714Y-103991580D01*
X121649714Y-103991580D02*
X121602095Y-103896342D01*
X121602095Y-103896342D02*
X121554476Y-103705866D01*
X121554476Y-103705866D02*
X121554476Y-103467771D01*
X121554476Y-103467771D02*
X121602095Y-103277295D01*
X121602095Y-103277295D02*
X121649714Y-103182057D01*
X121649714Y-103182057D02*
X121697333Y-103134438D01*
X121697333Y-103134438D02*
X121792571Y-103086819D01*
%TO.C,C9*%
X96861333Y-103173580D02*
X96813714Y-103221200D01*
X96813714Y-103221200D02*
X96670857Y-103268819D01*
X96670857Y-103268819D02*
X96575619Y-103268819D01*
X96575619Y-103268819D02*
X96432762Y-103221200D01*
X96432762Y-103221200D02*
X96337524Y-103125961D01*
X96337524Y-103125961D02*
X96289905Y-103030723D01*
X96289905Y-103030723D02*
X96242286Y-102840247D01*
X96242286Y-102840247D02*
X96242286Y-102697390D01*
X96242286Y-102697390D02*
X96289905Y-102506914D01*
X96289905Y-102506914D02*
X96337524Y-102411676D01*
X96337524Y-102411676D02*
X96432762Y-102316438D01*
X96432762Y-102316438D02*
X96575619Y-102268819D01*
X96575619Y-102268819D02*
X96670857Y-102268819D01*
X96670857Y-102268819D02*
X96813714Y-102316438D01*
X96813714Y-102316438D02*
X96861333Y-102364057D01*
X97337524Y-103268819D02*
X97528000Y-103268819D01*
X97528000Y-103268819D02*
X97623238Y-103221200D01*
X97623238Y-103221200D02*
X97670857Y-103173580D01*
X97670857Y-103173580D02*
X97766095Y-103030723D01*
X97766095Y-103030723D02*
X97813714Y-102840247D01*
X97813714Y-102840247D02*
X97813714Y-102459295D01*
X97813714Y-102459295D02*
X97766095Y-102364057D01*
X97766095Y-102364057D02*
X97718476Y-102316438D01*
X97718476Y-102316438D02*
X97623238Y-102268819D01*
X97623238Y-102268819D02*
X97432762Y-102268819D01*
X97432762Y-102268819D02*
X97337524Y-102316438D01*
X97337524Y-102316438D02*
X97289905Y-102364057D01*
X97289905Y-102364057D02*
X97242286Y-102459295D01*
X97242286Y-102459295D02*
X97242286Y-102697390D01*
X97242286Y-102697390D02*
X97289905Y-102792628D01*
X97289905Y-102792628D02*
X97337524Y-102840247D01*
X97337524Y-102840247D02*
X97432762Y-102887866D01*
X97432762Y-102887866D02*
X97623238Y-102887866D01*
X97623238Y-102887866D02*
X97718476Y-102840247D01*
X97718476Y-102840247D02*
X97766095Y-102792628D01*
X97766095Y-102792628D02*
X97813714Y-102697390D01*
%TO.C,C8*%
X138557333Y-43539580D02*
X138509714Y-43587200D01*
X138509714Y-43587200D02*
X138366857Y-43634819D01*
X138366857Y-43634819D02*
X138271619Y-43634819D01*
X138271619Y-43634819D02*
X138128762Y-43587200D01*
X138128762Y-43587200D02*
X138033524Y-43491961D01*
X138033524Y-43491961D02*
X137985905Y-43396723D01*
X137985905Y-43396723D02*
X137938286Y-43206247D01*
X137938286Y-43206247D02*
X137938286Y-43063390D01*
X137938286Y-43063390D02*
X137985905Y-42872914D01*
X137985905Y-42872914D02*
X138033524Y-42777676D01*
X138033524Y-42777676D02*
X138128762Y-42682438D01*
X138128762Y-42682438D02*
X138271619Y-42634819D01*
X138271619Y-42634819D02*
X138366857Y-42634819D01*
X138366857Y-42634819D02*
X138509714Y-42682438D01*
X138509714Y-42682438D02*
X138557333Y-42730057D01*
X139128762Y-43063390D02*
X139033524Y-43015771D01*
X139033524Y-43015771D02*
X138985905Y-42968152D01*
X138985905Y-42968152D02*
X138938286Y-42872914D01*
X138938286Y-42872914D02*
X138938286Y-42825295D01*
X138938286Y-42825295D02*
X138985905Y-42730057D01*
X138985905Y-42730057D02*
X139033524Y-42682438D01*
X139033524Y-42682438D02*
X139128762Y-42634819D01*
X139128762Y-42634819D02*
X139319238Y-42634819D01*
X139319238Y-42634819D02*
X139414476Y-42682438D01*
X139414476Y-42682438D02*
X139462095Y-42730057D01*
X139462095Y-42730057D02*
X139509714Y-42825295D01*
X139509714Y-42825295D02*
X139509714Y-42872914D01*
X139509714Y-42872914D02*
X139462095Y-42968152D01*
X139462095Y-42968152D02*
X139414476Y-43015771D01*
X139414476Y-43015771D02*
X139319238Y-43063390D01*
X139319238Y-43063390D02*
X139128762Y-43063390D01*
X139128762Y-43063390D02*
X139033524Y-43111009D01*
X139033524Y-43111009D02*
X138985905Y-43158628D01*
X138985905Y-43158628D02*
X138938286Y-43253866D01*
X138938286Y-43253866D02*
X138938286Y-43444342D01*
X138938286Y-43444342D02*
X138985905Y-43539580D01*
X138985905Y-43539580D02*
X139033524Y-43587200D01*
X139033524Y-43587200D02*
X139128762Y-43634819D01*
X139128762Y-43634819D02*
X139319238Y-43634819D01*
X139319238Y-43634819D02*
X139414476Y-43587200D01*
X139414476Y-43587200D02*
X139462095Y-43539580D01*
X139462095Y-43539580D02*
X139509714Y-43444342D01*
X139509714Y-43444342D02*
X139509714Y-43253866D01*
X139509714Y-43253866D02*
X139462095Y-43158628D01*
X139462095Y-43158628D02*
X139414476Y-43111009D01*
X139414476Y-43111009D02*
X139319238Y-43063390D01*
%TO.C,C7*%
X75525333Y-124001580D02*
X75477714Y-124049200D01*
X75477714Y-124049200D02*
X75334857Y-124096819D01*
X75334857Y-124096819D02*
X75239619Y-124096819D01*
X75239619Y-124096819D02*
X75096762Y-124049200D01*
X75096762Y-124049200D02*
X75001524Y-123953961D01*
X75001524Y-123953961D02*
X74953905Y-123858723D01*
X74953905Y-123858723D02*
X74906286Y-123668247D01*
X74906286Y-123668247D02*
X74906286Y-123525390D01*
X74906286Y-123525390D02*
X74953905Y-123334914D01*
X74953905Y-123334914D02*
X75001524Y-123239676D01*
X75001524Y-123239676D02*
X75096762Y-123144438D01*
X75096762Y-123144438D02*
X75239619Y-123096819D01*
X75239619Y-123096819D02*
X75334857Y-123096819D01*
X75334857Y-123096819D02*
X75477714Y-123144438D01*
X75477714Y-123144438D02*
X75525333Y-123192057D01*
X75858667Y-123096819D02*
X76525333Y-123096819D01*
X76525333Y-123096819D02*
X76096762Y-124096819D01*
%TO.C,C6*%
X226949333Y-103681580D02*
X226901714Y-103729200D01*
X226901714Y-103729200D02*
X226758857Y-103776819D01*
X226758857Y-103776819D02*
X226663619Y-103776819D01*
X226663619Y-103776819D02*
X226520762Y-103729200D01*
X226520762Y-103729200D02*
X226425524Y-103633961D01*
X226425524Y-103633961D02*
X226377905Y-103538723D01*
X226377905Y-103538723D02*
X226330286Y-103348247D01*
X226330286Y-103348247D02*
X226330286Y-103205390D01*
X226330286Y-103205390D02*
X226377905Y-103014914D01*
X226377905Y-103014914D02*
X226425524Y-102919676D01*
X226425524Y-102919676D02*
X226520762Y-102824438D01*
X226520762Y-102824438D02*
X226663619Y-102776819D01*
X226663619Y-102776819D02*
X226758857Y-102776819D01*
X226758857Y-102776819D02*
X226901714Y-102824438D01*
X226901714Y-102824438D02*
X226949333Y-102872057D01*
X227806476Y-102776819D02*
X227616000Y-102776819D01*
X227616000Y-102776819D02*
X227520762Y-102824438D01*
X227520762Y-102824438D02*
X227473143Y-102872057D01*
X227473143Y-102872057D02*
X227377905Y-103014914D01*
X227377905Y-103014914D02*
X227330286Y-103205390D01*
X227330286Y-103205390D02*
X227330286Y-103586342D01*
X227330286Y-103586342D02*
X227377905Y-103681580D01*
X227377905Y-103681580D02*
X227425524Y-103729200D01*
X227425524Y-103729200D02*
X227520762Y-103776819D01*
X227520762Y-103776819D02*
X227711238Y-103776819D01*
X227711238Y-103776819D02*
X227806476Y-103729200D01*
X227806476Y-103729200D02*
X227854095Y-103681580D01*
X227854095Y-103681580D02*
X227901714Y-103586342D01*
X227901714Y-103586342D02*
X227901714Y-103348247D01*
X227901714Y-103348247D02*
X227854095Y-103253009D01*
X227854095Y-103253009D02*
X227806476Y-103205390D01*
X227806476Y-103205390D02*
X227711238Y-103157771D01*
X227711238Y-103157771D02*
X227520762Y-103157771D01*
X227520762Y-103157771D02*
X227425524Y-103205390D01*
X227425524Y-103205390D02*
X227377905Y-103253009D01*
X227377905Y-103253009D02*
X227330286Y-103348247D01*
%TO.C,C5*%
X196429333Y-103991580D02*
X196381714Y-104039200D01*
X196381714Y-104039200D02*
X196238857Y-104086819D01*
X196238857Y-104086819D02*
X196143619Y-104086819D01*
X196143619Y-104086819D02*
X196000762Y-104039200D01*
X196000762Y-104039200D02*
X195905524Y-103943961D01*
X195905524Y-103943961D02*
X195857905Y-103848723D01*
X195857905Y-103848723D02*
X195810286Y-103658247D01*
X195810286Y-103658247D02*
X195810286Y-103515390D01*
X195810286Y-103515390D02*
X195857905Y-103324914D01*
X195857905Y-103324914D02*
X195905524Y-103229676D01*
X195905524Y-103229676D02*
X196000762Y-103134438D01*
X196000762Y-103134438D02*
X196143619Y-103086819D01*
X196143619Y-103086819D02*
X196238857Y-103086819D01*
X196238857Y-103086819D02*
X196381714Y-103134438D01*
X196381714Y-103134438D02*
X196429333Y-103182057D01*
X197334095Y-103086819D02*
X196857905Y-103086819D01*
X196857905Y-103086819D02*
X196810286Y-103563009D01*
X196810286Y-103563009D02*
X196857905Y-103515390D01*
X196857905Y-103515390D02*
X196953143Y-103467771D01*
X196953143Y-103467771D02*
X197191238Y-103467771D01*
X197191238Y-103467771D02*
X197286476Y-103515390D01*
X197286476Y-103515390D02*
X197334095Y-103563009D01*
X197334095Y-103563009D02*
X197381714Y-103658247D01*
X197381714Y-103658247D02*
X197381714Y-103896342D01*
X197381714Y-103896342D02*
X197334095Y-103991580D01*
X197334095Y-103991580D02*
X197286476Y-104039200D01*
X197286476Y-104039200D02*
X197191238Y-104086819D01*
X197191238Y-104086819D02*
X196953143Y-104086819D01*
X196953143Y-104086819D02*
X196857905Y-104039200D01*
X196857905Y-104039200D02*
X196810286Y-103991580D01*
%TO.C,C4*%
X156805333Y-103991580D02*
X156757714Y-104039200D01*
X156757714Y-104039200D02*
X156614857Y-104086819D01*
X156614857Y-104086819D02*
X156519619Y-104086819D01*
X156519619Y-104086819D02*
X156376762Y-104039200D01*
X156376762Y-104039200D02*
X156281524Y-103943961D01*
X156281524Y-103943961D02*
X156233905Y-103848723D01*
X156233905Y-103848723D02*
X156186286Y-103658247D01*
X156186286Y-103658247D02*
X156186286Y-103515390D01*
X156186286Y-103515390D02*
X156233905Y-103324914D01*
X156233905Y-103324914D02*
X156281524Y-103229676D01*
X156281524Y-103229676D02*
X156376762Y-103134438D01*
X156376762Y-103134438D02*
X156519619Y-103086819D01*
X156519619Y-103086819D02*
X156614857Y-103086819D01*
X156614857Y-103086819D02*
X156757714Y-103134438D01*
X156757714Y-103134438D02*
X156805333Y-103182057D01*
X157662476Y-103420152D02*
X157662476Y-104086819D01*
X157424381Y-103039200D02*
X157186286Y-103753485D01*
X157186286Y-103753485D02*
X157805333Y-103753485D01*
%TO.C,C3*%
X139025333Y-103991580D02*
X138977714Y-104039200D01*
X138977714Y-104039200D02*
X138834857Y-104086819D01*
X138834857Y-104086819D02*
X138739619Y-104086819D01*
X138739619Y-104086819D02*
X138596762Y-104039200D01*
X138596762Y-104039200D02*
X138501524Y-103943961D01*
X138501524Y-103943961D02*
X138453905Y-103848723D01*
X138453905Y-103848723D02*
X138406286Y-103658247D01*
X138406286Y-103658247D02*
X138406286Y-103515390D01*
X138406286Y-103515390D02*
X138453905Y-103324914D01*
X138453905Y-103324914D02*
X138501524Y-103229676D01*
X138501524Y-103229676D02*
X138596762Y-103134438D01*
X138596762Y-103134438D02*
X138739619Y-103086819D01*
X138739619Y-103086819D02*
X138834857Y-103086819D01*
X138834857Y-103086819D02*
X138977714Y-103134438D01*
X138977714Y-103134438D02*
X139025333Y-103182057D01*
X139358667Y-103086819D02*
X139977714Y-103086819D01*
X139977714Y-103086819D02*
X139644381Y-103467771D01*
X139644381Y-103467771D02*
X139787238Y-103467771D01*
X139787238Y-103467771D02*
X139882476Y-103515390D01*
X139882476Y-103515390D02*
X139930095Y-103563009D01*
X139930095Y-103563009D02*
X139977714Y-103658247D01*
X139977714Y-103658247D02*
X139977714Y-103896342D01*
X139977714Y-103896342D02*
X139930095Y-103991580D01*
X139930095Y-103991580D02*
X139882476Y-104039200D01*
X139882476Y-104039200D02*
X139787238Y-104086819D01*
X139787238Y-104086819D02*
X139501524Y-104086819D01*
X139501524Y-104086819D02*
X139406286Y-104039200D01*
X139406286Y-104039200D02*
X139358667Y-103991580D01*
%TO.C,C2*%
X120777333Y-129899580D02*
X120729714Y-129947200D01*
X120729714Y-129947200D02*
X120586857Y-129994819D01*
X120586857Y-129994819D02*
X120491619Y-129994819D01*
X120491619Y-129994819D02*
X120348762Y-129947200D01*
X120348762Y-129947200D02*
X120253524Y-129851961D01*
X120253524Y-129851961D02*
X120205905Y-129756723D01*
X120205905Y-129756723D02*
X120158286Y-129566247D01*
X120158286Y-129566247D02*
X120158286Y-129423390D01*
X120158286Y-129423390D02*
X120205905Y-129232914D01*
X120205905Y-129232914D02*
X120253524Y-129137676D01*
X120253524Y-129137676D02*
X120348762Y-129042438D01*
X120348762Y-129042438D02*
X120491619Y-128994819D01*
X120491619Y-128994819D02*
X120586857Y-128994819D01*
X120586857Y-128994819D02*
X120729714Y-129042438D01*
X120729714Y-129042438D02*
X120777333Y-129090057D01*
X121158286Y-129090057D02*
X121205905Y-129042438D01*
X121205905Y-129042438D02*
X121301143Y-128994819D01*
X121301143Y-128994819D02*
X121539238Y-128994819D01*
X121539238Y-128994819D02*
X121634476Y-129042438D01*
X121634476Y-129042438D02*
X121682095Y-129090057D01*
X121682095Y-129090057D02*
X121729714Y-129185295D01*
X121729714Y-129185295D02*
X121729714Y-129280533D01*
X121729714Y-129280533D02*
X121682095Y-129423390D01*
X121682095Y-129423390D02*
X121110667Y-129994819D01*
X121110667Y-129994819D02*
X121729714Y-129994819D01*
%TO.C,C1*%
X111593333Y-43539580D02*
X111545714Y-43587200D01*
X111545714Y-43587200D02*
X111402857Y-43634819D01*
X111402857Y-43634819D02*
X111307619Y-43634819D01*
X111307619Y-43634819D02*
X111164762Y-43587200D01*
X111164762Y-43587200D02*
X111069524Y-43491961D01*
X111069524Y-43491961D02*
X111021905Y-43396723D01*
X111021905Y-43396723D02*
X110974286Y-43206247D01*
X110974286Y-43206247D02*
X110974286Y-43063390D01*
X110974286Y-43063390D02*
X111021905Y-42872914D01*
X111021905Y-42872914D02*
X111069524Y-42777676D01*
X111069524Y-42777676D02*
X111164762Y-42682438D01*
X111164762Y-42682438D02*
X111307619Y-42634819D01*
X111307619Y-42634819D02*
X111402857Y-42634819D01*
X111402857Y-42634819D02*
X111545714Y-42682438D01*
X111545714Y-42682438D02*
X111593333Y-42730057D01*
X112545714Y-43634819D02*
X111974286Y-43634819D01*
X112260000Y-43634819D02*
X112260000Y-42634819D01*
X112260000Y-42634819D02*
X112164762Y-42777676D01*
X112164762Y-42777676D02*
X112069524Y-42872914D01*
X112069524Y-42872914D02*
X111974286Y-42920533D01*
D11*
%TO.C,X2*%
X237526000Y-164988000D02*
G75*
G03*
X236776000Y-164238000I-750000J0D01*
G01*
X217376000Y-164238000D02*
G75*
G03*
X216626000Y-164988000I0J-750000D01*
G01*
X236776000Y-177138000D02*
G75*
G03*
X237526000Y-176388000I0J750000D01*
G01*
X216626000Y-177138000D02*
X236776000Y-177138000D01*
X237526000Y-176388000D02*
X237526000Y-164988000D01*
X236776000Y-164238000D02*
X217376000Y-164238000D01*
X216626000Y-164988000D02*
X216626000Y-177138000D01*
%TO.C,X1*%
X87086000Y-175656000D02*
X87086000Y-187806000D01*
X107236000Y-174906000D02*
X87836000Y-174906000D01*
X107986000Y-187056000D02*
X107986000Y-175656000D01*
X87086000Y-187806000D02*
X107236000Y-187806000D01*
X107236000Y-187806000D02*
G75*
G03*
X107986000Y-187056000I0J750000D01*
G01*
X87836000Y-174906000D02*
G75*
G03*
X87086000Y-175656000I0J-750000D01*
G01*
X107986000Y-175656000D02*
G75*
G03*
X107236000Y-174906000I-750000J0D01*
G01*
%TO.C,U16*%
X171052000Y-156150000D02*
X165592000Y-156150000D01*
X155642000Y-156090000D02*
X155642000Y-207130000D01*
X158132000Y-156150000D02*
X158132000Y-207070000D01*
X173542000Y-207130000D02*
X173542000Y-156090000D01*
X171052000Y-207070000D02*
X171052000Y-156150000D01*
X158132000Y-207070000D02*
X171052000Y-207070000D01*
X155642000Y-207130000D02*
X173542000Y-207130000D01*
X173542000Y-156090000D02*
X155642000Y-156090000D01*
X163592000Y-156150000D02*
X158132000Y-156150000D01*
X163592000Y-156150000D02*
G75*
G03*
X165592000Y-156150000I1000000J0D01*
G01*
%TO.C,U15*%
X144636000Y-156150000D02*
X139176000Y-156150000D01*
X129226000Y-156090000D02*
X129226000Y-207130000D01*
X131716000Y-156150000D02*
X131716000Y-207070000D01*
X147126000Y-207130000D02*
X147126000Y-156090000D01*
X144636000Y-207070000D02*
X144636000Y-156150000D01*
X131716000Y-207070000D02*
X144636000Y-207070000D01*
X129226000Y-207130000D02*
X147126000Y-207130000D01*
X147126000Y-156090000D02*
X129226000Y-156090000D01*
X137176000Y-156150000D02*
X131716000Y-156150000D01*
X137176000Y-156150000D02*
G75*
G03*
X139176000Y-156150000I1000000J0D01*
G01*
%TO.C,U14*%
X119650000Y-109663000D02*
G75*
G03*
X121650000Y-109663000I1000000J0D01*
G01*
X123300000Y-127563000D02*
X123300000Y-109663000D01*
X115510000Y-109603000D02*
X115510000Y-127623000D01*
X119650000Y-109663000D02*
X118000000Y-109663000D01*
X118000000Y-127563000D02*
X123300000Y-127563000D01*
X118000000Y-109663000D02*
X118000000Y-127563000D01*
X123300000Y-109663000D02*
X121650000Y-109663000D01*
X115510000Y-127623000D02*
X125790000Y-127623000D01*
X125790000Y-127623000D02*
X125790000Y-109603000D01*
X125790000Y-109603000D02*
X115510000Y-109603000D01*
%TO.C,U13*%
X224436000Y-206298000D02*
X229736000Y-206298000D01*
X232226000Y-185798000D02*
X221946000Y-185798000D01*
X229736000Y-206298000D02*
X229736000Y-185858000D01*
X226086000Y-185858000D02*
X224436000Y-185858000D01*
X229736000Y-185858000D02*
X228086000Y-185858000D01*
X224436000Y-185858000D02*
X224436000Y-206298000D01*
X232226000Y-206358000D02*
X232226000Y-185798000D01*
X221946000Y-185798000D02*
X221946000Y-206358000D01*
X221946000Y-206358000D02*
X232226000Y-206358000D01*
X226086000Y-185858000D02*
G75*
G03*
X228086000Y-185858000I1000000J0D01*
G01*
%TO.C,U12*%
X186122000Y-168521000D02*
X186122000Y-204321000D01*
X204022000Y-168521000D02*
X186122000Y-168521000D01*
X188612000Y-204261000D02*
X201532000Y-204261000D01*
X194072000Y-168581000D02*
X188612000Y-168581000D01*
X201532000Y-204261000D02*
X201532000Y-168581000D01*
X188612000Y-168581000D02*
X188612000Y-204261000D01*
X201532000Y-168581000D02*
X196072000Y-168581000D01*
X204022000Y-204321000D02*
X204022000Y-168521000D01*
X186122000Y-204321000D02*
X204022000Y-204321000D01*
X194072000Y-168581000D02*
G75*
G03*
X196072000Y-168581000I1000000J0D01*
G01*
%TO.C,U11*%
X67834000Y-150054000D02*
G75*
G03*
X69834000Y-150054000I1000000J0D01*
G01*
X66184000Y-160334000D02*
X71484000Y-160334000D01*
X67834000Y-150054000D02*
X66184000Y-150054000D01*
X71484000Y-160334000D02*
X71484000Y-150054000D01*
X66184000Y-150054000D02*
X66184000Y-160334000D01*
X71484000Y-150054000D02*
X69834000Y-150054000D01*
%TO.C,U9*%
X145144000Y-49470000D02*
X139684000Y-49470000D01*
X129734000Y-49410000D02*
X129734000Y-100450000D01*
X132224000Y-49470000D02*
X132224000Y-100390000D01*
X147634000Y-100450000D02*
X147634000Y-49410000D01*
X145144000Y-100390000D02*
X145144000Y-49470000D01*
X132224000Y-100390000D02*
X145144000Y-100390000D01*
X129734000Y-100450000D02*
X147634000Y-100450000D01*
X147634000Y-49410000D02*
X129734000Y-49410000D01*
X137684000Y-49470000D02*
X132224000Y-49470000D01*
X137684000Y-49470000D02*
G75*
G03*
X139684000Y-49470000I1000000J0D01*
G01*
%TO.C,U8*%
X190136000Y-109922000D02*
X190136000Y-150682000D01*
X187646000Y-150742000D02*
X205546000Y-150742000D01*
X205546000Y-109862000D02*
X187646000Y-109862000D01*
X203056000Y-150682000D02*
X203056000Y-109922000D01*
X190136000Y-150682000D02*
X203056000Y-150682000D01*
X195596000Y-109922000D02*
X190136000Y-109922000D01*
X205546000Y-150742000D02*
X205546000Y-109862000D01*
X203056000Y-109922000D02*
X197596000Y-109922000D01*
X187646000Y-109862000D02*
X187646000Y-150742000D01*
X195596000Y-109922000D02*
G75*
G03*
X197596000Y-109922000I1000000J0D01*
G01*
%TO.C,U7*%
X118220000Y-49470000D02*
X112760000Y-49470000D01*
X102810000Y-49410000D02*
X102810000Y-100450000D01*
X105300000Y-49470000D02*
X105300000Y-100390000D01*
X120710000Y-100450000D02*
X120710000Y-49410000D01*
X118220000Y-100390000D02*
X118220000Y-49470000D01*
X105300000Y-100390000D02*
X118220000Y-100390000D01*
X102810000Y-100450000D02*
X120710000Y-100450000D01*
X120710000Y-49410000D02*
X102810000Y-49410000D01*
X110760000Y-49470000D02*
X105300000Y-49470000D01*
X110760000Y-49470000D02*
G75*
G03*
X112760000Y-49470000I1000000J0D01*
G01*
%TO.C,U6*%
X168556000Y-130362000D02*
X173856000Y-130362000D01*
X176346000Y-109862000D02*
X166066000Y-109862000D01*
X173856000Y-130362000D02*
X173856000Y-109922000D01*
X170206000Y-109922000D02*
X168556000Y-109922000D01*
X173856000Y-109922000D02*
X172206000Y-109922000D01*
X168556000Y-109922000D02*
X168556000Y-130362000D01*
X176346000Y-130422000D02*
X176346000Y-109862000D01*
X166066000Y-109862000D02*
X166066000Y-130422000D01*
X166066000Y-130422000D02*
X176346000Y-130422000D01*
X170206000Y-109922000D02*
G75*
G03*
X172206000Y-109922000I1000000J0D01*
G01*
%TO.C,U5*%
X103488000Y-109414000D02*
X98028000Y-109414000D01*
X88078000Y-109354000D02*
X88078000Y-160394000D01*
X90568000Y-109414000D02*
X90568000Y-160334000D01*
X105978000Y-160394000D02*
X105978000Y-109354000D01*
X103488000Y-160334000D02*
X103488000Y-109414000D01*
X90568000Y-160334000D02*
X103488000Y-160334000D01*
X88078000Y-160394000D02*
X105978000Y-160394000D01*
X105978000Y-109354000D02*
X88078000Y-109354000D01*
X96028000Y-109414000D02*
X90568000Y-109414000D01*
X96028000Y-109414000D02*
G75*
G03*
X98028000Y-109414000I1000000J0D01*
G01*
%TO.C,U4*%
X136552000Y-109663000D02*
X136552000Y-140263000D01*
X134062000Y-109603000D02*
X134062000Y-140323000D01*
X144342000Y-109603000D02*
X134062000Y-109603000D01*
X144342000Y-140323000D02*
X144342000Y-109603000D01*
X136552000Y-140263000D02*
X141852000Y-140263000D01*
X134062000Y-140323000D02*
X144342000Y-140323000D01*
X141852000Y-109663000D02*
X140202000Y-109663000D01*
X138202000Y-109663000D02*
X136552000Y-109663000D01*
X141852000Y-140263000D02*
X141852000Y-109663000D01*
X138202000Y-109663000D02*
G75*
G03*
X140202000Y-109663000I1000000J0D01*
G01*
D12*
%TO.C,U3*%
X214456000Y-102682000D02*
X219056000Y-102682000D01*
D11*
X238626000Y-109882000D02*
X215526000Y-109882000D01*
X215526000Y-160482000D02*
X238626000Y-160482000D01*
D12*
X214456000Y-102682000D02*
X215956000Y-104682000D01*
X219056000Y-99082000D02*
X214456000Y-99082000D01*
X219056000Y-102682000D02*
X219056000Y-99082000D01*
X214456000Y-99082000D02*
X215756000Y-97682000D01*
X215956000Y-104682000D02*
X217556000Y-104682000D01*
X217556000Y-104682000D02*
X217556000Y-109982000D01*
D11*
X217806000Y-109882000D02*
X217806000Y-112142000D01*
X215526000Y-116642000D02*
X215526000Y-160482000D01*
X238626000Y-160482000D02*
X238626000Y-109882000D01*
D12*
X214456000Y-99082000D02*
X214456000Y-102682000D01*
X217756000Y-97682000D02*
X219056000Y-99082000D01*
D11*
X215526000Y-109882000D02*
X215526000Y-111742000D01*
D12*
X215756000Y-97682000D02*
X217756000Y-97682000D01*
X219056000Y-102682000D02*
X217556000Y-104682000D01*
X215956000Y-109882000D02*
X215956000Y-104682000D01*
D11*
X218806000Y-114192000D02*
G75*
G03*
X218806000Y-114192000I-2550000J0D01*
G01*
X217156000Y-114192000D02*
G75*
G03*
X217156000Y-114192000I-900000J0D01*
G01*
%TO.C,U2*%
X154068000Y-109663000D02*
X154068000Y-140263000D01*
X151578000Y-109603000D02*
X151578000Y-140323000D01*
X161858000Y-109603000D02*
X151578000Y-109603000D01*
X161858000Y-140323000D02*
X161858000Y-109603000D01*
X154068000Y-140263000D02*
X159368000Y-140263000D01*
X151578000Y-140323000D02*
X161858000Y-140323000D01*
X159368000Y-109663000D02*
X157718000Y-109663000D01*
X155718000Y-109663000D02*
X154068000Y-109663000D01*
X159368000Y-140263000D02*
X159368000Y-109663000D01*
X155718000Y-109663000D02*
G75*
G03*
X157718000Y-109663000I1000000J0D01*
G01*
%TO.C,U1*%
X119650000Y-135830000D02*
G75*
G03*
X121650000Y-135830000I1000000J0D01*
G01*
X123300000Y-153730000D02*
X123300000Y-135830000D01*
X115510000Y-135770000D02*
X115510000Y-153790000D01*
X119650000Y-135830000D02*
X118000000Y-135830000D01*
X118000000Y-153730000D02*
X123300000Y-153730000D01*
X118000000Y-135830000D02*
X118000000Y-153730000D01*
X123300000Y-135830000D02*
X121650000Y-135830000D01*
X115510000Y-153790000D02*
X125790000Y-153790000D01*
X125790000Y-153790000D02*
X125790000Y-135770000D01*
X125790000Y-135770000D02*
X115510000Y-135770000D01*
%TO.C,SW3*%
X60432000Y-105352000D02*
X60432000Y-95912000D01*
X60432000Y-105352000D02*
X50392000Y-105352000D01*
X60432000Y-95912000D02*
X50392000Y-95912000D01*
X57012000Y-102232000D02*
X53712000Y-102232000D01*
X57012000Y-98932000D02*
X57012000Y-102232000D01*
X57012000Y-98932000D02*
X53712000Y-98932000D01*
X53712000Y-98932000D02*
X53712000Y-102232000D01*
X51142000Y-95662000D02*
X50142000Y-95662000D01*
X50392000Y-105352000D02*
X50392000Y-95912000D01*
X50142000Y-96662000D02*
X50142000Y-95662000D01*
%TO.C,SW2*%
X52178000Y-113042000D02*
X52178000Y-114542000D01*
X59178000Y-114542000D02*
X59178000Y-113042000D01*
X53428000Y-117042000D02*
X57928000Y-117042000D01*
X57928000Y-110542000D02*
X53428000Y-110542000D01*
%TO.C,SW1*%
X52178000Y-127048000D02*
X52178000Y-128548000D01*
X59178000Y-128548000D02*
X59178000Y-127048000D01*
X53428000Y-131048000D02*
X57928000Y-131048000D01*
X57928000Y-124548000D02*
X53428000Y-124548000D01*
%TO.C,RV1*%
X149532000Y-37279000D02*
X159302000Y-37279000D01*
X149532000Y-37279000D02*
X149532000Y-47049000D01*
X149532000Y-47049000D02*
X159302000Y-47049000D01*
X159302000Y-37279000D02*
X159302000Y-47049000D01*
%TO.C,R24*%
X79470000Y-170334000D02*
X72930000Y-170334000D01*
X72930000Y-173074000D02*
X79470000Y-173074000D01*
X79470000Y-173074000D02*
X79470000Y-170334000D01*
X72930000Y-170334000D02*
X72930000Y-173074000D01*
X72160000Y-171704000D02*
X72930000Y-171704000D01*
X80240000Y-171704000D02*
X79470000Y-171704000D01*
%TO.C,R23*%
X79470000Y-184558000D02*
X72930000Y-184558000D01*
X72930000Y-187298000D02*
X79470000Y-187298000D01*
X79470000Y-187298000D02*
X79470000Y-184558000D01*
X72930000Y-184558000D02*
X72930000Y-187298000D01*
X72160000Y-185928000D02*
X72930000Y-185928000D01*
X80240000Y-185928000D02*
X79470000Y-185928000D01*
%TO.C,R22*%
X80240000Y-176276000D02*
X79470000Y-176276000D01*
X72160000Y-176276000D02*
X72930000Y-176276000D01*
X72930000Y-174906000D02*
X72930000Y-177646000D01*
X79470000Y-177646000D02*
X79470000Y-174906000D01*
X72930000Y-177646000D02*
X79470000Y-177646000D01*
X79470000Y-174906000D02*
X72930000Y-174906000D01*
%TO.C,R21*%
X79470000Y-179478000D02*
X72930000Y-179478000D01*
X72930000Y-182218000D02*
X79470000Y-182218000D01*
X79470000Y-182218000D02*
X79470000Y-179478000D01*
X72930000Y-179478000D02*
X72930000Y-182218000D01*
X72160000Y-180848000D02*
X72930000Y-180848000D01*
X80240000Y-180848000D02*
X79470000Y-180848000D01*
%TO.C,R20*%
X115602000Y-172566000D02*
X122142000Y-172566000D01*
X122142000Y-169826000D02*
X115602000Y-169826000D01*
X115602000Y-169826000D02*
X115602000Y-172566000D01*
X122142000Y-172566000D02*
X122142000Y-169826000D01*
X122912000Y-171196000D02*
X122142000Y-171196000D01*
X114832000Y-171196000D02*
X115602000Y-171196000D01*
%TO.C,R19*%
X122912000Y-180340000D02*
X122142000Y-180340000D01*
X114832000Y-180340000D02*
X115602000Y-180340000D01*
X115602000Y-178970000D02*
X115602000Y-181710000D01*
X122142000Y-181710000D02*
X122142000Y-178970000D01*
X115602000Y-181710000D02*
X122142000Y-181710000D01*
X122142000Y-178970000D02*
X115602000Y-178970000D01*
%TO.C,R18*%
X55396000Y-176784000D02*
X56166000Y-176784000D01*
X63476000Y-176784000D02*
X62706000Y-176784000D01*
X62706000Y-178154000D02*
X62706000Y-175414000D01*
X56166000Y-175414000D02*
X56166000Y-178154000D01*
X62706000Y-175414000D02*
X56166000Y-175414000D01*
X56166000Y-178154000D02*
X62706000Y-178154000D01*
%TO.C,R17*%
X56166000Y-187806000D02*
X62706000Y-187806000D01*
X62706000Y-185066000D02*
X56166000Y-185066000D01*
X56166000Y-185066000D02*
X56166000Y-187806000D01*
X62706000Y-187806000D02*
X62706000Y-185066000D01*
X63476000Y-186436000D02*
X62706000Y-186436000D01*
X55396000Y-186436000D02*
X56166000Y-186436000D01*
%TO.C,R16*%
X55396000Y-181356000D02*
X56166000Y-181356000D01*
X63476000Y-181356000D02*
X62706000Y-181356000D01*
X62706000Y-182726000D02*
X62706000Y-179986000D01*
X56166000Y-179986000D02*
X56166000Y-182726000D01*
X62706000Y-179986000D02*
X56166000Y-179986000D01*
X56166000Y-182726000D02*
X62706000Y-182726000D01*
%TO.C,R15*%
X63476000Y-171704000D02*
X62706000Y-171704000D01*
X55396000Y-171704000D02*
X56166000Y-171704000D01*
X56166000Y-170334000D02*
X56166000Y-173074000D01*
X62706000Y-173074000D02*
X62706000Y-170334000D01*
X56166000Y-173074000D02*
X62706000Y-173074000D01*
X62706000Y-170334000D02*
X56166000Y-170334000D01*
%TO.C,R14*%
X114832000Y-175768000D02*
X115602000Y-175768000D01*
X122912000Y-175768000D02*
X122142000Y-175768000D01*
X122142000Y-177138000D02*
X122142000Y-174398000D01*
X115602000Y-174398000D02*
X115602000Y-177138000D01*
X122142000Y-174398000D02*
X115602000Y-174398000D01*
X115602000Y-177138000D02*
X122142000Y-177138000D01*
%TO.C,R13*%
X122912000Y-166624000D02*
X122142000Y-166624000D01*
X114832000Y-166624000D02*
X115602000Y-166624000D01*
X115602000Y-165254000D02*
X115602000Y-167994000D01*
X122142000Y-167994000D02*
X122142000Y-165254000D01*
X115602000Y-167994000D02*
X122142000Y-167994000D01*
X122142000Y-165254000D02*
X115602000Y-165254000D01*
%TO.C,R12*%
X57404000Y-150392000D02*
X57404000Y-151162000D01*
X57404000Y-158472000D02*
X57404000Y-157702000D01*
X56034000Y-157702000D02*
X58774000Y-157702000D01*
X58774000Y-151162000D02*
X56034000Y-151162000D01*
X58774000Y-157702000D02*
X58774000Y-151162000D01*
X56034000Y-151162000D02*
X56034000Y-157702000D01*
%TO.C,R11*%
X78764000Y-99060000D02*
X79534000Y-99060000D01*
X86844000Y-99060000D02*
X86074000Y-99060000D01*
X86074000Y-100430000D02*
X86074000Y-97690000D01*
X79534000Y-97690000D02*
X79534000Y-100430000D01*
X86074000Y-97690000D02*
X79534000Y-97690000D01*
X79534000Y-100430000D02*
X86074000Y-100430000D01*
%TO.C,R10*%
X34568000Y-57404000D02*
X35338000Y-57404000D01*
X42648000Y-57404000D02*
X41878000Y-57404000D01*
X41878000Y-58774000D02*
X41878000Y-56034000D01*
X35338000Y-56034000D02*
X35338000Y-58774000D01*
X41878000Y-56034000D02*
X35338000Y-56034000D01*
X35338000Y-58774000D02*
X41878000Y-58774000D01*
%TO.C,R9*%
X71652000Y-132080000D02*
X72422000Y-132080000D01*
X79732000Y-132080000D02*
X78962000Y-132080000D01*
X78962000Y-133450000D02*
X78962000Y-130710000D01*
X72422000Y-130710000D02*
X72422000Y-133450000D01*
X78962000Y-130710000D02*
X72422000Y-130710000D01*
X72422000Y-133450000D02*
X78962000Y-133450000D01*
%TO.C,R8*%
X79732000Y-136652000D02*
X78962000Y-136652000D01*
X71652000Y-136652000D02*
X72422000Y-136652000D01*
X72422000Y-135282000D02*
X72422000Y-138022000D01*
X78962000Y-138022000D02*
X78962000Y-135282000D01*
X72422000Y-138022000D02*
X78962000Y-138022000D01*
X78962000Y-135282000D02*
X72422000Y-135282000D01*
%TO.C,R7*%
X181356000Y-137184000D02*
X181356000Y-137954000D01*
X181356000Y-145264000D02*
X181356000Y-144494000D01*
X179986000Y-144494000D02*
X182726000Y-144494000D01*
X182726000Y-137954000D02*
X179986000Y-137954000D01*
X182726000Y-144494000D02*
X182726000Y-137954000D01*
X179986000Y-137954000D02*
X179986000Y-144494000D01*
%TO.C,R6*%
X176784000Y-137184000D02*
X176784000Y-137954000D01*
X176784000Y-145264000D02*
X176784000Y-144494000D01*
X175414000Y-144494000D02*
X178154000Y-144494000D01*
X178154000Y-137954000D02*
X175414000Y-137954000D01*
X178154000Y-144494000D02*
X178154000Y-137954000D01*
X175414000Y-137954000D02*
X175414000Y-144494000D01*
%TO.C,R5*%
X170842000Y-137954000D02*
X170842000Y-144494000D01*
X173582000Y-144494000D02*
X173582000Y-137954000D01*
X173582000Y-137954000D02*
X170842000Y-137954000D01*
X170842000Y-144494000D02*
X173582000Y-144494000D01*
X172212000Y-145264000D02*
X172212000Y-144494000D01*
X172212000Y-137184000D02*
X172212000Y-137954000D01*
%TO.C,R4*%
X167640000Y-137184000D02*
X167640000Y-137954000D01*
X167640000Y-145264000D02*
X167640000Y-144494000D01*
X166270000Y-144494000D02*
X169010000Y-144494000D01*
X169010000Y-137954000D02*
X166270000Y-137954000D01*
X169010000Y-144494000D02*
X169010000Y-137954000D01*
X166270000Y-137954000D02*
X166270000Y-144494000D01*
%TO.C,R3*%
X79732000Y-111252000D02*
X78962000Y-111252000D01*
X71652000Y-111252000D02*
X72422000Y-111252000D01*
X72422000Y-109882000D02*
X72422000Y-112622000D01*
X78962000Y-112622000D02*
X78962000Y-109882000D01*
X72422000Y-112622000D02*
X78962000Y-112622000D01*
X78962000Y-109882000D02*
X72422000Y-109882000D01*
%TO.C,R2*%
X78962000Y-114962000D02*
X72422000Y-114962000D01*
X72422000Y-117702000D02*
X78962000Y-117702000D01*
X78962000Y-117702000D02*
X78962000Y-114962000D01*
X72422000Y-114962000D02*
X72422000Y-117702000D01*
X71652000Y-116332000D02*
X72422000Y-116332000D01*
X79732000Y-116332000D02*
X78962000Y-116332000D01*
%TO.C,R1*%
X79732000Y-120904000D02*
X78962000Y-120904000D01*
X71652000Y-120904000D02*
X72422000Y-120904000D01*
X72422000Y-119534000D02*
X72422000Y-122274000D01*
X78962000Y-122274000D02*
X78962000Y-119534000D01*
X72422000Y-122274000D02*
X78962000Y-122274000D01*
X78962000Y-119534000D02*
X72422000Y-119534000D01*
%TO.C,Q1*%
X33996000Y-83527000D02*
X44236000Y-83527000D01*
X37266000Y-83527000D02*
X37266000Y-85037000D01*
X40967000Y-83527000D02*
X40967000Y-85037000D01*
X33996000Y-83527000D02*
X33996000Y-88168000D01*
X33996000Y-88168000D02*
X44236000Y-88168000D01*
X44236000Y-83527000D02*
X44236000Y-88168000D01*
X33996000Y-85037000D02*
X44236000Y-85037000D01*
%TO.C,JP1*%
X100390000Y-171002000D02*
X100390000Y-168342000D01*
X95190000Y-168342000D02*
X96520000Y-168342000D01*
X95190000Y-169672000D02*
X95190000Y-168342000D01*
X97790000Y-171002000D02*
X97790000Y-168342000D01*
X97790000Y-168342000D02*
X100390000Y-168342000D01*
X97790000Y-171002000D02*
X100390000Y-171002000D01*
D13*
%TO.C,J19*%
X27068000Y-177410000D02*
X27068000Y-171410000D01*
X31068000Y-177410000D02*
X27068000Y-177410000D01*
X31068000Y-179310000D02*
X31068000Y-177410000D01*
X45068000Y-179310000D02*
X31068000Y-179310000D01*
X45068000Y-177010000D02*
X45068000Y-179310000D01*
X45068000Y-171210000D02*
X45068000Y-173610000D01*
X31068000Y-171210000D02*
X45068000Y-171210000D01*
X31068000Y-171410000D02*
X31068000Y-171210000D01*
X27068000Y-171410000D02*
X31068000Y-171410000D01*
D14*
X30260600Y-178340200D02*
G75*
G03*
X30260600Y-178340200I-100000J0D01*
G01*
D11*
%TO.C,J18*%
X98806000Y-207966000D02*
X98806000Y-210626000D01*
X80966000Y-207966000D02*
X80966000Y-210626000D01*
X98806000Y-207966000D02*
X80966000Y-207966000D01*
X100076000Y-207966000D02*
X101406000Y-207966000D01*
X98806000Y-210626000D02*
X80966000Y-210626000D01*
X101406000Y-207966000D02*
X101406000Y-209296000D01*
%TO.C,J17*%
X122682000Y-207966000D02*
X122682000Y-210626000D01*
X104842000Y-207966000D02*
X104842000Y-210626000D01*
X122682000Y-207966000D02*
X104842000Y-207966000D01*
X123952000Y-207966000D02*
X125282000Y-207966000D01*
X122682000Y-210626000D02*
X104842000Y-210626000D01*
X125282000Y-207966000D02*
X125282000Y-209296000D01*
%TO.C,J16*%
X123190000Y-198314000D02*
X123190000Y-200974000D01*
X105350000Y-198314000D02*
X105350000Y-200974000D01*
X123190000Y-198314000D02*
X105350000Y-198314000D01*
X124460000Y-198314000D02*
X125790000Y-198314000D01*
X123190000Y-200974000D02*
X105350000Y-200974000D01*
X125790000Y-198314000D02*
X125790000Y-199644000D01*
%TO.C,J15*%
X101406000Y-198314000D02*
X101406000Y-199644000D01*
X98806000Y-200974000D02*
X80966000Y-200974000D01*
X100076000Y-198314000D02*
X101406000Y-198314000D01*
X98806000Y-198314000D02*
X80966000Y-198314000D01*
X80966000Y-198314000D02*
X80966000Y-200974000D01*
X98806000Y-198314000D02*
X98806000Y-200974000D01*
%TO.C,J14*%
X191262000Y-208982000D02*
X201482000Y-208982000D01*
X188662000Y-211642000D02*
X188662000Y-210312000D01*
X191262000Y-211642000D02*
X201482000Y-211642000D01*
X201482000Y-211642000D02*
X201482000Y-208982000D01*
X191262000Y-211642000D02*
X191262000Y-208982000D01*
X189992000Y-211642000D02*
X188662000Y-211642000D01*
%TO.C,J13*%
X48953325Y-159264000D02*
X49386338Y-159014000D01*
X49386338Y-159514000D02*
X48953325Y-159264000D01*
X33952000Y-138239000D02*
X48492000Y-138239000D01*
X49386338Y-159014000D02*
X49386338Y-159514000D01*
X48492000Y-138239000D02*
X48492000Y-169209000D01*
X48492000Y-169209000D02*
X33952000Y-169209000D01*
%TO.C,J12*%
X62230000Y-207966000D02*
X62230000Y-210626000D01*
X44390000Y-207966000D02*
X44390000Y-210626000D01*
X62230000Y-207966000D02*
X44390000Y-207966000D01*
X63500000Y-207966000D02*
X64830000Y-207966000D01*
X62230000Y-210626000D02*
X44390000Y-210626000D01*
X64830000Y-207966000D02*
X64830000Y-209296000D01*
%TO.C,J11*%
X27510000Y-120932000D02*
X40510000Y-120932000D01*
X27510000Y-137132000D02*
X40510000Y-137132000D01*
X27510000Y-137132000D02*
X27510000Y-120932000D01*
X40510000Y-137132000D02*
X40510000Y-120932000D01*
%TO.C,J10*%
X86106000Y-40834000D02*
X88706000Y-40834000D01*
X83506000Y-40834000D02*
X84836000Y-40834000D01*
X83506000Y-43434000D02*
X83506000Y-91754000D01*
X83506000Y-42164000D02*
X83506000Y-40834000D01*
X83506000Y-43434000D02*
X86106000Y-43434000D01*
X83506000Y-91754000D02*
X88706000Y-91754000D01*
X88706000Y-40834000D02*
X88706000Y-91754000D01*
X86106000Y-43434000D02*
X86106000Y-40834000D01*
%TO.C,J9*%
X27604000Y-103884000D02*
X40604000Y-103884000D01*
X27604000Y-120084000D02*
X40604000Y-120084000D01*
X27604000Y-120084000D02*
X27604000Y-103884000D01*
X40604000Y-120084000D02*
X40604000Y-103884000D01*
%TO.C,J8*%
X38862000Y-62678000D02*
X36262000Y-62678000D01*
X38862000Y-65338000D02*
X36262000Y-65338000D01*
X38862000Y-62678000D02*
X38862000Y-65338000D01*
X41462000Y-64008000D02*
X41462000Y-65338000D01*
X41462000Y-65338000D02*
X40132000Y-65338000D01*
X36262000Y-62678000D02*
X36262000Y-65338000D01*
%TO.C,J7*%
X70358000Y-40834000D02*
X72958000Y-40834000D01*
X67758000Y-40834000D02*
X69088000Y-40834000D01*
X67758000Y-43434000D02*
X67758000Y-91754000D01*
X67758000Y-42164000D02*
X67758000Y-40834000D01*
X67758000Y-43434000D02*
X70358000Y-43434000D01*
X67758000Y-91754000D02*
X72958000Y-91754000D01*
X72958000Y-40834000D02*
X72958000Y-91754000D01*
X70358000Y-43434000D02*
X70358000Y-40834000D01*
%TO.C,J6*%
X41102000Y-90762500D02*
X42152000Y-90762500D01*
X42152000Y-91812500D02*
X42152000Y-90762500D01*
X36052000Y-100162500D02*
X27252000Y-100162500D01*
X41952000Y-90962500D02*
X41952000Y-93562500D01*
X41952000Y-97462500D02*
X41952000Y-100162500D01*
X41952000Y-100162500D02*
X40052000Y-100162500D01*
X27252000Y-100162500D02*
X27252000Y-90962500D01*
X27252000Y-90962500D02*
X41952000Y-90962500D01*
%TO.C,J5*%
X56642000Y-201870000D02*
X64322000Y-201870000D01*
X55372000Y-204530000D02*
X54042000Y-204530000D01*
X64322000Y-204530000D02*
X64322000Y-201870000D01*
X56642000Y-204530000D02*
X56642000Y-201870000D01*
X54042000Y-204530000D02*
X54042000Y-203200000D01*
X56642000Y-204530000D02*
X64322000Y-204530000D01*
%TO.C,J4*%
X124146000Y-54371000D02*
X126806000Y-54371000D01*
X124146000Y-72211000D02*
X126806000Y-72211000D01*
X124146000Y-54371000D02*
X124146000Y-72211000D01*
X124146000Y-53101000D02*
X124146000Y-51771000D01*
X126806000Y-54371000D02*
X126806000Y-72211000D01*
X124146000Y-51771000D02*
X125476000Y-51771000D01*
%TO.C,J3*%
X118379000Y-41462000D02*
X118379000Y-38802000D01*
X136219000Y-41462000D02*
X136219000Y-38802000D01*
X118379000Y-41462000D02*
X136219000Y-41462000D01*
X117109000Y-41462000D02*
X115779000Y-41462000D01*
X118379000Y-38802000D02*
X136219000Y-38802000D01*
X115779000Y-41462000D02*
X115779000Y-40132000D01*
%TO.C,J2*%
X54610000Y-40834000D02*
X57210000Y-40834000D01*
X52010000Y-40834000D02*
X53340000Y-40834000D01*
X52010000Y-43434000D02*
X52010000Y-91754000D01*
X52010000Y-42164000D02*
X52010000Y-40834000D01*
X52010000Y-43434000D02*
X54610000Y-43434000D01*
X52010000Y-91754000D02*
X57210000Y-91754000D01*
X57210000Y-40834000D02*
X57210000Y-91754000D01*
X54610000Y-43434000D02*
X54610000Y-40834000D01*
%TO.C,J1*%
X124146000Y-77978000D02*
X126806000Y-77978000D01*
X124146000Y-95818000D02*
X126806000Y-95818000D01*
X124146000Y-77978000D02*
X124146000Y-95818000D01*
X124146000Y-76708000D02*
X124146000Y-75378000D01*
X126806000Y-77978000D02*
X126806000Y-95818000D01*
X124146000Y-75378000D02*
X125476000Y-75378000D01*
%TO.C,D2*%
X67798000Y-97515000D02*
X67798000Y-100605000D01*
X73347999Y-99060462D02*
G75*
G03*
X67798001Y-97515170I-2989999J462D01*
G01*
X67798000Y-100604830D02*
G75*
G03*
X73348000Y-99059538I2560000J1544830D01*
G01*
X72858000Y-99060000D02*
G75*
G03*
X72858000Y-99060000I-2500000J0D01*
G01*
%TO.C,D1*%
X35794000Y-49255000D02*
X35794000Y-52345000D01*
X41343999Y-50800462D02*
G75*
G03*
X35794001Y-49255170I-2989999J462D01*
G01*
X35794000Y-52344830D02*
G75*
G03*
X41344000Y-50799538I2560000J1544830D01*
G01*
X40854000Y-50800000D02*
G75*
G03*
X40854000Y-50800000I-2500000J0D01*
G01*
%TO.C,C28*%
X62106000Y-193745000D02*
X62106000Y-193079000D01*
X56766000Y-193745000D02*
X56766000Y-193079000D01*
X56766000Y-190969000D02*
X56766000Y-190303000D01*
X62106000Y-193745000D02*
X56766000Y-193745000D01*
X62106000Y-190969000D02*
X62106000Y-190303000D01*
X62106000Y-190303000D02*
X56766000Y-190303000D01*
%TO.C,C27*%
X36672000Y-186944000D02*
G75*
G03*
X36672000Y-186944000I-2620000J0D01*
G01*
%TO.C,C26*%
X197742000Y-166821000D02*
X197742000Y-166155000D01*
X192402000Y-166821000D02*
X192402000Y-166155000D01*
X192402000Y-164045000D02*
X192402000Y-163379000D01*
X197742000Y-166821000D02*
X192402000Y-166821000D01*
X197742000Y-164045000D02*
X197742000Y-163379000D01*
X197742000Y-163379000D02*
X192402000Y-163379000D01*
%TO.C,C25*%
X167262000Y-150679000D02*
X161922000Y-150679000D01*
X167262000Y-151345000D02*
X167262000Y-150679000D01*
X167262000Y-154121000D02*
X161922000Y-154121000D01*
X161922000Y-151345000D02*
X161922000Y-150679000D01*
X161922000Y-154121000D02*
X161922000Y-153455000D01*
X167262000Y-154121000D02*
X167262000Y-153455000D01*
%TO.C,C24*%
X229746000Y-184093000D02*
X229746000Y-183427000D01*
X224406000Y-184093000D02*
X224406000Y-183427000D01*
X224406000Y-181317000D02*
X224406000Y-180651000D01*
X229746000Y-184093000D02*
X224406000Y-184093000D01*
X229746000Y-181317000D02*
X229746000Y-180651000D01*
X229746000Y-180651000D02*
X224406000Y-180651000D01*
%TO.C,C23*%
X73570000Y-189795000D02*
X73570000Y-190461000D01*
X78910000Y-189795000D02*
X78910000Y-190461000D01*
X78910000Y-192571000D02*
X78910000Y-193237000D01*
X73570000Y-189795000D02*
X78910000Y-189795000D01*
X73570000Y-192571000D02*
X73570000Y-193237000D01*
X73570000Y-193237000D02*
X78910000Y-193237000D01*
%TO.C,C22*%
X45784000Y-186944000D02*
G75*
G03*
X45784000Y-186944000I-2620000J0D01*
G01*
%TO.C,C21*%
X217520000Y-206756000D02*
G75*
G03*
X217520000Y-206756000I-2620000J0D01*
G01*
%TO.C,C20*%
X217504000Y-183896000D02*
G75*
G03*
X217504000Y-183896000I-2620000J0D01*
G01*
%TO.C,C19*%
X217520000Y-199136000D02*
G75*
G03*
X217520000Y-199136000I-2620000J0D01*
G01*
%TO.C,C18*%
X217520000Y-191516000D02*
G75*
G03*
X217520000Y-191516000I-2620000J0D01*
G01*
%TO.C,C17*%
X140846000Y-154121000D02*
X140846000Y-153455000D01*
X135506000Y-154121000D02*
X135506000Y-153455000D01*
X135506000Y-151345000D02*
X135506000Y-150679000D01*
X140846000Y-154121000D02*
X135506000Y-154121000D01*
X140846000Y-151345000D02*
X140846000Y-150679000D01*
X140846000Y-150679000D02*
X135506000Y-150679000D01*
%TO.C,C16*%
X66662000Y-144583000D02*
X66662000Y-145249000D01*
X72002000Y-144583000D02*
X72002000Y-145249000D01*
X72002000Y-147359000D02*
X72002000Y-148025000D01*
X66662000Y-144583000D02*
X72002000Y-144583000D01*
X66662000Y-147359000D02*
X66662000Y-148025000D01*
X66662000Y-148025000D02*
X72002000Y-148025000D01*
%TO.C,C15*%
X59532000Y-142748000D02*
G75*
G03*
X59532000Y-142748000I-2620000J0D01*
G01*
%TO.C,C14*%
X162938000Y-39427000D02*
X162938000Y-40093000D01*
X168278000Y-39427000D02*
X168278000Y-40093000D01*
X168278000Y-42203000D02*
X168278000Y-42869000D01*
X162938000Y-39427000D02*
X168278000Y-39427000D01*
X162938000Y-42203000D02*
X162938000Y-42869000D01*
X162938000Y-42869000D02*
X168278000Y-42869000D01*
%TO.C,C13*%
X75562000Y-157283000D02*
X75562000Y-157949000D01*
X80902000Y-157283000D02*
X80902000Y-157949000D01*
X80902000Y-160059000D02*
X80902000Y-160725000D01*
X75562000Y-157283000D02*
X80902000Y-157283000D01*
X75562000Y-160059000D02*
X75562000Y-160725000D01*
X75562000Y-160725000D02*
X80902000Y-160725000D01*
%TO.C,C12*%
X43728000Y-74168000D02*
G75*
G03*
X43728000Y-74168000I-5120000J0D01*
G01*
%TO.C,C11*%
X173866000Y-104451000D02*
X168526000Y-104451000D01*
X173866000Y-105117000D02*
X173866000Y-104451000D01*
X173866000Y-107893000D02*
X168526000Y-107893000D01*
X168526000Y-105117000D02*
X168526000Y-104451000D01*
X168526000Y-107893000D02*
X168526000Y-107227000D01*
X173866000Y-107893000D02*
X173866000Y-107227000D01*
%TO.C,C10*%
X123534000Y-104451000D02*
X118194000Y-104451000D01*
X123534000Y-105117000D02*
X123534000Y-104451000D01*
X123534000Y-107893000D02*
X118194000Y-107893000D01*
X118194000Y-105117000D02*
X118194000Y-104451000D01*
X118194000Y-107893000D02*
X118194000Y-107227000D01*
X123534000Y-107893000D02*
X123534000Y-107227000D01*
%TO.C,C9*%
X94358000Y-107385000D02*
X99698000Y-107385000D01*
X94358000Y-106719000D02*
X94358000Y-107385000D01*
X94358000Y-103943000D02*
X99698000Y-103943000D01*
X99698000Y-106719000D02*
X99698000Y-107385000D01*
X99698000Y-103943000D02*
X99698000Y-104609000D01*
X94358000Y-103943000D02*
X94358000Y-104609000D01*
%TO.C,C8*%
X141394000Y-43999000D02*
X136054000Y-43999000D01*
X141394000Y-44665000D02*
X141394000Y-43999000D01*
X141394000Y-47441000D02*
X136054000Y-47441000D01*
X136054000Y-44665000D02*
X136054000Y-43999000D01*
X136054000Y-47441000D02*
X136054000Y-46775000D01*
X141394000Y-47441000D02*
X141394000Y-46775000D01*
%TO.C,C7*%
X73022000Y-128213000D02*
X78362000Y-128213000D01*
X73022000Y-127547000D02*
X73022000Y-128213000D01*
X73022000Y-124771000D02*
X78362000Y-124771000D01*
X78362000Y-127547000D02*
X78362000Y-128213000D01*
X78362000Y-124771000D02*
X78362000Y-125437000D01*
X73022000Y-124771000D02*
X73022000Y-125437000D01*
%TO.C,C6*%
X224446000Y-107893000D02*
X229786000Y-107893000D01*
X224446000Y-107227000D02*
X224446000Y-107893000D01*
X224446000Y-104451000D02*
X229786000Y-104451000D01*
X229786000Y-107227000D02*
X229786000Y-107893000D01*
X229786000Y-104451000D02*
X229786000Y-105117000D01*
X224446000Y-104451000D02*
X224446000Y-105117000D01*
%TO.C,C5*%
X199226000Y-104451000D02*
X193886000Y-104451000D01*
X199226000Y-105117000D02*
X199226000Y-104451000D01*
X199226000Y-107893000D02*
X193886000Y-107893000D01*
X193886000Y-105117000D02*
X193886000Y-104451000D01*
X193886000Y-107893000D02*
X193886000Y-107227000D01*
X199226000Y-107893000D02*
X199226000Y-107227000D01*
%TO.C,C4*%
X159682000Y-104451000D02*
X154342000Y-104451000D01*
X159682000Y-105117000D02*
X159682000Y-104451000D01*
X159682000Y-107893000D02*
X154342000Y-107893000D01*
X154342000Y-105117000D02*
X154342000Y-104451000D01*
X154342000Y-107893000D02*
X154342000Y-107227000D01*
X159682000Y-107893000D02*
X159682000Y-107227000D01*
%TO.C,C3*%
X141902000Y-104451000D02*
X136562000Y-104451000D01*
X141902000Y-105117000D02*
X141902000Y-104451000D01*
X141902000Y-107893000D02*
X136562000Y-107893000D01*
X136562000Y-105117000D02*
X136562000Y-104451000D01*
X136562000Y-107893000D02*
X136562000Y-107227000D01*
X141902000Y-107893000D02*
X141902000Y-107227000D01*
%TO.C,C2*%
X123614000Y-133801000D02*
X123614000Y-133135000D01*
X118274000Y-133801000D02*
X118274000Y-133135000D01*
X118274000Y-131025000D02*
X118274000Y-130359000D01*
X123614000Y-133801000D02*
X118274000Y-133801000D01*
X123614000Y-131025000D02*
X123614000Y-130359000D01*
X123614000Y-130359000D02*
X118274000Y-130359000D01*
%TO.C,C1*%
X114430000Y-43999000D02*
X109090000Y-43999000D01*
X114430000Y-44665000D02*
X114430000Y-43999000D01*
X114430000Y-47441000D02*
X109090000Y-47441000D01*
X109090000Y-44665000D02*
X109090000Y-43999000D01*
X109090000Y-47441000D02*
X109090000Y-46775000D01*
X114430000Y-47441000D02*
X114430000Y-46775000D01*
%TD*%
D15*
%TO.C,U10*%
X171174440Y-49207420D03*
X173714440Y-49207420D03*
X176254440Y-49207420D03*
X178794440Y-49207420D03*
X181334440Y-49207420D03*
X183874440Y-49207420D03*
X186414440Y-49207420D03*
X188954440Y-49207420D03*
X191494440Y-49207420D03*
X194034440Y-49207420D03*
X196574440Y-49207420D03*
X199114440Y-49207420D03*
X201654440Y-49207420D03*
X204194440Y-49207420D03*
X206734440Y-49207420D03*
X209274440Y-49207420D03*
%TD*%
M02*
