%TF.GenerationSoftware,KiCad,Pcbnew,7.0.5*%
%TF.CreationDate,2023-07-25T18:53:57-05:00*%
%TF.ProjectId,6502v2.0,36353032-7632-42e3-902e-6b696361645f,rev?*%
%TF.SameCoordinates,Original*%
%TF.FileFunction,Copper,L1,Top*%
%TF.FilePolarity,Positive*%
%FSLAX46Y46*%
G04 Gerber Fmt 4.6, Leading zero omitted, Abs format (unit mm)*
G04 Created by KiCad (PCBNEW 7.0.5) date 2023-07-25 18:53:57*
%MOMM*%
%LPD*%
G01*
G04 APERTURE LIST*
G04 Aperture macros list*
%AMRoundRect*
0 Rectangle with rounded corners*
0 $1 Rounding radius*
0 $2 $3 $4 $5 $6 $7 $8 $9 X,Y pos of 4 corners*
0 Add a 4 corners polygon primitive as box body*
4,1,4,$2,$3,$4,$5,$6,$7,$8,$9,$2,$3,0*
0 Add four circle primitives for the rounded corners*
1,1,$1+$1,$2,$3*
1,1,$1+$1,$4,$5*
1,1,$1+$1,$6,$7*
1,1,$1+$1,$8,$9*
0 Add four rect primitives between the rounded corners*
20,1,$1+$1,$2,$3,$4,$5,0*
20,1,$1+$1,$4,$5,$6,$7,0*
20,1,$1+$1,$6,$7,$8,$9,0*
20,1,$1+$1,$8,$9,$2,$3,0*%
G04 Aperture macros list end*
%TA.AperFunction,ComponentPad*%
%ADD10C,5.000000*%
%TD*%
%TA.AperFunction,ComponentPad*%
%ADD11C,1.600000*%
%TD*%
%TA.AperFunction,ComponentPad*%
%ADD12R,1.600000X1.600000*%
%TD*%
%TA.AperFunction,ComponentPad*%
%ADD13O,1.600000X1.600000*%
%TD*%
%TA.AperFunction,ComponentPad*%
%ADD14O,1.501140X4.000500*%
%TD*%
%TA.AperFunction,ComponentPad*%
%ADD15R,2.000000X1.440000*%
%TD*%
%TA.AperFunction,ComponentPad*%
%ADD16O,2.000000X1.440000*%
%TD*%
%TA.AperFunction,ComponentPad*%
%ADD17C,1.800000*%
%TD*%
%TA.AperFunction,ComponentPad*%
%ADD18R,1.800000X1.800000*%
%TD*%
%TA.AperFunction,ComponentPad*%
%ADD19C,2.000000*%
%TD*%
%TA.AperFunction,ComponentPad*%
%ADD20C,1.440000*%
%TD*%
%TA.AperFunction,ComponentPad*%
%ADD21R,1.905000X2.000000*%
%TD*%
%TA.AperFunction,ComponentPad*%
%ADD22O,1.905000X2.000000*%
%TD*%
%TA.AperFunction,ComponentPad*%
%ADD23O,1.700000X1.700000*%
%TD*%
%TA.AperFunction,ComponentPad*%
%ADD24R,1.700000X1.700000*%
%TD*%
%TA.AperFunction,ComponentPad*%
%ADD25C,3.000000*%
%TD*%
%TA.AperFunction,ComponentPad*%
%ADD26C,2.500000*%
%TD*%
%TA.AperFunction,ComponentPad*%
%ADD27C,2.700000*%
%TD*%
%TA.AperFunction,ComponentPad*%
%ADD28C,4.000000*%
%TD*%
%TA.AperFunction,ComponentPad*%
%ADD29O,3.500000X2.000000*%
%TD*%
%TA.AperFunction,ComponentPad*%
%ADD30O,2.000000X4.000000*%
%TD*%
%TA.AperFunction,ComponentPad*%
%ADD31RoundRect,0.875000X-0.875000X-0.875000X0.875000X-0.875000X0.875000X0.875000X-0.875000X0.875000X0*%
%TD*%
%TA.AperFunction,ComponentPad*%
%ADD32RoundRect,0.750000X-0.750000X-1.000000X0.750000X-1.000000X0.750000X1.000000X-0.750000X1.000000X0*%
%TD*%
%TA.AperFunction,ComponentPad*%
%ADD33R,3.500000X3.500000*%
%TD*%
%TA.AperFunction,ViaPad*%
%ADD34C,0.800000*%
%TD*%
%TA.AperFunction,Conductor*%
%ADD35C,0.250000*%
%TD*%
G04 APERTURE END LIST*
D10*
%TO.P,REF4,4*%
%TO.N,N/C*%
X238760000Y-209296000D03*
%TD*%
%TO.P,REF3,3*%
%TO.N,N/C*%
X30988000Y-209296000D03*
%TD*%
%TO.P,REF2,2*%
%TO.N,N/C*%
X238760000Y-39624000D03*
%TD*%
%TO.P,REF1,1*%
%TO.N,N/C*%
X30988000Y-39624000D03*
%TD*%
D11*
%TO.P,X2,14,Vcc*%
%TO.N,+5V*%
X219456000Y-166878000D03*
%TO.P,X2,8,OUT*%
%TO.N,CLK_1.8432*%
X234696000Y-166878000D03*
%TO.P,X2,7,GND*%
%TO.N,GND*%
X234696000Y-174498000D03*
D12*
%TO.P,X2,1,NC*%
%TO.N,unconnected-(X2-NC-Pad1)*%
X219456000Y-174498000D03*
%TD*%
%TO.P,X1,1,NC*%
%TO.N,unconnected-(X1-NC-Pad1)*%
X89916000Y-185166000D03*
D11*
%TO.P,X1,7,GND*%
%TO.N,GND*%
X105156000Y-185166000D03*
%TO.P,X1,8,OUT*%
%TO.N,Net-(JP1-B)*%
X105156000Y-177546000D03*
%TO.P,X1,14,Vcc*%
%TO.N,+5V*%
X89916000Y-177546000D03*
%TD*%
D12*
%TO.P,U16,1,Vss*%
%TO.N,GND*%
X156972000Y-157480000D03*
D13*
%TO.P,U16,2,N/C*%
%TO.N,unconnected-(U16-N{slash}C-Pad2)*%
X156972000Y-160020000D03*
%TO.P,U16,3,ch_B*%
%TO.N,Net-(U16-ch_B)*%
X156972000Y-162560000D03*
%TO.P,U16,4,ch_A*%
%TO.N,Net-(U16-ch_A)*%
X156972000Y-165100000D03*
%TO.P,U16,5,N/C*%
%TO.N,unconnected-(U16-N{slash}C-Pad5)*%
X156972000Y-167640000D03*
%TO.P,U16,6,IOB7*%
%TO.N,PSG2IOB7*%
X156972000Y-170180000D03*
%TO.P,U16,7,IOB6*%
%TO.N,PSG2IOB6*%
X156972000Y-172720000D03*
%TO.P,U16,8,IOB5*%
%TO.N,PSG2IOB5*%
X156972000Y-175260000D03*
%TO.P,U16,9,IOB4*%
%TO.N,PSG2IOB4*%
X156972000Y-177800000D03*
%TO.P,U16,10,IOB3*%
%TO.N,PSG2IOB3*%
X156972000Y-180340000D03*
%TO.P,U16,11,IOB2*%
%TO.N,PSG2IOB2*%
X156972000Y-182880000D03*
%TO.P,U16,12,IOB1*%
%TO.N,PSG2IOB1*%
X156972000Y-185420000D03*
%TO.P,U16,13,IOB0*%
%TO.N,PSG2IOB0*%
X156972000Y-187960000D03*
%TO.P,U16,14,IOA7*%
%TO.N,PSG2IOA7*%
X156972000Y-190500000D03*
%TO.P,U16,15,IOA6*%
%TO.N,PSG2IOA6*%
X156972000Y-193040000D03*
%TO.P,U16,16,IOA5*%
%TO.N,PSG2IOA5*%
X156972000Y-195580000D03*
%TO.P,U16,17,IOA4*%
%TO.N,PSG2IOA4*%
X156972000Y-198120000D03*
%TO.P,U16,18,IOA3*%
%TO.N,PSG2IOA3*%
X156972000Y-200660000D03*
%TO.P,U16,19,IOA2*%
%TO.N,PSG2IOA2*%
X156972000Y-203200000D03*
%TO.P,U16,20,IOA1*%
%TO.N,PSG2IOA1*%
X156972000Y-205740000D03*
%TO.P,U16,21,IOA0*%
%TO.N,PSG2IOA0*%
X172212000Y-205740000D03*
%TO.P,U16,22,CLOCK*%
%TO.N,CLK_1.8432*%
X172212000Y-203200000D03*
%TO.P,U16,23,~{RESET}*%
%TO.N,RESET*%
X172212000Y-200660000D03*
%TO.P,U16,24,~{A9}*%
%TO.N,Net-(U16-~{A9})*%
X172212000Y-198120000D03*
%TO.P,U16,25,A8*%
%TO.N,Net-(U16-A8)*%
X172212000Y-195580000D03*
%TO.P,U16,26,TEST2*%
%TO.N,unconnected-(U16-TEST2-Pad26)*%
X172212000Y-193040000D03*
%TO.P,U16,27,BDIR*%
%TO.N,Net-(U16-BDIR)*%
X172212000Y-190500000D03*
%TO.P,U16,28,BC2*%
%TO.N,+5V*%
X172212000Y-187960000D03*
%TO.P,U16,29,BC1*%
%TO.N,Net-(U16-BC1)*%
X172212000Y-185420000D03*
%TO.P,U16,30,D7*%
%TO.N,d7*%
X172212000Y-182880000D03*
%TO.P,U16,31,D6*%
%TO.N,d6*%
X172212000Y-180340000D03*
%TO.P,U16,32,D5*%
%TO.N,d5*%
X172212000Y-177800000D03*
%TO.P,U16,33,D4*%
%TO.N,d4*%
X172212000Y-175260000D03*
%TO.P,U16,34,D3*%
%TO.N,d3*%
X172212000Y-172720000D03*
%TO.P,U16,35,D2*%
%TO.N,d2*%
X172212000Y-170180000D03*
%TO.P,U16,36,D1*%
%TO.N,d1*%
X172212000Y-167640000D03*
%TO.P,U16,37,D0*%
%TO.N,d0*%
X172212000Y-165100000D03*
%TO.P,U16,38,ch_C*%
%TO.N,Net-(U16-ch_C)*%
X172212000Y-162560000D03*
%TO.P,U16,39,TEST1*%
%TO.N,unconnected-(U16-TEST1-Pad39)*%
X172212000Y-160020000D03*
%TO.P,U16,40,Vcc*%
%TO.N,+5V*%
X172212000Y-157480000D03*
%TD*%
D12*
%TO.P,U15,1,Vss*%
%TO.N,GND*%
X130556000Y-157480000D03*
D13*
%TO.P,U15,2,N/C*%
%TO.N,unconnected-(U15-N{slash}C-Pad2)*%
X130556000Y-160020000D03*
%TO.P,U15,3,ch_B*%
%TO.N,Net-(U15-ch_B)*%
X130556000Y-162560000D03*
%TO.P,U15,4,ch_A*%
%TO.N,Net-(U15-ch_A)*%
X130556000Y-165100000D03*
%TO.P,U15,5,N/C*%
%TO.N,unconnected-(U15-N{slash}C-Pad5)*%
X130556000Y-167640000D03*
%TO.P,U15,6,IOB7*%
%TO.N,PSG1IOB7*%
X130556000Y-170180000D03*
%TO.P,U15,7,IOB6*%
%TO.N,PSG1IOB6*%
X130556000Y-172720000D03*
%TO.P,U15,8,IOB5*%
%TO.N,PSG1IOB5*%
X130556000Y-175260000D03*
%TO.P,U15,9,IOB4*%
%TO.N,PSG1IOB4*%
X130556000Y-177800000D03*
%TO.P,U15,10,IOB3*%
%TO.N,PSG1IOB3*%
X130556000Y-180340000D03*
%TO.P,U15,11,IOB2*%
%TO.N,PSG1IOB2*%
X130556000Y-182880000D03*
%TO.P,U15,12,IOB1*%
%TO.N,PSG1IOB1*%
X130556000Y-185420000D03*
%TO.P,U15,13,IOB0*%
%TO.N,PSG1IOB0*%
X130556000Y-187960000D03*
%TO.P,U15,14,IOA7*%
%TO.N,PSG1IOA7*%
X130556000Y-190500000D03*
%TO.P,U15,15,IOA6*%
%TO.N,PSG1IOA6*%
X130556000Y-193040000D03*
%TO.P,U15,16,IOA5*%
%TO.N,PSG1IOA5*%
X130556000Y-195580000D03*
%TO.P,U15,17,IOA4*%
%TO.N,PSG1IOA4*%
X130556000Y-198120000D03*
%TO.P,U15,18,IOA3*%
%TO.N,PSG1IOA3*%
X130556000Y-200660000D03*
%TO.P,U15,19,IOA2*%
%TO.N,PSG1IOA2*%
X130556000Y-203200000D03*
%TO.P,U15,20,IOA1*%
%TO.N,PSG1IOA1*%
X130556000Y-205740000D03*
%TO.P,U15,21,IOA0*%
%TO.N,PSG1IOA0*%
X145796000Y-205740000D03*
%TO.P,U15,22,CLOCK*%
%TO.N,CLK_1.8432*%
X145796000Y-203200000D03*
%TO.P,U15,23,~{RESET}*%
%TO.N,RESET*%
X145796000Y-200660000D03*
%TO.P,U15,24,~{A9}*%
%TO.N,Net-(U15-~{A9})*%
X145796000Y-198120000D03*
%TO.P,U15,25,A8*%
%TO.N,Net-(U15-A8)*%
X145796000Y-195580000D03*
%TO.P,U15,26,TEST2*%
%TO.N,unconnected-(U15-TEST2-Pad26)*%
X145796000Y-193040000D03*
%TO.P,U15,27,BDIR*%
%TO.N,Net-(U15-BDIR)*%
X145796000Y-190500000D03*
%TO.P,U15,28,BC2*%
%TO.N,+5V*%
X145796000Y-187960000D03*
%TO.P,U15,29,BC1*%
%TO.N,Net-(U15-BC1)*%
X145796000Y-185420000D03*
%TO.P,U15,30,D7*%
%TO.N,d7*%
X145796000Y-182880000D03*
%TO.P,U15,31,D6*%
%TO.N,d6*%
X145796000Y-180340000D03*
%TO.P,U15,32,D5*%
%TO.N,d5*%
X145796000Y-177800000D03*
%TO.P,U15,33,D4*%
%TO.N,d4*%
X145796000Y-175260000D03*
%TO.P,U15,34,D3*%
%TO.N,d3*%
X145796000Y-172720000D03*
%TO.P,U15,35,D2*%
%TO.N,d2*%
X145796000Y-170180000D03*
%TO.P,U15,36,D1*%
%TO.N,d1*%
X145796000Y-167640000D03*
%TO.P,U15,37,D0*%
%TO.N,d0*%
X145796000Y-165100000D03*
%TO.P,U15,38,ch_C*%
%TO.N,Net-(U15-ch_C)*%
X145796000Y-162560000D03*
%TO.P,U15,39,TEST1*%
%TO.N,unconnected-(U15-TEST1-Pad39)*%
X145796000Y-160020000D03*
%TO.P,U15,40,Vcc*%
%TO.N,+5V*%
X145796000Y-157480000D03*
%TD*%
%TO.P,U14,14,VCC*%
%TO.N,+5V*%
X124460000Y-110993000D03*
%TO.P,U14,13*%
%TO.N,Net-(U16-BDIR)*%
X124460000Y-113533000D03*
%TO.P,U14,12*%
%TO.N,RW*%
X124460000Y-116073000D03*
%TO.P,U14,11*%
%TO.N,PSG2_CS*%
X124460000Y-118613000D03*
%TO.P,U14,10*%
%TO.N,Net-(U16-BC1)*%
X124460000Y-121153000D03*
%TO.P,U14,9*%
%TO.N,/audio/a0*%
X124460000Y-123693000D03*
%TO.P,U14,8*%
%TO.N,PSG2_CS*%
X124460000Y-126233000D03*
%TO.P,U14,7,GND*%
%TO.N,GND*%
X116840000Y-126233000D03*
%TO.P,U14,6*%
%TO.N,RW*%
X116840000Y-123693000D03*
%TO.P,U14,5*%
%TO.N,PSG1_CS*%
X116840000Y-121153000D03*
%TO.P,U14,4*%
%TO.N,Net-(U15-BDIR)*%
X116840000Y-118613000D03*
%TO.P,U14,3*%
%TO.N,/audio/a0*%
X116840000Y-116073000D03*
%TO.P,U14,2*%
%TO.N,PSG1_CS*%
X116840000Y-113533000D03*
D12*
%TO.P,U14,1*%
%TO.N,Net-(U15-BC1)*%
X116840000Y-110993000D03*
%TD*%
%TO.P,U13,1,C1+*%
%TO.N,Net-(U13-C1+)*%
X223276000Y-187188000D03*
D13*
%TO.P,U13,2,VS+*%
%TO.N,Net-(U13-VS+)*%
X223276000Y-189728000D03*
%TO.P,U13,3,C1-*%
%TO.N,Net-(U13-C1-)*%
X223276000Y-192268000D03*
%TO.P,U13,4,C2+*%
%TO.N,Net-(U13-C2+)*%
X223276000Y-194808000D03*
%TO.P,U13,5,C2-*%
%TO.N,Net-(U13-C2-)*%
X223276000Y-197348000D03*
%TO.P,U13,6,VS-*%
%TO.N,Net-(U13-VS-)*%
X223276000Y-199888000D03*
%TO.P,U13,7,T2OUT*%
%TO.N,unconnected-(U13-T2OUT-Pad7)*%
X223276000Y-202428000D03*
%TO.P,U13,8,R2IN*%
%TO.N,unconnected-(U13-R2IN-Pad8)*%
X223276000Y-204968000D03*
%TO.P,U13,9,R2OUT*%
%TO.N,unconnected-(U13-R2OUT-Pad9)*%
X230896000Y-204968000D03*
%TO.P,U13,10,T2IN*%
%TO.N,unconnected-(U13-T2IN-Pad10)*%
X230896000Y-202428000D03*
%TO.P,U13,11,T1IN*%
%TO.N,Net-(U12-TxD)*%
X230896000Y-199888000D03*
%TO.P,U13,12,R1OUT*%
%TO.N,Net-(U12-RxD)*%
X230896000Y-197348000D03*
%TO.P,U13,13,R1IN*%
%TO.N,Net-(U13-R1IN)*%
X230896000Y-194808000D03*
%TO.P,U13,14,T1OUT*%
%TO.N,Net-(U13-T1OUT)*%
X230896000Y-192268000D03*
%TO.P,U13,15,GND*%
%TO.N,GND*%
X230896000Y-189728000D03*
%TO.P,U13,16,VCC*%
%TO.N,+5V*%
X230896000Y-187188000D03*
%TD*%
D12*
%TO.P,U12,1,VSS*%
%TO.N,GND*%
X187452000Y-169911000D03*
D13*
%TO.P,U12,2,CS0*%
%TO.N,+5V*%
X187452000Y-172451000D03*
%TO.P,U12,3,~{CS1}*%
%TO.N,ACIA_CS*%
X187452000Y-174991000D03*
%TO.P,U12,4,~{RES}*%
%TO.N,RESET*%
X187452000Y-177531000D03*
%TO.P,U12,5,RxC*%
%TO.N,unconnected-(U12-RxC-Pad5)*%
X187452000Y-180071000D03*
%TO.P,U12,6,XTLI*%
%TO.N,CLK_1.8432*%
X187452000Y-182611000D03*
%TO.P,U12,7,XTLO*%
%TO.N,unconnected-(U12-XTLO-Pad7)*%
X187452000Y-185151000D03*
%TO.P,U12,8,~{RTS}*%
%TO.N,unconnected-(U12-~{RTS}-Pad8)*%
X187452000Y-187691000D03*
%TO.P,U12,9,~{CTS}*%
%TO.N,GND*%
X187452000Y-190231000D03*
%TO.P,U12,10,TxD*%
%TO.N,Net-(U12-TxD)*%
X187452000Y-192771000D03*
%TO.P,U12,11,~{DTR}*%
%TO.N,unconnected-(U12-~{DTR}-Pad11)*%
X187452000Y-195311000D03*
%TO.P,U12,12,RxD*%
%TO.N,Net-(U12-RxD)*%
X187452000Y-197851000D03*
%TO.P,U12,13,RS0*%
%TO.N,a0*%
X187452000Y-200391000D03*
%TO.P,U12,14,RS1*%
%TO.N,a1*%
X187452000Y-202931000D03*
%TO.P,U12,15,VDD*%
%TO.N,+5V*%
X202692000Y-202931000D03*
%TO.P,U12,16,~{DCD}*%
%TO.N,GND*%
X202692000Y-200391000D03*
%TO.P,U12,17,~{DSR}*%
X202692000Y-197851000D03*
%TO.P,U12,18,D0*%
%TO.N,d0*%
X202692000Y-195311000D03*
%TO.P,U12,19,D1*%
%TO.N,d1*%
X202692000Y-192771000D03*
%TO.P,U12,20,D2*%
%TO.N,d2*%
X202692000Y-190231000D03*
%TO.P,U12,21,D3*%
%TO.N,d3*%
X202692000Y-187691000D03*
%TO.P,U12,22,D4*%
%TO.N,d4*%
X202692000Y-185151000D03*
%TO.P,U12,23,D5*%
%TO.N,d5*%
X202692000Y-182611000D03*
%TO.P,U12,24,D6*%
%TO.N,d6*%
X202692000Y-180071000D03*
%TO.P,U12,25,D7*%
%TO.N,d7*%
X202692000Y-177531000D03*
%TO.P,U12,26,~{IRQ}*%
%TO.N,ACIA_IRQ*%
X202692000Y-174991000D03*
%TO.P,U12,27,PHI2*%
%TO.N,PHI2*%
X202692000Y-172451000D03*
%TO.P,U12,28,R~{W}*%
%TO.N,RW*%
X202692000Y-169911000D03*
%TD*%
%TO.P,U11,8,VCC*%
%TO.N,+5V*%
X72644000Y-151384000D03*
%TO.P,U11,7,DIS*%
%TO.N,unconnected-(U11-DIS-Pad7)*%
X72644000Y-153924000D03*
%TO.P,U11,6,THR*%
%TO.N,Net-(U11-THR)*%
X72644000Y-156464000D03*
%TO.P,U11,5,CV*%
%TO.N,Net-(U11-CV)*%
X72644000Y-159004000D03*
%TO.P,U11,4,R*%
%TO.N,+5V*%
X65024000Y-159004000D03*
%TO.P,U11,3,Q*%
%TO.N,RESET*%
X65024000Y-156464000D03*
%TO.P,U11,2,TR*%
%TO.N,Net-(U11-THR)*%
X65024000Y-153924000D03*
D12*
%TO.P,U11,1,GND*%
%TO.N,GND*%
X65024000Y-151384000D03*
%TD*%
D14*
%TO.P,U10,1,VSS*%
%TO.N,GND*%
X171174440Y-49207420D03*
%TO.P,U10,2,VDD*%
%TO.N,+5V*%
X173714440Y-49207420D03*
%TO.P,U10,3,VO*%
%TO.N,Net-(U10-VO)*%
X176254440Y-49207420D03*
%TO.P,U10,4,RS*%
%TO.N,1pb4*%
X178794440Y-49207420D03*
%TO.P,U10,5,R/W*%
%TO.N,1pb5*%
X181334440Y-49207420D03*
%TO.P,U10,6,E*%
%TO.N,1pb6*%
X183874440Y-49207420D03*
%TO.P,U10,7,DB0*%
%TO.N,GND*%
X186414440Y-49207420D03*
%TO.P,U10,8,DB1*%
X188954440Y-49207420D03*
%TO.P,U10,9,DB2*%
X191494440Y-49207420D03*
%TO.P,U10,10,DB3*%
X194034440Y-49207420D03*
%TO.P,U10,11,DB4*%
%TO.N,1pb0*%
X196574440Y-49207420D03*
%TO.P,U10,12,DB5*%
%TO.N,1pb1*%
X199114440Y-49207420D03*
%TO.P,U10,13,DB6*%
%TO.N,1pb2*%
X201654440Y-49207420D03*
%TO.P,U10,14,DB7*%
%TO.N,1pb3*%
X204194440Y-49207420D03*
%TO.P,U10,15,A*%
%TO.N,+5V*%
X206734440Y-49207420D03*
%TO.P,U10,16,K*%
%TO.N,GND*%
X209274440Y-49207420D03*
%TD*%
D12*
%TO.P,U9,1,VSS*%
%TO.N,GND*%
X131064000Y-50800000D03*
D13*
%TO.P,U9,2,PA0*%
%TO.N,2pa0*%
X131064000Y-53340000D03*
%TO.P,U9,3,PA1*%
%TO.N,2pa1*%
X131064000Y-55880000D03*
%TO.P,U9,4,PA2*%
%TO.N,2pa2*%
X131064000Y-58420000D03*
%TO.P,U9,5,PA3*%
%TO.N,2pa3*%
X131064000Y-60960000D03*
%TO.P,U9,6,PA4*%
%TO.N,2pa4*%
X131064000Y-63500000D03*
%TO.P,U9,7,PA5*%
%TO.N,2pa5*%
X131064000Y-66040000D03*
%TO.P,U9,8,PA6*%
%TO.N,2pa6*%
X131064000Y-68580000D03*
%TO.P,U9,9,PA7*%
%TO.N,2pa7*%
X131064000Y-71120000D03*
%TO.P,U9,10,PB0*%
%TO.N,2pb0*%
X131064000Y-73660000D03*
%TO.P,U9,11,PB1*%
%TO.N,2pb1*%
X131064000Y-76200000D03*
%TO.P,U9,12,PB2*%
%TO.N,2pb2*%
X131064000Y-78740000D03*
%TO.P,U9,13,PB3*%
%TO.N,2pb3*%
X131064000Y-81280000D03*
%TO.P,U9,14,PB4*%
%TO.N,2pb4*%
X131064000Y-83820000D03*
%TO.P,U9,15,PB5*%
%TO.N,2pb5*%
X131064000Y-86360000D03*
%TO.P,U9,16,PB6*%
%TO.N,2pb6*%
X131064000Y-88900000D03*
%TO.P,U9,17,PB7*%
%TO.N,2pb7*%
X131064000Y-91440000D03*
%TO.P,U9,18,CB1*%
%TO.N,2CB1*%
X131064000Y-93980000D03*
%TO.P,U9,19,CB2*%
%TO.N,2CB2*%
X131064000Y-96520000D03*
%TO.P,U9,20,VDD*%
%TO.N,+5V*%
X131064000Y-99060000D03*
%TO.P,U9,21,~{IRQ}*%
%TO.N,2VIA_IRQ*%
X146304000Y-99060000D03*
%TO.P,U9,22,R~{W}*%
%TO.N,RW*%
X146304000Y-96520000D03*
%TO.P,U9,23,~{CS2}*%
%TO.N,VIA2_CS*%
X146304000Y-93980000D03*
%TO.P,U9,24,CS1*%
%TO.N,+5V*%
X146304000Y-91440000D03*
%TO.P,U9,25,PHI2*%
%TO.N,PHI2*%
X146304000Y-88900000D03*
%TO.P,U9,26,D7*%
%TO.N,d7*%
X146304000Y-86360000D03*
%TO.P,U9,27,D6*%
%TO.N,d6*%
X146304000Y-83820000D03*
%TO.P,U9,28,D5*%
%TO.N,d5*%
X146304000Y-81280000D03*
%TO.P,U9,29,D4*%
%TO.N,d4*%
X146304000Y-78740000D03*
%TO.P,U9,30,D3*%
%TO.N,d3*%
X146304000Y-76200000D03*
%TO.P,U9,31,D2*%
%TO.N,d2*%
X146304000Y-73660000D03*
%TO.P,U9,32,D1*%
%TO.N,d1*%
X146304000Y-71120000D03*
%TO.P,U9,33,D0*%
%TO.N,d0*%
X146304000Y-68580000D03*
%TO.P,U9,34,~{RES}*%
%TO.N,RESET*%
X146304000Y-66040000D03*
%TO.P,U9,35,RS3*%
%TO.N,a3*%
X146304000Y-63500000D03*
%TO.P,U9,36,RS2*%
%TO.N,a2*%
X146304000Y-60960000D03*
%TO.P,U9,37,RS1*%
%TO.N,a1*%
X146304000Y-58420000D03*
%TO.P,U9,38,RS0*%
%TO.N,a0*%
X146304000Y-55880000D03*
%TO.P,U9,39,CA2*%
%TO.N,2CA2*%
X146304000Y-53340000D03*
%TO.P,U9,40,CA1*%
%TO.N,2CA1*%
X146304000Y-50800000D03*
%TD*%
D12*
%TO.P,U8,1,A18*%
%TO.N,Net-(U6-Zd)*%
X188976000Y-111252000D03*
D13*
%TO.P,U8,2,A16*%
%TO.N,Net-(U6-Zb)*%
X188976000Y-113792000D03*
%TO.P,U8,3,A14*%
%TO.N,a14*%
X188976000Y-116332000D03*
%TO.P,U8,4,A12*%
%TO.N,a12*%
X188976000Y-118872000D03*
%TO.P,U8,5,A7*%
%TO.N,a7*%
X188976000Y-121412000D03*
%TO.P,U8,6,A6*%
%TO.N,a6*%
X188976000Y-123952000D03*
%TO.P,U8,7,A5*%
%TO.N,a5*%
X188976000Y-126492000D03*
%TO.P,U8,8,A4*%
%TO.N,a4*%
X188976000Y-129032000D03*
%TO.P,U8,9,A3*%
%TO.N,a3*%
X188976000Y-131572000D03*
%TO.P,U8,10,A2*%
%TO.N,a2*%
X188976000Y-134112000D03*
%TO.P,U8,11,A1*%
%TO.N,a1*%
X188976000Y-136652000D03*
%TO.P,U8,12,A0*%
%TO.N,a0*%
X188976000Y-139192000D03*
%TO.P,U8,13,DQ0*%
%TO.N,d0*%
X188976000Y-141732000D03*
%TO.P,U8,14,DQ1*%
%TO.N,d1*%
X188976000Y-144272000D03*
%TO.P,U8,15,DQ2*%
%TO.N,d2*%
X188976000Y-146812000D03*
%TO.P,U8,16,VSS*%
%TO.N,GND*%
X188976000Y-149352000D03*
%TO.P,U8,17,DQ3*%
%TO.N,d3*%
X204216000Y-149352000D03*
%TO.P,U8,18,DQ4*%
%TO.N,d4*%
X204216000Y-146812000D03*
%TO.P,U8,19,DQ5*%
%TO.N,d5*%
X204216000Y-144272000D03*
%TO.P,U8,20,DQ6*%
%TO.N,d6*%
X204216000Y-141732000D03*
%TO.P,U8,21,DQ7*%
%TO.N,d7*%
X204216000Y-139192000D03*
%TO.P,U8,22,CE#*%
%TO.N,RAM_CS*%
X204216000Y-136652000D03*
%TO.P,U8,23,A10*%
%TO.N,a10*%
X204216000Y-134112000D03*
%TO.P,U8,24,OE#*%
%TO.N,OE*%
X204216000Y-131572000D03*
%TO.P,U8,25,A11*%
%TO.N,a11*%
X204216000Y-129032000D03*
%TO.P,U8,26,A9*%
%TO.N,a9*%
X204216000Y-126492000D03*
%TO.P,U8,27,A8*%
%TO.N,a8*%
X204216000Y-123952000D03*
%TO.P,U8,28,A13*%
%TO.N,a13*%
X204216000Y-121412000D03*
%TO.P,U8,29,WE#*%
%TO.N,WE*%
X204216000Y-118872000D03*
%TO.P,U8,30,A17*%
%TO.N,Net-(U6-Zc)*%
X204216000Y-116332000D03*
%TO.P,U8,31,A15*%
%TO.N,Net-(U6-Za)*%
X204216000Y-113792000D03*
%TO.P,U8,32,VCC*%
%TO.N,+5V*%
X204216000Y-111252000D03*
%TD*%
D12*
%TO.P,U7,1,VSS*%
%TO.N,GND*%
X104140000Y-50800000D03*
D13*
%TO.P,U7,2,PA0*%
%TO.N,1pa0*%
X104140000Y-53340000D03*
%TO.P,U7,3,PA1*%
%TO.N,1pa1*%
X104140000Y-55880000D03*
%TO.P,U7,4,PA2*%
%TO.N,1pa2*%
X104140000Y-58420000D03*
%TO.P,U7,5,PA3*%
%TO.N,1pa3*%
X104140000Y-60960000D03*
%TO.P,U7,6,PA4*%
%TO.N,1pa4*%
X104140000Y-63500000D03*
%TO.P,U7,7,PA5*%
%TO.N,1pa5*%
X104140000Y-66040000D03*
%TO.P,U7,8,PA6*%
%TO.N,1pa6*%
X104140000Y-68580000D03*
%TO.P,U7,9,PA7*%
%TO.N,1pa7*%
X104140000Y-71120000D03*
%TO.P,U7,10,PB0*%
%TO.N,1pb0*%
X104140000Y-73660000D03*
%TO.P,U7,11,PB1*%
%TO.N,1pb1*%
X104140000Y-76200000D03*
%TO.P,U7,12,PB2*%
%TO.N,1pb2*%
X104140000Y-78740000D03*
%TO.P,U7,13,PB3*%
%TO.N,1pb3*%
X104140000Y-81280000D03*
%TO.P,U7,14,PB4*%
%TO.N,1pb4*%
X104140000Y-83820000D03*
%TO.P,U7,15,PB5*%
%TO.N,1pb5*%
X104140000Y-86360000D03*
%TO.P,U7,16,PB6*%
%TO.N,1pb6*%
X104140000Y-88900000D03*
%TO.P,U7,17,PB7*%
%TO.N,1pb7*%
X104140000Y-91440000D03*
%TO.P,U7,18,CB1*%
%TO.N,1CB1*%
X104140000Y-93980000D03*
%TO.P,U7,19,CB2*%
%TO.N,1CB2*%
X104140000Y-96520000D03*
%TO.P,U7,20,VDD*%
%TO.N,+5V*%
X104140000Y-99060000D03*
%TO.P,U7,21,~{IRQ}*%
%TO.N,1VIA_IRQ*%
X119380000Y-99060000D03*
%TO.P,U7,22,R~{W}*%
%TO.N,RW*%
X119380000Y-96520000D03*
%TO.P,U7,23,~{CS2}*%
%TO.N,VIA1_CS*%
X119380000Y-93980000D03*
%TO.P,U7,24,CS1*%
%TO.N,+5V*%
X119380000Y-91440000D03*
%TO.P,U7,25,PHI2*%
%TO.N,PHI2*%
X119380000Y-88900000D03*
%TO.P,U7,26,D7*%
%TO.N,d7*%
X119380000Y-86360000D03*
%TO.P,U7,27,D6*%
%TO.N,d6*%
X119380000Y-83820000D03*
%TO.P,U7,28,D5*%
%TO.N,d5*%
X119380000Y-81280000D03*
%TO.P,U7,29,D4*%
%TO.N,d4*%
X119380000Y-78740000D03*
%TO.P,U7,30,D3*%
%TO.N,d3*%
X119380000Y-76200000D03*
%TO.P,U7,31,D2*%
%TO.N,d2*%
X119380000Y-73660000D03*
%TO.P,U7,32,D1*%
%TO.N,d1*%
X119380000Y-71120000D03*
%TO.P,U7,33,D0*%
%TO.N,d0*%
X119380000Y-68580000D03*
%TO.P,U7,34,~{RES}*%
%TO.N,RESET*%
X119380000Y-66040000D03*
%TO.P,U7,35,RS3*%
%TO.N,a3*%
X119380000Y-63500000D03*
%TO.P,U7,36,RS2*%
%TO.N,a2*%
X119380000Y-60960000D03*
%TO.P,U7,37,RS1*%
%TO.N,a1*%
X119380000Y-58420000D03*
%TO.P,U7,38,RS0*%
%TO.N,a0*%
X119380000Y-55880000D03*
%TO.P,U7,39,CA2*%
%TO.N,1CA2*%
X119380000Y-53340000D03*
%TO.P,U7,40,CA1*%
%TO.N,1CA1*%
X119380000Y-50800000D03*
%TD*%
D12*
%TO.P,U6,1,S*%
%TO.N,BANKED_RAM_CS*%
X167396000Y-111252000D03*
D13*
%TO.P,U6,2,I0a*%
%TO.N,1pa0*%
X167396000Y-113792000D03*
%TO.P,U6,3,I1a*%
%TO.N,GND*%
X167396000Y-116332000D03*
%TO.P,U6,4,Za*%
%TO.N,Net-(U6-Za)*%
X167396000Y-118872000D03*
%TO.P,U6,5,I0b*%
%TO.N,1pa1*%
X167396000Y-121412000D03*
%TO.P,U6,6,I1b*%
%TO.N,GND*%
X167396000Y-123952000D03*
%TO.P,U6,7,Zb*%
%TO.N,Net-(U6-Zb)*%
X167396000Y-126492000D03*
%TO.P,U6,8,GND*%
%TO.N,GND*%
X167396000Y-129032000D03*
%TO.P,U6,9,Zc*%
%TO.N,Net-(U6-Zc)*%
X175016000Y-129032000D03*
%TO.P,U6,10,I1c*%
%TO.N,GND*%
X175016000Y-126492000D03*
%TO.P,U6,11,I0c*%
%TO.N,1pa2*%
X175016000Y-123952000D03*
%TO.P,U6,12,Zd*%
%TO.N,Net-(U6-Zd)*%
X175016000Y-121412000D03*
%TO.P,U6,13,I1d*%
%TO.N,GND*%
X175016000Y-118872000D03*
%TO.P,U6,14,I0d*%
%TO.N,1pa3*%
X175016000Y-116332000D03*
%TO.P,U6,15,E*%
%TO.N,GND*%
X175016000Y-113792000D03*
%TO.P,U6,16,VCC*%
%TO.N,+5V*%
X175016000Y-111252000D03*
%TD*%
D12*
%TO.P,U5,1,~{VP}*%
%TO.N,VP*%
X89408000Y-110744000D03*
D13*
%TO.P,U5,2,RDY*%
%TO.N,RDY*%
X89408000Y-113284000D03*
%TO.P,U5,3,PHI1O*%
%TO.N,unconnected-(U5-PHI1O-Pad3)*%
X89408000Y-115824000D03*
%TO.P,U5,4,~{IRQ}*%
%TO.N,IRQ*%
X89408000Y-118364000D03*
%TO.P,U5,5,~{ML}*%
%TO.N,ML*%
X89408000Y-120904000D03*
%TO.P,U5,6,~{NMI}*%
%TO.N,NMI*%
X89408000Y-123444000D03*
%TO.P,U5,7,SYNC*%
%TO.N,SYNC*%
X89408000Y-125984000D03*
%TO.P,U5,8,VDD*%
%TO.N,+5V*%
X89408000Y-128524000D03*
%TO.P,U5,9,A0*%
%TO.N,a0*%
X89408000Y-131064000D03*
%TO.P,U5,10,A1*%
%TO.N,a1*%
X89408000Y-133604000D03*
%TO.P,U5,11,A2*%
%TO.N,a2*%
X89408000Y-136144000D03*
%TO.P,U5,12,A3*%
%TO.N,a3*%
X89408000Y-138684000D03*
%TO.P,U5,13,A4*%
%TO.N,a4*%
X89408000Y-141224000D03*
%TO.P,U5,14,A5*%
%TO.N,a5*%
X89408000Y-143764000D03*
%TO.P,U5,15,A6*%
%TO.N,a6*%
X89408000Y-146304000D03*
%TO.P,U5,16,A7*%
%TO.N,a7*%
X89408000Y-148844000D03*
%TO.P,U5,17,A8*%
%TO.N,a8*%
X89408000Y-151384000D03*
%TO.P,U5,18,A9*%
%TO.N,a9*%
X89408000Y-153924000D03*
%TO.P,U5,19,A10*%
%TO.N,a10*%
X89408000Y-156464000D03*
%TO.P,U5,20,A11*%
%TO.N,a11*%
X89408000Y-159004000D03*
%TO.P,U5,21,VSS*%
%TO.N,GND*%
X104648000Y-159004000D03*
%TO.P,U5,22,A12*%
%TO.N,a12*%
X104648000Y-156464000D03*
%TO.P,U5,23,A13*%
%TO.N,a13*%
X104648000Y-153924000D03*
%TO.P,U5,24,A14*%
%TO.N,a14*%
X104648000Y-151384000D03*
%TO.P,U5,25,A15*%
%TO.N,a15*%
X104648000Y-148844000D03*
%TO.P,U5,26,D7*%
%TO.N,d7*%
X104648000Y-146304000D03*
%TO.P,U5,27,D6*%
%TO.N,d6*%
X104648000Y-143764000D03*
%TO.P,U5,28,D5*%
%TO.N,d5*%
X104648000Y-141224000D03*
%TO.P,U5,29,D4*%
%TO.N,d4*%
X104648000Y-138684000D03*
%TO.P,U5,30,D3*%
%TO.N,d3*%
X104648000Y-136144000D03*
%TO.P,U5,31,D2*%
%TO.N,d2*%
X104648000Y-133604000D03*
%TO.P,U5,32,D1*%
%TO.N,d1*%
X104648000Y-131064000D03*
%TO.P,U5,33,D0*%
%TO.N,d0*%
X104648000Y-128524000D03*
%TO.P,U5,34,~{RW}*%
%TO.N,RW*%
X104648000Y-125984000D03*
%TO.P,U5,35,NC*%
%TO.N,unconnected-(U5-NC-Pad35)*%
X104648000Y-123444000D03*
%TO.P,U5,36,BE*%
%TO.N,BE*%
X104648000Y-120904000D03*
%TO.P,U5,37,PHI2*%
%TO.N,PHI2*%
X104648000Y-118364000D03*
%TO.P,U5,38,~{SO}*%
%TO.N,+5V*%
X104648000Y-115824000D03*
%TO.P,U5,39,PHI2O*%
%TO.N,unconnected-(U5-PHI2O-Pad39)*%
X104648000Y-113284000D03*
%TO.P,U5,40,~{RES}*%
%TO.N,RESET*%
X104648000Y-110744000D03*
%TD*%
D12*
%TO.P,U4,1,OD/CLK*%
%TO.N,PHI2*%
X135392000Y-110993000D03*
D13*
%TO.P,U4,2,I0*%
%TO.N,RW*%
X135392000Y-113533000D03*
%TO.P,U4,3,I1*%
%TO.N,a15*%
X135392000Y-116073000D03*
%TO.P,U4,4,I2*%
%TO.N,unconnected-(U4-I2-Pad4)*%
X135392000Y-118613000D03*
%TO.P,U4,5,I3*%
%TO.N,a14*%
X135392000Y-121153000D03*
%TO.P,U4,6,I4*%
%TO.N,a13*%
X135392000Y-123693000D03*
%TO.P,U4,7,I5*%
%TO.N,a12*%
X135392000Y-126233000D03*
%TO.P,U4,8,I6*%
%TO.N,a11*%
X135392000Y-128773000D03*
%TO.P,U4,9,I7*%
%TO.N,a10*%
X135392000Y-131313000D03*
%TO.P,U4,10,I8*%
%TO.N,a9*%
X135392000Y-133853000D03*
%TO.P,U4,11,I9*%
%TO.N,a8*%
X135392000Y-136393000D03*
%TO.P,U4,12,GND*%
%TO.N,GND*%
X135392000Y-138933000D03*
%TO.P,U4,13,CLK/OD*%
%TO.N,unconnected-(U4-CLK{slash}OD-Pad13)*%
X143012000Y-138933000D03*
%TO.P,U4,14,LR/O4*%
%TO.N,OE*%
X143012000Y-136393000D03*
%TO.P,U4,15,A0/O3*%
%TO.N,WE*%
X143012000Y-133853000D03*
%TO.P,U4,16,A1/O2*%
%TO.N,ROM_CS*%
X143012000Y-131313000D03*
%TO.P,U4,17,A2/O1*%
%TO.N,RAM_CS*%
X143012000Y-128773000D03*
%TO.P,U4,18,NC/O0*%
%TO.N,BANKED_RAM_CS*%
X143012000Y-126233000D03*
%TO.P,U4,19,O4/NC*%
%TO.N,decode3*%
X143012000Y-123693000D03*
%TO.P,U4,20,O3/A2*%
%TO.N,decode2*%
X143012000Y-121153000D03*
%TO.P,U4,21,O2/A1*%
%TO.N,DEVICE_CS*%
X143012000Y-118613000D03*
%TO.P,U4,22,O1/A0*%
%TO.N,decode1*%
X143012000Y-116073000D03*
%TO.P,U4,23,O0/LR*%
%TO.N,decode0*%
X143012000Y-113533000D03*
%TO.P,U4,24,VCC*%
%TO.N,+5V*%
X143012000Y-110993000D03*
%TD*%
D15*
%TO.P,U3,1,A14*%
%TO.N,a14*%
X219456000Y-120542000D03*
D16*
%TO.P,U3,2,A12*%
%TO.N,a12*%
X219456000Y-123082000D03*
%TO.P,U3,3,A7*%
%TO.N,a7*%
X219456000Y-125622000D03*
%TO.P,U3,4,A6*%
%TO.N,a6*%
X219456000Y-128162000D03*
%TO.P,U3,5,A5*%
%TO.N,a5*%
X219456000Y-130702000D03*
%TO.P,U3,6,A4*%
%TO.N,a4*%
X219456000Y-133242000D03*
%TO.P,U3,7,A3*%
%TO.N,a3*%
X219456000Y-135782000D03*
%TO.P,U3,8,A2*%
%TO.N,a2*%
X219456000Y-138322000D03*
%TO.P,U3,9,A1*%
%TO.N,a1*%
X219456000Y-140862000D03*
%TO.P,U3,10,A0*%
%TO.N,a0*%
X219456000Y-143402000D03*
%TO.P,U3,11,D0*%
%TO.N,d0*%
X219456000Y-145942000D03*
%TO.P,U3,12,D1*%
%TO.N,d1*%
X219456000Y-148482000D03*
%TO.P,U3,13,D2*%
%TO.N,d2*%
X219456000Y-151022000D03*
%TO.P,U3,14,GND*%
%TO.N,GND*%
X219456000Y-153562000D03*
%TO.P,U3,15,D3*%
%TO.N,d3*%
X234696000Y-153562000D03*
%TO.P,U3,16,D4*%
%TO.N,d4*%
X234696000Y-151022000D03*
%TO.P,U3,17,D5*%
%TO.N,d5*%
X234696000Y-148482000D03*
%TO.P,U3,18,D6*%
%TO.N,d6*%
X234696000Y-145942000D03*
%TO.P,U3,19,D7*%
%TO.N,d7*%
X234696000Y-143402000D03*
%TO.P,U3,20,~{CS}*%
%TO.N,ROM_CS*%
X234696000Y-140862000D03*
%TO.P,U3,21,A10*%
%TO.N,a10*%
X234696000Y-138322000D03*
%TO.P,U3,22,~{OE}*%
%TO.N,GND*%
X234696000Y-135782000D03*
%TO.P,U3,23,A11*%
%TO.N,a11*%
X234696000Y-133242000D03*
%TO.P,U3,24,A9*%
%TO.N,a9*%
X234696000Y-130702000D03*
%TO.P,U3,25,A8*%
%TO.N,a8*%
X234696000Y-128162000D03*
%TO.P,U3,26,A13*%
%TO.N,a13*%
X234696000Y-125622000D03*
%TO.P,U3,27,~{WE}*%
%TO.N,WE*%
X234696000Y-123082000D03*
%TO.P,U3,28,VCC*%
%TO.N,+5V*%
X234696000Y-120542000D03*
%TD*%
D12*
%TO.P,U2,1,S0*%
%TO.N,VIA1_CS*%
X152908000Y-110993000D03*
D13*
%TO.P,U2,2,S1*%
%TO.N,VIA2_CS*%
X152908000Y-113533000D03*
%TO.P,U2,3,S2*%
%TO.N,ACIA_CS*%
X152908000Y-116073000D03*
%TO.P,U2,4,S3*%
%TO.N,PSG1_CS*%
X152908000Y-118613000D03*
%TO.P,U2,5,S4*%
%TO.N,PSG2_CS*%
X152908000Y-121153000D03*
%TO.P,U2,6,S5*%
%TO.N,IO0*%
X152908000Y-123693000D03*
%TO.P,U2,7,S6*%
%TO.N,IO1*%
X152908000Y-126233000D03*
%TO.P,U2,8,S7*%
%TO.N,IO2*%
X152908000Y-128773000D03*
%TO.P,U2,9,S8*%
%TO.N,IO3*%
X152908000Y-131313000D03*
%TO.P,U2,10,S9*%
%TO.N,IO4*%
X152908000Y-133853000D03*
%TO.P,U2,11,S10*%
%TO.N,IO5*%
X152908000Y-136393000D03*
%TO.P,U2,12,GND*%
%TO.N,GND*%
X152908000Y-138933000D03*
%TO.P,U2,13,S11*%
%TO.N,IO6*%
X160528000Y-138933000D03*
%TO.P,U2,14,S12*%
%TO.N,IO7*%
X160528000Y-136393000D03*
%TO.P,U2,15,S13*%
%TO.N,IO8*%
X160528000Y-133853000D03*
%TO.P,U2,16,S14*%
%TO.N,IO9*%
X160528000Y-131313000D03*
%TO.P,U2,17,S15*%
%TO.N,IO10*%
X160528000Y-128773000D03*
%TO.P,U2,18,E0*%
%TO.N,a15*%
X160528000Y-126233000D03*
%TO.P,U2,19,E1*%
%TO.N,DEVICE_CS*%
X160528000Y-123693000D03*
%TO.P,U2,20,A3*%
%TO.N,a7*%
X160528000Y-121153000D03*
%TO.P,U2,21,A2*%
%TO.N,a6*%
X160528000Y-118613000D03*
%TO.P,U2,22,A1*%
%TO.N,a5*%
X160528000Y-116073000D03*
%TO.P,U2,23,A0*%
%TO.N,a4*%
X160528000Y-113533000D03*
%TO.P,U2,24,VCC*%
%TO.N,+5V*%
X160528000Y-110993000D03*
%TD*%
%TO.P,U1,14,VCC*%
%TO.N,+5V*%
X124460000Y-137160000D03*
%TO.P,U1,13*%
%TO.N,N/C*%
X124460000Y-139700000D03*
%TO.P,U1,12*%
X124460000Y-142240000D03*
%TO.P,U1,11*%
X124460000Y-144780000D03*
%TO.P,U1,10*%
X124460000Y-147320000D03*
%TO.P,U1,9*%
X124460000Y-149860000D03*
%TO.P,U1,8*%
X124460000Y-152400000D03*
%TO.P,U1,7,GND*%
%TO.N,GND*%
X116840000Y-152400000D03*
%TO.P,U1,6*%
%TO.N,IRQ*%
X116840000Y-149860000D03*
%TO.P,U1,5*%
%TO.N,ACIA_IRQ*%
X116840000Y-147320000D03*
%TO.P,U1,4*%
%TO.N,Net-(U1-Pad3)*%
X116840000Y-144780000D03*
%TO.P,U1,3*%
X116840000Y-142240000D03*
%TO.P,U1,2*%
%TO.N,2VIA_IRQ*%
X116840000Y-139700000D03*
D12*
%TO.P,U1,1*%
%TO.N,1VIA_IRQ*%
X116840000Y-137160000D03*
%TD*%
D17*
%TO.P,SW3,6*%
%TO.N,N/C*%
X57912000Y-103632000D03*
%TO.P,SW3,5*%
X55412000Y-103632000D03*
%TO.P,SW3,4*%
X52912000Y-103632000D03*
%TO.P,SW3,3*%
X57912000Y-97632000D03*
%TO.P,SW3,2*%
%TO.N,Net-(Q1-D)*%
X55412000Y-97632000D03*
D18*
%TO.P,SW3,1*%
%TO.N,Net-(J6-Pad1)*%
X52912000Y-97632000D03*
%TD*%
D19*
%TO.P,SW2,1,1*%
%TO.N,RESET*%
X58928000Y-111542000D03*
X52428000Y-111542000D03*
%TO.P,SW2,2,2*%
%TO.N,GND*%
X52428000Y-116042000D03*
X58928000Y-116042000D03*
%TD*%
%TO.P,SW1,1,1*%
%TO.N,Net-(R1-Pad2)*%
X58928000Y-125548000D03*
X52428000Y-125548000D03*
%TO.P,SW1,2,2*%
%TO.N,GND*%
X52428000Y-130048000D03*
X58928000Y-130048000D03*
%TD*%
D20*
%TO.P,RV1,1,1*%
%TO.N,GND*%
X154432000Y-44704000D03*
%TO.P,RV1,2,2*%
%TO.N,Net-(U10-VO)*%
X156972000Y-42164000D03*
%TO.P,RV1,3,3*%
%TO.N,+5V*%
X154432000Y-39624000D03*
%TD*%
D13*
%TO.P,R24,2*%
%TO.N,Net-(U16-ch_A)*%
X81280000Y-171704000D03*
D11*
%TO.P,R24,1*%
%TO.N,Net-(C27-Pad1)*%
X71120000Y-171704000D03*
%TD*%
D13*
%TO.P,R23,2*%
%TO.N,GND*%
X81280000Y-185928000D03*
D11*
%TO.P,R23,1*%
%TO.N,Net-(C27-Pad1)*%
X71120000Y-185928000D03*
%TD*%
%TO.P,R22,1*%
%TO.N,Net-(C27-Pad1)*%
X71120000Y-176276000D03*
D13*
%TO.P,R22,2*%
%TO.N,Net-(U16-ch_B)*%
X81280000Y-176276000D03*
%TD*%
%TO.P,R21,2*%
%TO.N,Net-(U16-ch_C)*%
X81280000Y-180848000D03*
D11*
%TO.P,R21,1*%
%TO.N,Net-(C27-Pad1)*%
X71120000Y-180848000D03*
%TD*%
D13*
%TO.P,R20,2*%
%TO.N,GND*%
X113792000Y-171196000D03*
D11*
%TO.P,R20,1*%
%TO.N,Net-(U16-~{A9})*%
X123952000Y-171196000D03*
%TD*%
%TO.P,R19,1*%
%TO.N,+5V*%
X113792000Y-180340000D03*
D13*
%TO.P,R19,2*%
%TO.N,Net-(U16-A8)*%
X123952000Y-180340000D03*
%TD*%
D11*
%TO.P,R18,1*%
%TO.N,Net-(C22-Pad1)*%
X64516000Y-176784000D03*
D13*
%TO.P,R18,2*%
%TO.N,Net-(U15-ch_A)*%
X54356000Y-176784000D03*
%TD*%
%TO.P,R17,2*%
%TO.N,GND*%
X54356000Y-186436000D03*
D11*
%TO.P,R17,1*%
%TO.N,Net-(C22-Pad1)*%
X64516000Y-186436000D03*
%TD*%
%TO.P,R16,1*%
%TO.N,Net-(C22-Pad1)*%
X64516000Y-181356000D03*
D13*
%TO.P,R16,2*%
%TO.N,Net-(U15-ch_B)*%
X54356000Y-181356000D03*
%TD*%
D11*
%TO.P,R15,1*%
%TO.N,Net-(C22-Pad1)*%
X54356000Y-171704000D03*
D13*
%TO.P,R15,2*%
%TO.N,Net-(U15-ch_C)*%
X64516000Y-171704000D03*
%TD*%
D11*
%TO.P,R14,1*%
%TO.N,Net-(U15-~{A9})*%
X123952000Y-175768000D03*
D13*
%TO.P,R14,2*%
%TO.N,GND*%
X113792000Y-175768000D03*
%TD*%
D11*
%TO.P,R13,1*%
%TO.N,+5V*%
X113792000Y-166624000D03*
D13*
%TO.P,R13,2*%
%TO.N,Net-(U15-A8)*%
X123952000Y-166624000D03*
%TD*%
D11*
%TO.P,R12,1*%
%TO.N,Net-(U11-THR)*%
X57404000Y-159512000D03*
D13*
%TO.P,R12,2*%
%TO.N,GND*%
X57404000Y-149352000D03*
%TD*%
D11*
%TO.P,R11,1*%
%TO.N,1pb7*%
X87884000Y-99060000D03*
D13*
%TO.P,R11,2*%
%TO.N,Net-(D2-A)*%
X77724000Y-99060000D03*
%TD*%
D11*
%TO.P,R10,1*%
%TO.N,Net-(D1-A)*%
X43688000Y-57404000D03*
D13*
%TO.P,R10,2*%
%TO.N,+5V*%
X33528000Y-57404000D03*
%TD*%
D11*
%TO.P,R9,1*%
%TO.N,BE*%
X80772000Y-132080000D03*
D13*
%TO.P,R9,2*%
%TO.N,+5V*%
X70612000Y-132080000D03*
%TD*%
D11*
%TO.P,R8,1*%
%TO.N,+5V*%
X70612000Y-136652000D03*
D13*
%TO.P,R8,2*%
%TO.N,RESET*%
X80772000Y-136652000D03*
%TD*%
D11*
%TO.P,R7,1*%
%TO.N,GND*%
X181356000Y-146304000D03*
D13*
%TO.P,R7,2*%
%TO.N,1pa3*%
X181356000Y-136144000D03*
%TD*%
D11*
%TO.P,R6,1*%
%TO.N,GND*%
X176784000Y-146304000D03*
D13*
%TO.P,R6,2*%
%TO.N,1pa2*%
X176784000Y-136144000D03*
%TD*%
%TO.P,R5,2*%
%TO.N,1pa1*%
X172212000Y-136144000D03*
D11*
%TO.P,R5,1*%
%TO.N,GND*%
X172212000Y-146304000D03*
%TD*%
%TO.P,R4,1*%
%TO.N,GND*%
X167640000Y-146304000D03*
D13*
%TO.P,R4,2*%
%TO.N,1pa0*%
X167640000Y-136144000D03*
%TD*%
D11*
%TO.P,R3,1*%
%TO.N,+5V*%
X70612000Y-111252000D03*
D13*
%TO.P,R3,2*%
%TO.N,RDY*%
X80772000Y-111252000D03*
%TD*%
%TO.P,R2,2*%
%TO.N,Net-(R1-Pad2)*%
X80772000Y-116332000D03*
D11*
%TO.P,R2,1*%
%TO.N,+5V*%
X70612000Y-116332000D03*
%TD*%
%TO.P,R1,1*%
%TO.N,NMI*%
X70612000Y-120904000D03*
D13*
%TO.P,R1,2*%
%TO.N,Net-(R1-Pad2)*%
X80772000Y-120904000D03*
%TD*%
D21*
%TO.P,Q1,1,G*%
%TO.N,GND*%
X36576000Y-86797000D03*
D22*
%TO.P,Q1,2,D*%
%TO.N,Net-(Q1-D)*%
X39116000Y-86797000D03*
%TO.P,Q1,3,S*%
%TO.N,+5V*%
X41656000Y-86797000D03*
%TD*%
D23*
%TO.P,JP1,2,B*%
%TO.N,Net-(JP1-B)*%
X99060000Y-169672000D03*
D24*
%TO.P,JP1,1,A*%
%TO.N,PHI2*%
X96520000Y-169672000D03*
%TD*%
D25*
%TO.P,J19,5*%
%TO.N,unconnected-(J19-Pad5)*%
X44068000Y-175260000D03*
D26*
%TO.P,J19,4*%
%TO.N,AUDIO_OUT_RIGHT*%
X40318000Y-173260000D03*
%TO.P,J19,3*%
%TO.N,unconnected-(J19-Pad3)*%
X38418000Y-175260000D03*
D27*
%TO.P,J19,2*%
%TO.N,AUDIO_OUT_LEFT*%
X34718000Y-173260000D03*
%TO.P,J19,1*%
%TO.N,GND*%
X32268000Y-175260000D03*
%TD*%
D24*
%TO.P,J18,1,Pin_1*%
%TO.N,PSG2IOB0*%
X100076000Y-209296000D03*
D23*
%TO.P,J18,2,Pin_2*%
%TO.N,PSG2IOB1*%
X97536000Y-209296000D03*
%TO.P,J18,3,Pin_3*%
%TO.N,PSG2IOB2*%
X94996000Y-209296000D03*
%TO.P,J18,4,Pin_4*%
%TO.N,PSG2IOB3*%
X92456000Y-209296000D03*
%TO.P,J18,5,Pin_5*%
%TO.N,PSG2IOB4*%
X89916000Y-209296000D03*
%TO.P,J18,6,Pin_6*%
%TO.N,PSG2IOB5*%
X87376000Y-209296000D03*
%TO.P,J18,7,Pin_7*%
%TO.N,PSG2IOB6*%
X84836000Y-209296000D03*
%TO.P,J18,8,Pin_8*%
%TO.N,PSG2IOB7*%
X82296000Y-209296000D03*
%TD*%
D24*
%TO.P,J17,1,Pin_1*%
%TO.N,PSG2IOA0*%
X123952000Y-209296000D03*
D23*
%TO.P,J17,2,Pin_2*%
%TO.N,PSG2IOA1*%
X121412000Y-209296000D03*
%TO.P,J17,3,Pin_3*%
%TO.N,PSG2IOA2*%
X118872000Y-209296000D03*
%TO.P,J17,4,Pin_4*%
%TO.N,PSG2IOA3*%
X116332000Y-209296000D03*
%TO.P,J17,5,Pin_5*%
%TO.N,PSG2IOA4*%
X113792000Y-209296000D03*
%TO.P,J17,6,Pin_6*%
%TO.N,PSG2IOA5*%
X111252000Y-209296000D03*
%TO.P,J17,7,Pin_7*%
%TO.N,PSG2IOA6*%
X108712000Y-209296000D03*
%TO.P,J17,8,Pin_8*%
%TO.N,PSG2IOA7*%
X106172000Y-209296000D03*
%TD*%
D24*
%TO.P,J16,1,Pin_1*%
%TO.N,PSG1IOA0*%
X124460000Y-199644000D03*
D23*
%TO.P,J16,2,Pin_2*%
%TO.N,PSG1IOA1*%
X121920000Y-199644000D03*
%TO.P,J16,3,Pin_3*%
%TO.N,PSG1IOA2*%
X119380000Y-199644000D03*
%TO.P,J16,4,Pin_4*%
%TO.N,PSG1IOA3*%
X116840000Y-199644000D03*
%TO.P,J16,5,Pin_5*%
%TO.N,PSG1IOA4*%
X114300000Y-199644000D03*
%TO.P,J16,6,Pin_6*%
%TO.N,PSG1IOA5*%
X111760000Y-199644000D03*
%TO.P,J16,7,Pin_7*%
%TO.N,PSG1IOA6*%
X109220000Y-199644000D03*
%TO.P,J16,8,Pin_8*%
%TO.N,PSG1IOA7*%
X106680000Y-199644000D03*
%TD*%
%TO.P,J15,8,Pin_8*%
%TO.N,PSG1IOB7*%
X82296000Y-199644000D03*
%TO.P,J15,7,Pin_7*%
%TO.N,PSG1IOB6*%
X84836000Y-199644000D03*
%TO.P,J15,6,Pin_6*%
%TO.N,PSG1IOB5*%
X87376000Y-199644000D03*
%TO.P,J15,5,Pin_5*%
%TO.N,PSG1IOB4*%
X89916000Y-199644000D03*
%TO.P,J15,4,Pin_4*%
%TO.N,PSG1IOB3*%
X92456000Y-199644000D03*
%TO.P,J15,3,Pin_3*%
%TO.N,PSG1IOB2*%
X94996000Y-199644000D03*
%TO.P,J15,2,Pin_2*%
%TO.N,PSG1IOB1*%
X97536000Y-199644000D03*
D24*
%TO.P,J15,1,Pin_1*%
%TO.N,PSG1IOB0*%
X100076000Y-199644000D03*
%TD*%
%TO.P,J14,1,Pin_1*%
%TO.N,unconnected-(J14-Pin_1-Pad1)*%
X189992000Y-210312000D03*
D23*
%TO.P,J14,2,Pin_2*%
%TO.N,unconnected-(J14-Pin_2-Pad2)*%
X192532000Y-210312000D03*
%TO.P,J14,3,Pin_3*%
%TO.N,unconnected-(J14-Pin_3-Pad3)*%
X195072000Y-210312000D03*
%TO.P,J14,4,Pin_4*%
%TO.N,unconnected-(J14-Pin_4-Pad4)*%
X197612000Y-210312000D03*
%TO.P,J14,5,Pin_5*%
%TO.N,unconnected-(J14-Pin_5-Pad5)*%
X200152000Y-210312000D03*
%TD*%
D11*
%TO.P,J13,9,9*%
%TO.N,unconnected-(J13-Pad9)*%
X43792000Y-149569000D03*
%TO.P,J13,8,8*%
%TO.N,unconnected-(J13-Pad8)*%
X43792000Y-152339000D03*
%TO.P,J13,7,7*%
%TO.N,unconnected-(J13-Pad7)*%
X43792000Y-155109000D03*
%TO.P,J13,6,6*%
%TO.N,unconnected-(J13-Pad6)*%
X43792000Y-157879000D03*
%TO.P,J13,5,5*%
%TO.N,GND*%
X46632000Y-148184000D03*
%TO.P,J13,4,4*%
%TO.N,unconnected-(J13-Pad4)*%
X46632000Y-150954000D03*
%TO.P,J13,3,3*%
%TO.N,Net-(U13-R1IN)*%
X46632000Y-153724000D03*
%TO.P,J13,2,2*%
%TO.N,Net-(U13-T1OUT)*%
X46632000Y-156494000D03*
D12*
%TO.P,J13,1,1*%
%TO.N,unconnected-(J13-Pad1)*%
X46632000Y-159264000D03*
D28*
%TO.P,J13,0*%
%TO.N,N/C*%
X45212000Y-141224000D03*
X45212000Y-166224000D03*
%TD*%
D24*
%TO.P,J12,1,Pin_1*%
%TO.N,IO3*%
X63500000Y-209296000D03*
D23*
%TO.P,J12,2,Pin_2*%
%TO.N,IO4*%
X60960000Y-209296000D03*
%TO.P,J12,3,Pin_3*%
%TO.N,IO5*%
X58420000Y-209296000D03*
%TO.P,J12,4,Pin_4*%
%TO.N,IO6*%
X55880000Y-209296000D03*
%TO.P,J12,5,Pin_5*%
%TO.N,IO7*%
X53340000Y-209296000D03*
%TO.P,J12,6,Pin_6*%
%TO.N,IO8*%
X50800000Y-209296000D03*
%TO.P,J12,7,Pin_7*%
%TO.N,IO9*%
X48260000Y-209296000D03*
%TO.P,J12,8,Pin_8*%
%TO.N,IO10*%
X45720000Y-209296000D03*
%TD*%
D29*
%TO.P,J11,7*%
%TO.N,N/C*%
X34760000Y-135882000D03*
X34760000Y-122182000D03*
D12*
%TO.P,J11,1*%
%TO.N,1pa7*%
X31910000Y-127732000D03*
D11*
%TO.P,J11,2*%
%TO.N,unconnected-(J11-Pad2)*%
X31910000Y-130332000D03*
%TO.P,J11,3*%
%TO.N,GND*%
X31910000Y-125632000D03*
%TO.P,J11,4*%
%TO.N,+5V*%
X31910000Y-132432000D03*
%TO.P,J11,5*%
%TO.N,1pa6*%
X29110000Y-125632000D03*
%TO.P,J11,6*%
%TO.N,unconnected-(J11-Pad6)*%
X29110000Y-132432000D03*
D30*
%TO.P,J11,7*%
%TO.N,N/C*%
X35560000Y-129032000D03*
%TD*%
D24*
%TO.P,J10,1,Pin_1*%
%TO.N,a0*%
X84836000Y-42164000D03*
D23*
%TO.P,J10,2,Pin_2*%
%TO.N,d0*%
X87376000Y-42164000D03*
%TO.P,J10,3,Pin_3*%
%TO.N,a1*%
X84836000Y-44704000D03*
%TO.P,J10,4,Pin_4*%
%TO.N,d1*%
X87376000Y-44704000D03*
%TO.P,J10,5,Pin_5*%
%TO.N,a2*%
X84836000Y-47244000D03*
%TO.P,J10,6,Pin_6*%
%TO.N,d2*%
X87376000Y-47244000D03*
%TO.P,J10,7,Pin_7*%
%TO.N,a3*%
X84836000Y-49784000D03*
%TO.P,J10,8,Pin_8*%
%TO.N,d3*%
X87376000Y-49784000D03*
%TO.P,J10,9,Pin_9*%
%TO.N,a4*%
X84836000Y-52324000D03*
%TO.P,J10,10,Pin_10*%
%TO.N,d4*%
X87376000Y-52324000D03*
%TO.P,J10,11,Pin_11*%
%TO.N,a5*%
X84836000Y-54864000D03*
%TO.P,J10,12,Pin_12*%
%TO.N,d5*%
X87376000Y-54864000D03*
%TO.P,J10,13,Pin_13*%
%TO.N,a6*%
X84836000Y-57404000D03*
%TO.P,J10,14,Pin_14*%
%TO.N,d6*%
X87376000Y-57404000D03*
%TO.P,J10,15,Pin_15*%
%TO.N,a7*%
X84836000Y-59944000D03*
%TO.P,J10,16,Pin_16*%
%TO.N,d7*%
X87376000Y-59944000D03*
%TO.P,J10,17,Pin_17*%
%TO.N,a8*%
X84836000Y-62484000D03*
%TO.P,J10,18,Pin_18*%
%TO.N,RW*%
X87376000Y-62484000D03*
%TO.P,J10,19,Pin_19*%
%TO.N,a9*%
X84836000Y-65024000D03*
%TO.P,J10,20,Pin_20*%
%TO.N,PHI2*%
X87376000Y-65024000D03*
%TO.P,J10,21,Pin_21*%
%TO.N,a10*%
X84836000Y-67564000D03*
%TO.P,J10,22,Pin_22*%
%TO.N,RESET*%
X87376000Y-67564000D03*
%TO.P,J10,23,Pin_23*%
%TO.N,a11*%
X84836000Y-70104000D03*
%TO.P,J10,24,Pin_24*%
%TO.N,SYNC*%
X87376000Y-70104000D03*
%TO.P,J10,25,Pin_25*%
%TO.N,a12*%
X84836000Y-72644000D03*
%TO.P,J10,26,Pin_26*%
%TO.N,IRQ*%
X87376000Y-72644000D03*
%TO.P,J10,27,Pin_27*%
%TO.N,a13*%
X84836000Y-75184000D03*
%TO.P,J10,28,Pin_28*%
%TO.N,BE*%
X87376000Y-75184000D03*
%TO.P,J10,29,Pin_29*%
%TO.N,a14*%
X84836000Y-77724000D03*
%TO.P,J10,30,Pin_30*%
%TO.N,RDY*%
X87376000Y-77724000D03*
%TO.P,J10,31,Pin_31*%
%TO.N,a15*%
X84836000Y-80264000D03*
%TO.P,J10,32,Pin_32*%
%TO.N,VP*%
X87376000Y-80264000D03*
%TO.P,J10,33,Pin_33*%
%TO.N,/interface/IO2*%
X84836000Y-82804000D03*
%TO.P,J10,34,Pin_34*%
%TO.N,ML*%
X87376000Y-82804000D03*
%TO.P,J10,35,Pin_35*%
%TO.N,OE*%
X84836000Y-85344000D03*
%TO.P,J10,36,Pin_36*%
%TO.N,NMI*%
X87376000Y-85344000D03*
%TO.P,J10,37,Pin_37*%
%TO.N,+5V*%
X84836000Y-87884000D03*
%TO.P,J10,38,Pin_38*%
%TO.N,WE*%
X87376000Y-87884000D03*
%TO.P,J10,39,Pin_39*%
%TO.N,GND*%
X84836000Y-90424000D03*
%TO.P,J10,40,Pin_40*%
X87376000Y-90424000D03*
%TD*%
D29*
%TO.P,J9,7*%
%TO.N,N/C*%
X34854000Y-118834000D03*
X34854000Y-105134000D03*
D12*
%TO.P,J9,1*%
%TO.N,1pa5*%
X32004000Y-110684000D03*
D11*
%TO.P,J9,2*%
%TO.N,unconnected-(J9-Pad2)*%
X32004000Y-113284000D03*
%TO.P,J9,3*%
%TO.N,GND*%
X32004000Y-108584000D03*
%TO.P,J9,4*%
%TO.N,+5V*%
X32004000Y-115384000D03*
%TO.P,J9,5*%
%TO.N,1pa4*%
X29204000Y-108584000D03*
%TO.P,J9,6*%
%TO.N,unconnected-(J9-Pad6)*%
X29204000Y-115384000D03*
D30*
%TO.P,J9,7*%
%TO.N,N/C*%
X35654000Y-111984000D03*
%TD*%
D24*
%TO.P,J8,1,Pin_1*%
%TO.N,+5V*%
X40132000Y-64008000D03*
D23*
%TO.P,J8,2,Pin_2*%
%TO.N,GND*%
X37592000Y-64008000D03*
%TD*%
D24*
%TO.P,J7,1,Pin_1*%
%TO.N,a0*%
X69088000Y-42164000D03*
D23*
%TO.P,J7,2,Pin_2*%
%TO.N,d0*%
X71628000Y-42164000D03*
%TO.P,J7,3,Pin_3*%
%TO.N,a1*%
X69088000Y-44704000D03*
%TO.P,J7,4,Pin_4*%
%TO.N,d1*%
X71628000Y-44704000D03*
%TO.P,J7,5,Pin_5*%
%TO.N,a2*%
X69088000Y-47244000D03*
%TO.P,J7,6,Pin_6*%
%TO.N,d2*%
X71628000Y-47244000D03*
%TO.P,J7,7,Pin_7*%
%TO.N,a3*%
X69088000Y-49784000D03*
%TO.P,J7,8,Pin_8*%
%TO.N,d3*%
X71628000Y-49784000D03*
%TO.P,J7,9,Pin_9*%
%TO.N,a4*%
X69088000Y-52324000D03*
%TO.P,J7,10,Pin_10*%
%TO.N,d4*%
X71628000Y-52324000D03*
%TO.P,J7,11,Pin_11*%
%TO.N,a5*%
X69088000Y-54864000D03*
%TO.P,J7,12,Pin_12*%
%TO.N,d5*%
X71628000Y-54864000D03*
%TO.P,J7,13,Pin_13*%
%TO.N,a6*%
X69088000Y-57404000D03*
%TO.P,J7,14,Pin_14*%
%TO.N,d6*%
X71628000Y-57404000D03*
%TO.P,J7,15,Pin_15*%
%TO.N,a7*%
X69088000Y-59944000D03*
%TO.P,J7,16,Pin_16*%
%TO.N,d7*%
X71628000Y-59944000D03*
%TO.P,J7,17,Pin_17*%
%TO.N,a8*%
X69088000Y-62484000D03*
%TO.P,J7,18,Pin_18*%
%TO.N,RW*%
X71628000Y-62484000D03*
%TO.P,J7,19,Pin_19*%
%TO.N,a9*%
X69088000Y-65024000D03*
%TO.P,J7,20,Pin_20*%
%TO.N,PHI2*%
X71628000Y-65024000D03*
%TO.P,J7,21,Pin_21*%
%TO.N,a10*%
X69088000Y-67564000D03*
%TO.P,J7,22,Pin_22*%
%TO.N,RESET*%
X71628000Y-67564000D03*
%TO.P,J7,23,Pin_23*%
%TO.N,a11*%
X69088000Y-70104000D03*
%TO.P,J7,24,Pin_24*%
%TO.N,SYNC*%
X71628000Y-70104000D03*
%TO.P,J7,25,Pin_25*%
%TO.N,a12*%
X69088000Y-72644000D03*
%TO.P,J7,26,Pin_26*%
%TO.N,IRQ*%
X71628000Y-72644000D03*
%TO.P,J7,27,Pin_27*%
%TO.N,a13*%
X69088000Y-75184000D03*
%TO.P,J7,28,Pin_28*%
%TO.N,BE*%
X71628000Y-75184000D03*
%TO.P,J7,29,Pin_29*%
%TO.N,a14*%
X69088000Y-77724000D03*
%TO.P,J7,30,Pin_30*%
%TO.N,RDY*%
X71628000Y-77724000D03*
%TO.P,J7,31,Pin_31*%
%TO.N,a15*%
X69088000Y-80264000D03*
%TO.P,J7,32,Pin_32*%
%TO.N,VP*%
X71628000Y-80264000D03*
%TO.P,J7,33,Pin_33*%
%TO.N,/interface/IO1*%
X69088000Y-82804000D03*
%TO.P,J7,34,Pin_34*%
%TO.N,ML*%
X71628000Y-82804000D03*
%TO.P,J7,35,Pin_35*%
%TO.N,OE*%
X69088000Y-85344000D03*
%TO.P,J7,36,Pin_36*%
%TO.N,NMI*%
X71628000Y-85344000D03*
%TO.P,J7,37,Pin_37*%
%TO.N,+5V*%
X69088000Y-87884000D03*
%TO.P,J7,38,Pin_38*%
%TO.N,WE*%
X71628000Y-87884000D03*
%TO.P,J7,39,Pin_39*%
%TO.N,GND*%
X69088000Y-90424000D03*
%TO.P,J7,40,Pin_40*%
X71628000Y-90424000D03*
%TD*%
D31*
%TO.P,J6,3*%
%TO.N,N/C*%
X38052000Y-100262500D03*
D32*
%TO.P,J6,2*%
%TO.N,GND*%
X35052000Y-95562500D03*
D33*
%TO.P,J6,1*%
%TO.N,Net-(J6-Pad1)*%
X41052000Y-95562500D03*
%TD*%
D24*
%TO.P,J5,1,Pin_1*%
%TO.N,decode0*%
X55372000Y-203200000D03*
D23*
%TO.P,J5,2,Pin_2*%
%TO.N,decode1*%
X57912000Y-203200000D03*
%TO.P,J5,3,Pin_3*%
%TO.N,decode2*%
X60452000Y-203200000D03*
%TO.P,J5,4,Pin_4*%
%TO.N,decode3*%
X62992000Y-203200000D03*
%TD*%
D24*
%TO.P,J4,1,Pin_1*%
%TO.N,2pa0*%
X125476000Y-53101000D03*
D23*
%TO.P,J4,2,Pin_2*%
%TO.N,2pa1*%
X125476000Y-55641000D03*
%TO.P,J4,3,Pin_3*%
%TO.N,2pa2*%
X125476000Y-58181000D03*
%TO.P,J4,4,Pin_4*%
%TO.N,2pa3*%
X125476000Y-60721000D03*
%TO.P,J4,5,Pin_5*%
%TO.N,2pa4*%
X125476000Y-63261000D03*
%TO.P,J4,6,Pin_6*%
%TO.N,2pa5*%
X125476000Y-65801000D03*
%TO.P,J4,7,Pin_7*%
%TO.N,2pa6*%
X125476000Y-68341000D03*
%TO.P,J4,8,Pin_8*%
%TO.N,2pa7*%
X125476000Y-70881000D03*
%TD*%
D24*
%TO.P,J3,1,Pin_1*%
%TO.N,1CB2*%
X117109000Y-40132000D03*
D23*
%TO.P,J3,2,Pin_2*%
%TO.N,1CB1*%
X119649000Y-40132000D03*
%TO.P,J3,3,Pin_3*%
%TO.N,1CA1*%
X122189000Y-40132000D03*
%TO.P,J3,4,Pin_4*%
%TO.N,1CA2*%
X124729000Y-40132000D03*
%TO.P,J3,5,Pin_5*%
%TO.N,2CB1*%
X127269000Y-40132000D03*
%TO.P,J3,6,Pin_6*%
%TO.N,2CB2*%
X129809000Y-40132000D03*
%TO.P,J3,7,Pin_7*%
%TO.N,2CA1*%
X132349000Y-40132000D03*
%TO.P,J3,8,Pin_8*%
%TO.N,2CA2*%
X134889000Y-40132000D03*
%TD*%
D24*
%TO.P,J2,1,Pin_1*%
%TO.N,a0*%
X53340000Y-42164000D03*
D23*
%TO.P,J2,2,Pin_2*%
%TO.N,d0*%
X55880000Y-42164000D03*
%TO.P,J2,3,Pin_3*%
%TO.N,a1*%
X53340000Y-44704000D03*
%TO.P,J2,4,Pin_4*%
%TO.N,d1*%
X55880000Y-44704000D03*
%TO.P,J2,5,Pin_5*%
%TO.N,a2*%
X53340000Y-47244000D03*
%TO.P,J2,6,Pin_6*%
%TO.N,d2*%
X55880000Y-47244000D03*
%TO.P,J2,7,Pin_7*%
%TO.N,a3*%
X53340000Y-49784000D03*
%TO.P,J2,8,Pin_8*%
%TO.N,d3*%
X55880000Y-49784000D03*
%TO.P,J2,9,Pin_9*%
%TO.N,a4*%
X53340000Y-52324000D03*
%TO.P,J2,10,Pin_10*%
%TO.N,d4*%
X55880000Y-52324000D03*
%TO.P,J2,11,Pin_11*%
%TO.N,a5*%
X53340000Y-54864000D03*
%TO.P,J2,12,Pin_12*%
%TO.N,d5*%
X55880000Y-54864000D03*
%TO.P,J2,13,Pin_13*%
%TO.N,a6*%
X53340000Y-57404000D03*
%TO.P,J2,14,Pin_14*%
%TO.N,d6*%
X55880000Y-57404000D03*
%TO.P,J2,15,Pin_15*%
%TO.N,a7*%
X53340000Y-59944000D03*
%TO.P,J2,16,Pin_16*%
%TO.N,d7*%
X55880000Y-59944000D03*
%TO.P,J2,17,Pin_17*%
%TO.N,a8*%
X53340000Y-62484000D03*
%TO.P,J2,18,Pin_18*%
%TO.N,RW*%
X55880000Y-62484000D03*
%TO.P,J2,19,Pin_19*%
%TO.N,a9*%
X53340000Y-65024000D03*
%TO.P,J2,20,Pin_20*%
%TO.N,PHI2*%
X55880000Y-65024000D03*
%TO.P,J2,21,Pin_21*%
%TO.N,a10*%
X53340000Y-67564000D03*
%TO.P,J2,22,Pin_22*%
%TO.N,RESET*%
X55880000Y-67564000D03*
%TO.P,J2,23,Pin_23*%
%TO.N,a11*%
X53340000Y-70104000D03*
%TO.P,J2,24,Pin_24*%
%TO.N,SYNC*%
X55880000Y-70104000D03*
%TO.P,J2,25,Pin_25*%
%TO.N,a12*%
X53340000Y-72644000D03*
%TO.P,J2,26,Pin_26*%
%TO.N,IRQ*%
X55880000Y-72644000D03*
%TO.P,J2,27,Pin_27*%
%TO.N,a13*%
X53340000Y-75184000D03*
%TO.P,J2,28,Pin_28*%
%TO.N,BE*%
X55880000Y-75184000D03*
%TO.P,J2,29,Pin_29*%
%TO.N,a14*%
X53340000Y-77724000D03*
%TO.P,J2,30,Pin_30*%
%TO.N,RDY*%
X55880000Y-77724000D03*
%TO.P,J2,31,Pin_31*%
%TO.N,a15*%
X53340000Y-80264000D03*
%TO.P,J2,32,Pin_32*%
%TO.N,VP*%
X55880000Y-80264000D03*
%TO.P,J2,33,Pin_33*%
%TO.N,/interface/IO0*%
X53340000Y-82804000D03*
%TO.P,J2,34,Pin_34*%
%TO.N,ML*%
X55880000Y-82804000D03*
%TO.P,J2,35,Pin_35*%
%TO.N,OE*%
X53340000Y-85344000D03*
%TO.P,J2,36,Pin_36*%
%TO.N,NMI*%
X55880000Y-85344000D03*
%TO.P,J2,37,Pin_37*%
%TO.N,+5V*%
X53340000Y-87884000D03*
%TO.P,J2,38,Pin_38*%
%TO.N,WE*%
X55880000Y-87884000D03*
%TO.P,J2,39,Pin_39*%
%TO.N,GND*%
X53340000Y-90424000D03*
%TO.P,J2,40,Pin_40*%
X55880000Y-90424000D03*
%TD*%
D24*
%TO.P,J1,1,Pin_1*%
%TO.N,2pb0*%
X125476000Y-76708000D03*
D23*
%TO.P,J1,2,Pin_2*%
%TO.N,2pb1*%
X125476000Y-79248000D03*
%TO.P,J1,3,Pin_3*%
%TO.N,2pb2*%
X125476000Y-81788000D03*
%TO.P,J1,4,Pin_4*%
%TO.N,2pb3*%
X125476000Y-84328000D03*
%TO.P,J1,5,Pin_5*%
%TO.N,2pb4*%
X125476000Y-86868000D03*
%TO.P,J1,6,Pin_6*%
%TO.N,2pb5*%
X125476000Y-89408000D03*
%TO.P,J1,7,Pin_7*%
%TO.N,2pb6*%
X125476000Y-91948000D03*
%TO.P,J1,8,Pin_8*%
%TO.N,2pb7*%
X125476000Y-94488000D03*
%TD*%
D18*
%TO.P,D2,1,K*%
%TO.N,GND*%
X69088000Y-99060000D03*
D17*
%TO.P,D2,2,A*%
%TO.N,Net-(D2-A)*%
X71628000Y-99060000D03*
%TD*%
D18*
%TO.P,D1,1,K*%
%TO.N,GND*%
X37084000Y-50800000D03*
D17*
%TO.P,D1,2,A*%
%TO.N,Net-(D1-A)*%
X39624000Y-50800000D03*
%TD*%
D11*
%TO.P,C28,1*%
%TO.N,Net-(C27-Pad1)*%
X61936000Y-192024000D03*
%TO.P,C28,2*%
%TO.N,GND*%
X56936000Y-192024000D03*
%TD*%
%TO.P,C27,1*%
%TO.N,Net-(C27-Pad1)*%
X33052000Y-186944000D03*
%TO.P,C27,2*%
%TO.N,AUDIO_OUT_LEFT*%
X35052000Y-186944000D03*
%TD*%
%TO.P,C26,1*%
%TO.N,+5V*%
X197572000Y-165100000D03*
%TO.P,C26,2*%
%TO.N,GND*%
X192572000Y-165100000D03*
%TD*%
%TO.P,C25,2*%
%TO.N,GND*%
X162092000Y-152400000D03*
%TO.P,C25,1*%
%TO.N,+5V*%
X167092000Y-152400000D03*
%TD*%
%TO.P,C24,1*%
%TO.N,+5V*%
X229576000Y-182372000D03*
%TO.P,C24,2*%
%TO.N,GND*%
X224576000Y-182372000D03*
%TD*%
%TO.P,C23,1*%
%TO.N,Net-(C22-Pad1)*%
X73740000Y-191516000D03*
%TO.P,C23,2*%
%TO.N,GND*%
X78740000Y-191516000D03*
%TD*%
%TO.P,C22,1*%
%TO.N,Net-(C22-Pad1)*%
X42164000Y-186944000D03*
%TO.P,C22,2*%
%TO.N,AUDIO_OUT_RIGHT*%
X44164000Y-186944000D03*
%TD*%
%TO.P,C21,1*%
%TO.N,GND*%
X215900000Y-206756000D03*
%TO.P,C21,2*%
%TO.N,Net-(U13-VS-)*%
X213900000Y-206756000D03*
%TD*%
%TO.P,C20,1*%
%TO.N,Net-(U13-VS+)*%
X215884000Y-183896000D03*
%TO.P,C20,2*%
%TO.N,GND*%
X213884000Y-183896000D03*
%TD*%
%TO.P,C19,1*%
%TO.N,Net-(U13-C2+)*%
X215900000Y-199136000D03*
%TO.P,C19,2*%
%TO.N,Net-(U13-C2-)*%
X213900000Y-199136000D03*
%TD*%
%TO.P,C18,1*%
%TO.N,Net-(U13-C1+)*%
X215900000Y-191516000D03*
%TO.P,C18,2*%
%TO.N,Net-(U13-C1-)*%
X213900000Y-191516000D03*
%TD*%
%TO.P,C17,1*%
%TO.N,+5V*%
X140676000Y-152400000D03*
%TO.P,C17,2*%
%TO.N,GND*%
X135676000Y-152400000D03*
%TD*%
%TO.P,C16,1*%
%TO.N,+5V*%
X66832000Y-146304000D03*
%TO.P,C16,2*%
%TO.N,GND*%
X71832000Y-146304000D03*
%TD*%
%TO.P,C15,1*%
%TO.N,+5V*%
X55912000Y-142748000D03*
%TO.P,C15,2*%
%TO.N,Net-(U11-THR)*%
X57912000Y-142748000D03*
%TD*%
%TO.P,C14,1*%
%TO.N,+5V*%
X163108000Y-41148000D03*
%TO.P,C14,2*%
%TO.N,GND*%
X168108000Y-41148000D03*
%TD*%
%TO.P,C13,1*%
%TO.N,GND*%
X75732000Y-159004000D03*
%TO.P,C13,2*%
%TO.N,Net-(U11-CV)*%
X80732000Y-159004000D03*
%TD*%
%TO.P,C12,1*%
%TO.N,+5V*%
X41108000Y-74168000D03*
%TO.P,C12,2*%
%TO.N,GND*%
X36108000Y-74168000D03*
%TD*%
%TO.P,C11,2*%
%TO.N,GND*%
X168696000Y-106172000D03*
%TO.P,C11,1*%
%TO.N,+5V*%
X173696000Y-106172000D03*
%TD*%
%TO.P,C10,2*%
%TO.N,GND*%
X118364000Y-106172000D03*
%TO.P,C10,1*%
%TO.N,+5V*%
X123364000Y-106172000D03*
%TD*%
%TO.P,C9,2*%
%TO.N,GND*%
X99528000Y-105664000D03*
%TO.P,C9,1*%
%TO.N,+5V*%
X94528000Y-105664000D03*
%TD*%
%TO.P,C8,2*%
%TO.N,GND*%
X136224000Y-45720000D03*
%TO.P,C8,1*%
%TO.N,+5V*%
X141224000Y-45720000D03*
%TD*%
%TO.P,C7,2*%
%TO.N,NMI*%
X78192000Y-126492000D03*
%TO.P,C7,1*%
%TO.N,GND*%
X73192000Y-126492000D03*
%TD*%
%TO.P,C6,2*%
%TO.N,GND*%
X229616000Y-106172000D03*
%TO.P,C6,1*%
%TO.N,+5V*%
X224616000Y-106172000D03*
%TD*%
%TO.P,C5,2*%
%TO.N,GND*%
X194056000Y-106172000D03*
%TO.P,C5,1*%
%TO.N,+5V*%
X199056000Y-106172000D03*
%TD*%
%TO.P,C4,2*%
%TO.N,GND*%
X154512000Y-106172000D03*
%TO.P,C4,1*%
%TO.N,+5V*%
X159512000Y-106172000D03*
%TD*%
%TO.P,C3,2*%
%TO.N,GND*%
X136732000Y-106172000D03*
%TO.P,C3,1*%
%TO.N,+5V*%
X141732000Y-106172000D03*
%TD*%
%TO.P,C2,1*%
%TO.N,+5V*%
X123444000Y-132080000D03*
%TO.P,C2,2*%
%TO.N,GND*%
X118444000Y-132080000D03*
%TD*%
%TO.P,C1,2*%
%TO.N,GND*%
X109260000Y-45720000D03*
%TO.P,C1,1*%
%TO.N,+5V*%
X114260000Y-45720000D03*
%TD*%
D34*
%TO.N,Net-(U16-BDIR)*%
X137244000Y-117335000D03*
X161655000Y-119865000D03*
%TO.N,Net-(U16-BC1)*%
X122314000Y-121153000D03*
X122314000Y-129256000D03*
X130670000Y-132503000D03*
X118620000Y-148342000D03*
X154534000Y-153164000D03*
X160434000Y-185420000D03*
%TO.N,Net-(U15-BDIR)*%
X115705000Y-134671000D03*
X149354000Y-144012000D03*
%TO.N,Net-(U15-BC1)*%
X148291000Y-154003000D03*
X109108000Y-144013000D03*
%TO.N,Net-(U6-Za)*%
X196151000Y-105276000D03*
X169277000Y-108476000D03*
%TO.N,BANKED_RAM_CS*%
X151421000Y-125686000D03*
X154266000Y-117332000D03*
%TO.N,Net-(U16-ch_C)*%
X105107000Y-162357000D03*
%TO.N,Net-(U16-~{A9})*%
X148864000Y-197126000D03*
%TO.N,Net-(U16-A8)*%
X126755000Y-184736000D03*
%TO.N,1pb6*%
X176812000Y-84968000D03*
%TO.N,1pb5*%
X126871000Y-47826000D03*
X123610000Y-65836300D03*
%TO.N,1pb4*%
X174475000Y-90026900D03*
X144333000Y-92220800D03*
X139294000Y-100225000D03*
X107705000Y-97740700D03*
%TO.N,1pb2*%
X122450000Y-68613000D03*
X124017000Y-54431800D03*
%TO.N,1pb1*%
X110546000Y-72534300D03*
X123489000Y-95548400D03*
X192572000Y-92710000D03*
%TO.N,1pb0*%
X129464000Y-49087200D03*
X129248000Y-73696600D03*
X114635000Y-78342400D03*
X108097000Y-72027100D03*
%TO.N,RAM_CS*%
X163813000Y-130039000D03*
X167143000Y-144365000D03*
%TO.N,ROM_CS*%
X140088000Y-131313000D03*
X134406000Y-146822000D03*
%TO.N,PSG2_CS*%
X147510000Y-121723000D03*
X136923000Y-119848000D03*
%TO.N,ACIA_IRQ*%
X201373000Y-151714000D03*
%TO.N,2VIA_IRQ*%
X113492000Y-138997000D03*
X115128000Y-104121000D03*
%TO.N,1VIA_IRQ*%
X120841000Y-132458000D03*
X119129000Y-130156000D03*
%TO.N,Net-(U13-R1IN)*%
X45927300Y-207815000D03*
%TO.N,1pa3*%
X176152000Y-95335900D03*
X124243000Y-97058800D03*
%TO.N,1pa2*%
X172442000Y-123952000D03*
X116929000Y-59265700D03*
%TO.N,1pa1*%
X120982000Y-59574300D03*
%TO.N,1pa0*%
X121709000Y-57135500D03*
%TO.N,Net-(JP1-B)*%
X106345000Y-170861000D03*
%TO.N,PSG2IOB7*%
X133424000Y-168910000D03*
%TO.N,PSG2IOB6*%
X148364000Y-201103000D03*
%TO.N,PSG2IOB5*%
X115304000Y-182317000D03*
%TO.N,PSG2IOB2*%
X113136000Y-190115000D03*
%TO.N,PSG2IOB1*%
X116453000Y-194310000D03*
%TO.N,Net-(U13-T1OUT)*%
X218206000Y-158836000D03*
%TO.N,IO9*%
X151062000Y-189339000D03*
%TO.N,IO8*%
X71559900Y-205191000D03*
%TO.N,IO6*%
X147258000Y-199282000D03*
%TO.N,decode0*%
X71839500Y-110359000D03*
%TO.N,1CB1*%
X128383000Y-45079400D03*
X128383000Y-89647600D03*
%TO.N,1CB2*%
X109792000Y-53430500D03*
X110170000Y-54891600D03*
X117445000Y-68616600D03*
X101139000Y-80872700D03*
%TO.N,OE*%
X174216000Y-135130000D03*
X86441200Y-107020000D03*
%TO.N,WE*%
X92498400Y-90037200D03*
X111578000Y-89776100D03*
X111578000Y-125030000D03*
%TO.N,a13*%
X190552000Y-134998000D03*
X121599000Y-136323000D03*
%TO.N,IRQ*%
X102744000Y-142414000D03*
X93279000Y-125718000D03*
%TO.N,a11*%
X191405000Y-129032000D03*
X184873000Y-136573000D03*
X125871000Y-137447000D03*
X59765800Y-70741900D03*
%TO.N,RESET*%
X123156000Y-163133000D03*
X66195800Y-148414000D03*
%TO.N,a10*%
X132506000Y-131313000D03*
X128810000Y-135774000D03*
X59676900Y-84021300D03*
%TO.N,PHI2*%
X105952000Y-92049000D03*
X120813000Y-148590000D03*
X202375000Y-151766000D03*
X109371000Y-92712000D03*
X139402000Y-113296000D03*
X133384000Y-147871000D03*
%TO.N,a9*%
X119828000Y-154532000D03*
%TO.N,RW*%
X199469000Y-169911000D03*
X205842000Y-96520000D03*
X106978000Y-100424000D03*
%TO.N,a8*%
X118811000Y-155048000D03*
X186628000Y-136547000D03*
X134225000Y-145368000D03*
%TO.N,d7*%
X103177000Y-80161900D03*
X117546000Y-92853100D03*
X143856000Y-182880000D03*
X129116000Y-158491000D03*
X114858000Y-92807200D03*
%TO.N,a7*%
X181091000Y-121875000D03*
X121516000Y-156908000D03*
X144235000Y-112464000D03*
X106995000Y-108848000D03*
%TO.N,d6*%
X153848000Y-180340000D03*
X159093000Y-182987000D03*
X151871000Y-155177000D03*
%TO.N,a6*%
X162620000Y-118613000D03*
X165113000Y-134114000D03*
X54083600Y-91773700D03*
X56138200Y-91895900D03*
X61808900Y-137831000D03*
X162112000Y-149484000D03*
X130321000Y-150517000D03*
X119553000Y-157377000D03*
%TO.N,d5*%
X200370000Y-176402000D03*
X198910000Y-144272000D03*
%TO.N,a5*%
X178406000Y-119778000D03*
X149765000Y-107548000D03*
X78812900Y-104457000D03*
%TO.N,d4*%
X203822000Y-175882000D03*
X112868000Y-80825600D03*
X145774000Y-144916000D03*
X112832000Y-101626000D03*
X153021000Y-104039000D03*
%TO.N,a4*%
X176674000Y-112380000D03*
X85016500Y-140830000D03*
X153056000Y-108297000D03*
X78084400Y-105790000D03*
%TO.N,d3*%
X110141000Y-78552200D03*
X204646000Y-163882000D03*
X147412000Y-144464000D03*
%TO.N,a3*%
X86329600Y-53594000D03*
X84289500Y-138684000D03*
X178109000Y-63500000D03*
%TO.N,d2*%
X105558000Y-58193200D03*
X111474000Y-78021800D03*
X176572000Y-140954000D03*
%TO.N,a2*%
X126679000Y-100951000D03*
X115982000Y-100951000D03*
X113917000Y-132967000D03*
%TO.N,d1*%
X92863000Y-49157100D03*
X110182000Y-79554200D03*
X169726000Y-167640000D03*
X171424000Y-140795000D03*
%TO.N,a1*%
X202917000Y-137538000D03*
X123328000Y-51924100D03*
X139882000Y-51997600D03*
X210496000Y-58420000D03*
X51667800Y-93966000D03*
X80361600Y-96769800D03*
%TO.N,d0*%
X110952000Y-80840300D03*
X196222000Y-143002000D03*
X175461000Y-141026000D03*
X106771000Y-131578000D03*
X107775000Y-55375300D03*
%TO.N,a0*%
X84264500Y-132308000D03*
X215626000Y-55880000D03*
X198852600Y-140462000D03*
%TO.N,+5V*%
X223942000Y-179792000D03*
%TD*%
D35*
%TO.N,Net-(U16-BDIR)*%
X144137000Y-117335000D02*
X137244000Y-117335000D01*
X146667000Y-119865000D02*
X144137000Y-117335000D01*
X161655000Y-119865000D02*
X146667000Y-119865000D01*
%TO.N,Net-(U16-BC1)*%
X160434000Y-185420000D02*
X172212000Y-185420000D01*
X141801000Y-153164000D02*
X154534000Y-153164000D01*
X141414000Y-153551000D02*
X141801000Y-153164000D01*
X123829000Y-153551000D02*
X141414000Y-153551000D01*
X118620000Y-148342000D02*
X123829000Y-153551000D01*
X124460000Y-121153000D02*
X122314000Y-121153000D01*
X125561000Y-132503000D02*
X130670000Y-132503000D01*
X122314000Y-129256000D02*
X125561000Y-132503000D01*
%TO.N,Net-(U12-RxD)*%
X229769000Y-197348000D02*
X230896000Y-197348000D01*
X228580000Y-196159000D02*
X229769000Y-197348000D01*
X212929000Y-196159000D02*
X228580000Y-196159000D01*
X212364000Y-196724000D02*
X212929000Y-196159000D01*
X189706000Y-196724000D02*
X212364000Y-196724000D01*
X188579000Y-197851000D02*
X189706000Y-196724000D01*
X187452000Y-197851000D02*
X188579000Y-197851000D01*
%TO.N,Net-(U12-TxD)*%
X188579000Y-192771000D02*
X187452000Y-192771000D01*
X189706000Y-193898000D02*
X188579000Y-192771000D01*
X212650000Y-193898000D02*
X189706000Y-193898000D01*
X212920000Y-193628000D02*
X212650000Y-193898000D01*
X227916000Y-193628000D02*
X212920000Y-193628000D01*
X230366000Y-196078000D02*
X227916000Y-193628000D01*
X231289000Y-196078000D02*
X230366000Y-196078000D01*
X232055000Y-196844000D02*
X231289000Y-196078000D01*
X232055000Y-197835000D02*
X232055000Y-196844000D01*
X231130000Y-198761000D02*
X232055000Y-197835000D01*
X230896000Y-198761000D02*
X231130000Y-198761000D01*
X230896000Y-199888000D02*
X230896000Y-198761000D01*
%TO.N,Net-(U15-BDIR)*%
X149079000Y-143737000D02*
X149354000Y-144012000D01*
X132933000Y-143737000D02*
X149079000Y-143737000D01*
X131630000Y-142434000D02*
X132933000Y-143737000D01*
X130608000Y-142434000D02*
X131630000Y-142434000D01*
X126538000Y-138364000D02*
X130608000Y-142434000D01*
X121926000Y-138364000D02*
X126538000Y-138364000D01*
X119403000Y-135840000D02*
X121926000Y-138364000D01*
X116875000Y-135840000D02*
X119403000Y-135840000D01*
X115705000Y-134671000D02*
X116875000Y-135840000D01*
%TO.N,Net-(U15-BC1)*%
X123253000Y-154003000D02*
X148291000Y-154003000D01*
X117840000Y-148590000D02*
X123253000Y-154003000D01*
X113684000Y-148590000D02*
X117840000Y-148590000D01*
X109108000Y-144013000D02*
X113684000Y-148590000D01*
%TO.N,Net-(U6-Zd)*%
X187849000Y-111252000D02*
X188976000Y-111252000D01*
X187849000Y-111364000D02*
X187849000Y-111252000D01*
X177801000Y-121412000D02*
X187849000Y-111364000D01*
X175016000Y-121412000D02*
X177801000Y-121412000D01*
%TO.N,/audio/a0*%
X123333000Y-123693000D02*
X124460000Y-123693000D01*
X122206000Y-122566000D02*
X123333000Y-123693000D01*
X116629000Y-122566000D02*
X122206000Y-122566000D01*
X115690000Y-121627000D02*
X116629000Y-122566000D01*
X115690000Y-118116000D02*
X115690000Y-121627000D01*
X116606000Y-117200000D02*
X115690000Y-118116000D01*
X116840000Y-117200000D02*
X116606000Y-117200000D01*
X116840000Y-116073000D02*
X116840000Y-117200000D01*
%TO.N,Net-(U6-Zc)*%
X203089000Y-116332000D02*
X204216000Y-116332000D01*
X201902000Y-115145000D02*
X203089000Y-116332000D01*
X188499000Y-115145000D02*
X201902000Y-115145000D01*
X183600000Y-120044000D02*
X188499000Y-115145000D01*
X183600000Y-120394000D02*
X183600000Y-120044000D01*
X176089000Y-127905000D02*
X183600000Y-120394000D01*
X175016000Y-127905000D02*
X176089000Y-127905000D01*
X175016000Y-129032000D02*
X175016000Y-127905000D01*
%TO.N,Net-(U6-Zb)*%
X168523000Y-126492000D02*
X167396000Y-126492000D01*
X172447000Y-122568000D02*
X168523000Y-126492000D01*
X179074000Y-122568000D02*
X172447000Y-122568000D01*
X187849000Y-113792000D02*
X179074000Y-122568000D01*
X188976000Y-113792000D02*
X187849000Y-113792000D01*
%TO.N,Net-(U6-Za)*%
X172986000Y-108476000D02*
X169277000Y-108476000D01*
X176465000Y-104997000D02*
X172986000Y-108476000D01*
X195872000Y-104997000D02*
X176465000Y-104997000D01*
X196151000Y-105276000D02*
X195872000Y-104997000D01*
%TO.N,BANKED_RAM_CS*%
X150874000Y-126233000D02*
X151421000Y-125686000D01*
X143012000Y-126233000D02*
X150874000Y-126233000D01*
X166269000Y-111252000D02*
X167396000Y-111252000D01*
X165258000Y-112263000D02*
X166269000Y-111252000D01*
X159335000Y-112263000D02*
X165258000Y-112263000D01*
X154266000Y-117332000D02*
X159335000Y-112263000D01*
%TO.N,Net-(U10-VO)*%
X176254000Y-49207400D02*
X176254000Y-50371000D01*
X166343000Y-51534600D02*
X156972000Y-42164000D01*
X176254000Y-51534600D02*
X166343000Y-51534600D01*
X176254000Y-50371000D02*
X176254000Y-51534600D01*
X176254400Y-50370600D02*
X176254400Y-49207400D01*
X176254000Y-50371000D02*
X176254400Y-50370600D01*
%TO.N,Net-(U16-ch_A)*%
X81280000Y-172831000D02*
X81280000Y-171704000D01*
X80137000Y-173974000D02*
X81280000Y-172831000D01*
X80137000Y-176743000D02*
X80137000Y-173974000D01*
X82079500Y-178686000D02*
X80137000Y-176743000D01*
X102367000Y-178686000D02*
X82079500Y-178686000D01*
X112240000Y-168813000D02*
X102367000Y-178686000D01*
X131056000Y-168813000D02*
X112240000Y-168813000D01*
X132551000Y-167318000D02*
X131056000Y-168813000D01*
X142321000Y-167318000D02*
X132551000Y-167318000D01*
X143183000Y-166456000D02*
X142321000Y-167318000D01*
X154489000Y-166456000D02*
X143183000Y-166456000D01*
X155845000Y-165100000D02*
X154489000Y-166456000D01*
X156972000Y-165100000D02*
X155845000Y-165100000D01*
%TO.N,Net-(U16-ch_B)*%
X148332000Y-162560000D02*
X156972000Y-162560000D01*
X146980000Y-163912000D02*
X148332000Y-162560000D01*
X143335000Y-163912000D02*
X146980000Y-163912000D01*
X140990000Y-166257000D02*
X143335000Y-163912000D01*
X125714000Y-166257000D02*
X140990000Y-166257000D01*
X124950000Y-165494000D02*
X125714000Y-166257000D01*
X93188900Y-165494000D02*
X124950000Y-165494000D01*
X82406900Y-176276000D02*
X93188900Y-165494000D01*
X81280000Y-176276000D02*
X82406900Y-176276000D01*
%TO.N,Net-(U16-ch_C)*%
X106044000Y-161421000D02*
X105107000Y-162357000D01*
X169946000Y-161421000D02*
X106044000Y-161421000D01*
X171085000Y-162560000D02*
X169946000Y-161421000D01*
X172212000Y-162560000D02*
X171085000Y-162560000D01*
%TO.N,Net-(U16-~{A9})*%
X149043000Y-196948000D02*
X148864000Y-197126000D01*
X169913000Y-196948000D02*
X149043000Y-196948000D01*
X171085000Y-198120000D02*
X169913000Y-196948000D01*
X172212000Y-198120000D02*
X171085000Y-198120000D01*
%TO.N,Net-(U16-A8)*%
X169176000Y-195580000D02*
X172212000Y-195580000D01*
X157877000Y-184280000D02*
X169176000Y-195580000D01*
X155717000Y-184280000D02*
X157877000Y-184280000D01*
X153401000Y-186597000D02*
X155717000Y-184280000D01*
X128616000Y-186597000D02*
X153401000Y-186597000D01*
X126755000Y-184736000D02*
X128616000Y-186597000D01*
%TO.N,CLK_1.8432*%
X222773000Y-178801000D02*
X234696000Y-166878000D01*
X201426000Y-178801000D02*
X222773000Y-178801000D01*
X197616000Y-182611000D02*
X201426000Y-178801000D01*
X187452000Y-182611000D02*
X197616000Y-182611000D01*
X171085000Y-203200000D02*
X172212000Y-203200000D01*
X169894000Y-202009000D02*
X171085000Y-203200000D01*
X148114000Y-202009000D02*
X169894000Y-202009000D01*
X146923000Y-203200000D02*
X148114000Y-202009000D01*
X145796000Y-203200000D02*
X146923000Y-203200000D01*
%TO.N,1pb6*%
X129951000Y-84968000D02*
X176812000Y-84968000D01*
X126847000Y-88071400D02*
X129951000Y-84968000D01*
X122218000Y-88071400D02*
X126847000Y-88071400D01*
X121887000Y-87740300D02*
X122218000Y-88071400D01*
X106427000Y-87740300D02*
X121887000Y-87740300D01*
X105267000Y-88900000D02*
X106427000Y-87740300D01*
X104140000Y-88900000D02*
X105267000Y-88900000D01*
%TO.N,1pb5*%
X122120000Y-65836300D02*
X123610000Y-65836300D01*
X120735000Y-67220700D02*
X122120000Y-65836300D01*
X113931000Y-67220700D02*
X120735000Y-67220700D01*
X106222000Y-74930000D02*
X113931000Y-67220700D01*
X103785000Y-74930000D02*
X106222000Y-74930000D01*
X100382000Y-78332700D02*
X103785000Y-74930000D01*
X100382000Y-82602200D02*
X100382000Y-78332700D01*
X104140000Y-86360000D02*
X100382000Y-82602200D01*
X181334000Y-49207400D02*
X181334000Y-50371000D01*
X147616000Y-47826000D02*
X126871000Y-47826000D01*
X152262000Y-43180400D02*
X147616000Y-47826000D01*
X155448000Y-43180400D02*
X152262000Y-43180400D01*
X164280000Y-52012200D02*
X155448000Y-43180400D01*
X180857000Y-52012200D02*
X164280000Y-52012200D01*
X181334000Y-51534600D02*
X180857000Y-52012200D01*
X181334000Y-50371000D02*
X181334000Y-51534600D01*
X181334400Y-50370600D02*
X181334400Y-49207400D01*
X181334000Y-50371000D02*
X181334400Y-50370600D01*
%TO.N,1pb4*%
X110053000Y-95392700D02*
X107705000Y-97740700D01*
X120604000Y-95392700D02*
X110053000Y-95392700D01*
X124604000Y-99392800D02*
X120604000Y-95392700D01*
X129106000Y-99392800D02*
X124604000Y-99392800D01*
X129939000Y-100225000D02*
X129106000Y-99392800D01*
X139294000Y-100225000D02*
X129939000Y-100225000D01*
X146105000Y-90026900D02*
X174475000Y-90026900D01*
X144333000Y-91799000D02*
X146105000Y-90026900D01*
X144333000Y-92220800D02*
X144333000Y-91799000D01*
%TO.N,1pb3*%
X204194000Y-51534600D02*
X204194000Y-50371000D01*
X212316000Y-51534600D02*
X204194000Y-51534600D01*
X216394000Y-55613400D02*
X212316000Y-51534600D01*
X216394000Y-56212900D02*
X216394000Y-55613400D01*
X195040000Y-77567700D02*
X216394000Y-56212900D01*
X129582000Y-77567700D02*
X195040000Y-77567700D01*
X126719000Y-80430900D02*
X129582000Y-77567700D01*
X121067000Y-80430900D02*
X126719000Y-80430900D01*
X120751000Y-80115200D02*
X121067000Y-80430900D01*
X117471000Y-80115200D02*
X120751000Y-80115200D01*
X115523000Y-82063500D02*
X117471000Y-80115200D01*
X106050000Y-82063500D02*
X115523000Y-82063500D01*
X105267000Y-81280000D02*
X106050000Y-82063500D01*
X104140000Y-81280000D02*
X105267000Y-81280000D01*
X204194000Y-50371000D02*
X204194000Y-49207400D01*
X204194400Y-50370600D02*
X204194400Y-49207400D01*
X204194000Y-50371000D02*
X204194400Y-50370600D01*
%TO.N,1pb2*%
X105267000Y-78740000D02*
X104140000Y-78740000D01*
X108133000Y-81606300D02*
X105267000Y-78740000D01*
X111257000Y-81606300D02*
X108133000Y-81606300D01*
X111721000Y-81141900D02*
X111257000Y-81606300D01*
X111721000Y-80581300D02*
X111721000Y-81141900D01*
X111253000Y-80113400D02*
X111721000Y-80581300D01*
X110651000Y-80113400D02*
X111253000Y-80113400D01*
X110468000Y-80296500D02*
X110651000Y-80113400D01*
X109858000Y-80296500D02*
X110468000Y-80296500D01*
X108930000Y-79369200D02*
X109858000Y-80296500D01*
X108930000Y-78095900D02*
X108930000Y-79369200D01*
X117176000Y-69850000D02*
X108930000Y-78095900D01*
X121006000Y-69850000D02*
X117176000Y-69850000D01*
X122243000Y-68613000D02*
X121006000Y-69850000D01*
X122450000Y-68613000D02*
X122243000Y-68613000D01*
X201654000Y-49207400D02*
X201654000Y-50371000D01*
X125931000Y-54431800D02*
X124017000Y-54431800D01*
X125990000Y-54491100D02*
X125931000Y-54431800D01*
X198698000Y-54491100D02*
X125990000Y-54491100D01*
X201654000Y-51534600D02*
X198698000Y-54491100D01*
X201654000Y-50371000D02*
X201654000Y-51534600D01*
X201654400Y-50370600D02*
X201654400Y-49207400D01*
X201654000Y-50371000D02*
X201654400Y-50370600D01*
%TO.N,1pb1*%
X106880000Y-76200000D02*
X110546000Y-72534300D01*
X104140000Y-76200000D02*
X106880000Y-76200000D01*
X144872000Y-92710000D02*
X192572000Y-92710000D01*
X144634000Y-92947700D02*
X144872000Y-92710000D01*
X144032000Y-92947700D02*
X144634000Y-92947700D01*
X143913000Y-92828800D02*
X144032000Y-92947700D01*
X129035000Y-92828800D02*
X143913000Y-92828800D01*
X126183000Y-95681100D02*
X129035000Y-92828800D01*
X123622000Y-95681100D02*
X126183000Y-95681100D01*
X123489000Y-95548400D02*
X123622000Y-95681100D01*
%TO.N,1pb0*%
X118191000Y-74786900D02*
X114635000Y-78342400D01*
X120053000Y-74786900D02*
X118191000Y-74786900D01*
X121144000Y-73696600D02*
X120053000Y-74786900D01*
X129248000Y-73696600D02*
X121144000Y-73696600D01*
X106900000Y-72027100D02*
X108097000Y-72027100D01*
X105267000Y-73660000D02*
X106900000Y-72027100D01*
X104140000Y-73660000D02*
X105267000Y-73660000D01*
X196574000Y-49207400D02*
X196574000Y-50371000D01*
X148382000Y-49087200D02*
X129464000Y-49087200D01*
X153837000Y-43632300D02*
X148382000Y-49087200D01*
X155078000Y-43632300D02*
X153837000Y-43632300D01*
X163910000Y-52464100D02*
X155078000Y-43632300D01*
X195645000Y-52464100D02*
X163910000Y-52464100D01*
X196574000Y-51534600D02*
X195645000Y-52464100D01*
X196574000Y-50371000D02*
X196574000Y-51534600D01*
X196574400Y-50370600D02*
X196574400Y-49207400D01*
X196574000Y-50371000D02*
X196574400Y-50370600D01*
%TO.N,1pa7*%
X30775800Y-126598000D02*
X31910000Y-127732000D01*
X30775800Y-125144000D02*
X30775800Y-126598000D01*
X31919000Y-124001000D02*
X30775800Y-125144000D01*
X55725200Y-124001000D02*
X31919000Y-124001000D01*
X70093900Y-109632000D02*
X55725200Y-124001000D01*
X71854000Y-109632000D02*
X70093900Y-109632000D01*
X99930300Y-81555600D02*
X71854000Y-109632000D01*
X99930300Y-76223100D02*
X99930300Y-81555600D01*
X103906000Y-72246900D02*
X99930300Y-76223100D01*
X104140000Y-72246900D02*
X103906000Y-72246900D01*
X104140000Y-71120000D02*
X104140000Y-72246900D01*
%TO.N,1pa6*%
X31196600Y-123545000D02*
X29110000Y-125632000D01*
X55541300Y-123545000D02*
X31196600Y-123545000D01*
X69906700Y-109180000D02*
X55541300Y-123545000D01*
X71653000Y-109180000D02*
X69906700Y-109180000D01*
X99332200Y-81500800D02*
X71653000Y-109180000D01*
X99332200Y-74232900D02*
X99332200Y-81500800D01*
X103858000Y-69706900D02*
X99332200Y-74232900D01*
X104140000Y-69706900D02*
X103858000Y-69706900D01*
X104140000Y-68580000D02*
X104140000Y-69706900D01*
%TO.N,2pa7*%
X126892000Y-71120000D02*
X131064000Y-71120000D01*
X126653000Y-70881000D02*
X126892000Y-71120000D01*
X125476000Y-70881000D02*
X126653000Y-70881000D01*
%TO.N,2pa6*%
X129698000Y-68341000D02*
X125476000Y-68341000D01*
X129937000Y-68580000D02*
X129698000Y-68341000D01*
X131064000Y-68580000D02*
X129937000Y-68580000D01*
%TO.N,2pa5*%
X129885000Y-65801000D02*
X125476000Y-65801000D01*
X130124000Y-66040000D02*
X129885000Y-65801000D01*
X131064000Y-66040000D02*
X130124000Y-66040000D01*
%TO.N,2pa4*%
X129698000Y-63261000D02*
X125476000Y-63261000D01*
X129937000Y-63500000D02*
X129698000Y-63261000D01*
X131064000Y-63500000D02*
X129937000Y-63500000D01*
%TO.N,2pa3*%
X126892000Y-60960000D02*
X131064000Y-60960000D01*
X126653000Y-60721000D02*
X126892000Y-60960000D01*
X125476000Y-60721000D02*
X126653000Y-60721000D01*
%TO.N,2pa2*%
X129698000Y-58181000D02*
X125476000Y-58181000D01*
X129937000Y-58420000D02*
X129698000Y-58181000D01*
X131064000Y-58420000D02*
X129937000Y-58420000D01*
%TO.N,2pa1*%
X129698000Y-55641000D02*
X125476000Y-55641000D01*
X129937000Y-55880000D02*
X129698000Y-55641000D01*
X131064000Y-55880000D02*
X129937000Y-55880000D01*
%TO.N,2pa0*%
X129698000Y-53101000D02*
X125476000Y-53101000D01*
X129937000Y-53340000D02*
X129698000Y-53101000D01*
X131064000Y-53340000D02*
X129937000Y-53340000D01*
%TO.N,RAM_CS*%
X179540000Y-144365000D02*
X167143000Y-144365000D01*
X185872000Y-138033000D02*
X179540000Y-144365000D01*
X200714000Y-138033000D02*
X185872000Y-138033000D01*
X201003000Y-138321000D02*
X200714000Y-138033000D01*
X203178000Y-138321000D02*
X201003000Y-138321000D01*
X203721000Y-137779000D02*
X203178000Y-138321000D01*
X204216000Y-137779000D02*
X203721000Y-137779000D01*
X204216000Y-136652000D02*
X204216000Y-137779000D01*
X145405000Y-130039000D02*
X163813000Y-130039000D01*
X144139000Y-128773000D02*
X145405000Y-130039000D01*
X143012000Y-128773000D02*
X144139000Y-128773000D01*
%TO.N,ROM_CS*%
X143012000Y-131313000D02*
X140088000Y-131313000D01*
X236025000Y-142191000D02*
X234696000Y-140862000D01*
X236025000Y-154037000D02*
X236025000Y-142191000D01*
X235441000Y-154620000D02*
X236025000Y-154037000D01*
X206485000Y-154620000D02*
X235441000Y-154620000D01*
X202399000Y-150535000D02*
X206485000Y-154620000D01*
X187851000Y-150535000D02*
X202399000Y-150535000D01*
X187175000Y-149858000D02*
X187851000Y-150535000D01*
X167160000Y-149858000D02*
X187175000Y-149858000D01*
X164124000Y-146822000D02*
X167160000Y-149858000D01*
X134406000Y-146822000D02*
X164124000Y-146822000D01*
%TO.N,DEVICE_CS*%
X144139000Y-118613000D02*
X143012000Y-118613000D01*
X145861000Y-120335000D02*
X144139000Y-118613000D01*
X147150000Y-120335000D02*
X145861000Y-120335000D01*
X149379000Y-122565000D02*
X147150000Y-120335000D01*
X158273000Y-122565000D02*
X149379000Y-122565000D01*
X159401000Y-123693000D02*
X158273000Y-122565000D01*
X160528000Y-123693000D02*
X159401000Y-123693000D01*
%TO.N,PSG2_CS*%
X143301000Y-119848000D02*
X136923000Y-119848000D01*
X145176000Y-121723000D02*
X143301000Y-119848000D01*
X147510000Y-121723000D02*
X145176000Y-121723000D01*
%TO.N,PSG1_CS*%
X117967000Y-121153000D02*
X116840000Y-121153000D01*
X119237000Y-119883000D02*
X117967000Y-121153000D01*
X126650000Y-119883000D02*
X119237000Y-119883000D01*
X131622000Y-114912000D02*
X126650000Y-119883000D01*
X148080000Y-114912000D02*
X131622000Y-114912000D01*
X151781000Y-118613000D02*
X148080000Y-114912000D01*
X152908000Y-118613000D02*
X151781000Y-118613000D01*
%TO.N,VIA1_CS*%
X120507000Y-93980000D02*
X119380000Y-93980000D01*
X120507000Y-94350700D02*
X120507000Y-93980000D01*
X123948000Y-97791500D02*
X120507000Y-94350700D01*
X147802000Y-97791500D02*
X123948000Y-97791500D01*
X155673000Y-105663000D02*
X147802000Y-97791500D01*
X155673000Y-107101000D02*
X155673000Y-105663000D01*
X152908000Y-109866000D02*
X155673000Y-107101000D01*
X152908000Y-110993000D02*
X152908000Y-109866000D01*
%TO.N,ACIA_IRQ*%
X118626000Y-147320000D02*
X116840000Y-147320000D01*
X119347000Y-148041000D02*
X118626000Y-147320000D01*
X119347000Y-148236000D02*
X119347000Y-148041000D01*
X122355000Y-151244000D02*
X119347000Y-148236000D01*
X139600000Y-151244000D02*
X122355000Y-151244000D01*
X140022000Y-150821000D02*
X139600000Y-151244000D01*
X141330000Y-150821000D02*
X140022000Y-150821000D01*
X141775000Y-151266000D02*
X141330000Y-150821000D01*
X187192000Y-151266000D02*
X141775000Y-151266000D01*
X187639000Y-151714000D02*
X187192000Y-151266000D01*
X201373000Y-151714000D02*
X187639000Y-151714000D01*
%TO.N,2VIA_IRQ*%
X114195000Y-139700000D02*
X113492000Y-138997000D01*
X116840000Y-139700000D02*
X114195000Y-139700000D01*
X140116000Y-104121000D02*
X115128000Y-104121000D01*
X145177000Y-99060000D02*
X140116000Y-104121000D01*
X146304000Y-99060000D02*
X145177000Y-99060000D01*
%TO.N,1VIA_IRQ*%
X119129000Y-130746000D02*
X119129000Y-130156000D01*
X120841000Y-132458000D02*
X119129000Y-130746000D01*
%TO.N,Net-(U15-ch_A)*%
X55482900Y-176784000D02*
X54356000Y-176784000D01*
X56613700Y-177915000D02*
X55482900Y-176784000D01*
X72292000Y-177915000D02*
X56613700Y-177915000D01*
X85220900Y-164986000D02*
X72292000Y-177915000D01*
X129315000Y-164986000D02*
X85220900Y-164986000D01*
X129429000Y-165100000D02*
X129315000Y-164986000D01*
X130556000Y-165100000D02*
X129429000Y-165100000D01*
%TO.N,Net-(U15-ch_B)*%
X128597000Y-162560000D02*
X130556000Y-162560000D01*
X127290000Y-163867000D02*
X128597000Y-162560000D01*
X60561600Y-163867000D02*
X127290000Y-163867000D01*
X53162900Y-171266000D02*
X60561600Y-163867000D01*
X53162900Y-179036000D02*
X53162900Y-171266000D01*
X54356000Y-180229000D02*
X53162900Y-179036000D01*
X54356000Y-181356000D02*
X54356000Y-180229000D01*
%TO.N,Net-(U15-ch_C)*%
X134958000Y-162560000D02*
X145796000Y-162560000D01*
X133652000Y-163867000D02*
X134958000Y-162560000D01*
X127930000Y-163867000D02*
X133652000Y-163867000D01*
X127478000Y-164319000D02*
X127930000Y-163867000D01*
X73028200Y-164319000D02*
X127478000Y-164319000D01*
X65642900Y-171704000D02*
X73028200Y-164319000D01*
X64516000Y-171704000D02*
X65642900Y-171704000D01*
%TO.N,Net-(U13-R1IN)*%
X232515000Y-196427000D02*
X230896000Y-194808000D01*
X232515000Y-199886000D02*
X232515000Y-196427000D01*
X231243000Y-201158000D02*
X232515000Y-199886000D01*
X229398000Y-201158000D02*
X231243000Y-201158000D01*
X222673000Y-207883000D02*
X229398000Y-201158000D01*
X189831000Y-207883000D02*
X222673000Y-207883000D01*
X186274000Y-211440000D02*
X189831000Y-207883000D01*
X48655300Y-211440000D02*
X186274000Y-211440000D01*
X46990000Y-209774000D02*
X48655300Y-211440000D01*
X46990000Y-208878000D02*
X46990000Y-209774000D01*
X45927300Y-207815000D02*
X46990000Y-208878000D01*
%TO.N,1pb7*%
X95393100Y-99060000D02*
X87884000Y-99060000D01*
X103013000Y-91440000D02*
X95393100Y-99060000D01*
X104140000Y-91440000D02*
X103013000Y-91440000D01*
%TO.N,1pa3*%
X127962000Y-95335900D02*
X176152000Y-95335900D01*
X126239000Y-97058800D02*
X127962000Y-95335900D01*
X124243000Y-97058800D02*
X126239000Y-97058800D01*
%TO.N,1pa2*%
X175016000Y-123952000D02*
X172442000Y-123952000D01*
X104959000Y-59239100D02*
X104140000Y-58420000D01*
X116902000Y-59239100D02*
X104959000Y-59239100D01*
X116929000Y-59265700D02*
X116902000Y-59239100D01*
%TO.N,1pa1*%
X118266000Y-59574300D02*
X120982000Y-59574300D01*
X117219000Y-58527400D02*
X118266000Y-59574300D01*
X108499000Y-58527400D02*
X117219000Y-58527400D01*
X105852000Y-55880000D02*
X108499000Y-58527400D01*
X104140000Y-55880000D02*
X105852000Y-55880000D01*
%TO.N,1pa0*%
X108470000Y-57135500D02*
X121709000Y-57135500D01*
X105267000Y-53932500D02*
X108470000Y-57135500D01*
X105267000Y-53340000D02*
X105267000Y-53932500D01*
X104140000Y-53340000D02*
X105267000Y-53340000D01*
%TO.N,Net-(R1-Pad2)*%
X52428000Y-125548000D02*
X58928000Y-125548000D01*
X79645100Y-120904000D02*
X80772000Y-120904000D01*
X78502100Y-119761000D02*
X79645100Y-120904000D01*
X64715000Y-119761000D02*
X78502100Y-119761000D01*
X58928000Y-125548000D02*
X64715000Y-119761000D01*
%TO.N,Net-(JP1-B)*%
X105156000Y-169672000D02*
X106345000Y-170861000D01*
X99060000Y-169672000D02*
X105156000Y-169672000D01*
%TO.N,PSG2IOB7*%
X149145000Y-170180000D02*
X156972000Y-170180000D01*
X147874000Y-168910000D02*
X149145000Y-170180000D01*
X133424000Y-168910000D02*
X147874000Y-168910000D01*
%TO.N,PSG2IOB6*%
X86012900Y-209296000D02*
X84836000Y-209296000D01*
X86012900Y-209664000D02*
X86012900Y-209296000D01*
X87302200Y-210953000D02*
X86012900Y-209664000D01*
X111299000Y-210953000D02*
X87302200Y-210953000D01*
X112522000Y-209730000D02*
X111299000Y-210953000D01*
X112522000Y-208825000D02*
X112522000Y-209730000D01*
X114145000Y-207202000D02*
X112522000Y-208825000D01*
X129018000Y-207202000D02*
X114145000Y-207202000D01*
X129243000Y-207427000D02*
X129018000Y-207202000D01*
X138440000Y-207427000D02*
X129243000Y-207427000D01*
X143937000Y-201930000D02*
X138440000Y-207427000D01*
X147537000Y-201930000D02*
X143937000Y-201930000D01*
X148364000Y-201103000D02*
X147537000Y-201930000D01*
%TO.N,PSG2IOB5*%
X128583000Y-182317000D02*
X115304000Y-182317000D01*
X129290000Y-181610000D02*
X128583000Y-182317000D01*
X135716000Y-181610000D02*
X129290000Y-181610000D01*
X143257000Y-174069000D02*
X135716000Y-181610000D01*
X147635000Y-174069000D02*
X143257000Y-174069000D01*
X148826000Y-175260000D02*
X147635000Y-174069000D01*
X156972000Y-175260000D02*
X148826000Y-175260000D01*
%TO.N,PSG2IOB2*%
X119242000Y-184009000D02*
X113136000Y-190115000D01*
X154716000Y-184009000D02*
X119242000Y-184009000D01*
X155845000Y-182880000D02*
X154716000Y-184009000D01*
X156972000Y-182880000D02*
X155845000Y-182880000D01*
%TO.N,PSG2IOB1*%
X155845000Y-185420000D02*
X156972000Y-185420000D01*
X155845000Y-185654000D02*
X155845000Y-185420000D01*
X149729000Y-191770000D02*
X155845000Y-185654000D01*
X143336000Y-191770000D02*
X149729000Y-191770000D01*
X140796000Y-194310000D02*
X143336000Y-191770000D01*
X116453000Y-194310000D02*
X140796000Y-194310000D01*
%TO.N,PSG2IOB0*%
X155845000Y-187960000D02*
X156972000Y-187960000D01*
X149588000Y-194218000D02*
X155845000Y-187960000D01*
X144532000Y-194218000D02*
X149588000Y-194218000D01*
X136820000Y-201930000D02*
X144532000Y-194218000D01*
X108619000Y-201930000D02*
X136820000Y-201930000D01*
X101253000Y-209296000D02*
X108619000Y-201930000D01*
X100076000Y-209296000D02*
X101253000Y-209296000D01*
%TO.N,PSG2IOA7*%
X107349000Y-209296000D02*
X106172000Y-209296000D01*
X107349000Y-208928000D02*
X107349000Y-209296000D01*
X111807000Y-204470000D02*
X107349000Y-208928000D01*
X137646000Y-204470000D02*
X111807000Y-204470000D01*
X145352000Y-196763000D02*
X137646000Y-204470000D01*
X148199000Y-196763000D02*
X145352000Y-196763000D01*
X154463000Y-190500000D02*
X148199000Y-196763000D01*
X156972000Y-190500000D02*
X154463000Y-190500000D01*
%TO.N,PSG2IOA2*%
X155845000Y-203200000D02*
X156972000Y-203200000D01*
X151159000Y-207886000D02*
X155845000Y-203200000D01*
X129063000Y-207886000D02*
X151159000Y-207886000D01*
X128844000Y-207667000D02*
X129063000Y-207886000D01*
X121310000Y-207667000D02*
X128844000Y-207667000D01*
X120049000Y-208928000D02*
X121310000Y-207667000D01*
X120049000Y-209296000D02*
X120049000Y-208928000D01*
X118872000Y-209296000D02*
X120049000Y-209296000D01*
%TO.N,PSG2IOA1*%
X155845000Y-205740000D02*
X156972000Y-205740000D01*
X153248000Y-208338000D02*
X155845000Y-205740000D01*
X128876000Y-208338000D02*
X153248000Y-208338000D01*
X128657000Y-208119000D02*
X128876000Y-208338000D01*
X122957000Y-208119000D02*
X128657000Y-208119000D01*
X122589000Y-208487000D02*
X122957000Y-208119000D01*
X122589000Y-209296000D02*
X122589000Y-208487000D01*
X121412000Y-209296000D02*
X122589000Y-209296000D01*
%TO.N,PSG2IOA0*%
X167529000Y-209296000D02*
X123952000Y-209296000D01*
X171085000Y-205740000D02*
X167529000Y-209296000D01*
X172212000Y-205740000D02*
X171085000Y-205740000D01*
%TO.N,PSG1IOA7*%
X116635000Y-190500000D02*
X130556000Y-190500000D01*
X107857000Y-199278000D02*
X116635000Y-190500000D01*
X107857000Y-199644000D02*
X107857000Y-199278000D01*
X106680000Y-199644000D02*
X107857000Y-199644000D01*
%TO.N,PSG1IOA6*%
X110397000Y-199644000D02*
X109220000Y-199644000D01*
X110397000Y-199274000D02*
X110397000Y-199644000D01*
X116631000Y-193040000D02*
X110397000Y-199274000D01*
X130556000Y-193040000D02*
X116631000Y-193040000D01*
%TO.N,PSG1IOA5*%
X116633000Y-195580000D02*
X130556000Y-195580000D01*
X112937000Y-199276000D02*
X116633000Y-195580000D01*
X112937000Y-199644000D02*
X112937000Y-199276000D01*
X111760000Y-199644000D02*
X112937000Y-199644000D01*
%TO.N,PSG1IOA4*%
X116633000Y-198120000D02*
X130556000Y-198120000D01*
X115477000Y-199276000D02*
X116633000Y-198120000D01*
X115477000Y-199644000D02*
X115477000Y-199276000D01*
X114300000Y-199644000D02*
X115477000Y-199644000D01*
%TO.N,PSG1IOA3*%
X129429000Y-200660000D02*
X130556000Y-200660000D01*
X129258000Y-200831000D02*
X129429000Y-200660000D01*
X118838000Y-200831000D02*
X129258000Y-200831000D01*
X118017000Y-200010000D02*
X118838000Y-200831000D01*
X118017000Y-199644000D02*
X118017000Y-200010000D01*
X116840000Y-199644000D02*
X118017000Y-199644000D01*
%TO.N,PSG1IOB7*%
X129429000Y-170180000D02*
X130556000Y-170180000D01*
X126127000Y-173482000D02*
X129429000Y-170180000D01*
X121642000Y-173482000D02*
X126127000Y-173482000D01*
X117617000Y-177508000D02*
X121642000Y-173482000D01*
X107786000Y-177508000D02*
X117617000Y-177508000D01*
X106143000Y-179150000D02*
X107786000Y-177508000D01*
X103601000Y-179150000D02*
X106143000Y-179150000D01*
X83472900Y-199278000D02*
X103601000Y-179150000D01*
X83472900Y-199644000D02*
X83472900Y-199278000D01*
X82296000Y-199644000D02*
X83472900Y-199644000D01*
%TO.N,PSG1IOB6*%
X129429000Y-172720000D02*
X130556000Y-172720000D01*
X124190000Y-177960000D02*
X129429000Y-172720000D01*
X107973000Y-177960000D02*
X124190000Y-177960000D01*
X106330000Y-179602000D02*
X107973000Y-177960000D01*
X105689000Y-179602000D02*
X106330000Y-179602000D01*
X86012900Y-199278000D02*
X105689000Y-179602000D01*
X86012900Y-199644000D02*
X86012900Y-199278000D01*
X84836000Y-199644000D02*
X86012900Y-199644000D01*
%TO.N,PSG1IOB5*%
X88552900Y-199644000D02*
X87376000Y-199644000D01*
X88552900Y-199276000D02*
X88552900Y-199644000D01*
X109418000Y-178411000D02*
X88552900Y-199276000D01*
X126278000Y-178411000D02*
X109418000Y-178411000D01*
X129429000Y-175260000D02*
X126278000Y-178411000D01*
X130556000Y-175260000D02*
X129429000Y-175260000D01*
%TO.N,PSG1IOB4*%
X91092900Y-199644000D02*
X89916000Y-199644000D01*
X91092900Y-199276000D02*
X91092900Y-199644000D01*
X91901900Y-198467000D02*
X91092900Y-199276000D01*
X93448600Y-198467000D02*
X91901900Y-198467000D01*
X113052000Y-178863000D02*
X93448600Y-198467000D01*
X128366000Y-178863000D02*
X113052000Y-178863000D01*
X129429000Y-177800000D02*
X128366000Y-178863000D01*
X130556000Y-177800000D02*
X129429000Y-177800000D01*
%TO.N,PSG1IOB3*%
X93632900Y-199644000D02*
X92456000Y-199644000D01*
X93632900Y-199276000D02*
X93632900Y-199644000D01*
X111319000Y-181590000D02*
X93632900Y-199276000D01*
X128179000Y-181590000D02*
X111319000Y-181590000D01*
X129429000Y-180340000D02*
X128179000Y-181590000D01*
X130556000Y-180340000D02*
X129429000Y-180340000D01*
%TO.N,PSG1IOB2*%
X96172900Y-199644000D02*
X94996000Y-199644000D01*
X96172900Y-199276000D02*
X96172900Y-199644000D01*
X112405000Y-183044000D02*
X96172900Y-199276000D01*
X129265000Y-183044000D02*
X112405000Y-183044000D01*
X129429000Y-182880000D02*
X129265000Y-183044000D01*
X130556000Y-182880000D02*
X129429000Y-182880000D01*
%TO.N,Net-(U13-T1OUT)*%
X129799000Y-158836000D02*
X218206000Y-158836000D01*
X129418000Y-159218000D02*
X129799000Y-158836000D01*
X106455000Y-159218000D02*
X129418000Y-159218000D01*
X104870000Y-157632000D02*
X106455000Y-159218000D01*
X88300700Y-157632000D02*
X104870000Y-157632000D01*
X83236100Y-152568000D02*
X88300700Y-157632000D01*
X46174200Y-152568000D02*
X83236100Y-152568000D01*
X45461600Y-153280000D02*
X46174200Y-152568000D01*
X45461600Y-155324000D02*
X45461600Y-153280000D01*
X46632000Y-156494000D02*
X45461600Y-155324000D01*
%TO.N,Net-(C27-Pad1)*%
X58889800Y-188978000D02*
X61936000Y-192024000D01*
X35085800Y-188978000D02*
X58889800Y-188978000D01*
X33052000Y-186944000D02*
X35085800Y-188978000D01*
%TO.N,IO9*%
X49436900Y-209296000D02*
X48260000Y-209296000D01*
X49436900Y-208928000D02*
X49436900Y-209296000D01*
X53900900Y-204464000D02*
X49436900Y-208928000D01*
X100188000Y-204464000D02*
X53900900Y-204464000D01*
X115314000Y-189339000D02*
X100188000Y-204464000D01*
X151062000Y-189339000D02*
X115314000Y-189339000D01*
%TO.N,IO8*%
X55714000Y-205191000D02*
X71559900Y-205191000D01*
X51976900Y-208928000D02*
X55714000Y-205191000D01*
X51976900Y-209296000D02*
X51976900Y-208928000D01*
X50800000Y-209296000D02*
X51976900Y-209296000D01*
%TO.N,IO6*%
X57056900Y-209296000D02*
X55880000Y-209296000D01*
X57056900Y-208930000D02*
X57056900Y-209296000D01*
X57876500Y-208111000D02*
X57056900Y-208930000D01*
X95559500Y-208111000D02*
X57876500Y-208111000D01*
X96266000Y-208817000D02*
X95559500Y-208111000D01*
X96266000Y-209713000D02*
X96266000Y-208817000D01*
X97053000Y-210500000D02*
X96266000Y-209713000D01*
X109221000Y-210500000D02*
X97053000Y-210500000D01*
X109982000Y-209738000D02*
X109221000Y-210500000D01*
X109982000Y-208890000D02*
X109982000Y-209738000D01*
X112122000Y-206750000D02*
X109982000Y-208890000D01*
X129431000Y-206750000D02*
X112122000Y-206750000D01*
X129600000Y-206919000D02*
X129431000Y-206750000D01*
X136764000Y-206919000D02*
X129600000Y-206919000D01*
X144401000Y-199282000D02*
X136764000Y-206919000D01*
X147258000Y-199282000D02*
X144401000Y-199282000D01*
%TO.N,1pa5*%
X33130900Y-110684000D02*
X32004000Y-110684000D01*
X35400000Y-108415000D02*
X33130900Y-110684000D01*
X71760600Y-108415000D02*
X35400000Y-108415000D01*
X97809700Y-82365800D02*
X71760600Y-108415000D01*
X97809700Y-73263700D02*
X97809700Y-82365800D01*
X103906000Y-67166900D02*
X97809700Y-73263700D01*
X104140000Y-67166900D02*
X103906000Y-67166900D01*
X104140000Y-66040000D02*
X104140000Y-67166900D01*
%TO.N,1pa4*%
X30680800Y-107107000D02*
X29204000Y-108584000D01*
X72362200Y-107107000D02*
X30680800Y-107107000D01*
X91789000Y-87680400D02*
X72362200Y-107107000D01*
X91789000Y-76744400D02*
X91789000Y-87680400D01*
X103906000Y-64626900D02*
X91789000Y-76744400D01*
X104140000Y-64626900D02*
X103906000Y-64626900D01*
X104140000Y-63500000D02*
X104140000Y-64626900D01*
%TO.N,Net-(J6-Pad1)*%
X49615600Y-95562500D02*
X41052000Y-95562500D01*
X51685100Y-97632000D02*
X49615600Y-95562500D01*
X52912000Y-97632000D02*
X51685100Y-97632000D01*
%TO.N,Net-(C22-Pad1)*%
X63325400Y-185245000D02*
X64516000Y-186436000D01*
X43862600Y-185245000D02*
X63325400Y-185245000D01*
X42164000Y-186944000D02*
X43862600Y-185245000D01*
X69596000Y-191516000D02*
X64516000Y-186436000D01*
X73740000Y-191516000D02*
X69596000Y-191516000D01*
X59436000Y-176784000D02*
X54356000Y-171704000D01*
X64516000Y-176784000D02*
X59436000Y-176784000D01*
%TO.N,decode0*%
X141885000Y-113533000D02*
X143012000Y-113533000D01*
X137753000Y-109401000D02*
X141885000Y-113533000D01*
X107470000Y-109401000D02*
X137753000Y-109401000D01*
X107296000Y-109575000D02*
X107470000Y-109401000D01*
X91264700Y-109575000D02*
X107296000Y-109575000D01*
X87970400Y-106281000D02*
X91264700Y-109575000D01*
X78623000Y-106281000D02*
X87970400Y-106281000D01*
X74545000Y-110359000D02*
X78623000Y-106281000D01*
X71839500Y-110359000D02*
X74545000Y-110359000D01*
%TO.N,1CB1*%
X109645000Y-93980000D02*
X104140000Y-93980000D01*
X113351000Y-90274300D02*
X109645000Y-93980000D01*
X124260000Y-90274300D02*
X113351000Y-90274300D01*
X124573000Y-90587100D02*
X124260000Y-90274300D01*
X127443000Y-90587100D02*
X124573000Y-90587100D01*
X128383000Y-89647600D02*
X127443000Y-90587100D01*
X125406000Y-45079400D02*
X128383000Y-45079400D01*
X120826000Y-40499800D02*
X125406000Y-45079400D01*
X120826000Y-40132000D02*
X120826000Y-40499800D01*
X119649000Y-40132000D02*
X120826000Y-40132000D01*
%TO.N,1CB2*%
X109792000Y-54513200D02*
X110170000Y-54891600D01*
X109792000Y-53430500D02*
X109792000Y-54513200D01*
X116376000Y-68616600D02*
X117445000Y-68616600D01*
X107594000Y-77397600D02*
X116376000Y-68616600D01*
X103883000Y-77397600D02*
X107594000Y-77397600D01*
X101139000Y-80141300D02*
X103883000Y-77397600D01*
X101139000Y-80872700D02*
X101139000Y-80141300D01*
%TO.N,OE*%
X83659100Y-85344000D02*
X84836000Y-85344000D01*
X82481600Y-86521500D02*
X83659100Y-85344000D01*
X70265500Y-86521500D02*
X82481600Y-86521500D01*
X69088000Y-85344000D02*
X70265500Y-86521500D01*
X54516900Y-85344000D02*
X53340000Y-85344000D01*
X54516900Y-85709800D02*
X54516900Y-85344000D01*
X55369500Y-86562400D02*
X54516900Y-85709800D01*
X66692700Y-86562400D02*
X55369500Y-86562400D01*
X67911100Y-85344000D02*
X66692700Y-86562400D01*
X69088000Y-85344000D02*
X67911100Y-85344000D01*
X151108000Y-136393000D02*
X143012000Y-136393000D01*
X152305000Y-137591000D02*
X151108000Y-136393000D01*
X172421000Y-137591000D02*
X152305000Y-137591000D01*
X174216000Y-135796000D02*
X172421000Y-137591000D01*
X174216000Y-135130000D02*
X174216000Y-135796000D01*
X87746300Y-107020000D02*
X86441200Y-107020000D01*
X100236000Y-119509000D02*
X87746300Y-107020000D01*
X104907000Y-119509000D02*
X100236000Y-119509000D01*
X105775000Y-120378000D02*
X104907000Y-119509000D01*
X105775000Y-121407000D02*
X105775000Y-120378000D01*
X104864000Y-122317000D02*
X105775000Y-121407000D01*
X104156000Y-122317000D02*
X104864000Y-122317000D01*
X103521000Y-122952000D02*
X104156000Y-122317000D01*
X103521000Y-126528000D02*
X103521000Y-122952000D01*
X104247000Y-127254000D02*
X103521000Y-126528000D01*
X105178000Y-127254000D02*
X104247000Y-127254000D01*
X105323000Y-127399000D02*
X105178000Y-127254000D01*
X126166000Y-127399000D02*
X105323000Y-127399000D01*
X128881000Y-130114000D02*
X126166000Y-127399000D01*
X135888000Y-130114000D02*
X128881000Y-130114000D01*
X141885000Y-136111000D02*
X135888000Y-130114000D01*
X141885000Y-136393000D02*
X141885000Y-136111000D01*
X143012000Y-136393000D02*
X141885000Y-136393000D01*
%TO.N,WE*%
X70451100Y-87884000D02*
X71628000Y-87884000D01*
X70451100Y-87569300D02*
X70451100Y-87884000D01*
X69556800Y-86675000D02*
X70451100Y-87569300D01*
X67805500Y-86675000D02*
X69556800Y-86675000D01*
X66596500Y-87884000D02*
X67805500Y-86675000D01*
X55880000Y-87884000D02*
X66596500Y-87884000D01*
X205343000Y-118872000D02*
X204216000Y-118872000D01*
X208506000Y-122035000D02*
X205343000Y-118872000D01*
X234696000Y-122035000D02*
X208506000Y-122035000D01*
X234696000Y-123082000D02*
X234696000Y-122035000D01*
X86199100Y-87884000D02*
X87376000Y-87884000D01*
X86199100Y-87518200D02*
X86199100Y-87884000D01*
X85374300Y-86693400D02*
X86199100Y-87518200D01*
X83430100Y-86693400D02*
X85374300Y-86693400D01*
X82239500Y-87884000D02*
X83430100Y-86693400D01*
X71628000Y-87884000D02*
X82239500Y-87884000D01*
X192325000Y-118872000D02*
X204216000Y-118872000D01*
X191193000Y-117740000D02*
X192325000Y-118872000D01*
X188508000Y-117740000D02*
X191193000Y-117740000D01*
X187727000Y-118522000D02*
X188508000Y-117740000D01*
X187727000Y-118650000D02*
X187727000Y-118522000D01*
X173919000Y-132458000D02*
X187727000Y-118650000D01*
X145266000Y-132458000D02*
X173919000Y-132458000D01*
X144139000Y-133853000D02*
X143012000Y-133853000D01*
X145266000Y-132726000D02*
X144139000Y-133853000D01*
X145266000Y-132458000D02*
X145266000Y-132726000D01*
X135795000Y-125030000D02*
X111578000Y-125030000D01*
X140809000Y-130043000D02*
X135795000Y-125030000D01*
X143362000Y-130043000D02*
X140809000Y-130043000D01*
X145266000Y-131946000D02*
X143362000Y-130043000D01*
X145266000Y-132458000D02*
X145266000Y-131946000D01*
X111317000Y-90037200D02*
X92498400Y-90037200D01*
X111578000Y-89776100D02*
X111317000Y-90037200D01*
%TO.N,ML*%
X70451100Y-82804000D02*
X71628000Y-82804000D01*
X70451100Y-82438200D02*
X70451100Y-82804000D01*
X69626300Y-81613400D02*
X70451100Y-82438200D01*
X58247500Y-81613400D02*
X69626300Y-81613400D01*
X57056900Y-82804000D02*
X58247500Y-81613400D01*
X55880000Y-82804000D02*
X57056900Y-82804000D01*
X72804900Y-82804000D02*
X71628000Y-82804000D01*
X73995500Y-81613400D02*
X72804900Y-82804000D01*
X85374300Y-81613400D02*
X73995500Y-81613400D01*
X86199100Y-82438200D02*
X85374300Y-81613400D01*
X86199100Y-82804000D02*
X86199100Y-82438200D01*
X87376000Y-82804000D02*
X86199100Y-82804000D01*
%TO.N,VP*%
X70451100Y-80264000D02*
X71628000Y-80264000D01*
X70451100Y-79898200D02*
X70451100Y-80264000D01*
X69626300Y-79073400D02*
X70451100Y-79898200D01*
X58247500Y-79073400D02*
X69626300Y-79073400D01*
X57056900Y-80264000D02*
X58247500Y-79073400D01*
X55880000Y-80264000D02*
X57056900Y-80264000D01*
X72804900Y-80264000D02*
X71628000Y-80264000D01*
X73995500Y-79073400D02*
X72804900Y-80264000D01*
X85374300Y-79073400D02*
X73995500Y-79073400D01*
X86199100Y-79898200D02*
X85374300Y-79073400D01*
X86199100Y-80264000D02*
X86199100Y-79898200D01*
X87376000Y-80264000D02*
X86199100Y-80264000D01*
%TO.N,a15*%
X57795200Y-80264000D02*
X69088000Y-80264000D01*
X56604600Y-81454600D02*
X57795200Y-80264000D01*
X55341700Y-81454600D02*
X56604600Y-81454600D01*
X54516900Y-80629800D02*
X55341700Y-81454600D01*
X54516900Y-80264000D02*
X54516900Y-80629800D01*
X53340000Y-80264000D02*
X54516900Y-80264000D01*
X135392000Y-117200000D02*
X135392000Y-116073000D01*
X135110000Y-117200000D02*
X135392000Y-117200000D01*
X134265000Y-118045000D02*
X135110000Y-117200000D01*
X134265000Y-119109000D02*
X134265000Y-118045000D01*
X135152000Y-119996000D02*
X134265000Y-119109000D01*
X136037000Y-119996000D02*
X135152000Y-119996000D01*
X140969000Y-124927000D02*
X136037000Y-119996000D01*
X158095000Y-124927000D02*
X140969000Y-124927000D01*
X159401000Y-126233000D02*
X158095000Y-124927000D01*
X160528000Y-126233000D02*
X159401000Y-126233000D01*
%TO.N,RDY*%
X70451100Y-77724000D02*
X71628000Y-77724000D01*
X70451100Y-77358200D02*
X70451100Y-77724000D01*
X69626300Y-76533400D02*
X70451100Y-77358200D01*
X58247500Y-76533400D02*
X69626300Y-76533400D01*
X57056900Y-77724000D02*
X58247500Y-76533400D01*
X55880000Y-77724000D02*
X57056900Y-77724000D01*
X72804900Y-77724000D02*
X71628000Y-77724000D01*
X73995500Y-76533400D02*
X72804900Y-77724000D01*
X85374300Y-76533400D02*
X73995500Y-76533400D01*
X86199100Y-77358200D02*
X85374300Y-76533400D01*
X86199100Y-77724000D02*
X86199100Y-77358200D01*
X87376000Y-77724000D02*
X86199100Y-77724000D01*
X86249100Y-111252000D02*
X80772000Y-111252000D01*
X88281100Y-113284000D02*
X86249100Y-111252000D01*
X89408000Y-113284000D02*
X88281100Y-113284000D01*
%TO.N,a14*%
X57795200Y-77724000D02*
X69088000Y-77724000D01*
X56604600Y-78914600D02*
X57795200Y-77724000D01*
X55341700Y-78914600D02*
X56604600Y-78914600D01*
X54516900Y-78089800D02*
X55341700Y-78914600D01*
X54516900Y-77724000D02*
X54516900Y-78089800D01*
X53340000Y-77724000D02*
X54516900Y-77724000D01*
X190688000Y-116332000D02*
X188976000Y-116332000D01*
X191815000Y-117459000D02*
X190688000Y-116332000D01*
X217420000Y-117459000D02*
X191815000Y-117459000D01*
X219456000Y-119495000D02*
X217420000Y-117459000D01*
X219456000Y-120542000D02*
X219456000Y-119495000D01*
X184571000Y-120737000D02*
X188976000Y-116332000D01*
X184571000Y-121126000D02*
X184571000Y-120737000D01*
X175513000Y-130184000D02*
X184571000Y-121126000D01*
X166954000Y-130184000D02*
X175513000Y-130184000D01*
X164273000Y-127503000D02*
X166954000Y-130184000D01*
X142587000Y-127503000D02*
X164273000Y-127503000D01*
X136519000Y-121435000D02*
X142587000Y-127503000D01*
X136519000Y-121153000D02*
X136519000Y-121435000D01*
X135392000Y-121153000D02*
X136519000Y-121153000D01*
%TO.N,BE*%
X70451100Y-75184000D02*
X71628000Y-75184000D01*
X70451100Y-74818200D02*
X70451100Y-75184000D01*
X69626300Y-73993400D02*
X70451100Y-74818200D01*
X58247500Y-73993400D02*
X69626300Y-73993400D01*
X57056900Y-75184000D02*
X58247500Y-73993400D01*
X55880000Y-75184000D02*
X57056900Y-75184000D01*
X72804900Y-75184000D02*
X71628000Y-75184000D01*
X73995500Y-73993400D02*
X72804900Y-75184000D01*
X85374300Y-73993400D02*
X73995500Y-73993400D01*
X86199100Y-74818200D02*
X85374300Y-73993400D01*
X86199100Y-75184000D02*
X86199100Y-74818200D01*
X87376000Y-75184000D02*
X86199100Y-75184000D01*
X103521000Y-120904000D02*
X104648000Y-120904000D01*
X97035700Y-127389000D02*
X103521000Y-120904000D01*
X85462600Y-127389000D02*
X97035700Y-127389000D01*
X80772000Y-132080000D02*
X85462600Y-127389000D01*
%TO.N,a13*%
X57795200Y-75184000D02*
X69088000Y-75184000D01*
X56604600Y-76374600D02*
X57795200Y-75184000D01*
X55341700Y-76374600D02*
X56604600Y-76374600D01*
X54516900Y-75549800D02*
X55341700Y-76374600D01*
X54516900Y-75184000D02*
X54516900Y-75549800D01*
X53340000Y-75184000D02*
X54516900Y-75184000D01*
X205343000Y-121412000D02*
X204216000Y-121412000D01*
X208506000Y-124575000D02*
X205343000Y-121412000D01*
X234696000Y-124575000D02*
X208506000Y-124575000D01*
X234696000Y-125622000D02*
X234696000Y-124575000D01*
X121888000Y-136033000D02*
X121599000Y-136323000D01*
X125486000Y-136033000D02*
X121888000Y-136033000D01*
X130981000Y-141528000D02*
X125486000Y-136033000D01*
X132002000Y-141528000D02*
X130981000Y-141528000D01*
X133308000Y-142834000D02*
X132002000Y-141528000D01*
X166368000Y-142834000D02*
X133308000Y-142834000D01*
X166467000Y-142734000D02*
X166368000Y-142834000D01*
X170418000Y-142734000D02*
X166467000Y-142734000D01*
X170561000Y-142878000D02*
X170418000Y-142734000D01*
X176855000Y-142878000D02*
X170561000Y-142878000D01*
X184349000Y-135384000D02*
X176855000Y-142878000D01*
X190166000Y-135384000D02*
X184349000Y-135384000D01*
X190552000Y-134998000D02*
X190166000Y-135384000D01*
%TO.N,IRQ*%
X72804900Y-72644000D02*
X71628000Y-72644000D01*
X73995500Y-71453400D02*
X72804900Y-72644000D01*
X85374300Y-71453400D02*
X73995500Y-71453400D01*
X86199100Y-72278200D02*
X85374300Y-71453400D01*
X86199100Y-72644000D02*
X86199100Y-72278200D01*
X87376000Y-72644000D02*
X86199100Y-72644000D01*
X89408000Y-119491000D02*
X89408000Y-118364000D01*
X89174500Y-119491000D02*
X89408000Y-119491000D01*
X88248800Y-120417000D02*
X89174500Y-119491000D01*
X88248800Y-121408000D02*
X88248800Y-120417000D01*
X89015000Y-122174000D02*
X88248800Y-121408000D01*
X89735500Y-122174000D02*
X89015000Y-122174000D01*
X93279000Y-125718000D02*
X89735500Y-122174000D01*
X70451100Y-72644000D02*
X71628000Y-72644000D01*
X70451100Y-72278200D02*
X70451100Y-72644000D01*
X69626300Y-71453400D02*
X70451100Y-72278200D01*
X60567400Y-71453400D02*
X69626300Y-71453400D01*
X60139800Y-71881000D02*
X60567400Y-71453400D01*
X57819900Y-71881000D02*
X60139800Y-71881000D01*
X57056900Y-72644000D02*
X57819900Y-71881000D01*
X55880000Y-72644000D02*
X57056900Y-72644000D01*
X113925000Y-149860000D02*
X116840000Y-149860000D01*
X106479000Y-142414000D02*
X113925000Y-149860000D01*
X102744000Y-142414000D02*
X106479000Y-142414000D01*
%TO.N,a12*%
X57795200Y-72644000D02*
X69088000Y-72644000D01*
X56604600Y-73834600D02*
X57795200Y-72644000D01*
X55341700Y-73834600D02*
X56604600Y-73834600D01*
X54516900Y-73009800D02*
X55341700Y-73834600D01*
X54516900Y-72644000D02*
X54516900Y-73009800D01*
X53340000Y-72644000D02*
X54516900Y-72644000D01*
X190103000Y-118872000D02*
X188976000Y-118872000D01*
X191373000Y-120142000D02*
X190103000Y-118872000D01*
X205482000Y-120142000D02*
X191373000Y-120142000D01*
X208422000Y-123082000D02*
X205482000Y-120142000D01*
X219456000Y-123082000D02*
X208422000Y-123082000D01*
X135392000Y-127360000D02*
X135392000Y-126233000D01*
X135674000Y-127360000D02*
X135392000Y-127360000D01*
X136519000Y-128205000D02*
X135674000Y-127360000D01*
X136519000Y-129000000D02*
X136519000Y-128205000D01*
X142538000Y-135018000D02*
X136519000Y-129000000D01*
X163180000Y-135018000D02*
X142538000Y-135018000D01*
X164812000Y-133387000D02*
X163180000Y-135018000D01*
X174461000Y-133387000D02*
X164812000Y-133387000D01*
X188976000Y-118872000D02*
X174461000Y-133387000D01*
%TO.N,SYNC*%
X70451100Y-70104000D02*
X71628000Y-70104000D01*
X70451100Y-69738200D02*
X70451100Y-70104000D01*
X69626300Y-68913400D02*
X70451100Y-69738200D01*
X58247500Y-68913400D02*
X69626300Y-68913400D01*
X57056900Y-70104000D02*
X58247500Y-68913400D01*
X55880000Y-70104000D02*
X57056900Y-70104000D01*
X72804900Y-70104000D02*
X71628000Y-70104000D01*
X73995500Y-68913400D02*
X72804900Y-70104000D01*
X85374300Y-68913400D02*
X73995500Y-68913400D01*
X86199100Y-69738200D02*
X85374300Y-68913400D01*
X86199100Y-70104000D02*
X86199100Y-69738200D01*
X87376000Y-70104000D02*
X86199100Y-70104000D01*
%TO.N,a11*%
X205343000Y-129032000D02*
X204216000Y-129032000D01*
X208506000Y-132195000D02*
X205343000Y-129032000D01*
X234696000Y-132195000D02*
X208506000Y-132195000D01*
X234696000Y-133242000D02*
X234696000Y-132195000D01*
X60403700Y-70104000D02*
X69088000Y-70104000D01*
X59765800Y-70741900D02*
X60403700Y-70104000D01*
X54516900Y-70104000D02*
X53340000Y-70104000D01*
X54516900Y-70469800D02*
X54516900Y-70104000D01*
X55341700Y-71294600D02*
X54516900Y-70469800D01*
X59213100Y-71294600D02*
X55341700Y-71294600D01*
X59765800Y-70741900D02*
X59213100Y-71294600D01*
X204216000Y-129032000D02*
X191405000Y-129032000D01*
X126260000Y-137447000D02*
X125871000Y-137447000D01*
X130795000Y-141982000D02*
X126260000Y-137447000D01*
X131817000Y-141982000D02*
X130795000Y-141982000D01*
X133120000Y-143286000D02*
X131817000Y-141982000D01*
X166555000Y-143286000D02*
X133120000Y-143286000D01*
X166655000Y-143186000D02*
X166555000Y-143286000D01*
X167631000Y-143186000D02*
X166655000Y-143186000D01*
X167774000Y-143329000D02*
X167631000Y-143186000D01*
X178116000Y-143329000D02*
X167774000Y-143329000D01*
X184873000Y-136573000D02*
X178116000Y-143329000D01*
%TO.N,RESET*%
X70451100Y-67564000D02*
X71628000Y-67564000D01*
X70451100Y-67198200D02*
X70451100Y-67564000D01*
X69626300Y-66373400D02*
X70451100Y-67198200D01*
X58247500Y-66373400D02*
X69626300Y-66373400D01*
X57056900Y-67564000D02*
X58247500Y-66373400D01*
X55880000Y-67564000D02*
X57056900Y-67564000D01*
X52428000Y-111542000D02*
X58928000Y-111542000D01*
X119380000Y-66040000D02*
X119380000Y-64801900D01*
X171085000Y-200660000D02*
X172212000Y-200660000D01*
X169939000Y-199514000D02*
X171085000Y-200660000D01*
X148069000Y-199514000D02*
X169939000Y-199514000D01*
X146923000Y-200660000D02*
X148069000Y-199514000D01*
X145796000Y-200660000D02*
X146923000Y-200660000D01*
X67882700Y-148414000D02*
X66195800Y-148414000D01*
X79645100Y-136652000D02*
X67882700Y-148414000D01*
X80772000Y-136652000D02*
X79645100Y-136652000D01*
X122290000Y-64801900D02*
X119380000Y-64801900D01*
X122523000Y-64569100D02*
X122290000Y-64801900D01*
X125908000Y-64569100D02*
X122523000Y-64569100D01*
X126216000Y-64876200D02*
X125908000Y-64569100D01*
X144013000Y-64876200D02*
X126216000Y-64876200D01*
X145177000Y-66040000D02*
X144013000Y-64876200D01*
X146304000Y-66040000D02*
X145177000Y-66040000D01*
X72819900Y-163133000D02*
X123156000Y-163133000D01*
X66150900Y-156464000D02*
X72819900Y-163133000D01*
X65024000Y-156464000D02*
X66150900Y-156464000D01*
X86199100Y-67564000D02*
X87376000Y-67564000D01*
X86199100Y-67198200D02*
X86199100Y-67564000D01*
X85374300Y-66373400D02*
X86199100Y-67198200D01*
X73995500Y-66373400D02*
X85374300Y-66373400D01*
X72804900Y-67564000D02*
X73995500Y-66373400D01*
X71628000Y-67564000D02*
X72804900Y-67564000D01*
X116298000Y-64801900D02*
X119380000Y-64801900D01*
X113835000Y-62338500D02*
X116298000Y-64801900D01*
X93778400Y-62338500D02*
X113835000Y-62338500D01*
X88552900Y-67564000D02*
X93778400Y-62338500D01*
X87376000Y-67564000D02*
X88552900Y-67564000D01*
%TO.N,a10*%
X135392000Y-131313000D02*
X132506000Y-131313000D01*
X205343000Y-134112000D02*
X204216000Y-134112000D01*
X208506000Y-137275000D02*
X205343000Y-134112000D01*
X234696000Y-137275000D02*
X208506000Y-137275000D01*
X234696000Y-138322000D02*
X234696000Y-137275000D01*
X54516900Y-67564000D02*
X53340000Y-67564000D01*
X54516900Y-67929800D02*
X54516900Y-67564000D01*
X55341700Y-68754600D02*
X54516900Y-67929800D01*
X56604600Y-68754600D02*
X55341700Y-68754600D01*
X57795200Y-67564000D02*
X56604600Y-68754600D01*
X69088000Y-67564000D02*
X57795200Y-67564000D01*
X52860900Y-84021300D02*
X59676900Y-84021300D01*
X52150600Y-83311000D02*
X52860900Y-84021300D01*
X52150600Y-69562500D02*
X52150600Y-83311000D01*
X52972200Y-68740900D02*
X52150600Y-69562500D01*
X53340000Y-68740900D02*
X52972200Y-68740900D01*
X53340000Y-67564000D02*
X53340000Y-68740900D01*
X129452000Y-135774000D02*
X128810000Y-135774000D01*
X134243000Y-140564000D02*
X129452000Y-135774000D01*
X165442000Y-140564000D02*
X134243000Y-140564000D01*
X165938000Y-140068000D02*
X165442000Y-140564000D01*
X175063000Y-140068000D02*
X165938000Y-140068000D01*
X182177000Y-132954000D02*
X175063000Y-140068000D01*
X190389000Y-132954000D02*
X182177000Y-132954000D01*
X191080000Y-133645000D02*
X190389000Y-132954000D01*
X202622000Y-133645000D02*
X191080000Y-133645000D01*
X203089000Y-134112000D02*
X202622000Y-133645000D01*
X204216000Y-134112000D02*
X203089000Y-134112000D01*
%TO.N,PHI2*%
X70451100Y-65024000D02*
X71628000Y-65024000D01*
X70451100Y-64658200D02*
X70451100Y-65024000D01*
X69626300Y-63833400D02*
X70451100Y-64658200D01*
X58247500Y-63833400D02*
X69626300Y-63833400D01*
X57056900Y-65024000D02*
X58247500Y-63833400D01*
X55880000Y-65024000D02*
X57056900Y-65024000D01*
X72804900Y-65024000D02*
X71628000Y-65024000D01*
X73995500Y-63833400D02*
X72804900Y-65024000D01*
X85374300Y-63833400D02*
X73995500Y-63833400D01*
X86199100Y-64658200D02*
X85374300Y-63833400D01*
X86199100Y-65024000D02*
X86199100Y-64658200D01*
X87376000Y-65024000D02*
X86199100Y-65024000D01*
X108708000Y-92049000D02*
X109371000Y-92712000D01*
X105952000Y-92049000D02*
X108708000Y-92049000D01*
X134265000Y-110993000D02*
X135392000Y-110993000D01*
X133138000Y-109866000D02*
X134265000Y-110993000D01*
X120029000Y-109866000D02*
X133138000Y-109866000D01*
X117775000Y-112120000D02*
X120029000Y-109866000D01*
X112019000Y-112120000D02*
X117775000Y-112120000D01*
X105775000Y-118364000D02*
X112019000Y-112120000D01*
X104648000Y-118364000D02*
X105775000Y-118364000D01*
X120813000Y-148590000D02*
X133384000Y-148590000D01*
X202375000Y-151633000D02*
X202375000Y-151766000D01*
X201729000Y-150987000D02*
X202375000Y-151633000D01*
X187552000Y-150987000D02*
X201729000Y-150987000D01*
X187287000Y-150722000D02*
X187552000Y-150987000D01*
X166996000Y-150722000D02*
X187287000Y-150722000D01*
X164864000Y-148590000D02*
X166996000Y-150722000D01*
X133384000Y-148590000D02*
X164864000Y-148590000D01*
X133384000Y-147871000D02*
X133384000Y-148590000D01*
X138822000Y-113296000D02*
X139402000Y-113296000D01*
X136519000Y-110993000D02*
X138822000Y-113296000D01*
X135392000Y-110993000D02*
X136519000Y-110993000D01*
X113482000Y-88900000D02*
X119380000Y-88900000D01*
X109670000Y-92712000D02*
X113482000Y-88900000D01*
X109371000Y-92712000D02*
X109670000Y-92712000D01*
%TO.N,a9*%
X57795200Y-65024000D02*
X69088000Y-65024000D01*
X56604600Y-66214600D02*
X57795200Y-65024000D01*
X55341700Y-66214600D02*
X56604600Y-66214600D01*
X54516900Y-65389800D02*
X55341700Y-66214600D01*
X54516900Y-65024000D02*
X54516900Y-65389800D01*
X53340000Y-65024000D02*
X54516900Y-65024000D01*
X205343000Y-126492000D02*
X204216000Y-126492000D01*
X208506000Y-129655000D02*
X205343000Y-126492000D01*
X234696000Y-129655000D02*
X208506000Y-129655000D01*
X234696000Y-130702000D02*
X234696000Y-129655000D01*
X135392000Y-134980000D02*
X135392000Y-133853000D01*
X135158000Y-134980000D02*
X135392000Y-134980000D01*
X134264000Y-135874000D02*
X135158000Y-134980000D01*
X134264000Y-139481000D02*
X134264000Y-135874000D01*
X134895000Y-140112000D02*
X134264000Y-139481000D01*
X165255000Y-140112000D02*
X134895000Y-140112000D01*
X165751000Y-139616000D02*
X165255000Y-140112000D01*
X171439000Y-139616000D02*
X165751000Y-139616000D01*
X176043000Y-135012000D02*
X171439000Y-139616000D01*
X178060000Y-135012000D02*
X176043000Y-135012000D01*
X187771000Y-125301000D02*
X178060000Y-135012000D01*
X190818000Y-125301000D02*
X187771000Y-125301000D01*
X192008000Y-126492000D02*
X190818000Y-125301000D01*
X204216000Y-126492000D02*
X192008000Y-126492000D01*
X120167000Y-154532000D02*
X119828000Y-154532000D01*
X122243000Y-156608000D02*
X120167000Y-154532000D01*
X122243000Y-157260000D02*
X122243000Y-156608000D01*
X121399000Y-158104000D02*
X122243000Y-157260000D01*
X111620000Y-158104000D02*
X121399000Y-158104000D01*
X108568000Y-155052000D02*
X111620000Y-158104000D01*
X91663300Y-155052000D02*
X108568000Y-155052000D01*
X90534900Y-153924000D02*
X91663300Y-155052000D01*
X89408000Y-153924000D02*
X90534900Y-153924000D01*
%TO.N,RW*%
X70451100Y-62484000D02*
X71628000Y-62484000D01*
X70451100Y-62118200D02*
X70451100Y-62484000D01*
X69626300Y-61293400D02*
X70451100Y-62118200D01*
X58247500Y-61293400D02*
X69626300Y-61293400D01*
X57056900Y-62484000D02*
X58247500Y-61293400D01*
X55880000Y-62484000D02*
X57056900Y-62484000D01*
X72804900Y-62484000D02*
X71628000Y-62484000D01*
X73995500Y-61293400D02*
X72804900Y-62484000D01*
X85374300Y-61293400D02*
X73995500Y-61293400D01*
X86199100Y-62118200D02*
X85374300Y-61293400D01*
X86199100Y-62484000D02*
X86199100Y-62118200D01*
X87376000Y-62484000D02*
X86199100Y-62484000D01*
X128127000Y-113533000D02*
X135392000Y-113533000D01*
X125587000Y-116073000D02*
X128127000Y-113533000D01*
X124460000Y-116073000D02*
X125587000Y-116073000D01*
X108066000Y-123693000D02*
X116840000Y-123693000D01*
X105775000Y-125984000D02*
X108066000Y-123693000D01*
X104648000Y-125984000D02*
X105775000Y-125984000D01*
X202692000Y-169911000D02*
X199469000Y-169911000D01*
X146304000Y-96520000D02*
X205842000Y-96520000D01*
X114349000Y-100424000D02*
X106978000Y-100424000D01*
X118253000Y-96520000D02*
X114349000Y-100424000D01*
X119380000Y-96520000D02*
X118253000Y-96520000D01*
%TO.N,a8*%
X57795200Y-62484000D02*
X69088000Y-62484000D01*
X56604600Y-63674600D02*
X57795200Y-62484000D01*
X55341700Y-63674600D02*
X56604600Y-63674600D01*
X54516900Y-62849800D02*
X55341700Y-63674600D01*
X54516900Y-62484000D02*
X54516900Y-62849800D01*
X53340000Y-62484000D02*
X54516900Y-62484000D01*
X205343000Y-123952000D02*
X204216000Y-123952000D01*
X208506000Y-127115000D02*
X205343000Y-123952000D01*
X234696000Y-127115000D02*
X208506000Y-127115000D01*
X234696000Y-128162000D02*
X234696000Y-127115000D01*
X113017000Y-155048000D02*
X118811000Y-155048000D01*
X105675000Y-147706000D02*
X113017000Y-155048000D01*
X88897800Y-147706000D02*
X105675000Y-147706000D01*
X88254400Y-148350000D02*
X88897800Y-147706000D01*
X88254400Y-149385000D02*
X88254400Y-148350000D01*
X89126300Y-150257000D02*
X88254400Y-149385000D01*
X89408000Y-150257000D02*
X89126300Y-150257000D01*
X89408000Y-151384000D02*
X89408000Y-150257000D01*
X134500000Y-145643000D02*
X134225000Y-145368000D01*
X148751000Y-145643000D02*
X134500000Y-145643000D01*
X150613000Y-143781000D02*
X148751000Y-145643000D01*
X166699000Y-143781000D02*
X150613000Y-143781000D01*
X166842000Y-143638000D02*
X166699000Y-143781000D01*
X167444000Y-143638000D02*
X166842000Y-143638000D01*
X167587000Y-143781000D02*
X167444000Y-143638000D01*
X179394000Y-143781000D02*
X167587000Y-143781000D01*
X186628000Y-136547000D02*
X179394000Y-143781000D01*
%TO.N,d7*%
X70451100Y-59944000D02*
X71628000Y-59944000D01*
X70451100Y-59578200D02*
X70451100Y-59944000D01*
X69626300Y-58753400D02*
X70451100Y-59578200D01*
X58247500Y-58753400D02*
X69626300Y-58753400D01*
X57056900Y-59944000D02*
X58247500Y-58753400D01*
X55880000Y-59944000D02*
X57056900Y-59944000D01*
X72804900Y-59944000D02*
X71628000Y-59944000D01*
X73995500Y-58753400D02*
X72804900Y-59944000D01*
X85374300Y-58753400D02*
X73995500Y-58753400D01*
X86199100Y-59578200D02*
X85374300Y-58753400D01*
X86199100Y-59944000D02*
X86199100Y-59578200D01*
X87376000Y-59944000D02*
X86199100Y-59944000D01*
X234696000Y-142355000D02*
X234696000Y-143402000D01*
X208506000Y-142355000D02*
X234696000Y-142355000D01*
X205343000Y-139192000D02*
X208506000Y-142355000D01*
X204216000Y-139192000D02*
X205343000Y-139192000D01*
X173339000Y-182880000D02*
X172212000Y-182880000D01*
X173339000Y-179171000D02*
X173339000Y-182880000D01*
X201565000Y-177531000D02*
X202692000Y-177531000D01*
X200295000Y-178801000D02*
X201565000Y-177531000D01*
X173709000Y-178801000D02*
X200295000Y-178801000D01*
X173339000Y-179171000D02*
X173709000Y-178801000D01*
X119847000Y-92853100D02*
X117546000Y-92853100D01*
X120121000Y-93127100D02*
X119847000Y-92853100D01*
X126893000Y-93127100D02*
X120121000Y-93127100D01*
X129850000Y-90170000D02*
X126893000Y-93127100D01*
X141367000Y-90170000D02*
X129850000Y-90170000D01*
X145177000Y-86360000D02*
X141367000Y-90170000D01*
X146304000Y-86360000D02*
X145177000Y-86360000D01*
X124815000Y-158491000D02*
X129116000Y-158491000D01*
X119851000Y-153527000D02*
X124815000Y-158491000D01*
X114061000Y-153527000D02*
X119851000Y-153527000D01*
X106838000Y-146304000D02*
X114061000Y-153527000D01*
X104648000Y-146304000D02*
X106838000Y-146304000D01*
X117500000Y-92807200D02*
X117546000Y-92853100D01*
X114858000Y-92807200D02*
X117500000Y-92807200D01*
X118253000Y-86360000D02*
X119380000Y-86360000D01*
X117126000Y-85233100D02*
X118253000Y-86360000D01*
X103888000Y-85233100D02*
X117126000Y-85233100D01*
X103013000Y-84358200D02*
X103888000Y-85233100D01*
X103013000Y-80325400D02*
X103013000Y-84358200D01*
X103177000Y-80161900D02*
X103013000Y-80325400D01*
X146923000Y-182880000D02*
X145796000Y-182880000D01*
X148050000Y-181753000D02*
X146923000Y-182880000D01*
X167863000Y-181753000D02*
X148050000Y-181753000D01*
X170445000Y-179171000D02*
X167863000Y-181753000D01*
X173339000Y-179171000D02*
X170445000Y-179171000D01*
X145796000Y-182880000D02*
X143856000Y-182880000D01*
%TO.N,a7*%
X57795200Y-59944000D02*
X69088000Y-59944000D01*
X56604600Y-61134600D02*
X57795200Y-59944000D01*
X55341700Y-61134600D02*
X56604600Y-61134600D01*
X54516900Y-60309800D02*
X55341700Y-61134600D01*
X54516900Y-59944000D02*
X54516900Y-60309800D01*
X53340000Y-59944000D02*
X54516900Y-59944000D01*
X190103000Y-121412000D02*
X188976000Y-121412000D01*
X191373000Y-122682000D02*
X190103000Y-121412000D01*
X205482000Y-122682000D02*
X191373000Y-122682000D01*
X208422000Y-125622000D02*
X205482000Y-122682000D01*
X219456000Y-125622000D02*
X208422000Y-125622000D01*
X160528000Y-122280000D02*
X160528000Y-121153000D01*
X161584000Y-122280000D02*
X160528000Y-122280000D01*
X166985000Y-127681000D02*
X161584000Y-122280000D01*
X168007000Y-127681000D02*
X166985000Y-127681000D01*
X170466000Y-125222000D02*
X168007000Y-127681000D01*
X177744000Y-125222000D02*
X170466000Y-125222000D01*
X181091000Y-121875000D02*
X177744000Y-125222000D01*
X138472000Y-108848000D02*
X106995000Y-108848000D01*
X141887000Y-112263000D02*
X138472000Y-108848000D01*
X144033000Y-112263000D02*
X141887000Y-112263000D01*
X144235000Y-112464000D02*
X144033000Y-112263000D01*
X90534900Y-148844000D02*
X89408000Y-148844000D01*
X91804900Y-150114000D02*
X90534900Y-148844000D01*
X105178000Y-150114000D02*
X91804900Y-150114000D01*
X111616000Y-156552000D02*
X105178000Y-150114000D01*
X121159000Y-156552000D02*
X111616000Y-156552000D01*
X121516000Y-156908000D02*
X121159000Y-156552000D01*
%TO.N,d6*%
X70451100Y-57404000D02*
X71628000Y-57404000D01*
X70451100Y-57038200D02*
X70451100Y-57404000D01*
X69626300Y-56213400D02*
X70451100Y-57038200D01*
X58247500Y-56213400D02*
X69626300Y-56213400D01*
X57056900Y-57404000D02*
X58247500Y-56213400D01*
X55880000Y-57404000D02*
X57056900Y-57404000D01*
X72804900Y-57404000D02*
X71628000Y-57404000D01*
X73995500Y-56213400D02*
X72804900Y-57404000D01*
X85374300Y-56213400D02*
X73995500Y-56213400D01*
X86199100Y-57038200D02*
X85374300Y-56213400D01*
X86199100Y-57404000D02*
X86199100Y-57038200D01*
X87376000Y-57404000D02*
X86199100Y-57404000D01*
X234696000Y-144895000D02*
X234696000Y-145942000D01*
X208506000Y-144895000D02*
X234696000Y-144895000D01*
X205343000Y-141732000D02*
X208506000Y-144895000D01*
X204216000Y-141732000D02*
X205343000Y-141732000D01*
X145796000Y-180340000D02*
X153848000Y-180340000D01*
X171085000Y-180340000D02*
X171085000Y-182987000D01*
X172212000Y-180340000D02*
X171085000Y-180340000D01*
X201565000Y-180071000D02*
X202692000Y-180071000D01*
X198542000Y-183094000D02*
X201565000Y-180071000D01*
X188769000Y-183094000D02*
X198542000Y-183094000D01*
X187982000Y-183881000D02*
X188769000Y-183094000D01*
X186327000Y-183881000D02*
X187982000Y-183881000D01*
X186130000Y-184078000D02*
X186327000Y-183881000D01*
X171756000Y-184078000D02*
X186130000Y-184078000D01*
X171085000Y-183406000D02*
X171756000Y-184078000D01*
X171085000Y-182987000D02*
X171085000Y-183406000D01*
X120507000Y-83820000D02*
X119380000Y-83820000D01*
X122200000Y-85513000D02*
X120507000Y-83820000D01*
X127346000Y-85513000D02*
X122200000Y-85513000D01*
X130200000Y-82658500D02*
X127346000Y-85513000D01*
X144016000Y-82658500D02*
X130200000Y-82658500D01*
X145177000Y-83820000D02*
X144016000Y-82658500D01*
X146304000Y-83820000D02*
X145177000Y-83820000D01*
X123680000Y-155177000D02*
X151871000Y-155177000D01*
X119653000Y-151150000D02*
X123680000Y-155177000D01*
X114117000Y-151150000D02*
X119653000Y-151150000D01*
X106730000Y-143764000D02*
X114117000Y-151150000D01*
X104648000Y-143764000D02*
X106730000Y-143764000D01*
X171085000Y-182987000D02*
X159093000Y-182987000D01*
%TO.N,a6*%
X58476500Y-57404000D02*
X69088000Y-57404000D01*
X57295700Y-58584800D02*
X58476500Y-57404000D01*
X55325400Y-58584800D02*
X57295700Y-58584800D01*
X54516900Y-57776300D02*
X55325400Y-58584800D01*
X54516900Y-57404000D02*
X54516900Y-57776300D01*
X53340000Y-57404000D02*
X54516900Y-57404000D01*
X160528000Y-118613000D02*
X162620000Y-118613000D01*
X190183000Y-123952000D02*
X188976000Y-123952000D01*
X191453000Y-125222000D02*
X190183000Y-123952000D01*
X205482000Y-125222000D02*
X191453000Y-125222000D01*
X208422000Y-128162000D02*
X205482000Y-125222000D01*
X219456000Y-128162000D02*
X208422000Y-128162000D01*
X177688000Y-134114000D02*
X165113000Y-134114000D01*
X187849000Y-123952000D02*
X177688000Y-134114000D01*
X188976000Y-123952000D02*
X187849000Y-123952000D01*
X77712000Y-137831000D02*
X61808900Y-137831000D01*
X80049800Y-135493000D02*
X77712000Y-137831000D01*
X81264800Y-135493000D02*
X80049800Y-135493000D01*
X81898900Y-136127000D02*
X81264800Y-135493000D01*
X81898900Y-138795000D02*
X81898900Y-136127000D01*
X88281100Y-145177000D02*
X81898900Y-138795000D01*
X89408000Y-145177000D02*
X88281100Y-145177000D01*
X89408000Y-146304000D02*
X89408000Y-145177000D01*
X56016000Y-91773700D02*
X54083600Y-91773700D01*
X56138200Y-91895900D02*
X56016000Y-91773700D01*
X87765600Y-147946000D02*
X89408000Y-146304000D01*
X87765600Y-151355000D02*
X87765600Y-147946000D01*
X89064300Y-152654000D02*
X87765600Y-151355000D01*
X106944000Y-152654000D02*
X89064300Y-152654000D01*
X111668000Y-157377000D02*
X106944000Y-152654000D01*
X119553000Y-157377000D02*
X111668000Y-157377000D01*
X131353000Y-149484000D02*
X162112000Y-149484000D01*
X130321000Y-150517000D02*
X131353000Y-149484000D01*
%TO.N,d5*%
X70451100Y-54864000D02*
X71628000Y-54864000D01*
X70451100Y-54498200D02*
X70451100Y-54864000D01*
X69626300Y-53673400D02*
X70451100Y-54498200D01*
X58247500Y-53673400D02*
X69626300Y-53673400D01*
X57056900Y-54864000D02*
X58247500Y-53673400D01*
X55880000Y-54864000D02*
X57056900Y-54864000D01*
X72804900Y-54864000D02*
X71628000Y-54864000D01*
X73995500Y-53673400D02*
X72804900Y-54864000D01*
X85374300Y-53673400D02*
X73995500Y-53673400D01*
X86199100Y-54498200D02*
X85374300Y-53673400D01*
X86199100Y-54864000D02*
X86199100Y-54498200D01*
X87376000Y-54864000D02*
X86199100Y-54864000D01*
X174737000Y-176402000D02*
X200370000Y-176402000D01*
X173339000Y-177800000D02*
X174737000Y-176402000D01*
X172212000Y-177800000D02*
X173339000Y-177800000D01*
X145177000Y-81280000D02*
X146304000Y-81280000D01*
X143978000Y-80081300D02*
X145177000Y-81280000D01*
X130018000Y-80081300D02*
X143978000Y-80081300D01*
X127122000Y-82976400D02*
X130018000Y-80081300D01*
X122203000Y-82976400D02*
X127122000Y-82976400D01*
X120507000Y-81280000D02*
X122203000Y-82976400D01*
X119380000Y-81280000D02*
X120507000Y-81280000D01*
X205343000Y-144272000D02*
X204216000Y-144272000D01*
X208506000Y-147435000D02*
X205343000Y-144272000D01*
X234696000Y-147435000D02*
X208506000Y-147435000D01*
X234696000Y-148482000D02*
X234696000Y-147435000D01*
X146923000Y-177800000D02*
X145796000Y-177800000D01*
X148124000Y-179001000D02*
X146923000Y-177800000D01*
X169884000Y-179001000D02*
X148124000Y-179001000D01*
X171085000Y-177800000D02*
X169884000Y-179001000D01*
X172212000Y-177800000D02*
X171085000Y-177800000D01*
X204216000Y-144272000D02*
X198910000Y-144272000D01*
X192006000Y-144272000D02*
X198910000Y-144272000D01*
X190875000Y-143141000D02*
X192006000Y-144272000D01*
X182692000Y-143141000D02*
X190875000Y-143141000D01*
X180742000Y-145092000D02*
X182692000Y-143141000D01*
X166556000Y-145092000D02*
X180742000Y-145092000D01*
X165552000Y-146095000D02*
X166556000Y-145092000D01*
X112217000Y-146095000D02*
X165552000Y-146095000D01*
X107346000Y-141224000D02*
X112217000Y-146095000D01*
X104648000Y-141224000D02*
X107346000Y-141224000D01*
%TO.N,a5*%
X57795200Y-54864000D02*
X69088000Y-54864000D01*
X56604600Y-56054600D02*
X57795200Y-54864000D01*
X55341700Y-56054600D02*
X56604600Y-56054600D01*
X54516900Y-55229800D02*
X55341700Y-56054600D01*
X54516900Y-54864000D02*
X54516900Y-55229800D01*
X53340000Y-54864000D02*
X54516900Y-54864000D01*
X161655000Y-116073000D02*
X160528000Y-116073000D01*
X165588000Y-120006000D02*
X161655000Y-116073000D01*
X178179000Y-120006000D02*
X165588000Y-120006000D01*
X178406000Y-119778000D02*
X178179000Y-120006000D01*
X190103000Y-126492000D02*
X188976000Y-126492000D01*
X191373000Y-127762000D02*
X190103000Y-126492000D01*
X205482000Y-127762000D02*
X191373000Y-127762000D01*
X208422000Y-130702000D02*
X205482000Y-127762000D01*
X219456000Y-130702000D02*
X208422000Y-130702000D01*
X91720800Y-104457000D02*
X78812900Y-104457000D01*
X94933600Y-107669000D02*
X91720800Y-104457000D01*
X107483000Y-107669000D02*
X94933600Y-107669000D01*
X107604000Y-107790000D02*
X107483000Y-107669000D01*
X149523000Y-107790000D02*
X107604000Y-107790000D01*
X149765000Y-107548000D02*
X149523000Y-107790000D01*
%TO.N,d4*%
X70451100Y-52324000D02*
X71628000Y-52324000D01*
X70451100Y-51958200D02*
X70451100Y-52324000D01*
X69626300Y-51133400D02*
X70451100Y-51958200D01*
X58247500Y-51133400D02*
X69626300Y-51133400D01*
X57056900Y-52324000D02*
X58247500Y-51133400D01*
X55880000Y-52324000D02*
X57056900Y-52324000D01*
X72804900Y-52324000D02*
X71628000Y-52324000D01*
X73995500Y-51133400D02*
X72804900Y-52324000D01*
X85374300Y-51133400D02*
X73995500Y-51133400D01*
X86199100Y-51958200D02*
X85374300Y-51133400D01*
X86199100Y-52324000D02*
X86199100Y-51958200D01*
X87376000Y-52324000D02*
X86199100Y-52324000D01*
X234696000Y-149975000D02*
X234696000Y-151022000D01*
X208506000Y-149975000D02*
X234696000Y-149975000D01*
X205343000Y-146812000D02*
X208506000Y-149975000D01*
X204216000Y-146812000D02*
X205343000Y-146812000D01*
X173339000Y-175260000D02*
X172212000Y-175260000D01*
X174764000Y-173834000D02*
X173339000Y-175260000D01*
X203195000Y-173834000D02*
X174764000Y-173834000D01*
X203822000Y-174462000D02*
X203195000Y-173834000D01*
X203822000Y-175882000D02*
X203822000Y-174462000D01*
X146923000Y-175260000D02*
X145796000Y-175260000D01*
X148082000Y-176419000D02*
X146923000Y-175260000D01*
X169926000Y-176419000D02*
X148082000Y-176419000D01*
X171085000Y-175260000D02*
X169926000Y-176419000D01*
X172212000Y-175260000D02*
X171085000Y-175260000D01*
X145498000Y-144641000D02*
X145774000Y-144916000D01*
X132559000Y-144641000D02*
X145498000Y-144641000D01*
X131286000Y-143368000D02*
X132559000Y-144641000D01*
X110459000Y-143368000D02*
X131286000Y-143368000D01*
X105775000Y-138684000D02*
X110459000Y-143368000D01*
X104648000Y-138684000D02*
X105775000Y-138684000D01*
X115528000Y-80825600D02*
X112868000Y-80825600D01*
X117614000Y-78740000D02*
X115528000Y-80825600D01*
X119380000Y-78740000D02*
X117614000Y-78740000D01*
X152480000Y-104580000D02*
X153021000Y-104039000D01*
X137218000Y-104580000D02*
X152480000Y-104580000D01*
X136928000Y-104870000D02*
X137218000Y-104580000D01*
X114844000Y-104870000D02*
X136928000Y-104870000D01*
X112832000Y-102858000D02*
X114844000Y-104870000D01*
X112832000Y-101626000D02*
X112832000Y-102858000D01*
%TO.N,a4*%
X57795200Y-52324000D02*
X69088000Y-52324000D01*
X56604600Y-53514600D02*
X57795200Y-52324000D01*
X55341700Y-53514600D02*
X56604600Y-53514600D01*
X54516900Y-52689800D02*
X55341700Y-53514600D01*
X54516900Y-52324000D02*
X54516900Y-52689800D01*
X53340000Y-52324000D02*
X54516900Y-52324000D01*
X190103000Y-129032000D02*
X188976000Y-129032000D01*
X191373000Y-130302000D02*
X190103000Y-129032000D01*
X205482000Y-130302000D02*
X191373000Y-130302000D01*
X208422000Y-133242000D02*
X205482000Y-130302000D01*
X219456000Y-133242000D02*
X208422000Y-133242000D01*
X87886600Y-140830000D02*
X85016500Y-140830000D01*
X88281100Y-141224000D02*
X87886600Y-140830000D01*
X89408000Y-141224000D02*
X88281100Y-141224000D01*
X91769800Y-105790000D02*
X78084400Y-105790000D01*
X94101300Y-108121000D02*
X91769800Y-105790000D01*
X107296000Y-108121000D02*
X94101300Y-108121000D01*
X107472000Y-108297000D02*
X107296000Y-108121000D01*
X153056000Y-108297000D02*
X107472000Y-108297000D01*
X166907000Y-112380000D02*
X176674000Y-112380000D01*
X165754000Y-113533000D02*
X166907000Y-112380000D01*
X160528000Y-113533000D02*
X165754000Y-113533000D01*
%TO.N,d3*%
X70451100Y-49784000D02*
X71628000Y-49784000D01*
X70451100Y-49418200D02*
X70451100Y-49784000D01*
X69626300Y-48593400D02*
X70451100Y-49418200D01*
X58247500Y-48593400D02*
X69626300Y-48593400D01*
X57056900Y-49784000D02*
X58247500Y-48593400D01*
X55880000Y-49784000D02*
X57056900Y-49784000D01*
X72804900Y-49784000D02*
X71628000Y-49784000D01*
X73995500Y-48593400D02*
X72804900Y-49784000D01*
X85374300Y-48593400D02*
X73995500Y-48593400D01*
X86199100Y-49418200D02*
X85374300Y-48593400D01*
X86199100Y-49784000D02*
X86199100Y-49418200D01*
X87376000Y-49784000D02*
X86199100Y-49784000D01*
X205343000Y-149352000D02*
X204216000Y-149352000D01*
X208506000Y-152515000D02*
X205343000Y-149352000D01*
X234696000Y-152515000D02*
X208506000Y-152515000D01*
X234696000Y-153562000D02*
X234696000Y-152515000D01*
X145177000Y-76200000D02*
X146304000Y-76200000D01*
X143986000Y-75009400D02*
X145177000Y-76200000D01*
X129337000Y-75009400D02*
X143986000Y-75009400D01*
X126420000Y-77926400D02*
X129337000Y-75009400D01*
X122233000Y-77926400D02*
X126420000Y-77926400D01*
X120507000Y-76200000D02*
X122233000Y-77926400D01*
X119380000Y-76200000D02*
X120507000Y-76200000D01*
X147137000Y-144189000D02*
X147412000Y-144464000D01*
X132746000Y-144189000D02*
X147137000Y-144189000D01*
X131442000Y-142886000D02*
X132746000Y-144189000D01*
X130297000Y-142886000D02*
X131442000Y-142886000D01*
X128447000Y-141036000D02*
X130297000Y-142886000D01*
X110667000Y-141036000D02*
X128447000Y-141036000D01*
X105775000Y-136144000D02*
X110667000Y-141036000D01*
X104648000Y-136144000D02*
X105775000Y-136144000D01*
X118253000Y-76200000D02*
X119380000Y-76200000D01*
X115384000Y-79069300D02*
X118253000Y-76200000D01*
X114334000Y-79069300D02*
X115384000Y-79069300D01*
X114050000Y-78784700D02*
X114334000Y-79069300D01*
X110373000Y-78784700D02*
X114050000Y-78784700D01*
X110141000Y-78552200D02*
X110373000Y-78784700D01*
X173339000Y-172720000D02*
X172212000Y-172720000D01*
X182176000Y-163882000D02*
X173339000Y-172720000D01*
X204646000Y-163882000D02*
X182176000Y-163882000D01*
X146925000Y-172720000D02*
X145796000Y-172720000D01*
X148106000Y-173901000D02*
X146925000Y-172720000D01*
X169904000Y-173901000D02*
X148106000Y-173901000D01*
X171085000Y-172720000D02*
X169904000Y-173901000D01*
X172212000Y-172720000D02*
X171085000Y-172720000D01*
%TO.N,a3*%
X57795200Y-49784000D02*
X69088000Y-49784000D01*
X56604600Y-50974600D02*
X57795200Y-49784000D01*
X55341700Y-50974600D02*
X56604600Y-50974600D01*
X54516900Y-50149800D02*
X55341700Y-50974600D01*
X54516900Y-49784000D02*
X54516900Y-50149800D01*
X53340000Y-49784000D02*
X54516900Y-49784000D01*
X190103000Y-131572000D02*
X188976000Y-131572000D01*
X191371000Y-132840000D02*
X190103000Y-131572000D01*
X207156000Y-132840000D02*
X191371000Y-132840000D01*
X209051000Y-134735000D02*
X207156000Y-132840000D01*
X219456000Y-134735000D02*
X209051000Y-134735000D01*
X219456000Y-135782000D02*
X219456000Y-134735000D01*
X89408000Y-138684000D02*
X84289500Y-138684000D01*
X145177000Y-63500000D02*
X146304000Y-63500000D01*
X144050000Y-62373100D02*
X145177000Y-63500000D01*
X126253000Y-62373100D02*
X144050000Y-62373100D01*
X125962000Y-62082300D02*
X126253000Y-62373100D01*
X121925000Y-62082300D02*
X125962000Y-62082300D01*
X120507000Y-63500000D02*
X121925000Y-62082300D01*
X119380000Y-63500000D02*
X120507000Y-63500000D01*
X118253000Y-63500000D02*
X119380000Y-63500000D01*
X114445000Y-59691500D02*
X118253000Y-63500000D01*
X96163900Y-59691500D02*
X114445000Y-59691500D01*
X90066400Y-53594000D02*
X96163900Y-59691500D01*
X86329600Y-53594000D02*
X90066400Y-53594000D01*
X146304000Y-63500000D02*
X178109000Y-63500000D01*
%TO.N,d2*%
X208422000Y-151022000D02*
X219456000Y-151022000D01*
X205482000Y-148082000D02*
X208422000Y-151022000D01*
X191373000Y-148082000D02*
X205482000Y-148082000D01*
X190103000Y-146812000D02*
X191373000Y-148082000D01*
X188976000Y-146812000D02*
X190103000Y-146812000D01*
X145177000Y-73660000D02*
X146304000Y-73660000D01*
X144050000Y-72533100D02*
X145177000Y-73660000D01*
X121634000Y-72533100D02*
X144050000Y-72533100D01*
X120507000Y-73660000D02*
X121634000Y-72533100D01*
X119380000Y-73660000D02*
X120507000Y-73660000D01*
X146923000Y-170180000D02*
X145796000Y-170180000D01*
X148114000Y-171371000D02*
X146923000Y-170180000D01*
X169894000Y-171371000D02*
X148114000Y-171371000D01*
X171085000Y-170180000D02*
X169894000Y-171371000D01*
X172212000Y-170180000D02*
X171085000Y-170180000D01*
X86199100Y-47244000D02*
X87376000Y-47244000D01*
X86199100Y-46878200D02*
X86199100Y-47244000D01*
X85374300Y-46053400D02*
X86199100Y-46878200D01*
X73995500Y-46053400D02*
X85374300Y-46053400D01*
X72804900Y-47244000D02*
X73995500Y-46053400D01*
X71628000Y-47244000D02*
X72804900Y-47244000D01*
X113891000Y-78021800D02*
X111474000Y-78021800D01*
X118253000Y-73660000D02*
X113891000Y-78021800D01*
X119380000Y-73660000D02*
X118253000Y-73660000D01*
X104371000Y-57006900D02*
X105558000Y-58193200D01*
X98315800Y-57006900D02*
X104371000Y-57006900D01*
X88552900Y-47244000D02*
X98315800Y-57006900D01*
X87376000Y-47244000D02*
X88552900Y-47244000D01*
X107752000Y-133604000D02*
X104648000Y-133604000D01*
X109117000Y-132238000D02*
X107752000Y-133604000D01*
X115551000Y-132238000D02*
X109117000Y-132238000D01*
X118249000Y-134937000D02*
X115551000Y-132238000D01*
X125667000Y-134937000D02*
X118249000Y-134937000D01*
X128916000Y-138185000D02*
X125667000Y-134937000D01*
X129937000Y-138185000D02*
X128916000Y-138185000D01*
X133682000Y-141930000D02*
X129937000Y-138185000D01*
X165994000Y-141930000D02*
X133682000Y-141930000D01*
X166093000Y-141830000D02*
X165994000Y-141930000D01*
X170793000Y-141830000D02*
X166093000Y-141830000D01*
X170936000Y-141974000D02*
X170793000Y-141830000D01*
X175553000Y-141974000D02*
X170936000Y-141974000D01*
X176572000Y-140954000D02*
X175553000Y-141974000D01*
%TO.N,a2*%
X67911100Y-47244000D02*
X69088000Y-47244000D01*
X67460700Y-47694400D02*
X67911100Y-47244000D01*
X58391400Y-47694400D02*
X67460700Y-47694400D01*
X57623000Y-48462800D02*
X58391400Y-47694400D01*
X55369900Y-48462800D02*
X57623000Y-48462800D01*
X54516900Y-47609800D02*
X55369900Y-48462800D01*
X54516900Y-47244000D02*
X54516900Y-47609800D01*
X53340000Y-47244000D02*
X54516900Y-47244000D01*
X74224500Y-47244000D02*
X84836000Y-47244000D01*
X73047300Y-48421200D02*
X74224500Y-47244000D01*
X71076300Y-48421200D02*
X73047300Y-48421200D01*
X70264900Y-47609800D02*
X71076300Y-48421200D01*
X70264900Y-47244000D02*
X70264900Y-47609800D01*
X69088000Y-47244000D02*
X70264900Y-47244000D01*
X190910000Y-134112000D02*
X188976000Y-134112000D01*
X192086000Y-135288000D02*
X190910000Y-134112000D01*
X204446000Y-135288000D02*
X192086000Y-135288000D01*
X207480000Y-138322000D02*
X204446000Y-135288000D01*
X219456000Y-138322000D02*
X207480000Y-138322000D01*
X121118000Y-60960000D02*
X119380000Y-60960000D01*
X122627000Y-59451000D02*
X121118000Y-60960000D01*
X130501000Y-59451000D02*
X122627000Y-59451000D01*
X130883000Y-59833100D02*
X130501000Y-59451000D01*
X144050000Y-59833100D02*
X130883000Y-59833100D01*
X145177000Y-60960000D02*
X144050000Y-59833100D01*
X146304000Y-60960000D02*
X145177000Y-60960000D01*
X113984000Y-133034000D02*
X113984000Y-133719000D01*
X113917000Y-132967000D02*
X113984000Y-133034000D01*
X112685000Y-135017000D02*
X113984000Y-133719000D01*
X91661800Y-135017000D02*
X112685000Y-135017000D01*
X90534900Y-136144000D02*
X91661800Y-135017000D01*
X89408000Y-136144000D02*
X90534900Y-136144000D01*
X115982000Y-100951000D02*
X126679000Y-100951000D01*
X116392000Y-133719000D02*
X113984000Y-133719000D01*
X118062000Y-135389000D02*
X116392000Y-133719000D01*
X125480000Y-135389000D02*
X118062000Y-135389000D01*
X131118000Y-141026000D02*
X125480000Y-135389000D01*
X132139000Y-141026000D02*
X131118000Y-141026000D01*
X133495000Y-142382000D02*
X132139000Y-141026000D01*
X166181000Y-142382000D02*
X133495000Y-142382000D01*
X166280000Y-142282000D02*
X166181000Y-142382000D01*
X170605000Y-142282000D02*
X166280000Y-142282000D01*
X170749000Y-142426000D02*
X170605000Y-142282000D01*
X176668000Y-142426000D02*
X170749000Y-142426000D01*
X183844000Y-135250000D02*
X176668000Y-142426000D01*
X183844000Y-135170000D02*
X183844000Y-135250000D01*
X184902000Y-134112000D02*
X183844000Y-135170000D01*
X188976000Y-134112000D02*
X184902000Y-134112000D01*
%TO.N,d1*%
X70451100Y-44704000D02*
X71628000Y-44704000D01*
X70451100Y-44336200D02*
X70451100Y-44704000D01*
X69628600Y-43513700D02*
X70451100Y-44336200D01*
X58247200Y-43513700D02*
X69628600Y-43513700D01*
X57056900Y-44704000D02*
X58247200Y-43513700D01*
X55880000Y-44704000D02*
X57056900Y-44704000D01*
X208422000Y-148482000D02*
X219456000Y-148482000D01*
X205482000Y-145542000D02*
X208422000Y-148482000D01*
X191373000Y-145542000D02*
X205482000Y-145542000D01*
X190103000Y-144272000D02*
X191373000Y-145542000D01*
X188976000Y-144272000D02*
X190103000Y-144272000D01*
X88552900Y-44847000D02*
X92863000Y-49157100D01*
X88552900Y-44704000D02*
X88552900Y-44847000D01*
X87376000Y-44704000D02*
X88552900Y-44704000D01*
X120507000Y-71120000D02*
X119380000Y-71120000D01*
X121977000Y-69649800D02*
X120507000Y-71120000D01*
X125909000Y-69649800D02*
X121977000Y-69649800D01*
X126216000Y-69956100D02*
X125909000Y-69649800D01*
X144013000Y-69956100D02*
X126216000Y-69956100D01*
X145177000Y-71120000D02*
X144013000Y-69956100D01*
X146304000Y-71120000D02*
X145177000Y-71120000D01*
X172212000Y-167640000D02*
X169726000Y-167640000D01*
X147508000Y-167640000D02*
X145796000Y-167640000D01*
X148643000Y-168774000D02*
X147508000Y-167640000D01*
X168592000Y-168774000D02*
X148643000Y-168774000D01*
X169726000Y-167640000D02*
X168592000Y-168774000D01*
X105775000Y-131064000D02*
X104648000Y-131064000D01*
X106032000Y-130806000D02*
X105775000Y-131064000D01*
X115490000Y-130806000D02*
X106032000Y-130806000D01*
X118491000Y-133808000D02*
X115490000Y-130806000D01*
X125817000Y-133808000D02*
X118491000Y-133808000D01*
X129131000Y-137122000D02*
X125817000Y-133808000D01*
X130152000Y-137122000D02*
X129131000Y-137122000D01*
X134056000Y-141026000D02*
X130152000Y-137122000D01*
X165619000Y-141026000D02*
X134056000Y-141026000D01*
X165850000Y-140795000D02*
X165619000Y-141026000D01*
X171424000Y-140795000D02*
X165850000Y-140795000D01*
X116545000Y-71120000D02*
X119380000Y-71120000D01*
X109414000Y-78251200D02*
X116545000Y-71120000D01*
X109414000Y-78862400D02*
X109414000Y-78251200D01*
X110106000Y-79554200D02*
X109414000Y-78862400D01*
X110182000Y-79554200D02*
X110106000Y-79554200D01*
%TO.N,a1*%
X54516900Y-44704000D02*
X53340000Y-44704000D01*
X54516900Y-45071800D02*
X54516900Y-44704000D01*
X55339300Y-45894200D02*
X54516900Y-45071800D01*
X66720900Y-45894200D02*
X55339300Y-45894200D01*
X67911100Y-44704000D02*
X66720900Y-45894200D01*
X69088000Y-44704000D02*
X67911100Y-44704000D01*
X118253000Y-58420000D02*
X119380000Y-58420000D01*
X117909000Y-58075500D02*
X118253000Y-58420000D01*
X108686000Y-58075500D02*
X117909000Y-58075500D01*
X105221000Y-54610000D02*
X108686000Y-58075500D01*
X97267000Y-54610000D02*
X105221000Y-54610000D01*
X88631000Y-45974000D02*
X97267000Y-54610000D01*
X86917100Y-45974000D02*
X88631000Y-45974000D01*
X86012900Y-45069800D02*
X86917100Y-45974000D01*
X86012900Y-44704000D02*
X86012900Y-45069800D01*
X84836000Y-44704000D02*
X86012900Y-44704000D01*
X190989000Y-137538000D02*
X202917000Y-137538000D01*
X190103000Y-136652000D02*
X190989000Y-137538000D01*
X188976000Y-136652000D02*
X190103000Y-136652000D01*
X126650000Y-51924100D02*
X123328000Y-51924100D01*
X126723000Y-51997600D02*
X126650000Y-51924100D01*
X139882000Y-51997600D02*
X126723000Y-51997600D01*
X77557800Y-93966000D02*
X51667800Y-93966000D01*
X80361600Y-96769800D02*
X77557800Y-93966000D01*
X146304000Y-58420000D02*
X210496000Y-58420000D01*
%TO.N,d0*%
X171085000Y-165100000D02*
X172212000Y-165100000D01*
X169910000Y-163925000D02*
X171085000Y-165100000D01*
X148098000Y-163925000D02*
X169910000Y-163925000D01*
X146923000Y-165100000D02*
X148098000Y-163925000D01*
X145796000Y-165100000D02*
X146923000Y-165100000D01*
X208422000Y-145942000D02*
X219456000Y-145942000D01*
X205482000Y-143002000D02*
X208422000Y-145942000D01*
X196222000Y-143002000D02*
X205482000Y-143002000D01*
X145177000Y-68580000D02*
X146304000Y-68580000D01*
X144050000Y-67453100D02*
X145177000Y-68580000D01*
X130883000Y-67453100D02*
X144050000Y-67453100D01*
X130592000Y-67161800D02*
X130883000Y-67453100D01*
X121925000Y-67161800D02*
X130592000Y-67161800D01*
X120507000Y-68580000D02*
X121925000Y-67161800D01*
X119380000Y-68580000D02*
X120507000Y-68580000D01*
X107775000Y-55172700D02*
X107775000Y-55375300D01*
X104530000Y-51928100D02*
X107775000Y-55172700D01*
X103206000Y-51928100D02*
X104530000Y-51928100D01*
X96329400Y-45051700D02*
X103206000Y-51928100D01*
X89783500Y-45051700D02*
X96329400Y-45051700D01*
X87704900Y-42973100D02*
X89783500Y-45051700D01*
X86199100Y-42973100D02*
X87704900Y-42973100D01*
X86199100Y-42164000D02*
X86199100Y-42973100D01*
X87376000Y-42164000D02*
X86199100Y-42164000D01*
X72804900Y-42164000D02*
X71628000Y-42164000D01*
X73995200Y-43354300D02*
X72804900Y-42164000D01*
X85817900Y-43354300D02*
X73995200Y-43354300D01*
X86199100Y-42973100D02*
X85817900Y-43354300D01*
X194952000Y-141732000D02*
X188976000Y-141732000D01*
X196222000Y-143002000D02*
X194952000Y-141732000D01*
X115529000Y-131578000D02*
X106771000Y-131578000D01*
X118436000Y-134485000D02*
X115529000Y-131578000D01*
X125854000Y-134485000D02*
X118436000Y-134485000D01*
X129103000Y-137733000D02*
X125854000Y-134485000D01*
X130124000Y-137733000D02*
X129103000Y-137733000D01*
X133869000Y-141478000D02*
X130124000Y-137733000D01*
X165806000Y-141478000D02*
X133869000Y-141478000D01*
X165906000Y-141379000D02*
X165806000Y-141478000D01*
X170980000Y-141379000D02*
X165906000Y-141379000D01*
X171123000Y-141522000D02*
X170980000Y-141379000D01*
X171725000Y-141522000D02*
X171123000Y-141522000D01*
X172221000Y-141026000D02*
X171725000Y-141522000D01*
X175461000Y-141026000D02*
X172221000Y-141026000D01*
X118253000Y-68580000D02*
X119380000Y-68580000D01*
X118253000Y-68836500D02*
X118253000Y-68580000D01*
X117746000Y-69343500D02*
X118253000Y-68836500D01*
X117044000Y-69343500D02*
X117746000Y-69343500D01*
X108412000Y-77974600D02*
X117044000Y-69343500D01*
X108412000Y-79499400D02*
X108412000Y-77974600D01*
X109753000Y-80840300D02*
X108412000Y-79499400D01*
X110952000Y-80840300D02*
X109753000Y-80840300D01*
%TO.N,a0*%
X67911100Y-42164000D02*
X68499600Y-42164000D01*
X66734200Y-40987100D02*
X67911100Y-42164000D01*
X55326000Y-40987100D02*
X66734200Y-40987100D01*
X54516900Y-41796200D02*
X55326000Y-40987100D01*
X54516900Y-42164000D02*
X54516900Y-41796200D01*
X53340000Y-42164000D02*
X54516900Y-42164000D01*
X83659100Y-42164000D02*
X84247600Y-42164000D01*
X82482200Y-40987100D02*
X83659100Y-42164000D01*
X69676500Y-40987100D02*
X82482200Y-40987100D01*
X68499600Y-42164000D02*
X69676500Y-40987100D01*
X89408000Y-132191000D02*
X89408000Y-131064000D01*
X89291100Y-132308000D02*
X89408000Y-132191000D01*
X84264500Y-132308000D02*
X89291100Y-132308000D01*
X145177000Y-55880000D02*
X146304000Y-55880000D01*
X144010000Y-57047400D02*
X145177000Y-55880000D01*
X126007000Y-57047400D02*
X144010000Y-57047400D01*
X125937000Y-56977800D02*
X126007000Y-57047400D01*
X122579000Y-56977800D02*
X125937000Y-56977800D01*
X121482000Y-55880000D02*
X122579000Y-56977800D01*
X119380000Y-55880000D02*
X121482000Y-55880000D01*
X85483100Y-40928500D02*
X84247600Y-42164000D01*
X99807000Y-40928500D02*
X85483100Y-40928500D01*
X111045000Y-52166900D02*
X99807000Y-40928500D01*
X119801000Y-52166900D02*
X111045000Y-52166900D01*
X120558000Y-52923900D02*
X119801000Y-52166900D01*
X120558000Y-53809000D02*
X120558000Y-52923900D01*
X119614000Y-54753100D02*
X120558000Y-53809000D01*
X119380000Y-54753100D02*
X119614000Y-54753100D01*
X119380000Y-55880000D02*
X119380000Y-54753100D01*
X146304000Y-55880000D02*
X215626000Y-55880000D01*
X84836000Y-42164000D02*
X84247600Y-42164000D01*
X69088000Y-42164000D02*
X68499600Y-42164000D01*
X205482000Y-140462000D02*
X198852600Y-140462000D01*
X208422000Y-143402000D02*
X205482000Y-140462000D01*
X219456000Y-143402000D02*
X208422000Y-143402000D01*
X190103000Y-139192000D02*
X188976000Y-139192000D01*
X191373000Y-140462000D02*
X190103000Y-139192000D01*
X198852600Y-140462000D02*
X191373000Y-140462000D01*
%TO.N,2pb7*%
X126653000Y-94488000D02*
X125476000Y-94488000D01*
X129701000Y-91440000D02*
X126653000Y-94488000D01*
X131064000Y-91440000D02*
X129701000Y-91440000D01*
%TO.N,2pb6*%
X127110000Y-91948000D02*
X125476000Y-91948000D01*
X129937000Y-89121300D02*
X127110000Y-91948000D01*
X129937000Y-88900000D02*
X129937000Y-89121300D01*
X131064000Y-88900000D02*
X129937000Y-88900000D01*
%TO.N,2pb5*%
X126653000Y-89408000D02*
X125476000Y-89408000D01*
X129701000Y-86360000D02*
X126653000Y-89408000D01*
X131064000Y-86360000D02*
X129701000Y-86360000D01*
%TO.N,2pb4*%
X129701000Y-83820000D02*
X131064000Y-83820000D01*
X126653000Y-86868000D02*
X129701000Y-83820000D01*
X125476000Y-86868000D02*
X126653000Y-86868000D01*
%TO.N,2pb3*%
X129701000Y-81280000D02*
X131064000Y-81280000D01*
X126653000Y-84328000D02*
X129701000Y-81280000D01*
X125476000Y-84328000D02*
X126653000Y-84328000D01*
%TO.N,2pb2*%
X126889000Y-81788000D02*
X125476000Y-81788000D01*
X129937000Y-78740000D02*
X126889000Y-81788000D01*
X131064000Y-78740000D02*
X129937000Y-78740000D01*
%TO.N,2pb1*%
X129701000Y-76200000D02*
X131064000Y-76200000D01*
X126653000Y-79248000D02*
X129701000Y-76200000D01*
X125476000Y-79248000D02*
X126653000Y-79248000D01*
%TO.N,2pb0*%
X130313000Y-73660000D02*
X131064000Y-73660000D01*
X130313000Y-73660100D02*
X130313000Y-73660000D01*
X129549000Y-74423500D02*
X130313000Y-73660100D01*
X128937000Y-74423500D02*
X129549000Y-74423500D01*
X126653000Y-76708000D02*
X128937000Y-74423500D01*
X125476000Y-76708000D02*
X126653000Y-76708000D01*
%TO.N,Net-(D2-A)*%
X71628000Y-99060000D02*
X77724000Y-99060000D01*
%TO.N,Net-(U13-VS-)*%
X220768000Y-199888000D02*
X223276000Y-199888000D01*
X213900000Y-206756000D02*
X220768000Y-199888000D01*
%TO.N,Net-(U13-VS+)*%
X221716000Y-189728000D02*
X215884000Y-183896000D01*
X223276000Y-189728000D02*
X221716000Y-189728000D01*
%TO.N,Net-(U13-C2-)*%
X215688000Y-197348000D02*
X223276000Y-197348000D01*
X213900000Y-199136000D02*
X215688000Y-197348000D01*
%TO.N,Net-(U13-C1-)*%
X222149000Y-192268000D02*
X223276000Y-192268000D01*
X220253000Y-190372000D02*
X222149000Y-192268000D01*
X215044000Y-190372000D02*
X220253000Y-190372000D01*
X213900000Y-191516000D02*
X215044000Y-190372000D01*
%TO.N,Net-(U11-THR)*%
X66150900Y-153924000D02*
X65024000Y-153924000D01*
X68690900Y-156464000D02*
X66150900Y-153924000D01*
X72644000Y-156464000D02*
X68690900Y-156464000D01*
%TO.N,Net-(U11-CV)*%
X79587100Y-157859000D02*
X80732000Y-159004000D01*
X74915800Y-157859000D02*
X79587100Y-157859000D01*
X73770900Y-159004000D02*
X74915800Y-157859000D01*
X72644000Y-159004000D02*
X73770900Y-159004000D01*
%TO.N,NMI*%
X76200000Y-126492000D02*
X78192000Y-126492000D01*
X70612000Y-120904000D02*
X76200000Y-126492000D01*
X81240000Y-123444000D02*
X78192000Y-126492000D01*
X89408000Y-123444000D02*
X81240000Y-123444000D01*
X70451100Y-85344000D02*
X71628000Y-85344000D01*
X70451100Y-84976200D02*
X70451100Y-85344000D01*
X69628300Y-84153400D02*
X70451100Y-84976200D01*
X60572800Y-84153400D02*
X69628300Y-84153400D01*
X59382200Y-85344000D02*
X60572800Y-84153400D01*
X55880000Y-85344000D02*
X59382200Y-85344000D01*
X86199100Y-85344000D02*
X87376000Y-85344000D01*
X86199100Y-84978200D02*
X86199100Y-85344000D01*
X85374300Y-84153400D02*
X86199100Y-84978200D01*
X73995500Y-84153400D02*
X85374300Y-84153400D01*
X72804900Y-85344000D02*
X73995500Y-84153400D01*
X71628000Y-85344000D02*
X72804900Y-85344000D01*
%TO.N,GND*%
X195224000Y-107340000D02*
X194056000Y-106172000D01*
X228448000Y-107340000D02*
X195224000Y-107340000D01*
X229616000Y-106172000D02*
X228448000Y-107340000D01*
X117856000Y-105664000D02*
X118364000Y-106172000D01*
X99528000Y-105664000D02*
X117856000Y-105664000D01*
X66752000Y-151384000D02*
X65024000Y-151384000D01*
X71832000Y-146304000D02*
X66752000Y-151384000D01*
X87376000Y-90424000D02*
X84836000Y-90424000D01*
X55880000Y-90424000D02*
X53340000Y-90424000D01*
X40203000Y-90424000D02*
X36576000Y-86797000D01*
X53340000Y-90424000D02*
X40203000Y-90424000D01*
X48012000Y-125632000D02*
X52428000Y-130048000D01*
X31910000Y-125632000D02*
X48012000Y-125632000D01*
X176784000Y-146304000D02*
X172212000Y-146304000D01*
X56277100Y-149352000D02*
X57404000Y-149352000D01*
X55109100Y-148184000D02*
X56277100Y-149352000D01*
X46632000Y-148184000D02*
X55109100Y-148184000D01*
X61865100Y-149352000D02*
X57404000Y-149352000D01*
X63897100Y-151384000D02*
X61865100Y-149352000D01*
X65024000Y-151384000D02*
X63897100Y-151384000D01*
X113792000Y-175768000D02*
X113792000Y-171196000D01*
X181356000Y-146304000D02*
X176784000Y-146304000D01*
X77096400Y-193160000D02*
X78740000Y-191516000D01*
X58071600Y-193160000D02*
X77096400Y-193160000D01*
X56936000Y-192024000D02*
X58071600Y-193160000D01*
X62484000Y-126492000D02*
X58928000Y-130048000D01*
X73192000Y-126492000D02*
X62484000Y-126492000D01*
X58928000Y-130048000D02*
X52428000Y-130048000D01*
X58928000Y-116042000D02*
X52428000Y-116042000D01*
X149463000Y-49673100D02*
X154432000Y-44704000D01*
X133318000Y-49673100D02*
X149463000Y-49673100D01*
X132191000Y-50800000D02*
X133318000Y-49673100D01*
X131064000Y-50800000D02*
X132191000Y-50800000D01*
X76872300Y-160144000D02*
X75732000Y-159004000D01*
X102381000Y-160144000D02*
X76872300Y-160144000D01*
X103521000Y-159004000D02*
X102381000Y-160144000D01*
X104648000Y-159004000D02*
X103521000Y-159004000D01*
X173889000Y-118872000D02*
X171349000Y-116332000D01*
X175016000Y-118872000D02*
X173889000Y-118872000D01*
X172212000Y-146304000D02*
X167640000Y-146304000D01*
X136519000Y-138933000D02*
X137680000Y-137772000D01*
X135392000Y-138933000D02*
X136519000Y-138933000D01*
X215408000Y-182372000D02*
X213884000Y-183896000D01*
X224576000Y-182372000D02*
X215408000Y-182372000D01*
X194914000Y-183896000D02*
X213884000Y-183896000D01*
X188579000Y-190231000D02*
X194914000Y-183896000D01*
X187452000Y-190231000D02*
X188579000Y-190231000D01*
X173889000Y-113792000D02*
X171349000Y-116332000D01*
X175016000Y-113792000D02*
X173889000Y-113792000D01*
X151781000Y-138933000D02*
X152908000Y-138933000D01*
X150620000Y-137772000D02*
X151781000Y-138933000D01*
X137680000Y-137772000D02*
X150620000Y-137772000D01*
X184404000Y-149352000D02*
X181356000Y-146304000D01*
X188976000Y-149352000D02*
X184404000Y-149352000D01*
X139082000Y-152400000D02*
X135676000Y-152400000D01*
X140209000Y-151273000D02*
X139082000Y-152400000D01*
X141143000Y-151273000D02*
X140209000Y-151273000D01*
X142270000Y-152400000D02*
X141143000Y-151273000D01*
X162092000Y-152400000D02*
X142270000Y-152400000D01*
X119518000Y-107326000D02*
X118364000Y-106172000D01*
X135578000Y-107326000D02*
X119518000Y-107326000D01*
X136732000Y-106172000D02*
X135578000Y-107326000D01*
X119363000Y-152400000D02*
X116840000Y-152400000D01*
X124443000Y-157480000D02*
X119363000Y-152400000D01*
X130556000Y-157480000D02*
X124443000Y-157480000D01*
X119602000Y-133238000D02*
X118444000Y-132080000D01*
X131921000Y-133238000D02*
X119602000Y-133238000D01*
X132486000Y-132673000D02*
X131921000Y-133238000D01*
X135874000Y-132673000D02*
X132486000Y-132673000D01*
X137680000Y-134479000D02*
X135874000Y-132673000D01*
X137680000Y-137772000D02*
X137680000Y-134479000D01*
X183913000Y-106172000D02*
X194056000Y-106172000D01*
X176293000Y-113792000D02*
X183913000Y-106172000D01*
X175016000Y-113792000D02*
X176293000Y-113792000D01*
X129937000Y-50800000D02*
X131064000Y-50800000D01*
X127690000Y-48552900D02*
X129937000Y-50800000D01*
X112093000Y-48552900D02*
X127690000Y-48552900D01*
X109260000Y-45720000D02*
X112093000Y-48552900D01*
X153378000Y-105038000D02*
X154512000Y-106172000D01*
X137866000Y-105038000D02*
X153378000Y-105038000D01*
X136732000Y-106172000D02*
X137866000Y-105038000D01*
X188954000Y-46880200D02*
X191494000Y-46880200D01*
X171349000Y-116332000D02*
X167396000Y-116332000D01*
X71628000Y-90424000D02*
X84836000Y-90424000D01*
X55880000Y-90424000D02*
X69088000Y-90424000D01*
X69088000Y-90424000D02*
X71628000Y-90424000D01*
X194034000Y-46880200D02*
X194034000Y-48043800D01*
X191494000Y-46880200D02*
X194034000Y-46880200D01*
X194034000Y-48043800D02*
X194034000Y-49207400D01*
X194034400Y-48044200D02*
X194034400Y-49207400D01*
X194034000Y-48043800D02*
X194034400Y-48044200D01*
X191494000Y-49207400D02*
X191494000Y-48043800D01*
X191494000Y-48043800D02*
X191494000Y-46880200D01*
X191494400Y-48044200D02*
X191494400Y-49207400D01*
X191494000Y-48043800D02*
X191494400Y-48044200D01*
X188954000Y-49207400D02*
X188954000Y-48043800D01*
X188954000Y-48043800D02*
X188954000Y-46880200D01*
X188954400Y-48044200D02*
X188954400Y-49207400D01*
X188954000Y-48043800D02*
X188954400Y-48044200D01*
X186414000Y-46880200D02*
X188954000Y-46880200D01*
X186414000Y-49207400D02*
X186414000Y-46880200D01*
X186414400Y-49207400D02*
X186414000Y-49207400D01*
%TO.N,+5V*%
X101132000Y-99060000D02*
X104140000Y-99060000D01*
X94528000Y-105664000D02*
X101132000Y-99060000D01*
X59468000Y-146304000D02*
X66832000Y-146304000D01*
X55912000Y-142748000D02*
X59468000Y-146304000D01*
X45596000Y-132432000D02*
X55912000Y-142748000D01*
X31910000Y-132432000D02*
X45596000Y-132432000D01*
X40132000Y-62831100D02*
X40132000Y-64008000D01*
X40082000Y-62831100D02*
X40132000Y-62831100D01*
X34654900Y-57404000D02*
X40082000Y-62831100D01*
X33528000Y-57404000D02*
X34654900Y-57404000D01*
X44022400Y-87884000D02*
X53340000Y-87884000D01*
X42935400Y-86797000D02*
X44022400Y-87884000D01*
X41656000Y-86797000D02*
X42935400Y-86797000D01*
X67911100Y-87884000D02*
X68499600Y-87884000D01*
X66720500Y-89074600D02*
X67911100Y-87884000D01*
X55339700Y-89074600D02*
X66720500Y-89074600D01*
X54516900Y-88251800D02*
X55339700Y-89074600D01*
X54516900Y-87884000D02*
X54516900Y-88251800D01*
X53340000Y-87884000D02*
X54516900Y-87884000D01*
X161584000Y-39624000D02*
X163108000Y-41148000D01*
X154432000Y-39624000D02*
X161584000Y-39624000D01*
X168840000Y-46880200D02*
X173714000Y-46880200D01*
X163108000Y-41148000D02*
X168840000Y-46880200D01*
X224616000Y-106172000D02*
X199056000Y-106172000D01*
X161655000Y-110993000D02*
X160528000Y-110993000D01*
X162544000Y-110104000D02*
X161655000Y-110993000D01*
X172741000Y-110104000D02*
X162544000Y-110104000D01*
X173889000Y-111252000D02*
X172741000Y-110104000D01*
X175016000Y-111252000D02*
X173889000Y-111252000D01*
X197572000Y-165100000D02*
X197572000Y-166032000D01*
X69690200Y-89074600D02*
X68499600Y-87884000D01*
X82468500Y-89074600D02*
X69690200Y-89074600D01*
X83659100Y-87884000D02*
X82468500Y-89074600D01*
X84836000Y-87884000D02*
X83659100Y-87884000D01*
X226521000Y-182372000D02*
X229576000Y-182372000D01*
X223942000Y-179792000D02*
X226521000Y-182372000D01*
X163139000Y-156353000D02*
X167092000Y-152400000D01*
X148050000Y-156353000D02*
X163139000Y-156353000D01*
X146923000Y-157480000D02*
X148050000Y-156353000D01*
X145796000Y-157480000D02*
X146923000Y-157480000D01*
X218610000Y-166032000D02*
X219456000Y-166878000D01*
X197572000Y-166032000D02*
X218610000Y-166032000D01*
X191153000Y-172451000D02*
X187452000Y-172451000D01*
X197572000Y-166032000D02*
X191153000Y-172451000D01*
X102231000Y-177546000D02*
X89916000Y-177546000D01*
X113153000Y-166624000D02*
X102231000Y-177546000D01*
X113792000Y-166624000D02*
X113153000Y-166624000D01*
X90534900Y-128524000D02*
X89408000Y-128524000D01*
X91713600Y-129703000D02*
X90534900Y-128524000D01*
X118554000Y-129703000D02*
X91713600Y-129703000D01*
X118828000Y-129429000D02*
X118554000Y-129703000D01*
X120793000Y-129429000D02*
X118828000Y-129429000D01*
X123444000Y-132080000D02*
X120793000Y-129429000D01*
X144139000Y-110993000D02*
X143012000Y-110993000D01*
X145278000Y-112132000D02*
X144139000Y-110993000D01*
X158262000Y-112132000D02*
X145278000Y-112132000D01*
X159401000Y-110993000D02*
X158262000Y-112132000D01*
X160528000Y-110993000D02*
X159401000Y-110993000D01*
X175323000Y-104545000D02*
X173696000Y-106172000D01*
X197429000Y-104545000D02*
X175323000Y-104545000D01*
X199056000Y-106172000D02*
X197429000Y-104545000D01*
X78251700Y-136652000D02*
X70612000Y-136652000D01*
X86379700Y-128524000D02*
X78251700Y-136652000D01*
X89408000Y-128524000D02*
X86379700Y-128524000D01*
X112887000Y-91440000D02*
X119380000Y-91440000D01*
X105267000Y-99060000D02*
X112887000Y-91440000D01*
X104140000Y-99060000D02*
X105267000Y-99060000D01*
X148336000Y-45720000D02*
X141224000Y-45720000D01*
X154432000Y-39624000D02*
X148336000Y-45720000D01*
X115422000Y-46882300D02*
X114260000Y-45720000D01*
X140062000Y-46882300D02*
X115422000Y-46882300D01*
X141224000Y-45720000D02*
X140062000Y-46882300D01*
X69088000Y-87884000D02*
X68499600Y-87884000D01*
X206734000Y-49207400D02*
X206734000Y-48043800D01*
X174193000Y-46401400D02*
X173714000Y-46880200D01*
X206256000Y-46401400D02*
X174193000Y-46401400D01*
X206734000Y-46880200D02*
X206256000Y-46401400D01*
X206734000Y-48043800D02*
X206734000Y-46880200D01*
X206734400Y-48044200D02*
X206734400Y-49207400D01*
X206734000Y-48043800D02*
X206734400Y-48044200D01*
X173714000Y-49207400D02*
X173714000Y-48043800D01*
X173714000Y-48043800D02*
X173714000Y-46880200D01*
X173714400Y-48044200D02*
X173714400Y-49207400D01*
X173714000Y-48043800D02*
X173714400Y-48044200D01*
%TD*%
M02*
