M48
; DRILL file {KiCad 7.0.2} date Sun Aug  6 16:24:23 2023
; FORMAT={-:-/ absolute / metric / decimal}
; #@! TF.CreationDate,2023-08-06T16:24:23-05:00
; #@! TF.GenerationSoftware,Kicad,Pcbnew,7.0.2
; #@! TF.FileFunction,Plated,1,2,PTH
FMAT,2
METRIC
; #@! TA.AperFunction,Plated,PTH,ViaDrill
T1C0.400
; #@! TA.AperFunction,Plated,PTH,ComponentDrill
T2C0.790
; #@! TA.AperFunction,Plated,PTH,ComponentDrill
T3C0.800
; #@! TA.AperFunction,Plated,PTH,ComponentDrill
T4C0.900
; #@! TA.AperFunction,Plated,PTH,ComponentDrill
T5C1.000
; #@! TA.AperFunction,Plated,PTH,ComponentDrill
T6C1.001
; #@! TA.AperFunction,Plated,PTH,ComponentDrill
T7C1.100
; #@! TA.AperFunction,Plated,PTH,ComponentDrill
T8C2.000
; #@! TA.AperFunction,Plated,PTH,ComponentDrill
T9C2.500
; #@! TA.AperFunction,Plated,PTH,ComponentDrill
T10C3.200
%
G90
G05
T1
X68.733Y-135.015
X70.098Y-135.771
X70.333Y-86.35
X71.967Y-139.466
X77.837Y-103.986
X81.25Y-94.214
X86.126Y-81.28
X86.75Y-107.696
X86.903Y-83.641
X90.17Y-119.347
X94.649Y-134.366
X96.474Y-68.795
X97.293Y-113.193
X99.286Y-121.666
X100.353Y-115.069
X100.716Y-110.625
X101.067Y-63.435
X102.375Y-140.271
X105.786Y-119.217
X106.355Y-123.772
X106.44Y-130.015
X108.659Y-113.869
X109.404Y-111.628
X111.944Y-85.648
X112.436Y-130.593
X113.343Y-67.259
X114.234Y-83.493
X114.574Y-97.013
X114.621Y-66.922
X116.681Y-143.843
X117.557Y-97.679
X119.128Y-134.322
X120.714Y-155.019
X121.246Y-130.184
X121.289Y-112.645
X121.99Y-102.25
X122.252Y-130.29
X122.82Y-126.786
X125.466Y-121.529
X126.88Y-100.279
X126.986Y-63.809
X129.037Y-117.993
X129.072Y-114.175
X129.209Y-121.253
X130.139Y-126.771
X130.366Y-100.655
X132.761Y-65.032
X134.196Y-58.141
X134.687Y-162.812
X135.358Y-100.412
X139.96Y-102.472
X140.347Y-142.404
X141.388Y-145.204
X141.499Y-51.807
X143.958Y-117.775
X144.673Y-61.96
X145.222Y-123.843
X146.121Y-144.805
X148.296Y-65.835
X148.782Y-113.883
X151.07Y-115.028
X154.316Y-102.041
X154.325Y-103.462
X155.83Y-108.25
X155.924Y-105.96
X158.451Y-109.522
X159.004Y-91.694
X160.115Y-112.538
X164.774Y-145.891
X165.027Y-144.862
X166.898Y-75.093
X172.004Y-120.857
X173.23Y-123.094
X173.967Y-124.351
X175.933Y-128.061
X178.596Y-88.256
X178.805Y-134.171
X182.028Y-133.184
X182.199Y-94.238
X184.4Y-121.97
X185.234Y-99.689
X186.721Y-109.942
X197.062Y-123.902
X203.121Y-100.484
T2
X162.306Y-88.9
X164.846Y-88.9
X167.386Y-88.9
T3
X56.896Y-130.958
X56.896Y-133.058
X56.896Y-135.658
X56.896Y-137.758
X56.99Y-113.948
X56.99Y-116.048
X56.99Y-118.648
X56.99Y-120.748
X59.696Y-130.958
X59.696Y-137.758
X59.79Y-113.948
X59.79Y-120.748
X63.54Y-192.405
X65.532Y-117.348
X66.04Y-192.405
X67.246Y-148.78
X67.246Y-158.94
X68.58Y-99.695
X70.079Y-174.498
X70.255Y-167.259
X71.183Y-149.796
X71.183Y-152.337
X71.183Y-154.876
X71.183Y-157.416
X72.579Y-174.498
X72.707Y-144.716
X72.755Y-167.259
X75.692Y-117.348
X77.47Y-124.968
X77.47Y-135.128
X77.707Y-144.716
X78.74Y-99.695
X78.803Y-149.796
X78.803Y-152.337
X78.803Y-154.876
X78.803Y-157.416
X79.034Y-117.602
X80.264Y-163.322
X80.264Y-166.37
X80.264Y-169.418
X80.264Y-172.466
X80.645Y-124.968
X80.645Y-135.128
X81.891Y-157.416
X82.391Y-151.194
X83.82Y-124.968
X83.82Y-135.128
X83.82Y-186.944
X83.82Y-194.564
X84.034Y-117.602
X84.891Y-151.194
X85.598Y-177.8
X86.891Y-157.416
X88.646Y-105.156
X88.646Y-107.696
X88.646Y-110.236
X88.646Y-112.776
X88.646Y-115.316
X88.646Y-117.856
X88.646Y-120.396
X88.646Y-122.936
X88.646Y-125.476
X88.646Y-128.016
X88.646Y-130.556
X88.646Y-133.096
X88.646Y-135.636
X88.646Y-138.176
X88.646Y-140.716
X88.646Y-143.256
X88.646Y-145.796
X88.646Y-148.336
X88.646Y-150.876
X88.646Y-153.416
X90.424Y-163.322
X90.424Y-166.37
X90.424Y-169.418
X90.424Y-172.466
X90.598Y-177.8
X93.766Y-100.076
X96.52Y-163.576
X96.52Y-166.624
X96.52Y-169.672
X96.52Y-172.72
X98.766Y-100.076
X99.06Y-186.944
X99.06Y-194.564
X102.188Y-178.054
X103.886Y-105.156
X103.886Y-107.696
X103.886Y-110.236
X103.886Y-112.776
X103.886Y-115.316
X103.886Y-117.856
X103.886Y-120.396
X103.886Y-122.936
X103.886Y-125.476
X103.886Y-128.016
X103.886Y-130.556
X103.886Y-133.096
X103.886Y-135.636
X103.886Y-138.176
X103.886Y-140.716
X103.886Y-143.256
X103.886Y-145.796
X103.886Y-148.336
X103.886Y-150.876
X103.886Y-153.416
X106.68Y-163.576
X106.68Y-166.624
X106.68Y-169.672
X106.68Y-172.72
X107.188Y-178.054
X108.204Y-115.316
X108.204Y-125.476
X108.336Y-44.191
X108.336Y-46.731
X108.336Y-49.271
X108.336Y-51.811
X108.336Y-54.351
X108.336Y-56.891
X108.336Y-59.431
X108.336Y-61.971
X108.336Y-64.511
X108.336Y-67.051
X108.336Y-69.591
X108.336Y-72.131
X108.336Y-74.671
X108.336Y-77.211
X108.336Y-79.751
X108.336Y-82.291
X108.336Y-84.831
X108.336Y-87.371
X108.336Y-89.911
X108.336Y-92.451
X112.522Y-133.35
X112.522Y-135.89
X112.522Y-138.43
X112.522Y-140.97
X112.522Y-143.51
X112.522Y-146.05
X112.522Y-148.59
X112.532Y-106.172
X112.532Y-108.712
X112.532Y-111.252
X112.532Y-113.792
X112.532Y-116.332
X112.532Y-118.872
X112.532Y-121.412
X113.456Y-39.111
X114.126Y-128.27
X114.554Y-101.224
X118.456Y-39.111
X119.126Y-128.27
X119.554Y-101.224
X120.142Y-133.35
X120.142Y-135.89
X120.142Y-138.43
X120.142Y-140.97
X120.142Y-143.51
X120.142Y-146.05
X120.142Y-148.59
X120.152Y-106.172
X120.152Y-108.712
X120.152Y-111.252
X120.152Y-113.792
X120.152Y-116.332
X120.152Y-118.872
X120.152Y-121.412
X123.576Y-44.191
X123.576Y-46.731
X123.576Y-49.271
X123.576Y-51.811
X123.576Y-54.351
X123.576Y-56.891
X123.576Y-59.431
X123.576Y-61.971
X123.576Y-64.511
X123.576Y-67.051
X123.576Y-69.591
X123.576Y-72.131
X123.576Y-74.671
X123.576Y-77.211
X123.576Y-79.751
X123.576Y-82.291
X123.576Y-84.831
X123.576Y-87.371
X123.576Y-89.911
X123.576Y-92.451
X124.46Y-147.32
X124.46Y-149.86
X124.46Y-152.4
X124.46Y-154.94
X124.46Y-157.48
X124.46Y-160.02
X124.46Y-162.56
X124.46Y-165.1
X124.46Y-167.64
X124.46Y-170.18
X124.46Y-172.72
X124.46Y-175.26
X124.46Y-177.8
X124.46Y-180.34
X124.46Y-182.88
X124.46Y-185.42
X124.46Y-187.96
X124.46Y-190.5
X124.46Y-193.04
X124.46Y-195.58
X127.605Y-105.664
X127.605Y-108.204
X127.605Y-110.744
X127.605Y-113.284
X127.605Y-115.824
X127.605Y-118.364
X127.605Y-120.904
X127.605Y-123.444
X127.605Y-125.984
X127.605Y-128.524
X127.605Y-131.064
X127.605Y-133.604
X128.945Y-100.843
X129.54Y-84.074
X129.54Y-94.234
X129.58Y-142.24
X133.945Y-100.843
X134.58Y-142.24
X135.225Y-105.664
X135.225Y-108.204
X135.225Y-110.744
X135.225Y-113.284
X135.225Y-115.824
X135.225Y-118.364
X135.225Y-120.904
X135.225Y-123.444
X135.225Y-125.984
X135.225Y-128.524
X135.225Y-131.064
X135.225Y-133.604
X136.906Y-44.191
X136.906Y-46.731
X136.906Y-49.271
X136.906Y-51.811
X136.906Y-54.351
X136.906Y-56.891
X136.906Y-59.431
X136.906Y-61.971
X136.906Y-64.511
X136.906Y-67.051
X136.906Y-69.591
X136.906Y-72.131
X136.906Y-74.671
X136.906Y-77.211
X136.906Y-79.751
X136.906Y-82.291
X136.906Y-84.831
X136.906Y-87.371
X136.906Y-89.911
X136.906Y-92.451
X139.7Y-147.32
X139.7Y-149.86
X139.7Y-152.4
X139.7Y-154.94
X139.7Y-157.48
X139.7Y-160.02
X139.7Y-162.56
X139.7Y-165.1
X139.7Y-167.64
X139.7Y-170.18
X139.7Y-172.72
X139.7Y-175.26
X139.7Y-177.8
X139.7Y-180.34
X139.7Y-182.88
X139.7Y-185.42
X139.7Y-187.96
X139.7Y-190.5
X139.7Y-193.04
X139.7Y-195.58
X142.026Y-39.111
X144.272Y-178.816
X144.272Y-188.976
X147.026Y-39.111
X147.574Y-178.816
X147.574Y-188.976
X152.146Y-44.191
X152.146Y-46.731
X152.146Y-49.271
X152.146Y-51.811
X152.146Y-54.351
X152.146Y-56.891
X152.146Y-59.431
X152.146Y-61.971
X152.146Y-64.511
X152.146Y-67.051
X152.146Y-69.591
X152.146Y-72.131
X152.146Y-74.671
X152.146Y-77.211
X152.146Y-79.751
X152.146Y-82.291
X152.146Y-84.831
X152.146Y-87.371
X152.146Y-89.911
X152.146Y-92.451
X156.21Y-111.125
X156.21Y-113.665
X156.21Y-116.205
X156.21Y-118.745
X156.21Y-121.285
X156.21Y-123.825
X156.21Y-126.365
X156.21Y-128.905
X156.21Y-131.445
X156.21Y-133.985
X156.21Y-136.525
X156.21Y-139.065
X157.814Y-106.304
X162.814Y-106.304
X163.83Y-111.125
X163.83Y-113.665
X163.83Y-116.205
X163.83Y-118.745
X163.83Y-121.285
X163.83Y-123.825
X163.83Y-126.365
X163.83Y-128.905
X163.83Y-131.445
X163.83Y-133.985
X163.83Y-136.525
X163.83Y-139.065
X165.1Y-147.32
X165.1Y-149.86
X165.1Y-152.4
X165.1Y-154.94
X165.1Y-157.48
X165.1Y-160.02
X165.1Y-162.56
X165.1Y-165.1
X165.1Y-167.64
X165.1Y-170.18
X165.1Y-172.72
X165.1Y-175.26
X165.1Y-177.8
X165.1Y-180.34
X165.1Y-182.88
X165.1Y-185.42
X165.1Y-187.96
X165.1Y-190.5
X165.1Y-193.04
X165.1Y-195.58
X170.22Y-142.24
X170.855Y-90.805
X175.22Y-142.24
X175.855Y-90.805
X175.895Y-126.365
X175.895Y-136.525
X176.911Y-102.235
X176.911Y-104.775
X176.911Y-107.315
X176.911Y-109.855
X176.911Y-112.395
X176.911Y-114.935
X176.911Y-117.475
X176.911Y-120.015
X178.211Y-97.155
X178.943Y-126.365
X178.943Y-136.525
X180.34Y-147.32
X180.34Y-149.86
X180.34Y-152.4
X180.34Y-154.94
X180.34Y-157.48
X180.34Y-160.02
X180.34Y-162.56
X180.34Y-165.1
X180.34Y-167.64
X180.34Y-170.18
X180.34Y-172.72
X180.34Y-175.26
X180.34Y-177.8
X180.34Y-180.34
X180.34Y-182.88
X180.34Y-185.42
X180.34Y-187.96
X180.34Y-190.5
X180.34Y-193.04
X180.34Y-195.58
X181.991Y-126.365
X181.991Y-136.525
X183.211Y-97.155
X184.531Y-102.235
X184.531Y-104.775
X184.531Y-107.315
X184.531Y-109.855
X184.531Y-112.395
X184.531Y-114.935
X184.531Y-117.475
X184.531Y-120.015
X185.039Y-126.365
X185.039Y-136.525
X186.182Y-178.562
X186.182Y-188.722
X189.484Y-178.562
X189.484Y-188.722
X192.445Y-102.235
X192.445Y-104.775
X192.445Y-107.315
X192.445Y-109.855
X192.445Y-112.395
X192.445Y-114.935
X192.445Y-117.475
X192.445Y-120.015
X192.445Y-122.555
X192.445Y-125.095
X192.445Y-127.635
X192.445Y-130.175
X192.445Y-132.715
X192.445Y-135.255
X192.445Y-137.795
X192.445Y-140.335
X193.953Y-171.577
X194.086Y-179.08
X194.086Y-186.7
X194.223Y-194.437
X195.072Y-154.442
X195.072Y-162.062
X196.453Y-171.577
X196.586Y-179.08
X196.586Y-186.7
X196.723Y-194.437
X197.525Y-97.155
X201.168Y-174.752
X201.168Y-177.292
X201.168Y-179.832
X201.168Y-182.372
X201.168Y-184.912
X201.168Y-187.452
X201.168Y-189.992
X201.168Y-192.532
X202.468Y-169.936
X202.525Y-97.155
X207.468Y-169.936
X207.685Y-102.235
X207.685Y-104.775
X207.685Y-107.315
X207.685Y-109.855
X207.685Y-112.395
X207.685Y-114.935
X207.685Y-117.475
X207.685Y-120.015
X207.685Y-122.555
X207.685Y-125.095
X207.685Y-127.635
X207.685Y-130.175
X207.685Y-132.715
X207.685Y-135.255
X207.685Y-137.795
X207.685Y-140.335
X208.788Y-174.752
X208.788Y-177.292
X208.788Y-179.832
X208.788Y-182.372
X208.788Y-184.912
X208.788Y-187.452
X208.788Y-189.992
X208.788Y-192.532
X210.312Y-154.442
X210.312Y-162.062
X216.916Y-159.766
X216.916Y-162.306
X216.916Y-164.846
X216.916Y-167.386
X216.916Y-169.926
X216.916Y-172.466
X216.916Y-175.006
X216.916Y-177.546
X216.916Y-180.086
X216.916Y-182.626
X216.916Y-185.166
X216.916Y-187.706
X216.916Y-190.246
X216.916Y-192.786
X222.036Y-154.955
X224.83Y-97.155
X227.036Y-154.955
X229.83Y-97.155
X232.156Y-159.766
X232.156Y-162.306
X232.156Y-164.846
X232.156Y-167.386
X232.156Y-169.926
X232.156Y-172.466
X232.156Y-175.006
X232.156Y-177.546
X232.156Y-180.086
X232.156Y-182.626
X232.156Y-185.166
X232.156Y-187.706
X232.156Y-190.246
X232.156Y-192.786
T4
X66.675Y-105.76
X66.675Y-111.76
X69.175Y-105.76
X69.175Y-111.76
X71.675Y-105.76
X71.675Y-111.76
X83.185Y-99.695
X85.725Y-99.695
X129.54Y-76.962
X129.54Y-79.502
T5
X55.245Y-43.18
X55.245Y-45.72
X55.245Y-48.26
X55.245Y-50.8
X55.245Y-53.34
X55.245Y-55.88
X55.245Y-58.42
X55.245Y-60.96
X55.245Y-63.5
X55.245Y-66.04
X55.245Y-68.58
X55.245Y-71.12
X55.245Y-73.66
X55.245Y-76.2
X55.245Y-78.74
X55.245Y-81.28
X55.245Y-83.82
X55.245Y-86.36
X55.245Y-88.9
X55.245Y-91.44
X57.785Y-43.18
X57.785Y-45.72
X57.785Y-48.26
X57.785Y-50.8
X57.785Y-53.34
X57.785Y-55.88
X57.785Y-58.42
X57.785Y-60.96
X57.785Y-63.5
X57.785Y-66.04
X57.785Y-68.58
X57.785Y-71.12
X57.785Y-73.66
X57.785Y-76.2
X57.785Y-78.74
X57.785Y-81.28
X57.785Y-83.82
X57.785Y-86.36
X57.785Y-88.9
X57.785Y-91.44
X58.12Y-155.157
X58.12Y-157.927
X58.12Y-160.697
X58.12Y-163.467
X60.96Y-153.772
X60.96Y-156.542
X60.96Y-159.312
X60.96Y-162.082
X60.96Y-164.852
X73.025Y-43.18
X73.025Y-45.72
X73.025Y-48.26
X73.025Y-50.8
X73.025Y-53.34
X73.025Y-55.88
X73.025Y-58.42
X73.025Y-60.96
X73.025Y-63.5
X73.025Y-66.04
X73.025Y-68.58
X73.025Y-71.12
X73.025Y-73.66
X73.025Y-76.2
X73.025Y-78.74
X73.025Y-81.28
X73.025Y-83.82
X73.025Y-86.36
X73.025Y-88.9
X73.025Y-91.44
X75.565Y-43.18
X75.565Y-45.72
X75.565Y-48.26
X75.565Y-50.8
X75.565Y-53.34
X75.565Y-55.88
X75.565Y-58.42
X75.565Y-60.96
X75.565Y-63.5
X75.565Y-66.04
X75.565Y-68.58
X75.565Y-71.12
X75.565Y-73.66
X75.565Y-76.2
X75.565Y-78.74
X75.565Y-81.28
X75.565Y-83.82
X75.565Y-86.36
X75.565Y-88.9
X75.565Y-91.44
X77.724Y-191.262
X77.724Y-193.802
X82.55Y-106.68
X82.55Y-109.22
X90.805Y-43.18
X90.805Y-45.72
X90.805Y-48.26
X90.805Y-50.8
X90.805Y-53.34
X90.805Y-55.88
X90.805Y-58.42
X90.805Y-60.96
X90.805Y-63.5
X90.805Y-66.04
X90.805Y-68.58
X90.805Y-71.12
X90.805Y-73.66
X90.805Y-76.2
X90.805Y-78.74
X90.805Y-81.28
X90.805Y-83.82
X90.805Y-86.36
X90.805Y-88.9
X90.805Y-91.44
X93.345Y-43.18
X93.345Y-45.72
X93.345Y-48.26
X93.345Y-50.8
X93.345Y-53.34
X93.345Y-55.88
X93.345Y-58.42
X93.345Y-60.96
X93.345Y-63.5
X93.345Y-66.04
X93.345Y-68.58
X93.345Y-71.12
X93.345Y-73.66
X93.345Y-76.2
X93.345Y-78.74
X93.345Y-81.28
X93.345Y-83.82
X93.345Y-86.36
X93.345Y-88.9
X93.345Y-91.44
X102.616Y-49.53
X102.616Y-52.07
X102.616Y-54.61
X102.616Y-57.15
X102.616Y-59.69
X102.616Y-62.23
X102.616Y-64.77
X102.616Y-67.31
X102.616Y-73.645
X102.616Y-76.185
X102.616Y-78.725
X102.616Y-81.265
X102.616Y-83.805
X102.616Y-86.345
X102.616Y-88.885
X102.616Y-91.425
X114.305Y-156.84
X114.305Y-159.38
X114.305Y-161.92
X114.305Y-164.46
X114.305Y-167.0
X114.305Y-169.54
X114.305Y-172.08
X114.305Y-174.62
X114.305Y-179.7
X114.305Y-182.24
X114.305Y-184.78
X114.305Y-187.32
X114.305Y-189.86
X114.305Y-192.4
X114.305Y-194.94
X114.305Y-197.48
X128.016Y-44.846
X128.016Y-47.386
X128.016Y-49.926
X128.016Y-52.466
X128.016Y-55.006
X128.016Y-57.546
X128.016Y-60.086
X128.016Y-62.626
X146.685Y-106.68
X146.685Y-109.22
X146.685Y-111.76
X146.685Y-114.3
X146.685Y-121.92
X146.685Y-124.46
X146.685Y-127.0
X146.685Y-129.54
X146.685Y-132.08
X146.685Y-134.62
X146.685Y-137.16
X146.685Y-139.7
X154.94Y-155.575
X154.94Y-158.115
X154.94Y-160.655
X154.94Y-163.195
X154.94Y-165.735
X154.94Y-168.275
X154.94Y-170.815
X154.94Y-173.355
X154.94Y-178.435
X154.94Y-180.975
X154.94Y-183.515
X154.94Y-186.055
X154.94Y-188.595
X154.94Y-191.135
X154.94Y-193.675
X154.94Y-196.215
X180.594Y-90.932
X183.134Y-90.932
X219.456Y-198.897
X219.67Y-111.525
X219.67Y-114.065
X219.67Y-116.605
X219.67Y-119.145
X219.67Y-121.685
X219.67Y-124.225
X219.67Y-126.765
X219.67Y-129.305
X219.67Y-131.845
X219.67Y-134.385
X219.67Y-136.925
X219.67Y-139.465
X219.67Y-142.005
X219.67Y-144.545
X221.996Y-198.897
X224.536Y-198.897
X227.076Y-198.897
X229.616Y-198.897
X234.91Y-111.525
X234.91Y-114.065
X234.91Y-116.605
X234.91Y-119.145
X234.91Y-121.685
X234.91Y-124.225
X234.91Y-126.765
X234.91Y-129.305
X234.91Y-131.845
X234.91Y-134.385
X234.91Y-136.925
X234.91Y-139.465
X234.91Y-142.005
X234.91Y-144.545
T6
X167.364Y-40.005
X169.904Y-40.005
X172.444Y-40.005
X174.984Y-40.005
X177.524Y-40.005
X180.064Y-40.005
X182.604Y-40.005
X185.144Y-40.005
X187.684Y-40.005
X190.224Y-40.005
X192.764Y-40.005
X195.304Y-40.005
X197.844Y-40.005
X200.384Y-40.005
X202.924Y-40.005
X205.464Y-40.005
T7
X65.89Y-121.702
X65.89Y-126.202
X65.965Y-132.624
X65.965Y-137.124
X72.39Y-121.702
X72.39Y-126.202
X72.465Y-132.624
X72.465Y-137.124
X78.415Y-106.045
X78.415Y-108.585
X78.415Y-111.125
T8
X53.096Y-180.848
X55.546Y-178.848
X59.246Y-180.848
X61.146Y-178.848
X64.896Y-180.848
T9
X51.816Y-38.1
X53.34Y-197.485
X238.76Y-38.1
X238.76Y-198.12
T10
X59.54Y-146.812
X59.54Y-171.812
T5
G00X53.246Y-133.358
M15
G01X53.246Y-135.358
M16
G05
G00X53.34Y-116.348
M15
G01X53.34Y-118.348
M16
G05
G00X54.796Y-127.508
M15
G01X53.296Y-127.508
M16
G05
G00X54.796Y-141.208
M15
G01X53.296Y-141.208
M16
G05
G00X54.89Y-110.498
M15
G01X53.39Y-110.498
M16
G05
G00X54.89Y-124.198
M15
G01X53.39Y-124.198
M16
G05
G00X55.88Y-100.15
M15
G01X55.88Y-102.15
M16
G05
G00X57.88Y-105.85
M15
G01X59.88Y-105.85
M16
G05
G00X61.88Y-100.15
M15
G01X61.88Y-102.15
M16
G05
T0
M30
