%TF.GenerationSoftware,KiCad,Pcbnew,7.0.9-7.0.9~ubuntu22.04.1*%
%TF.CreationDate,2023-12-31T14:55:30-06:00*%
%TF.ProjectId,6502v2.0,36353032-7632-42e3-902e-6b696361645f,rev?*%
%TF.SameCoordinates,Original*%
%TF.FileFunction,Copper,L3,Inr*%
%TF.FilePolarity,Positive*%
%FSLAX46Y46*%
G04 Gerber Fmt 4.6, Leading zero omitted, Abs format (unit mm)*
G04 Created by KiCad (PCBNEW 7.0.9-7.0.9~ubuntu22.04.1) date 2023-12-31 14:55:30*
%MOMM*%
%LPD*%
G01*
G04 APERTURE LIST*
G04 Aperture macros list*
%AMRoundRect*
0 Rectangle with rounded corners*
0 $1 Rounding radius*
0 $2 $3 $4 $5 $6 $7 $8 $9 X,Y pos of 4 corners*
0 Add a 4 corners polygon primitive as box body*
4,1,4,$2,$3,$4,$5,$6,$7,$8,$9,$2,$3,0*
0 Add four circle primitives for the rounded corners*
1,1,$1+$1,$2,$3*
1,1,$1+$1,$4,$5*
1,1,$1+$1,$6,$7*
1,1,$1+$1,$8,$9*
0 Add four rect primitives between the rounded corners*
20,1,$1+$1,$2,$3,$4,$5,0*
20,1,$1+$1,$4,$5,$6,$7,0*
20,1,$1+$1,$6,$7,$8,$9,0*
20,1,$1+$1,$8,$9,$2,$3,0*%
G04 Aperture macros list end*
%TA.AperFunction,ComponentPad*%
%ADD10R,1.600000X1.600000*%
%TD*%
%TA.AperFunction,ComponentPad*%
%ADD11O,1.600000X1.600000*%
%TD*%
%TA.AperFunction,ComponentPad*%
%ADD12C,1.600000*%
%TD*%
%TA.AperFunction,ComponentPad*%
%ADD13O,3.500000X2.000000*%
%TD*%
%TA.AperFunction,ComponentPad*%
%ADD14O,2.000000X4.000000*%
%TD*%
%TA.AperFunction,ComponentPad*%
%ADD15R,1.700000X1.700000*%
%TD*%
%TA.AperFunction,ComponentPad*%
%ADD16O,1.700000X1.700000*%
%TD*%
%TA.AperFunction,ComponentPad*%
%ADD17C,4.000000*%
%TD*%
%TA.AperFunction,ComponentPad*%
%ADD18R,1.800000X1.800000*%
%TD*%
%TA.AperFunction,ComponentPad*%
%ADD19C,1.800000*%
%TD*%
%TA.AperFunction,ComponentPad*%
%ADD20C,1.000000*%
%TD*%
%TA.AperFunction,ComponentPad*%
%ADD21C,2.000000*%
%TD*%
%TA.AperFunction,ComponentPad*%
%ADD22C,5.600000*%
%TD*%
%TA.AperFunction,ComponentPad*%
%ADD23R,3.500000X3.500000*%
%TD*%
%TA.AperFunction,ComponentPad*%
%ADD24RoundRect,0.750000X-0.750000X-1.000000X0.750000X-1.000000X0.750000X1.000000X-0.750000X1.000000X0*%
%TD*%
%TA.AperFunction,ComponentPad*%
%ADD25RoundRect,0.875000X-0.875000X-0.875000X0.875000X-0.875000X0.875000X0.875000X-0.875000X0.875000X0*%
%TD*%
%TA.AperFunction,ComponentPad*%
%ADD26R,2.000000X1.440000*%
%TD*%
%TA.AperFunction,ComponentPad*%
%ADD27O,2.000000X1.440000*%
%TD*%
%TA.AperFunction,ComponentPad*%
%ADD28R,3.000000X3.000000*%
%TD*%
%TA.AperFunction,ComponentPad*%
%ADD29C,3.000000*%
%TD*%
%TA.AperFunction,ComponentPad*%
%ADD30C,2.700000*%
%TD*%
%TA.AperFunction,ComponentPad*%
%ADD31C,2.500000*%
%TD*%
%TA.AperFunction,ComponentPad*%
%ADD32C,1.524000*%
%TD*%
%TA.AperFunction,ComponentPad*%
%ADD33R,2.000000X1.905000*%
%TD*%
%TA.AperFunction,ComponentPad*%
%ADD34O,2.000000X1.905000*%
%TD*%
%TA.AperFunction,ComponentPad*%
%ADD35R,1.800000X2.600000*%
%TD*%
%TA.AperFunction,ComponentPad*%
%ADD36O,1.800000X2.600000*%
%TD*%
%TA.AperFunction,ViaPad*%
%ADD37C,0.800000*%
%TD*%
%TA.AperFunction,Conductor*%
%ADD38C,0.250000*%
%TD*%
G04 APERTURE END LIST*
D10*
%TO.N,GND*%
%TO.C,U9*%
X7962000Y319004000D03*
D11*
%TO.N,2pa0*%
X7962000Y316464000D03*
%TO.N,2pa1*%
X7962000Y313924000D03*
%TO.N,2pa2*%
X7962000Y311384000D03*
%TO.N,2pa3*%
X7962000Y308844000D03*
%TO.N,2pa4*%
X7962000Y306304000D03*
%TO.N,2pa5*%
X7962000Y303764000D03*
%TO.N,2pa6*%
X7962000Y301224000D03*
%TO.N,2pa7*%
X7962000Y298684000D03*
%TO.N,2pb0*%
X7962000Y296144000D03*
%TO.N,2pb1*%
X7962000Y293604000D03*
%TO.N,2pb2*%
X7962000Y291064000D03*
%TO.N,2pb3*%
X7962000Y288524000D03*
%TO.N,2pb4*%
X7962000Y285984000D03*
%TO.N,2pb5*%
X7962000Y283444000D03*
%TO.N,2pb6*%
X7962000Y280904000D03*
%TO.N,2pb7*%
X7962000Y278364000D03*
%TO.N,2CB1*%
X7962000Y275824000D03*
%TO.N,2CB2*%
X7962000Y273284000D03*
%TO.N,+5V*%
X7962000Y270744000D03*
%TO.N,2VIA_IRQ*%
X23202000Y270744000D03*
%TO.N,RW*%
X23202000Y273284000D03*
%TO.N,VIA2_CS*%
X23202000Y275824000D03*
%TO.N,+5V*%
X23202000Y278364000D03*
%TO.N,PHI2*%
X23202000Y280904000D03*
%TO.N,d7*%
X23202000Y283444000D03*
%TO.N,d6*%
X23202000Y285984000D03*
%TO.N,d5*%
X23202000Y288524000D03*
%TO.N,d4*%
X23202000Y291064000D03*
%TO.N,d3*%
X23202000Y293604000D03*
%TO.N,d2*%
X23202000Y296144000D03*
%TO.N,d1*%
X23202000Y298684000D03*
%TO.N,d0*%
X23202000Y301224000D03*
%TO.N,RESET*%
X23202000Y303764000D03*
%TO.N,a3*%
X23202000Y306304000D03*
%TO.N,a2*%
X23202000Y308844000D03*
%TO.N,a1*%
X23202000Y311384000D03*
%TO.N,a0*%
X23202000Y313924000D03*
%TO.N,2CA2*%
X23202000Y316464000D03*
%TO.N,2CA1*%
X23202000Y319004000D03*
%TD*%
D10*
%TO.N,1pa7*%
%TO.C,J11*%
X-42500000Y270400000D03*
D12*
%TO.N,unconnected-(J11-Pad2)*%
X-42500000Y273000000D03*
%TO.N,GND*%
X-42500000Y268300000D03*
%TO.N,+5V*%
X-42500000Y275100000D03*
%TO.N,1pa6*%
X-39700000Y268300000D03*
%TO.N,unconnected-(J11-Pad6)*%
X-39700000Y275100000D03*
D13*
%TO.N,N/C*%
X-45350000Y278550000D03*
D14*
X-46150000Y271700000D03*
D13*
X-45350000Y264850000D03*
%TD*%
D10*
%TO.N,BANKED_RAM_CS*%
%TO.C,U6*%
X100700000Y342400000D03*
D11*
%TO.N,1pa0*%
X100700000Y339860000D03*
%TO.N,GND*%
X100700000Y337320000D03*
%TO.N,Net-(U6-Za)*%
X100700000Y334780000D03*
%TO.N,1pa1*%
X100700000Y332240000D03*
%TO.N,GND*%
X100700000Y329700000D03*
%TO.N,Net-(U6-Zb)*%
X100700000Y327160000D03*
%TO.N,GND*%
X100700000Y324620000D03*
%TO.N,Net-(U6-Zc)*%
X108320000Y324620000D03*
%TO.N,GND*%
X108320000Y327160000D03*
%TO.N,1pa2*%
X108320000Y329700000D03*
%TO.N,Net-(U6-Zd)*%
X108320000Y332240000D03*
%TO.N,GND*%
X108320000Y334780000D03*
%TO.N,1pa3*%
X108320000Y337320000D03*
%TO.N,GND*%
X108320000Y339860000D03*
%TO.N,+5V*%
X108320000Y342400000D03*
%TD*%
D15*
%TO.N,PSG1IOB0*%
%TO.C,J15*%
X-23403000Y233500000D03*
D16*
%TO.N,PSG1IOB1*%
X-23403000Y236040000D03*
%TO.N,PSG1IOB2*%
X-23403000Y238580000D03*
%TO.N,PSG1IOB3*%
X-23403000Y241120000D03*
%TO.N,PSG1IOB4*%
X-23403000Y243660000D03*
%TO.N,PSG1IOB5*%
X-23403000Y246200000D03*
%TO.N,PSG1IOB6*%
X-23403000Y248740000D03*
%TO.N,PSG1IOB7*%
X-23403000Y251280000D03*
%TD*%
D10*
%TO.N,Net-(C22-Pad1)*%
%TO.C,C22*%
X28000000Y246345000D03*
D12*
%TO.N,AUDIO_OUT_RIGHT*%
X25500000Y246345000D03*
%TD*%
%TO.N,Net-(R1-Pad1)*%
%TO.C,R1*%
X45420000Y320000000D03*
D11*
%TO.N,NMI*%
X55580000Y320000000D03*
%TD*%
D12*
%TO.N,Net-(U15-~{A9})*%
%TO.C,R14*%
X13171000Y220975000D03*
D11*
%TO.N,GND*%
X13171000Y231135000D03*
%TD*%
D12*
%TO.N,Net-(C22-Pad1)*%
%TO.C,R18*%
X17660000Y254000000D03*
D11*
%TO.N,Net-(U15-ch_A)*%
X7500000Y254000000D03*
%TD*%
D10*
%TO.N,Net-(U6-Zd)*%
%TO.C,U8*%
X96260000Y310440000D03*
D11*
%TO.N,Net-(U6-Zb)*%
X96260000Y307900000D03*
%TO.N,a14*%
X96260000Y305360000D03*
%TO.N,a12*%
X96260000Y302820000D03*
%TO.N,a7*%
X96260000Y300280000D03*
%TO.N,a6*%
X96260000Y297740000D03*
%TO.N,a5*%
X96260000Y295200000D03*
%TO.N,a4*%
X96260000Y292660000D03*
%TO.N,a3*%
X96260000Y290120000D03*
%TO.N,a2*%
X96260000Y287580000D03*
%TO.N,a1*%
X96260000Y285040000D03*
%TO.N,a0*%
X96260000Y282500000D03*
%TO.N,d0*%
X96260000Y279960000D03*
%TO.N,d1*%
X96260000Y277420000D03*
%TO.N,d2*%
X96260000Y274880000D03*
%TO.N,GND*%
X96260000Y272340000D03*
%TO.N,d3*%
X111500000Y272340000D03*
%TO.N,d4*%
X111500000Y274880000D03*
%TO.N,d5*%
X111500000Y277420000D03*
%TO.N,d6*%
X111500000Y279960000D03*
%TO.N,d7*%
X111500000Y282500000D03*
%TO.N,RAM_CS*%
X111500000Y285040000D03*
%TO.N,a10*%
X111500000Y287580000D03*
%TO.N,OE*%
X111500000Y290120000D03*
%TO.N,a11*%
X111500000Y292660000D03*
%TO.N,a9*%
X111500000Y295200000D03*
%TO.N,a8*%
X111500000Y297740000D03*
%TO.N,a13*%
X111500000Y300280000D03*
%TO.N,WE*%
X111500000Y302820000D03*
%TO.N,Net-(U6-Zc)*%
X111500000Y305360000D03*
%TO.N,Net-(U6-Za)*%
X111500000Y307900000D03*
%TO.N,+5V*%
X111500000Y310440000D03*
%TD*%
D15*
%TO.N,+5V*%
%TO.C,J8*%
X-44500000Y342500000D03*
D16*
%TO.N,GND*%
X-44500000Y339960000D03*
%TD*%
D17*
%TO.N,N/C*%
%TO.C,J13*%
X-40000000Y256500000D03*
X-40000000Y231500000D03*
D10*
%TO.N,unconnected-(J13-Pad1)*%
X-38580000Y238460000D03*
D12*
%TO.N,Net-(U13-T1OUT)*%
X-38580000Y241230000D03*
%TO.N,Net-(U13-R1IN)*%
X-38580000Y244000000D03*
%TO.N,unconnected-(J13-Pad4)*%
X-38580000Y246770000D03*
%TO.N,GND*%
X-38580000Y249540000D03*
%TO.N,unconnected-(J13-Pad6)*%
X-41420000Y239845000D03*
%TO.N,unconnected-(J13-Pad7)*%
X-41420000Y242615000D03*
%TO.N,unconnected-(J13-Pad8)*%
X-41420000Y245385000D03*
%TO.N,unconnected-(J13-Pad9)*%
X-41420000Y248155000D03*
%TD*%
D10*
%TO.N,Net-(U13-C1+)*%
%TO.C,U13*%
X105350000Y235998000D03*
D11*
%TO.N,Net-(U13-VS+)*%
X105350000Y233458000D03*
%TO.N,Net-(U13-C1-)*%
X105350000Y230918000D03*
%TO.N,Net-(U13-C2+)*%
X105350000Y228378000D03*
%TO.N,Net-(U13-C2-)*%
X105350000Y225838000D03*
%TO.N,Net-(U13-VS-)*%
X105350000Y223298000D03*
%TO.N,unconnected-(U13-T2OUT-Pad7)*%
X105350000Y220758000D03*
%TO.N,unconnected-(U13-R2IN-Pad8)*%
X105350000Y218218000D03*
%TO.N,unconnected-(U13-R2OUT-Pad9)*%
X112970000Y218218000D03*
%TO.N,unconnected-(U13-T2IN-Pad10)*%
X112970000Y220758000D03*
%TO.N,Net-(J14-Pin_2)*%
X112970000Y223298000D03*
%TO.N,Net-(J14-Pin_3)*%
X112970000Y225838000D03*
%TO.N,Net-(U13-R1IN)*%
X112970000Y228378000D03*
%TO.N,Net-(U13-T1OUT)*%
X112970000Y230918000D03*
%TO.N,GND*%
X112970000Y233458000D03*
%TO.N,+5V*%
X112970000Y235998000D03*
%TD*%
D10*
%TO.N,Net-(U13-C2+)*%
%TO.C,C19*%
X100650000Y224822000D03*
D12*
%TO.N,Net-(U13-C2-)*%
X98150000Y224822000D03*
%TD*%
%TO.N,Net-(C27-Pad1)*%
%TO.C,R23*%
X74955000Y243938000D03*
D11*
%TO.N,GND*%
X64795000Y243938000D03*
%TD*%
D10*
%TO.N,GND*%
%TO.C,C21*%
X100650000Y217202000D03*
D12*
%TO.N,Net-(U13-VS-)*%
X98150000Y217202000D03*
%TD*%
D10*
%TO.N,VP*%
%TO.C,U5*%
X67960000Y319520000D03*
D11*
%TO.N,RDY*%
X67960000Y316980000D03*
%TO.N,unconnected-(U5-PHI1O-Pad3)*%
X67960000Y314440000D03*
%TO.N,IRQ*%
X67960000Y311900000D03*
%TO.N,ML*%
X67960000Y309360000D03*
%TO.N,NMI*%
X67960000Y306820000D03*
%TO.N,SYNC*%
X67960000Y304280000D03*
%TO.N,+5V*%
X67960000Y301740000D03*
%TO.N,a0*%
X67960000Y299200000D03*
%TO.N,a1*%
X67960000Y296660000D03*
%TO.N,a2*%
X67960000Y294120000D03*
%TO.N,a3*%
X67960000Y291580000D03*
%TO.N,a4*%
X67960000Y289040000D03*
%TO.N,a5*%
X67960000Y286500000D03*
%TO.N,a6*%
X67960000Y283960000D03*
%TO.N,a7*%
X67960000Y281420000D03*
%TO.N,a8*%
X67960000Y278880000D03*
%TO.N,a9*%
X67960000Y276340000D03*
%TO.N,a10*%
X67960000Y273800000D03*
%TO.N,a11*%
X67960000Y271260000D03*
%TO.N,GND*%
X83200000Y271260000D03*
%TO.N,a12*%
X83200000Y273800000D03*
%TO.N,a13*%
X83200000Y276340000D03*
%TO.N,a14*%
X83200000Y278880000D03*
%TO.N,a15*%
X83200000Y281420000D03*
%TO.N,d7*%
X83200000Y283960000D03*
%TO.N,d6*%
X83200000Y286500000D03*
%TO.N,d5*%
X83200000Y289040000D03*
%TO.N,d4*%
X83200000Y291580000D03*
%TO.N,d3*%
X83200000Y294120000D03*
%TO.N,d2*%
X83200000Y296660000D03*
%TO.N,d1*%
X83200000Y299200000D03*
%TO.N,d0*%
X83200000Y301740000D03*
%TO.N,RW*%
X83200000Y304280000D03*
%TO.N,unconnected-(U5-NC-Pad35)*%
X83200000Y306820000D03*
%TO.N,BE*%
X83200000Y309360000D03*
%TO.N,PHI2*%
X83200000Y311900000D03*
%TO.N,+5V*%
X83200000Y314440000D03*
%TO.N,unconnected-(U5-PHI2O-Pad39)*%
X83200000Y316980000D03*
%TO.N,RESET*%
X83200000Y319520000D03*
%TD*%
D12*
%TO.N,+5V*%
%TO.C,R13*%
X8375000Y231135000D03*
D11*
%TO.N,Net-(U15-A8)*%
X8375000Y220975000D03*
%TD*%
D12*
%TO.N,NMI*%
%TO.C,C7*%
X63500000Y320000000D03*
%TO.N,GND*%
X58500000Y320000000D03*
%TD*%
%TO.N,+5V*%
%TO.C,R3*%
X52080000Y313000000D03*
D11*
%TO.N,RDY*%
X52080000Y302840000D03*
%TD*%
D12*
%TO.N,+5V*%
%TO.C,C16*%
X111650000Y241332000D03*
%TO.N,GND*%
X106650000Y241332000D03*
%TD*%
D10*
%TO.N,GND*%
%TO.C,U15*%
X-11625000Y258125000D03*
D11*
%TO.N,unconnected-(U15-N{slash}C-Pad2)*%
X-11625000Y255585000D03*
%TO.N,Net-(U15-ch_B)*%
X-11625000Y253045000D03*
%TO.N,Net-(U15-ch_A)*%
X-11625000Y250505000D03*
%TO.N,unconnected-(U15-N{slash}C-Pad5)*%
X-11625000Y247965000D03*
%TO.N,PSG1IOB7*%
X-11625000Y245425000D03*
%TO.N,PSG1IOB6*%
X-11625000Y242885000D03*
%TO.N,PSG1IOB5*%
X-11625000Y240345000D03*
%TO.N,PSG1IOB4*%
X-11625000Y237805000D03*
%TO.N,PSG1IOB3*%
X-11625000Y235265000D03*
%TO.N,PSG1IOB2*%
X-11625000Y232725000D03*
%TO.N,PSG1IOB1*%
X-11625000Y230185000D03*
%TO.N,PSG1IOB0*%
X-11625000Y227645000D03*
%TO.N,PSG1IOA7*%
X-11625000Y225105000D03*
%TO.N,PSG1IOA6*%
X-11625000Y222565000D03*
%TO.N,PSG1IOA5*%
X-11625000Y220025000D03*
%TO.N,PSG1IOA4*%
X-11625000Y217485000D03*
%TO.N,PSG1IOA3*%
X-11625000Y214945000D03*
%TO.N,PSG1IOA2*%
X-11625000Y212405000D03*
%TO.N,PSG1IOA1*%
X-11625000Y209865000D03*
%TO.N,PSG1IOA0*%
X3615000Y209865000D03*
%TO.N,CLK_1.8432*%
X3615000Y212405000D03*
%TO.N,RESET*%
X3615000Y214945000D03*
%TO.N,Net-(U15-~{A9})*%
X3615000Y217485000D03*
%TO.N,Net-(U15-A8)*%
X3615000Y220025000D03*
%TO.N,unconnected-(U15-TEST2-Pad26)*%
X3615000Y222565000D03*
%TO.N,Net-(U15-BDIR)*%
X3615000Y225105000D03*
%TO.N,+5V*%
X3615000Y227645000D03*
%TO.N,Net-(U15-BC1)*%
X3615000Y230185000D03*
%TO.N,d7*%
X3615000Y232725000D03*
%TO.N,d6*%
X3615000Y235265000D03*
%TO.N,d5*%
X3615000Y237805000D03*
%TO.N,d4*%
X3615000Y240345000D03*
%TO.N,d3*%
X3615000Y242885000D03*
%TO.N,d2*%
X3615000Y245425000D03*
%TO.N,d1*%
X3615000Y247965000D03*
%TO.N,d0*%
X3615000Y250505000D03*
%TO.N,Net-(U15-ch_C)*%
X3615000Y253045000D03*
%TO.N,unconnected-(U15-TEST1-Pad39)*%
X3615000Y255585000D03*
%TO.N,+5V*%
X3615000Y258125000D03*
%TD*%
D15*
%TO.N,a0*%
%TO.C,J7*%
X103609000Y402940000D03*
D16*
%TO.N,d0*%
X106149000Y402940000D03*
%TO.N,a1*%
X103609000Y400400000D03*
%TO.N,d1*%
X106149000Y400400000D03*
%TO.N,a2*%
X103609000Y397860000D03*
%TO.N,d2*%
X106149000Y397860000D03*
%TO.N,a3*%
X103609000Y395320000D03*
%TO.N,d3*%
X106149000Y395320000D03*
%TO.N,a4*%
X103609000Y392780000D03*
%TO.N,d4*%
X106149000Y392780000D03*
%TO.N,a5*%
X103609000Y390240000D03*
%TO.N,d5*%
X106149000Y390240000D03*
%TO.N,a6*%
X103609000Y387700000D03*
%TO.N,d6*%
X106149000Y387700000D03*
%TO.N,a7*%
X103609000Y385160000D03*
%TO.N,d7*%
X106149000Y385160000D03*
%TO.N,a8*%
X103609000Y382620000D03*
%TO.N,RW*%
X106149000Y382620000D03*
%TO.N,a9*%
X103609000Y380080000D03*
%TO.N,PHI2*%
X106149000Y380080000D03*
%TO.N,a10*%
X103609000Y377540000D03*
%TO.N,RESET*%
X106149000Y377540000D03*
%TO.N,a11*%
X103609000Y375000000D03*
%TO.N,SYNC*%
X106149000Y375000000D03*
%TO.N,a12*%
X103609000Y372460000D03*
%TO.N,IRQ*%
X106149000Y372460000D03*
%TO.N,a13*%
X103609000Y369920000D03*
%TO.N,BE*%
X106149000Y369920000D03*
%TO.N,a14*%
X103609000Y367380000D03*
%TO.N,RDY*%
X106149000Y367380000D03*
%TO.N,a15*%
X103609000Y364840000D03*
%TO.N,VP*%
X106149000Y364840000D03*
%TO.N,IO1*%
X103609000Y362300000D03*
%TO.N,ML*%
X106149000Y362300000D03*
%TO.N,OE*%
X103609000Y359760000D03*
%TO.N,NMI*%
X106149000Y359760000D03*
%TO.N,+5V*%
X103609000Y357220000D03*
%TO.N,WE*%
X106149000Y357220000D03*
%TO.N,GND*%
X103609000Y354680000D03*
X106149000Y354680000D03*
%TD*%
D12*
%TO.N,+5V*%
%TO.C,C8*%
X73085000Y325150000D03*
%TO.N,GND*%
X78085000Y325150000D03*
%TD*%
D10*
%TO.N,1pa5*%
%TO.C,J9*%
X-42500000Y287400000D03*
D12*
%TO.N,unconnected-(J9-Pad2)*%
X-42500000Y290000000D03*
%TO.N,GND*%
X-42500000Y285300000D03*
%TO.N,+5V*%
X-42500000Y292100000D03*
%TO.N,1pa4*%
X-39700000Y285300000D03*
%TO.N,unconnected-(J9-Pad6)*%
X-39700000Y292100000D03*
D13*
%TO.N,N/C*%
X-45350000Y295550000D03*
D14*
X-46150000Y288700000D03*
D13*
X-45350000Y281850000D03*
%TD*%
D12*
%TO.N,Net-(C22-Pad1)*%
%TO.C,R17*%
X17660000Y244000000D03*
D11*
%TO.N,GND*%
X7500000Y244000000D03*
%TD*%
D12*
%TO.N,GND*%
%TO.C,R7*%
X139080000Y343406000D03*
D11*
%TO.N,1pa3*%
X128920000Y343406000D03*
%TD*%
D12*
%TO.N,GND*%
%TO.C,R6*%
X139000000Y333500000D03*
D11*
%TO.N,1pa2*%
X128840000Y333500000D03*
%TD*%
D10*
%TO.N,unconnected-(X1-NC-Pad1)*%
%TO.C,X1*%
X49880000Y342500000D03*
D12*
%TO.N,GND*%
X65120000Y342500000D03*
%TO.N,Net-(JP1-B)*%
X65120000Y350120000D03*
%TO.N,+5V*%
X49880000Y350120000D03*
%TD*%
D15*
%TO.N,decode0*%
%TO.C,J5*%
X47222000Y296292000D03*
D16*
%TO.N,decode1*%
X47222000Y293752000D03*
%TO.N,decode2*%
X47222000Y291212000D03*
%TO.N,decode3*%
X47222000Y288672000D03*
%TD*%
D12*
%TO.N,+5V*%
%TO.C,C29*%
X138650000Y260942000D03*
%TO.N,GND*%
X133650000Y260942000D03*
%TD*%
%TO.N,Net-(C22-Pad1)*%
%TO.C,R16*%
X17580000Y249000000D03*
D11*
%TO.N,Net-(U15-ch_B)*%
X7420000Y249000000D03*
%TD*%
D15*
%TO.N,2pb0*%
%TO.C,J1*%
X-2830000Y295942000D03*
D16*
%TO.N,2pb1*%
X-2830000Y293402000D03*
%TO.N,2pb2*%
X-2830000Y290862000D03*
%TO.N,2pb3*%
X-2830000Y288322000D03*
%TO.N,2pb4*%
X-2830000Y285782000D03*
%TO.N,2pb5*%
X-2830000Y283242000D03*
%TO.N,2pb6*%
X-2830000Y280702000D03*
%TO.N,2pb7*%
X-2830000Y278162000D03*
%TD*%
D10*
%TO.N,VIA1_CS*%
%TO.C,U2*%
X71700000Y359700000D03*
D11*
%TO.N,VIA2_CS*%
X71700000Y357160000D03*
%TO.N,ACIA_CS*%
X71700000Y354620000D03*
%TO.N,PSG1_CS*%
X71700000Y352080000D03*
%TO.N,PSG2_CS*%
X71700000Y349540000D03*
%TO.N,IO0*%
X71700000Y347000000D03*
%TO.N,IO1*%
X71700000Y344460000D03*
%TO.N,IO2*%
X71700000Y341920000D03*
%TO.N,IO3*%
X71700000Y339380000D03*
%TO.N,IO4*%
X71700000Y336840000D03*
%TO.N,IO5*%
X71700000Y334300000D03*
%TO.N,GND*%
X71700000Y331760000D03*
%TO.N,IO6*%
X79320000Y331760000D03*
%TO.N,IO7*%
X79320000Y334300000D03*
%TO.N,IO8*%
X79320000Y336840000D03*
%TO.N,IO9*%
X79320000Y339380000D03*
%TO.N,IO10*%
X79320000Y341920000D03*
%TO.N,a15*%
X79320000Y344460000D03*
%TO.N,DEVICE_CS*%
X79320000Y347000000D03*
%TO.N,a7*%
X79320000Y349540000D03*
%TO.N,a6*%
X79320000Y352080000D03*
%TO.N,a5*%
X79320000Y354620000D03*
%TO.N,a4*%
X79320000Y357160000D03*
%TO.N,+5V*%
X79320000Y359700000D03*
%TD*%
D10*
%TO.N,+5V*%
%TO.C,C15*%
X14500000Y336000000D03*
D12*
%TO.N,Net-(U11-THR)*%
X12000000Y336000000D03*
%TD*%
%TO.N,+5V*%
%TO.C,C26*%
X87025000Y230478000D03*
%TO.N,GND*%
X82025000Y230478000D03*
%TD*%
%TO.N,+5V*%
%TO.C,C1*%
X106385000Y316208000D03*
%TO.N,GND*%
X101385000Y316208000D03*
%TD*%
D10*
%TO.N,+5V*%
%TO.C,U17*%
X33200000Y348800000D03*
D11*
%TO.N,Net-(U17-X1)*%
X33200000Y346260000D03*
%TO.N,Net-(U17-X2)*%
X33200000Y343720000D03*
%TO.N,GND*%
X33200000Y341180000D03*
%TO.N,1pb7*%
X40820000Y341180000D03*
%TO.N,1CB1*%
X40820000Y343720000D03*
%TO.N,PHI2*%
X40820000Y346260000D03*
%TO.N,Net-(BT1-+)*%
X40820000Y348800000D03*
%TD*%
D12*
%TO.N,+5V*%
%TO.C,C11*%
X55650000Y263363000D03*
%TO.N,GND*%
X50650000Y263363000D03*
%TD*%
D15*
%TO.N,2pa0*%
%TO.C,J4*%
X-2830000Y318856000D03*
D16*
%TO.N,2pa1*%
X-2830000Y316316000D03*
%TO.N,2pa2*%
X-2830000Y313776000D03*
%TO.N,2pa3*%
X-2830000Y311236000D03*
%TO.N,2pa4*%
X-2830000Y308696000D03*
%TO.N,2pa5*%
X-2830000Y306156000D03*
%TO.N,2pa6*%
X-2830000Y303616000D03*
%TO.N,2pa7*%
X-2830000Y301076000D03*
%TD*%
D12*
%TO.N,+5V*%
%TO.C,R8*%
X61500000Y313080000D03*
D11*
%TO.N,RESET*%
X61500000Y302920000D03*
%TD*%
D18*
%TO.N,GND*%
%TO.C,D1*%
X-19920000Y355156000D03*
D19*
%TO.N,Net-(D1-A)*%
X-22460000Y355156000D03*
%TD*%
D15*
%TO.N,PSG2IOB0*%
%TO.C,J18*%
X34500000Y233208000D03*
D16*
%TO.N,PSG2IOB1*%
X34500000Y235748000D03*
%TO.N,PSG2IOB2*%
X34500000Y238288000D03*
%TO.N,PSG2IOB3*%
X34500000Y240828000D03*
%TO.N,PSG2IOB4*%
X34500000Y243368000D03*
%TO.N,PSG2IOB5*%
X34500000Y245908000D03*
%TO.N,PSG2IOB6*%
X34500000Y248448000D03*
%TO.N,PSG2IOB7*%
X34500000Y250988000D03*
%TD*%
D20*
%TO.N,Net-(U17-X1)*%
%TO.C,X3*%
X27089000Y344990000D03*
%TO.N,Net-(U17-X2)*%
X29629000Y344990000D03*
%TD*%
D12*
%TO.N,Net-(D1-A)*%
%TO.C,R10*%
X-28920000Y355000000D03*
D11*
%TO.N,+5V*%
X-39080000Y355000000D03*
%TD*%
D21*
%TO.N,Net-(R1-Pad1)*%
%TO.C,SW1*%
X47700000Y333700000D03*
X54200000Y333700000D03*
%TO.N,GND*%
X47700000Y329200000D03*
X54200000Y329200000D03*
%TD*%
D12*
%TO.N,+5V*%
%TO.C,C17*%
X18064000Y354914000D03*
%TO.N,GND*%
X13064000Y354914000D03*
%TD*%
%TO.N,Net-(U11-THR)*%
%TO.C,R12*%
X6674000Y340690000D03*
D11*
%TO.N,GND*%
X6674000Y350850000D03*
%TD*%
D10*
%TO.N,GND*%
%TO.C,U12*%
X128525000Y255623000D03*
D11*
%TO.N,+5V*%
X128525000Y253083000D03*
%TO.N,ACIA_CS*%
X128525000Y250543000D03*
%TO.N,RESET*%
X128525000Y248003000D03*
%TO.N,unconnected-(U12-RxC-Pad5)*%
X128525000Y245463000D03*
%TO.N,CLK_1.8432*%
X128525000Y242923000D03*
%TO.N,unconnected-(U12-XTLO-Pad7)*%
X128525000Y240383000D03*
%TO.N,unconnected-(U12-~{RTS}-Pad8)*%
X128525000Y237843000D03*
%TO.N,GND*%
X128525000Y235303000D03*
%TO.N,Net-(J14-Pin_2)*%
X128525000Y232763000D03*
%TO.N,unconnected-(U12-~{DTR}-Pad11)*%
X128525000Y230223000D03*
%TO.N,Net-(J14-Pin_3)*%
X128525000Y227683000D03*
%TO.N,a0*%
X128525000Y225143000D03*
%TO.N,a1*%
X128525000Y222603000D03*
%TO.N,+5V*%
X143765000Y222603000D03*
%TO.N,GND*%
X143765000Y225143000D03*
X143765000Y227683000D03*
%TO.N,d0*%
X143765000Y230223000D03*
%TO.N,d1*%
X143765000Y232763000D03*
%TO.N,d2*%
X143765000Y235303000D03*
%TO.N,d3*%
X143765000Y237843000D03*
%TO.N,d4*%
X143765000Y240383000D03*
%TO.N,d5*%
X143765000Y242923000D03*
%TO.N,d6*%
X143765000Y245463000D03*
%TO.N,d7*%
X143765000Y248003000D03*
%TO.N,ACIA_IRQ*%
X143765000Y250543000D03*
%TO.N,PHI2*%
X143765000Y253083000D03*
%TO.N,RW*%
X143765000Y255623000D03*
%TD*%
D12*
%TO.N,Net-(C22-Pad1)*%
%TO.C,C23*%
X27000000Y251845000D03*
%TO.N,GND*%
X27000000Y256845000D03*
%TD*%
D10*
%TO.N,GND*%
%TO.C,U16*%
X45525000Y258125000D03*
D11*
%TO.N,unconnected-(U16-N{slash}C-Pad2)*%
X45525000Y255585000D03*
%TO.N,Net-(U16-ch_B)*%
X45525000Y253045000D03*
%TO.N,Net-(U16-ch_A)*%
X45525000Y250505000D03*
%TO.N,unconnected-(U16-N{slash}C-Pad5)*%
X45525000Y247965000D03*
%TO.N,PSG2IOB7*%
X45525000Y245425000D03*
%TO.N,PSG2IOB6*%
X45525000Y242885000D03*
%TO.N,PSG2IOB5*%
X45525000Y240345000D03*
%TO.N,PSG2IOB4*%
X45525000Y237805000D03*
%TO.N,PSG2IOB3*%
X45525000Y235265000D03*
%TO.N,PSG2IOB2*%
X45525000Y232725000D03*
%TO.N,PSG2IOB1*%
X45525000Y230185000D03*
%TO.N,PSG2IOB0*%
X45525000Y227645000D03*
%TO.N,PSG2IOA7*%
X45525000Y225105000D03*
%TO.N,PSG2IOA6*%
X45525000Y222565000D03*
%TO.N,PSG2IOA5*%
X45525000Y220025000D03*
%TO.N,PSG2IOA4*%
X45525000Y217485000D03*
%TO.N,PSG2IOA3*%
X45525000Y214945000D03*
%TO.N,PSG2IOA2*%
X45525000Y212405000D03*
%TO.N,PSG2IOA1*%
X45525000Y209865000D03*
%TO.N,PSG2IOA0*%
X60765000Y209865000D03*
%TO.N,CLK_1.8432*%
X60765000Y212405000D03*
%TO.N,RESET*%
X60765000Y214945000D03*
%TO.N,Net-(U16-~{A9})*%
X60765000Y217485000D03*
%TO.N,Net-(U16-A8)*%
X60765000Y220025000D03*
%TO.N,unconnected-(U16-TEST2-Pad26)*%
X60765000Y222565000D03*
%TO.N,Net-(U16-BDIR)*%
X60765000Y225105000D03*
%TO.N,+5V*%
X60765000Y227645000D03*
%TO.N,Net-(U16-BC1)*%
X60765000Y230185000D03*
%TO.N,d7*%
X60765000Y232725000D03*
%TO.N,d6*%
X60765000Y235265000D03*
%TO.N,d5*%
X60765000Y237805000D03*
%TO.N,d4*%
X60765000Y240345000D03*
%TO.N,d3*%
X60765000Y242885000D03*
%TO.N,d2*%
X60765000Y245425000D03*
%TO.N,d1*%
X60765000Y247965000D03*
%TO.N,d0*%
X60765000Y250505000D03*
%TO.N,Net-(U16-ch_C)*%
X60765000Y253045000D03*
%TO.N,unconnected-(U16-TEST1-Pad39)*%
X60765000Y255585000D03*
%TO.N,+5V*%
X60765000Y258125000D03*
%TD*%
D12*
%TO.N,Net-(C27-Pad1)*%
%TO.C,R24*%
X75035000Y248938000D03*
D11*
%TO.N,Net-(U16-ch_A)*%
X64875000Y248938000D03*
%TD*%
D12*
%TO.N,+5V*%
%TO.C,R19*%
X65778000Y232098000D03*
D11*
%TO.N,Net-(U16-A8)*%
X65778000Y221938000D03*
%TD*%
D10*
%TO.N,GND*%
%TO.C,U11*%
X11700000Y349800000D03*
D11*
%TO.N,Net-(U11-THR)*%
X11700000Y347260000D03*
%TO.N,RESET*%
X11700000Y344720000D03*
%TO.N,+5V*%
X11700000Y342180000D03*
%TO.N,Net-(U11-CV)*%
X19320000Y342180000D03*
%TO.N,Net-(U11-THR)*%
X19320000Y344720000D03*
%TO.N,unconnected-(U11-DIS-Pad7)*%
X19320000Y347260000D03*
%TO.N,+5V*%
X19320000Y349800000D03*
%TD*%
D15*
%TO.N,IO3*%
%TO.C,J12*%
X88500000Y327880000D03*
D16*
%TO.N,IO4*%
X88500000Y330420000D03*
%TO.N,IO5*%
X88500000Y332960000D03*
%TO.N,IO6*%
X88500000Y335500000D03*
%TO.N,IO7*%
X88500000Y338040000D03*
%TO.N,IO8*%
X88500000Y340580000D03*
%TO.N,IO9*%
X88500000Y343120000D03*
%TO.N,IO10*%
X88500000Y345660000D03*
%TD*%
D22*
%TO.N,N/C*%
%TO.C,H4*%
X146500000Y210000000D03*
%TD*%
D15*
%TO.N,+5V*%
%TO.C,JP2*%
X60500000Y369500000D03*
D16*
%TO.N,Net-(JP2-B)*%
X57960000Y369500000D03*
%TD*%
D12*
%TO.N,Net-(C27-Pad1)*%
%TO.C,R22*%
X75035000Y258938000D03*
D11*
%TO.N,Net-(U16-ch_B)*%
X64875000Y258938000D03*
%TD*%
D12*
%TO.N,+5V*%
%TO.C,C10*%
X-1500000Y263500000D03*
%TO.N,GND*%
X-6500000Y263500000D03*
%TD*%
D15*
%TO.N,GND*%
%TO.C,J14*%
X142500000Y217000000D03*
D16*
%TO.N,Net-(J14-Pin_2)*%
X139960000Y217000000D03*
%TO.N,Net-(J14-Pin_3)*%
X137420000Y217000000D03*
%TO.N,unconnected-(J14-Pin_4-Pad4)*%
X134880000Y217000000D03*
%TO.N,GND*%
X132340000Y217000000D03*
X129800000Y217000000D03*
%TD*%
D12*
%TO.N,+5V*%
%TO.C,C14*%
X34500000Y353890000D03*
%TO.N,GND*%
X39500000Y353890000D03*
%TD*%
D10*
%TO.N,Net-(C27-Pad1)*%
%TO.C,C27*%
X86255200Y248500000D03*
D12*
%TO.N,AUDIO_OUT_LEFT*%
X83755200Y248500000D03*
%TD*%
D23*
%TO.N,Net-(J6-Pad1)*%
%TO.C,J6*%
X-37500000Y307000000D03*
D24*
%TO.N,GND*%
X-43500000Y307000000D03*
D25*
%TO.N,N/C*%
X-40500000Y302300000D03*
%TD*%
D22*
%TO.N,N/C*%
%TO.C,H3*%
X-47500000Y208500000D03*
%TD*%
D10*
%TO.N,unconnected-(X2-NC-Pad1)*%
%TO.C,X2*%
X97910000Y251098000D03*
D12*
%TO.N,GND*%
X113150000Y251098000D03*
%TO.N,CLK_1.8432*%
X113150000Y258718000D03*
%TO.N,+5V*%
X97910000Y258718000D03*
%TD*%
D26*
%TO.N,a14*%
%TO.C,U3*%
X125760000Y311360000D03*
D27*
%TO.N,a12*%
X125760000Y308820000D03*
%TO.N,a7*%
X125760000Y306280000D03*
%TO.N,a6*%
X125760000Y303740000D03*
%TO.N,a5*%
X125760000Y301200000D03*
%TO.N,a4*%
X125760000Y298660000D03*
%TO.N,a3*%
X125760000Y296120000D03*
%TO.N,a2*%
X125760000Y293580000D03*
%TO.N,a1*%
X125760000Y291040000D03*
%TO.N,a0*%
X125760000Y288500000D03*
%TO.N,d0*%
X125760000Y285960000D03*
%TO.N,d1*%
X125760000Y283420000D03*
%TO.N,d2*%
X125760000Y280880000D03*
%TO.N,GND*%
X125760000Y278340000D03*
%TO.N,d3*%
X141000000Y278340000D03*
%TO.N,d4*%
X141000000Y280880000D03*
%TO.N,d5*%
X141000000Y283420000D03*
%TO.N,d6*%
X141000000Y285960000D03*
%TO.N,d7*%
X141000000Y288500000D03*
%TO.N,ROM_CS*%
X141000000Y291040000D03*
%TO.N,a10*%
X141000000Y293580000D03*
%TO.N,GND*%
X141000000Y296120000D03*
%TO.N,a11*%
X141000000Y298660000D03*
%TO.N,a9*%
X141000000Y301200000D03*
%TO.N,a8*%
X141000000Y303740000D03*
%TO.N,a13*%
X141000000Y306280000D03*
%TO.N,WE*%
X141000000Y308820000D03*
%TO.N,+5V*%
X141000000Y311360000D03*
%TD*%
D12*
%TO.N,+5V*%
%TO.C,C3*%
X-19694000Y325152000D03*
%TO.N,GND*%
X-24694000Y325152000D03*
%TD*%
%TO.N,+5V*%
%TO.C,C5*%
X107000000Y347480000D03*
%TO.N,GND*%
X102000000Y347480000D03*
%TD*%
%TO.N,Net-(C22-Pad1)*%
%TO.C,R15*%
X17580000Y259000000D03*
D11*
%TO.N,Net-(U15-ch_C)*%
X7420000Y259000000D03*
%TD*%
D28*
%TO.N,Net-(BT1-+)*%
%TO.C,BT1*%
X46925000Y389500000D03*
D29*
%TO.N,GND*%
X67415000Y389500000D03*
%TD*%
D10*
%TO.N,PHI2*%
%TO.C,U4*%
X33200000Y299975000D03*
D11*
%TO.N,RW*%
X33200000Y297435000D03*
%TO.N,a15*%
X33200000Y294895000D03*
%TO.N,unconnected-(U4-I2-Pad4)*%
X33200000Y292355000D03*
%TO.N,a14*%
X33200000Y289815000D03*
%TO.N,a13*%
X33200000Y287275000D03*
%TO.N,a12*%
X33200000Y284735000D03*
%TO.N,a11*%
X33200000Y282195000D03*
%TO.N,a10*%
X33200000Y279655000D03*
%TO.N,a9*%
X33200000Y277115000D03*
%TO.N,a8*%
X33200000Y274575000D03*
%TO.N,GND*%
X33200000Y272035000D03*
%TO.N,unconnected-(U4-CLK{slash}OD-Pad13)*%
X40820000Y272035000D03*
%TO.N,OE*%
X40820000Y274575000D03*
%TO.N,WE*%
X40820000Y277115000D03*
%TO.N,ROM_CS*%
X40820000Y279655000D03*
%TO.N,RAM_CS*%
X40820000Y282195000D03*
%TO.N,BANKED_RAM_CS*%
X40820000Y284735000D03*
%TO.N,decode3*%
X40820000Y287275000D03*
%TO.N,decode2*%
X40820000Y289815000D03*
%TO.N,DEVICE_CS*%
X40820000Y292355000D03*
%TO.N,decode1*%
X40820000Y294895000D03*
%TO.N,decode0*%
X40820000Y297435000D03*
%TO.N,+5V*%
X40820000Y299975000D03*
%TD*%
D12*
%TO.N,Net-(U16-~{A9})*%
%TO.C,R20*%
X70955000Y221938000D03*
D11*
%TO.N,GND*%
X70955000Y232098000D03*
%TD*%
D12*
%TO.N,BE*%
%TO.C,R9*%
X56674000Y302920000D03*
D11*
%TO.N,+5V*%
X56674000Y313080000D03*
%TD*%
D12*
%TO.N,Net-(C27-Pad1)*%
%TO.C,R21*%
X75115000Y253938000D03*
D11*
%TO.N,Net-(U16-ch_C)*%
X64955000Y253938000D03*
%TD*%
D15*
%TO.N,1CB2*%
%TO.C,J3*%
X-11904000Y331604000D03*
D16*
%TO.N,1CB1*%
X-9364000Y331604000D03*
%TO.N,1CA1*%
X-6824000Y331604000D03*
%TO.N,1CA2*%
X-4284000Y331604000D03*
%TO.N,2CB1*%
X-1744000Y331604000D03*
%TO.N,2CB2*%
X796000Y331604000D03*
%TO.N,2CA1*%
X3336000Y331604000D03*
%TO.N,2CA2*%
X5876000Y331604000D03*
%TD*%
D15*
%TO.N,PSG1IOA0*%
%TO.C,J16*%
X-23403000Y209840000D03*
D16*
%TO.N,PSG1IOA1*%
X-23403000Y212380000D03*
%TO.N,PSG1IOA2*%
X-23403000Y214920000D03*
%TO.N,PSG1IOA3*%
X-23403000Y217460000D03*
%TO.N,PSG1IOA4*%
X-23403000Y220000000D03*
%TO.N,PSG1IOA5*%
X-23403000Y222540000D03*
%TO.N,PSG1IOA6*%
X-23403000Y225080000D03*
%TO.N,PSG1IOA7*%
X-23403000Y227620000D03*
%TD*%
D12*
%TO.N,+5V*%
%TO.C,R2*%
X47080000Y302920000D03*
D11*
%TO.N,Net-(R1-Pad1)*%
X47080000Y313080000D03*
%TD*%
D12*
%TO.N,+5V*%
%TO.C,C6*%
X73000000Y365034000D03*
%TO.N,GND*%
X78000000Y365034000D03*
%TD*%
D21*
%TO.N,RESET*%
%TO.C,SW2*%
X58350000Y333650000D03*
X64850000Y333650000D03*
%TO.N,GND*%
X58350000Y329150000D03*
X64850000Y329150000D03*
%TD*%
D12*
%TO.N,+5V*%
%TO.C,C2*%
X130152500Y326745000D03*
%TO.N,GND*%
X135152500Y326745000D03*
%TD*%
D30*
%TO.N,GND*%
%TO.C,J19*%
X-46260300Y219872500D03*
%TO.N,AUDIO_OUT_LEFT*%
X-43810300Y221872500D03*
D31*
%TO.N,unconnected-(J19-Pad3)*%
X-40110300Y219872500D03*
%TO.N,AUDIO_OUT_RIGHT*%
X-38210300Y221872500D03*
D29*
%TO.N,unconnected-(J19-Pad5)*%
X-34460300Y219872500D03*
%TD*%
D10*
%TO.N,Net-(U13-VS+)*%
%TO.C,C20*%
X100674900Y232696000D03*
D12*
%TO.N,GND*%
X98174900Y232696000D03*
%TD*%
%TO.N,+5V*%
%TO.C,C25*%
X39500000Y332905000D03*
%TO.N,GND*%
X34500000Y332905000D03*
%TD*%
D22*
%TO.N,N/C*%
%TO.C,H2*%
X147500000Y403500000D03*
%TD*%
D15*
%TO.N,PSG2IOA0*%
%TO.C,J17*%
X34500000Y209840000D03*
D16*
%TO.N,PSG2IOA1*%
X34500000Y212380000D03*
%TO.N,PSG2IOA2*%
X34500000Y214920000D03*
%TO.N,PSG2IOA3*%
X34500000Y217460000D03*
%TO.N,PSG2IOA4*%
X34500000Y220000000D03*
%TO.N,PSG2IOA5*%
X34500000Y222540000D03*
%TO.N,PSG2IOA6*%
X34500000Y225080000D03*
%TO.N,PSG2IOA7*%
X34500000Y227620000D03*
%TD*%
D12*
%TO.N,GND*%
%TO.C,C13*%
X20500000Y333500000D03*
%TO.N,Net-(U11-CV)*%
X20500000Y338500000D03*
%TD*%
D10*
%TO.N,Net-(U15-BC1)*%
%TO.C,U14*%
X80725000Y225338000D03*
D11*
%TO.N,PSG1_CS*%
X80725000Y222798000D03*
%TO.N,a0*%
X80725000Y220258000D03*
%TO.N,Net-(U15-BDIR)*%
X80725000Y217718000D03*
%TO.N,PSG1_CS*%
X80725000Y215178000D03*
%TO.N,RW*%
X80725000Y212638000D03*
%TO.N,GND*%
X80725000Y210098000D03*
%TO.N,PSG2_CS*%
X88345000Y210098000D03*
%TO.N,a0*%
X88345000Y212638000D03*
%TO.N,Net-(U16-BC1)*%
X88345000Y215178000D03*
%TO.N,PSG2_CS*%
X88345000Y217718000D03*
%TO.N,RW*%
X88345000Y220258000D03*
%TO.N,Net-(U16-BDIR)*%
X88345000Y222798000D03*
%TO.N,+5V*%
X88345000Y225338000D03*
%TD*%
D15*
%TO.N,a0*%
%TO.C,J2*%
X86718000Y402940000D03*
D16*
%TO.N,d0*%
X89258000Y402940000D03*
%TO.N,a1*%
X86718000Y400400000D03*
%TO.N,d1*%
X89258000Y400400000D03*
%TO.N,a2*%
X86718000Y397860000D03*
%TO.N,d2*%
X89258000Y397860000D03*
%TO.N,a3*%
X86718000Y395320000D03*
%TO.N,d3*%
X89258000Y395320000D03*
%TO.N,a4*%
X86718000Y392780000D03*
%TO.N,d4*%
X89258000Y392780000D03*
%TO.N,a5*%
X86718000Y390240000D03*
%TO.N,d5*%
X89258000Y390240000D03*
%TO.N,a6*%
X86718000Y387700000D03*
%TO.N,d6*%
X89258000Y387700000D03*
%TO.N,a7*%
X86718000Y385160000D03*
%TO.N,d7*%
X89258000Y385160000D03*
%TO.N,a8*%
X86718000Y382620000D03*
%TO.N,RW*%
X89258000Y382620000D03*
%TO.N,a9*%
X86718000Y380080000D03*
%TO.N,PHI2*%
X89258000Y380080000D03*
%TO.N,a10*%
X86718000Y377540000D03*
%TO.N,RESET*%
X89258000Y377540000D03*
%TO.N,a11*%
X86718000Y375000000D03*
%TO.N,SYNC*%
X89258000Y375000000D03*
%TO.N,a12*%
X86718000Y372460000D03*
%TO.N,IRQ*%
X89258000Y372460000D03*
%TO.N,a13*%
X86718000Y369920000D03*
%TO.N,BE*%
X89258000Y369920000D03*
%TO.N,a14*%
X86718000Y367380000D03*
%TO.N,RDY*%
X89258000Y367380000D03*
%TO.N,a15*%
X86718000Y364840000D03*
%TO.N,VP*%
X89258000Y364840000D03*
%TO.N,IO0*%
X86718000Y362300000D03*
%TO.N,ML*%
X89258000Y362300000D03*
%TO.N,OE*%
X86718000Y359760000D03*
%TO.N,NMI*%
X89258000Y359760000D03*
%TO.N,+5V*%
X86718000Y357220000D03*
%TO.N,WE*%
X89258000Y357220000D03*
%TO.N,GND*%
X86718000Y354680000D03*
X89258000Y354680000D03*
%TD*%
D32*
%TO.N,GND*%
%TO.C,RV1*%
X51540000Y372459000D03*
%TO.N,Net-(U10-VO)*%
X49000000Y372459000D03*
%TO.N,Net-(JP2-B)*%
X46460000Y372459000D03*
%TD*%
D12*
%TO.N,Net-(C27-Pad1)*%
%TO.C,C28*%
X85150000Y254598000D03*
%TO.N,GND*%
X85150000Y259598000D03*
%TD*%
D10*
%TO.N,+5V*%
%TO.C,C12*%
X-44650000Y321700000D03*
D12*
%TO.N,GND*%
X-42150000Y321700000D03*
%TD*%
%TO.N,+5V*%
%TO.C,C4*%
X17296000Y324338000D03*
%TO.N,GND*%
X12296000Y324338000D03*
%TD*%
D10*
%TO.N,GND*%
%TO.C,U7*%
X-29819000Y319818000D03*
D11*
%TO.N,1pa0*%
X-29819000Y317278000D03*
%TO.N,1pa1*%
X-29819000Y314738000D03*
%TO.N,1pa2*%
X-29819000Y312198000D03*
%TO.N,1pa3*%
X-29819000Y309658000D03*
%TO.N,1pa4*%
X-29819000Y307118000D03*
%TO.N,1pa5*%
X-29819000Y304578000D03*
%TO.N,1pa6*%
X-29819000Y302038000D03*
%TO.N,1pa7*%
X-29819000Y299498000D03*
%TO.N,1pb0*%
X-29819000Y296958000D03*
%TO.N,1pb1*%
X-29819000Y294418000D03*
%TO.N,1pb2*%
X-29819000Y291878000D03*
%TO.N,1pb3*%
X-29819000Y289338000D03*
%TO.N,1pb4*%
X-29819000Y286798000D03*
%TO.N,1pb5*%
X-29819000Y284258000D03*
%TO.N,1pb6*%
X-29819000Y281718000D03*
%TO.N,1pb7*%
X-29819000Y279178000D03*
%TO.N,1CB1*%
X-29819000Y276638000D03*
%TO.N,1CB2*%
X-29819000Y274098000D03*
%TO.N,+5V*%
X-29819000Y271558000D03*
%TO.N,1VIA_IRQ*%
X-14579000Y271558000D03*
%TO.N,RW*%
X-14579000Y274098000D03*
%TO.N,VIA1_CS*%
X-14579000Y276638000D03*
%TO.N,+5V*%
X-14579000Y279178000D03*
%TO.N,PHI2*%
X-14579000Y281718000D03*
%TO.N,d7*%
X-14579000Y284258000D03*
%TO.N,d6*%
X-14579000Y286798000D03*
%TO.N,d5*%
X-14579000Y289338000D03*
%TO.N,d4*%
X-14579000Y291878000D03*
%TO.N,d3*%
X-14579000Y294418000D03*
%TO.N,d2*%
X-14579000Y296958000D03*
%TO.N,d1*%
X-14579000Y299498000D03*
%TO.N,d0*%
X-14579000Y302038000D03*
%TO.N,RESET*%
X-14579000Y304578000D03*
%TO.N,a3*%
X-14579000Y307118000D03*
%TO.N,a2*%
X-14579000Y309658000D03*
%TO.N,a1*%
X-14579000Y312198000D03*
%TO.N,a0*%
X-14579000Y314738000D03*
%TO.N,1CA2*%
X-14579000Y317278000D03*
%TO.N,1CA1*%
X-14579000Y319818000D03*
%TD*%
D12*
%TO.N,+5V*%
%TO.C,C9*%
X39500000Y305035000D03*
%TO.N,GND*%
X34500000Y305035000D03*
%TD*%
D22*
%TO.N,N/C*%
%TO.C,H1*%
X-46000000Y403000000D03*
%TD*%
D33*
%TO.N,GND*%
%TO.C,Q1*%
X-23945000Y344540000D03*
D34*
%TO.N,Net-(Q1-D)*%
X-23945000Y342000000D03*
%TO.N,+5V*%
X-23945000Y339460000D03*
%TD*%
D10*
%TO.N,Net-(U13-C1+)*%
%TO.C,C18*%
X100650000Y240316000D03*
D12*
%TO.N,Net-(U13-C1-)*%
X98150000Y240316000D03*
%TD*%
D15*
%TO.N,a0*%
%TO.C,J20*%
X136300000Y402958000D03*
D16*
%TO.N,d0*%
X138840000Y402958000D03*
%TO.N,a1*%
X136300000Y400418000D03*
%TO.N,d1*%
X138840000Y400418000D03*
%TO.N,a2*%
X136300000Y397878000D03*
%TO.N,d2*%
X138840000Y397878000D03*
%TO.N,a3*%
X136300000Y395338000D03*
%TO.N,d3*%
X138840000Y395338000D03*
%TO.N,a4*%
X136300000Y392798000D03*
%TO.N,d4*%
X138840000Y392798000D03*
%TO.N,a5*%
X136300000Y390258000D03*
%TO.N,d5*%
X138840000Y390258000D03*
%TO.N,a6*%
X136300000Y387718000D03*
%TO.N,d6*%
X138840000Y387718000D03*
%TO.N,a7*%
X136300000Y385178000D03*
%TO.N,d7*%
X138840000Y385178000D03*
%TO.N,a8*%
X136300000Y382638000D03*
%TO.N,RW*%
X138840000Y382638000D03*
%TO.N,a9*%
X136300000Y380098000D03*
%TO.N,PHI2*%
X138840000Y380098000D03*
%TO.N,a10*%
X136300000Y377558000D03*
%TO.N,RESET*%
X138840000Y377558000D03*
%TO.N,a11*%
X136300000Y375018000D03*
%TO.N,SYNC*%
X138840000Y375018000D03*
%TO.N,a12*%
X136300000Y372478000D03*
%TO.N,IRQ*%
X138840000Y372478000D03*
%TO.N,a13*%
X136300000Y369938000D03*
%TO.N,BE*%
X138840000Y369938000D03*
%TO.N,a14*%
X136300000Y367398000D03*
%TO.N,RDY*%
X138840000Y367398000D03*
%TO.N,a15*%
X136300000Y364858000D03*
%TO.N,VP*%
X138840000Y364858000D03*
%TO.N,IO3*%
X136300000Y362318000D03*
%TO.N,ML*%
X138840000Y362318000D03*
%TO.N,OE*%
X136300000Y359778000D03*
%TO.N,NMI*%
X138840000Y359778000D03*
%TO.N,+5V*%
X136300000Y357238000D03*
%TO.N,WE*%
X138840000Y357238000D03*
%TO.N,GND*%
X136300000Y354698000D03*
X138840000Y354698000D03*
%TD*%
D29*
%TO.N,*%
%TO.C,U10*%
X-39499100Y394857500D03*
X-39499100Y363856800D03*
X35499480Y363856800D03*
X35500000Y394857500D03*
D35*
%TO.N,GND*%
X-34000000Y394857500D03*
D36*
%TO.N,Net-(JP2-B)*%
X-31460000Y394857500D03*
%TO.N,Net-(U10-VO)*%
X-28920000Y394857500D03*
%TO.N,1pb4*%
X-26380000Y394857500D03*
%TO.N,1pb5*%
X-23840000Y394857500D03*
%TO.N,1pb6*%
X-21300000Y394857500D03*
%TO.N,GND*%
X-18760000Y394857500D03*
X-16220000Y394857500D03*
X-13680000Y394857500D03*
X-11140000Y394857500D03*
%TO.N,1pb0*%
X-8600000Y394857500D03*
%TO.N,1pb1*%
X-6060000Y394857500D03*
%TO.N,1pb2*%
X-3520000Y394857500D03*
%TO.N,1pb3*%
X-980000Y394857500D03*
%TO.N,+5V*%
X1560000Y394857500D03*
%TO.N,GND*%
X4100000Y394857500D03*
%TD*%
D12*
%TO.N,+5V*%
%TO.C,C24*%
X66500000Y369500000D03*
%TO.N,GND*%
X71500000Y369500000D03*
%TD*%
D10*
%TO.N,1VIA_IRQ*%
%TO.C,U1*%
X33200000Y327830000D03*
D11*
%TO.N,2VIA_IRQ*%
X33200000Y325290000D03*
%TO.N,Net-(U1-Pad3)*%
X33200000Y322750000D03*
X33200000Y320210000D03*
%TO.N,ACIA_IRQ*%
X33200000Y317670000D03*
%TO.N,IRQ*%
X33200000Y315130000D03*
%TO.N,GND*%
X33200000Y312590000D03*
%TO.N,N/C*%
X40820000Y312590000D03*
X40820000Y315130000D03*
X40820000Y317670000D03*
X40820000Y320210000D03*
X40820000Y322750000D03*
X40820000Y325290000D03*
%TO.N,+5V*%
X40820000Y327830000D03*
%TD*%
D18*
%TO.N,Net-(J6-Pad1)*%
%TO.C,SW3*%
X-37000000Y345000000D03*
D19*
%TO.N,Net-(Q1-D)*%
X-34500000Y345000000D03*
%TO.N,N/C*%
X-32000000Y345000000D03*
X-37000000Y339000000D03*
X-34500000Y339000000D03*
X-32000000Y339000000D03*
%TD*%
D12*
%TO.N,GND*%
%TO.C,R5*%
X139000000Y338312000D03*
D11*
%TO.N,1pa1*%
X128840000Y338312000D03*
%TD*%
D12*
%TO.N,GND*%
%TO.C,R4*%
X139080000Y348232000D03*
D11*
%TO.N,1pa0*%
X128920000Y348232000D03*
%TD*%
D15*
%TO.N,a0*%
%TO.C,J10*%
X120500000Y402940000D03*
D16*
%TO.N,d0*%
X123040000Y402940000D03*
%TO.N,a1*%
X120500000Y400400000D03*
%TO.N,d1*%
X123040000Y400400000D03*
%TO.N,a2*%
X120500000Y397860000D03*
%TO.N,d2*%
X123040000Y397860000D03*
%TO.N,a3*%
X120500000Y395320000D03*
%TO.N,d3*%
X123040000Y395320000D03*
%TO.N,a4*%
X120500000Y392780000D03*
%TO.N,d4*%
X123040000Y392780000D03*
%TO.N,a5*%
X120500000Y390240000D03*
%TO.N,d5*%
X123040000Y390240000D03*
%TO.N,a6*%
X120500000Y387700000D03*
%TO.N,d6*%
X123040000Y387700000D03*
%TO.N,a7*%
X120500000Y385160000D03*
%TO.N,d7*%
X123040000Y385160000D03*
%TO.N,a8*%
X120500000Y382620000D03*
%TO.N,RW*%
X123040000Y382620000D03*
%TO.N,a9*%
X120500000Y380080000D03*
%TO.N,PHI2*%
X123040000Y380080000D03*
%TO.N,a10*%
X120500000Y377540000D03*
%TO.N,RESET*%
X123040000Y377540000D03*
%TO.N,a11*%
X120500000Y375000000D03*
%TO.N,SYNC*%
X123040000Y375000000D03*
%TO.N,a12*%
X120500000Y372460000D03*
%TO.N,IRQ*%
X123040000Y372460000D03*
%TO.N,a13*%
X120500000Y369920000D03*
%TO.N,BE*%
X123040000Y369920000D03*
%TO.N,a14*%
X120500000Y367380000D03*
%TO.N,RDY*%
X123040000Y367380000D03*
%TO.N,a15*%
X120500000Y364840000D03*
%TO.N,VP*%
X123040000Y364840000D03*
%TO.N,IO2*%
X120500000Y362300000D03*
%TO.N,ML*%
X123040000Y362300000D03*
%TO.N,OE*%
X120500000Y359760000D03*
%TO.N,NMI*%
X123040000Y359760000D03*
%TO.N,+5V*%
X120500000Y357220000D03*
%TO.N,WE*%
X123040000Y357220000D03*
%TO.N,GND*%
X120500000Y354680000D03*
X123040000Y354680000D03*
%TD*%
D15*
%TO.N,PHI2*%
%TO.C,JP1*%
X61960000Y356310000D03*
D16*
%TO.N,Net-(JP1-B)*%
X64500000Y356310000D03*
%TD*%
D37*
%TO.N,NMI*%
X66057300Y335262000D03*
%TO.N,AUDIO_OUT_LEFT*%
X67447100Y262538000D03*
%TO.N,a0*%
X86793900Y303713000D03*
%TO.N,a1*%
X88069800Y295934000D03*
X109969000Y285675000D03*
%TO.N,d1*%
X102022000Y401075000D03*
%TO.N,a2*%
X89310300Y301920000D03*
X75329300Y301847000D03*
%TO.N,a3*%
X66755500Y287675000D03*
%TO.N,d3*%
X97623000Y273104000D03*
%TO.N,d4*%
X93545800Y273715000D03*
%TO.N,a5*%
X86307400Y353062000D03*
%TO.N,d5*%
X107908000Y290651000D03*
%TO.N,a6*%
X76881300Y292850000D03*
%TO.N,d6*%
X62218900Y249956000D03*
X91893200Y277356000D03*
%TO.N,a7*%
X80401200Y300327000D03*
%TO.N,d7*%
X84890800Y281373000D03*
%TO.N,a8*%
X109721000Y286916000D03*
X133832000Y302693000D03*
%TO.N,RW*%
X37407000Y302554000D03*
%TO.N,a9*%
X41730800Y278208000D03*
X108215000Y294581000D03*
%TO.N,a10*%
X106631000Y287655000D03*
%TO.N,RESET*%
X24616600Y330710000D03*
X59593900Y239075000D03*
%TO.N,a11*%
X108330000Y291747000D03*
%TO.N,SYNC*%
X74662900Y365033000D03*
%TO.N,a12*%
X46013400Y275476000D03*
%TO.N,IRQ*%
X73184900Y322378000D03*
%TO.N,a13*%
X98881200Y298375000D03*
X78204000Y282866000D03*
%TO.N,a14*%
X44987700Y279383000D03*
%TO.N,RDY*%
X69607700Y347949000D03*
%TO.N,a15*%
X57275400Y338910000D03*
X80807400Y349011000D03*
%TO.N,VP*%
X73908300Y355860000D03*
%TO.N,IO0*%
X73375700Y353991000D03*
%TO.N,ML*%
X90824900Y355150000D03*
X87323400Y321105000D03*
X119033000Y360951000D03*
%TO.N,OE*%
X64660200Y273802000D03*
X76864800Y283729000D03*
%TO.N,WE*%
X58212800Y293159000D03*
%TO.N,IO3*%
X135251000Y352925000D03*
X73613200Y328767000D03*
%TO.N,1pa1*%
X97495300Y325018000D03*
%TO.N,1VIA_IRQ*%
X3192000Y282938000D03*
%TO.N,ACIA_CS*%
X87020300Y349104000D03*
%TO.N,DEVICE_CS*%
X58594600Y337887000D03*
%TO.N,ROM_CS*%
X65387200Y277075000D03*
X90722400Y269758000D03*
%TO.N,RAM_CS*%
X81136500Y280269000D03*
X85900000Y282032000D03*
%TO.N,BANKED_RAM_CS*%
X56667100Y329351000D03*
%TD*%
D38*
%TO.N,GND*%
X6373100Y244000000D02*
X6091400Y244281700D01*
X115603100Y234964200D02*
X114096900Y233458000D01*
X129088500Y235303000D02*
X128525000Y235303000D01*
X-7933100Y350850000D02*
X6674000Y350850000D01*
X142500000Y217000000D02*
X141911600Y217000000D01*
X109235300Y241332000D02*
X115603100Y234964200D01*
X71500000Y369500000D02*
X75966000Y365034000D01*
X129088500Y235303000D02*
X129651900Y235303000D01*
X141000000Y295073100D02*
X140705500Y295073100D01*
X-13810000Y355500000D02*
X-12583100Y355500000D01*
X-19920000Y355156000D02*
X-18693100Y355156000D01*
X80871000Y232098000D02*
X72081900Y232098000D01*
X-43018200Y340264900D02*
X-33250000Y340264900D01*
X33200000Y333500000D02*
X33905000Y333500000D01*
X82025000Y230478000D02*
X80871000Y231632000D01*
X100288600Y217000000D02*
X129800000Y217000000D01*
X139000000Y338312000D02*
X139000000Y333500000D01*
X78000000Y364261100D02*
X86404200Y355856900D01*
X139080000Y348232000D02*
X139080000Y343406000D01*
X83200000Y264489900D02*
X85150000Y262539900D01*
X141911600Y217000000D02*
X141323100Y217000000D01*
X58350000Y329150000D02*
X64850000Y329150000D01*
X-43500000Y301469000D02*
X-43500000Y307000000D01*
X9523100Y351373100D02*
X13064000Y354914000D01*
X133516900Y216632200D02*
X134326000Y215823100D01*
X106650000Y244598000D02*
X106650000Y241332000D01*
X113150000Y253360500D02*
X113150000Y251098000D01*
X141323100Y216632100D02*
X141323100Y217000000D01*
X96260000Y272340000D02*
X96260000Y272777500D01*
X70043000Y331229900D02*
X74407500Y326865300D01*
X2083000Y396491100D02*
X-9187900Y396491100D01*
X100086600Y217202000D02*
X99523100Y217202000D01*
X-11625000Y258125000D02*
X-10498100Y258125000D01*
X10215800Y317877100D02*
X9088900Y319004000D01*
X101232800Y355879300D02*
X102432100Y354680000D01*
X33200000Y312026600D02*
X33200000Y311463100D01*
X20500000Y332542000D02*
X20500000Y333500000D01*
X80725000Y210098000D02*
X81851900Y210098000D01*
X100700000Y324056600D02*
X104085200Y327441800D01*
X-25611900Y325152000D02*
X-30945900Y319818000D01*
X83200000Y264489900D02*
X83200000Y270133100D01*
X129457900Y256749900D02*
X133650000Y260942000D01*
X-19986900Y395701000D02*
X-20777000Y396491100D01*
X78000000Y365034000D02*
X78000000Y364261100D01*
X140705500Y295073100D02*
X127254600Y281622200D01*
X-11140000Y394857500D02*
X-13680000Y394857500D01*
X127254600Y280613800D02*
X126027700Y279386900D01*
X9523100Y350850000D02*
X6674000Y350850000D01*
X104686500Y232321300D02*
X110706400Y232321300D01*
X106905400Y334780000D02*
X107193100Y334780000D01*
X99523100Y216920300D02*
X99523100Y217202000D01*
X34326900Y272035000D02*
X42998900Y263363000D01*
X137271900Y227683000D02*
X129651900Y235303000D01*
X7500000Y244000000D02*
X6373100Y244000000D01*
X3737200Y394857500D02*
X2873100Y394857500D01*
X44398100Y258125000D02*
X43118100Y256845000D01*
X107193100Y335343400D02*
X105216500Y337320000D01*
X33200000Y311463100D02*
X34500000Y310163100D01*
X-32052500Y256067500D02*
X-32052500Y257852500D01*
X81469000Y232696000D02*
X98174900Y232696000D01*
X-11625000Y258125000D02*
X-11625000Y259251900D01*
X27000000Y256741700D02*
X14258300Y244000000D01*
X67963100Y329150000D02*
X70043000Y331229900D01*
X108320000Y327160000D02*
X104366900Y327160000D01*
X27000000Y256845000D02*
X27000000Y256741700D01*
X-9187900Y396491100D02*
X-9913100Y395765900D01*
X38205000Y329200000D02*
X34500000Y332905000D01*
X2873100Y394857500D02*
X2873100Y395701000D01*
X-46260300Y219872500D02*
X-46260300Y231474000D01*
X136300000Y354698000D02*
X135123100Y354698000D01*
X93827700Y211224900D02*
X99523100Y216920300D01*
X7500000Y243436600D02*
X7500000Y244000000D01*
X-40238100Y237496200D02*
X-40238100Y247881900D01*
X-23945000Y344540000D02*
X-23945000Y345819400D01*
X-33250000Y332790100D02*
X-33250000Y340264900D01*
X135152500Y326745000D02*
X139000000Y330592500D01*
X115412500Y255623000D02*
X113150000Y253360500D01*
X100700000Y324620000D02*
X100700000Y324056600D01*
X143765000Y225143000D02*
X143765000Y227683000D01*
X-23945000Y345819400D02*
X-15036900Y354727500D01*
X3737200Y394857500D02*
X5668700Y392926000D01*
X27349500Y317877100D02*
X10215800Y317877100D01*
X125760000Y278863500D02*
X125760000Y279386900D01*
X101825400Y329700000D02*
X101826900Y329700000D01*
X71700000Y331760000D02*
X70573100Y331760000D01*
X123040000Y354680000D02*
X135105100Y354680000D01*
X106149000Y354680000D02*
X103609000Y354680000D01*
X138840000Y354698000D02*
X136300000Y354698000D01*
X141911600Y222396200D02*
X143531500Y224016100D01*
X134326000Y215823100D02*
X140514100Y215823100D01*
X-18760000Y394857500D02*
X-19986900Y394857500D01*
X80871000Y231632000D02*
X80871000Y232098000D01*
X37289700Y356100300D02*
X39500000Y353890000D01*
X139000000Y338312000D02*
X139080000Y338392000D01*
X70955000Y236651100D02*
X70955000Y232098000D01*
X100700000Y329700000D02*
X101713500Y329700000D01*
X70043000Y331229900D02*
X70573100Y331760000D01*
X112970000Y233458000D02*
X111843100Y233458000D01*
X113150000Y253360500D02*
X91387500Y253360500D01*
X74407500Y326865300D02*
X76369700Y326865300D01*
X39500000Y348373400D02*
X33433500Y342306900D01*
X108320000Y339860000D02*
X108320000Y340423500D01*
X76369700Y326865300D02*
X78085000Y325150000D01*
X128525000Y235303000D02*
X115941900Y235303000D01*
X96884500Y273466900D02*
X96260000Y273466900D01*
X143765000Y227683000D02*
X137271900Y227683000D01*
X108320000Y340423500D02*
X108320000Y340986900D01*
X33905000Y333500000D02*
X34500000Y332905000D01*
X57756200Y328556200D02*
X54843800Y328556200D01*
X64795000Y242811100D02*
X70955000Y236651100D01*
X120500000Y354680000D02*
X106149000Y354680000D01*
X86718000Y354680000D02*
X89258000Y354680000D01*
X-42500000Y285300000D02*
X-41363100Y286436900D01*
X33200000Y340053100D02*
X33200000Y333500000D01*
X98174900Y232696000D02*
X99301800Y233822900D01*
X100700000Y323774900D02*
X100700000Y323493100D01*
X64850000Y329150000D02*
X67963100Y329150000D01*
X99567600Y276150000D02*
X96884500Y273466900D01*
X9088900Y321130900D02*
X12296000Y324338000D01*
X-32052500Y257852500D02*
X-13024400Y257852500D01*
X101385000Y316208000D02*
X101385000Y322808100D01*
X115941900Y235303000D02*
X115603100Y234964200D01*
X129800000Y217000000D02*
X132340000Y217000000D01*
X138840000Y354698000D02*
X138840000Y348472000D01*
X102000000Y347056300D02*
X108069400Y340986900D01*
X108069400Y340986900D02*
X108320000Y340986900D01*
X-14423400Y355500000D02*
X-13810000Y355500000D01*
X50650000Y263363000D02*
X51776900Y264489900D01*
X7962000Y319004000D02*
X9088900Y319004000D01*
X143531500Y224016100D02*
X143765000Y224016100D01*
X-11625000Y258125000D02*
X-12751900Y258125000D01*
X33433500Y342306900D02*
X33200000Y342306900D01*
X102000000Y354247900D02*
X102000000Y347480000D01*
X132340000Y217000000D02*
X133516900Y217000000D01*
X108320000Y334780000D02*
X107193100Y334780000D01*
X-24694000Y325152000D02*
X-25611900Y325152000D01*
X-31983000Y396491100D02*
X-32773100Y395701000D01*
X-20777000Y396491100D02*
X-31983000Y396491100D01*
X-10748100Y259251900D02*
X-11625000Y259251900D01*
X103184900Y233822900D02*
X104686500Y232321300D01*
X112970000Y233458000D02*
X114096900Y233458000D01*
X133516900Y217000000D02*
X133516900Y216632200D01*
X-19986900Y394857500D02*
X-19986900Y395701000D01*
X-44500000Y339960000D02*
X-43323100Y339960000D01*
X106650000Y241332000D02*
X109235300Y241332000D01*
X143765000Y225143000D02*
X143765000Y224016100D01*
X96260000Y272777500D02*
X94742500Y271260000D01*
X65120000Y342500000D02*
X70573100Y337046900D01*
X33200000Y341180000D02*
X33200000Y340053100D01*
X102000000Y347480000D02*
X102000000Y347056300D01*
X58350000Y329150000D02*
X57756200Y328556200D01*
X141911600Y217000000D02*
X141911600Y222396200D01*
X64795000Y243938000D02*
X64795000Y242811100D01*
X2873100Y395701000D02*
X2083000Y396491100D01*
X39500000Y353890000D02*
X39500000Y348373400D01*
X141000000Y296120000D02*
X141000000Y295073100D01*
X-41349300Y269450700D02*
X-42500000Y268300000D01*
X127254600Y281622200D02*
X127254600Y280613800D01*
X65702000Y372459000D02*
X68541000Y372459000D01*
X7500000Y243436600D02*
X7500000Y242873100D01*
X-10526500Y394857500D02*
X-9913100Y394857500D01*
X58500000Y327812400D02*
X57756200Y328556200D01*
X58500000Y320000000D02*
X58500000Y327812400D01*
X13064000Y354914000D02*
X14250300Y356100300D01*
X13171000Y237202100D02*
X13171000Y231135000D01*
X-32827900Y321700000D02*
X-30945900Y319818000D01*
X90457300Y355879300D02*
X101232800Y355879300D01*
X113150000Y251098000D02*
X106650000Y244598000D01*
X33200000Y341180000D02*
X33200000Y342306900D01*
X-43323100Y339960000D02*
X-43018200Y340264900D01*
X103609000Y354680000D02*
X102432100Y354680000D01*
X-10498100Y257843300D02*
X-10498100Y258125000D01*
X104085200Y327441800D02*
X101826900Y329700000D01*
X70573100Y337046900D02*
X70573100Y331760000D01*
X138840000Y348472000D02*
X139080000Y348232000D01*
X-38580000Y249540000D02*
X-32052500Y256067500D01*
X3063500Y244281700D02*
X-10498100Y257843300D01*
X120500000Y354680000D02*
X123040000Y354680000D01*
X-43500000Y307000000D02*
X-43500000Y307263900D01*
X79460100Y323774900D02*
X78085000Y325150000D01*
X140514100Y215823100D02*
X141323100Y216632100D01*
X-28974900Y344540000D02*
X-23945000Y344540000D01*
X100700000Y323774900D02*
X79460100Y323774900D01*
X101825400Y329700000D02*
X106905400Y334780000D01*
X33200000Y312026600D02*
X27349500Y317877100D01*
X9088900Y319004000D02*
X9088900Y321130900D01*
X45525000Y258125000D02*
X44398100Y258125000D01*
X107193100Y334780000D02*
X107193100Y335343400D01*
X-46260300Y231474000D02*
X-40238100Y237496200D01*
X54843800Y328556200D02*
X54200000Y329200000D01*
X-42150000Y321700000D02*
X-32827900Y321700000D01*
X100086600Y217202000D02*
X100288600Y217000000D01*
X12296000Y324338000D02*
X20500000Y332542000D01*
X123046500Y276150000D02*
X99567600Y276150000D01*
X85150000Y262539900D02*
X85150000Y259598000D01*
X96260000Y272777500D02*
X96260000Y273466900D01*
X-29819000Y319818000D02*
X-30945900Y319818000D01*
X33200000Y272035000D02*
X34326900Y272035000D01*
X-41363100Y286436900D02*
X-41363100Y299332100D01*
X99301800Y233822900D02*
X103184900Y233822900D01*
X110706400Y232321300D02*
X111843100Y233458000D01*
X-33250000Y340264900D02*
X-28974900Y344540000D01*
X128525000Y255623000D02*
X128525000Y256749900D01*
X83200000Y271260000D02*
X83200000Y270133100D01*
X54200000Y329200000D02*
X47700000Y329200000D01*
X-10526500Y394857500D02*
X-11140000Y394857500D01*
X139080000Y338392000D02*
X139080000Y343406000D01*
X45525000Y263363000D02*
X45525000Y258125000D01*
X10573100Y349800000D02*
X9523100Y350850000D01*
X105216500Y337320000D02*
X100700000Y337320000D01*
X94742500Y271260000D02*
X83200000Y271260000D01*
X126027700Y279386900D02*
X125760000Y279386900D01*
X45525000Y263363000D02*
X50650000Y263363000D01*
X-34000000Y394857500D02*
X-32773100Y394857500D01*
X-14423400Y355500000D02*
X-15036900Y355500000D01*
X128525000Y256749900D02*
X129457900Y256749900D01*
X42998900Y263363000D02*
X45525000Y263363000D01*
X4100000Y394857500D02*
X3737200Y394857500D01*
X65702000Y389500000D02*
X65702000Y372459000D01*
X-42500000Y285300000D02*
X-41349300Y284149300D01*
X75966000Y365034000D02*
X78000000Y365034000D01*
X-13680000Y394857500D02*
X-16220000Y394857500D01*
X86404200Y355856900D02*
X86718000Y355856900D01*
X5668700Y392926000D02*
X62276000Y392926000D01*
X125760000Y278863500D02*
X123046500Y276150000D01*
X128525000Y255623000D02*
X115412500Y255623000D01*
X62276000Y392926000D02*
X65702000Y389500000D01*
X-41349300Y284149300D02*
X-41349300Y269450700D01*
X100650000Y217202000D02*
X100086600Y217202000D01*
X-40238100Y247881900D02*
X-38580000Y249540000D01*
X-18349100Y355500000D02*
X-18693100Y355156000D01*
X-16220000Y394857500D02*
X-18760000Y394857500D01*
X-42500000Y268300000D02*
X-32052500Y257852500D01*
X33200000Y312590000D02*
X33200000Y312026600D01*
X47700000Y329200000D02*
X38205000Y329200000D01*
X101385000Y322808100D02*
X100700000Y323493100D01*
X80871000Y232098000D02*
X81469000Y232696000D01*
X81851900Y210098000D02*
X82978800Y211224900D01*
X-13024400Y257852500D02*
X-12751900Y258125000D01*
X89258000Y354680000D02*
X90457300Y355879300D01*
X135105100Y354680000D02*
X135123100Y354698000D01*
X139000000Y330592500D02*
X139000000Y333500000D01*
X-15036900Y354727500D02*
X-15036900Y355500000D01*
X-15036900Y355500000D02*
X-18349100Y355500000D01*
X51540000Y372459000D02*
X65702000Y372459000D01*
X-12583100Y355500000D02*
X-7933100Y350850000D01*
X125760000Y278340000D02*
X125760000Y278863500D01*
X86718000Y354680000D02*
X86718000Y355856900D01*
X43118100Y256845000D02*
X27000000Y256845000D01*
X101713500Y329700000D02*
X101825400Y329700000D01*
X82978800Y211224900D02*
X93827700Y211224900D01*
X-43500000Y307263900D02*
X-30945900Y319818000D01*
X108320000Y340423500D02*
X105216500Y337320000D01*
X-32773100Y395701000D02*
X-32773100Y394857500D01*
X70955000Y232098000D02*
X72081900Y232098000D01*
X14250300Y356100300D02*
X37289700Y356100300D01*
X65702000Y389500000D02*
X67415000Y389500000D01*
X11700000Y349800000D02*
X10573100Y349800000D01*
X-6500000Y263500000D02*
X-10748100Y259251900D01*
X91387500Y253360500D02*
X85150000Y259598000D01*
X51776900Y264489900D02*
X83200000Y264489900D01*
X-9913100Y395765900D02*
X-9913100Y394857500D01*
X104366900Y327160000D02*
X104085200Y327441800D01*
X34500000Y310163100D02*
X34500000Y305035000D01*
X6091400Y244281700D02*
X3063500Y244281700D01*
X100700000Y324056600D02*
X100700000Y323774900D01*
X14258300Y244000000D02*
X7500000Y244000000D01*
X102432100Y354680000D02*
X102000000Y354247900D01*
X20500000Y333500000D02*
X33200000Y333500000D01*
X-41363100Y299332100D02*
X-43500000Y301469000D01*
X7500000Y242873100D02*
X13171000Y237202100D01*
X9523100Y350850000D02*
X9523100Y351373100D01*
X68541000Y372459000D02*
X71500000Y369500000D01*
X-25611900Y325152000D02*
X-33250000Y332790100D01*
%TD*%
M02*
