%TF.GenerationSoftware,KiCad,Pcbnew,7.0.5*%
%TF.CreationDate,2023-07-25T18:53:58-05:00*%
%TF.ProjectId,6502v2.0,36353032-7632-42e3-902e-6b696361645f,rev?*%
%TF.SameCoordinates,Original*%
%TF.FileFunction,Soldermask,Top*%
%TF.FilePolarity,Negative*%
%FSLAX46Y46*%
G04 Gerber Fmt 4.6, Leading zero omitted, Abs format (unit mm)*
G04 Created by KiCad (PCBNEW 7.0.5) date 2023-07-25 18:53:58*
%MOMM*%
%LPD*%
G01*
G04 APERTURE LIST*
G04 Aperture macros list*
%AMRoundRect*
0 Rectangle with rounded corners*
0 $1 Rounding radius*
0 $2 $3 $4 $5 $6 $7 $8 $9 X,Y pos of 4 corners*
0 Add a 4 corners polygon primitive as box body*
4,1,4,$2,$3,$4,$5,$6,$7,$8,$9,$2,$3,0*
0 Add four circle primitives for the rounded corners*
1,1,$1+$1,$2,$3*
1,1,$1+$1,$4,$5*
1,1,$1+$1,$6,$7*
1,1,$1+$1,$8,$9*
0 Add four rect primitives between the rounded corners*
20,1,$1+$1,$2,$3,$4,$5,0*
20,1,$1+$1,$4,$5,$6,$7,0*
20,1,$1+$1,$6,$7,$8,$9,0*
20,1,$1+$1,$8,$9,$2,$3,0*%
G04 Aperture macros list end*
%ADD10C,5.000000*%
%ADD11C,1.600000*%
%ADD12R,1.600000X1.600000*%
%ADD13O,1.600000X1.600000*%
%ADD14O,1.501140X4.000500*%
%ADD15R,2.000000X1.440000*%
%ADD16O,2.000000X1.440000*%
%ADD17C,1.800000*%
%ADD18R,1.800000X1.800000*%
%ADD19C,2.000000*%
%ADD20C,1.440000*%
%ADD21R,1.905000X2.000000*%
%ADD22O,1.905000X2.000000*%
%ADD23O,1.700000X1.700000*%
%ADD24R,1.700000X1.700000*%
%ADD25C,3.000000*%
%ADD26C,2.500000*%
%ADD27C,2.700000*%
%ADD28C,4.000000*%
%ADD29O,3.500000X2.000000*%
%ADD30O,2.000000X4.000000*%
%ADD31RoundRect,0.875000X-0.875000X-0.875000X0.875000X-0.875000X0.875000X0.875000X-0.875000X0.875000X0*%
%ADD32RoundRect,0.750000X-0.750000X-1.000000X0.750000X-1.000000X0.750000X1.000000X-0.750000X1.000000X0*%
%ADD33R,3.500000X3.500000*%
G04 APERTURE END LIST*
D10*
%TO.C,REF4*%
X238760000Y-209296000D03*
%TD*%
%TO.C,REF3*%
X30988000Y-209296000D03*
%TD*%
%TO.C,REF2*%
X238760000Y-39624000D03*
%TD*%
%TO.C,REF1*%
X30988000Y-39624000D03*
%TD*%
D11*
%TO.C,X2*%
X219456000Y-166878000D03*
X234696000Y-166878000D03*
X234696000Y-174498000D03*
D12*
X219456000Y-174498000D03*
%TD*%
%TO.C,X1*%
X89916000Y-185166000D03*
D11*
X105156000Y-185166000D03*
X105156000Y-177546000D03*
X89916000Y-177546000D03*
%TD*%
D12*
%TO.C,U16*%
X156972000Y-157480000D03*
D13*
X156972000Y-160020000D03*
X156972000Y-162560000D03*
X156972000Y-165100000D03*
X156972000Y-167640000D03*
X156972000Y-170180000D03*
X156972000Y-172720000D03*
X156972000Y-175260000D03*
X156972000Y-177800000D03*
X156972000Y-180340000D03*
X156972000Y-182880000D03*
X156972000Y-185420000D03*
X156972000Y-187960000D03*
X156972000Y-190500000D03*
X156972000Y-193040000D03*
X156972000Y-195580000D03*
X156972000Y-198120000D03*
X156972000Y-200660000D03*
X156972000Y-203200000D03*
X156972000Y-205740000D03*
X172212000Y-205740000D03*
X172212000Y-203200000D03*
X172212000Y-200660000D03*
X172212000Y-198120000D03*
X172212000Y-195580000D03*
X172212000Y-193040000D03*
X172212000Y-190500000D03*
X172212000Y-187960000D03*
X172212000Y-185420000D03*
X172212000Y-182880000D03*
X172212000Y-180340000D03*
X172212000Y-177800000D03*
X172212000Y-175260000D03*
X172212000Y-172720000D03*
X172212000Y-170180000D03*
X172212000Y-167640000D03*
X172212000Y-165100000D03*
X172212000Y-162560000D03*
X172212000Y-160020000D03*
X172212000Y-157480000D03*
%TD*%
D12*
%TO.C,U15*%
X130556000Y-157480000D03*
D13*
X130556000Y-160020000D03*
X130556000Y-162560000D03*
X130556000Y-165100000D03*
X130556000Y-167640000D03*
X130556000Y-170180000D03*
X130556000Y-172720000D03*
X130556000Y-175260000D03*
X130556000Y-177800000D03*
X130556000Y-180340000D03*
X130556000Y-182880000D03*
X130556000Y-185420000D03*
X130556000Y-187960000D03*
X130556000Y-190500000D03*
X130556000Y-193040000D03*
X130556000Y-195580000D03*
X130556000Y-198120000D03*
X130556000Y-200660000D03*
X130556000Y-203200000D03*
X130556000Y-205740000D03*
X145796000Y-205740000D03*
X145796000Y-203200000D03*
X145796000Y-200660000D03*
X145796000Y-198120000D03*
X145796000Y-195580000D03*
X145796000Y-193040000D03*
X145796000Y-190500000D03*
X145796000Y-187960000D03*
X145796000Y-185420000D03*
X145796000Y-182880000D03*
X145796000Y-180340000D03*
X145796000Y-177800000D03*
X145796000Y-175260000D03*
X145796000Y-172720000D03*
X145796000Y-170180000D03*
X145796000Y-167640000D03*
X145796000Y-165100000D03*
X145796000Y-162560000D03*
X145796000Y-160020000D03*
X145796000Y-157480000D03*
%TD*%
%TO.C,U14*%
X124460000Y-110993000D03*
X124460000Y-113533000D03*
X124460000Y-116073000D03*
X124460000Y-118613000D03*
X124460000Y-121153000D03*
X124460000Y-123693000D03*
X124460000Y-126233000D03*
X116840000Y-126233000D03*
X116840000Y-123693000D03*
X116840000Y-121153000D03*
X116840000Y-118613000D03*
X116840000Y-116073000D03*
X116840000Y-113533000D03*
D12*
X116840000Y-110993000D03*
%TD*%
%TO.C,U13*%
X223276000Y-187188000D03*
D13*
X223276000Y-189728000D03*
X223276000Y-192268000D03*
X223276000Y-194808000D03*
X223276000Y-197348000D03*
X223276000Y-199888000D03*
X223276000Y-202428000D03*
X223276000Y-204968000D03*
X230896000Y-204968000D03*
X230896000Y-202428000D03*
X230896000Y-199888000D03*
X230896000Y-197348000D03*
X230896000Y-194808000D03*
X230896000Y-192268000D03*
X230896000Y-189728000D03*
X230896000Y-187188000D03*
%TD*%
D12*
%TO.C,U12*%
X187452000Y-169911000D03*
D13*
X187452000Y-172451000D03*
X187452000Y-174991000D03*
X187452000Y-177531000D03*
X187452000Y-180071000D03*
X187452000Y-182611000D03*
X187452000Y-185151000D03*
X187452000Y-187691000D03*
X187452000Y-190231000D03*
X187452000Y-192771000D03*
X187452000Y-195311000D03*
X187452000Y-197851000D03*
X187452000Y-200391000D03*
X187452000Y-202931000D03*
X202692000Y-202931000D03*
X202692000Y-200391000D03*
X202692000Y-197851000D03*
X202692000Y-195311000D03*
X202692000Y-192771000D03*
X202692000Y-190231000D03*
X202692000Y-187691000D03*
X202692000Y-185151000D03*
X202692000Y-182611000D03*
X202692000Y-180071000D03*
X202692000Y-177531000D03*
X202692000Y-174991000D03*
X202692000Y-172451000D03*
X202692000Y-169911000D03*
%TD*%
%TO.C,U11*%
X72644000Y-151384000D03*
X72644000Y-153924000D03*
X72644000Y-156464000D03*
X72644000Y-159004000D03*
X65024000Y-159004000D03*
X65024000Y-156464000D03*
X65024000Y-153924000D03*
D12*
X65024000Y-151384000D03*
%TD*%
D14*
%TO.C,U10*%
X171174440Y-49207420D03*
X173714440Y-49207420D03*
X176254440Y-49207420D03*
X178794440Y-49207420D03*
X181334440Y-49207420D03*
X183874440Y-49207420D03*
X186414440Y-49207420D03*
X188954440Y-49207420D03*
X191494440Y-49207420D03*
X194034440Y-49207420D03*
X196574440Y-49207420D03*
X199114440Y-49207420D03*
X201654440Y-49207420D03*
X204194440Y-49207420D03*
X206734440Y-49207420D03*
X209274440Y-49207420D03*
%TD*%
D12*
%TO.C,U9*%
X131064000Y-50800000D03*
D13*
X131064000Y-53340000D03*
X131064000Y-55880000D03*
X131064000Y-58420000D03*
X131064000Y-60960000D03*
X131064000Y-63500000D03*
X131064000Y-66040000D03*
X131064000Y-68580000D03*
X131064000Y-71120000D03*
X131064000Y-73660000D03*
X131064000Y-76200000D03*
X131064000Y-78740000D03*
X131064000Y-81280000D03*
X131064000Y-83820000D03*
X131064000Y-86360000D03*
X131064000Y-88900000D03*
X131064000Y-91440000D03*
X131064000Y-93980000D03*
X131064000Y-96520000D03*
X131064000Y-99060000D03*
X146304000Y-99060000D03*
X146304000Y-96520000D03*
X146304000Y-93980000D03*
X146304000Y-91440000D03*
X146304000Y-88900000D03*
X146304000Y-86360000D03*
X146304000Y-83820000D03*
X146304000Y-81280000D03*
X146304000Y-78740000D03*
X146304000Y-76200000D03*
X146304000Y-73660000D03*
X146304000Y-71120000D03*
X146304000Y-68580000D03*
X146304000Y-66040000D03*
X146304000Y-63500000D03*
X146304000Y-60960000D03*
X146304000Y-58420000D03*
X146304000Y-55880000D03*
X146304000Y-53340000D03*
X146304000Y-50800000D03*
%TD*%
D12*
%TO.C,U8*%
X188976000Y-111252000D03*
D13*
X188976000Y-113792000D03*
X188976000Y-116332000D03*
X188976000Y-118872000D03*
X188976000Y-121412000D03*
X188976000Y-123952000D03*
X188976000Y-126492000D03*
X188976000Y-129032000D03*
X188976000Y-131572000D03*
X188976000Y-134112000D03*
X188976000Y-136652000D03*
X188976000Y-139192000D03*
X188976000Y-141732000D03*
X188976000Y-144272000D03*
X188976000Y-146812000D03*
X188976000Y-149352000D03*
X204216000Y-149352000D03*
X204216000Y-146812000D03*
X204216000Y-144272000D03*
X204216000Y-141732000D03*
X204216000Y-139192000D03*
X204216000Y-136652000D03*
X204216000Y-134112000D03*
X204216000Y-131572000D03*
X204216000Y-129032000D03*
X204216000Y-126492000D03*
X204216000Y-123952000D03*
X204216000Y-121412000D03*
X204216000Y-118872000D03*
X204216000Y-116332000D03*
X204216000Y-113792000D03*
X204216000Y-111252000D03*
%TD*%
D12*
%TO.C,U7*%
X104140000Y-50800000D03*
D13*
X104140000Y-53340000D03*
X104140000Y-55880000D03*
X104140000Y-58420000D03*
X104140000Y-60960000D03*
X104140000Y-63500000D03*
X104140000Y-66040000D03*
X104140000Y-68580000D03*
X104140000Y-71120000D03*
X104140000Y-73660000D03*
X104140000Y-76200000D03*
X104140000Y-78740000D03*
X104140000Y-81280000D03*
X104140000Y-83820000D03*
X104140000Y-86360000D03*
X104140000Y-88900000D03*
X104140000Y-91440000D03*
X104140000Y-93980000D03*
X104140000Y-96520000D03*
X104140000Y-99060000D03*
X119380000Y-99060000D03*
X119380000Y-96520000D03*
X119380000Y-93980000D03*
X119380000Y-91440000D03*
X119380000Y-88900000D03*
X119380000Y-86360000D03*
X119380000Y-83820000D03*
X119380000Y-81280000D03*
X119380000Y-78740000D03*
X119380000Y-76200000D03*
X119380000Y-73660000D03*
X119380000Y-71120000D03*
X119380000Y-68580000D03*
X119380000Y-66040000D03*
X119380000Y-63500000D03*
X119380000Y-60960000D03*
X119380000Y-58420000D03*
X119380000Y-55880000D03*
X119380000Y-53340000D03*
X119380000Y-50800000D03*
%TD*%
D12*
%TO.C,U6*%
X167396000Y-111252000D03*
D13*
X167396000Y-113792000D03*
X167396000Y-116332000D03*
X167396000Y-118872000D03*
X167396000Y-121412000D03*
X167396000Y-123952000D03*
X167396000Y-126492000D03*
X167396000Y-129032000D03*
X175016000Y-129032000D03*
X175016000Y-126492000D03*
X175016000Y-123952000D03*
X175016000Y-121412000D03*
X175016000Y-118872000D03*
X175016000Y-116332000D03*
X175016000Y-113792000D03*
X175016000Y-111252000D03*
%TD*%
D12*
%TO.C,U5*%
X89408000Y-110744000D03*
D13*
X89408000Y-113284000D03*
X89408000Y-115824000D03*
X89408000Y-118364000D03*
X89408000Y-120904000D03*
X89408000Y-123444000D03*
X89408000Y-125984000D03*
X89408000Y-128524000D03*
X89408000Y-131064000D03*
X89408000Y-133604000D03*
X89408000Y-136144000D03*
X89408000Y-138684000D03*
X89408000Y-141224000D03*
X89408000Y-143764000D03*
X89408000Y-146304000D03*
X89408000Y-148844000D03*
X89408000Y-151384000D03*
X89408000Y-153924000D03*
X89408000Y-156464000D03*
X89408000Y-159004000D03*
X104648000Y-159004000D03*
X104648000Y-156464000D03*
X104648000Y-153924000D03*
X104648000Y-151384000D03*
X104648000Y-148844000D03*
X104648000Y-146304000D03*
X104648000Y-143764000D03*
X104648000Y-141224000D03*
X104648000Y-138684000D03*
X104648000Y-136144000D03*
X104648000Y-133604000D03*
X104648000Y-131064000D03*
X104648000Y-128524000D03*
X104648000Y-125984000D03*
X104648000Y-123444000D03*
X104648000Y-120904000D03*
X104648000Y-118364000D03*
X104648000Y-115824000D03*
X104648000Y-113284000D03*
X104648000Y-110744000D03*
%TD*%
D12*
%TO.C,U4*%
X135392000Y-110993000D03*
D13*
X135392000Y-113533000D03*
X135392000Y-116073000D03*
X135392000Y-118613000D03*
X135392000Y-121153000D03*
X135392000Y-123693000D03*
X135392000Y-126233000D03*
X135392000Y-128773000D03*
X135392000Y-131313000D03*
X135392000Y-133853000D03*
X135392000Y-136393000D03*
X135392000Y-138933000D03*
X143012000Y-138933000D03*
X143012000Y-136393000D03*
X143012000Y-133853000D03*
X143012000Y-131313000D03*
X143012000Y-128773000D03*
X143012000Y-126233000D03*
X143012000Y-123693000D03*
X143012000Y-121153000D03*
X143012000Y-118613000D03*
X143012000Y-116073000D03*
X143012000Y-113533000D03*
X143012000Y-110993000D03*
%TD*%
D15*
%TO.C,U3*%
X219456000Y-120542000D03*
D16*
X219456000Y-123082000D03*
X219456000Y-125622000D03*
X219456000Y-128162000D03*
X219456000Y-130702000D03*
X219456000Y-133242000D03*
X219456000Y-135782000D03*
X219456000Y-138322000D03*
X219456000Y-140862000D03*
X219456000Y-143402000D03*
X219456000Y-145942000D03*
X219456000Y-148482000D03*
X219456000Y-151022000D03*
X219456000Y-153562000D03*
X234696000Y-153562000D03*
X234696000Y-151022000D03*
X234696000Y-148482000D03*
X234696000Y-145942000D03*
X234696000Y-143402000D03*
X234696000Y-140862000D03*
X234696000Y-138322000D03*
X234696000Y-135782000D03*
X234696000Y-133242000D03*
X234696000Y-130702000D03*
X234696000Y-128162000D03*
X234696000Y-125622000D03*
X234696000Y-123082000D03*
X234696000Y-120542000D03*
%TD*%
D12*
%TO.C,U2*%
X152908000Y-110993000D03*
D13*
X152908000Y-113533000D03*
X152908000Y-116073000D03*
X152908000Y-118613000D03*
X152908000Y-121153000D03*
X152908000Y-123693000D03*
X152908000Y-126233000D03*
X152908000Y-128773000D03*
X152908000Y-131313000D03*
X152908000Y-133853000D03*
X152908000Y-136393000D03*
X152908000Y-138933000D03*
X160528000Y-138933000D03*
X160528000Y-136393000D03*
X160528000Y-133853000D03*
X160528000Y-131313000D03*
X160528000Y-128773000D03*
X160528000Y-126233000D03*
X160528000Y-123693000D03*
X160528000Y-121153000D03*
X160528000Y-118613000D03*
X160528000Y-116073000D03*
X160528000Y-113533000D03*
X160528000Y-110993000D03*
%TD*%
%TO.C,U1*%
X124460000Y-137160000D03*
X124460000Y-139700000D03*
X124460000Y-142240000D03*
X124460000Y-144780000D03*
X124460000Y-147320000D03*
X124460000Y-149860000D03*
X124460000Y-152400000D03*
X116840000Y-152400000D03*
X116840000Y-149860000D03*
X116840000Y-147320000D03*
X116840000Y-144780000D03*
X116840000Y-142240000D03*
X116840000Y-139700000D03*
D12*
X116840000Y-137160000D03*
%TD*%
D17*
%TO.C,SW3*%
X57912000Y-103632000D03*
X55412000Y-103632000D03*
X52912000Y-103632000D03*
X57912000Y-97632000D03*
X55412000Y-97632000D03*
D18*
X52912000Y-97632000D03*
%TD*%
D19*
%TO.C,SW2*%
X58928000Y-111542000D03*
X52428000Y-111542000D03*
X52428000Y-116042000D03*
X58928000Y-116042000D03*
%TD*%
%TO.C,SW1*%
X58928000Y-125548000D03*
X52428000Y-125548000D03*
X52428000Y-130048000D03*
X58928000Y-130048000D03*
%TD*%
D20*
%TO.C,RV1*%
X154432000Y-44704000D03*
X156972000Y-42164000D03*
X154432000Y-39624000D03*
%TD*%
D13*
%TO.C,R24*%
X81280000Y-171704000D03*
D11*
X71120000Y-171704000D03*
%TD*%
D13*
%TO.C,R23*%
X81280000Y-185928000D03*
D11*
X71120000Y-185928000D03*
%TD*%
%TO.C,R22*%
X71120000Y-176276000D03*
D13*
X81280000Y-176276000D03*
%TD*%
%TO.C,R21*%
X81280000Y-180848000D03*
D11*
X71120000Y-180848000D03*
%TD*%
D13*
%TO.C,R20*%
X113792000Y-171196000D03*
D11*
X123952000Y-171196000D03*
%TD*%
%TO.C,R19*%
X113792000Y-180340000D03*
D13*
X123952000Y-180340000D03*
%TD*%
D11*
%TO.C,R18*%
X64516000Y-176784000D03*
D13*
X54356000Y-176784000D03*
%TD*%
%TO.C,R17*%
X54356000Y-186436000D03*
D11*
X64516000Y-186436000D03*
%TD*%
%TO.C,R16*%
X64516000Y-181356000D03*
D13*
X54356000Y-181356000D03*
%TD*%
D11*
%TO.C,R15*%
X54356000Y-171704000D03*
D13*
X64516000Y-171704000D03*
%TD*%
D11*
%TO.C,R14*%
X123952000Y-175768000D03*
D13*
X113792000Y-175768000D03*
%TD*%
D11*
%TO.C,R13*%
X113792000Y-166624000D03*
D13*
X123952000Y-166624000D03*
%TD*%
D11*
%TO.C,R12*%
X57404000Y-159512000D03*
D13*
X57404000Y-149352000D03*
%TD*%
D11*
%TO.C,R11*%
X87884000Y-99060000D03*
D13*
X77724000Y-99060000D03*
%TD*%
D11*
%TO.C,R10*%
X43688000Y-57404000D03*
D13*
X33528000Y-57404000D03*
%TD*%
D11*
%TO.C,R9*%
X80772000Y-132080000D03*
D13*
X70612000Y-132080000D03*
%TD*%
D11*
%TO.C,R8*%
X70612000Y-136652000D03*
D13*
X80772000Y-136652000D03*
%TD*%
D11*
%TO.C,R7*%
X181356000Y-146304000D03*
D13*
X181356000Y-136144000D03*
%TD*%
D11*
%TO.C,R6*%
X176784000Y-146304000D03*
D13*
X176784000Y-136144000D03*
%TD*%
%TO.C,R5*%
X172212000Y-136144000D03*
D11*
X172212000Y-146304000D03*
%TD*%
%TO.C,R4*%
X167640000Y-146304000D03*
D13*
X167640000Y-136144000D03*
%TD*%
D11*
%TO.C,R3*%
X70612000Y-111252000D03*
D13*
X80772000Y-111252000D03*
%TD*%
%TO.C,R2*%
X80772000Y-116332000D03*
D11*
X70612000Y-116332000D03*
%TD*%
%TO.C,R1*%
X70612000Y-120904000D03*
D13*
X80772000Y-120904000D03*
%TD*%
D21*
%TO.C,Q1*%
X36576000Y-86797000D03*
D22*
X39116000Y-86797000D03*
X41656000Y-86797000D03*
%TD*%
D23*
%TO.C,JP1*%
X99060000Y-169672000D03*
D24*
X96520000Y-169672000D03*
%TD*%
D25*
%TO.C,J19*%
X44068000Y-175260000D03*
D26*
X40318000Y-173260000D03*
X38418000Y-175260000D03*
D27*
X34718000Y-173260000D03*
X32268000Y-175260000D03*
%TD*%
D24*
%TO.C,J18*%
X100076000Y-209296000D03*
D23*
X97536000Y-209296000D03*
X94996000Y-209296000D03*
X92456000Y-209296000D03*
X89916000Y-209296000D03*
X87376000Y-209296000D03*
X84836000Y-209296000D03*
X82296000Y-209296000D03*
%TD*%
D24*
%TO.C,J17*%
X123952000Y-209296000D03*
D23*
X121412000Y-209296000D03*
X118872000Y-209296000D03*
X116332000Y-209296000D03*
X113792000Y-209296000D03*
X111252000Y-209296000D03*
X108712000Y-209296000D03*
X106172000Y-209296000D03*
%TD*%
D24*
%TO.C,J16*%
X124460000Y-199644000D03*
D23*
X121920000Y-199644000D03*
X119380000Y-199644000D03*
X116840000Y-199644000D03*
X114300000Y-199644000D03*
X111760000Y-199644000D03*
X109220000Y-199644000D03*
X106680000Y-199644000D03*
%TD*%
%TO.C,J15*%
X82296000Y-199644000D03*
X84836000Y-199644000D03*
X87376000Y-199644000D03*
X89916000Y-199644000D03*
X92456000Y-199644000D03*
X94996000Y-199644000D03*
X97536000Y-199644000D03*
D24*
X100076000Y-199644000D03*
%TD*%
%TO.C,J14*%
X189992000Y-210312000D03*
D23*
X192532000Y-210312000D03*
X195072000Y-210312000D03*
X197612000Y-210312000D03*
X200152000Y-210312000D03*
%TD*%
D11*
%TO.C,J13*%
X43792000Y-149569000D03*
X43792000Y-152339000D03*
X43792000Y-155109000D03*
X43792000Y-157879000D03*
X46632000Y-148184000D03*
X46632000Y-150954000D03*
X46632000Y-153724000D03*
X46632000Y-156494000D03*
D12*
X46632000Y-159264000D03*
D28*
X45212000Y-141224000D03*
X45212000Y-166224000D03*
%TD*%
D24*
%TO.C,J12*%
X63500000Y-209296000D03*
D23*
X60960000Y-209296000D03*
X58420000Y-209296000D03*
X55880000Y-209296000D03*
X53340000Y-209296000D03*
X50800000Y-209296000D03*
X48260000Y-209296000D03*
X45720000Y-209296000D03*
%TD*%
D29*
%TO.C,J11*%
X34760000Y-135882000D03*
X34760000Y-122182000D03*
D12*
X31910000Y-127732000D03*
D11*
X31910000Y-130332000D03*
X31910000Y-125632000D03*
X31910000Y-132432000D03*
X29110000Y-125632000D03*
X29110000Y-132432000D03*
D30*
X35560000Y-129032000D03*
%TD*%
D24*
%TO.C,J10*%
X84836000Y-42164000D03*
D23*
X87376000Y-42164000D03*
X84836000Y-44704000D03*
X87376000Y-44704000D03*
X84836000Y-47244000D03*
X87376000Y-47244000D03*
X84836000Y-49784000D03*
X87376000Y-49784000D03*
X84836000Y-52324000D03*
X87376000Y-52324000D03*
X84836000Y-54864000D03*
X87376000Y-54864000D03*
X84836000Y-57404000D03*
X87376000Y-57404000D03*
X84836000Y-59944000D03*
X87376000Y-59944000D03*
X84836000Y-62484000D03*
X87376000Y-62484000D03*
X84836000Y-65024000D03*
X87376000Y-65024000D03*
X84836000Y-67564000D03*
X87376000Y-67564000D03*
X84836000Y-70104000D03*
X87376000Y-70104000D03*
X84836000Y-72644000D03*
X87376000Y-72644000D03*
X84836000Y-75184000D03*
X87376000Y-75184000D03*
X84836000Y-77724000D03*
X87376000Y-77724000D03*
X84836000Y-80264000D03*
X87376000Y-80264000D03*
X84836000Y-82804000D03*
X87376000Y-82804000D03*
X84836000Y-85344000D03*
X87376000Y-85344000D03*
X84836000Y-87884000D03*
X87376000Y-87884000D03*
X84836000Y-90424000D03*
X87376000Y-90424000D03*
%TD*%
D29*
%TO.C,J9*%
X34854000Y-118834000D03*
X34854000Y-105134000D03*
D12*
X32004000Y-110684000D03*
D11*
X32004000Y-113284000D03*
X32004000Y-108584000D03*
X32004000Y-115384000D03*
X29204000Y-108584000D03*
X29204000Y-115384000D03*
D30*
X35654000Y-111984000D03*
%TD*%
D24*
%TO.C,J8*%
X40132000Y-64008000D03*
D23*
X37592000Y-64008000D03*
%TD*%
D24*
%TO.C,J7*%
X69088000Y-42164000D03*
D23*
X71628000Y-42164000D03*
X69088000Y-44704000D03*
X71628000Y-44704000D03*
X69088000Y-47244000D03*
X71628000Y-47244000D03*
X69088000Y-49784000D03*
X71628000Y-49784000D03*
X69088000Y-52324000D03*
X71628000Y-52324000D03*
X69088000Y-54864000D03*
X71628000Y-54864000D03*
X69088000Y-57404000D03*
X71628000Y-57404000D03*
X69088000Y-59944000D03*
X71628000Y-59944000D03*
X69088000Y-62484000D03*
X71628000Y-62484000D03*
X69088000Y-65024000D03*
X71628000Y-65024000D03*
X69088000Y-67564000D03*
X71628000Y-67564000D03*
X69088000Y-70104000D03*
X71628000Y-70104000D03*
X69088000Y-72644000D03*
X71628000Y-72644000D03*
X69088000Y-75184000D03*
X71628000Y-75184000D03*
X69088000Y-77724000D03*
X71628000Y-77724000D03*
X69088000Y-80264000D03*
X71628000Y-80264000D03*
X69088000Y-82804000D03*
X71628000Y-82804000D03*
X69088000Y-85344000D03*
X71628000Y-85344000D03*
X69088000Y-87884000D03*
X71628000Y-87884000D03*
X69088000Y-90424000D03*
X71628000Y-90424000D03*
%TD*%
D31*
%TO.C,J6*%
X38052000Y-100262500D03*
D32*
X35052000Y-95562500D03*
D33*
X41052000Y-95562500D03*
%TD*%
D24*
%TO.C,J5*%
X55372000Y-203200000D03*
D23*
X57912000Y-203200000D03*
X60452000Y-203200000D03*
X62992000Y-203200000D03*
%TD*%
D24*
%TO.C,J4*%
X125476000Y-53101000D03*
D23*
X125476000Y-55641000D03*
X125476000Y-58181000D03*
X125476000Y-60721000D03*
X125476000Y-63261000D03*
X125476000Y-65801000D03*
X125476000Y-68341000D03*
X125476000Y-70881000D03*
%TD*%
D24*
%TO.C,J3*%
X117109000Y-40132000D03*
D23*
X119649000Y-40132000D03*
X122189000Y-40132000D03*
X124729000Y-40132000D03*
X127269000Y-40132000D03*
X129809000Y-40132000D03*
X132349000Y-40132000D03*
X134889000Y-40132000D03*
%TD*%
D24*
%TO.C,J2*%
X53340000Y-42164000D03*
D23*
X55880000Y-42164000D03*
X53340000Y-44704000D03*
X55880000Y-44704000D03*
X53340000Y-47244000D03*
X55880000Y-47244000D03*
X53340000Y-49784000D03*
X55880000Y-49784000D03*
X53340000Y-52324000D03*
X55880000Y-52324000D03*
X53340000Y-54864000D03*
X55880000Y-54864000D03*
X53340000Y-57404000D03*
X55880000Y-57404000D03*
X53340000Y-59944000D03*
X55880000Y-59944000D03*
X53340000Y-62484000D03*
X55880000Y-62484000D03*
X53340000Y-65024000D03*
X55880000Y-65024000D03*
X53340000Y-67564000D03*
X55880000Y-67564000D03*
X53340000Y-70104000D03*
X55880000Y-70104000D03*
X53340000Y-72644000D03*
X55880000Y-72644000D03*
X53340000Y-75184000D03*
X55880000Y-75184000D03*
X53340000Y-77724000D03*
X55880000Y-77724000D03*
X53340000Y-80264000D03*
X55880000Y-80264000D03*
X53340000Y-82804000D03*
X55880000Y-82804000D03*
X53340000Y-85344000D03*
X55880000Y-85344000D03*
X53340000Y-87884000D03*
X55880000Y-87884000D03*
X53340000Y-90424000D03*
X55880000Y-90424000D03*
%TD*%
D24*
%TO.C,J1*%
X125476000Y-76708000D03*
D23*
X125476000Y-79248000D03*
X125476000Y-81788000D03*
X125476000Y-84328000D03*
X125476000Y-86868000D03*
X125476000Y-89408000D03*
X125476000Y-91948000D03*
X125476000Y-94488000D03*
%TD*%
D18*
%TO.C,D2*%
X69088000Y-99060000D03*
D17*
X71628000Y-99060000D03*
%TD*%
D18*
%TO.C,D1*%
X37084000Y-50800000D03*
D17*
X39624000Y-50800000D03*
%TD*%
D11*
%TO.C,C28*%
X61936000Y-192024000D03*
X56936000Y-192024000D03*
%TD*%
%TO.C,C27*%
X33052000Y-186944000D03*
X35052000Y-186944000D03*
%TD*%
%TO.C,C26*%
X197572000Y-165100000D03*
X192572000Y-165100000D03*
%TD*%
%TO.C,C25*%
X162092000Y-152400000D03*
X167092000Y-152400000D03*
%TD*%
%TO.C,C24*%
X229576000Y-182372000D03*
X224576000Y-182372000D03*
%TD*%
%TO.C,C23*%
X73740000Y-191516000D03*
X78740000Y-191516000D03*
%TD*%
%TO.C,C22*%
X42164000Y-186944000D03*
X44164000Y-186944000D03*
%TD*%
%TO.C,C21*%
X215900000Y-206756000D03*
X213900000Y-206756000D03*
%TD*%
%TO.C,C20*%
X215884000Y-183896000D03*
X213884000Y-183896000D03*
%TD*%
%TO.C,C19*%
X215900000Y-199136000D03*
X213900000Y-199136000D03*
%TD*%
%TO.C,C18*%
X215900000Y-191516000D03*
X213900000Y-191516000D03*
%TD*%
%TO.C,C17*%
X140676000Y-152400000D03*
X135676000Y-152400000D03*
%TD*%
%TO.C,C16*%
X66832000Y-146304000D03*
X71832000Y-146304000D03*
%TD*%
%TO.C,C15*%
X55912000Y-142748000D03*
X57912000Y-142748000D03*
%TD*%
%TO.C,C14*%
X163108000Y-41148000D03*
X168108000Y-41148000D03*
%TD*%
%TO.C,C13*%
X75732000Y-159004000D03*
X80732000Y-159004000D03*
%TD*%
%TO.C,C12*%
X41108000Y-74168000D03*
X36108000Y-74168000D03*
%TD*%
%TO.C,C11*%
X168696000Y-106172000D03*
X173696000Y-106172000D03*
%TD*%
%TO.C,C10*%
X118364000Y-106172000D03*
X123364000Y-106172000D03*
%TD*%
%TO.C,C9*%
X99528000Y-105664000D03*
X94528000Y-105664000D03*
%TD*%
%TO.C,C8*%
X136224000Y-45720000D03*
X141224000Y-45720000D03*
%TD*%
%TO.C,C7*%
X78192000Y-126492000D03*
X73192000Y-126492000D03*
%TD*%
%TO.C,C6*%
X229616000Y-106172000D03*
X224616000Y-106172000D03*
%TD*%
%TO.C,C5*%
X194056000Y-106172000D03*
X199056000Y-106172000D03*
%TD*%
%TO.C,C4*%
X154512000Y-106172000D03*
X159512000Y-106172000D03*
%TD*%
%TO.C,C3*%
X136732000Y-106172000D03*
X141732000Y-106172000D03*
%TD*%
%TO.C,C2*%
X123444000Y-132080000D03*
X118444000Y-132080000D03*
%TD*%
%TO.C,C1*%
X109260000Y-45720000D03*
X114260000Y-45720000D03*
%TD*%
M02*
