%TF.GenerationSoftware,KiCad,Pcbnew,7.0.5*%
%TF.CreationDate,2023-07-25T18:53:58-05:00*%
%TF.ProjectId,6502v2.0,36353032-7632-42e3-902e-6b696361645f,rev?*%
%TF.SameCoordinates,Original*%
%TF.FileFunction,Copper,L2,Bot*%
%TF.FilePolarity,Positive*%
%FSLAX46Y46*%
G04 Gerber Fmt 4.6, Leading zero omitted, Abs format (unit mm)*
G04 Created by KiCad (PCBNEW 7.0.5) date 2023-07-25 18:53:58*
%MOMM*%
%LPD*%
G01*
G04 APERTURE LIST*
G04 Aperture macros list*
%AMRoundRect*
0 Rectangle with rounded corners*
0 $1 Rounding radius*
0 $2 $3 $4 $5 $6 $7 $8 $9 X,Y pos of 4 corners*
0 Add a 4 corners polygon primitive as box body*
4,1,4,$2,$3,$4,$5,$6,$7,$8,$9,$2,$3,0*
0 Add four circle primitives for the rounded corners*
1,1,$1+$1,$2,$3*
1,1,$1+$1,$4,$5*
1,1,$1+$1,$6,$7*
1,1,$1+$1,$8,$9*
0 Add four rect primitives between the rounded corners*
20,1,$1+$1,$2,$3,$4,$5,0*
20,1,$1+$1,$4,$5,$6,$7,0*
20,1,$1+$1,$6,$7,$8,$9,0*
20,1,$1+$1,$8,$9,$2,$3,0*%
G04 Aperture macros list end*
%TA.AperFunction,ComponentPad*%
%ADD10C,5.000000*%
%TD*%
%TA.AperFunction,ComponentPad*%
%ADD11C,1.600000*%
%TD*%
%TA.AperFunction,ComponentPad*%
%ADD12R,1.600000X1.600000*%
%TD*%
%TA.AperFunction,ComponentPad*%
%ADD13O,1.600000X1.600000*%
%TD*%
%TA.AperFunction,ComponentPad*%
%ADD14O,1.501140X4.000500*%
%TD*%
%TA.AperFunction,ComponentPad*%
%ADD15R,2.000000X1.440000*%
%TD*%
%TA.AperFunction,ComponentPad*%
%ADD16O,2.000000X1.440000*%
%TD*%
%TA.AperFunction,ComponentPad*%
%ADD17C,1.800000*%
%TD*%
%TA.AperFunction,ComponentPad*%
%ADD18R,1.800000X1.800000*%
%TD*%
%TA.AperFunction,ComponentPad*%
%ADD19C,2.000000*%
%TD*%
%TA.AperFunction,ComponentPad*%
%ADD20C,1.440000*%
%TD*%
%TA.AperFunction,ComponentPad*%
%ADD21R,1.905000X2.000000*%
%TD*%
%TA.AperFunction,ComponentPad*%
%ADD22O,1.905000X2.000000*%
%TD*%
%TA.AperFunction,ComponentPad*%
%ADD23O,1.700000X1.700000*%
%TD*%
%TA.AperFunction,ComponentPad*%
%ADD24R,1.700000X1.700000*%
%TD*%
%TA.AperFunction,ComponentPad*%
%ADD25C,3.000000*%
%TD*%
%TA.AperFunction,ComponentPad*%
%ADD26C,2.500000*%
%TD*%
%TA.AperFunction,ComponentPad*%
%ADD27C,2.700000*%
%TD*%
%TA.AperFunction,ComponentPad*%
%ADD28C,4.000000*%
%TD*%
%TA.AperFunction,ComponentPad*%
%ADD29O,3.500000X2.000000*%
%TD*%
%TA.AperFunction,ComponentPad*%
%ADD30O,2.000000X4.000000*%
%TD*%
%TA.AperFunction,ComponentPad*%
%ADD31RoundRect,0.875000X-0.875000X-0.875000X0.875000X-0.875000X0.875000X0.875000X-0.875000X0.875000X0*%
%TD*%
%TA.AperFunction,ComponentPad*%
%ADD32RoundRect,0.750000X-0.750000X-1.000000X0.750000X-1.000000X0.750000X1.000000X-0.750000X1.000000X0*%
%TD*%
%TA.AperFunction,ComponentPad*%
%ADD33R,3.500000X3.500000*%
%TD*%
%TA.AperFunction,ViaPad*%
%ADD34C,0.800000*%
%TD*%
%TA.AperFunction,Conductor*%
%ADD35C,0.250000*%
%TD*%
G04 APERTURE END LIST*
D10*
%TO.P,REF4,4*%
%TO.N,N/C*%
X238760000Y-209296000D03*
%TD*%
%TO.P,REF3,3*%
%TO.N,N/C*%
X30988000Y-209296000D03*
%TD*%
%TO.P,REF2,2*%
%TO.N,N/C*%
X238760000Y-39624000D03*
%TD*%
%TO.P,REF1,1*%
%TO.N,N/C*%
X30988000Y-39624000D03*
%TD*%
D11*
%TO.P,X2,14,Vcc*%
%TO.N,+5V*%
X219456000Y-166878000D03*
%TO.P,X2,8,OUT*%
%TO.N,CLK_1.8432*%
X234696000Y-166878000D03*
%TO.P,X2,7,GND*%
%TO.N,GND*%
X234696000Y-174498000D03*
D12*
%TO.P,X2,1,NC*%
%TO.N,unconnected-(X2-NC-Pad1)*%
X219456000Y-174498000D03*
%TD*%
%TO.P,X1,1,NC*%
%TO.N,unconnected-(X1-NC-Pad1)*%
X89916000Y-185166000D03*
D11*
%TO.P,X1,7,GND*%
%TO.N,GND*%
X105156000Y-185166000D03*
%TO.P,X1,8,OUT*%
%TO.N,Net-(JP1-B)*%
X105156000Y-177546000D03*
%TO.P,X1,14,Vcc*%
%TO.N,+5V*%
X89916000Y-177546000D03*
%TD*%
D12*
%TO.P,U16,1,Vss*%
%TO.N,GND*%
X156972000Y-157480000D03*
D13*
%TO.P,U16,2,N/C*%
%TO.N,unconnected-(U16-N{slash}C-Pad2)*%
X156972000Y-160020000D03*
%TO.P,U16,3,ch_B*%
%TO.N,Net-(U16-ch_B)*%
X156972000Y-162560000D03*
%TO.P,U16,4,ch_A*%
%TO.N,Net-(U16-ch_A)*%
X156972000Y-165100000D03*
%TO.P,U16,5,N/C*%
%TO.N,unconnected-(U16-N{slash}C-Pad5)*%
X156972000Y-167640000D03*
%TO.P,U16,6,IOB7*%
%TO.N,PSG2IOB7*%
X156972000Y-170180000D03*
%TO.P,U16,7,IOB6*%
%TO.N,PSG2IOB6*%
X156972000Y-172720000D03*
%TO.P,U16,8,IOB5*%
%TO.N,PSG2IOB5*%
X156972000Y-175260000D03*
%TO.P,U16,9,IOB4*%
%TO.N,PSG2IOB4*%
X156972000Y-177800000D03*
%TO.P,U16,10,IOB3*%
%TO.N,PSG2IOB3*%
X156972000Y-180340000D03*
%TO.P,U16,11,IOB2*%
%TO.N,PSG2IOB2*%
X156972000Y-182880000D03*
%TO.P,U16,12,IOB1*%
%TO.N,PSG2IOB1*%
X156972000Y-185420000D03*
%TO.P,U16,13,IOB0*%
%TO.N,PSG2IOB0*%
X156972000Y-187960000D03*
%TO.P,U16,14,IOA7*%
%TO.N,PSG2IOA7*%
X156972000Y-190500000D03*
%TO.P,U16,15,IOA6*%
%TO.N,PSG2IOA6*%
X156972000Y-193040000D03*
%TO.P,U16,16,IOA5*%
%TO.N,PSG2IOA5*%
X156972000Y-195580000D03*
%TO.P,U16,17,IOA4*%
%TO.N,PSG2IOA4*%
X156972000Y-198120000D03*
%TO.P,U16,18,IOA3*%
%TO.N,PSG2IOA3*%
X156972000Y-200660000D03*
%TO.P,U16,19,IOA2*%
%TO.N,PSG2IOA2*%
X156972000Y-203200000D03*
%TO.P,U16,20,IOA1*%
%TO.N,PSG2IOA1*%
X156972000Y-205740000D03*
%TO.P,U16,21,IOA0*%
%TO.N,PSG2IOA0*%
X172212000Y-205740000D03*
%TO.P,U16,22,CLOCK*%
%TO.N,CLK_1.8432*%
X172212000Y-203200000D03*
%TO.P,U16,23,~{RESET}*%
%TO.N,RESET*%
X172212000Y-200660000D03*
%TO.P,U16,24,~{A9}*%
%TO.N,Net-(U16-~{A9})*%
X172212000Y-198120000D03*
%TO.P,U16,25,A8*%
%TO.N,Net-(U16-A8)*%
X172212000Y-195580000D03*
%TO.P,U16,26,TEST2*%
%TO.N,unconnected-(U16-TEST2-Pad26)*%
X172212000Y-193040000D03*
%TO.P,U16,27,BDIR*%
%TO.N,Net-(U16-BDIR)*%
X172212000Y-190500000D03*
%TO.P,U16,28,BC2*%
%TO.N,+5V*%
X172212000Y-187960000D03*
%TO.P,U16,29,BC1*%
%TO.N,Net-(U16-BC1)*%
X172212000Y-185420000D03*
%TO.P,U16,30,D7*%
%TO.N,d7*%
X172212000Y-182880000D03*
%TO.P,U16,31,D6*%
%TO.N,d6*%
X172212000Y-180340000D03*
%TO.P,U16,32,D5*%
%TO.N,d5*%
X172212000Y-177800000D03*
%TO.P,U16,33,D4*%
%TO.N,d4*%
X172212000Y-175260000D03*
%TO.P,U16,34,D3*%
%TO.N,d3*%
X172212000Y-172720000D03*
%TO.P,U16,35,D2*%
%TO.N,d2*%
X172212000Y-170180000D03*
%TO.P,U16,36,D1*%
%TO.N,d1*%
X172212000Y-167640000D03*
%TO.P,U16,37,D0*%
%TO.N,d0*%
X172212000Y-165100000D03*
%TO.P,U16,38,ch_C*%
%TO.N,Net-(U16-ch_C)*%
X172212000Y-162560000D03*
%TO.P,U16,39,TEST1*%
%TO.N,unconnected-(U16-TEST1-Pad39)*%
X172212000Y-160020000D03*
%TO.P,U16,40,Vcc*%
%TO.N,+5V*%
X172212000Y-157480000D03*
%TD*%
D12*
%TO.P,U15,1,Vss*%
%TO.N,GND*%
X130556000Y-157480000D03*
D13*
%TO.P,U15,2,N/C*%
%TO.N,unconnected-(U15-N{slash}C-Pad2)*%
X130556000Y-160020000D03*
%TO.P,U15,3,ch_B*%
%TO.N,Net-(U15-ch_B)*%
X130556000Y-162560000D03*
%TO.P,U15,4,ch_A*%
%TO.N,Net-(U15-ch_A)*%
X130556000Y-165100000D03*
%TO.P,U15,5,N/C*%
%TO.N,unconnected-(U15-N{slash}C-Pad5)*%
X130556000Y-167640000D03*
%TO.P,U15,6,IOB7*%
%TO.N,PSG1IOB7*%
X130556000Y-170180000D03*
%TO.P,U15,7,IOB6*%
%TO.N,PSG1IOB6*%
X130556000Y-172720000D03*
%TO.P,U15,8,IOB5*%
%TO.N,PSG1IOB5*%
X130556000Y-175260000D03*
%TO.P,U15,9,IOB4*%
%TO.N,PSG1IOB4*%
X130556000Y-177800000D03*
%TO.P,U15,10,IOB3*%
%TO.N,PSG1IOB3*%
X130556000Y-180340000D03*
%TO.P,U15,11,IOB2*%
%TO.N,PSG1IOB2*%
X130556000Y-182880000D03*
%TO.P,U15,12,IOB1*%
%TO.N,PSG1IOB1*%
X130556000Y-185420000D03*
%TO.P,U15,13,IOB0*%
%TO.N,PSG1IOB0*%
X130556000Y-187960000D03*
%TO.P,U15,14,IOA7*%
%TO.N,PSG1IOA7*%
X130556000Y-190500000D03*
%TO.P,U15,15,IOA6*%
%TO.N,PSG1IOA6*%
X130556000Y-193040000D03*
%TO.P,U15,16,IOA5*%
%TO.N,PSG1IOA5*%
X130556000Y-195580000D03*
%TO.P,U15,17,IOA4*%
%TO.N,PSG1IOA4*%
X130556000Y-198120000D03*
%TO.P,U15,18,IOA3*%
%TO.N,PSG1IOA3*%
X130556000Y-200660000D03*
%TO.P,U15,19,IOA2*%
%TO.N,PSG1IOA2*%
X130556000Y-203200000D03*
%TO.P,U15,20,IOA1*%
%TO.N,PSG1IOA1*%
X130556000Y-205740000D03*
%TO.P,U15,21,IOA0*%
%TO.N,PSG1IOA0*%
X145796000Y-205740000D03*
%TO.P,U15,22,CLOCK*%
%TO.N,CLK_1.8432*%
X145796000Y-203200000D03*
%TO.P,U15,23,~{RESET}*%
%TO.N,RESET*%
X145796000Y-200660000D03*
%TO.P,U15,24,~{A9}*%
%TO.N,Net-(U15-~{A9})*%
X145796000Y-198120000D03*
%TO.P,U15,25,A8*%
%TO.N,Net-(U15-A8)*%
X145796000Y-195580000D03*
%TO.P,U15,26,TEST2*%
%TO.N,unconnected-(U15-TEST2-Pad26)*%
X145796000Y-193040000D03*
%TO.P,U15,27,BDIR*%
%TO.N,Net-(U15-BDIR)*%
X145796000Y-190500000D03*
%TO.P,U15,28,BC2*%
%TO.N,+5V*%
X145796000Y-187960000D03*
%TO.P,U15,29,BC1*%
%TO.N,Net-(U15-BC1)*%
X145796000Y-185420000D03*
%TO.P,U15,30,D7*%
%TO.N,d7*%
X145796000Y-182880000D03*
%TO.P,U15,31,D6*%
%TO.N,d6*%
X145796000Y-180340000D03*
%TO.P,U15,32,D5*%
%TO.N,d5*%
X145796000Y-177800000D03*
%TO.P,U15,33,D4*%
%TO.N,d4*%
X145796000Y-175260000D03*
%TO.P,U15,34,D3*%
%TO.N,d3*%
X145796000Y-172720000D03*
%TO.P,U15,35,D2*%
%TO.N,d2*%
X145796000Y-170180000D03*
%TO.P,U15,36,D1*%
%TO.N,d1*%
X145796000Y-167640000D03*
%TO.P,U15,37,D0*%
%TO.N,d0*%
X145796000Y-165100000D03*
%TO.P,U15,38,ch_C*%
%TO.N,Net-(U15-ch_C)*%
X145796000Y-162560000D03*
%TO.P,U15,39,TEST1*%
%TO.N,unconnected-(U15-TEST1-Pad39)*%
X145796000Y-160020000D03*
%TO.P,U15,40,Vcc*%
%TO.N,+5V*%
X145796000Y-157480000D03*
%TD*%
%TO.P,U14,14,VCC*%
%TO.N,+5V*%
X124460000Y-110993000D03*
%TO.P,U14,13*%
%TO.N,Net-(U16-BDIR)*%
X124460000Y-113533000D03*
%TO.P,U14,12*%
%TO.N,RW*%
X124460000Y-116073000D03*
%TO.P,U14,11*%
%TO.N,PSG2_CS*%
X124460000Y-118613000D03*
%TO.P,U14,10*%
%TO.N,Net-(U16-BC1)*%
X124460000Y-121153000D03*
%TO.P,U14,9*%
%TO.N,/audio/a0*%
X124460000Y-123693000D03*
%TO.P,U14,8*%
%TO.N,PSG2_CS*%
X124460000Y-126233000D03*
%TO.P,U14,7,GND*%
%TO.N,GND*%
X116840000Y-126233000D03*
%TO.P,U14,6*%
%TO.N,RW*%
X116840000Y-123693000D03*
%TO.P,U14,5*%
%TO.N,PSG1_CS*%
X116840000Y-121153000D03*
%TO.P,U14,4*%
%TO.N,Net-(U15-BDIR)*%
X116840000Y-118613000D03*
%TO.P,U14,3*%
%TO.N,/audio/a0*%
X116840000Y-116073000D03*
%TO.P,U14,2*%
%TO.N,PSG1_CS*%
X116840000Y-113533000D03*
D12*
%TO.P,U14,1*%
%TO.N,Net-(U15-BC1)*%
X116840000Y-110993000D03*
%TD*%
%TO.P,U13,1,C1+*%
%TO.N,Net-(U13-C1+)*%
X223276000Y-187188000D03*
D13*
%TO.P,U13,2,VS+*%
%TO.N,Net-(U13-VS+)*%
X223276000Y-189728000D03*
%TO.P,U13,3,C1-*%
%TO.N,Net-(U13-C1-)*%
X223276000Y-192268000D03*
%TO.P,U13,4,C2+*%
%TO.N,Net-(U13-C2+)*%
X223276000Y-194808000D03*
%TO.P,U13,5,C2-*%
%TO.N,Net-(U13-C2-)*%
X223276000Y-197348000D03*
%TO.P,U13,6,VS-*%
%TO.N,Net-(U13-VS-)*%
X223276000Y-199888000D03*
%TO.P,U13,7,T2OUT*%
%TO.N,unconnected-(U13-T2OUT-Pad7)*%
X223276000Y-202428000D03*
%TO.P,U13,8,R2IN*%
%TO.N,unconnected-(U13-R2IN-Pad8)*%
X223276000Y-204968000D03*
%TO.P,U13,9,R2OUT*%
%TO.N,unconnected-(U13-R2OUT-Pad9)*%
X230896000Y-204968000D03*
%TO.P,U13,10,T2IN*%
%TO.N,unconnected-(U13-T2IN-Pad10)*%
X230896000Y-202428000D03*
%TO.P,U13,11,T1IN*%
%TO.N,Net-(U12-TxD)*%
X230896000Y-199888000D03*
%TO.P,U13,12,R1OUT*%
%TO.N,Net-(U12-RxD)*%
X230896000Y-197348000D03*
%TO.P,U13,13,R1IN*%
%TO.N,Net-(U13-R1IN)*%
X230896000Y-194808000D03*
%TO.P,U13,14,T1OUT*%
%TO.N,Net-(U13-T1OUT)*%
X230896000Y-192268000D03*
%TO.P,U13,15,GND*%
%TO.N,GND*%
X230896000Y-189728000D03*
%TO.P,U13,16,VCC*%
%TO.N,+5V*%
X230896000Y-187188000D03*
%TD*%
D12*
%TO.P,U12,1,VSS*%
%TO.N,GND*%
X187452000Y-169911000D03*
D13*
%TO.P,U12,2,CS0*%
%TO.N,+5V*%
X187452000Y-172451000D03*
%TO.P,U12,3,~{CS1}*%
%TO.N,ACIA_CS*%
X187452000Y-174991000D03*
%TO.P,U12,4,~{RES}*%
%TO.N,RESET*%
X187452000Y-177531000D03*
%TO.P,U12,5,RxC*%
%TO.N,unconnected-(U12-RxC-Pad5)*%
X187452000Y-180071000D03*
%TO.P,U12,6,XTLI*%
%TO.N,CLK_1.8432*%
X187452000Y-182611000D03*
%TO.P,U12,7,XTLO*%
%TO.N,unconnected-(U12-XTLO-Pad7)*%
X187452000Y-185151000D03*
%TO.P,U12,8,~{RTS}*%
%TO.N,unconnected-(U12-~{RTS}-Pad8)*%
X187452000Y-187691000D03*
%TO.P,U12,9,~{CTS}*%
%TO.N,GND*%
X187452000Y-190231000D03*
%TO.P,U12,10,TxD*%
%TO.N,Net-(U12-TxD)*%
X187452000Y-192771000D03*
%TO.P,U12,11,~{DTR}*%
%TO.N,unconnected-(U12-~{DTR}-Pad11)*%
X187452000Y-195311000D03*
%TO.P,U12,12,RxD*%
%TO.N,Net-(U12-RxD)*%
X187452000Y-197851000D03*
%TO.P,U12,13,RS0*%
%TO.N,a0*%
X187452000Y-200391000D03*
%TO.P,U12,14,RS1*%
%TO.N,a1*%
X187452000Y-202931000D03*
%TO.P,U12,15,VDD*%
%TO.N,+5V*%
X202692000Y-202931000D03*
%TO.P,U12,16,~{DCD}*%
%TO.N,GND*%
X202692000Y-200391000D03*
%TO.P,U12,17,~{DSR}*%
X202692000Y-197851000D03*
%TO.P,U12,18,D0*%
%TO.N,d0*%
X202692000Y-195311000D03*
%TO.P,U12,19,D1*%
%TO.N,d1*%
X202692000Y-192771000D03*
%TO.P,U12,20,D2*%
%TO.N,d2*%
X202692000Y-190231000D03*
%TO.P,U12,21,D3*%
%TO.N,d3*%
X202692000Y-187691000D03*
%TO.P,U12,22,D4*%
%TO.N,d4*%
X202692000Y-185151000D03*
%TO.P,U12,23,D5*%
%TO.N,d5*%
X202692000Y-182611000D03*
%TO.P,U12,24,D6*%
%TO.N,d6*%
X202692000Y-180071000D03*
%TO.P,U12,25,D7*%
%TO.N,d7*%
X202692000Y-177531000D03*
%TO.P,U12,26,~{IRQ}*%
%TO.N,ACIA_IRQ*%
X202692000Y-174991000D03*
%TO.P,U12,27,PHI2*%
%TO.N,PHI2*%
X202692000Y-172451000D03*
%TO.P,U12,28,R~{W}*%
%TO.N,RW*%
X202692000Y-169911000D03*
%TD*%
%TO.P,U11,8,VCC*%
%TO.N,+5V*%
X72644000Y-151384000D03*
%TO.P,U11,7,DIS*%
%TO.N,unconnected-(U11-DIS-Pad7)*%
X72644000Y-153924000D03*
%TO.P,U11,6,THR*%
%TO.N,Net-(U11-THR)*%
X72644000Y-156464000D03*
%TO.P,U11,5,CV*%
%TO.N,Net-(U11-CV)*%
X72644000Y-159004000D03*
%TO.P,U11,4,R*%
%TO.N,+5V*%
X65024000Y-159004000D03*
%TO.P,U11,3,Q*%
%TO.N,RESET*%
X65024000Y-156464000D03*
%TO.P,U11,2,TR*%
%TO.N,Net-(U11-THR)*%
X65024000Y-153924000D03*
D12*
%TO.P,U11,1,GND*%
%TO.N,GND*%
X65024000Y-151384000D03*
%TD*%
D14*
%TO.P,U10,1,VSS*%
%TO.N,GND*%
X171174440Y-49207420D03*
%TO.P,U10,2,VDD*%
%TO.N,+5V*%
X173714440Y-49207420D03*
%TO.P,U10,3,VO*%
%TO.N,Net-(U10-VO)*%
X176254440Y-49207420D03*
%TO.P,U10,4,RS*%
%TO.N,1pb4*%
X178794440Y-49207420D03*
%TO.P,U10,5,R/W*%
%TO.N,1pb5*%
X181334440Y-49207420D03*
%TO.P,U10,6,E*%
%TO.N,1pb6*%
X183874440Y-49207420D03*
%TO.P,U10,7,DB0*%
%TO.N,GND*%
X186414440Y-49207420D03*
%TO.P,U10,8,DB1*%
X188954440Y-49207420D03*
%TO.P,U10,9,DB2*%
X191494440Y-49207420D03*
%TO.P,U10,10,DB3*%
X194034440Y-49207420D03*
%TO.P,U10,11,DB4*%
%TO.N,1pb0*%
X196574440Y-49207420D03*
%TO.P,U10,12,DB5*%
%TO.N,1pb1*%
X199114440Y-49207420D03*
%TO.P,U10,13,DB6*%
%TO.N,1pb2*%
X201654440Y-49207420D03*
%TO.P,U10,14,DB7*%
%TO.N,1pb3*%
X204194440Y-49207420D03*
%TO.P,U10,15,A*%
%TO.N,+5V*%
X206734440Y-49207420D03*
%TO.P,U10,16,K*%
%TO.N,GND*%
X209274440Y-49207420D03*
%TD*%
D12*
%TO.P,U9,1,VSS*%
%TO.N,GND*%
X131064000Y-50800000D03*
D13*
%TO.P,U9,2,PA0*%
%TO.N,2pa0*%
X131064000Y-53340000D03*
%TO.P,U9,3,PA1*%
%TO.N,2pa1*%
X131064000Y-55880000D03*
%TO.P,U9,4,PA2*%
%TO.N,2pa2*%
X131064000Y-58420000D03*
%TO.P,U9,5,PA3*%
%TO.N,2pa3*%
X131064000Y-60960000D03*
%TO.P,U9,6,PA4*%
%TO.N,2pa4*%
X131064000Y-63500000D03*
%TO.P,U9,7,PA5*%
%TO.N,2pa5*%
X131064000Y-66040000D03*
%TO.P,U9,8,PA6*%
%TO.N,2pa6*%
X131064000Y-68580000D03*
%TO.P,U9,9,PA7*%
%TO.N,2pa7*%
X131064000Y-71120000D03*
%TO.P,U9,10,PB0*%
%TO.N,2pb0*%
X131064000Y-73660000D03*
%TO.P,U9,11,PB1*%
%TO.N,2pb1*%
X131064000Y-76200000D03*
%TO.P,U9,12,PB2*%
%TO.N,2pb2*%
X131064000Y-78740000D03*
%TO.P,U9,13,PB3*%
%TO.N,2pb3*%
X131064000Y-81280000D03*
%TO.P,U9,14,PB4*%
%TO.N,2pb4*%
X131064000Y-83820000D03*
%TO.P,U9,15,PB5*%
%TO.N,2pb5*%
X131064000Y-86360000D03*
%TO.P,U9,16,PB6*%
%TO.N,2pb6*%
X131064000Y-88900000D03*
%TO.P,U9,17,PB7*%
%TO.N,2pb7*%
X131064000Y-91440000D03*
%TO.P,U9,18,CB1*%
%TO.N,2CB1*%
X131064000Y-93980000D03*
%TO.P,U9,19,CB2*%
%TO.N,2CB2*%
X131064000Y-96520000D03*
%TO.P,U9,20,VDD*%
%TO.N,+5V*%
X131064000Y-99060000D03*
%TO.P,U9,21,~{IRQ}*%
%TO.N,2VIA_IRQ*%
X146304000Y-99060000D03*
%TO.P,U9,22,R~{W}*%
%TO.N,RW*%
X146304000Y-96520000D03*
%TO.P,U9,23,~{CS2}*%
%TO.N,VIA2_CS*%
X146304000Y-93980000D03*
%TO.P,U9,24,CS1*%
%TO.N,+5V*%
X146304000Y-91440000D03*
%TO.P,U9,25,PHI2*%
%TO.N,PHI2*%
X146304000Y-88900000D03*
%TO.P,U9,26,D7*%
%TO.N,d7*%
X146304000Y-86360000D03*
%TO.P,U9,27,D6*%
%TO.N,d6*%
X146304000Y-83820000D03*
%TO.P,U9,28,D5*%
%TO.N,d5*%
X146304000Y-81280000D03*
%TO.P,U9,29,D4*%
%TO.N,d4*%
X146304000Y-78740000D03*
%TO.P,U9,30,D3*%
%TO.N,d3*%
X146304000Y-76200000D03*
%TO.P,U9,31,D2*%
%TO.N,d2*%
X146304000Y-73660000D03*
%TO.P,U9,32,D1*%
%TO.N,d1*%
X146304000Y-71120000D03*
%TO.P,U9,33,D0*%
%TO.N,d0*%
X146304000Y-68580000D03*
%TO.P,U9,34,~{RES}*%
%TO.N,RESET*%
X146304000Y-66040000D03*
%TO.P,U9,35,RS3*%
%TO.N,a3*%
X146304000Y-63500000D03*
%TO.P,U9,36,RS2*%
%TO.N,a2*%
X146304000Y-60960000D03*
%TO.P,U9,37,RS1*%
%TO.N,a1*%
X146304000Y-58420000D03*
%TO.P,U9,38,RS0*%
%TO.N,a0*%
X146304000Y-55880000D03*
%TO.P,U9,39,CA2*%
%TO.N,2CA2*%
X146304000Y-53340000D03*
%TO.P,U9,40,CA1*%
%TO.N,2CA1*%
X146304000Y-50800000D03*
%TD*%
D12*
%TO.P,U8,1,A18*%
%TO.N,Net-(U6-Zd)*%
X188976000Y-111252000D03*
D13*
%TO.P,U8,2,A16*%
%TO.N,Net-(U6-Zb)*%
X188976000Y-113792000D03*
%TO.P,U8,3,A14*%
%TO.N,a14*%
X188976000Y-116332000D03*
%TO.P,U8,4,A12*%
%TO.N,a12*%
X188976000Y-118872000D03*
%TO.P,U8,5,A7*%
%TO.N,a7*%
X188976000Y-121412000D03*
%TO.P,U8,6,A6*%
%TO.N,a6*%
X188976000Y-123952000D03*
%TO.P,U8,7,A5*%
%TO.N,a5*%
X188976000Y-126492000D03*
%TO.P,U8,8,A4*%
%TO.N,a4*%
X188976000Y-129032000D03*
%TO.P,U8,9,A3*%
%TO.N,a3*%
X188976000Y-131572000D03*
%TO.P,U8,10,A2*%
%TO.N,a2*%
X188976000Y-134112000D03*
%TO.P,U8,11,A1*%
%TO.N,a1*%
X188976000Y-136652000D03*
%TO.P,U8,12,A0*%
%TO.N,a0*%
X188976000Y-139192000D03*
%TO.P,U8,13,DQ0*%
%TO.N,d0*%
X188976000Y-141732000D03*
%TO.P,U8,14,DQ1*%
%TO.N,d1*%
X188976000Y-144272000D03*
%TO.P,U8,15,DQ2*%
%TO.N,d2*%
X188976000Y-146812000D03*
%TO.P,U8,16,VSS*%
%TO.N,GND*%
X188976000Y-149352000D03*
%TO.P,U8,17,DQ3*%
%TO.N,d3*%
X204216000Y-149352000D03*
%TO.P,U8,18,DQ4*%
%TO.N,d4*%
X204216000Y-146812000D03*
%TO.P,U8,19,DQ5*%
%TO.N,d5*%
X204216000Y-144272000D03*
%TO.P,U8,20,DQ6*%
%TO.N,d6*%
X204216000Y-141732000D03*
%TO.P,U8,21,DQ7*%
%TO.N,d7*%
X204216000Y-139192000D03*
%TO.P,U8,22,CE#*%
%TO.N,RAM_CS*%
X204216000Y-136652000D03*
%TO.P,U8,23,A10*%
%TO.N,a10*%
X204216000Y-134112000D03*
%TO.P,U8,24,OE#*%
%TO.N,OE*%
X204216000Y-131572000D03*
%TO.P,U8,25,A11*%
%TO.N,a11*%
X204216000Y-129032000D03*
%TO.P,U8,26,A9*%
%TO.N,a9*%
X204216000Y-126492000D03*
%TO.P,U8,27,A8*%
%TO.N,a8*%
X204216000Y-123952000D03*
%TO.P,U8,28,A13*%
%TO.N,a13*%
X204216000Y-121412000D03*
%TO.P,U8,29,WE#*%
%TO.N,WE*%
X204216000Y-118872000D03*
%TO.P,U8,30,A17*%
%TO.N,Net-(U6-Zc)*%
X204216000Y-116332000D03*
%TO.P,U8,31,A15*%
%TO.N,Net-(U6-Za)*%
X204216000Y-113792000D03*
%TO.P,U8,32,VCC*%
%TO.N,+5V*%
X204216000Y-111252000D03*
%TD*%
D12*
%TO.P,U7,1,VSS*%
%TO.N,GND*%
X104140000Y-50800000D03*
D13*
%TO.P,U7,2,PA0*%
%TO.N,1pa0*%
X104140000Y-53340000D03*
%TO.P,U7,3,PA1*%
%TO.N,1pa1*%
X104140000Y-55880000D03*
%TO.P,U7,4,PA2*%
%TO.N,1pa2*%
X104140000Y-58420000D03*
%TO.P,U7,5,PA3*%
%TO.N,1pa3*%
X104140000Y-60960000D03*
%TO.P,U7,6,PA4*%
%TO.N,1pa4*%
X104140000Y-63500000D03*
%TO.P,U7,7,PA5*%
%TO.N,1pa5*%
X104140000Y-66040000D03*
%TO.P,U7,8,PA6*%
%TO.N,1pa6*%
X104140000Y-68580000D03*
%TO.P,U7,9,PA7*%
%TO.N,1pa7*%
X104140000Y-71120000D03*
%TO.P,U7,10,PB0*%
%TO.N,1pb0*%
X104140000Y-73660000D03*
%TO.P,U7,11,PB1*%
%TO.N,1pb1*%
X104140000Y-76200000D03*
%TO.P,U7,12,PB2*%
%TO.N,1pb2*%
X104140000Y-78740000D03*
%TO.P,U7,13,PB3*%
%TO.N,1pb3*%
X104140000Y-81280000D03*
%TO.P,U7,14,PB4*%
%TO.N,1pb4*%
X104140000Y-83820000D03*
%TO.P,U7,15,PB5*%
%TO.N,1pb5*%
X104140000Y-86360000D03*
%TO.P,U7,16,PB6*%
%TO.N,1pb6*%
X104140000Y-88900000D03*
%TO.P,U7,17,PB7*%
%TO.N,1pb7*%
X104140000Y-91440000D03*
%TO.P,U7,18,CB1*%
%TO.N,1CB1*%
X104140000Y-93980000D03*
%TO.P,U7,19,CB2*%
%TO.N,1CB2*%
X104140000Y-96520000D03*
%TO.P,U7,20,VDD*%
%TO.N,+5V*%
X104140000Y-99060000D03*
%TO.P,U7,21,~{IRQ}*%
%TO.N,1VIA_IRQ*%
X119380000Y-99060000D03*
%TO.P,U7,22,R~{W}*%
%TO.N,RW*%
X119380000Y-96520000D03*
%TO.P,U7,23,~{CS2}*%
%TO.N,VIA1_CS*%
X119380000Y-93980000D03*
%TO.P,U7,24,CS1*%
%TO.N,+5V*%
X119380000Y-91440000D03*
%TO.P,U7,25,PHI2*%
%TO.N,PHI2*%
X119380000Y-88900000D03*
%TO.P,U7,26,D7*%
%TO.N,d7*%
X119380000Y-86360000D03*
%TO.P,U7,27,D6*%
%TO.N,d6*%
X119380000Y-83820000D03*
%TO.P,U7,28,D5*%
%TO.N,d5*%
X119380000Y-81280000D03*
%TO.P,U7,29,D4*%
%TO.N,d4*%
X119380000Y-78740000D03*
%TO.P,U7,30,D3*%
%TO.N,d3*%
X119380000Y-76200000D03*
%TO.P,U7,31,D2*%
%TO.N,d2*%
X119380000Y-73660000D03*
%TO.P,U7,32,D1*%
%TO.N,d1*%
X119380000Y-71120000D03*
%TO.P,U7,33,D0*%
%TO.N,d0*%
X119380000Y-68580000D03*
%TO.P,U7,34,~{RES}*%
%TO.N,RESET*%
X119380000Y-66040000D03*
%TO.P,U7,35,RS3*%
%TO.N,a3*%
X119380000Y-63500000D03*
%TO.P,U7,36,RS2*%
%TO.N,a2*%
X119380000Y-60960000D03*
%TO.P,U7,37,RS1*%
%TO.N,a1*%
X119380000Y-58420000D03*
%TO.P,U7,38,RS0*%
%TO.N,a0*%
X119380000Y-55880000D03*
%TO.P,U7,39,CA2*%
%TO.N,1CA2*%
X119380000Y-53340000D03*
%TO.P,U7,40,CA1*%
%TO.N,1CA1*%
X119380000Y-50800000D03*
%TD*%
D12*
%TO.P,U6,1,S*%
%TO.N,BANKED_RAM_CS*%
X167396000Y-111252000D03*
D13*
%TO.P,U6,2,I0a*%
%TO.N,1pa0*%
X167396000Y-113792000D03*
%TO.P,U6,3,I1a*%
%TO.N,GND*%
X167396000Y-116332000D03*
%TO.P,U6,4,Za*%
%TO.N,Net-(U6-Za)*%
X167396000Y-118872000D03*
%TO.P,U6,5,I0b*%
%TO.N,1pa1*%
X167396000Y-121412000D03*
%TO.P,U6,6,I1b*%
%TO.N,GND*%
X167396000Y-123952000D03*
%TO.P,U6,7,Zb*%
%TO.N,Net-(U6-Zb)*%
X167396000Y-126492000D03*
%TO.P,U6,8,GND*%
%TO.N,GND*%
X167396000Y-129032000D03*
%TO.P,U6,9,Zc*%
%TO.N,Net-(U6-Zc)*%
X175016000Y-129032000D03*
%TO.P,U6,10,I1c*%
%TO.N,GND*%
X175016000Y-126492000D03*
%TO.P,U6,11,I0c*%
%TO.N,1pa2*%
X175016000Y-123952000D03*
%TO.P,U6,12,Zd*%
%TO.N,Net-(U6-Zd)*%
X175016000Y-121412000D03*
%TO.P,U6,13,I1d*%
%TO.N,GND*%
X175016000Y-118872000D03*
%TO.P,U6,14,I0d*%
%TO.N,1pa3*%
X175016000Y-116332000D03*
%TO.P,U6,15,E*%
%TO.N,GND*%
X175016000Y-113792000D03*
%TO.P,U6,16,VCC*%
%TO.N,+5V*%
X175016000Y-111252000D03*
%TD*%
D12*
%TO.P,U5,1,~{VP}*%
%TO.N,VP*%
X89408000Y-110744000D03*
D13*
%TO.P,U5,2,RDY*%
%TO.N,RDY*%
X89408000Y-113284000D03*
%TO.P,U5,3,PHI1O*%
%TO.N,unconnected-(U5-PHI1O-Pad3)*%
X89408000Y-115824000D03*
%TO.P,U5,4,~{IRQ}*%
%TO.N,IRQ*%
X89408000Y-118364000D03*
%TO.P,U5,5,~{ML}*%
%TO.N,ML*%
X89408000Y-120904000D03*
%TO.P,U5,6,~{NMI}*%
%TO.N,NMI*%
X89408000Y-123444000D03*
%TO.P,U5,7,SYNC*%
%TO.N,SYNC*%
X89408000Y-125984000D03*
%TO.P,U5,8,VDD*%
%TO.N,+5V*%
X89408000Y-128524000D03*
%TO.P,U5,9,A0*%
%TO.N,a0*%
X89408000Y-131064000D03*
%TO.P,U5,10,A1*%
%TO.N,a1*%
X89408000Y-133604000D03*
%TO.P,U5,11,A2*%
%TO.N,a2*%
X89408000Y-136144000D03*
%TO.P,U5,12,A3*%
%TO.N,a3*%
X89408000Y-138684000D03*
%TO.P,U5,13,A4*%
%TO.N,a4*%
X89408000Y-141224000D03*
%TO.P,U5,14,A5*%
%TO.N,a5*%
X89408000Y-143764000D03*
%TO.P,U5,15,A6*%
%TO.N,a6*%
X89408000Y-146304000D03*
%TO.P,U5,16,A7*%
%TO.N,a7*%
X89408000Y-148844000D03*
%TO.P,U5,17,A8*%
%TO.N,a8*%
X89408000Y-151384000D03*
%TO.P,U5,18,A9*%
%TO.N,a9*%
X89408000Y-153924000D03*
%TO.P,U5,19,A10*%
%TO.N,a10*%
X89408000Y-156464000D03*
%TO.P,U5,20,A11*%
%TO.N,a11*%
X89408000Y-159004000D03*
%TO.P,U5,21,VSS*%
%TO.N,GND*%
X104648000Y-159004000D03*
%TO.P,U5,22,A12*%
%TO.N,a12*%
X104648000Y-156464000D03*
%TO.P,U5,23,A13*%
%TO.N,a13*%
X104648000Y-153924000D03*
%TO.P,U5,24,A14*%
%TO.N,a14*%
X104648000Y-151384000D03*
%TO.P,U5,25,A15*%
%TO.N,a15*%
X104648000Y-148844000D03*
%TO.P,U5,26,D7*%
%TO.N,d7*%
X104648000Y-146304000D03*
%TO.P,U5,27,D6*%
%TO.N,d6*%
X104648000Y-143764000D03*
%TO.P,U5,28,D5*%
%TO.N,d5*%
X104648000Y-141224000D03*
%TO.P,U5,29,D4*%
%TO.N,d4*%
X104648000Y-138684000D03*
%TO.P,U5,30,D3*%
%TO.N,d3*%
X104648000Y-136144000D03*
%TO.P,U5,31,D2*%
%TO.N,d2*%
X104648000Y-133604000D03*
%TO.P,U5,32,D1*%
%TO.N,d1*%
X104648000Y-131064000D03*
%TO.P,U5,33,D0*%
%TO.N,d0*%
X104648000Y-128524000D03*
%TO.P,U5,34,~{RW}*%
%TO.N,RW*%
X104648000Y-125984000D03*
%TO.P,U5,35,NC*%
%TO.N,unconnected-(U5-NC-Pad35)*%
X104648000Y-123444000D03*
%TO.P,U5,36,BE*%
%TO.N,BE*%
X104648000Y-120904000D03*
%TO.P,U5,37,PHI2*%
%TO.N,PHI2*%
X104648000Y-118364000D03*
%TO.P,U5,38,~{SO}*%
%TO.N,+5V*%
X104648000Y-115824000D03*
%TO.P,U5,39,PHI2O*%
%TO.N,unconnected-(U5-PHI2O-Pad39)*%
X104648000Y-113284000D03*
%TO.P,U5,40,~{RES}*%
%TO.N,RESET*%
X104648000Y-110744000D03*
%TD*%
D12*
%TO.P,U4,1,OD/CLK*%
%TO.N,PHI2*%
X135392000Y-110993000D03*
D13*
%TO.P,U4,2,I0*%
%TO.N,RW*%
X135392000Y-113533000D03*
%TO.P,U4,3,I1*%
%TO.N,a15*%
X135392000Y-116073000D03*
%TO.P,U4,4,I2*%
%TO.N,unconnected-(U4-I2-Pad4)*%
X135392000Y-118613000D03*
%TO.P,U4,5,I3*%
%TO.N,a14*%
X135392000Y-121153000D03*
%TO.P,U4,6,I4*%
%TO.N,a13*%
X135392000Y-123693000D03*
%TO.P,U4,7,I5*%
%TO.N,a12*%
X135392000Y-126233000D03*
%TO.P,U4,8,I6*%
%TO.N,a11*%
X135392000Y-128773000D03*
%TO.P,U4,9,I7*%
%TO.N,a10*%
X135392000Y-131313000D03*
%TO.P,U4,10,I8*%
%TO.N,a9*%
X135392000Y-133853000D03*
%TO.P,U4,11,I9*%
%TO.N,a8*%
X135392000Y-136393000D03*
%TO.P,U4,12,GND*%
%TO.N,GND*%
X135392000Y-138933000D03*
%TO.P,U4,13,CLK/OD*%
%TO.N,unconnected-(U4-CLK{slash}OD-Pad13)*%
X143012000Y-138933000D03*
%TO.P,U4,14,LR/O4*%
%TO.N,OE*%
X143012000Y-136393000D03*
%TO.P,U4,15,A0/O3*%
%TO.N,WE*%
X143012000Y-133853000D03*
%TO.P,U4,16,A1/O2*%
%TO.N,ROM_CS*%
X143012000Y-131313000D03*
%TO.P,U4,17,A2/O1*%
%TO.N,RAM_CS*%
X143012000Y-128773000D03*
%TO.P,U4,18,NC/O0*%
%TO.N,BANKED_RAM_CS*%
X143012000Y-126233000D03*
%TO.P,U4,19,O4/NC*%
%TO.N,decode3*%
X143012000Y-123693000D03*
%TO.P,U4,20,O3/A2*%
%TO.N,decode2*%
X143012000Y-121153000D03*
%TO.P,U4,21,O2/A1*%
%TO.N,DEVICE_CS*%
X143012000Y-118613000D03*
%TO.P,U4,22,O1/A0*%
%TO.N,decode1*%
X143012000Y-116073000D03*
%TO.P,U4,23,O0/LR*%
%TO.N,decode0*%
X143012000Y-113533000D03*
%TO.P,U4,24,VCC*%
%TO.N,+5V*%
X143012000Y-110993000D03*
%TD*%
D15*
%TO.P,U3,1,A14*%
%TO.N,a14*%
X219456000Y-120542000D03*
D16*
%TO.P,U3,2,A12*%
%TO.N,a12*%
X219456000Y-123082000D03*
%TO.P,U3,3,A7*%
%TO.N,a7*%
X219456000Y-125622000D03*
%TO.P,U3,4,A6*%
%TO.N,a6*%
X219456000Y-128162000D03*
%TO.P,U3,5,A5*%
%TO.N,a5*%
X219456000Y-130702000D03*
%TO.P,U3,6,A4*%
%TO.N,a4*%
X219456000Y-133242000D03*
%TO.P,U3,7,A3*%
%TO.N,a3*%
X219456000Y-135782000D03*
%TO.P,U3,8,A2*%
%TO.N,a2*%
X219456000Y-138322000D03*
%TO.P,U3,9,A1*%
%TO.N,a1*%
X219456000Y-140862000D03*
%TO.P,U3,10,A0*%
%TO.N,a0*%
X219456000Y-143402000D03*
%TO.P,U3,11,D0*%
%TO.N,d0*%
X219456000Y-145942000D03*
%TO.P,U3,12,D1*%
%TO.N,d1*%
X219456000Y-148482000D03*
%TO.P,U3,13,D2*%
%TO.N,d2*%
X219456000Y-151022000D03*
%TO.P,U3,14,GND*%
%TO.N,GND*%
X219456000Y-153562000D03*
%TO.P,U3,15,D3*%
%TO.N,d3*%
X234696000Y-153562000D03*
%TO.P,U3,16,D4*%
%TO.N,d4*%
X234696000Y-151022000D03*
%TO.P,U3,17,D5*%
%TO.N,d5*%
X234696000Y-148482000D03*
%TO.P,U3,18,D6*%
%TO.N,d6*%
X234696000Y-145942000D03*
%TO.P,U3,19,D7*%
%TO.N,d7*%
X234696000Y-143402000D03*
%TO.P,U3,20,~{CS}*%
%TO.N,ROM_CS*%
X234696000Y-140862000D03*
%TO.P,U3,21,A10*%
%TO.N,a10*%
X234696000Y-138322000D03*
%TO.P,U3,22,~{OE}*%
%TO.N,GND*%
X234696000Y-135782000D03*
%TO.P,U3,23,A11*%
%TO.N,a11*%
X234696000Y-133242000D03*
%TO.P,U3,24,A9*%
%TO.N,a9*%
X234696000Y-130702000D03*
%TO.P,U3,25,A8*%
%TO.N,a8*%
X234696000Y-128162000D03*
%TO.P,U3,26,A13*%
%TO.N,a13*%
X234696000Y-125622000D03*
%TO.P,U3,27,~{WE}*%
%TO.N,WE*%
X234696000Y-123082000D03*
%TO.P,U3,28,VCC*%
%TO.N,+5V*%
X234696000Y-120542000D03*
%TD*%
D12*
%TO.P,U2,1,S0*%
%TO.N,VIA1_CS*%
X152908000Y-110993000D03*
D13*
%TO.P,U2,2,S1*%
%TO.N,VIA2_CS*%
X152908000Y-113533000D03*
%TO.P,U2,3,S2*%
%TO.N,ACIA_CS*%
X152908000Y-116073000D03*
%TO.P,U2,4,S3*%
%TO.N,PSG1_CS*%
X152908000Y-118613000D03*
%TO.P,U2,5,S4*%
%TO.N,PSG2_CS*%
X152908000Y-121153000D03*
%TO.P,U2,6,S5*%
%TO.N,IO0*%
X152908000Y-123693000D03*
%TO.P,U2,7,S6*%
%TO.N,IO1*%
X152908000Y-126233000D03*
%TO.P,U2,8,S7*%
%TO.N,IO2*%
X152908000Y-128773000D03*
%TO.P,U2,9,S8*%
%TO.N,IO3*%
X152908000Y-131313000D03*
%TO.P,U2,10,S9*%
%TO.N,IO4*%
X152908000Y-133853000D03*
%TO.P,U2,11,S10*%
%TO.N,IO5*%
X152908000Y-136393000D03*
%TO.P,U2,12,GND*%
%TO.N,GND*%
X152908000Y-138933000D03*
%TO.P,U2,13,S11*%
%TO.N,IO6*%
X160528000Y-138933000D03*
%TO.P,U2,14,S12*%
%TO.N,IO7*%
X160528000Y-136393000D03*
%TO.P,U2,15,S13*%
%TO.N,IO8*%
X160528000Y-133853000D03*
%TO.P,U2,16,S14*%
%TO.N,IO9*%
X160528000Y-131313000D03*
%TO.P,U2,17,S15*%
%TO.N,IO10*%
X160528000Y-128773000D03*
%TO.P,U2,18,E0*%
%TO.N,a15*%
X160528000Y-126233000D03*
%TO.P,U2,19,E1*%
%TO.N,DEVICE_CS*%
X160528000Y-123693000D03*
%TO.P,U2,20,A3*%
%TO.N,a7*%
X160528000Y-121153000D03*
%TO.P,U2,21,A2*%
%TO.N,a6*%
X160528000Y-118613000D03*
%TO.P,U2,22,A1*%
%TO.N,a5*%
X160528000Y-116073000D03*
%TO.P,U2,23,A0*%
%TO.N,a4*%
X160528000Y-113533000D03*
%TO.P,U2,24,VCC*%
%TO.N,+5V*%
X160528000Y-110993000D03*
%TD*%
%TO.P,U1,14,VCC*%
%TO.N,+5V*%
X124460000Y-137160000D03*
%TO.P,U1,13*%
%TO.N,N/C*%
X124460000Y-139700000D03*
%TO.P,U1,12*%
X124460000Y-142240000D03*
%TO.P,U1,11*%
X124460000Y-144780000D03*
%TO.P,U1,10*%
X124460000Y-147320000D03*
%TO.P,U1,9*%
X124460000Y-149860000D03*
%TO.P,U1,8*%
X124460000Y-152400000D03*
%TO.P,U1,7,GND*%
%TO.N,GND*%
X116840000Y-152400000D03*
%TO.P,U1,6*%
%TO.N,IRQ*%
X116840000Y-149860000D03*
%TO.P,U1,5*%
%TO.N,ACIA_IRQ*%
X116840000Y-147320000D03*
%TO.P,U1,4*%
%TO.N,Net-(U1-Pad3)*%
X116840000Y-144780000D03*
%TO.P,U1,3*%
X116840000Y-142240000D03*
%TO.P,U1,2*%
%TO.N,2VIA_IRQ*%
X116840000Y-139700000D03*
D12*
%TO.P,U1,1*%
%TO.N,1VIA_IRQ*%
X116840000Y-137160000D03*
%TD*%
D17*
%TO.P,SW3,6*%
%TO.N,N/C*%
X57912000Y-103632000D03*
%TO.P,SW3,5*%
X55412000Y-103632000D03*
%TO.P,SW3,4*%
X52912000Y-103632000D03*
%TO.P,SW3,3*%
X57912000Y-97632000D03*
%TO.P,SW3,2*%
%TO.N,Net-(Q1-D)*%
X55412000Y-97632000D03*
D18*
%TO.P,SW3,1*%
%TO.N,Net-(J6-Pad1)*%
X52912000Y-97632000D03*
%TD*%
D19*
%TO.P,SW2,1,1*%
%TO.N,RESET*%
X58928000Y-111542000D03*
X52428000Y-111542000D03*
%TO.P,SW2,2,2*%
%TO.N,GND*%
X52428000Y-116042000D03*
X58928000Y-116042000D03*
%TD*%
%TO.P,SW1,1,1*%
%TO.N,Net-(R1-Pad2)*%
X58928000Y-125548000D03*
X52428000Y-125548000D03*
%TO.P,SW1,2,2*%
%TO.N,GND*%
X52428000Y-130048000D03*
X58928000Y-130048000D03*
%TD*%
D20*
%TO.P,RV1,1,1*%
%TO.N,GND*%
X154432000Y-44704000D03*
%TO.P,RV1,2,2*%
%TO.N,Net-(U10-VO)*%
X156972000Y-42164000D03*
%TO.P,RV1,3,3*%
%TO.N,+5V*%
X154432000Y-39624000D03*
%TD*%
D13*
%TO.P,R24,2*%
%TO.N,Net-(U16-ch_A)*%
X81280000Y-171704000D03*
D11*
%TO.P,R24,1*%
%TO.N,Net-(C27-Pad1)*%
X71120000Y-171704000D03*
%TD*%
D13*
%TO.P,R23,2*%
%TO.N,GND*%
X81280000Y-185928000D03*
D11*
%TO.P,R23,1*%
%TO.N,Net-(C27-Pad1)*%
X71120000Y-185928000D03*
%TD*%
%TO.P,R22,1*%
%TO.N,Net-(C27-Pad1)*%
X71120000Y-176276000D03*
D13*
%TO.P,R22,2*%
%TO.N,Net-(U16-ch_B)*%
X81280000Y-176276000D03*
%TD*%
%TO.P,R21,2*%
%TO.N,Net-(U16-ch_C)*%
X81280000Y-180848000D03*
D11*
%TO.P,R21,1*%
%TO.N,Net-(C27-Pad1)*%
X71120000Y-180848000D03*
%TD*%
D13*
%TO.P,R20,2*%
%TO.N,GND*%
X113792000Y-171196000D03*
D11*
%TO.P,R20,1*%
%TO.N,Net-(U16-~{A9})*%
X123952000Y-171196000D03*
%TD*%
%TO.P,R19,1*%
%TO.N,+5V*%
X113792000Y-180340000D03*
D13*
%TO.P,R19,2*%
%TO.N,Net-(U16-A8)*%
X123952000Y-180340000D03*
%TD*%
D11*
%TO.P,R18,1*%
%TO.N,Net-(C22-Pad1)*%
X64516000Y-176784000D03*
D13*
%TO.P,R18,2*%
%TO.N,Net-(U15-ch_A)*%
X54356000Y-176784000D03*
%TD*%
%TO.P,R17,2*%
%TO.N,GND*%
X54356000Y-186436000D03*
D11*
%TO.P,R17,1*%
%TO.N,Net-(C22-Pad1)*%
X64516000Y-186436000D03*
%TD*%
%TO.P,R16,1*%
%TO.N,Net-(C22-Pad1)*%
X64516000Y-181356000D03*
D13*
%TO.P,R16,2*%
%TO.N,Net-(U15-ch_B)*%
X54356000Y-181356000D03*
%TD*%
D11*
%TO.P,R15,1*%
%TO.N,Net-(C22-Pad1)*%
X54356000Y-171704000D03*
D13*
%TO.P,R15,2*%
%TO.N,Net-(U15-ch_C)*%
X64516000Y-171704000D03*
%TD*%
D11*
%TO.P,R14,1*%
%TO.N,Net-(U15-~{A9})*%
X123952000Y-175768000D03*
D13*
%TO.P,R14,2*%
%TO.N,GND*%
X113792000Y-175768000D03*
%TD*%
D11*
%TO.P,R13,1*%
%TO.N,+5V*%
X113792000Y-166624000D03*
D13*
%TO.P,R13,2*%
%TO.N,Net-(U15-A8)*%
X123952000Y-166624000D03*
%TD*%
D11*
%TO.P,R12,1*%
%TO.N,Net-(U11-THR)*%
X57404000Y-159512000D03*
D13*
%TO.P,R12,2*%
%TO.N,GND*%
X57404000Y-149352000D03*
%TD*%
D11*
%TO.P,R11,1*%
%TO.N,1pb7*%
X87884000Y-99060000D03*
D13*
%TO.P,R11,2*%
%TO.N,Net-(D2-A)*%
X77724000Y-99060000D03*
%TD*%
D11*
%TO.P,R10,1*%
%TO.N,Net-(D1-A)*%
X43688000Y-57404000D03*
D13*
%TO.P,R10,2*%
%TO.N,+5V*%
X33528000Y-57404000D03*
%TD*%
D11*
%TO.P,R9,1*%
%TO.N,BE*%
X80772000Y-132080000D03*
D13*
%TO.P,R9,2*%
%TO.N,+5V*%
X70612000Y-132080000D03*
%TD*%
D11*
%TO.P,R8,1*%
%TO.N,+5V*%
X70612000Y-136652000D03*
D13*
%TO.P,R8,2*%
%TO.N,RESET*%
X80772000Y-136652000D03*
%TD*%
D11*
%TO.P,R7,1*%
%TO.N,GND*%
X181356000Y-146304000D03*
D13*
%TO.P,R7,2*%
%TO.N,1pa3*%
X181356000Y-136144000D03*
%TD*%
D11*
%TO.P,R6,1*%
%TO.N,GND*%
X176784000Y-146304000D03*
D13*
%TO.P,R6,2*%
%TO.N,1pa2*%
X176784000Y-136144000D03*
%TD*%
%TO.P,R5,2*%
%TO.N,1pa1*%
X172212000Y-136144000D03*
D11*
%TO.P,R5,1*%
%TO.N,GND*%
X172212000Y-146304000D03*
%TD*%
%TO.P,R4,1*%
%TO.N,GND*%
X167640000Y-146304000D03*
D13*
%TO.P,R4,2*%
%TO.N,1pa0*%
X167640000Y-136144000D03*
%TD*%
D11*
%TO.P,R3,1*%
%TO.N,+5V*%
X70612000Y-111252000D03*
D13*
%TO.P,R3,2*%
%TO.N,RDY*%
X80772000Y-111252000D03*
%TD*%
%TO.P,R2,2*%
%TO.N,Net-(R1-Pad2)*%
X80772000Y-116332000D03*
D11*
%TO.P,R2,1*%
%TO.N,+5V*%
X70612000Y-116332000D03*
%TD*%
%TO.P,R1,1*%
%TO.N,NMI*%
X70612000Y-120904000D03*
D13*
%TO.P,R1,2*%
%TO.N,Net-(R1-Pad2)*%
X80772000Y-120904000D03*
%TD*%
D21*
%TO.P,Q1,1,G*%
%TO.N,GND*%
X36576000Y-86797000D03*
D22*
%TO.P,Q1,2,D*%
%TO.N,Net-(Q1-D)*%
X39116000Y-86797000D03*
%TO.P,Q1,3,S*%
%TO.N,+5V*%
X41656000Y-86797000D03*
%TD*%
D23*
%TO.P,JP1,2,B*%
%TO.N,Net-(JP1-B)*%
X99060000Y-169672000D03*
D24*
%TO.P,JP1,1,A*%
%TO.N,PHI2*%
X96520000Y-169672000D03*
%TD*%
D25*
%TO.P,J19,5*%
%TO.N,unconnected-(J19-Pad5)*%
X44068000Y-175260000D03*
D26*
%TO.P,J19,4*%
%TO.N,AUDIO_OUT_RIGHT*%
X40318000Y-173260000D03*
%TO.P,J19,3*%
%TO.N,unconnected-(J19-Pad3)*%
X38418000Y-175260000D03*
D27*
%TO.P,J19,2*%
%TO.N,AUDIO_OUT_LEFT*%
X34718000Y-173260000D03*
%TO.P,J19,1*%
%TO.N,GND*%
X32268000Y-175260000D03*
%TD*%
D24*
%TO.P,J18,1,Pin_1*%
%TO.N,PSG2IOB0*%
X100076000Y-209296000D03*
D23*
%TO.P,J18,2,Pin_2*%
%TO.N,PSG2IOB1*%
X97536000Y-209296000D03*
%TO.P,J18,3,Pin_3*%
%TO.N,PSG2IOB2*%
X94996000Y-209296000D03*
%TO.P,J18,4,Pin_4*%
%TO.N,PSG2IOB3*%
X92456000Y-209296000D03*
%TO.P,J18,5,Pin_5*%
%TO.N,PSG2IOB4*%
X89916000Y-209296000D03*
%TO.P,J18,6,Pin_6*%
%TO.N,PSG2IOB5*%
X87376000Y-209296000D03*
%TO.P,J18,7,Pin_7*%
%TO.N,PSG2IOB6*%
X84836000Y-209296000D03*
%TO.P,J18,8,Pin_8*%
%TO.N,PSG2IOB7*%
X82296000Y-209296000D03*
%TD*%
D24*
%TO.P,J17,1,Pin_1*%
%TO.N,PSG2IOA0*%
X123952000Y-209296000D03*
D23*
%TO.P,J17,2,Pin_2*%
%TO.N,PSG2IOA1*%
X121412000Y-209296000D03*
%TO.P,J17,3,Pin_3*%
%TO.N,PSG2IOA2*%
X118872000Y-209296000D03*
%TO.P,J17,4,Pin_4*%
%TO.N,PSG2IOA3*%
X116332000Y-209296000D03*
%TO.P,J17,5,Pin_5*%
%TO.N,PSG2IOA4*%
X113792000Y-209296000D03*
%TO.P,J17,6,Pin_6*%
%TO.N,PSG2IOA5*%
X111252000Y-209296000D03*
%TO.P,J17,7,Pin_7*%
%TO.N,PSG2IOA6*%
X108712000Y-209296000D03*
%TO.P,J17,8,Pin_8*%
%TO.N,PSG2IOA7*%
X106172000Y-209296000D03*
%TD*%
D24*
%TO.P,J16,1,Pin_1*%
%TO.N,PSG1IOA0*%
X124460000Y-199644000D03*
D23*
%TO.P,J16,2,Pin_2*%
%TO.N,PSG1IOA1*%
X121920000Y-199644000D03*
%TO.P,J16,3,Pin_3*%
%TO.N,PSG1IOA2*%
X119380000Y-199644000D03*
%TO.P,J16,4,Pin_4*%
%TO.N,PSG1IOA3*%
X116840000Y-199644000D03*
%TO.P,J16,5,Pin_5*%
%TO.N,PSG1IOA4*%
X114300000Y-199644000D03*
%TO.P,J16,6,Pin_6*%
%TO.N,PSG1IOA5*%
X111760000Y-199644000D03*
%TO.P,J16,7,Pin_7*%
%TO.N,PSG1IOA6*%
X109220000Y-199644000D03*
%TO.P,J16,8,Pin_8*%
%TO.N,PSG1IOA7*%
X106680000Y-199644000D03*
%TD*%
%TO.P,J15,8,Pin_8*%
%TO.N,PSG1IOB7*%
X82296000Y-199644000D03*
%TO.P,J15,7,Pin_7*%
%TO.N,PSG1IOB6*%
X84836000Y-199644000D03*
%TO.P,J15,6,Pin_6*%
%TO.N,PSG1IOB5*%
X87376000Y-199644000D03*
%TO.P,J15,5,Pin_5*%
%TO.N,PSG1IOB4*%
X89916000Y-199644000D03*
%TO.P,J15,4,Pin_4*%
%TO.N,PSG1IOB3*%
X92456000Y-199644000D03*
%TO.P,J15,3,Pin_3*%
%TO.N,PSG1IOB2*%
X94996000Y-199644000D03*
%TO.P,J15,2,Pin_2*%
%TO.N,PSG1IOB1*%
X97536000Y-199644000D03*
D24*
%TO.P,J15,1,Pin_1*%
%TO.N,PSG1IOB0*%
X100076000Y-199644000D03*
%TD*%
%TO.P,J14,1,Pin_1*%
%TO.N,unconnected-(J14-Pin_1-Pad1)*%
X189992000Y-210312000D03*
D23*
%TO.P,J14,2,Pin_2*%
%TO.N,unconnected-(J14-Pin_2-Pad2)*%
X192532000Y-210312000D03*
%TO.P,J14,3,Pin_3*%
%TO.N,unconnected-(J14-Pin_3-Pad3)*%
X195072000Y-210312000D03*
%TO.P,J14,4,Pin_4*%
%TO.N,unconnected-(J14-Pin_4-Pad4)*%
X197612000Y-210312000D03*
%TO.P,J14,5,Pin_5*%
%TO.N,unconnected-(J14-Pin_5-Pad5)*%
X200152000Y-210312000D03*
%TD*%
D11*
%TO.P,J13,9,9*%
%TO.N,unconnected-(J13-Pad9)*%
X43792000Y-149569000D03*
%TO.P,J13,8,8*%
%TO.N,unconnected-(J13-Pad8)*%
X43792000Y-152339000D03*
%TO.P,J13,7,7*%
%TO.N,unconnected-(J13-Pad7)*%
X43792000Y-155109000D03*
%TO.P,J13,6,6*%
%TO.N,unconnected-(J13-Pad6)*%
X43792000Y-157879000D03*
%TO.P,J13,5,5*%
%TO.N,GND*%
X46632000Y-148184000D03*
%TO.P,J13,4,4*%
%TO.N,unconnected-(J13-Pad4)*%
X46632000Y-150954000D03*
%TO.P,J13,3,3*%
%TO.N,Net-(U13-R1IN)*%
X46632000Y-153724000D03*
%TO.P,J13,2,2*%
%TO.N,Net-(U13-T1OUT)*%
X46632000Y-156494000D03*
D12*
%TO.P,J13,1,1*%
%TO.N,unconnected-(J13-Pad1)*%
X46632000Y-159264000D03*
D28*
%TO.P,J13,0*%
%TO.N,N/C*%
X45212000Y-141224000D03*
X45212000Y-166224000D03*
%TD*%
D24*
%TO.P,J12,1,Pin_1*%
%TO.N,IO3*%
X63500000Y-209296000D03*
D23*
%TO.P,J12,2,Pin_2*%
%TO.N,IO4*%
X60960000Y-209296000D03*
%TO.P,J12,3,Pin_3*%
%TO.N,IO5*%
X58420000Y-209296000D03*
%TO.P,J12,4,Pin_4*%
%TO.N,IO6*%
X55880000Y-209296000D03*
%TO.P,J12,5,Pin_5*%
%TO.N,IO7*%
X53340000Y-209296000D03*
%TO.P,J12,6,Pin_6*%
%TO.N,IO8*%
X50800000Y-209296000D03*
%TO.P,J12,7,Pin_7*%
%TO.N,IO9*%
X48260000Y-209296000D03*
%TO.P,J12,8,Pin_8*%
%TO.N,IO10*%
X45720000Y-209296000D03*
%TD*%
D29*
%TO.P,J11,7*%
%TO.N,N/C*%
X34760000Y-135882000D03*
X34760000Y-122182000D03*
D12*
%TO.P,J11,1*%
%TO.N,1pa7*%
X31910000Y-127732000D03*
D11*
%TO.P,J11,2*%
%TO.N,unconnected-(J11-Pad2)*%
X31910000Y-130332000D03*
%TO.P,J11,3*%
%TO.N,GND*%
X31910000Y-125632000D03*
%TO.P,J11,4*%
%TO.N,+5V*%
X31910000Y-132432000D03*
%TO.P,J11,5*%
%TO.N,1pa6*%
X29110000Y-125632000D03*
%TO.P,J11,6*%
%TO.N,unconnected-(J11-Pad6)*%
X29110000Y-132432000D03*
D30*
%TO.P,J11,7*%
%TO.N,N/C*%
X35560000Y-129032000D03*
%TD*%
D24*
%TO.P,J10,1,Pin_1*%
%TO.N,a0*%
X84836000Y-42164000D03*
D23*
%TO.P,J10,2,Pin_2*%
%TO.N,d0*%
X87376000Y-42164000D03*
%TO.P,J10,3,Pin_3*%
%TO.N,a1*%
X84836000Y-44704000D03*
%TO.P,J10,4,Pin_4*%
%TO.N,d1*%
X87376000Y-44704000D03*
%TO.P,J10,5,Pin_5*%
%TO.N,a2*%
X84836000Y-47244000D03*
%TO.P,J10,6,Pin_6*%
%TO.N,d2*%
X87376000Y-47244000D03*
%TO.P,J10,7,Pin_7*%
%TO.N,a3*%
X84836000Y-49784000D03*
%TO.P,J10,8,Pin_8*%
%TO.N,d3*%
X87376000Y-49784000D03*
%TO.P,J10,9,Pin_9*%
%TO.N,a4*%
X84836000Y-52324000D03*
%TO.P,J10,10,Pin_10*%
%TO.N,d4*%
X87376000Y-52324000D03*
%TO.P,J10,11,Pin_11*%
%TO.N,a5*%
X84836000Y-54864000D03*
%TO.P,J10,12,Pin_12*%
%TO.N,d5*%
X87376000Y-54864000D03*
%TO.P,J10,13,Pin_13*%
%TO.N,a6*%
X84836000Y-57404000D03*
%TO.P,J10,14,Pin_14*%
%TO.N,d6*%
X87376000Y-57404000D03*
%TO.P,J10,15,Pin_15*%
%TO.N,a7*%
X84836000Y-59944000D03*
%TO.P,J10,16,Pin_16*%
%TO.N,d7*%
X87376000Y-59944000D03*
%TO.P,J10,17,Pin_17*%
%TO.N,a8*%
X84836000Y-62484000D03*
%TO.P,J10,18,Pin_18*%
%TO.N,RW*%
X87376000Y-62484000D03*
%TO.P,J10,19,Pin_19*%
%TO.N,a9*%
X84836000Y-65024000D03*
%TO.P,J10,20,Pin_20*%
%TO.N,PHI2*%
X87376000Y-65024000D03*
%TO.P,J10,21,Pin_21*%
%TO.N,a10*%
X84836000Y-67564000D03*
%TO.P,J10,22,Pin_22*%
%TO.N,RESET*%
X87376000Y-67564000D03*
%TO.P,J10,23,Pin_23*%
%TO.N,a11*%
X84836000Y-70104000D03*
%TO.P,J10,24,Pin_24*%
%TO.N,SYNC*%
X87376000Y-70104000D03*
%TO.P,J10,25,Pin_25*%
%TO.N,a12*%
X84836000Y-72644000D03*
%TO.P,J10,26,Pin_26*%
%TO.N,IRQ*%
X87376000Y-72644000D03*
%TO.P,J10,27,Pin_27*%
%TO.N,a13*%
X84836000Y-75184000D03*
%TO.P,J10,28,Pin_28*%
%TO.N,BE*%
X87376000Y-75184000D03*
%TO.P,J10,29,Pin_29*%
%TO.N,a14*%
X84836000Y-77724000D03*
%TO.P,J10,30,Pin_30*%
%TO.N,RDY*%
X87376000Y-77724000D03*
%TO.P,J10,31,Pin_31*%
%TO.N,a15*%
X84836000Y-80264000D03*
%TO.P,J10,32,Pin_32*%
%TO.N,VP*%
X87376000Y-80264000D03*
%TO.P,J10,33,Pin_33*%
%TO.N,/interface/IO2*%
X84836000Y-82804000D03*
%TO.P,J10,34,Pin_34*%
%TO.N,ML*%
X87376000Y-82804000D03*
%TO.P,J10,35,Pin_35*%
%TO.N,OE*%
X84836000Y-85344000D03*
%TO.P,J10,36,Pin_36*%
%TO.N,NMI*%
X87376000Y-85344000D03*
%TO.P,J10,37,Pin_37*%
%TO.N,+5V*%
X84836000Y-87884000D03*
%TO.P,J10,38,Pin_38*%
%TO.N,WE*%
X87376000Y-87884000D03*
%TO.P,J10,39,Pin_39*%
%TO.N,GND*%
X84836000Y-90424000D03*
%TO.P,J10,40,Pin_40*%
X87376000Y-90424000D03*
%TD*%
D29*
%TO.P,J9,7*%
%TO.N,N/C*%
X34854000Y-118834000D03*
X34854000Y-105134000D03*
D12*
%TO.P,J9,1*%
%TO.N,1pa5*%
X32004000Y-110684000D03*
D11*
%TO.P,J9,2*%
%TO.N,unconnected-(J9-Pad2)*%
X32004000Y-113284000D03*
%TO.P,J9,3*%
%TO.N,GND*%
X32004000Y-108584000D03*
%TO.P,J9,4*%
%TO.N,+5V*%
X32004000Y-115384000D03*
%TO.P,J9,5*%
%TO.N,1pa4*%
X29204000Y-108584000D03*
%TO.P,J9,6*%
%TO.N,unconnected-(J9-Pad6)*%
X29204000Y-115384000D03*
D30*
%TO.P,J9,7*%
%TO.N,N/C*%
X35654000Y-111984000D03*
%TD*%
D24*
%TO.P,J8,1,Pin_1*%
%TO.N,+5V*%
X40132000Y-64008000D03*
D23*
%TO.P,J8,2,Pin_2*%
%TO.N,GND*%
X37592000Y-64008000D03*
%TD*%
D24*
%TO.P,J7,1,Pin_1*%
%TO.N,a0*%
X69088000Y-42164000D03*
D23*
%TO.P,J7,2,Pin_2*%
%TO.N,d0*%
X71628000Y-42164000D03*
%TO.P,J7,3,Pin_3*%
%TO.N,a1*%
X69088000Y-44704000D03*
%TO.P,J7,4,Pin_4*%
%TO.N,d1*%
X71628000Y-44704000D03*
%TO.P,J7,5,Pin_5*%
%TO.N,a2*%
X69088000Y-47244000D03*
%TO.P,J7,6,Pin_6*%
%TO.N,d2*%
X71628000Y-47244000D03*
%TO.P,J7,7,Pin_7*%
%TO.N,a3*%
X69088000Y-49784000D03*
%TO.P,J7,8,Pin_8*%
%TO.N,d3*%
X71628000Y-49784000D03*
%TO.P,J7,9,Pin_9*%
%TO.N,a4*%
X69088000Y-52324000D03*
%TO.P,J7,10,Pin_10*%
%TO.N,d4*%
X71628000Y-52324000D03*
%TO.P,J7,11,Pin_11*%
%TO.N,a5*%
X69088000Y-54864000D03*
%TO.P,J7,12,Pin_12*%
%TO.N,d5*%
X71628000Y-54864000D03*
%TO.P,J7,13,Pin_13*%
%TO.N,a6*%
X69088000Y-57404000D03*
%TO.P,J7,14,Pin_14*%
%TO.N,d6*%
X71628000Y-57404000D03*
%TO.P,J7,15,Pin_15*%
%TO.N,a7*%
X69088000Y-59944000D03*
%TO.P,J7,16,Pin_16*%
%TO.N,d7*%
X71628000Y-59944000D03*
%TO.P,J7,17,Pin_17*%
%TO.N,a8*%
X69088000Y-62484000D03*
%TO.P,J7,18,Pin_18*%
%TO.N,RW*%
X71628000Y-62484000D03*
%TO.P,J7,19,Pin_19*%
%TO.N,a9*%
X69088000Y-65024000D03*
%TO.P,J7,20,Pin_20*%
%TO.N,PHI2*%
X71628000Y-65024000D03*
%TO.P,J7,21,Pin_21*%
%TO.N,a10*%
X69088000Y-67564000D03*
%TO.P,J7,22,Pin_22*%
%TO.N,RESET*%
X71628000Y-67564000D03*
%TO.P,J7,23,Pin_23*%
%TO.N,a11*%
X69088000Y-70104000D03*
%TO.P,J7,24,Pin_24*%
%TO.N,SYNC*%
X71628000Y-70104000D03*
%TO.P,J7,25,Pin_25*%
%TO.N,a12*%
X69088000Y-72644000D03*
%TO.P,J7,26,Pin_26*%
%TO.N,IRQ*%
X71628000Y-72644000D03*
%TO.P,J7,27,Pin_27*%
%TO.N,a13*%
X69088000Y-75184000D03*
%TO.P,J7,28,Pin_28*%
%TO.N,BE*%
X71628000Y-75184000D03*
%TO.P,J7,29,Pin_29*%
%TO.N,a14*%
X69088000Y-77724000D03*
%TO.P,J7,30,Pin_30*%
%TO.N,RDY*%
X71628000Y-77724000D03*
%TO.P,J7,31,Pin_31*%
%TO.N,a15*%
X69088000Y-80264000D03*
%TO.P,J7,32,Pin_32*%
%TO.N,VP*%
X71628000Y-80264000D03*
%TO.P,J7,33,Pin_33*%
%TO.N,/interface/IO1*%
X69088000Y-82804000D03*
%TO.P,J7,34,Pin_34*%
%TO.N,ML*%
X71628000Y-82804000D03*
%TO.P,J7,35,Pin_35*%
%TO.N,OE*%
X69088000Y-85344000D03*
%TO.P,J7,36,Pin_36*%
%TO.N,NMI*%
X71628000Y-85344000D03*
%TO.P,J7,37,Pin_37*%
%TO.N,+5V*%
X69088000Y-87884000D03*
%TO.P,J7,38,Pin_38*%
%TO.N,WE*%
X71628000Y-87884000D03*
%TO.P,J7,39,Pin_39*%
%TO.N,GND*%
X69088000Y-90424000D03*
%TO.P,J7,40,Pin_40*%
X71628000Y-90424000D03*
%TD*%
D31*
%TO.P,J6,3*%
%TO.N,N/C*%
X38052000Y-100262500D03*
D32*
%TO.P,J6,2*%
%TO.N,GND*%
X35052000Y-95562500D03*
D33*
%TO.P,J6,1*%
%TO.N,Net-(J6-Pad1)*%
X41052000Y-95562500D03*
%TD*%
D24*
%TO.P,J5,1,Pin_1*%
%TO.N,decode0*%
X55372000Y-203200000D03*
D23*
%TO.P,J5,2,Pin_2*%
%TO.N,decode1*%
X57912000Y-203200000D03*
%TO.P,J5,3,Pin_3*%
%TO.N,decode2*%
X60452000Y-203200000D03*
%TO.P,J5,4,Pin_4*%
%TO.N,decode3*%
X62992000Y-203200000D03*
%TD*%
D24*
%TO.P,J4,1,Pin_1*%
%TO.N,2pa0*%
X125476000Y-53101000D03*
D23*
%TO.P,J4,2,Pin_2*%
%TO.N,2pa1*%
X125476000Y-55641000D03*
%TO.P,J4,3,Pin_3*%
%TO.N,2pa2*%
X125476000Y-58181000D03*
%TO.P,J4,4,Pin_4*%
%TO.N,2pa3*%
X125476000Y-60721000D03*
%TO.P,J4,5,Pin_5*%
%TO.N,2pa4*%
X125476000Y-63261000D03*
%TO.P,J4,6,Pin_6*%
%TO.N,2pa5*%
X125476000Y-65801000D03*
%TO.P,J4,7,Pin_7*%
%TO.N,2pa6*%
X125476000Y-68341000D03*
%TO.P,J4,8,Pin_8*%
%TO.N,2pa7*%
X125476000Y-70881000D03*
%TD*%
D24*
%TO.P,J3,1,Pin_1*%
%TO.N,1CB2*%
X117109000Y-40132000D03*
D23*
%TO.P,J3,2,Pin_2*%
%TO.N,1CB1*%
X119649000Y-40132000D03*
%TO.P,J3,3,Pin_3*%
%TO.N,1CA1*%
X122189000Y-40132000D03*
%TO.P,J3,4,Pin_4*%
%TO.N,1CA2*%
X124729000Y-40132000D03*
%TO.P,J3,5,Pin_5*%
%TO.N,2CB1*%
X127269000Y-40132000D03*
%TO.P,J3,6,Pin_6*%
%TO.N,2CB2*%
X129809000Y-40132000D03*
%TO.P,J3,7,Pin_7*%
%TO.N,2CA1*%
X132349000Y-40132000D03*
%TO.P,J3,8,Pin_8*%
%TO.N,2CA2*%
X134889000Y-40132000D03*
%TD*%
D24*
%TO.P,J2,1,Pin_1*%
%TO.N,a0*%
X53340000Y-42164000D03*
D23*
%TO.P,J2,2,Pin_2*%
%TO.N,d0*%
X55880000Y-42164000D03*
%TO.P,J2,3,Pin_3*%
%TO.N,a1*%
X53340000Y-44704000D03*
%TO.P,J2,4,Pin_4*%
%TO.N,d1*%
X55880000Y-44704000D03*
%TO.P,J2,5,Pin_5*%
%TO.N,a2*%
X53340000Y-47244000D03*
%TO.P,J2,6,Pin_6*%
%TO.N,d2*%
X55880000Y-47244000D03*
%TO.P,J2,7,Pin_7*%
%TO.N,a3*%
X53340000Y-49784000D03*
%TO.P,J2,8,Pin_8*%
%TO.N,d3*%
X55880000Y-49784000D03*
%TO.P,J2,9,Pin_9*%
%TO.N,a4*%
X53340000Y-52324000D03*
%TO.P,J2,10,Pin_10*%
%TO.N,d4*%
X55880000Y-52324000D03*
%TO.P,J2,11,Pin_11*%
%TO.N,a5*%
X53340000Y-54864000D03*
%TO.P,J2,12,Pin_12*%
%TO.N,d5*%
X55880000Y-54864000D03*
%TO.P,J2,13,Pin_13*%
%TO.N,a6*%
X53340000Y-57404000D03*
%TO.P,J2,14,Pin_14*%
%TO.N,d6*%
X55880000Y-57404000D03*
%TO.P,J2,15,Pin_15*%
%TO.N,a7*%
X53340000Y-59944000D03*
%TO.P,J2,16,Pin_16*%
%TO.N,d7*%
X55880000Y-59944000D03*
%TO.P,J2,17,Pin_17*%
%TO.N,a8*%
X53340000Y-62484000D03*
%TO.P,J2,18,Pin_18*%
%TO.N,RW*%
X55880000Y-62484000D03*
%TO.P,J2,19,Pin_19*%
%TO.N,a9*%
X53340000Y-65024000D03*
%TO.P,J2,20,Pin_20*%
%TO.N,PHI2*%
X55880000Y-65024000D03*
%TO.P,J2,21,Pin_21*%
%TO.N,a10*%
X53340000Y-67564000D03*
%TO.P,J2,22,Pin_22*%
%TO.N,RESET*%
X55880000Y-67564000D03*
%TO.P,J2,23,Pin_23*%
%TO.N,a11*%
X53340000Y-70104000D03*
%TO.P,J2,24,Pin_24*%
%TO.N,SYNC*%
X55880000Y-70104000D03*
%TO.P,J2,25,Pin_25*%
%TO.N,a12*%
X53340000Y-72644000D03*
%TO.P,J2,26,Pin_26*%
%TO.N,IRQ*%
X55880000Y-72644000D03*
%TO.P,J2,27,Pin_27*%
%TO.N,a13*%
X53340000Y-75184000D03*
%TO.P,J2,28,Pin_28*%
%TO.N,BE*%
X55880000Y-75184000D03*
%TO.P,J2,29,Pin_29*%
%TO.N,a14*%
X53340000Y-77724000D03*
%TO.P,J2,30,Pin_30*%
%TO.N,RDY*%
X55880000Y-77724000D03*
%TO.P,J2,31,Pin_31*%
%TO.N,a15*%
X53340000Y-80264000D03*
%TO.P,J2,32,Pin_32*%
%TO.N,VP*%
X55880000Y-80264000D03*
%TO.P,J2,33,Pin_33*%
%TO.N,/interface/IO0*%
X53340000Y-82804000D03*
%TO.P,J2,34,Pin_34*%
%TO.N,ML*%
X55880000Y-82804000D03*
%TO.P,J2,35,Pin_35*%
%TO.N,OE*%
X53340000Y-85344000D03*
%TO.P,J2,36,Pin_36*%
%TO.N,NMI*%
X55880000Y-85344000D03*
%TO.P,J2,37,Pin_37*%
%TO.N,+5V*%
X53340000Y-87884000D03*
%TO.P,J2,38,Pin_38*%
%TO.N,WE*%
X55880000Y-87884000D03*
%TO.P,J2,39,Pin_39*%
%TO.N,GND*%
X53340000Y-90424000D03*
%TO.P,J2,40,Pin_40*%
X55880000Y-90424000D03*
%TD*%
D24*
%TO.P,J1,1,Pin_1*%
%TO.N,2pb0*%
X125476000Y-76708000D03*
D23*
%TO.P,J1,2,Pin_2*%
%TO.N,2pb1*%
X125476000Y-79248000D03*
%TO.P,J1,3,Pin_3*%
%TO.N,2pb2*%
X125476000Y-81788000D03*
%TO.P,J1,4,Pin_4*%
%TO.N,2pb3*%
X125476000Y-84328000D03*
%TO.P,J1,5,Pin_5*%
%TO.N,2pb4*%
X125476000Y-86868000D03*
%TO.P,J1,6,Pin_6*%
%TO.N,2pb5*%
X125476000Y-89408000D03*
%TO.P,J1,7,Pin_7*%
%TO.N,2pb6*%
X125476000Y-91948000D03*
%TO.P,J1,8,Pin_8*%
%TO.N,2pb7*%
X125476000Y-94488000D03*
%TD*%
D18*
%TO.P,D2,1,K*%
%TO.N,GND*%
X69088000Y-99060000D03*
D17*
%TO.P,D2,2,A*%
%TO.N,Net-(D2-A)*%
X71628000Y-99060000D03*
%TD*%
D18*
%TO.P,D1,1,K*%
%TO.N,GND*%
X37084000Y-50800000D03*
D17*
%TO.P,D1,2,A*%
%TO.N,Net-(D1-A)*%
X39624000Y-50800000D03*
%TD*%
D11*
%TO.P,C28,1*%
%TO.N,Net-(C27-Pad1)*%
X61936000Y-192024000D03*
%TO.P,C28,2*%
%TO.N,GND*%
X56936000Y-192024000D03*
%TD*%
%TO.P,C27,1*%
%TO.N,Net-(C27-Pad1)*%
X33052000Y-186944000D03*
%TO.P,C27,2*%
%TO.N,AUDIO_OUT_LEFT*%
X35052000Y-186944000D03*
%TD*%
%TO.P,C26,1*%
%TO.N,+5V*%
X197572000Y-165100000D03*
%TO.P,C26,2*%
%TO.N,GND*%
X192572000Y-165100000D03*
%TD*%
%TO.P,C25,2*%
%TO.N,GND*%
X162092000Y-152400000D03*
%TO.P,C25,1*%
%TO.N,+5V*%
X167092000Y-152400000D03*
%TD*%
%TO.P,C24,1*%
%TO.N,+5V*%
X229576000Y-182372000D03*
%TO.P,C24,2*%
%TO.N,GND*%
X224576000Y-182372000D03*
%TD*%
%TO.P,C23,1*%
%TO.N,Net-(C22-Pad1)*%
X73740000Y-191516000D03*
%TO.P,C23,2*%
%TO.N,GND*%
X78740000Y-191516000D03*
%TD*%
%TO.P,C22,1*%
%TO.N,Net-(C22-Pad1)*%
X42164000Y-186944000D03*
%TO.P,C22,2*%
%TO.N,AUDIO_OUT_RIGHT*%
X44164000Y-186944000D03*
%TD*%
%TO.P,C21,1*%
%TO.N,GND*%
X215900000Y-206756000D03*
%TO.P,C21,2*%
%TO.N,Net-(U13-VS-)*%
X213900000Y-206756000D03*
%TD*%
%TO.P,C20,1*%
%TO.N,Net-(U13-VS+)*%
X215884000Y-183896000D03*
%TO.P,C20,2*%
%TO.N,GND*%
X213884000Y-183896000D03*
%TD*%
%TO.P,C19,1*%
%TO.N,Net-(U13-C2+)*%
X215900000Y-199136000D03*
%TO.P,C19,2*%
%TO.N,Net-(U13-C2-)*%
X213900000Y-199136000D03*
%TD*%
%TO.P,C18,1*%
%TO.N,Net-(U13-C1+)*%
X215900000Y-191516000D03*
%TO.P,C18,2*%
%TO.N,Net-(U13-C1-)*%
X213900000Y-191516000D03*
%TD*%
%TO.P,C17,1*%
%TO.N,+5V*%
X140676000Y-152400000D03*
%TO.P,C17,2*%
%TO.N,GND*%
X135676000Y-152400000D03*
%TD*%
%TO.P,C16,1*%
%TO.N,+5V*%
X66832000Y-146304000D03*
%TO.P,C16,2*%
%TO.N,GND*%
X71832000Y-146304000D03*
%TD*%
%TO.P,C15,1*%
%TO.N,+5V*%
X55912000Y-142748000D03*
%TO.P,C15,2*%
%TO.N,Net-(U11-THR)*%
X57912000Y-142748000D03*
%TD*%
%TO.P,C14,1*%
%TO.N,+5V*%
X163108000Y-41148000D03*
%TO.P,C14,2*%
%TO.N,GND*%
X168108000Y-41148000D03*
%TD*%
%TO.P,C13,1*%
%TO.N,GND*%
X75732000Y-159004000D03*
%TO.P,C13,2*%
%TO.N,Net-(U11-CV)*%
X80732000Y-159004000D03*
%TD*%
%TO.P,C12,1*%
%TO.N,+5V*%
X41108000Y-74168000D03*
%TO.P,C12,2*%
%TO.N,GND*%
X36108000Y-74168000D03*
%TD*%
%TO.P,C11,2*%
%TO.N,GND*%
X168696000Y-106172000D03*
%TO.P,C11,1*%
%TO.N,+5V*%
X173696000Y-106172000D03*
%TD*%
%TO.P,C10,2*%
%TO.N,GND*%
X118364000Y-106172000D03*
%TO.P,C10,1*%
%TO.N,+5V*%
X123364000Y-106172000D03*
%TD*%
%TO.P,C9,2*%
%TO.N,GND*%
X99528000Y-105664000D03*
%TO.P,C9,1*%
%TO.N,+5V*%
X94528000Y-105664000D03*
%TD*%
%TO.P,C8,2*%
%TO.N,GND*%
X136224000Y-45720000D03*
%TO.P,C8,1*%
%TO.N,+5V*%
X141224000Y-45720000D03*
%TD*%
%TO.P,C7,2*%
%TO.N,NMI*%
X78192000Y-126492000D03*
%TO.P,C7,1*%
%TO.N,GND*%
X73192000Y-126492000D03*
%TD*%
%TO.P,C6,2*%
%TO.N,GND*%
X229616000Y-106172000D03*
%TO.P,C6,1*%
%TO.N,+5V*%
X224616000Y-106172000D03*
%TD*%
%TO.P,C5,2*%
%TO.N,GND*%
X194056000Y-106172000D03*
%TO.P,C5,1*%
%TO.N,+5V*%
X199056000Y-106172000D03*
%TD*%
%TO.P,C4,2*%
%TO.N,GND*%
X154512000Y-106172000D03*
%TO.P,C4,1*%
%TO.N,+5V*%
X159512000Y-106172000D03*
%TD*%
%TO.P,C3,2*%
%TO.N,GND*%
X136732000Y-106172000D03*
%TO.P,C3,1*%
%TO.N,+5V*%
X141732000Y-106172000D03*
%TD*%
%TO.P,C2,1*%
%TO.N,+5V*%
X123444000Y-132080000D03*
%TO.P,C2,2*%
%TO.N,GND*%
X118444000Y-132080000D03*
%TD*%
%TO.P,C1,2*%
%TO.N,GND*%
X109260000Y-45720000D03*
%TO.P,C1,1*%
%TO.N,+5V*%
X114260000Y-45720000D03*
%TD*%
D34*
%TO.N,Net-(U16-BDIR)*%
X137244000Y-117335000D03*
X161655000Y-119865000D03*
%TO.N,Net-(U16-BC1)*%
X122314000Y-121153000D03*
X122314000Y-129256000D03*
X130670000Y-132503000D03*
X118620000Y-148342000D03*
X154534000Y-153164000D03*
X160434000Y-185420000D03*
%TO.N,Net-(U15-BDIR)*%
X115705000Y-134671000D03*
X149354000Y-144012000D03*
%TO.N,Net-(U15-BC1)*%
X148291000Y-154003000D03*
X109108000Y-144013000D03*
%TO.N,Net-(U6-Za)*%
X196151000Y-105276000D03*
X169277000Y-108476000D03*
%TO.N,BANKED_RAM_CS*%
X151421000Y-125686000D03*
X154266000Y-117332000D03*
%TO.N,Net-(U16-ch_C)*%
X105107000Y-162357000D03*
%TO.N,Net-(U16-~{A9})*%
X148864000Y-197126000D03*
%TO.N,Net-(U16-A8)*%
X126755000Y-184736000D03*
%TO.N,1pb6*%
X176812000Y-84968000D03*
%TO.N,1pb5*%
X126871000Y-47826000D03*
X123610000Y-65836300D03*
%TO.N,1pb4*%
X174475000Y-90026900D03*
X144333000Y-92220800D03*
X139294000Y-100225000D03*
X107705000Y-97740700D03*
%TO.N,1pb2*%
X122450000Y-68613000D03*
X124017000Y-54431800D03*
%TO.N,1pb1*%
X110546000Y-72534300D03*
X123489000Y-95548400D03*
X192572000Y-92710000D03*
%TO.N,1pb0*%
X129464000Y-49087200D03*
X129248000Y-73696600D03*
X114635000Y-78342400D03*
X108097000Y-72027100D03*
%TO.N,RAM_CS*%
X163813000Y-130039000D03*
X167143000Y-144365000D03*
%TO.N,ROM_CS*%
X140088000Y-131313000D03*
X134406000Y-146822000D03*
%TO.N,PSG2_CS*%
X147510000Y-121723000D03*
X136923000Y-119848000D03*
%TO.N,ACIA_IRQ*%
X201373000Y-151714000D03*
%TO.N,2VIA_IRQ*%
X113492000Y-138997000D03*
X115128000Y-104121000D03*
%TO.N,1VIA_IRQ*%
X120841000Y-132458000D03*
X119129000Y-130156000D03*
%TO.N,Net-(U13-R1IN)*%
X45927300Y-207815000D03*
%TO.N,1pa3*%
X176152000Y-95335900D03*
X124243000Y-97058800D03*
%TO.N,1pa2*%
X172442000Y-123952000D03*
X116929000Y-59265700D03*
%TO.N,1pa1*%
X120982000Y-59574300D03*
%TO.N,1pa0*%
X121709000Y-57135500D03*
%TO.N,Net-(JP1-B)*%
X106345000Y-170861000D03*
%TO.N,PSG2IOB7*%
X133424000Y-168910000D03*
%TO.N,PSG2IOB6*%
X148364000Y-201103000D03*
%TO.N,PSG2IOB5*%
X115304000Y-182317000D03*
%TO.N,PSG2IOB2*%
X113136000Y-190115000D03*
%TO.N,PSG2IOB1*%
X116453000Y-194310000D03*
%TO.N,Net-(U13-T1OUT)*%
X218206000Y-158836000D03*
%TO.N,IO9*%
X151062000Y-189339000D03*
%TO.N,IO8*%
X71559900Y-205191000D03*
%TO.N,IO6*%
X147258000Y-199282000D03*
%TO.N,decode0*%
X71839500Y-110359000D03*
%TO.N,1CB1*%
X128383000Y-45079400D03*
X128383000Y-89647600D03*
%TO.N,1CB2*%
X109792000Y-53430500D03*
X110170000Y-54891600D03*
X117445000Y-68616600D03*
X101139000Y-80872700D03*
%TO.N,OE*%
X174216000Y-135130000D03*
X86441200Y-107020000D03*
%TO.N,WE*%
X92498400Y-90037200D03*
X111578000Y-89776100D03*
X111578000Y-125030000D03*
%TO.N,a13*%
X190552000Y-134998000D03*
X121599000Y-136323000D03*
%TO.N,IRQ*%
X102744000Y-142414000D03*
X93279000Y-125718000D03*
%TO.N,a11*%
X191405000Y-129032000D03*
X184873000Y-136573000D03*
X125871000Y-137447000D03*
X59765800Y-70741900D03*
%TO.N,RESET*%
X123156000Y-163133000D03*
X66195800Y-148414000D03*
%TO.N,a10*%
X132506000Y-131313000D03*
X128810000Y-135774000D03*
X59676900Y-84021300D03*
%TO.N,PHI2*%
X105952000Y-92049000D03*
X120813000Y-148590000D03*
X202375000Y-151766000D03*
X109371000Y-92712000D03*
X139402000Y-113296000D03*
X133384000Y-147871000D03*
%TO.N,a9*%
X119828000Y-154532000D03*
%TO.N,RW*%
X199469000Y-169911000D03*
X205842000Y-96520000D03*
X106978000Y-100424000D03*
%TO.N,a8*%
X118811000Y-155048000D03*
X186628000Y-136547000D03*
X134225000Y-145368000D03*
%TO.N,d7*%
X103177000Y-80161900D03*
X117546000Y-92853100D03*
X143856000Y-182880000D03*
X129116000Y-158491000D03*
X114858000Y-92807200D03*
%TO.N,a7*%
X181091000Y-121875000D03*
X121516000Y-156908000D03*
X144235000Y-112464000D03*
X106995000Y-108848000D03*
%TO.N,d6*%
X153848000Y-180340000D03*
X159093000Y-182987000D03*
X151871000Y-155177000D03*
%TO.N,a6*%
X162620000Y-118613000D03*
X165113000Y-134114000D03*
X54083600Y-91773700D03*
X56138200Y-91895900D03*
X61808900Y-137831000D03*
X162112000Y-149484000D03*
X130321000Y-150517000D03*
X119553000Y-157377000D03*
%TO.N,d5*%
X200370000Y-176402000D03*
X198910000Y-144272000D03*
%TO.N,a5*%
X178406000Y-119778000D03*
X149765000Y-107548000D03*
X78812900Y-104457000D03*
%TO.N,d4*%
X203822000Y-175882000D03*
X112868000Y-80825600D03*
X145774000Y-144916000D03*
X112832000Y-101626000D03*
X153021000Y-104039000D03*
%TO.N,a4*%
X176674000Y-112380000D03*
X85016500Y-140830000D03*
X153056000Y-108297000D03*
X78084400Y-105790000D03*
%TO.N,d3*%
X110141000Y-78552200D03*
X204646000Y-163882000D03*
X147412000Y-144464000D03*
%TO.N,a3*%
X86329600Y-53594000D03*
X84289500Y-138684000D03*
X178109000Y-63500000D03*
%TO.N,d2*%
X105558000Y-58193200D03*
X111474000Y-78021800D03*
X176572000Y-140954000D03*
%TO.N,a2*%
X126679000Y-100951000D03*
X115982000Y-100951000D03*
X113917000Y-132967000D03*
%TO.N,d1*%
X92863000Y-49157100D03*
X110182000Y-79554200D03*
X169726000Y-167640000D03*
X171424000Y-140795000D03*
%TO.N,a1*%
X202917000Y-137538000D03*
X123328000Y-51924100D03*
X139882000Y-51997600D03*
X210496000Y-58420000D03*
X51667800Y-93966000D03*
X80361600Y-96769800D03*
%TO.N,d0*%
X110952000Y-80840300D03*
X196222000Y-143002000D03*
X175461000Y-141026000D03*
X106771000Y-131578000D03*
X107775000Y-55375300D03*
%TO.N,a0*%
X84264500Y-132308000D03*
X215626000Y-55880000D03*
X198852600Y-140462000D03*
%TO.N,+5V*%
X223942000Y-179792000D03*
%TD*%
D35*
%TO.N,Net-(U16-BDIR)*%
X137244000Y-116248000D02*
X137244000Y-117335000D01*
X135656000Y-114660000D02*
X137244000Y-116248000D01*
X126714000Y-114660000D02*
X135656000Y-114660000D01*
X125587000Y-113533000D02*
X126714000Y-114660000D01*
X124460000Y-113533000D02*
X125587000Y-113533000D01*
X162206000Y-120416000D02*
X161655000Y-119865000D01*
X162206000Y-142643000D02*
X162206000Y-120416000D01*
X155349000Y-149500000D02*
X162206000Y-142643000D01*
X155349000Y-160053000D02*
X155349000Y-149500000D01*
X156585000Y-161290000D02*
X155349000Y-160053000D01*
X157341000Y-161290000D02*
X156585000Y-161290000D01*
X167860000Y-171808000D02*
X157341000Y-161290000D01*
X167860000Y-186148000D02*
X167860000Y-171808000D01*
X172212000Y-190500000D02*
X167860000Y-186148000D01*
%TO.N,Net-(U16-BC1)*%
X154534000Y-166868000D02*
X154534000Y-153164000D01*
X156576000Y-168910000D02*
X154534000Y-166868000D01*
X157296000Y-168910000D02*
X156576000Y-168910000D01*
X160434000Y-172049000D02*
X157296000Y-168910000D01*
X160434000Y-185420000D02*
X160434000Y-172049000D01*
X122314000Y-129256000D02*
X122314000Y-121153000D01*
X127905000Y-135267000D02*
X130670000Y-132503000D01*
X127905000Y-137852000D02*
X127905000Y-135267000D01*
X124788000Y-140970000D02*
X127905000Y-137852000D01*
X124062000Y-140970000D02*
X124788000Y-140970000D01*
X122994000Y-142038000D02*
X124062000Y-140970000D01*
X122994000Y-143968000D02*
X122994000Y-142038000D01*
X118620000Y-148342000D02*
X122994000Y-143968000D01*
%TO.N,Net-(U15-BDIR)*%
X115705000Y-119748000D02*
X115705000Y-134671000D01*
X116840000Y-118613000D02*
X115705000Y-119748000D01*
X149354000Y-186097000D02*
X149354000Y-144012000D01*
X146078000Y-189373000D02*
X149354000Y-186097000D01*
X145796000Y-189373000D02*
X146078000Y-189373000D01*
X145796000Y-190500000D02*
X145796000Y-189373000D01*
%TO.N,Net-(U15-BC1)*%
X116840000Y-112120000D02*
X116840000Y-110993000D01*
X116558000Y-112120000D02*
X116840000Y-112120000D01*
X115168000Y-113510000D02*
X116558000Y-112120000D01*
X115168000Y-133383000D02*
X115168000Y-113510000D01*
X114302000Y-134249000D02*
X115168000Y-133383000D01*
X114302000Y-139216000D02*
X114302000Y-134249000D01*
X109505000Y-144013000D02*
X114302000Y-139216000D01*
X109108000Y-144013000D02*
X109505000Y-144013000D01*
X148291000Y-182080000D02*
X148291000Y-154003000D01*
X146078000Y-184293000D02*
X148291000Y-182080000D01*
X145796000Y-184293000D02*
X146078000Y-184293000D01*
X145796000Y-185420000D02*
X145796000Y-184293000D01*
%TO.N,Net-(U6-Za)*%
X169277000Y-116991000D02*
X167396000Y-118872000D01*
X169277000Y-108476000D02*
X169277000Y-116991000D01*
X203540000Y-112665000D02*
X196151000Y-105276000D01*
X204216000Y-112665000D02*
X203540000Y-112665000D01*
X204216000Y-113792000D02*
X204216000Y-112665000D01*
%TO.N,BANKED_RAM_CS*%
X154266000Y-123948000D02*
X154266000Y-117332000D01*
X153367000Y-124847000D02*
X154266000Y-123948000D01*
X152260000Y-124847000D02*
X153367000Y-124847000D01*
X151421000Y-125686000D02*
X152260000Y-124847000D01*
%TO.N,Net-(U16-ch_C)*%
X100729000Y-166736000D02*
X105107000Y-162357000D01*
X100729000Y-169722000D02*
X100729000Y-166736000D01*
X90923900Y-179527000D02*
X100729000Y-169722000D01*
X83727500Y-179527000D02*
X90923900Y-179527000D01*
X82406900Y-180848000D02*
X83727500Y-179527000D01*
X81280000Y-180848000D02*
X82406900Y-180848000D01*
%TO.N,Net-(U16-~{A9})*%
X148864000Y-194443000D02*
X148864000Y-197126000D01*
X146191000Y-191770000D02*
X148864000Y-194443000D01*
X145461000Y-191770000D02*
X146191000Y-191770000D01*
X143087000Y-189395000D02*
X145461000Y-191770000D01*
X143087000Y-180446000D02*
X143087000Y-189395000D01*
X132278000Y-169638000D02*
X143087000Y-180446000D01*
X132278000Y-167713000D02*
X132278000Y-169638000D01*
X130935000Y-166370000D02*
X132278000Y-167713000D01*
X125464000Y-166370000D02*
X130935000Y-166370000D01*
X124534000Y-165440000D02*
X125464000Y-166370000D01*
X123486000Y-165440000D02*
X124534000Y-165440000D01*
X122825000Y-166102000D02*
X123486000Y-165440000D01*
X122825000Y-170069000D02*
X122825000Y-166102000D01*
X123952000Y-171196000D02*
X122825000Y-170069000D01*
%TO.N,Net-(U16-A8)*%
X126755000Y-184270000D02*
X126755000Y-184736000D01*
X123952000Y-181467000D02*
X126755000Y-184270000D01*
X123952000Y-180340000D02*
X123952000Y-181467000D01*
%TO.N,CLK_1.8432*%
X187452000Y-183738000D02*
X187452000Y-182611000D01*
X187170000Y-183738000D02*
X187452000Y-183738000D01*
X186325000Y-184583000D02*
X187170000Y-183738000D01*
X186325000Y-188194000D02*
X186325000Y-184583000D01*
X172446000Y-202073000D02*
X186325000Y-188194000D01*
X172212000Y-202073000D02*
X172446000Y-202073000D01*
X172212000Y-203200000D02*
X172212000Y-202073000D01*
%TO.N,1pb6*%
X183874000Y-56656200D02*
X183874000Y-52931800D01*
X176812000Y-63719100D02*
X183874000Y-56656200D01*
X176812000Y-84968000D02*
X176812000Y-63719100D01*
X183874000Y-52931800D02*
X183874000Y-49207400D01*
X183874400Y-52931400D02*
X183874400Y-49207400D01*
X183874000Y-52931800D02*
X183874400Y-52931400D01*
%TO.N,1pb5*%
X126871000Y-58464900D02*
X126871000Y-47826000D01*
X125885000Y-59451000D02*
X126871000Y-58464900D01*
X124994000Y-59451000D02*
X125885000Y-59451000D01*
X123610000Y-60834700D02*
X124994000Y-59451000D01*
X123610000Y-65836300D02*
X123610000Y-60834700D01*
%TO.N,1pb4*%
X139294000Y-97259300D02*
X139294000Y-100225000D01*
X144333000Y-92220800D02*
X139294000Y-97259300D01*
X107705000Y-88278800D02*
X107705000Y-97740700D01*
X104374000Y-84946900D02*
X107705000Y-88278800D01*
X104140000Y-84946900D02*
X104374000Y-84946900D01*
X104140000Y-83820000D02*
X104140000Y-84946900D01*
X178794000Y-49207400D02*
X178794000Y-54098400D01*
X174475000Y-63308900D02*
X174475000Y-90026900D01*
X178794000Y-58989400D02*
X174475000Y-63308900D01*
X178794000Y-54098400D02*
X178794000Y-58989400D01*
X178794400Y-54098000D02*
X178794400Y-49207400D01*
X178794000Y-54098400D02*
X178794400Y-54098000D01*
%TO.N,1pb2*%
X122450000Y-55999300D02*
X122450000Y-68613000D01*
X124017000Y-54431800D02*
X122450000Y-55999300D01*
%TO.N,1pb1*%
X123489000Y-83790000D02*
X123489000Y-95548400D01*
X119709000Y-80010000D02*
X123489000Y-83790000D01*
X118022000Y-80010000D02*
X119709000Y-80010000D01*
X110546000Y-72534300D02*
X118022000Y-80010000D01*
X199114000Y-49207400D02*
X199114000Y-48043800D01*
X192572000Y-47887300D02*
X192572000Y-92710000D01*
X193579000Y-46880200D02*
X192572000Y-47887300D01*
X199114000Y-46880200D02*
X193579000Y-46880200D01*
X199114000Y-48043800D02*
X199114000Y-46880200D01*
X199114400Y-48044200D02*
X199114400Y-49207400D01*
X199114000Y-48043800D02*
X199114400Y-48044200D01*
%TO.N,1pb0*%
X129248000Y-49303000D02*
X129248000Y-73696600D01*
X129464000Y-49087200D02*
X129248000Y-49303000D01*
X114412000Y-78342400D02*
X108097000Y-72027100D01*
X114635000Y-78342400D02*
X114412000Y-78342400D01*
%TO.N,RAM_CS*%
X163813000Y-141035000D02*
X163813000Y-130039000D01*
X167143000Y-144365000D02*
X163813000Y-141035000D01*
%TO.N,ROM_CS*%
X137015000Y-134386000D02*
X140088000Y-131313000D01*
X137015000Y-144245000D02*
X137015000Y-134386000D01*
X134438000Y-146822000D02*
X137015000Y-144245000D01*
X134406000Y-146822000D02*
X134438000Y-146822000D01*
%TO.N,PSG2_CS*%
X124460000Y-125106000D02*
X124460000Y-126233000D01*
X124178000Y-125106000D02*
X124460000Y-125106000D01*
X123311000Y-124238000D02*
X124178000Y-125106000D01*
X123311000Y-120656000D02*
X123311000Y-124238000D01*
X124226000Y-119740000D02*
X123311000Y-120656000D01*
X124460000Y-119740000D02*
X124226000Y-119740000D01*
X124460000Y-118613000D02*
X124460000Y-119740000D01*
X151211000Y-121723000D02*
X147510000Y-121723000D01*
X151781000Y-121153000D02*
X151211000Y-121723000D01*
X152908000Y-121153000D02*
X151781000Y-121153000D01*
X125587000Y-118613000D02*
X124460000Y-118613000D01*
X126822000Y-119848000D02*
X125587000Y-118613000D01*
X136923000Y-119848000D02*
X126822000Y-119848000D01*
%TO.N,PSG1_CS*%
X116840000Y-120026000D02*
X116840000Y-121153000D01*
X117074000Y-120026000D02*
X116840000Y-120026000D01*
X117989000Y-119110000D02*
X117074000Y-120026000D01*
X117989000Y-115528000D02*
X117989000Y-119110000D01*
X117122000Y-114660000D02*
X117989000Y-115528000D01*
X116840000Y-114660000D02*
X117122000Y-114660000D01*
X116840000Y-113533000D02*
X116840000Y-114660000D01*
%TO.N,ACIA_CS*%
X154035000Y-116073000D02*
X152908000Y-116073000D01*
X155162000Y-117200000D02*
X154035000Y-116073000D01*
X160780000Y-117200000D02*
X155162000Y-117200000D01*
X161893000Y-118313000D02*
X160780000Y-117200000D01*
X161893000Y-119006000D02*
X161893000Y-118313000D01*
X162708000Y-119821000D02*
X161893000Y-119006000D01*
X162708000Y-142781000D02*
X162708000Y-119821000D01*
X155843000Y-149646000D02*
X162708000Y-142781000D01*
X155843000Y-158419000D02*
X155843000Y-149646000D01*
X156174000Y-158750000D02*
X155843000Y-158419000D01*
X157315000Y-158750000D02*
X156174000Y-158750000D01*
X169797000Y-171232000D02*
X157315000Y-158750000D01*
X169797000Y-187219000D02*
X169797000Y-171232000D01*
X171683000Y-189106000D02*
X169797000Y-187219000D01*
X173338000Y-189106000D02*
X171683000Y-189106000D01*
X187452000Y-174991000D02*
X173338000Y-189106000D01*
%TO.N,VIA2_CS*%
X152908000Y-112406000D02*
X152908000Y-113533000D01*
X152203000Y-112406000D02*
X152908000Y-112406000D01*
X151407000Y-111609000D02*
X152203000Y-112406000D01*
X151407000Y-99978300D02*
X151407000Y-111609000D01*
X146535000Y-95106900D02*
X151407000Y-99978300D01*
X146304000Y-95106900D02*
X146535000Y-95106900D01*
X146304000Y-93980000D02*
X146304000Y-95106900D01*
%TO.N,ACIA_IRQ*%
X201100000Y-151987000D02*
X201373000Y-151714000D01*
X201100000Y-172470000D02*
X201100000Y-151987000D01*
X202494000Y-173864000D02*
X201100000Y-172470000D01*
X202692000Y-173864000D02*
X202494000Y-173864000D01*
X202692000Y-174991000D02*
X202692000Y-173864000D01*
%TO.N,Net-(U1-Pad3)*%
X116840000Y-142240000D02*
X116840000Y-144780000D01*
%TO.N,2VIA_IRQ*%
X114716000Y-104533000D02*
X115128000Y-104121000D01*
X114716000Y-133196000D02*
X114716000Y-104533000D01*
X113492000Y-134419000D02*
X114716000Y-133196000D01*
X113492000Y-138997000D02*
X113492000Y-134419000D01*
%TO.N,1VIA_IRQ*%
X119576000Y-129708000D02*
X119129000Y-130156000D01*
X119576000Y-100383000D02*
X119576000Y-129708000D01*
X119380000Y-100187000D02*
X119576000Y-100383000D01*
X119380000Y-99060000D02*
X119380000Y-100187000D01*
X120841000Y-132721000D02*
X120841000Y-132458000D01*
X117529000Y-136033000D02*
X120841000Y-132721000D01*
X116840000Y-136033000D02*
X117529000Y-136033000D01*
X116840000Y-137160000D02*
X116840000Y-136033000D01*
%TO.N,Net-(U15-~{A9})*%
X145796000Y-196993000D02*
X145796000Y-198120000D01*
X145562000Y-196993000D02*
X145796000Y-196993000D01*
X143642000Y-195073000D02*
X145562000Y-196993000D01*
X143642000Y-194367000D02*
X143642000Y-195073000D01*
X130885000Y-181610000D02*
X143642000Y-194367000D01*
X129794000Y-181610000D02*
X130885000Y-181610000D01*
X123952000Y-175768000D02*
X129794000Y-181610000D01*
%TO.N,Net-(U15-A8)*%
X145796000Y-194453000D02*
X145796000Y-195580000D01*
X145562000Y-194453000D02*
X145796000Y-194453000D01*
X141981000Y-190872000D02*
X145562000Y-194453000D01*
X141981000Y-179980000D02*
X141981000Y-190872000D01*
X130912000Y-168910000D02*
X141981000Y-179980000D01*
X127365000Y-168910000D02*
X130912000Y-168910000D01*
X125079000Y-166624000D02*
X127365000Y-168910000D01*
X123952000Y-166624000D02*
X125079000Y-166624000D01*
%TO.N,Net-(U13-R1IN)*%
X47769200Y-205973000D02*
X45927300Y-207815000D01*
X47769200Y-154861000D02*
X47769200Y-205973000D01*
X46632000Y-153724000D02*
X47769200Y-154861000D01*
%TO.N,1pa3*%
X181356000Y-126024000D02*
X181356000Y-136144000D01*
X177210000Y-121878000D02*
X181356000Y-126024000D01*
X177210000Y-119419000D02*
X177210000Y-121878000D01*
X175250000Y-117459000D02*
X177210000Y-119419000D01*
X175016000Y-117459000D02*
X175250000Y-117459000D01*
X175016000Y-116895000D02*
X175016000Y-117459000D01*
X176152000Y-111791000D02*
X176152000Y-95335900D01*
X175898000Y-112044000D02*
X176152000Y-111791000D01*
X175898000Y-112856000D02*
X175898000Y-112044000D01*
X176173000Y-113131000D02*
X175898000Y-112856000D01*
X176173000Y-115738000D02*
X176173000Y-113131000D01*
X175016000Y-116895000D02*
X176173000Y-115738000D01*
X124243000Y-79423400D02*
X124243000Y-97058800D01*
X119750000Y-74930000D02*
X124243000Y-79423400D01*
X119003000Y-74930000D02*
X119750000Y-74930000D01*
X105267000Y-61193500D02*
X119003000Y-74930000D01*
X105267000Y-60960000D02*
X105267000Y-61193500D01*
X104140000Y-60960000D02*
X105267000Y-60960000D01*
X175016000Y-116332000D02*
X175016000Y-116895000D01*
%TO.N,1pa2*%
X175016000Y-125079000D02*
X175016000Y-123952000D01*
X175250000Y-125079000D02*
X175016000Y-125079000D01*
X176784000Y-126613000D02*
X175250000Y-125079000D01*
X176784000Y-136144000D02*
X176784000Y-126613000D01*
X116929000Y-48728800D02*
X116929000Y-59265700D01*
X120919000Y-44738800D02*
X116929000Y-48728800D01*
X120919000Y-39665400D02*
X120919000Y-44738800D01*
X122152000Y-38431900D02*
X120919000Y-39665400D01*
X136251000Y-38431900D02*
X122152000Y-38431900D01*
X172442000Y-74622700D02*
X136251000Y-38431900D01*
X172442000Y-123952000D02*
X172442000Y-74622700D01*
%TO.N,1pa1*%
X167396000Y-122539000D02*
X167396000Y-121975000D01*
X167630000Y-122539000D02*
X167396000Y-122539000D01*
X172212000Y-127121000D02*
X167630000Y-122539000D01*
X172212000Y-136144000D02*
X172212000Y-127121000D01*
X120982000Y-55396800D02*
X120982000Y-59574300D01*
X125949000Y-50429700D02*
X120982000Y-55396800D01*
X125949000Y-39772800D02*
X125949000Y-50429700D01*
X126767000Y-38955100D02*
X125949000Y-39772800D01*
X130378000Y-38955100D02*
X126767000Y-38955100D01*
X131079000Y-39656400D02*
X130378000Y-38955100D01*
X131079000Y-40556100D02*
X131079000Y-39656400D01*
X132964000Y-42441000D02*
X131079000Y-40556100D01*
X134618000Y-42441000D02*
X132964000Y-42441000D01*
X138126000Y-45948800D02*
X134618000Y-42441000D01*
X138126000Y-59513800D02*
X138126000Y-45948800D01*
X145922000Y-67310000D02*
X138126000Y-59513800D01*
X146665000Y-67310000D02*
X145922000Y-67310000D01*
X170004000Y-90648800D02*
X146665000Y-67310000D01*
X170004000Y-119368000D02*
X170004000Y-90648800D01*
X167396000Y-121975000D02*
X170004000Y-119368000D01*
X167396000Y-121412000D02*
X167396000Y-121975000D01*
%TO.N,1pa0*%
X167396000Y-114919000D02*
X167396000Y-113792000D01*
X167162000Y-114919000D02*
X167396000Y-114919000D01*
X165799000Y-116282000D02*
X167162000Y-114919000D01*
X165799000Y-133176000D02*
X165799000Y-116282000D01*
X167640000Y-135017000D02*
X165799000Y-133176000D01*
X167640000Y-136144000D02*
X167640000Y-135017000D01*
X161780000Y-112263000D02*
X165799000Y-116282000D01*
X158984000Y-112263000D02*
X161780000Y-112263000D01*
X152294000Y-105574000D02*
X158984000Y-112263000D01*
X152294000Y-93286900D02*
X152294000Y-105574000D01*
X146726000Y-87718600D02*
X152294000Y-93286900D01*
X143216000Y-87718600D02*
X146726000Y-87718600D01*
X133248000Y-97686900D02*
X143216000Y-87718600D01*
X130597000Y-97686900D02*
X133248000Y-97686900D01*
X127204000Y-94294200D02*
X130597000Y-97686900D01*
X127204000Y-75555200D02*
X127204000Y-94294200D01*
X121709000Y-70060200D02*
X127204000Y-75555200D01*
X121709000Y-57135500D02*
X121709000Y-70060200D01*
%TO.N,Net-(R1-Pad2)*%
X80772000Y-120904000D02*
X80772000Y-116332000D01*
%TO.N,Net-(Q1-D)*%
X52794300Y-95014300D02*
X55412000Y-97632000D01*
X47333300Y-95014300D02*
X52794300Y-95014300D01*
X39116000Y-86797000D02*
X47333300Y-95014300D01*
%TO.N,Net-(JP1-B)*%
X105156000Y-172050000D02*
X106345000Y-170861000D01*
X105156000Y-177546000D02*
X105156000Y-172050000D01*
%TO.N,PSG2IOB7*%
X83472900Y-209296000D02*
X82296000Y-209296000D01*
X83472900Y-208928000D02*
X83472900Y-209296000D01*
X84281900Y-208119000D02*
X83472900Y-208928000D01*
X85659800Y-208119000D02*
X84281900Y-208119000D01*
X93726000Y-200053000D02*
X85659800Y-208119000D01*
X93726000Y-199162000D02*
X93726000Y-200053000D01*
X108482000Y-184406000D02*
X93726000Y-199162000D01*
X111978000Y-184406000D02*
X108482000Y-184406000D01*
X121921000Y-174462000D02*
X111978000Y-184406000D01*
X121921000Y-163323000D02*
X121921000Y-174462000D01*
X122870000Y-162374000D02*
X121921000Y-163323000D01*
X123733000Y-162374000D02*
X122870000Y-162374000D01*
X125188000Y-163830000D02*
X123733000Y-162374000D01*
X130957000Y-163830000D02*
X125188000Y-163830000D01*
X133424000Y-166296000D02*
X130957000Y-163830000D01*
X133424000Y-168910000D02*
X133424000Y-166296000D01*
%TO.N,PSG2IOB6*%
X156972000Y-173847000D02*
X156972000Y-172720000D01*
X156738000Y-173847000D02*
X156972000Y-173847000D01*
X151789000Y-178796000D02*
X156738000Y-173847000D01*
X151789000Y-195784000D02*
X151789000Y-178796000D01*
X150043000Y-197530000D02*
X151789000Y-195784000D01*
X150043000Y-199424000D02*
X150043000Y-197530000D01*
X148364000Y-201103000D02*
X150043000Y-199424000D01*
%TO.N,PSG2IOB5*%
X112652000Y-184970000D02*
X115304000Y-182317000D01*
X110502000Y-184970000D02*
X112652000Y-184970000D01*
X96266000Y-199205000D02*
X110502000Y-184970000D01*
X96266000Y-200112000D02*
X96266000Y-199205000D01*
X88258700Y-208119000D02*
X96266000Y-200112000D01*
X87376000Y-208119000D02*
X88258700Y-208119000D01*
X87376000Y-209296000D02*
X87376000Y-208119000D01*
%TO.N,PSG2IOB4*%
X91092900Y-209296000D02*
X89916000Y-209296000D01*
X91092900Y-208928000D02*
X91092900Y-209296000D01*
X92571500Y-207449000D02*
X91092900Y-208928000D01*
X94773600Y-207449000D02*
X92571500Y-207449000D01*
X112870000Y-189353000D02*
X94773600Y-207449000D01*
X131209000Y-189353000D02*
X112870000Y-189353000D01*
X143698000Y-201841000D02*
X131209000Y-189353000D01*
X148709000Y-201841000D02*
X143698000Y-201841000D01*
X151789000Y-198762000D02*
X148709000Y-201841000D01*
X151789000Y-196423000D02*
X151789000Y-198762000D01*
X152241000Y-195971000D02*
X151789000Y-196423000D01*
X152241000Y-183381000D02*
X152241000Y-195971000D01*
X156694000Y-178927000D02*
X152241000Y-183381000D01*
X156972000Y-178927000D02*
X156694000Y-178927000D01*
X156972000Y-177800000D02*
X156972000Y-178927000D01*
%TO.N,PSG2IOB3*%
X156972000Y-181467000D02*
X156972000Y-180340000D01*
X156690000Y-181467000D02*
X156972000Y-181467000D01*
X155845000Y-182312000D02*
X156690000Y-181467000D01*
X155845000Y-193231000D02*
X155845000Y-182312000D01*
X152241000Y-196835000D02*
X155845000Y-193231000D01*
X152241000Y-198996000D02*
X152241000Y-196835000D01*
X146905000Y-204332000D02*
X152241000Y-198996000D01*
X144950000Y-204332000D02*
X146905000Y-204332000D01*
X137596000Y-196978000D02*
X144950000Y-204332000D01*
X107665000Y-196978000D02*
X137596000Y-196978000D01*
X98899100Y-205745000D02*
X107665000Y-196978000D01*
X98899100Y-209606000D02*
X98899100Y-205745000D01*
X98032300Y-210473000D02*
X98899100Y-209606000D01*
X94444000Y-210473000D02*
X98032300Y-210473000D01*
X93632900Y-209662000D02*
X94444000Y-210473000D01*
X93632900Y-209296000D02*
X93632900Y-209662000D01*
X92456000Y-209296000D02*
X93632900Y-209296000D01*
%TO.N,PSG2IOB2*%
X95131800Y-208119000D02*
X113136000Y-190115000D01*
X94996000Y-208119000D02*
X95131800Y-208119000D01*
X94996000Y-209296000D02*
X94996000Y-208119000D01*
%TO.N,PSG2IOB1*%
X97536000Y-206469000D02*
X97536000Y-209296000D01*
X109695000Y-194310000D02*
X97536000Y-206469000D01*
X116453000Y-194310000D02*
X109695000Y-194310000D01*
%TO.N,PSG2IOA6*%
X156972000Y-194167000D02*
X156972000Y-193040000D01*
X156690000Y-194167000D02*
X156972000Y-194167000D01*
X155845000Y-195012000D02*
X156690000Y-194167000D01*
X155845000Y-197309000D02*
X155845000Y-195012000D01*
X146205000Y-206949000D02*
X155845000Y-197309000D01*
X111870000Y-206949000D02*
X146205000Y-206949000D01*
X109889000Y-208930000D02*
X111870000Y-206949000D01*
X109889000Y-209296000D02*
X109889000Y-208930000D01*
X108712000Y-209296000D02*
X109889000Y-209296000D01*
%TO.N,PSG2IOA5*%
X112429000Y-209296000D02*
X111252000Y-209296000D01*
X112429000Y-209664000D02*
X112429000Y-209296000D01*
X113259000Y-210494000D02*
X112429000Y-209664000D01*
X147878000Y-210494000D02*
X113259000Y-210494000D01*
X156440000Y-201932000D02*
X147878000Y-210494000D01*
X157373000Y-201932000D02*
X156440000Y-201932000D01*
X158099000Y-201206000D02*
X157373000Y-201932000D01*
X158099000Y-197600000D02*
X158099000Y-201206000D01*
X157206000Y-196707000D02*
X158099000Y-197600000D01*
X156972000Y-196707000D02*
X157206000Y-196707000D01*
X156972000Y-195580000D02*
X156972000Y-196707000D01*
%TO.N,PSG2IOA4*%
X114969000Y-209296000D02*
X113792000Y-209296000D01*
X114969000Y-208928000D02*
X114969000Y-209296000D01*
X116230000Y-207667000D02*
X114969000Y-208928000D01*
X146298000Y-207667000D02*
X116230000Y-207667000D01*
X155845000Y-198120000D02*
X146298000Y-207667000D01*
X156972000Y-198120000D02*
X155845000Y-198120000D01*
%TO.N,PSG2IOA3*%
X117509000Y-209296000D02*
X116332000Y-209296000D01*
X117509000Y-208995000D02*
X117509000Y-209296000D01*
X118384000Y-208119000D02*
X117509000Y-208995000D01*
X148386000Y-208119000D02*
X118384000Y-208119000D01*
X155845000Y-200660000D02*
X148386000Y-208119000D01*
X156972000Y-200660000D02*
X155845000Y-200660000D01*
%TO.N,PSG1IOA2*%
X123745000Y-203200000D02*
X130556000Y-203200000D01*
X120557000Y-200012000D02*
X123745000Y-203200000D01*
X120557000Y-199644000D02*
X120557000Y-200012000D01*
X119380000Y-199644000D02*
X120557000Y-199644000D01*
%TO.N,PSG1IOA1*%
X123097000Y-199644000D02*
X121920000Y-199644000D01*
X123097000Y-200453000D02*
X123097000Y-199644000D01*
X124574000Y-201930000D02*
X123097000Y-200453000D01*
X130918000Y-201930000D02*
X124574000Y-201930000D01*
X131707000Y-202720000D02*
X130918000Y-201930000D01*
X131707000Y-203695000D02*
X131707000Y-202720000D01*
X130790000Y-204613000D02*
X131707000Y-203695000D01*
X130556000Y-204613000D02*
X130790000Y-204613000D01*
X130556000Y-205740000D02*
X130556000Y-204613000D01*
%TO.N,PSG1IOA0*%
X144669000Y-205740000D02*
X145796000Y-205740000D01*
X138446000Y-199517000D02*
X144669000Y-205740000D01*
X125764000Y-199517000D02*
X138446000Y-199517000D01*
X125637000Y-199644000D02*
X125764000Y-199517000D01*
X124460000Y-199644000D02*
X125637000Y-199644000D01*
%TO.N,PSG1IOB1*%
X129429000Y-185420000D02*
X130556000Y-185420000D01*
X129387000Y-185462000D02*
X129429000Y-185420000D01*
X112085000Y-185462000D02*
X129387000Y-185462000D01*
X98712900Y-198835000D02*
X112085000Y-185462000D01*
X98712900Y-199644000D02*
X98712900Y-198835000D01*
X97536000Y-199644000D02*
X98712900Y-199644000D01*
%TO.N,PSG1IOB0*%
X112937000Y-187960000D02*
X130556000Y-187960000D01*
X101253000Y-199644000D02*
X112937000Y-187960000D01*
X100076000Y-199644000D02*
X101253000Y-199644000D01*
%TO.N,Net-(U13-T1OUT)*%
X218206000Y-178685000D02*
X218206000Y-158836000D01*
X230662000Y-191141000D02*
X218206000Y-178685000D01*
X230896000Y-191141000D02*
X230662000Y-191141000D01*
X230896000Y-192268000D02*
X230896000Y-191141000D01*
%TO.N,Net-(C27-Pad1)*%
X65024000Y-192024000D02*
X71120000Y-185928000D01*
X61936000Y-192024000D02*
X65024000Y-192024000D01*
X71120000Y-185928000D02*
X71120000Y-180848000D01*
X71120000Y-180848000D02*
X71120000Y-176276000D01*
X71120000Y-176276000D02*
X71120000Y-171704000D01*
%TO.N,IO10*%
X159401000Y-128773000D02*
X160528000Y-128773000D01*
X158131000Y-130043000D02*
X159401000Y-128773000D01*
X151696000Y-130043000D02*
X158131000Y-130043000D01*
X144076000Y-137663000D02*
X151696000Y-130043000D01*
X142632000Y-137663000D02*
X144076000Y-137663000D01*
X138949000Y-141346000D02*
X142632000Y-137663000D01*
X138949000Y-144585000D02*
X138949000Y-141346000D01*
X135081000Y-148453000D02*
X138949000Y-144585000D01*
X134610000Y-148453000D02*
X135081000Y-148453000D01*
X133984000Y-149078000D02*
X134610000Y-148453000D01*
X133345000Y-149078000D02*
X133984000Y-149078000D01*
X131500000Y-150924000D02*
X133345000Y-149078000D01*
X131500000Y-151005000D02*
X131500000Y-150924000D01*
X125438000Y-157066000D02*
X131500000Y-151005000D01*
X123324000Y-157066000D02*
X125438000Y-157066000D01*
X121538000Y-158852000D02*
X123324000Y-157066000D01*
X114131000Y-158852000D02*
X121538000Y-158852000D01*
X102696000Y-170286000D02*
X114131000Y-158852000D01*
X102696000Y-170418000D02*
X102696000Y-170286000D01*
X91620400Y-181494000D02*
X102696000Y-170418000D01*
X89571200Y-181494000D02*
X91620400Y-181494000D01*
X85973600Y-185092000D02*
X89571200Y-181494000D01*
X85973600Y-187886000D02*
X85973600Y-185092000D01*
X78610300Y-195250000D02*
X85973600Y-187886000D01*
X74269300Y-195250000D02*
X78610300Y-195250000D01*
X61400000Y-208119000D02*
X74269300Y-195250000D01*
X47705900Y-208119000D02*
X61400000Y-208119000D01*
X46896900Y-208928000D02*
X47705900Y-208119000D01*
X46896900Y-209296000D02*
X46896900Y-208928000D01*
X45720000Y-209296000D02*
X46896900Y-209296000D01*
%TO.N,IO9*%
X151062000Y-152352000D02*
X151062000Y-189339000D01*
X161698000Y-141717000D02*
X151062000Y-152352000D01*
X161698000Y-133376000D02*
X161698000Y-141717000D01*
X160762000Y-132440000D02*
X161698000Y-133376000D01*
X160528000Y-132440000D02*
X160762000Y-132440000D01*
X160528000Y-131313000D02*
X160528000Y-132440000D01*
%TO.N,IO8*%
X159401000Y-133853000D02*
X160528000Y-133853000D01*
X159401000Y-134135000D02*
X159401000Y-133853000D01*
X153476000Y-140060000D02*
X159401000Y-134135000D01*
X146030000Y-140060000D02*
X153476000Y-140060000D01*
X135830000Y-150260000D02*
X146030000Y-140060000D01*
X135359000Y-150260000D02*
X135830000Y-150260000D01*
X134733000Y-150886000D02*
X135359000Y-150260000D01*
X134415000Y-150886000D02*
X134733000Y-150886000D01*
X125079000Y-160222000D02*
X134415000Y-150886000D01*
X123068000Y-160222000D02*
X125079000Y-160222000D01*
X122324000Y-160966000D02*
X123068000Y-160222000D01*
X114573000Y-160966000D02*
X122324000Y-160966000D01*
X104504000Y-171035000D02*
X114573000Y-160966000D01*
X104504000Y-171299000D02*
X104504000Y-171035000D01*
X92237300Y-183566000D02*
X104504000Y-171299000D01*
X92237300Y-184919000D02*
X92237300Y-183566000D01*
X71965500Y-205191000D02*
X92237300Y-184919000D01*
X71559900Y-205191000D02*
X71965500Y-205191000D01*
%TO.N,IO7*%
X159401000Y-136393000D02*
X160528000Y-136393000D01*
X153190000Y-142604000D02*
X159401000Y-136393000D01*
X144125000Y-142604000D02*
X153190000Y-142604000D01*
X136017000Y-150712000D02*
X144125000Y-142604000D01*
X135546000Y-150712000D02*
X136017000Y-150712000D01*
X134920000Y-151338000D02*
X135546000Y-150712000D01*
X134602000Y-151338000D02*
X134920000Y-151338000D01*
X125266000Y-160674000D02*
X134602000Y-151338000D01*
X123255000Y-160674000D02*
X125266000Y-160674000D01*
X118432000Y-165497000D02*
X123255000Y-160674000D01*
X110681000Y-165497000D02*
X118432000Y-165497000D01*
X104956000Y-171222000D02*
X110681000Y-165497000D01*
X104956000Y-171486000D02*
X104956000Y-171222000D01*
X104440000Y-172002000D02*
X104956000Y-171486000D01*
X104440000Y-173356000D02*
X104440000Y-172002000D01*
X66840700Y-210955000D02*
X104440000Y-173356000D01*
X55808200Y-210955000D02*
X66840700Y-210955000D01*
X54516900Y-209664000D02*
X55808200Y-210955000D01*
X54516900Y-209296000D02*
X54516900Y-209664000D01*
X53340000Y-209296000D02*
X54516900Y-209296000D01*
%TO.N,IO6*%
X160528000Y-140060000D02*
X160528000Y-138933000D01*
X150258000Y-150330000D02*
X160528000Y-140060000D01*
X150258000Y-196068000D02*
X150258000Y-150330000D01*
X149591000Y-196735000D02*
X150258000Y-196068000D01*
X149591000Y-197428000D02*
X149591000Y-196735000D01*
X147737000Y-199282000D02*
X149591000Y-197428000D01*
X147258000Y-199282000D02*
X147737000Y-199282000D01*
%TO.N,IO5*%
X149058000Y-136393000D02*
X152908000Y-136393000D01*
X135643000Y-149808000D02*
X149058000Y-136393000D01*
X135172000Y-149808000D02*
X135643000Y-149808000D01*
X134546000Y-150434000D02*
X135172000Y-149808000D01*
X134228000Y-150434000D02*
X134546000Y-150434000D01*
X125344000Y-159318000D02*
X134228000Y-150434000D01*
X123333000Y-159318000D02*
X125344000Y-159318000D01*
X122136000Y-160514000D02*
X123333000Y-159318000D01*
X114386000Y-160514000D02*
X122136000Y-160514000D01*
X104052000Y-170848000D02*
X114386000Y-160514000D01*
X104052000Y-170980000D02*
X104052000Y-170848000D01*
X92149400Y-182882000D02*
X104052000Y-170980000D01*
X90132100Y-182882000D02*
X92149400Y-182882000D01*
X88567200Y-184447000D02*
X90132100Y-182882000D01*
X88567200Y-187210000D02*
X88567200Y-184447000D01*
X71313200Y-204464000D02*
X88567200Y-187210000D01*
X70809700Y-204464000D02*
X71313200Y-204464000D01*
X64793700Y-210480000D02*
X70809700Y-204464000D01*
X60415300Y-210480000D02*
X64793700Y-210480000D01*
X59596900Y-209662000D02*
X60415300Y-210480000D01*
X59596900Y-209296000D02*
X59596900Y-209662000D01*
X58420000Y-209296000D02*
X59596900Y-209296000D01*
%TO.N,IO4*%
X150320000Y-133853000D02*
X152908000Y-133853000D01*
X135268000Y-148905000D02*
X150320000Y-133853000D01*
X134797000Y-148905000D02*
X135268000Y-148905000D01*
X134172000Y-149530000D02*
X134797000Y-148905000D01*
X133613000Y-149530000D02*
X134172000Y-149530000D01*
X125626000Y-157518000D02*
X133613000Y-149530000D01*
X123511000Y-157518000D02*
X125626000Y-157518000D01*
X121418000Y-159610000D02*
X123511000Y-157518000D01*
X114011000Y-159610000D02*
X121418000Y-159610000D01*
X103148000Y-170474000D02*
X114011000Y-159610000D01*
X103148000Y-170606000D02*
X103148000Y-170474000D01*
X91807600Y-181946000D02*
X103148000Y-170606000D01*
X89770600Y-181946000D02*
X91807600Y-181946000D01*
X87663400Y-184053000D02*
X89770600Y-181946000D01*
X87663400Y-186836000D02*
X87663400Y-184053000D01*
X78797500Y-195702000D02*
X87663400Y-186836000D01*
X74898900Y-195702000D02*
X78797500Y-195702000D01*
X62136900Y-208464000D02*
X74898900Y-195702000D01*
X62136900Y-209296000D02*
X62136900Y-208464000D01*
X60960000Y-209296000D02*
X62136900Y-209296000D01*
%TO.N,IO3*%
X152908000Y-132440000D02*
X152908000Y-131313000D01*
X153190000Y-132440000D02*
X152908000Y-132440000D01*
X154066000Y-133316000D02*
X153190000Y-132440000D01*
X154066000Y-134316000D02*
X154066000Y-133316000D01*
X153258000Y-135123000D02*
X154066000Y-134316000D01*
X149689000Y-135123000D02*
X153258000Y-135123000D01*
X135456000Y-149357000D02*
X149689000Y-135123000D01*
X134984000Y-149357000D02*
X135456000Y-149357000D01*
X134359000Y-149982000D02*
X134984000Y-149357000D01*
X134040000Y-149982000D02*
X134359000Y-149982000D01*
X126052000Y-157970000D02*
X134040000Y-149982000D01*
X124042000Y-157970000D02*
X126052000Y-157970000D01*
X121949000Y-160062000D02*
X124042000Y-157970000D01*
X114198000Y-160062000D02*
X121949000Y-160062000D01*
X103600000Y-170661000D02*
X114198000Y-160062000D01*
X103600000Y-170793000D02*
X103600000Y-170661000D01*
X91962200Y-182430000D02*
X103600000Y-170793000D01*
X89925200Y-182430000D02*
X91962200Y-182430000D01*
X88115300Y-184240000D02*
X89925200Y-182430000D01*
X88115300Y-187023000D02*
X88115300Y-184240000D01*
X71126000Y-204012000D02*
X88115300Y-187023000D01*
X69960600Y-204012000D02*
X71126000Y-204012000D01*
X64676900Y-209296000D02*
X69960600Y-204012000D01*
X63500000Y-209296000D02*
X64676900Y-209296000D01*
%TO.N,Net-(C22-Pad1)*%
X64516000Y-176784000D02*
X64516000Y-181356000D01*
X64516000Y-181356000D02*
X64516000Y-186436000D01*
%TO.N,decode3*%
X143012000Y-124820000D02*
X143012000Y-123693000D01*
X142778000Y-124820000D02*
X143012000Y-124820000D01*
X141597000Y-126001000D02*
X142778000Y-124820000D01*
X141597000Y-126780000D02*
X141597000Y-126001000D01*
X135794000Y-132583000D02*
X141597000Y-126780000D01*
X135025000Y-132583000D02*
X135794000Y-132583000D01*
X132975000Y-134632000D02*
X135025000Y-132583000D01*
X132975000Y-142939000D02*
X132975000Y-134632000D01*
X124712000Y-151202000D02*
X132975000Y-142939000D01*
X121629000Y-151202000D02*
X124712000Y-151202000D01*
X117931000Y-154900000D02*
X121629000Y-151202000D01*
X116750000Y-154900000D02*
X117931000Y-154900000D01*
X101792000Y-169858000D02*
X116750000Y-154900000D01*
X101792000Y-170017000D02*
X101792000Y-169858000D01*
X91218700Y-180590000D02*
X101792000Y-170017000D01*
X89156900Y-180590000D02*
X91218700Y-180590000D01*
X81722400Y-188025000D02*
X89156900Y-180590000D01*
X81722400Y-190793000D02*
X81722400Y-188025000D01*
X78328600Y-194187000D02*
X81722400Y-190793000D01*
X73182100Y-194187000D02*
X78328600Y-194187000D01*
X64168900Y-203200000D02*
X73182100Y-194187000D01*
X62992000Y-203200000D02*
X64168900Y-203200000D01*
%TO.N,decode2*%
X61628900Y-203200000D02*
X60452000Y-203200000D01*
X61628900Y-203568000D02*
X61628900Y-203200000D01*
X62458200Y-204397000D02*
X61628900Y-203568000D01*
X63610900Y-204397000D02*
X62458200Y-204397000D01*
X73369200Y-194639000D02*
X63610900Y-204397000D01*
X78582200Y-194639000D02*
X73369200Y-194639000D01*
X82745200Y-190476000D02*
X78582200Y-194639000D01*
X82745200Y-187641000D02*
X82745200Y-190476000D01*
X89344100Y-181042000D02*
X82745200Y-187641000D01*
X91432100Y-181042000D02*
X89344100Y-181042000D01*
X102244000Y-170230000D02*
X91432100Y-181042000D01*
X102244000Y-170097000D02*
X102244000Y-170230000D01*
X116566000Y-155775000D02*
X102244000Y-170097000D01*
X120252000Y-155775000D02*
X116566000Y-155775000D01*
X120316000Y-155710000D02*
X120252000Y-155775000D01*
X124099000Y-155710000D02*
X120316000Y-155710000D01*
X133714000Y-146095000D02*
X124099000Y-155710000D01*
X134526000Y-146095000D02*
X133714000Y-146095000D01*
X136563000Y-144058000D02*
X134526000Y-146095000D01*
X136563000Y-133624000D02*
X136563000Y-144058000D01*
X142684000Y-127503000D02*
X136563000Y-133624000D01*
X143411000Y-127503000D02*
X142684000Y-127503000D01*
X144173000Y-126741000D02*
X143411000Y-127503000D01*
X144173000Y-123207000D02*
X144173000Y-126741000D01*
X143246000Y-122280000D02*
X144173000Y-123207000D01*
X143012000Y-122280000D02*
X143246000Y-122280000D01*
X143012000Y-121153000D02*
X143012000Y-122280000D01*
%TO.N,decode1*%
X143012000Y-117200000D02*
X143012000Y-116073000D01*
X142730000Y-117200000D02*
X143012000Y-117200000D01*
X141885000Y-118045000D02*
X142730000Y-117200000D01*
X141885000Y-123952000D02*
X141885000Y-118045000D01*
X135794000Y-130043000D02*
X141885000Y-123952000D01*
X135064000Y-130043000D02*
X135794000Y-130043000D01*
X129537000Y-135570000D02*
X135064000Y-130043000D01*
X129537000Y-143898000D02*
X129537000Y-135570000D01*
X124845000Y-148590000D02*
X129537000Y-143898000D01*
X123602000Y-148590000D02*
X124845000Y-148590000D01*
X117744000Y-154448000D02*
X123602000Y-148590000D01*
X116481000Y-154448000D02*
X117744000Y-154448000D01*
X101340000Y-169589000D02*
X116481000Y-154448000D01*
X101340000Y-169829000D02*
X101340000Y-169589000D01*
X91030900Y-180138000D02*
X101340000Y-169829000D01*
X88969700Y-180138000D02*
X91030900Y-180138000D01*
X81111500Y-187997000D02*
X88969700Y-180138000D01*
X81111500Y-190739000D02*
X81111500Y-187997000D01*
X78407900Y-193442000D02*
X81111500Y-190739000D01*
X68480900Y-193442000D02*
X78407900Y-193442000D01*
X59088900Y-202834000D02*
X68480900Y-193442000D01*
X59088900Y-203200000D02*
X59088900Y-202834000D01*
X57912000Y-203200000D02*
X59088900Y-203200000D01*
%TO.N,decode0*%
X71605800Y-110125000D02*
X71839500Y-110359000D01*
X70088100Y-110125000D02*
X71605800Y-110125000D01*
X69465800Y-110747000D02*
X70088100Y-110125000D01*
X69465800Y-116986000D02*
X69465800Y-110747000D01*
X71767700Y-119288000D02*
X69465800Y-116986000D01*
X71767700Y-122856000D02*
X71767700Y-119288000D01*
X65702200Y-128921000D02*
X71767700Y-122856000D01*
X65702200Y-146768000D02*
X65702200Y-128921000D01*
X66946800Y-148012000D02*
X65702200Y-146768000D01*
X66946800Y-156145000D02*
X66946800Y-148012000D01*
X65357800Y-157734000D02*
X66946800Y-156145000D01*
X64698400Y-157734000D02*
X65357800Y-157734000D01*
X58529400Y-163903000D02*
X64698400Y-157734000D01*
X58529400Y-198866000D02*
X58529400Y-163903000D01*
X55372000Y-202023000D02*
X58529400Y-198866000D01*
X55372000Y-203200000D02*
X55372000Y-202023000D01*
%TO.N,2CA2*%
X146304000Y-52213100D02*
X146304000Y-53340000D01*
X145793000Y-52213100D02*
X146304000Y-52213100D01*
X134889000Y-41308900D02*
X145793000Y-52213100D01*
X134889000Y-40132000D02*
X134889000Y-41308900D01*
%TO.N,2CA1*%
X146304000Y-49157500D02*
X146304000Y-50800000D01*
X136078000Y-38931600D02*
X146304000Y-49157500D01*
X134358000Y-38931600D02*
X136078000Y-38931600D01*
X133526000Y-39764200D02*
X134358000Y-38931600D01*
X133526000Y-40132000D02*
X133526000Y-39764200D01*
X132349000Y-40132000D02*
X133526000Y-40132000D01*
%TO.N,2CB2*%
X131064000Y-95393100D02*
X131064000Y-96520000D01*
X131298000Y-95393100D02*
X131064000Y-95393100D01*
X132213000Y-94478000D02*
X131298000Y-95393100D01*
X132213000Y-52868100D02*
X132213000Y-94478000D01*
X131414000Y-52070000D02*
X132213000Y-52868100D01*
X130232000Y-52070000D02*
X131414000Y-52070000D01*
X129904000Y-51742100D02*
X130232000Y-52070000D01*
X129904000Y-49674800D02*
X129904000Y-51742100D01*
X130191000Y-49388300D02*
X129904000Y-49674800D01*
X130191000Y-41690900D02*
X130191000Y-49388300D01*
X129809000Y-41308900D02*
X130191000Y-41690900D01*
X129809000Y-40132000D02*
X129809000Y-41308900D01*
%TO.N,2CB1*%
X127269000Y-41308900D02*
X127269000Y-40132000D01*
X127656000Y-41695800D02*
X127269000Y-41308900D01*
X127656000Y-89948600D02*
X127656000Y-41695800D01*
X130560000Y-92853100D02*
X127656000Y-89948600D01*
X131064000Y-92853100D02*
X130560000Y-92853100D01*
X131064000Y-93980000D02*
X131064000Y-92853100D01*
%TO.N,1CA2*%
X124729000Y-47097600D02*
X124729000Y-40132000D01*
X120959000Y-50867800D02*
X124729000Y-47097600D01*
X120959000Y-53441000D02*
X120959000Y-50867800D01*
X119933000Y-54466900D02*
X120959000Y-53441000D01*
X119380000Y-54466900D02*
X119933000Y-54466900D01*
X119380000Y-53340000D02*
X119380000Y-54466900D01*
%TO.N,1CA1*%
X122189000Y-46864100D02*
X122189000Y-40132000D01*
X119380000Y-49673100D02*
X122189000Y-46864100D01*
X119380000Y-50800000D02*
X119380000Y-49673100D01*
%TO.N,1CB1*%
X128383000Y-89647600D02*
X128383000Y-45079400D01*
%TO.N,1CB2*%
X109792000Y-48552300D02*
X109792000Y-53430500D01*
X117035000Y-41308900D02*
X109792000Y-48552300D01*
X117109000Y-41308900D02*
X117035000Y-41308900D01*
X117109000Y-40132000D02*
X117109000Y-41308900D01*
X117445000Y-68351900D02*
X117445000Y-68616600D01*
X107041000Y-57948300D02*
X117445000Y-68351900D01*
X107041000Y-55068300D02*
X107041000Y-57948300D01*
X107500000Y-54610000D02*
X107041000Y-55068300D01*
X109889000Y-54610000D02*
X107500000Y-54610000D01*
X110170000Y-54891600D02*
X109889000Y-54610000D01*
X101725000Y-81458800D02*
X101139000Y-80872700D01*
X101725000Y-93211700D02*
X101725000Y-81458800D01*
X103906000Y-95393100D02*
X101725000Y-93211700D01*
X104140000Y-95393100D02*
X103906000Y-95393100D01*
X104140000Y-96520000D02*
X104140000Y-95393100D01*
%TO.N,OE*%
X174216000Y-135220000D02*
X174216000Y-135130000D01*
X176304000Y-137308000D02*
X174216000Y-135220000D01*
X186895000Y-137308000D02*
X176304000Y-137308000D01*
X187738000Y-136465000D02*
X186895000Y-137308000D01*
X187738000Y-136277000D02*
X187738000Y-136465000D01*
X188503000Y-135512000D02*
X187738000Y-136277000D01*
X190039000Y-135512000D02*
X188503000Y-135512000D01*
X190251000Y-135725000D02*
X190039000Y-135512000D01*
X198936000Y-135725000D02*
X190251000Y-135725000D01*
X203089000Y-131572000D02*
X198936000Y-135725000D01*
X204216000Y-131572000D02*
X203089000Y-131572000D01*
X83202500Y-103781000D02*
X86441200Y-107020000D01*
X83202500Y-86977500D02*
X83202500Y-103781000D01*
X84836000Y-85344000D02*
X83202500Y-86977500D01*
%TO.N,WE*%
X111578000Y-89776100D02*
X111578000Y-125030000D01*
X90706100Y-90037200D02*
X92498400Y-90037200D01*
X88552900Y-87884000D02*
X90706100Y-90037200D01*
X87376000Y-87884000D02*
X88552900Y-87884000D01*
%TO.N,ML*%
X86199100Y-82804000D02*
X87376000Y-82804000D01*
X86199100Y-83169800D02*
X86199100Y-82804000D01*
X85294900Y-84074000D02*
X86199100Y-83169800D01*
X84429300Y-84074000D02*
X85294900Y-84074000D01*
X82741700Y-85761600D02*
X84429300Y-84074000D01*
X82741700Y-104377000D02*
X82741700Y-85761600D01*
X87834200Y-109469000D02*
X82741700Y-104377000D01*
X87834200Y-118485000D02*
X87834200Y-109469000D01*
X89126200Y-119777000D02*
X87834200Y-118485000D01*
X89408000Y-119777000D02*
X89126200Y-119777000D01*
X89408000Y-120904000D02*
X89408000Y-119777000D01*
%TO.N,VP*%
X87376000Y-81440900D02*
X87376000Y-80264000D01*
X87743800Y-81440900D02*
X87376000Y-81440900D01*
X88577900Y-82275000D02*
X87743800Y-81440900D01*
X88577900Y-85870800D02*
X88577900Y-82275000D01*
X87765800Y-86682900D02*
X88577900Y-85870800D01*
X84299800Y-86682900D02*
X87765800Y-86682900D01*
X83654700Y-87328000D02*
X84299800Y-86682900D01*
X83654700Y-101373000D02*
X83654700Y-87328000D01*
X89408000Y-107126000D02*
X83654700Y-101373000D01*
X89408000Y-110744000D02*
X89408000Y-107126000D01*
%TO.N,a15*%
X83659100Y-80264000D02*
X84247600Y-80264000D01*
X82468500Y-79073400D02*
X83659100Y-80264000D01*
X71089700Y-79073400D02*
X82468500Y-79073400D01*
X70264900Y-79898200D02*
X71089700Y-79073400D01*
X70264900Y-80264000D02*
X70264900Y-79898200D01*
X69088000Y-80264000D02*
X70264900Y-80264000D01*
X104648000Y-148844000D02*
X104648000Y-148385000D01*
X134265000Y-116073000D02*
X135392000Y-116073000D01*
X133050000Y-117288000D02*
X134265000Y-116073000D01*
X124134000Y-117288000D02*
X133050000Y-117288000D01*
X120266000Y-121156000D02*
X124134000Y-117288000D01*
X120266000Y-130047000D02*
X120266000Y-121156000D01*
X119662000Y-130650000D02*
X120266000Y-130047000D01*
X119662000Y-132515000D02*
X119662000Y-130650000D01*
X117791000Y-134387000D02*
X119662000Y-132515000D01*
X117018000Y-134387000D02*
X117791000Y-134387000D01*
X116006000Y-135398000D02*
X117018000Y-134387000D01*
X115840000Y-135398000D02*
X116006000Y-135398000D01*
X114902000Y-136336000D02*
X115840000Y-135398000D01*
X114902000Y-139256000D02*
X114902000Y-136336000D01*
X105772000Y-148385000D02*
X114902000Y-139256000D01*
X104648000Y-148385000D02*
X105772000Y-148385000D01*
X81837900Y-82673700D02*
X84247600Y-80264000D01*
X81837900Y-104751000D02*
X81837900Y-82673700D01*
X86930400Y-109844000D02*
X81837900Y-104751000D01*
X86930400Y-121779000D02*
X86930400Y-109844000D01*
X87383800Y-122232000D02*
X86930400Y-121779000D01*
X87383800Y-128143000D02*
X87383800Y-122232000D01*
X88955000Y-129715000D02*
X87383800Y-128143000D01*
X89669100Y-129715000D02*
X88955000Y-129715000D01*
X101117000Y-141162000D02*
X89669100Y-129715000D01*
X101117000Y-141815000D02*
X101117000Y-141162000D01*
X102458000Y-143156000D02*
X101117000Y-141815000D01*
X102458000Y-145760000D02*
X102458000Y-143156000D01*
X104414000Y-147717000D02*
X102458000Y-145760000D01*
X104648000Y-147717000D02*
X104414000Y-147717000D01*
X104648000Y-148385000D02*
X104648000Y-147717000D01*
X84836000Y-80264000D02*
X84247600Y-80264000D01*
%TO.N,RDY*%
X89408000Y-112157000D02*
X89408000Y-113284000D01*
X90122500Y-112157000D02*
X89408000Y-112157000D01*
X95670600Y-106609000D02*
X90122500Y-112157000D01*
X95670600Y-86827700D02*
X95670600Y-106609000D01*
X87743800Y-78900900D02*
X95670600Y-86827700D01*
X87376000Y-78900900D02*
X87743800Y-78900900D01*
X87376000Y-77724000D02*
X87376000Y-78900900D01*
%TO.N,a14*%
X70264900Y-77724000D02*
X69676500Y-77724000D01*
X70264900Y-77358200D02*
X70264900Y-77724000D01*
X71089700Y-76533400D02*
X70264900Y-77358200D01*
X82468500Y-76533400D02*
X71089700Y-76533400D01*
X83659100Y-77724000D02*
X82468500Y-76533400D01*
X84836000Y-77724000D02*
X83659100Y-77724000D01*
X104648000Y-151384000D02*
X104648000Y-150257000D01*
X131492000Y-121153000D02*
X135392000Y-121153000D01*
X120913000Y-131731000D02*
X131492000Y-121153000D01*
X120540000Y-131731000D02*
X120913000Y-131731000D01*
X120114000Y-132157000D02*
X120540000Y-131731000D01*
X120114000Y-132722000D02*
X120114000Y-132157000D01*
X117572000Y-135264000D02*
X120114000Y-132722000D01*
X116779000Y-135264000D02*
X117572000Y-135264000D01*
X116193000Y-135850000D02*
X116779000Y-135264000D01*
X116027000Y-135850000D02*
X116193000Y-135850000D01*
X115522000Y-136355000D02*
X116027000Y-135850000D01*
X115522000Y-139618000D02*
X115522000Y-136355000D01*
X104883000Y-150257000D02*
X115522000Y-139618000D01*
X104648000Y-150257000D02*
X104883000Y-150257000D01*
X67890600Y-79509900D02*
X69676500Y-77724000D01*
X67890600Y-80745800D02*
X67890600Y-79509900D01*
X68678800Y-81534000D02*
X67890600Y-80745800D01*
X72077600Y-81534000D02*
X68678800Y-81534000D01*
X80587500Y-90043900D02*
X72077600Y-81534000D01*
X80587500Y-95967800D02*
X80587500Y-90043900D01*
X80587600Y-95967800D02*
X80587500Y-95967800D01*
X81088500Y-96468700D02*
X80587600Y-95967800D01*
X81088500Y-105714000D02*
X81088500Y-96468700D01*
X86478500Y-111104000D02*
X81088500Y-105714000D01*
X86478500Y-121966000D02*
X86478500Y-111104000D01*
X86931900Y-122420000D02*
X86478500Y-121966000D01*
X86931900Y-130232000D02*
X86931900Y-122420000D01*
X89034400Y-132334000D02*
X86931900Y-130232000D01*
X89765900Y-132334000D02*
X89034400Y-132334000D01*
X97028000Y-139596000D02*
X89765900Y-132334000D01*
X97028000Y-142871000D02*
X97028000Y-139596000D01*
X104414000Y-150257000D02*
X97028000Y-142871000D01*
X104648000Y-150257000D02*
X104414000Y-150257000D01*
X69088000Y-77724000D02*
X69676500Y-77724000D01*
%TO.N,BE*%
X80771900Y-132080000D02*
X80772000Y-132080000D01*
X80771900Y-127430000D02*
X80771900Y-132080000D01*
X77731000Y-124389000D02*
X80771900Y-127430000D01*
X77731000Y-114174000D02*
X77731000Y-124389000D01*
X64209900Y-100653000D02*
X77731000Y-114174000D01*
X64209900Y-93046100D02*
X64209900Y-100653000D01*
X63081100Y-91917300D02*
X64209900Y-93046100D01*
X63081100Y-83196300D02*
X63081100Y-91917300D01*
X56245700Y-76360900D02*
X63081100Y-83196300D01*
X55880000Y-76360900D02*
X56245700Y-76360900D01*
X55880000Y-75184000D02*
X55880000Y-76360900D01*
%TO.N,a13*%
X104648000Y-153924000D02*
X104648000Y-152797000D01*
X203089000Y-122460000D02*
X190552000Y-134998000D01*
X203089000Y-121412000D02*
X203089000Y-122460000D01*
X204216000Y-121412000D02*
X203089000Y-121412000D01*
X121599000Y-136551000D02*
X121599000Y-136323000D01*
X117180000Y-140970000D02*
X121599000Y-136551000D01*
X116448000Y-140970000D02*
X117180000Y-140970000D01*
X105775000Y-151643000D02*
X116448000Y-140970000D01*
X105775000Y-151952000D02*
X105775000Y-151643000D01*
X104930000Y-152797000D02*
X105775000Y-151952000D01*
X104648000Y-152797000D02*
X104930000Y-152797000D01*
X129598000Y-123693000D02*
X135392000Y-123693000D01*
X121599000Y-131692000D02*
X129598000Y-123693000D01*
X121599000Y-136323000D02*
X121599000Y-131692000D01*
X70264900Y-75184000D02*
X69088000Y-75184000D01*
X70264900Y-74818200D02*
X70264900Y-75184000D01*
X71089700Y-73993400D02*
X70264900Y-74818200D01*
X82468500Y-73993400D02*
X71089700Y-73993400D01*
X83659100Y-75184000D02*
X82468500Y-73993400D01*
X84836000Y-75184000D02*
X83659100Y-75184000D01*
X104414000Y-152797000D02*
X104648000Y-152797000D01*
X94201000Y-142584000D02*
X104414000Y-152797000D01*
X94201000Y-139291000D02*
X94201000Y-142584000D01*
X89784000Y-134874000D02*
X94201000Y-139291000D01*
X89032200Y-134874000D02*
X89784000Y-134874000D01*
X87394500Y-133236000D02*
X89032200Y-134874000D01*
X87394500Y-132472000D02*
X87394500Y-133236000D01*
X86028100Y-131106000D02*
X87394500Y-132472000D01*
X86028100Y-123433000D02*
X86028100Y-131106000D01*
X85574700Y-122980000D02*
X86028100Y-123433000D01*
X85574700Y-113154000D02*
X85574700Y-122980000D01*
X80135600Y-107715000D02*
X85574700Y-113154000D01*
X80135600Y-97571600D02*
X80135600Y-107715000D01*
X80135500Y-97571600D02*
X80135600Y-97571600D01*
X79634700Y-97070800D02*
X80135500Y-97571600D01*
X79634700Y-91631100D02*
X79634700Y-97070800D01*
X72077600Y-84074000D02*
X79634700Y-91631100D01*
X68602100Y-84074000D02*
X72077600Y-84074000D01*
X67438700Y-82910600D02*
X68602100Y-84074000D01*
X67438700Y-77642400D02*
X67438700Y-82910600D01*
X68720200Y-76360900D02*
X67438700Y-77642400D01*
X69088000Y-76360900D02*
X68720200Y-76360900D01*
X69088000Y-75184000D02*
X69088000Y-76360900D01*
%TO.N,IRQ*%
X89408000Y-117237000D02*
X89408000Y-118364000D01*
X89687600Y-117237000D02*
X89408000Y-117237000D01*
X96137400Y-110787000D02*
X89687600Y-117237000D01*
X96137400Y-82216500D02*
X96137400Y-110787000D01*
X87741800Y-73820900D02*
X96137400Y-82216500D01*
X87376000Y-73820900D02*
X87741800Y-73820900D01*
X87376000Y-72644000D02*
X87376000Y-73820900D01*
X102744000Y-142139000D02*
X102744000Y-142414000D01*
X93279000Y-132674000D02*
X102744000Y-142139000D01*
X93279000Y-125718000D02*
X93279000Y-132674000D01*
%TO.N,a12*%
X105775000Y-156464000D02*
X104648000Y-156464000D01*
X116189000Y-146050000D02*
X105775000Y-156464000D01*
X117236000Y-146050000D02*
X116189000Y-146050000D01*
X121865000Y-141420000D02*
X117236000Y-146050000D01*
X121865000Y-137119000D02*
X121865000Y-141420000D01*
X122357000Y-136627000D02*
X121865000Y-137119000D01*
X122357000Y-136025000D02*
X122357000Y-136627000D01*
X122263000Y-135931000D02*
X122357000Y-136025000D01*
X122263000Y-131667000D02*
X122263000Y-135931000D01*
X127697000Y-126233000D02*
X122263000Y-131667000D01*
X135392000Y-126233000D02*
X127697000Y-126233000D01*
X70264900Y-72644000D02*
X69088000Y-72644000D01*
X70264900Y-72278200D02*
X70264900Y-72644000D01*
X71089700Y-71453400D02*
X70264900Y-72278200D01*
X82468500Y-71453400D02*
X71089700Y-71453400D01*
X83659100Y-72644000D02*
X82468500Y-71453400D01*
X84836000Y-72644000D02*
X83659100Y-72644000D01*
X104648000Y-155337000D02*
X104648000Y-156464000D01*
X104417000Y-155337000D02*
X104648000Y-155337000D01*
X90986800Y-141907000D02*
X104417000Y-155337000D01*
X90986800Y-138617000D02*
X90986800Y-141907000D01*
X89783900Y-137414000D02*
X90986800Y-138617000D01*
X89017800Y-137414000D02*
X89783900Y-137414000D01*
X86028100Y-134424000D02*
X89017800Y-137414000D01*
X86028100Y-131745000D02*
X86028100Y-134424000D01*
X85576200Y-131293000D02*
X86028100Y-131745000D01*
X85576200Y-123620000D02*
X85576200Y-131293000D01*
X85122800Y-123167000D02*
X85576200Y-123620000D01*
X85122800Y-113341000D02*
X85122800Y-123167000D01*
X79539800Y-107758000D02*
X85122800Y-113341000D01*
X79539800Y-97615000D02*
X79539800Y-107758000D01*
X79182800Y-97258000D02*
X79539800Y-97615000D01*
X79182800Y-93719200D02*
X79182800Y-97258000D01*
X72077600Y-86614000D02*
X79182800Y-93719200D01*
X68606000Y-86614000D02*
X72077600Y-86614000D01*
X66986800Y-84994800D02*
X68606000Y-86614000D01*
X66986800Y-75554200D02*
X66986800Y-84994800D01*
X68720100Y-73820900D02*
X66986800Y-75554200D01*
X69088000Y-73820900D02*
X68720100Y-73820900D01*
X69088000Y-72644000D02*
X69088000Y-73820900D01*
%TO.N,SYNC*%
X87376000Y-71280900D02*
X87376000Y-70104000D01*
X87010200Y-71280900D02*
X87376000Y-71280900D01*
X86012900Y-72278200D02*
X87010200Y-71280900D01*
X86012900Y-80788000D02*
X86012900Y-72278200D01*
X85351100Y-81449800D02*
X86012900Y-80788000D01*
X84478500Y-81449800D02*
X85351100Y-81449800D01*
X82289800Y-83638500D02*
X84478500Y-81449800D01*
X82289800Y-104564000D02*
X82289800Y-83638500D01*
X87382300Y-109657000D02*
X82289800Y-104564000D01*
X87382300Y-121592000D02*
X87382300Y-109657000D01*
X87835700Y-122045000D02*
X87382300Y-121592000D01*
X87835700Y-123499000D02*
X87835700Y-122045000D01*
X89193600Y-124857000D02*
X87835700Y-123499000D01*
X89408000Y-124857000D02*
X89193600Y-124857000D01*
X89408000Y-125984000D02*
X89408000Y-124857000D01*
%TO.N,a11*%
X70264900Y-70104000D02*
X69088000Y-70104000D01*
X70264900Y-69738200D02*
X70264900Y-70104000D01*
X71089700Y-68913400D02*
X70264900Y-69738200D01*
X82468500Y-68913400D02*
X71089700Y-68913400D01*
X83659100Y-70104000D02*
X82468500Y-68913400D01*
X84836000Y-70104000D02*
X83659100Y-70104000D01*
X91661800Y-157877000D02*
X91661800Y-157627000D01*
X90534900Y-159004000D02*
X91661800Y-157877000D01*
X89408000Y-159004000D02*
X90534900Y-159004000D01*
X91661800Y-157099000D02*
X91661800Y-157627000D01*
X89775900Y-155213000D02*
X91661800Y-157099000D01*
X89072300Y-155213000D02*
X89775900Y-155213000D01*
X82595900Y-148737000D02*
X89072300Y-155213000D01*
X82595900Y-145885000D02*
X82595900Y-148737000D01*
X82181800Y-145471000D02*
X82595900Y-145885000D01*
X82181800Y-128102000D02*
X82181800Y-145471000D01*
X78182900Y-124103000D02*
X82181800Y-128102000D01*
X78182900Y-113987000D02*
X78182900Y-124103000D01*
X64661800Y-100466000D02*
X78182900Y-113987000D01*
X64661800Y-92858900D02*
X64661800Y-100466000D01*
X63533000Y-91730100D02*
X64661800Y-92858900D01*
X63533000Y-74509100D02*
X63533000Y-91730100D01*
X59765800Y-70741900D02*
X63533000Y-74509100D01*
X190128000Y-130310000D02*
X191405000Y-129032000D01*
X188633000Y-130310000D02*
X190128000Y-130310000D01*
X184873000Y-134069000D02*
X188633000Y-130310000D01*
X184873000Y-136573000D02*
X184873000Y-134069000D01*
X125871000Y-136211000D02*
X125871000Y-137447000D01*
X133309000Y-128773000D02*
X125871000Y-136211000D01*
X135392000Y-128773000D02*
X133309000Y-128773000D01*
X106304000Y-157627000D02*
X91661800Y-157627000D01*
X115342000Y-148590000D02*
X106304000Y-157627000D01*
X117193000Y-148590000D02*
X115342000Y-148590000D01*
X122317000Y-143466000D02*
X117193000Y-148590000D01*
X122317000Y-140200000D02*
X122317000Y-143466000D01*
X124087000Y-138430000D02*
X122317000Y-140200000D01*
X124888000Y-138430000D02*
X124087000Y-138430000D01*
X125871000Y-137447000D02*
X124888000Y-138430000D01*
%TO.N,RESET*%
X187452000Y-178658000D02*
X187452000Y-177531000D01*
X187170000Y-178658000D02*
X187452000Y-178658000D01*
X173627000Y-192202000D02*
X187170000Y-178658000D01*
X173627000Y-198352000D02*
X173627000Y-192202000D01*
X172446000Y-199533000D02*
X173627000Y-198352000D01*
X172212000Y-199533000D02*
X172446000Y-199533000D01*
X172212000Y-200660000D02*
X172212000Y-199533000D01*
X65024000Y-155337000D02*
X65024000Y-156464000D01*
X65305700Y-155337000D02*
X65024000Y-155337000D01*
X66195800Y-154447000D02*
X65305700Y-155337000D01*
X66195800Y-148414000D02*
X66195800Y-154447000D01*
X57581600Y-139800000D02*
X66195800Y-148414000D01*
X57581600Y-112888000D02*
X57581600Y-139800000D01*
X58928000Y-111542000D02*
X57581600Y-112888000D01*
X55880000Y-68740900D02*
X55880000Y-67564000D01*
X55578700Y-68740900D02*
X55880000Y-68740900D01*
X54689500Y-69630100D02*
X55578700Y-68740900D01*
X54689500Y-90989200D02*
X54689500Y-69630100D01*
X55173000Y-91472700D02*
X54689500Y-90989200D01*
X55173000Y-92926400D02*
X55173000Y-91472700D01*
X56662100Y-94415500D02*
X55173000Y-92926400D01*
X56662100Y-109276000D02*
X56662100Y-94415500D01*
X58928000Y-111542000D02*
X56662100Y-109276000D01*
X104648000Y-109617000D02*
X104648000Y-110744000D01*
X101212000Y-106181000D02*
X104648000Y-109617000D01*
X101212000Y-82210900D02*
X101212000Y-106181000D01*
X87741800Y-68740900D02*
X101212000Y-82210900D01*
X87376000Y-68740900D02*
X87741800Y-68740900D01*
X87376000Y-67564000D02*
X87376000Y-68740900D01*
X122373000Y-163916000D02*
X123156000Y-163133000D01*
X122373000Y-176319000D02*
X122373000Y-163916000D01*
X130204000Y-184150000D02*
X122373000Y-176319000D01*
X130884000Y-184150000D02*
X130204000Y-184150000D01*
X144669000Y-197936000D02*
X130884000Y-184150000D01*
X144669000Y-198688000D02*
X144669000Y-197936000D01*
X145514000Y-199533000D02*
X144669000Y-198688000D01*
X145796000Y-199533000D02*
X145514000Y-199533000D01*
X145796000Y-200660000D02*
X145796000Y-199533000D01*
%TO.N,a10*%
X70264900Y-67564000D02*
X69088000Y-67564000D01*
X70264900Y-67198200D02*
X70264900Y-67564000D01*
X71089700Y-66373400D02*
X70264900Y-67198200D01*
X82468500Y-66373400D02*
X71089700Y-66373400D01*
X83659100Y-67564000D02*
X82468500Y-66373400D01*
X84836000Y-67564000D02*
X83659100Y-67564000D01*
X89408000Y-157591000D02*
X89408000Y-156464000D01*
X89126300Y-157591000D02*
X89408000Y-157591000D01*
X81956700Y-150421000D02*
X89126300Y-157591000D01*
X81956700Y-146110000D02*
X81956700Y-150421000D01*
X77053700Y-141207000D02*
X81956700Y-146110000D01*
X77053700Y-114136000D02*
X77053700Y-141207000D01*
X63758000Y-100840000D02*
X77053700Y-114136000D01*
X63758000Y-93233300D02*
X63758000Y-100840000D01*
X59677000Y-89152300D02*
X63758000Y-93233300D01*
X59677000Y-84021300D02*
X59677000Y-89152300D01*
X59676900Y-84021300D02*
X59677000Y-84021300D01*
X132506000Y-131695000D02*
X132506000Y-131313000D01*
X128810000Y-135390000D02*
X132506000Y-131695000D01*
X128810000Y-135774000D02*
X128810000Y-135390000D01*
X128810000Y-139515000D02*
X128810000Y-135774000D01*
X124815000Y-143510000D02*
X128810000Y-139515000D01*
X124091000Y-143510000D02*
X124815000Y-143510000D01*
X119347000Y-148254000D02*
X124091000Y-143510000D01*
X119347000Y-151557000D02*
X119347000Y-148254000D01*
X117360000Y-153544000D02*
X119347000Y-151557000D01*
X112334000Y-153544000D02*
X117360000Y-153544000D01*
X105699000Y-160180000D02*
X112334000Y-153544000D01*
X88916700Y-160180000D02*
X105699000Y-160180000D01*
X88210300Y-159473000D02*
X88916700Y-160180000D01*
X88210300Y-158507000D02*
X88210300Y-159473000D01*
X89126300Y-157591000D02*
X88210300Y-158507000D01*
%TO.N,PHI2*%
X202349000Y-151766000D02*
X202375000Y-151766000D01*
X201552000Y-152563000D02*
X202349000Y-151766000D01*
X201552000Y-170386000D02*
X201552000Y-152563000D01*
X202490000Y-171324000D02*
X201552000Y-170386000D01*
X202692000Y-171324000D02*
X202490000Y-171324000D01*
X202692000Y-172451000D02*
X202692000Y-171324000D01*
X109371000Y-113641000D02*
X109371000Y-92712000D01*
X104648000Y-118364000D02*
X109371000Y-113641000D01*
X141010000Y-114905000D02*
X139402000Y-113296000D01*
X143458000Y-114905000D02*
X141010000Y-114905000D01*
X144169000Y-115616000D02*
X143458000Y-114905000D01*
X144169000Y-121417000D02*
X144169000Y-115616000D01*
X144648000Y-121896000D02*
X144169000Y-121417000D01*
X144648000Y-128770000D02*
X144648000Y-121896000D01*
X143233000Y-130186000D02*
X144648000Y-128770000D01*
X142543000Y-130186000D02*
X143233000Y-130186000D01*
X137886000Y-134843000D02*
X142543000Y-130186000D01*
X137886000Y-144370000D02*
X137886000Y-134843000D01*
X134707000Y-147549000D02*
X137886000Y-144370000D01*
X133706000Y-147549000D02*
X134707000Y-147549000D01*
X133384000Y-147871000D02*
X133706000Y-147549000D01*
X87376000Y-66200900D02*
X87376000Y-65024000D01*
X87741800Y-66200900D02*
X87376000Y-66200900D01*
X101852000Y-80311600D02*
X87741800Y-66200900D01*
X101852000Y-80528500D02*
X101852000Y-80311600D01*
X102267000Y-80942600D02*
X101852000Y-80528500D01*
X102267000Y-91163500D02*
X102267000Y-80942600D01*
X103730000Y-92627400D02*
X102267000Y-91163500D01*
X105374000Y-92627400D02*
X103730000Y-92627400D01*
X105952000Y-92049000D02*
X105374000Y-92627400D01*
X97696900Y-169672000D02*
X96520000Y-169672000D01*
X97696900Y-168740000D02*
X97696900Y-169672000D01*
X104806000Y-161630000D02*
X97696900Y-168740000D01*
X105423000Y-161630000D02*
X104806000Y-161630000D01*
X113057000Y-153996000D02*
X105423000Y-161630000D01*
X117557000Y-153996000D02*
X113057000Y-153996000D01*
X120813000Y-150740000D02*
X117557000Y-153996000D01*
X120813000Y-148590000D02*
X120813000Y-150740000D01*
X135392000Y-100134000D02*
X135392000Y-110993000D01*
X145499000Y-90026900D02*
X135392000Y-100134000D01*
X146304000Y-90026900D02*
X145499000Y-90026900D01*
X146304000Y-88900000D02*
X146304000Y-90026900D01*
%TO.N,a9*%
X70264900Y-65024000D02*
X69088000Y-65024000D01*
X70264900Y-64658200D02*
X70264900Y-65024000D01*
X71089700Y-63833400D02*
X70264900Y-64658200D01*
X82468500Y-63833400D02*
X71089700Y-63833400D01*
X83659100Y-65024000D02*
X82468500Y-63833400D01*
X84836000Y-65024000D02*
X83659100Y-65024000D01*
X123973000Y-154532000D02*
X119828000Y-154532000D01*
X133449000Y-145056000D02*
X123973000Y-154532000D01*
X133449000Y-136690000D02*
X133449000Y-145056000D01*
X135158000Y-134980000D02*
X133449000Y-136690000D01*
X135392000Y-134980000D02*
X135158000Y-134980000D01*
X135392000Y-133853000D02*
X135392000Y-134980000D01*
X89408000Y-152797000D02*
X89408000Y-153924000D01*
X89174500Y-152797000D02*
X89408000Y-152797000D01*
X83085600Y-146708000D02*
X89174500Y-152797000D01*
X83085600Y-145735000D02*
X83085600Y-146708000D01*
X82633700Y-145284000D02*
X83085600Y-145735000D01*
X82633700Y-127915000D02*
X82633700Y-145284000D01*
X78634800Y-123916000D02*
X82633700Y-127915000D01*
X78634800Y-113799000D02*
X78634800Y-123916000D01*
X65113700Y-100278000D02*
X78634800Y-113799000D01*
X65113700Y-92671700D02*
X65113700Y-100278000D01*
X63984900Y-91542900D02*
X65113700Y-92671700D01*
X63984900Y-73909900D02*
X63984900Y-91542900D01*
X56275900Y-66200900D02*
X63984900Y-73909900D01*
X55325900Y-66200900D02*
X56275900Y-66200900D01*
X54516900Y-65391900D02*
X55325900Y-66200900D01*
X54516900Y-65024000D02*
X54516900Y-65391900D01*
X53340000Y-65024000D02*
X54516900Y-65024000D01*
%TO.N,RW*%
X119380000Y-97646900D02*
X119380000Y-97083400D01*
X119662000Y-97646900D02*
X119380000Y-97646900D01*
X120507000Y-98492000D02*
X119662000Y-97646900D01*
X120507000Y-111226000D02*
X120507000Y-98492000D01*
X124226000Y-114946000D02*
X120507000Y-111226000D01*
X124460000Y-114946000D02*
X124226000Y-114946000D01*
X124460000Y-116073000D02*
X124460000Y-114946000D01*
X117237000Y-99226300D02*
X119380000Y-97083400D01*
X117237000Y-109328000D02*
X117237000Y-99226300D01*
X118454000Y-110544000D02*
X117237000Y-109328000D01*
X118454000Y-121186000D02*
X118454000Y-110544000D01*
X117074000Y-122566000D02*
X118454000Y-121186000D01*
X116840000Y-122566000D02*
X117074000Y-122566000D01*
X116840000Y-123693000D02*
X116840000Y-122566000D01*
X136519000Y-113533000D02*
X135392000Y-113533000D01*
X137789000Y-112263000D02*
X136519000Y-113533000D01*
X143337000Y-112263000D02*
X137789000Y-112263000D01*
X144497000Y-111103000D02*
X143337000Y-112263000D01*
X144497000Y-99172100D02*
X144497000Y-111103000D01*
X146022000Y-97646900D02*
X144497000Y-99172100D01*
X146304000Y-97646900D02*
X146022000Y-97646900D01*
X146304000Y-96520000D02*
X146304000Y-97646900D01*
X205842000Y-131545000D02*
X205842000Y-96520000D01*
X204688000Y-132699000D02*
X205842000Y-131545000D01*
X204034000Y-132699000D02*
X204688000Y-132699000D01*
X199644000Y-137089000D02*
X204034000Y-132699000D01*
X199644000Y-169736000D02*
X199644000Y-137089000D01*
X199469000Y-169911000D02*
X199644000Y-169736000D01*
X106978000Y-90075500D02*
X106978000Y-100424000D01*
X104533000Y-87630000D02*
X106978000Y-90075500D01*
X103801000Y-87630000D02*
X104533000Y-87630000D01*
X102756000Y-86585700D02*
X103801000Y-87630000D01*
X102756000Y-80793100D02*
X102756000Y-86585700D01*
X102448000Y-80485300D02*
X102756000Y-80793100D01*
X102448000Y-78365600D02*
X102448000Y-80485300D01*
X87743800Y-63660900D02*
X102448000Y-78365600D01*
X87376000Y-63660900D02*
X87743800Y-63660900D01*
X87376000Y-62484000D02*
X87376000Y-63660900D01*
X119380000Y-96520000D02*
X119380000Y-97083400D01*
%TO.N,a8*%
X70264900Y-62484000D02*
X69088000Y-62484000D01*
X70264900Y-62118200D02*
X70264900Y-62484000D01*
X71089700Y-61293400D02*
X70264900Y-62118200D01*
X82468500Y-61293400D02*
X71089700Y-61293400D01*
X83659100Y-62484000D02*
X82468500Y-61293400D01*
X84836000Y-62484000D02*
X83659100Y-62484000D01*
X89408000Y-150257000D02*
X89408000Y-151384000D01*
X89174500Y-150257000D02*
X89408000Y-150257000D01*
X83085600Y-144168000D02*
X89174500Y-150257000D01*
X83085600Y-126873000D02*
X83085600Y-144168000D01*
X79086700Y-122874000D02*
X83085600Y-126873000D01*
X79086700Y-113612000D02*
X79086700Y-122874000D01*
X65567100Y-100093000D02*
X79086700Y-113612000D01*
X65567100Y-92486000D02*
X65567100Y-100093000D01*
X64436800Y-91355700D02*
X65567100Y-92486000D01*
X64436800Y-71832800D02*
X64436800Y-91355700D01*
X56264900Y-63660900D02*
X64436800Y-71832800D01*
X55325900Y-63660900D02*
X56264900Y-63660900D01*
X54516900Y-62851900D02*
X55325900Y-63660900D01*
X54516900Y-62484000D02*
X54516900Y-62851900D01*
X53340000Y-62484000D02*
X54516900Y-62484000D01*
X204216000Y-122825000D02*
X204216000Y-123952000D01*
X204450000Y-122825000D02*
X204216000Y-122825000D01*
X205390000Y-121885000D02*
X204450000Y-122825000D01*
X205390000Y-118412000D02*
X205390000Y-121885000D01*
X204681000Y-117703000D02*
X205390000Y-118412000D01*
X203751000Y-117703000D02*
X204681000Y-117703000D01*
X202639000Y-118815000D02*
X203751000Y-117703000D01*
X202639000Y-119555000D02*
X202639000Y-118815000D01*
X189352000Y-132842000D02*
X202639000Y-119555000D01*
X188577000Y-132842000D02*
X189352000Y-132842000D01*
X186628000Y-134791000D02*
X188577000Y-132842000D01*
X186628000Y-136547000D02*
X186628000Y-134791000D01*
X134001000Y-145144000D02*
X134225000Y-145368000D01*
X123886000Y-155259000D02*
X134001000Y-145144000D01*
X119022000Y-155259000D02*
X123886000Y-155259000D01*
X118811000Y-155048000D02*
X119022000Y-155259000D01*
X135392000Y-137520000D02*
X135392000Y-136393000D01*
X135158000Y-137520000D02*
X135392000Y-137520000D01*
X134177000Y-138502000D02*
X135158000Y-137520000D01*
X134177000Y-144968000D02*
X134177000Y-138502000D01*
X134001000Y-145144000D02*
X134177000Y-144968000D01*
%TO.N,d7*%
X204216000Y-140319000D02*
X204216000Y-139192000D01*
X204498000Y-140319000D02*
X204216000Y-140319000D01*
X205355000Y-141176000D02*
X204498000Y-140319000D01*
X205355000Y-144766000D02*
X205355000Y-141176000D01*
X204579000Y-145542000D02*
X205355000Y-144766000D01*
X203856000Y-145542000D02*
X204579000Y-145542000D01*
X200646000Y-148752000D02*
X203856000Y-145542000D01*
X200646000Y-169420000D02*
X200646000Y-148752000D01*
X200648000Y-169422000D02*
X200646000Y-169420000D01*
X200648000Y-174590000D02*
X200648000Y-169422000D01*
X202462000Y-176404000D02*
X200648000Y-174590000D01*
X202692000Y-176404000D02*
X202462000Y-176404000D01*
X202692000Y-177531000D02*
X202692000Y-176404000D01*
X102999000Y-79984300D02*
X103177000Y-80161900D01*
X102999000Y-78109000D02*
X102999000Y-79984300D01*
X102547000Y-77657100D02*
X102999000Y-78109000D01*
X102547000Y-75926200D02*
X102547000Y-77657100D01*
X87741800Y-61120900D02*
X102547000Y-75926200D01*
X87376000Y-61120900D02*
X87741800Y-61120900D01*
X87376000Y-59944000D02*
X87376000Y-61120900D01*
X129358000Y-158732000D02*
X129116000Y-158491000D01*
X130871000Y-158732000D02*
X129358000Y-158732000D01*
X143538000Y-171399000D02*
X130871000Y-158732000D01*
X143538000Y-182562000D02*
X143538000Y-171399000D01*
X143856000Y-182880000D02*
X143538000Y-182562000D01*
X114858000Y-91727700D02*
X114858000Y-92807200D01*
X119098000Y-87486900D02*
X114858000Y-91727700D01*
X119380000Y-87486900D02*
X119098000Y-87486900D01*
X119380000Y-86360000D02*
X119380000Y-87486900D01*
X114011000Y-96387400D02*
X117546000Y-92853100D01*
X114011000Y-102114000D02*
X114011000Y-96387400D01*
X113812000Y-102314000D02*
X114011000Y-102114000D01*
X113812000Y-131654000D02*
X113812000Y-102314000D01*
X113167000Y-132299000D02*
X113812000Y-131654000D01*
X113167000Y-132938000D02*
X113167000Y-132299000D01*
X105854000Y-140251000D02*
X113167000Y-132938000D01*
X105854000Y-144205000D02*
X105854000Y-140251000D01*
X104882000Y-145177000D02*
X105854000Y-144205000D01*
X104648000Y-145177000D02*
X104882000Y-145177000D01*
X104648000Y-146304000D02*
X104648000Y-145177000D01*
%TO.N,a7*%
X181554000Y-121412000D02*
X181091000Y-121875000D01*
X188976000Y-121412000D02*
X181554000Y-121412000D01*
X70264900Y-59944000D02*
X69088000Y-59944000D01*
X70264900Y-59578200D02*
X70264900Y-59944000D01*
X71089700Y-58753400D02*
X70264900Y-59578200D01*
X82468500Y-58753400D02*
X71089700Y-58753400D01*
X83659100Y-59944000D02*
X82468500Y-58753400D01*
X84836000Y-59944000D02*
X83659100Y-59944000D01*
X159401000Y-121153000D02*
X160528000Y-121153000D01*
X159401000Y-121435000D02*
X159401000Y-121153000D01*
X153428000Y-127408000D02*
X159401000Y-121435000D01*
X152413000Y-127408000D02*
X153428000Y-127408000D01*
X151899000Y-126894000D02*
X152413000Y-127408000D01*
X151600000Y-126894000D02*
X151899000Y-126894000D01*
X121706000Y-156908000D02*
X121516000Y-156908000D01*
X121910000Y-156705000D02*
X121706000Y-156908000D01*
X122549000Y-156705000D02*
X121910000Y-156705000D01*
X122640000Y-156614000D02*
X122549000Y-156705000D01*
X125170000Y-156614000D02*
X122640000Y-156614000D01*
X130541000Y-151244000D02*
X125170000Y-156614000D01*
X130622000Y-151244000D02*
X130541000Y-151244000D01*
X131048000Y-150818000D02*
X130622000Y-151244000D01*
X131048000Y-150737000D02*
X131048000Y-150818000D01*
X133158000Y-148626000D02*
X131048000Y-150737000D01*
X133797000Y-148626000D02*
X133158000Y-148626000D01*
X134423000Y-148001000D02*
X133797000Y-148626000D01*
X134894000Y-148001000D02*
X134423000Y-148001000D01*
X138497000Y-144398000D02*
X134894000Y-148001000D01*
X138497000Y-139308000D02*
X138497000Y-144398000D01*
X142682000Y-135123000D02*
X138497000Y-139308000D01*
X143371000Y-135123000D02*
X142682000Y-135123000D01*
X151600000Y-126894000D02*
X143371000Y-135123000D01*
X150694000Y-125987000D02*
X151600000Y-126894000D01*
X150694000Y-125935000D02*
X150694000Y-125987000D01*
X146783000Y-122024000D02*
X150694000Y-125935000D01*
X146783000Y-121778000D02*
X146783000Y-122024000D01*
X144687000Y-119681000D02*
X146783000Y-121778000D01*
X144687000Y-114938000D02*
X144687000Y-119681000D01*
X144235000Y-114486000D02*
X144687000Y-114938000D01*
X144235000Y-112464000D02*
X144235000Y-114486000D01*
X86012900Y-59944000D02*
X84836000Y-59944000D01*
X86012900Y-59578200D02*
X86012900Y-59944000D01*
X86837700Y-58753400D02*
X86012900Y-59578200D01*
X87859300Y-58753400D02*
X86837700Y-58753400D01*
X102999000Y-73893100D02*
X87859300Y-58753400D01*
X102999000Y-76685300D02*
X102999000Y-73893100D01*
X103784000Y-77470000D02*
X102999000Y-76685300D01*
X104496000Y-77470000D02*
X103784000Y-77470000D01*
X108157000Y-81130900D02*
X104496000Y-77470000D01*
X108157000Y-97164600D02*
X108157000Y-81130900D01*
X108432000Y-97439600D02*
X108157000Y-97164600D01*
X108432000Y-107411000D02*
X108432000Y-97439600D01*
X106995000Y-108848000D02*
X108432000Y-107411000D01*
%TO.N,d6*%
X111757000Y-77246400D02*
X108644000Y-77246400D01*
X118253000Y-83742200D02*
X111757000Y-77246400D01*
X118253000Y-83820000D02*
X118253000Y-83742200D01*
X119380000Y-83820000D02*
X118253000Y-83820000D01*
X108644000Y-76565400D02*
X108644000Y-77246400D01*
X104612000Y-72533100D02*
X108644000Y-76565400D01*
X103682000Y-72533100D02*
X104612000Y-72533100D01*
X88552900Y-57404000D02*
X103682000Y-72533100D01*
X87376000Y-57404000D02*
X88552900Y-57404000D01*
X204216000Y-142859000D02*
X204216000Y-141732000D01*
X203934000Y-142859000D02*
X204216000Y-142859000D01*
X200194000Y-146599000D02*
X203934000Y-142859000D01*
X200194000Y-169607000D02*
X200194000Y-146599000D01*
X200196000Y-169609000D02*
X200194000Y-169607000D01*
X200196000Y-175008000D02*
X200196000Y-169609000D01*
X201277000Y-176090000D02*
X200196000Y-175008000D01*
X201277000Y-177763000D02*
X201277000Y-176090000D01*
X202458000Y-178944000D02*
X201277000Y-177763000D01*
X202692000Y-178944000D02*
X202458000Y-178944000D01*
X202692000Y-180071000D02*
X202692000Y-178944000D01*
X153848000Y-179257000D02*
X153848000Y-180340000D01*
X156451000Y-176654000D02*
X153848000Y-179257000D01*
X158131000Y-176654000D02*
X156451000Y-176654000D01*
X108644000Y-97012500D02*
X108644000Y-77246400D01*
X108884000Y-97252400D02*
X108644000Y-97012500D01*
X108884000Y-113192000D02*
X108884000Y-97252400D01*
X104982000Y-117094000D02*
X108884000Y-113192000D01*
X104306000Y-117094000D02*
X104982000Y-117094000D01*
X102544000Y-118856000D02*
X104306000Y-117094000D01*
X102544000Y-140765000D02*
X102544000Y-118856000D01*
X104416000Y-142637000D02*
X102544000Y-140765000D01*
X104648000Y-142637000D02*
X104416000Y-142637000D01*
X104648000Y-143764000D02*
X104648000Y-142637000D01*
X158131000Y-172223000D02*
X158131000Y-176654000D01*
X157359000Y-171450000D02*
X158131000Y-172223000D01*
X156603000Y-171450000D02*
X157359000Y-171450000D01*
X151871000Y-166718000D02*
X156603000Y-171450000D01*
X151871000Y-155177000D02*
X151871000Y-166718000D01*
X159093000Y-177616000D02*
X159093000Y-182987000D01*
X158131000Y-176654000D02*
X159093000Y-177616000D01*
%TO.N,a6*%
X70264900Y-57404000D02*
X69088000Y-57404000D01*
X70264900Y-57038200D02*
X70264900Y-57404000D01*
X71089700Y-56213400D02*
X70264900Y-57038200D01*
X82468500Y-56213400D02*
X71089700Y-56213400D01*
X83659100Y-57404000D02*
X82468500Y-56213400D01*
X84836000Y-57404000D02*
X83659100Y-57404000D01*
X61808900Y-97566600D02*
X56138200Y-91895900D01*
X61808900Y-137831000D02*
X61808900Y-97566600D01*
X52996100Y-91773700D02*
X54083600Y-91773700D01*
X52119700Y-90897300D02*
X52996100Y-91773700D01*
X52119700Y-59433400D02*
X52119700Y-90897300D01*
X52972200Y-58580900D02*
X52119700Y-59433400D01*
X53340000Y-58580900D02*
X52972200Y-58580900D01*
X53340000Y-57404000D02*
X53340000Y-58580900D01*
X165113000Y-121106000D02*
X165113000Y-134114000D01*
X162620000Y-118613000D02*
X165113000Y-121106000D01*
X120768000Y-156162000D02*
X119553000Y-157377000D01*
X124675000Y-156162000D02*
X120768000Y-156162000D01*
X130321000Y-150517000D02*
X124675000Y-156162000D01*
X166419000Y-145177000D02*
X162112000Y-149484000D01*
X167412000Y-145177000D02*
X166419000Y-145177000D01*
X167879000Y-144710000D02*
X167412000Y-145177000D01*
X167879000Y-143843000D02*
X167879000Y-144710000D01*
X165113000Y-141077000D02*
X167879000Y-143843000D01*
X165113000Y-134114000D02*
X165113000Y-141077000D01*
%TO.N,d5*%
X200370000Y-179396000D02*
X200370000Y-176402000D01*
X202458000Y-181484000D02*
X200370000Y-179396000D01*
X202692000Y-181484000D02*
X202458000Y-181484000D01*
X202692000Y-182611000D02*
X202692000Y-181484000D01*
X199192000Y-144554000D02*
X198910000Y-144272000D01*
X199192000Y-166188000D02*
X199192000Y-144554000D01*
X198740000Y-166639000D02*
X199192000Y-166188000D01*
X198740000Y-174772000D02*
X198740000Y-166639000D01*
X200370000Y-176402000D02*
X198740000Y-174772000D01*
X119380000Y-82406900D02*
X119380000Y-81280000D01*
X119662000Y-82406900D02*
X119380000Y-82406900D01*
X120544000Y-83289300D02*
X119662000Y-82406900D01*
X120544000Y-89363000D02*
X120544000Y-83289300D01*
X119803000Y-90104100D02*
X120544000Y-89363000D01*
X119088000Y-90104100D02*
X119803000Y-90104100D01*
X113559000Y-95632300D02*
X119088000Y-90104100D01*
X113559000Y-101927000D02*
X113559000Y-95632300D01*
X113360000Y-102126000D02*
X113559000Y-101927000D01*
X113360000Y-131466000D02*
X113360000Y-102126000D01*
X112715000Y-132112000D02*
X113360000Y-131466000D01*
X112715000Y-132247000D02*
X112715000Y-132112000D01*
X104865000Y-140097000D02*
X112715000Y-132247000D01*
X104648000Y-140097000D02*
X104865000Y-140097000D01*
X104648000Y-141224000D02*
X104648000Y-140097000D01*
X88552900Y-54864000D02*
X87376000Y-54864000D01*
X103682000Y-69993100D02*
X88552900Y-54864000D01*
X107091000Y-69993100D02*
X103682000Y-69993100D01*
X108824000Y-71726000D02*
X107091000Y-69993100D01*
X108824000Y-71850700D02*
X108824000Y-71726000D01*
X114589000Y-77615500D02*
X108824000Y-71850700D01*
X114936000Y-77615500D02*
X114589000Y-77615500D01*
X118253000Y-80932100D02*
X114936000Y-77615500D01*
X118253000Y-81280000D02*
X118253000Y-80932100D01*
X119380000Y-81280000D02*
X118253000Y-81280000D01*
%TO.N,a5*%
X178407000Y-119778000D02*
X178406000Y-119778000D01*
X178407000Y-120229000D02*
X178407000Y-119778000D01*
X184670000Y-126492000D02*
X178407000Y-120229000D01*
X188976000Y-126492000D02*
X184670000Y-126492000D01*
X149765000Y-111993000D02*
X149765000Y-107548000D01*
X152719000Y-114946000D02*
X149765000Y-111993000D01*
X158274000Y-114946000D02*
X152719000Y-114946000D01*
X159401000Y-116073000D02*
X158274000Y-114946000D01*
X160528000Y-116073000D02*
X159401000Y-116073000D01*
X89408000Y-142637000D02*
X89408000Y-143764000D01*
X89174500Y-142637000D02*
X89408000Y-142637000D01*
X85495000Y-138958000D02*
X89174500Y-142637000D01*
X85495000Y-131851000D02*
X85495000Y-138958000D01*
X85124300Y-131480000D02*
X85495000Y-131851000D01*
X85124300Y-123808000D02*
X85124300Y-131480000D01*
X84652600Y-123336000D02*
X85124300Y-123808000D01*
X84652600Y-113510000D02*
X84652600Y-123336000D01*
X78812900Y-107670000D02*
X84652600Y-113510000D01*
X78812900Y-104457000D02*
X78812900Y-107670000D01*
X69088000Y-56040900D02*
X69088000Y-54864000D01*
X68720200Y-56040900D02*
X69088000Y-56040900D01*
X66511700Y-58249400D02*
X68720200Y-56040900D01*
X66511700Y-86978400D02*
X66511700Y-58249400D01*
X68751700Y-89218400D02*
X66511700Y-86978400D01*
X69630200Y-89218400D02*
X68751700Y-89218400D01*
X70451100Y-90039300D02*
X69630200Y-89218400D01*
X70451100Y-96094800D02*
X70451100Y-90039300D01*
X78812900Y-104457000D02*
X70451100Y-96094800D01*
X83659100Y-54864000D02*
X84836000Y-54864000D01*
X82468500Y-53673400D02*
X83659100Y-54864000D01*
X71089700Y-53673400D02*
X82468500Y-53673400D01*
X70264900Y-54498200D02*
X71089700Y-53673400D01*
X70264900Y-54864000D02*
X70264900Y-54498200D01*
X69088000Y-54864000D02*
X70264900Y-54864000D01*
%TO.N,d4*%
X202692000Y-184024000D02*
X202692000Y-185151000D01*
X202974000Y-184024000D02*
X202692000Y-184024000D01*
X203822000Y-183176000D02*
X202974000Y-184024000D01*
X203822000Y-175882000D02*
X203822000Y-183176000D01*
X204216000Y-147939000D02*
X204216000Y-146812000D01*
X203982000Y-147939000D02*
X204216000Y-147939000D01*
X203060000Y-148862000D02*
X203982000Y-147939000D01*
X203060000Y-151422000D02*
X203060000Y-148862000D01*
X203822000Y-152185000D02*
X203060000Y-151422000D01*
X203822000Y-175882000D02*
X203822000Y-152185000D01*
X146934000Y-146076000D02*
X145774000Y-144916000D01*
X146934000Y-157949000D02*
X146934000Y-146076000D01*
X145990000Y-158893000D02*
X146934000Y-157949000D01*
X145328000Y-158893000D02*
X145990000Y-158893000D01*
X144632000Y-159589000D02*
X145328000Y-158893000D01*
X144632000Y-173168000D02*
X144632000Y-159589000D01*
X145597000Y-174133000D02*
X144632000Y-173168000D01*
X145796000Y-174133000D02*
X145597000Y-174133000D01*
X145796000Y-175260000D02*
X145796000Y-174133000D01*
X118253000Y-78740000D02*
X119380000Y-78740000D01*
X106966000Y-67453100D02*
X118253000Y-78740000D01*
X103682000Y-67453100D02*
X106966000Y-67453100D01*
X88552900Y-52324000D02*
X103682000Y-67453100D01*
X87376000Y-52324000D02*
X88552900Y-52324000D01*
X153021000Y-86350500D02*
X153021000Y-104039000D01*
X146538000Y-79866900D02*
X153021000Y-86350500D01*
X146304000Y-79866900D02*
X146538000Y-79866900D01*
X146304000Y-78740000D02*
X146304000Y-79866900D01*
X112868000Y-101590000D02*
X112868000Y-80825600D01*
X112832000Y-101626000D02*
X112868000Y-101590000D01*
X112832000Y-129569000D02*
X112832000Y-101626000D01*
X104844000Y-137557000D02*
X112832000Y-129569000D01*
X104648000Y-137557000D02*
X104844000Y-137557000D01*
X104648000Y-138684000D02*
X104648000Y-137557000D01*
%TO.N,a4*%
X186570000Y-129032000D02*
X188976000Y-129032000D01*
X177662000Y-120123000D02*
X186570000Y-129032000D01*
X177662000Y-113368000D02*
X177662000Y-120123000D01*
X176674000Y-112380000D02*
X177662000Y-113368000D01*
X70264900Y-52324000D02*
X69088000Y-52324000D01*
X70264900Y-51958200D02*
X70264900Y-52324000D01*
X71089700Y-51133400D02*
X70264900Y-51958200D01*
X82468500Y-51133400D02*
X71089700Y-51133400D01*
X83659100Y-52324000D02*
X82468500Y-51133400D01*
X84836000Y-52324000D02*
X83659100Y-52324000D01*
X73488100Y-105790000D02*
X78084400Y-105790000D01*
X67677200Y-99978900D02*
X73488100Y-105790000D01*
X67677200Y-90319500D02*
X67677200Y-99978900D01*
X66059800Y-88702100D02*
X67677200Y-90319500D01*
X66059800Y-56161300D02*
X66059800Y-88702100D01*
X68720200Y-53500900D02*
X66059800Y-56161300D01*
X69088000Y-53500900D02*
X68720200Y-53500900D01*
X69088000Y-52324000D02*
X69088000Y-53500900D01*
X158291000Y-113533000D02*
X153056000Y-108297000D01*
X160528000Y-113533000D02*
X158291000Y-113533000D01*
X85016500Y-132011000D02*
X85016500Y-140830000D01*
X84672400Y-131667000D02*
X85016500Y-132011000D01*
X84672400Y-124998000D02*
X84672400Y-131667000D01*
X83566500Y-123892000D02*
X84672400Y-124998000D01*
X83566500Y-116175000D02*
X83566500Y-123892000D01*
X78084400Y-110693000D02*
X83566500Y-116175000D01*
X78084400Y-105790000D02*
X78084400Y-110693000D01*
%TO.N,d3*%
X204646000Y-150909000D02*
X204646000Y-163882000D01*
X204216000Y-150479000D02*
X204646000Y-150909000D01*
X204216000Y-149352000D02*
X204216000Y-150479000D01*
X204646000Y-184828000D02*
X204646000Y-163882000D01*
X202910000Y-186564000D02*
X204646000Y-184828000D01*
X202692000Y-186564000D02*
X202910000Y-186564000D01*
X202692000Y-187691000D02*
X202692000Y-186564000D01*
X118253000Y-76200000D02*
X119380000Y-76200000D01*
X106966000Y-64913100D02*
X118253000Y-76200000D01*
X103682000Y-64913100D02*
X106966000Y-64913100D01*
X88552900Y-49784000D02*
X103682000Y-64913100D01*
X87376000Y-49784000D02*
X88552900Y-49784000D01*
X147412000Y-170259000D02*
X147412000Y-144464000D01*
X146078000Y-171593000D02*
X147412000Y-170259000D01*
X145796000Y-171593000D02*
X146078000Y-171593000D01*
X145796000Y-172720000D02*
X145796000Y-171593000D01*
X104648000Y-135017000D02*
X104648000Y-136144000D01*
X104366000Y-135017000D02*
X104648000Y-135017000D01*
X103019000Y-133670000D02*
X104366000Y-135017000D01*
X103019000Y-120889000D02*
X103019000Y-133670000D01*
X104417000Y-119491000D02*
X103019000Y-120889000D01*
X105115000Y-119491000D02*
X104417000Y-119491000D01*
X110098000Y-114508000D02*
X105115000Y-119491000D01*
X110098000Y-92410900D02*
X110098000Y-114508000D01*
X109455000Y-91767900D02*
X110098000Y-92410900D01*
X109455000Y-79237900D02*
X109455000Y-91767900D01*
X110141000Y-78552200D02*
X109455000Y-79237900D01*
%TO.N,a3*%
X83659100Y-49784000D02*
X84836000Y-49784000D01*
X82468500Y-48593400D02*
X83659100Y-49784000D01*
X71089700Y-48593400D02*
X82468500Y-48593400D01*
X70264900Y-49418200D02*
X71089700Y-48593400D01*
X70264900Y-49784000D02*
X70264900Y-49418200D01*
X69088000Y-49784000D02*
X70264900Y-49784000D01*
X86012900Y-53277300D02*
X86329600Y-53594000D01*
X86012900Y-51769900D02*
X86012900Y-53277300D01*
X85203900Y-50960900D02*
X86012900Y-51769900D01*
X84836000Y-50960900D02*
X85203900Y-50960900D01*
X84836000Y-49784000D02*
X84836000Y-50960900D01*
X83537500Y-137932000D02*
X84289500Y-138684000D01*
X83537500Y-126648000D02*
X83537500Y-137932000D01*
X79538600Y-122649000D02*
X83537500Y-126648000D01*
X79538600Y-113425000D02*
X79538600Y-122649000D01*
X66706800Y-100593000D02*
X79538600Y-113425000D01*
X66706800Y-90627300D02*
X66706800Y-100593000D01*
X65115200Y-89035700D02*
X66706800Y-90627300D01*
X65115200Y-62396000D02*
X65115200Y-89035700D01*
X56313200Y-53594000D02*
X65115200Y-62396000D01*
X55449100Y-53594000D02*
X56313200Y-53594000D01*
X54516900Y-52661800D02*
X55449100Y-53594000D01*
X54516900Y-51769900D02*
X54516900Y-52661800D01*
X53707900Y-50960900D02*
X54516900Y-51769900D01*
X53340000Y-50960900D02*
X53707900Y-50960900D01*
X53340000Y-49784000D02*
X53340000Y-50960900D01*
X178109000Y-107063000D02*
X178109000Y-63500000D01*
X188648000Y-117602000D02*
X178109000Y-107063000D01*
X189375000Y-117602000D02*
X188648000Y-117602000D01*
X192132000Y-120359000D02*
X189375000Y-117602000D01*
X192132000Y-129408000D02*
X192132000Y-120359000D01*
X189968000Y-131572000D02*
X192132000Y-129408000D01*
X188976000Y-131572000D02*
X189968000Y-131572000D01*
%TO.N,d2*%
X70451100Y-47244000D02*
X71628000Y-47244000D01*
X70451100Y-47611800D02*
X70451100Y-47244000D01*
X69628300Y-48434600D02*
X70451100Y-47611800D01*
X58247500Y-48434600D02*
X69628300Y-48434600D01*
X57056900Y-47244000D02*
X58247500Y-48434600D01*
X55880000Y-47244000D02*
X57056900Y-47244000D01*
X217467000Y-153011000D02*
X219456000Y-151022000D01*
X217467000Y-175456000D02*
X217467000Y-153011000D01*
X202692000Y-190231000D02*
X217467000Y-175456000D01*
X172212000Y-169053000D02*
X172212000Y-169616000D01*
X172446000Y-169053000D02*
X172212000Y-169053000D01*
X187849000Y-153650000D02*
X172446000Y-169053000D01*
X187849000Y-148793000D02*
X187849000Y-153650000D01*
X188703000Y-147939000D02*
X187849000Y-148793000D01*
X188976000Y-147939000D02*
X188703000Y-147939000D01*
X188976000Y-146812000D02*
X188976000Y-147939000D01*
X105558000Y-58992500D02*
X105558000Y-58193200D01*
X119098000Y-72533100D02*
X105558000Y-58992500D01*
X119380000Y-72533100D02*
X119098000Y-72533100D01*
X119380000Y-73660000D02*
X119380000Y-72533100D01*
X175908000Y-140290000D02*
X176572000Y-140954000D01*
X175149000Y-140290000D02*
X175908000Y-140290000D01*
X173857000Y-141582000D02*
X175149000Y-140290000D01*
X173857000Y-157503000D02*
X173857000Y-141582000D01*
X172610000Y-158750000D02*
X173857000Y-157503000D01*
X171883000Y-158750000D02*
X172610000Y-158750000D01*
X171085000Y-159548000D02*
X171883000Y-158750000D01*
X171085000Y-168490000D02*
X171085000Y-159548000D01*
X172212000Y-169616000D02*
X171085000Y-168490000D01*
X105775000Y-133604000D02*
X104648000Y-133604000D01*
X112305000Y-127074000D02*
X105775000Y-133604000D01*
X112305000Y-102126000D02*
X112305000Y-127074000D01*
X112106000Y-101927000D02*
X112305000Y-102126000D01*
X112106000Y-101325000D02*
X112106000Y-101927000D01*
X112305000Y-101126000D02*
X112106000Y-101325000D01*
X112305000Y-89475000D02*
X112305000Y-101126000D01*
X112004000Y-89174800D02*
X112305000Y-89475000D01*
X112004000Y-78552500D02*
X112004000Y-89174800D01*
X111474000Y-78021800D02*
X112004000Y-78552500D01*
X172212000Y-170180000D02*
X172212000Y-169616000D01*
%TO.N,a2*%
X126679000Y-75669400D02*
X126679000Y-100951000D01*
X120507000Y-69497200D02*
X126679000Y-75669400D01*
X120507000Y-62932000D02*
X120507000Y-69497200D01*
X119662000Y-62086900D02*
X120507000Y-62932000D01*
X119380000Y-62086900D02*
X119662000Y-62086900D01*
X119380000Y-60960000D02*
X119380000Y-62086900D01*
X114264000Y-102668000D02*
X115982000Y-100951000D01*
X114264000Y-132620000D02*
X114264000Y-102668000D01*
X113917000Y-132967000D02*
X114264000Y-132620000D01*
X86012900Y-47244000D02*
X84836000Y-47244000D01*
X86012900Y-47611900D02*
X86012900Y-47244000D01*
X86821900Y-48420900D02*
X86012900Y-47611900D01*
X95499500Y-48420900D02*
X86821900Y-48420900D01*
X101576000Y-54497000D02*
X95499500Y-48420900D01*
X106748000Y-54497000D02*
X101576000Y-54497000D01*
X107087000Y-54158100D02*
X106748000Y-54497000D01*
X110465000Y-54158100D02*
X107087000Y-54158100D01*
X117267000Y-60960000D02*
X110465000Y-54158100D01*
X119380000Y-60960000D02*
X117267000Y-60960000D01*
%TO.N,d1*%
X72804900Y-44704000D02*
X71628000Y-44704000D01*
X73995500Y-45894600D02*
X72804900Y-44704000D01*
X85374300Y-45894600D02*
X73995500Y-45894600D01*
X86199100Y-45069800D02*
X85374300Y-45894600D01*
X86199100Y-44704000D02*
X86199100Y-45069800D01*
X87376000Y-44704000D02*
X86199100Y-44704000D01*
X202692000Y-191644000D02*
X202692000Y-192771000D01*
X202410000Y-191644000D02*
X202692000Y-191644000D01*
X201548000Y-190782000D02*
X202410000Y-191644000D01*
X201548000Y-189749000D02*
X201548000Y-190782000D01*
X202336000Y-188961000D02*
X201548000Y-189749000D01*
X203020000Y-188961000D02*
X202336000Y-188961000D01*
X211471000Y-180510000D02*
X203020000Y-188961000D01*
X211471000Y-157246000D02*
X211471000Y-180510000D01*
X219188000Y-149529000D02*
X211471000Y-157246000D01*
X219456000Y-149529000D02*
X219188000Y-149529000D01*
X219456000Y-148482000D02*
X219456000Y-149529000D01*
X172212000Y-166513000D02*
X172212000Y-167640000D01*
X172446000Y-166513000D02*
X172212000Y-166513000D01*
X187397000Y-151561000D02*
X172446000Y-166513000D01*
X187397000Y-146696000D02*
X187397000Y-151561000D01*
X188694000Y-145399000D02*
X187397000Y-146696000D01*
X188976000Y-145399000D02*
X188694000Y-145399000D01*
X188976000Y-144272000D02*
X188976000Y-145399000D01*
X165947000Y-163861000D02*
X169726000Y-167640000D01*
X165947000Y-151945000D02*
X165947000Y-163861000D01*
X170973000Y-146920000D02*
X165947000Y-151945000D01*
X170973000Y-141246000D02*
X170973000Y-146920000D01*
X171424000Y-140795000D02*
X170973000Y-141246000D01*
X119380000Y-69993100D02*
X119380000Y-71120000D01*
X117794000Y-69993100D02*
X119380000Y-69993100D01*
X116718000Y-68917600D02*
X117794000Y-69993100D01*
X116718000Y-68315300D02*
X116718000Y-68917600D01*
X105411000Y-57008400D02*
X116718000Y-68315300D01*
X100714000Y-57008400D02*
X105411000Y-57008400D01*
X92863000Y-49157100D02*
X100714000Y-57008400D01*
X104648000Y-129937000D02*
X104648000Y-131064000D01*
X104445000Y-129937000D02*
X104648000Y-129937000D01*
X103471000Y-128963000D02*
X104445000Y-129937000D01*
X103471000Y-125525000D02*
X103471000Y-128963000D01*
X104281000Y-124714000D02*
X103471000Y-125525000D01*
X105027000Y-124714000D02*
X104281000Y-124714000D01*
X110550000Y-119191000D02*
X105027000Y-124714000D01*
X110550000Y-92223700D02*
X110550000Y-119191000D01*
X110182000Y-91855700D02*
X110550000Y-92223700D01*
X110182000Y-79554200D02*
X110182000Y-91855700D01*
%TO.N,a1*%
X70264900Y-44704000D02*
X69088000Y-44704000D01*
X70264900Y-44338200D02*
X70264900Y-44704000D01*
X71089700Y-43513400D02*
X70264900Y-44338200D01*
X82468500Y-43513400D02*
X71089700Y-43513400D01*
X83659100Y-44704000D02*
X82468500Y-43513400D01*
X84836000Y-44704000D02*
X83659100Y-44704000D01*
X188976000Y-137779000D02*
X188976000Y-136652000D01*
X189227000Y-137779000D02*
X188976000Y-137779000D01*
X193714000Y-142266000D02*
X189227000Y-137779000D01*
X193714000Y-195824000D02*
X193714000Y-142266000D01*
X187734000Y-201804000D02*
X193714000Y-195824000D01*
X187452000Y-201804000D02*
X187734000Y-201804000D01*
X187452000Y-202931000D02*
X187452000Y-201804000D01*
X145177000Y-57293100D02*
X139882000Y-51997600D01*
X145177000Y-58420000D02*
X145177000Y-57293100D01*
X146304000Y-58420000D02*
X145177000Y-58420000D01*
X120530000Y-54722100D02*
X123328000Y-51924100D01*
X120530000Y-56339200D02*
X120530000Y-54722100D01*
X119576000Y-57293100D02*
X120530000Y-56339200D01*
X119380000Y-57293100D02*
X119576000Y-57293100D01*
X119380000Y-58420000D02*
X119380000Y-57293100D01*
X212485000Y-139815000D02*
X210496000Y-137826000D01*
X219456000Y-139815000D02*
X212485000Y-139815000D01*
X219456000Y-140862000D02*
X219456000Y-139815000D01*
X203206000Y-137826000D02*
X202917000Y-137538000D01*
X210496000Y-137826000D02*
X203206000Y-137826000D01*
X86480000Y-130676000D02*
X89408000Y-133604000D01*
X86480000Y-123246000D02*
X86480000Y-130676000D01*
X86026600Y-122793000D02*
X86480000Y-123246000D01*
X86026600Y-112965000D02*
X86026600Y-122793000D01*
X80587500Y-107526000D02*
X86026600Y-112965000D01*
X80587500Y-96995700D02*
X80587500Y-107526000D01*
X80361600Y-96769800D02*
X80587500Y-96995700D01*
X51667800Y-47185300D02*
X51667800Y-93966000D01*
X52972200Y-45880900D02*
X51667800Y-47185300D01*
X53340000Y-45880900D02*
X52972200Y-45880900D01*
X53340000Y-44704000D02*
X53340000Y-45880900D01*
X210496000Y-137826000D02*
X210496000Y-58420000D01*
%TO.N,d0*%
X57056900Y-42164000D02*
X55880000Y-42164000D01*
X58233800Y-43340900D02*
X57056900Y-42164000D01*
X70106500Y-43340900D02*
X58233800Y-43340900D01*
X70451100Y-42996300D02*
X70106500Y-43340900D01*
X70451100Y-42164000D02*
X70451100Y-42996300D01*
X71628000Y-42164000D02*
X70451100Y-42164000D01*
X198740000Y-145520000D02*
X196222000Y-143002000D01*
X198740000Y-165775000D02*
X198740000Y-145520000D01*
X198244000Y-166271000D02*
X198740000Y-165775000D01*
X198244000Y-190018000D02*
X198244000Y-166271000D01*
X202410000Y-194184000D02*
X198244000Y-190018000D01*
X202692000Y-194184000D02*
X202410000Y-194184000D01*
X202692000Y-195311000D02*
X202692000Y-194184000D01*
X106771000Y-130647000D02*
X106771000Y-131578000D01*
X104648000Y-128524000D02*
X106771000Y-130647000D01*
X172212000Y-163973000D02*
X172212000Y-165100000D01*
X172446000Y-163973000D02*
X172212000Y-163973000D01*
X179053000Y-157365000D02*
X172446000Y-163973000D01*
X179053000Y-144491000D02*
X179053000Y-157365000D01*
X180685000Y-142859000D02*
X179053000Y-144491000D01*
X188976000Y-142859000D02*
X180685000Y-142859000D01*
X188976000Y-141732000D02*
X188976000Y-142859000D01*
X175589000Y-141026000D02*
X175461000Y-141026000D01*
X179053000Y-144491000D02*
X175589000Y-141026000D01*
X107775000Y-56081200D02*
X107775000Y-55375300D01*
X119146000Y-67453100D02*
X107775000Y-56081200D01*
X119380000Y-67453100D02*
X119146000Y-67453100D01*
X119380000Y-68580000D02*
X119380000Y-67453100D01*
X110851000Y-80941600D02*
X110952000Y-80840300D01*
X110851000Y-90077100D02*
X110851000Y-80941600D01*
X111006000Y-90231700D02*
X110851000Y-90077100D01*
X111006000Y-121273000D02*
X111006000Y-90231700D01*
X104882000Y-127397000D02*
X111006000Y-121273000D01*
X104648000Y-127397000D02*
X104882000Y-127397000D01*
X104648000Y-128524000D02*
X104648000Y-127397000D01*
%TO.N,a0*%
X84220500Y-132264000D02*
X84264500Y-132308000D01*
X84220500Y-126640000D02*
X84220500Y-132264000D01*
X82743800Y-125163000D02*
X84220500Y-126640000D01*
X82743800Y-115991000D02*
X82743800Y-125163000D01*
X67158700Y-100406000D02*
X82743800Y-115991000D01*
X67158700Y-90440100D02*
X67158700Y-100406000D01*
X65567200Y-88848600D02*
X67158700Y-90440100D01*
X65567200Y-57782800D02*
X65567200Y-88848600D01*
X56298400Y-48514000D02*
X65567200Y-57782800D01*
X55449100Y-48514000D02*
X56298400Y-48514000D01*
X54516900Y-47581800D02*
X55449100Y-48514000D01*
X54516900Y-44149900D02*
X54516900Y-47581800D01*
X53707900Y-43340900D02*
X54516900Y-44149900D01*
X53340000Y-43340900D02*
X53707900Y-43340900D01*
X53340000Y-42164000D02*
X53340000Y-43340900D01*
X215626000Y-131187000D02*
X215626000Y-55880000D01*
X218950000Y-134512000D02*
X215626000Y-131187000D01*
X220013000Y-134512000D02*
X218950000Y-134512000D01*
X220833000Y-135332000D02*
X220013000Y-134512000D01*
X220833000Y-141272000D02*
X220833000Y-135332000D01*
X219750000Y-142355000D02*
X220833000Y-141272000D01*
X219456000Y-142355000D02*
X219750000Y-142355000D01*
X219456000Y-143402000D02*
X219456000Y-142355000D01*
X197718800Y-140462000D02*
X198852600Y-140462000D01*
X195021000Y-143159800D02*
X197718800Y-140462000D01*
X195021000Y-196957500D02*
X195021000Y-143159800D01*
X187866200Y-204112300D02*
X195021000Y-196957500D01*
X187021200Y-204112300D02*
X187866200Y-204112300D01*
X186274500Y-203365600D02*
X187021200Y-204112300D01*
X186274500Y-201568500D02*
X186274500Y-203365600D01*
X187452000Y-200391000D02*
X186274500Y-201568500D01*
%TO.N,Net-(D1-A)*%
X43688000Y-54864000D02*
X43688000Y-57404000D01*
X39624000Y-50800000D02*
X43688000Y-54864000D01*
%TO.N,AUDIO_OUT_LEFT*%
X35052000Y-173594000D02*
X34718000Y-173260000D01*
X35052000Y-186944000D02*
X35052000Y-173594000D01*
%TO.N,AUDIO_OUT_RIGHT*%
X40318000Y-183098000D02*
X40318000Y-173260000D01*
X44164000Y-186944000D02*
X40318000Y-183098000D01*
%TO.N,Net-(U13-C2+)*%
X220228000Y-194808000D02*
X223276000Y-194808000D01*
X215900000Y-199136000D02*
X220228000Y-194808000D01*
%TO.N,Net-(U13-C1+)*%
X220228000Y-187188000D02*
X223276000Y-187188000D01*
X215900000Y-191516000D02*
X220228000Y-187188000D01*
%TO.N,Net-(U11-THR)*%
X57404000Y-159512000D02*
X64214200Y-152702000D01*
X57912000Y-146400000D02*
X64214200Y-152702000D01*
X57912000Y-142748000D02*
X57912000Y-146400000D01*
X65024000Y-152797000D02*
X65024000Y-153924000D01*
X64309500Y-152797000D02*
X65024000Y-152797000D01*
X64214200Y-152702000D02*
X64309500Y-152797000D01*
%TO.N,NMI*%
X63306100Y-113598000D02*
X70612000Y-120904000D01*
X63306100Y-93584700D02*
X63306100Y-113598000D01*
X56242300Y-86520900D02*
X63306100Y-93584700D01*
X55880000Y-86520900D02*
X56242300Y-86520900D01*
X55880000Y-85344000D02*
X55880000Y-86520900D01*
%TO.N,GND*%
X105267000Y-49713100D02*
X109260000Y-45720000D01*
X105267000Y-50800000D02*
X105267000Y-49713100D01*
X104140000Y-50800000D02*
X105267000Y-50800000D01*
X132191000Y-49753100D02*
X136224000Y-45720000D01*
X132191000Y-50800000D02*
X132191000Y-49753100D01*
X131064000Y-50800000D02*
X132191000Y-50800000D01*
X158099000Y-156393000D02*
X162092000Y-152400000D01*
X158099000Y-157480000D02*
X158099000Y-156393000D01*
X156972000Y-157480000D02*
X158099000Y-157480000D01*
X230896000Y-188601000D02*
X230896000Y-189164000D01*
X230711000Y-188601000D02*
X230896000Y-188601000D01*
X224576000Y-182466000D02*
X230711000Y-188601000D01*
X224576000Y-182372000D02*
X224576000Y-182466000D01*
X187452000Y-169911000D02*
X188579000Y-169911000D01*
X37084000Y-62323100D02*
X37084000Y-50800000D01*
X37592000Y-62831100D02*
X37084000Y-62323100D01*
X37592000Y-64008000D02*
X37592000Y-62831100D01*
X69088000Y-99060000D02*
X69088000Y-90424000D01*
X36576000Y-94038500D02*
X36576000Y-86797000D01*
X35052000Y-95562500D02*
X36576000Y-94038500D01*
X36576000Y-74168000D02*
X36108000Y-74168000D01*
X37592000Y-73152000D02*
X36576000Y-74168000D01*
X37592000Y-64008000D02*
X37592000Y-73152000D01*
X36576000Y-74168000D02*
X36576000Y-86797000D01*
X45461600Y-149354000D02*
X46632000Y-148184000D01*
X45461600Y-152278000D02*
X45461600Y-149354000D01*
X44015900Y-153724000D02*
X45461600Y-152278000D01*
X43573900Y-153724000D02*
X44015900Y-153724000D01*
X32268000Y-165030000D02*
X43573900Y-153724000D01*
X32268000Y-175260000D02*
X32268000Y-165030000D01*
X32004000Y-98610500D02*
X32004000Y-108584000D01*
X35052000Y-95562500D02*
X32004000Y-98610500D01*
X30848900Y-124571000D02*
X31910000Y-125632000D01*
X30848900Y-109739000D02*
X30848900Y-124571000D01*
X32004000Y-108584000D02*
X30848900Y-109739000D01*
X75732000Y-179253000D02*
X75732000Y-159004000D01*
X81280000Y-184801000D02*
X75732000Y-179253000D01*
X81280000Y-185928000D02*
X81280000Y-184801000D01*
X164552000Y-44704000D02*
X168108000Y-41148000D01*
X154432000Y-44704000D02*
X164552000Y-44704000D01*
X60311600Y-117426000D02*
X58928000Y-116042000D01*
X60311600Y-128664000D02*
X60311600Y-117426000D01*
X58928000Y-130048000D02*
X60311600Y-128664000D01*
X52428000Y-143249000D02*
X52428000Y-130048000D01*
X57404000Y-148225000D02*
X52428000Y-143249000D01*
X57404000Y-149352000D02*
X57404000Y-148225000D01*
X219456000Y-152515000D02*
X219456000Y-153038000D01*
X219724000Y-152515000D02*
X219456000Y-152515000D01*
X220951000Y-151288000D02*
X219724000Y-152515000D01*
X220951000Y-150280000D02*
X220951000Y-151288000D01*
X234402000Y-136829000D02*
X220951000Y-150280000D01*
X234696000Y-136829000D02*
X234402000Y-136829000D01*
X234696000Y-135782000D02*
X234696000Y-136829000D01*
X202692000Y-197851000D02*
X202692000Y-200391000D01*
X188579000Y-188259000D02*
X188579000Y-169911000D01*
X187734000Y-189104000D02*
X188579000Y-188259000D01*
X187452000Y-189104000D02*
X187734000Y-189104000D01*
X187452000Y-190231000D02*
X187452000Y-189104000D01*
X188579000Y-169093000D02*
X188579000Y-169911000D01*
X192572000Y-165100000D02*
X188579000Y-169093000D01*
X188976000Y-161504000D02*
X188976000Y-149352000D01*
X192572000Y-165100000D02*
X188976000Y-161504000D01*
X167396000Y-123952000D02*
X167396000Y-124411000D01*
X167396000Y-129032000D02*
X167396000Y-128919000D01*
X167396000Y-125079000D02*
X167396000Y-124411000D01*
X167162000Y-125079000D02*
X167396000Y-125079000D01*
X166253000Y-125989000D02*
X167162000Y-125079000D01*
X166253000Y-127044000D02*
X166253000Y-125989000D01*
X167114000Y-127905000D02*
X166253000Y-127044000D01*
X167396000Y-127905000D02*
X167114000Y-127905000D01*
X167396000Y-128919000D02*
X167396000Y-127905000D01*
X234696000Y-185364000D02*
X234696000Y-174498000D01*
X230896000Y-189164000D02*
X234696000Y-185364000D01*
X112379000Y-152400000D02*
X116840000Y-152400000D01*
X105775000Y-159004000D02*
X112379000Y-152400000D01*
X104648000Y-159004000D02*
X105775000Y-159004000D01*
X166261000Y-123276000D02*
X167396000Y-124411000D01*
X166261000Y-118360000D02*
X166261000Y-123276000D01*
X167162000Y-117459000D02*
X166261000Y-118360000D01*
X167396000Y-117459000D02*
X167162000Y-117459000D01*
X167396000Y-116791000D02*
X167396000Y-117459000D01*
X167396000Y-116332000D02*
X167396000Y-116791000D01*
X209535000Y-188245000D02*
X209535000Y-200391000D01*
X213884000Y-183896000D02*
X209535000Y-188245000D01*
X224668000Y-158251000D02*
X219456000Y-153038000D01*
X224668000Y-182280000D02*
X224668000Y-158251000D01*
X224576000Y-182372000D02*
X224668000Y-182280000D01*
X175016000Y-119999000D02*
X175016000Y-118872000D01*
X174782000Y-119999000D02*
X175016000Y-119999000D01*
X173867000Y-120915000D02*
X174782000Y-119999000D01*
X173867000Y-125343000D02*
X173867000Y-120915000D01*
X175016000Y-126492000D02*
X173867000Y-125343000D01*
X131683000Y-157480000D02*
X130556000Y-157480000D01*
X131683000Y-156393000D02*
X131683000Y-157480000D01*
X135676000Y-152400000D02*
X131683000Y-156393000D01*
X78740000Y-189595000D02*
X78740000Y-191516000D01*
X81280000Y-187055000D02*
X78740000Y-189595000D01*
X81280000Y-185928000D02*
X81280000Y-187055000D01*
X75732000Y-150204000D02*
X75732000Y-159004000D01*
X71832000Y-146304000D02*
X75732000Y-150204000D01*
X54356000Y-189444000D02*
X54356000Y-186436000D01*
X56936000Y-192024000D02*
X54356000Y-189444000D01*
X168833000Y-130355000D02*
X167396000Y-128919000D01*
X168833000Y-145111000D02*
X168833000Y-130355000D01*
X167640000Y-146304000D02*
X168833000Y-145111000D01*
X118962000Y-106770000D02*
X118364000Y-106172000D01*
X118962000Y-124090000D02*
X118962000Y-106770000D01*
X117946000Y-125106000D02*
X118962000Y-124090000D01*
X118320000Y-125480000D02*
X117946000Y-125106000D01*
X118320000Y-131956000D02*
X118320000Y-125480000D01*
X118444000Y-132080000D02*
X118320000Y-131956000D01*
X116840000Y-125106000D02*
X116840000Y-126233000D01*
X117946000Y-125106000D02*
X116840000Y-125106000D01*
X194056000Y-51569100D02*
X194056000Y-106172000D01*
X106368000Y-183954000D02*
X105156000Y-185166000D01*
X111777000Y-183954000D02*
X106368000Y-183954000D01*
X114955000Y-180775000D02*
X111777000Y-183954000D01*
X114955000Y-178058000D02*
X114955000Y-180775000D01*
X113792000Y-176895000D02*
X114955000Y-178058000D01*
X113792000Y-175768000D02*
X113792000Y-176895000D01*
X167557000Y-105033000D02*
X168696000Y-106172000D01*
X155651000Y-105033000D02*
X167557000Y-105033000D01*
X154512000Y-106172000D02*
X155651000Y-105033000D01*
X167640000Y-146852000D02*
X167640000Y-146304000D01*
X162092000Y-152400000D02*
X167640000Y-146852000D01*
X168550000Y-115637000D02*
X167396000Y-116791000D01*
X168550000Y-106318000D02*
X168550000Y-115637000D01*
X168696000Y-106172000D02*
X168550000Y-106318000D01*
X129099000Y-157480000D02*
X130556000Y-157480000D01*
X125306000Y-161272000D02*
X129099000Y-157480000D01*
X123333000Y-161272000D02*
X125306000Y-161272000D01*
X114919000Y-169687000D02*
X123333000Y-161272000D01*
X114919000Y-171196000D02*
X114919000Y-169687000D01*
X113792000Y-171196000D02*
X114919000Y-171196000D01*
X171174000Y-44214400D02*
X171174000Y-46880200D01*
X168108000Y-41148000D02*
X171174000Y-44214400D01*
X219456000Y-153562000D02*
X219456000Y-153038000D01*
X215900000Y-206756000D02*
X209535000Y-200391000D01*
X209535000Y-200391000D02*
X202692000Y-200391000D01*
X230896000Y-189728000D02*
X230896000Y-189164000D01*
X209274000Y-49207400D02*
X209274000Y-50371000D01*
X209240000Y-51569100D02*
X194056000Y-51569100D01*
X209274000Y-51534600D02*
X209240000Y-51569100D01*
X209274000Y-50371000D02*
X209274000Y-51534600D01*
X209274400Y-50370600D02*
X209274400Y-49207400D01*
X209274000Y-50371000D02*
X209274400Y-50370600D01*
X186414000Y-49207400D02*
X186414000Y-48043800D01*
X186414000Y-46880200D02*
X171174000Y-46880200D01*
X186414000Y-48043800D02*
X186414000Y-46880200D01*
X186414400Y-48044200D02*
X186414400Y-49207400D01*
X186414000Y-48043800D02*
X186414400Y-48044200D01*
X194034000Y-51547500D02*
X194056000Y-51569100D01*
X194034000Y-49207400D02*
X194034000Y-51547500D01*
X171174000Y-46880200D02*
X171174000Y-48043800D01*
X171174000Y-48043800D02*
X171174000Y-49207400D01*
X171174400Y-48044200D02*
X171174400Y-49207400D01*
X171174000Y-48043800D02*
X171174400Y-48044200D01*
X194034400Y-49207400D02*
X194034000Y-49207400D01*
%TO.N,+5V*%
X160528000Y-107188000D02*
X160528000Y-110993000D01*
X159512000Y-106172000D02*
X160528000Y-107188000D01*
X203089000Y-110205000D02*
X199056000Y-106172000D01*
X203089000Y-111252000D02*
X203089000Y-110205000D01*
X204216000Y-111252000D02*
X203089000Y-111252000D01*
X224616000Y-109415000D02*
X224616000Y-106172000D01*
X234696000Y-119495000D02*
X224616000Y-109415000D01*
X234696000Y-120542000D02*
X234696000Y-119495000D01*
X172212000Y-157480000D02*
X171085000Y-157480000D01*
X144669000Y-156393000D02*
X144669000Y-157480000D01*
X140676000Y-152400000D02*
X144669000Y-156393000D01*
X145796000Y-157480000D02*
X144669000Y-157480000D01*
X230896000Y-183692000D02*
X230896000Y-187188000D01*
X229576000Y-182372000D02*
X230896000Y-183692000D01*
X40132000Y-73192000D02*
X41108000Y-74168000D01*
X40132000Y-64008000D02*
X40132000Y-73192000D01*
X41108000Y-84922100D02*
X41108000Y-74168000D01*
X41656000Y-85470100D02*
X41108000Y-84922100D01*
X41656000Y-86797000D02*
X41656000Y-85470100D01*
X32004000Y-122474000D02*
X32004000Y-115384000D01*
X32361900Y-122832000D02*
X32004000Y-122474000D01*
X32361900Y-122834000D02*
X32361900Y-122832000D01*
X33048500Y-123520000D02*
X32361900Y-122834000D01*
X33048500Y-131294000D02*
X33048500Y-123520000D01*
X31910000Y-132432000D02*
X33048500Y-131294000D01*
X112645000Y-167771000D02*
X113792000Y-166624000D01*
X112645000Y-179193000D02*
X112645000Y-167771000D01*
X113792000Y-180340000D02*
X112645000Y-179193000D01*
X70612000Y-111252000D02*
X70612000Y-116332000D01*
X143012000Y-107452000D02*
X141732000Y-106172000D01*
X143012000Y-110993000D02*
X143012000Y-107452000D01*
X66832000Y-146932000D02*
X66832000Y-146304000D01*
X72410500Y-152511000D02*
X66832000Y-146932000D01*
X66150900Y-158770000D02*
X72410500Y-152511000D01*
X66150900Y-159004000D02*
X66150900Y-158770000D01*
X65024000Y-159004000D02*
X66150900Y-159004000D01*
X72644000Y-152511000D02*
X72644000Y-151384000D01*
X72410500Y-152511000D02*
X72644000Y-152511000D01*
X173339000Y-187960000D02*
X172776000Y-187960000D01*
X173339000Y-187493000D02*
X173339000Y-187960000D01*
X187254000Y-173578000D02*
X173339000Y-187493000D01*
X187452000Y-173578000D02*
X187254000Y-173578000D01*
X187452000Y-172451000D02*
X187452000Y-173578000D01*
X124460000Y-107268000D02*
X124460000Y-110993000D01*
X123364000Y-106172000D02*
X124460000Y-107268000D01*
X129937000Y-99060000D02*
X130501000Y-99060000D01*
X129937000Y-99598900D02*
X129937000Y-99060000D01*
X123364000Y-106172000D02*
X129937000Y-99598900D01*
X104648000Y-114697000D02*
X104648000Y-115260000D01*
X104882000Y-114697000D02*
X104648000Y-114697000D01*
X105797000Y-113781000D02*
X104882000Y-114697000D01*
X105797000Y-101844000D02*
X105797000Y-113781000D01*
X104140000Y-100187000D02*
X105797000Y-101844000D01*
X104140000Y-99060000D02*
X104140000Y-100187000D01*
X223942000Y-171364000D02*
X223942000Y-179792000D01*
X219456000Y-166878000D02*
X223942000Y-171364000D01*
X167092000Y-152400000D02*
X167401000Y-152709000D01*
X171085000Y-156393000D02*
X171085000Y-157480000D01*
X167401000Y-152709000D02*
X171085000Y-156393000D01*
X70612000Y-136652000D02*
X70612000Y-132080000D01*
X78236200Y-165866000D02*
X89916000Y-177546000D01*
X78236200Y-144276000D02*
X78236200Y-165866000D01*
X70612000Y-136652000D02*
X78236200Y-144276000D01*
X124460000Y-133096000D02*
X124460000Y-137160000D01*
X123444000Y-132080000D02*
X124460000Y-133096000D01*
X102672000Y-115260000D02*
X104648000Y-115260000D01*
X90534900Y-127397000D02*
X102672000Y-115260000D01*
X90534900Y-128524000D02*
X90534900Y-127397000D01*
X89408000Y-128524000D02*
X90534900Y-128524000D01*
X175016000Y-107492000D02*
X175016000Y-111252000D01*
X173696000Y-106172000D02*
X175016000Y-107492000D01*
X130501000Y-108171000D02*
X130501000Y-99060000D01*
X134465000Y-112135000D02*
X130501000Y-108171000D01*
X136329000Y-112135000D02*
X134465000Y-112135000D01*
X141732000Y-106732000D02*
X136329000Y-112135000D01*
X141732000Y-106172000D02*
X141732000Y-106732000D01*
X66832000Y-140432000D02*
X70612000Y-136652000D01*
X66832000Y-146304000D02*
X66832000Y-140432000D01*
X202692000Y-201804000D02*
X202692000Y-202931000D01*
X202410000Y-201804000D02*
X202692000Y-201804000D01*
X197572000Y-196966000D02*
X202410000Y-201804000D01*
X197572000Y-165100000D02*
X197572000Y-196966000D01*
X94528000Y-103090000D02*
X94528000Y-105664000D01*
X86012900Y-94574700D02*
X94528000Y-103090000D01*
X86012900Y-89869900D02*
X86012900Y-94574700D01*
X85203900Y-89060900D02*
X86012900Y-89869900D01*
X84836000Y-89060900D02*
X85203900Y-89060900D01*
X84836000Y-87884000D02*
X84836000Y-89060900D01*
X70612000Y-130953000D02*
X70612000Y-132080000D01*
X74325800Y-127239000D02*
X70612000Y-130953000D01*
X74325800Y-120046000D02*
X74325800Y-127239000D01*
X70612000Y-116332000D02*
X74325800Y-120046000D01*
X144174000Y-157975000D02*
X144669000Y-157480000D01*
X144174000Y-182139000D02*
X144174000Y-157975000D01*
X144583000Y-182548000D02*
X144174000Y-182139000D01*
X144583000Y-185902000D02*
X144583000Y-182548000D01*
X145514000Y-186833000D02*
X144583000Y-185902000D01*
X145796000Y-186833000D02*
X145514000Y-186833000D01*
X145796000Y-187960000D02*
X145796000Y-186833000D01*
X170633000Y-185818000D02*
X172776000Y-187960000D01*
X170633000Y-157932000D02*
X170633000Y-185818000D01*
X171085000Y-157480000D02*
X170633000Y-157932000D01*
X173405000Y-146705000D02*
X167401000Y-152709000D01*
X173405000Y-140886000D02*
X173405000Y-146705000D01*
X173407000Y-140884000D02*
X173405000Y-140886000D01*
X173407000Y-115750000D02*
X173407000Y-140884000D01*
X173603000Y-115553000D02*
X173407000Y-115750000D01*
X173603000Y-113510000D02*
X173603000Y-115553000D01*
X174734000Y-112379000D02*
X173603000Y-113510000D01*
X175016000Y-112379000D02*
X174734000Y-112379000D01*
X175016000Y-111252000D02*
X175016000Y-112379000D01*
X123364000Y-96451000D02*
X123364000Y-106172000D01*
X122541000Y-95628300D02*
X123364000Y-96451000D01*
X122541000Y-95538500D02*
X122541000Y-95628300D01*
X119570000Y-92566900D02*
X122541000Y-95538500D01*
X119380000Y-92566900D02*
X119570000Y-92566900D01*
X119380000Y-91440000D02*
X119380000Y-92566900D01*
X146304000Y-92566900D02*
X146304000Y-91440000D01*
X146022000Y-92566900D02*
X146304000Y-92566900D01*
X141732000Y-96857200D02*
X146022000Y-92566900D01*
X141732000Y-106172000D02*
X141732000Y-96857200D01*
X172212000Y-187960000D02*
X172776000Y-187960000D01*
X131064000Y-99060000D02*
X130501000Y-99060000D01*
X104648000Y-115824000D02*
X104648000Y-115260000D01*
X173714000Y-106154000D02*
X173696000Y-106172000D01*
X173714000Y-49207400D02*
X173714000Y-106154000D01*
X173714400Y-49207400D02*
X173714000Y-49207400D01*
%TD*%
M02*
