M48
; DRILL file {KiCad 7.0.9-7.0.9~ubuntu22.04.1} date Sun 31 Dec 2023 02:55:34 PM CST
; FORMAT={-:-/ absolute / inch / decimal}
; #@! TF.CreationDate,2023-12-31T14:55:34-06:00
; #@! TF.GenerationSoftware,Kicad,Pcbnew,7.0.9-7.0.9~ubuntu22.04.1
; #@! TF.FileFunction,Plated,1,4,PTH
FMAT,2
INCH
; #@! TA.AperFunction,Plated,PTH,ViaDrill
T1C0.0157
; #@! TA.AperFunction,Plated,PTH,ComponentDrill
T2C0.0197
; #@! TA.AperFunction,Plated,PTH,ComponentDrill
T3C0.0311
; #@! TA.AperFunction,Plated,PTH,ComponentDrill
T4C0.0315
; #@! TA.AperFunction,Plated,PTH,ComponentDrill
T5C0.0354
; #@! TA.AperFunction,Plated,PTH,ComponentDrill
T6C0.0394
; #@! TA.AperFunction,Plated,PTH,ComponentDrill
T7C0.0433
; #@! TA.AperFunction,Plated,PTH,ComponentDrill
T8C0.0472
; #@! TA.AperFunction,Plated,PTH,ComponentDrill
T9C0.0591
; #@! TA.AperFunction,Plated,PTH,ComponentDrill
T10C0.0787
; #@! TA.AperFunction,Plated,PTH,ComponentDrill
T11C0.0984
; #@! TA.AperFunction,Plated,PTH,ComponentDrill
T12C0.1260
%
G90
G05
T1
X0.1257Y11.1393
X0.9692Y13.0201
X1.4727Y11.9116
X1.6429Y10.9531
X1.7712Y10.9993
X1.8116Y10.8455
X2.231Y12.9666
X2.2549Y13.3429
X2.2918Y11.5417
X2.3069Y13.3026
X2.3462Y9.4124
X2.4496Y9.8408
X2.5457Y10.7796
X2.5743Y10.9085
X2.6007Y13.1993
X2.6282Y11.3258
X2.6554Y10.3361
X2.7405Y13.6988
X2.8813Y12.692
X2.8888Y13.9367
X2.8982Y12.9436
X2.9098Y14.0102
X2.9395Y14.3714
X2.9657Y11.8837
X3.0262Y11.1704
X3.0268Y11.5295
X3.0789Y11.1365
X3.1654Y11.8239
X3.1814Y13.7406
X3.1944Y11.0342
X3.3422Y11.0777
X3.3819Y11.1036
X3.3979Y13.9001
X3.4171Y11.9572
X3.426Y13.7443
X3.4379Y12.6419
X3.4673Y11.6509
X3.5162Y11.8866
X3.5717Y10.6204
X3.5758Y13.9823
X3.6178Y10.9195
X3.6829Y10.7762
X3.8384Y12.796
X3.8434Y10.7521
X3.893Y11.747
X4.0166Y15.7904
X4.1981Y11.325
X4.2483Y11.443
X4.2604Y11.5977
X4.265Y11.4861
X4.3197Y11.2959
X4.3295Y11.247
X4.6863Y14.2107
X5.269Y11.917
X5.3248Y13.8947
T2
X1.0665Y13.5823
X1.1665Y13.5823
T3
X1.8291Y14.6637
X1.9291Y14.6637
X2.0291Y14.6637
T4
X-1.7579Y12.6654
X-1.6732Y11.5
X-1.6732Y11.4173
X-1.6732Y11.315
X-1.6732Y11.2323
X-1.6732Y10.8307
X-1.6732Y10.748
X-1.6732Y10.6457
X-1.6732Y10.563
X-1.6594Y12.6654
X-1.563Y11.5
X-1.563Y11.2323
X-1.563Y10.8307
X-1.563Y10.563
X-1.5386Y13.9764
X-1.174Y12.5913
X-1.174Y12.4913
X-1.174Y12.3913
X-1.174Y12.2913
X-1.174Y12.1913
X-1.174Y12.0913
X-1.174Y11.9913
X-1.174Y11.8913
X-1.174Y11.7913
X-1.174Y11.6913
X-1.174Y11.5913
X-1.174Y11.4913
X-1.174Y11.3913
X-1.174Y11.2913
X-1.174Y11.1913
X-1.174Y11.0913
X-1.174Y10.9913
X-1.174Y10.8913
X-1.174Y10.7913
X-1.174Y10.6913
X-1.1386Y13.9764
X-0.9722Y12.8013
X-0.7754Y12.8013
X-0.574Y12.5913
X-0.574Y12.4913
X-0.574Y12.3913
X-0.574Y12.2913
X-0.574Y12.1913
X-0.574Y12.0913
X-0.574Y11.9913
X-0.574Y11.8913
X-0.574Y11.7913
X-0.574Y11.6913
X-0.574Y11.5913
X-0.574Y11.4913
X-0.574Y11.3913
X-0.574Y11.2913
X-0.574Y11.1913
X-0.574Y11.0913
X-0.574Y10.9913
X-0.574Y10.8913
X-0.574Y10.7913
X-0.574Y10.6913
X-0.4577Y10.1624
X-0.4577Y10.0624
X-0.4577Y9.9624
X-0.4577Y9.8624
X-0.4577Y9.7624
X-0.4577Y9.6624
X-0.4577Y9.5624
X-0.4577Y9.4624
X-0.4577Y9.3624
X-0.4577Y9.2624
X-0.4577Y9.1624
X-0.4577Y9.0624
X-0.4577Y8.9624
X-0.4577Y8.8624
X-0.4577Y8.7624
X-0.4577Y8.6624
X-0.4577Y8.5624
X-0.4577Y8.4624
X-0.4577Y8.3624
X-0.4577Y8.2624
X-0.2559Y10.374
X-0.0591Y10.374
X0.1423Y10.1624
X0.1423Y10.0624
X0.1423Y9.9624
X0.1423Y9.8624
X0.1423Y9.7624
X0.1423Y9.6624
X0.1423Y9.5624
X0.1423Y9.4624
X0.1423Y9.3624
X0.1423Y9.2624
X0.1423Y9.1624
X0.1423Y9.0624
X0.1423Y8.9624
X0.1423Y8.8624
X0.1423Y8.7624
X0.1423Y8.6624
X0.1423Y8.5624
X0.1423Y8.4624
X0.1423Y8.3624
X0.1423Y8.2624
X0.2628Y13.813
X0.2628Y13.413
X0.2921Y10.1969
X0.2921Y9.8031
X0.2953Y10.0
X0.2953Y9.6063
X0.3135Y12.5592
X0.3135Y12.4592
X0.3135Y12.3592
X0.3135Y12.2592
X0.3135Y12.1592
X0.3135Y12.0592
X0.3135Y11.9592
X0.3135Y11.8592
X0.3135Y11.7592
X0.3135Y11.6592
X0.3135Y11.5592
X0.3135Y11.4592
X0.3135Y11.3592
X0.3135Y11.2592
X0.3135Y11.1592
X0.3135Y11.0592
X0.3135Y10.9592
X0.3135Y10.8592
X0.3135Y10.7592
X0.3135Y10.6592
X0.3297Y9.0998
X0.3297Y8.6998
X0.4606Y13.7717
X0.4606Y13.6717
X0.4606Y13.5717
X0.4606Y13.4717
X0.4724Y13.2283
X0.4841Y12.7692
X0.5143Y13.973
X0.5185Y9.0998
X0.5185Y8.6998
X0.5709Y13.2283
X0.6809Y12.7692
X0.6921Y10.1969
X0.6921Y9.8031
X0.6953Y10.0
X0.6953Y9.6063
X0.7112Y13.973
X0.7606Y13.7717
X0.7606Y13.6717
X0.7606Y13.5717
X0.7606Y13.4717
X0.8071Y13.3268
X0.8071Y13.1299
X0.9135Y12.5592
X0.9135Y12.4592
X0.9135Y12.3592
X0.9135Y12.2592
X0.9135Y12.1592
X0.9135Y12.0592
X0.9135Y11.9592
X0.9135Y11.8592
X0.9135Y11.7592
X0.9135Y11.6592
X0.9135Y11.5592
X0.9135Y11.4592
X0.9135Y11.3592
X0.9135Y11.2592
X0.9135Y11.1592
X0.9135Y11.0592
X0.9135Y10.9592
X0.9135Y10.8592
X0.9135Y10.7592
X0.9135Y10.6592
X1.0039Y9.6986
X1.063Y10.112
X1.063Y9.9152
X1.1024Y9.6986
X1.3071Y13.7323
X1.3071Y13.6323
X1.3071Y13.5323
X1.3071Y13.4323
X1.3071Y12.9067
X1.3071Y12.8067
X1.3071Y12.7067
X1.3071Y12.6067
X1.3071Y12.5067
X1.3071Y12.4067
X1.3071Y12.3067
X1.3071Y11.81
X1.3071Y11.71
X1.3071Y11.61
X1.3071Y11.51
X1.3071Y11.41
X1.3071Y11.31
X1.3071Y11.21
X1.3071Y11.11
X1.3071Y11.01
X1.3071Y10.91
X1.3071Y10.81
X1.3071Y10.71
X1.3583Y13.9327
X1.3583Y13.1065
X1.3583Y12.0093
X1.5551Y13.9327
X1.5551Y13.1065
X1.5551Y12.0093
X1.6071Y13.7323
X1.6071Y13.6323
X1.6071Y13.5323
X1.6071Y13.4323
X1.6071Y12.9067
X1.6071Y12.8067
X1.6071Y12.7067
X1.6071Y12.6067
X1.6071Y12.5067
X1.6071Y12.4067
X1.6071Y12.3067
X1.6071Y11.81
X1.6071Y11.71
X1.6071Y11.61
X1.6071Y11.51
X1.6071Y11.41
X1.6071Y11.31
X1.6071Y11.21
X1.6071Y11.11
X1.6071Y11.01
X1.6071Y10.91
X1.6071Y10.81
X1.6071Y10.71
X1.7882Y12.5984
X1.7923Y10.1624
X1.7923Y10.0624
X1.7923Y9.9624
X1.7923Y9.8624
X1.7923Y9.7624
X1.7923Y9.6624
X1.7923Y9.5624
X1.7923Y9.4624
X1.7923Y9.3624
X1.7923Y9.2624
X1.7923Y9.1624
X1.7923Y9.0624
X1.7923Y8.9624
X1.7923Y8.8624
X1.7923Y8.7624
X1.7923Y8.6624
X1.7923Y8.5624
X1.7923Y8.4624
X1.7923Y8.3624
X1.7923Y8.2624
X1.8535Y12.326
X1.8535Y11.926
X1.9638Y13.7843
X1.9638Y13.4843
X1.9941Y10.3686
X2.0504Y12.3228
X2.0504Y11.9228
X2.1882Y12.5984
X2.1909Y10.3686
X2.2313Y12.326
X2.2313Y11.926
X2.3031Y12.5984
X2.3923Y10.1624
X2.3923Y10.0624
X2.3923Y9.9624
X2.3923Y9.8624
X2.3923Y9.7624
X2.3923Y9.6624
X2.3923Y9.5624
X2.3923Y9.4624
X2.3923Y9.3624
X2.3923Y9.2624
X2.3923Y9.1624
X2.3923Y9.0624
X2.3923Y8.9624
X2.3923Y8.8624
X2.3923Y8.7624
X2.3923Y8.6624
X2.3923Y8.5624
X2.3923Y8.4624
X2.3923Y8.3624
X2.3923Y8.2624
X2.4213Y12.326
X2.4213Y11.926
X2.5Y12.5984
X2.551Y9.6039
X2.5541Y10.1944
X2.5541Y9.8007
X2.5573Y9.9976
X2.5638Y13.7843
X2.5638Y13.4843
X2.5897Y9.1377
X2.5897Y8.7377
X2.6181Y14.5472
X2.6756Y12.5795
X2.6756Y12.4795
X2.6756Y12.3795
X2.6756Y12.2795
X2.6756Y12.1795
X2.6756Y12.0795
X2.6756Y11.9795
X2.6756Y11.8795
X2.6756Y11.7795
X2.6756Y11.6795
X2.6756Y11.5795
X2.6756Y11.4795
X2.6756Y11.3795
X2.6756Y11.2795
X2.6756Y11.1795
X2.6756Y11.0795
X2.6756Y10.9795
X2.6756Y10.8795
X2.6756Y10.7795
X2.6756Y10.6795
X2.7935Y9.1377
X2.7935Y8.7377
X2.815Y14.5472
X2.8228Y14.1614
X2.8228Y14.0614
X2.8228Y13.9614
X2.8228Y13.8614
X2.8228Y13.7614
X2.8228Y13.6614
X2.8228Y13.5614
X2.8228Y13.4614
X2.8228Y13.3614
X2.8228Y13.2614
X2.8228Y13.1614
X2.8228Y13.0614
X2.874Y14.3714
X2.8774Y12.8012
X2.951Y9.6039
X2.9541Y10.1944
X2.9541Y9.8007
X2.9573Y9.9976
X3.0709Y14.3714
X3.0742Y12.8012
X3.1228Y14.1614
X3.1228Y14.0614
X3.1228Y13.9614
X3.1228Y13.8614
X3.1228Y13.7614
X3.1228Y13.6614
X3.1228Y13.5614
X3.1228Y13.4614
X3.1228Y13.3614
X3.1228Y13.2614
X3.1228Y13.1614
X3.1228Y13.0614
X3.1781Y8.8716
X3.1781Y8.7716
X3.1781Y8.6716
X3.1781Y8.5716
X3.1781Y8.4716
X3.1781Y8.3716
X3.1781Y8.2716
X3.2293Y9.0739
X3.2756Y12.5795
X3.2756Y12.4795
X3.2756Y12.3795
X3.2756Y12.2795
X3.2756Y12.1795
X3.2756Y12.0795
X3.2756Y11.9795
X3.2756Y11.8795
X3.2756Y11.7795
X3.2756Y11.6795
X3.2756Y11.5795
X3.2756Y11.4795
X3.2756Y11.3795
X3.2756Y11.2795
X3.2756Y11.1795
X3.2756Y11.0795
X3.2756Y10.9795
X3.2756Y10.8795
X3.2756Y10.7795
X3.2756Y10.6795
X3.2974Y9.7835
X3.3524Y10.2204
X3.3524Y10.0235
X3.3959Y9.7835
X3.4262Y9.0739
X3.4781Y8.8716
X3.4781Y8.7716
X3.4781Y8.6716
X3.4781Y8.5716
X3.4781Y8.4716
X3.4781Y8.3716
X3.4781Y8.2716
X3.7898Y12.222
X3.7898Y12.122
X3.7898Y12.022
X3.7898Y11.922
X3.7898Y11.822
X3.7898Y11.722
X3.7898Y11.622
X3.7898Y11.522
X3.7898Y11.422
X3.7898Y11.322
X3.7898Y11.222
X3.7898Y11.122
X3.7898Y11.022
X3.7898Y10.922
X3.7898Y10.822
X3.7898Y10.722
X3.8547Y10.1857
X3.8547Y9.8857
X3.8642Y9.4613
X3.8642Y8.8513
X3.8642Y8.5513
X3.8652Y9.1613
X3.9626Y9.4613
X3.9626Y8.8513
X3.9626Y8.5513
X3.9636Y9.1613
X3.9646Y13.4803
X3.9646Y13.3803
X3.9646Y13.2803
X3.9646Y13.1803
X3.9646Y13.0803
X3.9646Y12.9803
X3.9646Y12.8803
X3.9646Y12.7803
X3.9915Y12.4491
X4.0157Y13.6803
X4.1476Y9.2913
X4.1476Y9.1913
X4.1476Y9.0913
X4.1476Y8.9913
X4.1476Y8.8913
X4.1476Y8.7913
X4.1476Y8.6913
X4.1476Y8.5913
X4.1884Y12.4491
X4.1988Y9.5013
X4.2126Y13.6803
X4.2646Y13.4803
X4.2646Y13.3803
X4.2646Y13.2803
X4.2646Y13.1803
X4.2646Y13.0803
X4.2646Y12.9803
X4.2646Y12.8803
X4.2646Y12.7803
X4.3898Y12.222
X4.3898Y12.122
X4.3898Y12.022
X4.3898Y11.922
X4.3898Y11.822
X4.3898Y11.722
X4.3898Y11.622
X4.3898Y11.522
X4.3898Y11.422
X4.3898Y11.322
X4.3898Y11.222
X4.3898Y11.122
X4.3898Y11.022
X4.3898Y10.922
X4.3898Y10.822
X4.3898Y10.722
X4.3957Y9.5013
X4.4476Y9.2913
X4.4476Y9.1913
X4.4476Y9.0913
X4.4476Y8.9913
X4.4476Y8.8913
X4.4476Y8.7913
X4.4476Y8.6913
X4.4476Y8.5913
X4.4547Y10.1857
X4.4547Y9.8857
X5.06Y10.0639
X5.06Y9.9639
X5.06Y9.8639
X5.06Y9.7639
X5.06Y9.6639
X5.06Y9.5639
X5.06Y9.4639
X5.06Y9.3639
X5.06Y9.2639
X5.06Y9.1639
X5.06Y9.0639
X5.06Y8.9639
X5.06Y8.8639
X5.06Y8.7639
X5.0724Y13.3194
X5.0724Y13.1299
X5.0756Y13.7099
X5.0756Y13.5199
X5.1241Y12.864
X5.2618Y10.2733
X5.321Y12.864
X5.4587Y10.2733
X5.4724Y13.3194
X5.4724Y13.1299
X5.4756Y13.7099
X5.4756Y13.5199
X5.66Y10.0639
X5.66Y9.9639
X5.66Y9.8639
X5.66Y9.7639
X5.66Y9.6639
X5.66Y9.5639
X5.66Y9.4639
X5.66Y9.3639
X5.66Y9.2639
X5.66Y9.1639
X5.66Y9.0639
X5.66Y8.9639
X5.66Y8.8639
X5.66Y8.7639
T5
X-1.4567Y13.5827
X-1.4567Y13.3465
X-1.3583Y13.5827
X-1.3583Y13.3465
X-1.2598Y13.5827
X-1.2598Y13.3465
X-0.8843Y13.9825
X-0.7843Y13.9825
T6
X-1.752Y13.4843
X-1.752Y13.3843
X-1.6307Y9.7699
X-1.6307Y9.6608
X-1.6307Y9.5518
X-1.6307Y9.4427
X-1.5189Y9.8244
X-1.5189Y9.7154
X-1.5189Y9.6063
X-1.5189Y9.4972
X-1.5189Y9.3882
X-0.9214Y9.8929
X-0.9214Y9.7929
X-0.9214Y9.6929
X-0.9214Y9.5929
X-0.9214Y9.4929
X-0.9214Y9.3929
X-0.9214Y9.2929
X-0.9214Y9.1929
X-0.9214Y8.9614
X-0.9214Y8.8614
X-0.9214Y8.7614
X-0.9214Y8.6614
X-0.9214Y8.5614
X-0.9214Y8.4614
X-0.9214Y8.3614
X-0.9214Y8.2614
X-0.4687Y13.0553
X-0.3687Y13.0553
X-0.2687Y13.0553
X-0.1687Y13.0553
X-0.1114Y12.5534
X-0.1114Y12.4534
X-0.1114Y12.3534
X-0.1114Y12.2534
X-0.1114Y12.1534
X-0.1114Y12.0534
X-0.1114Y11.9534
X-0.1114Y11.8534
X-0.1114Y11.6513
X-0.1114Y11.5513
X-0.1114Y11.4513
X-0.1114Y11.3513
X-0.1114Y11.2513
X-0.1114Y11.1513
X-0.1114Y11.0513
X-0.1114Y10.9513
X-0.0687Y13.0553
X0.0313Y13.0553
X0.1313Y13.0553
X0.2313Y13.0553
X1.3583Y9.8814
X1.3583Y9.7814
X1.3583Y9.6814
X1.3583Y9.5814
X1.3583Y9.4814
X1.3583Y9.3814
X1.3583Y9.2814
X1.3583Y9.1814
X1.3583Y8.9614
X1.3583Y8.8614
X1.3583Y8.7614
X1.3583Y8.6614
X1.3583Y8.5614
X1.3583Y8.4614
X1.3583Y8.3614
X1.3583Y8.2614
X1.8591Y11.665
X1.8591Y11.565
X1.8591Y11.465
X1.8591Y11.365
X2.2819Y14.5472
X2.3819Y14.5472
X2.4394Y14.028
X2.5394Y14.028
X3.4141Y15.8638
X3.4141Y15.7638
X3.4141Y15.6638
X3.4141Y15.5638
X3.4141Y15.4638
X3.4141Y15.3638
X3.4141Y15.2638
X3.4141Y15.1638
X3.4141Y15.0638
X3.4141Y14.9638
X3.4141Y14.8638
X3.4141Y14.7638
X3.4141Y14.6638
X3.4141Y14.5638
X3.4141Y14.4638
X3.4141Y14.3638
X3.4141Y14.2638
X3.4141Y14.1638
X3.4141Y14.0638
X3.4141Y13.9638
X3.4843Y13.6087
X3.4843Y13.5087
X3.4843Y13.4087
X3.4843Y13.3087
X3.4843Y13.2087
X3.4843Y13.1087
X3.4843Y13.0087
X3.4843Y12.9087
X3.5141Y15.8638
X3.5141Y15.7638
X3.5141Y15.6638
X3.5141Y15.5638
X3.5141Y15.4638
X3.5141Y15.3638
X3.5141Y15.2638
X3.5141Y15.1638
X3.5141Y15.0638
X3.5141Y14.9638
X3.5141Y14.8638
X3.5141Y14.7638
X3.5141Y14.6638
X3.5141Y14.5638
X3.5141Y14.4638
X3.5141Y14.3638
X3.5141Y14.2638
X3.5141Y14.1638
X3.5141Y14.0638
X3.5141Y13.9638
X4.0791Y15.8638
X4.0791Y15.7638
X4.0791Y15.6638
X4.0791Y15.5638
X4.0791Y15.4638
X4.0791Y15.3638
X4.0791Y15.2638
X4.0791Y15.1638
X4.0791Y15.0638
X4.0791Y14.9638
X4.0791Y14.8638
X4.0791Y14.7638
X4.0791Y14.6638
X4.0791Y14.5638
X4.0791Y14.4638
X4.0791Y14.3638
X4.0791Y14.2638
X4.0791Y14.1638
X4.0791Y14.0638
X4.0791Y13.9638
X4.1791Y15.8638
X4.1791Y15.7638
X4.1791Y15.6638
X4.1791Y15.5638
X4.1791Y15.4638
X4.1791Y15.3638
X4.1791Y15.2638
X4.1791Y15.1638
X4.1791Y15.0638
X4.1791Y14.9638
X4.1791Y14.8638
X4.1791Y14.7638
X4.1791Y14.6638
X4.1791Y14.5638
X4.1791Y14.4638
X4.1791Y14.3638
X4.1791Y14.2638
X4.1791Y14.1638
X4.1791Y14.0638
X4.1791Y13.9638
X4.7441Y15.8638
X4.7441Y15.7638
X4.7441Y15.6638
X4.7441Y15.5638
X4.7441Y15.4638
X4.7441Y15.3638
X4.7441Y15.2638
X4.7441Y15.1638
X4.7441Y15.0638
X4.7441Y14.9638
X4.7441Y14.8638
X4.7441Y14.7638
X4.7441Y14.6638
X4.7441Y14.5638
X4.7441Y14.4638
X4.7441Y14.3638
X4.7441Y14.2638
X4.7441Y14.1638
X4.7441Y14.0638
X4.7441Y13.9638
X4.8441Y15.8638
X4.8441Y15.7638
X4.8441Y15.6638
X4.8441Y15.5638
X4.8441Y15.4638
X4.8441Y15.3638
X4.8441Y15.2638
X4.8441Y15.1638
X4.8441Y15.0638
X4.8441Y14.9638
X4.8441Y14.8638
X4.8441Y14.7638
X4.8441Y14.6638
X4.8441Y14.5638
X4.8441Y14.4638
X4.8441Y14.3638
X4.8441Y14.2638
X4.8441Y14.1638
X4.8441Y14.0638
X4.8441Y13.9638
X4.9512Y12.2583
X4.9512Y12.1583
X4.9512Y12.0583
X4.9512Y11.9583
X4.9512Y11.8583
X4.9512Y11.7583
X4.9512Y11.6583
X4.9512Y11.5583
X4.9512Y11.4583
X4.9512Y11.3583
X4.9512Y11.2583
X4.9512Y11.1583
X4.9512Y11.0583
X4.9512Y10.9583
X5.1102Y8.5433
X5.2102Y8.5433
X5.3102Y8.5433
X5.3661Y15.8645
X5.3661Y15.7645
X5.3661Y15.6645
X5.3661Y15.5645
X5.3661Y15.4645
X5.3661Y15.3645
X5.3661Y15.2645
X5.3661Y15.1645
X5.3661Y15.0645
X5.3661Y14.9645
X5.3661Y14.8645
X5.3661Y14.7645
X5.3661Y14.6645
X5.3661Y14.5645
X5.3661Y14.4645
X5.3661Y14.3645
X5.3661Y14.2645
X5.3661Y14.1645
X5.3661Y14.0645
X5.3661Y13.9645
X5.4102Y8.5433
X5.4661Y15.8645
X5.4661Y15.7645
X5.4661Y15.6645
X5.4661Y15.5645
X5.4661Y15.4645
X5.4661Y15.3645
X5.4661Y15.2645
X5.4661Y15.1645
X5.4661Y15.0645
X5.4661Y14.9645
X5.4661Y14.8645
X5.4661Y14.7645
X5.4661Y14.6645
X5.4661Y14.5645
X5.4661Y14.4645
X5.4661Y14.3645
X5.4661Y14.2645
X5.4661Y14.1645
X5.4661Y14.0645
X5.4661Y13.9645
X5.5102Y8.5433
X5.5512Y12.2583
X5.5512Y12.1583
X5.5512Y12.0583
X5.5512Y11.9583
X5.5512Y11.8583
X5.5512Y11.7583
X5.5512Y11.6583
X5.5512Y11.5583
X5.5512Y11.4583
X5.5512Y11.3583
X5.5512Y11.2583
X5.5512Y11.1583
X5.5512Y11.0583
X5.5512Y10.9583
X5.6102Y8.5433
T7
X-0.9427Y13.5646
X-0.9427Y13.4646
X-0.9427Y13.3646
X1.878Y13.1378
X1.878Y12.9606
X2.1339Y13.1378
X2.1339Y12.9606
X2.2972Y13.1358
X2.2972Y12.9587
X2.5531Y13.1358
X2.5531Y12.9587
T8
X-1.3386Y15.5456
X-1.2386Y15.5456
X-1.1386Y15.5456
X-1.0386Y15.5456
X-0.9386Y15.5456
X-0.8386Y15.5456
X-0.7386Y15.5456
X-0.6386Y15.5456
X-0.5386Y15.5456
X-0.4386Y15.5456
X-0.3386Y15.5456
X-0.2386Y15.5456
X-0.1386Y15.5456
X-0.0386Y15.5456
X0.0614Y15.5456
X0.1614Y15.5456
T9
X1.8474Y15.3346
X2.6541Y15.3346
T10
X-1.8213Y8.6564
X-1.7248Y8.7351
X-1.5791Y8.6564
X-1.5043Y8.7351
X-1.3567Y8.6564
T11
X-1.5551Y15.5456
X-1.5551Y14.3251
X1.3976Y14.3251
X1.3976Y15.5456
T12
X-1.8701Y8.2087
X-1.811Y15.8661
X-1.5748Y10.0984
X-1.5748Y9.1142
X5.7677Y8.2677
X5.8071Y15.8858
T6
G00X-1.8169Y11.4055
M15
G01X-1.8169Y11.3268
M16
G05
G00X-1.8169Y10.7362
M15
G01X-1.8169Y10.6575
M16
G05
G00X-1.7559Y11.6358
M15
G01X-1.815Y11.6358
M16
G05
G00X-1.7559Y11.0965
M15
G01X-1.815Y11.0965
M16
G05
G00X-1.7559Y10.9665
M15
G01X-1.815Y10.9665
M16
G05
G00X-1.7559Y10.4272
M15
G01X-1.815Y10.4272
M16
G05
G00X-1.7126Y12.126
M15
G01X-1.7126Y12.0472
M16
G05
G00X-1.6339Y11.9016
M15
G01X-1.5551Y11.9016
M16
G05
G00X-1.4764Y12.126
M15
G01X-1.4764Y12.0472
M16
G05
T0
M30
