%TF.GenerationSoftware,KiCad,Pcbnew,7.0.2*%
%TF.CreationDate,2023-07-28T16:21:39-05:00*%
%TF.ProjectId,6502v2.0,36353032-7632-42e3-902e-6b696361645f,rev?*%
%TF.SameCoordinates,Original*%
%TF.FileFunction,Copper,L1,Top*%
%TF.FilePolarity,Positive*%
%FSLAX46Y46*%
G04 Gerber Fmt 4.6, Leading zero omitted, Abs format (unit mm)*
G04 Created by KiCad (PCBNEW 7.0.2) date 2023-07-28 16:21:39*
%MOMM*%
%LPD*%
G01*
G04 APERTURE LIST*
G04 Aperture macros list*
%AMRoundRect*
0 Rectangle with rounded corners*
0 $1 Rounding radius*
0 $2 $3 $4 $5 $6 $7 $8 $9 X,Y pos of 4 corners*
0 Add a 4 corners polygon primitive as box body*
4,1,4,$2,$3,$4,$5,$6,$7,$8,$9,$2,$3,0*
0 Add four circle primitives for the rounded corners*
1,1,$1+$1,$2,$3*
1,1,$1+$1,$4,$5*
1,1,$1+$1,$6,$7*
1,1,$1+$1,$8,$9*
0 Add four rect primitives between the rounded corners*
20,1,$1+$1,$2,$3,$4,$5,0*
20,1,$1+$1,$4,$5,$6,$7,0*
20,1,$1+$1,$6,$7,$8,$9,0*
20,1,$1+$1,$8,$9,$2,$3,0*%
G04 Aperture macros list end*
%TA.AperFunction,ComponentPad*%
%ADD10C,1.600000*%
%TD*%
%TA.AperFunction,ComponentPad*%
%ADD11R,1.600000X1.600000*%
%TD*%
%TA.AperFunction,ComponentPad*%
%ADD12O,1.600000X1.600000*%
%TD*%
%TA.AperFunction,ComponentPad*%
%ADD13C,5.000000*%
%TD*%
%TA.AperFunction,ComponentPad*%
%ADD14R,1.800000X1.800000*%
%TD*%
%TA.AperFunction,ComponentPad*%
%ADD15C,1.800000*%
%TD*%
%TA.AperFunction,ComponentPad*%
%ADD16R,2.000000X1.440000*%
%TD*%
%TA.AperFunction,ComponentPad*%
%ADD17O,2.000000X1.440000*%
%TD*%
%TA.AperFunction,ComponentPad*%
%ADD18O,1.501140X4.000500*%
%TD*%
%TA.AperFunction,ComponentPad*%
%ADD19R,1.700000X1.700000*%
%TD*%
%TA.AperFunction,ComponentPad*%
%ADD20O,1.700000X1.700000*%
%TD*%
%TA.AperFunction,ComponentPad*%
%ADD21C,2.000000*%
%TD*%
%TA.AperFunction,ComponentPad*%
%ADD22C,2.700000*%
%TD*%
%TA.AperFunction,ComponentPad*%
%ADD23C,2.500000*%
%TD*%
%TA.AperFunction,ComponentPad*%
%ADD24C,3.000000*%
%TD*%
%TA.AperFunction,ComponentPad*%
%ADD25C,4.000000*%
%TD*%
%TA.AperFunction,ComponentPad*%
%ADD26O,3.500000X2.000000*%
%TD*%
%TA.AperFunction,ComponentPad*%
%ADD27O,2.000000X4.000000*%
%TD*%
%TA.AperFunction,ComponentPad*%
%ADD28C,1.440000*%
%TD*%
%TA.AperFunction,ComponentPad*%
%ADD29R,2.000000X1.905000*%
%TD*%
%TA.AperFunction,ComponentPad*%
%ADD30O,2.000000X1.905000*%
%TD*%
%TA.AperFunction,ComponentPad*%
%ADD31R,3.500000X3.500000*%
%TD*%
%TA.AperFunction,ComponentPad*%
%ADD32RoundRect,0.750000X-0.750000X-1.000000X0.750000X-1.000000X0.750000X1.000000X-0.750000X1.000000X0*%
%TD*%
%TA.AperFunction,ComponentPad*%
%ADD33RoundRect,0.875000X-0.875000X-0.875000X0.875000X-0.875000X0.875000X0.875000X-0.875000X0.875000X0*%
%TD*%
%TA.AperFunction,ViaPad*%
%ADD34C,0.800000*%
%TD*%
%TA.AperFunction,Conductor*%
%ADD35C,0.250000*%
%TD*%
G04 APERTURE END LIST*
D10*
%TO.P,C15,1*%
%TO.N,+5V*%
X67596000Y-141224000D03*
%TO.P,C15,2*%
%TO.N,Net-(U11-THR)*%
X69596000Y-141224000D03*
%TD*%
D11*
%TO.P,U14,1*%
%TO.N,Net-(U15-BC1)*%
X116840000Y-110993000D03*
D12*
%TO.P,U14,2*%
%TO.N,PSG1_CS*%
X116840000Y-113533000D03*
%TO.P,U14,3*%
%TO.N,/audio/a0*%
X116840000Y-116073000D03*
%TO.P,U14,4*%
%TO.N,Net-(U15-BDIR)*%
X116840000Y-118613000D03*
%TO.P,U14,5*%
%TO.N,PSG1_CS*%
X116840000Y-121153000D03*
%TO.P,U14,6*%
%TO.N,RW*%
X116840000Y-123693000D03*
%TO.P,U14,7,GND*%
%TO.N,GND*%
X116840000Y-126233000D03*
%TO.P,U14,8*%
%TO.N,PSG2_CS*%
X124460000Y-126233000D03*
%TO.P,U14,9*%
%TO.N,/audio/a0*%
X124460000Y-123693000D03*
%TO.P,U14,10*%
%TO.N,Net-(U16-BC1)*%
X124460000Y-121153000D03*
%TO.P,U14,11*%
%TO.N,PSG2_CS*%
X124460000Y-118613000D03*
%TO.P,U14,12*%
%TO.N,RW*%
X124460000Y-116073000D03*
%TO.P,U14,13*%
%TO.N,Net-(U16-BDIR)*%
X124460000Y-113533000D03*
%TO.P,U14,14,VCC*%
%TO.N,+5V*%
X124460000Y-110993000D03*
%TD*%
D10*
%TO.P,C27,1*%
%TO.N,Net-(C27-Pad1)*%
X61992000Y-194564000D03*
%TO.P,C27,2*%
%TO.N,AUDIO_OUT_LEFT*%
X63992000Y-194564000D03*
%TD*%
%TO.P,R3,1*%
%TO.N,+5V*%
X78232000Y-111252000D03*
D12*
%TO.P,R3,2*%
%TO.N,RDY*%
X88392000Y-111252000D03*
%TD*%
D10*
%TO.P,R19,1*%
%TO.N,+5V*%
X113792000Y-174244000D03*
D12*
%TO.P,R19,2*%
%TO.N,Net-(U16-A8)*%
X123952000Y-174244000D03*
%TD*%
D10*
%TO.P,R7,1*%
%TO.N,GND*%
X181356000Y-146304000D03*
D12*
%TO.P,R7,2*%
%TO.N,1pa3*%
X181356000Y-136144000D03*
%TD*%
D10*
%TO.P,R5,1*%
%TO.N,GND*%
X172212000Y-146304000D03*
D12*
%TO.P,R5,2*%
%TO.N,1pa1*%
X172212000Y-136144000D03*
%TD*%
D10*
%TO.P,C24,1*%
%TO.N,+5V*%
X229576000Y-182372000D03*
%TO.P,C24,2*%
%TO.N,GND*%
X224576000Y-182372000D03*
%TD*%
%TO.P,C9,1*%
%TO.N,+5V*%
X98592000Y-105664000D03*
%TO.P,C9,2*%
%TO.N,GND*%
X103592000Y-105664000D03*
%TD*%
D13*
%TO.P,REF1,1*%
%TO.N,N/C*%
X51816000Y-39624000D03*
%TD*%
D10*
%TO.P,C25,1*%
%TO.N,+5V*%
X167092000Y-152400000D03*
%TO.P,C25,2*%
%TO.N,GND*%
X162092000Y-152400000D03*
%TD*%
%TO.P,C12,1*%
%TO.N,+5V*%
X56388000Y-194564000D03*
%TO.P,C12,2*%
%TO.N,GND*%
X51388000Y-194564000D03*
%TD*%
D11*
%TO.P,U4,1,OD/CLK*%
%TO.N,PHI2*%
X133320000Y-110993000D03*
D12*
%TO.P,U4,2,I0*%
%TO.N,RW*%
X133320000Y-113533000D03*
%TO.P,U4,3,I1*%
%TO.N,a15*%
X133320000Y-116073000D03*
%TO.P,U4,4,I2*%
%TO.N,unconnected-(U4-I2-Pad4)*%
X133320000Y-118613000D03*
%TO.P,U4,5,I3*%
%TO.N,a14*%
X133320000Y-121153000D03*
%TO.P,U4,6,I4*%
%TO.N,a13*%
X133320000Y-123693000D03*
%TO.P,U4,7,I5*%
%TO.N,a12*%
X133320000Y-126233000D03*
%TO.P,U4,8,I6*%
%TO.N,a11*%
X133320000Y-128773000D03*
%TO.P,U4,9,I7*%
%TO.N,a10*%
X133320000Y-131313000D03*
%TO.P,U4,10,I8*%
%TO.N,a9*%
X133320000Y-133853000D03*
%TO.P,U4,11,I9*%
%TO.N,a8*%
X133320000Y-136393000D03*
%TO.P,U4,12,GND*%
%TO.N,GND*%
X133320000Y-138933000D03*
%TO.P,U4,13,CLK/OD*%
%TO.N,unconnected-(U4-CLK{slash}OD-Pad13)*%
X140940000Y-138933000D03*
%TO.P,U4,14,LR/O4*%
%TO.N,OE*%
X140940000Y-136393000D03*
%TO.P,U4,15,A0/O3*%
%TO.N,WE*%
X140940000Y-133853000D03*
%TO.P,U4,16,A1/O2*%
%TO.N,ROM_CS*%
X140940000Y-131313000D03*
%TO.P,U4,17,A2/O1*%
%TO.N,RAM_CS*%
X140940000Y-128773000D03*
%TO.P,U4,18,NC/O0*%
%TO.N,BANKED_RAM_CS*%
X140940000Y-126233000D03*
%TO.P,U4,19,O4/NC*%
%TO.N,decode3*%
X140940000Y-123693000D03*
%TO.P,U4,20,O3/A2*%
%TO.N,decode2*%
X140940000Y-121153000D03*
%TO.P,U4,21,O2/A1*%
%TO.N,DEVICE_CS*%
X140940000Y-118613000D03*
%TO.P,U4,22,O1/A0*%
%TO.N,decode1*%
X140940000Y-116073000D03*
%TO.P,U4,23,O0/LR*%
%TO.N,decode0*%
X140940000Y-113533000D03*
%TO.P,U4,24,VCC*%
%TO.N,+5V*%
X140940000Y-110993000D03*
%TD*%
D10*
%TO.P,R10,1*%
%TO.N,Net-(D1-A)*%
X52324000Y-63500000D03*
D12*
%TO.P,R10,2*%
%TO.N,+5V*%
X52324000Y-73660000D03*
%TD*%
D10*
%TO.P,R17,1*%
%TO.N,Net-(C22-Pad1)*%
X81788000Y-184912000D03*
D12*
%TO.P,R17,2*%
%TO.N,GND*%
X71628000Y-184912000D03*
%TD*%
D11*
%TO.P,U8,1,A18*%
%TO.N,Net-(U6-Zd)*%
X188976000Y-111252000D03*
D12*
%TO.P,U8,2,A16*%
%TO.N,Net-(U6-Zb)*%
X188976000Y-113792000D03*
%TO.P,U8,3,A14*%
%TO.N,a14*%
X188976000Y-116332000D03*
%TO.P,U8,4,A12*%
%TO.N,a12*%
X188976000Y-118872000D03*
%TO.P,U8,5,A7*%
%TO.N,a7*%
X188976000Y-121412000D03*
%TO.P,U8,6,A6*%
%TO.N,a6*%
X188976000Y-123952000D03*
%TO.P,U8,7,A5*%
%TO.N,a5*%
X188976000Y-126492000D03*
%TO.P,U8,8,A4*%
%TO.N,a4*%
X188976000Y-129032000D03*
%TO.P,U8,9,A3*%
%TO.N,a3*%
X188976000Y-131572000D03*
%TO.P,U8,10,A2*%
%TO.N,a2*%
X188976000Y-134112000D03*
%TO.P,U8,11,A1*%
%TO.N,a1*%
X188976000Y-136652000D03*
%TO.P,U8,12,A0*%
%TO.N,a0*%
X188976000Y-139192000D03*
%TO.P,U8,13,DQ0*%
%TO.N,d0*%
X188976000Y-141732000D03*
%TO.P,U8,14,DQ1*%
%TO.N,d1*%
X188976000Y-144272000D03*
%TO.P,U8,15,DQ2*%
%TO.N,d2*%
X188976000Y-146812000D03*
%TO.P,U8,16,VSS*%
%TO.N,GND*%
X188976000Y-149352000D03*
%TO.P,U8,17,DQ3*%
%TO.N,d3*%
X204216000Y-149352000D03*
%TO.P,U8,18,DQ4*%
%TO.N,d4*%
X204216000Y-146812000D03*
%TO.P,U8,19,DQ5*%
%TO.N,d5*%
X204216000Y-144272000D03*
%TO.P,U8,20,DQ6*%
%TO.N,d6*%
X204216000Y-141732000D03*
%TO.P,U8,21,DQ7*%
%TO.N,d7*%
X204216000Y-139192000D03*
%TO.P,U8,22,CE#*%
%TO.N,RAM_CS*%
X204216000Y-136652000D03*
%TO.P,U8,23,A10*%
%TO.N,a10*%
X204216000Y-134112000D03*
%TO.P,U8,24,OE#*%
%TO.N,OE*%
X204216000Y-131572000D03*
%TO.P,U8,25,A11*%
%TO.N,a11*%
X204216000Y-129032000D03*
%TO.P,U8,26,A9*%
%TO.N,a9*%
X204216000Y-126492000D03*
%TO.P,U8,27,A8*%
%TO.N,a8*%
X204216000Y-123952000D03*
%TO.P,U8,28,A13*%
%TO.N,a13*%
X204216000Y-121412000D03*
%TO.P,U8,29,WE#*%
%TO.N,WE*%
X204216000Y-118872000D03*
%TO.P,U8,30,A17*%
%TO.N,Net-(U6-Zc)*%
X204216000Y-116332000D03*
%TO.P,U8,31,A15*%
%TO.N,Net-(U6-Za)*%
X204216000Y-113792000D03*
%TO.P,U8,32,VCC*%
%TO.N,+5V*%
X204216000Y-111252000D03*
%TD*%
D10*
%TO.P,R20,1*%
%TO.N,Net-(U16-~{A9})*%
X123952000Y-165100000D03*
D12*
%TO.P,R20,2*%
%TO.N,GND*%
X113792000Y-165100000D03*
%TD*%
D14*
%TO.P,D1,1,K*%
%TO.N,GND*%
X50800000Y-56388000D03*
D15*
%TO.P,D1,2,A*%
%TO.N,Net-(D1-A)*%
X53340000Y-56388000D03*
%TD*%
D16*
%TO.P,U3,1,A14*%
%TO.N,a14*%
X219456000Y-120542000D03*
D17*
%TO.P,U3,2,A12*%
%TO.N,a12*%
X219456000Y-123082000D03*
%TO.P,U3,3,A7*%
%TO.N,a7*%
X219456000Y-125622000D03*
%TO.P,U3,4,A6*%
%TO.N,a6*%
X219456000Y-128162000D03*
%TO.P,U3,5,A5*%
%TO.N,a5*%
X219456000Y-130702000D03*
%TO.P,U3,6,A4*%
%TO.N,a4*%
X219456000Y-133242000D03*
%TO.P,U3,7,A3*%
%TO.N,a3*%
X219456000Y-135782000D03*
%TO.P,U3,8,A2*%
%TO.N,a2*%
X219456000Y-138322000D03*
%TO.P,U3,9,A1*%
%TO.N,a1*%
X219456000Y-140862000D03*
%TO.P,U3,10,A0*%
%TO.N,a0*%
X219456000Y-143402000D03*
%TO.P,U3,11,D0*%
%TO.N,d0*%
X219456000Y-145942000D03*
%TO.P,U3,12,D1*%
%TO.N,d1*%
X219456000Y-148482000D03*
%TO.P,U3,13,D2*%
%TO.N,d2*%
X219456000Y-151022000D03*
%TO.P,U3,14,GND*%
%TO.N,GND*%
X219456000Y-153562000D03*
%TO.P,U3,15,D3*%
%TO.N,d3*%
X234696000Y-153562000D03*
%TO.P,U3,16,D4*%
%TO.N,d4*%
X234696000Y-151022000D03*
%TO.P,U3,17,D5*%
%TO.N,d5*%
X234696000Y-148482000D03*
%TO.P,U3,18,D6*%
%TO.N,d6*%
X234696000Y-145942000D03*
%TO.P,U3,19,D7*%
%TO.N,d7*%
X234696000Y-143402000D03*
%TO.P,U3,20,~{CS}*%
%TO.N,ROM_CS*%
X234696000Y-140862000D03*
%TO.P,U3,21,A10*%
%TO.N,a10*%
X234696000Y-138322000D03*
%TO.P,U3,22,~{OE}*%
%TO.N,GND*%
X234696000Y-135782000D03*
%TO.P,U3,23,A11*%
%TO.N,a11*%
X234696000Y-133242000D03*
%TO.P,U3,24,A9*%
%TO.N,a9*%
X234696000Y-130702000D03*
%TO.P,U3,25,A8*%
%TO.N,a8*%
X234696000Y-128162000D03*
%TO.P,U3,26,A13*%
%TO.N,a13*%
X234696000Y-125622000D03*
%TO.P,U3,27,~{WE}*%
%TO.N,WE*%
X234696000Y-123082000D03*
%TO.P,U3,28,VCC*%
%TO.N,+5V*%
X234696000Y-120542000D03*
%TD*%
D18*
%TO.P,U10,1,VSS*%
%TO.N,GND*%
X171174440Y-49207420D03*
%TO.P,U10,2,VDD*%
%TO.N,+5V*%
X173714440Y-49207420D03*
%TO.P,U10,3,VO*%
%TO.N,Net-(U10-VO)*%
X176254440Y-49207420D03*
%TO.P,U10,4,RS*%
%TO.N,1pb4*%
X178794440Y-49207420D03*
%TO.P,U10,5,R/W*%
%TO.N,1pb5*%
X181334440Y-49207420D03*
%TO.P,U10,6,E*%
%TO.N,1pb6*%
X183874440Y-49207420D03*
%TO.P,U10,7,DB0*%
%TO.N,GND*%
X186414440Y-49207420D03*
%TO.P,U10,8,DB1*%
X188954440Y-49207420D03*
%TO.P,U10,9,DB2*%
X191494440Y-49207420D03*
%TO.P,U10,10,DB3*%
X194034440Y-49207420D03*
%TO.P,U10,11,DB4*%
%TO.N,1pb0*%
X196574440Y-49207420D03*
%TO.P,U10,12,DB5*%
%TO.N,1pb1*%
X199114440Y-49207420D03*
%TO.P,U10,13,DB6*%
%TO.N,1pb2*%
X201654440Y-49207420D03*
%TO.P,U10,14,DB7*%
%TO.N,1pb3*%
X204194440Y-49207420D03*
%TO.P,U10,15,A*%
%TO.N,+5V*%
X206734440Y-49207420D03*
%TO.P,U10,16,K*%
%TO.N,GND*%
X209274440Y-49207420D03*
%TD*%
D19*
%TO.P,J7,1,Pin_1*%
%TO.N,a0*%
X74676000Y-42164000D03*
D20*
%TO.P,J7,2,Pin_2*%
%TO.N,d0*%
X77216000Y-42164000D03*
%TO.P,J7,3,Pin_3*%
%TO.N,a1*%
X74676000Y-44704000D03*
%TO.P,J7,4,Pin_4*%
%TO.N,d1*%
X77216000Y-44704000D03*
%TO.P,J7,5,Pin_5*%
%TO.N,a2*%
X74676000Y-47244000D03*
%TO.P,J7,6,Pin_6*%
%TO.N,d2*%
X77216000Y-47244000D03*
%TO.P,J7,7,Pin_7*%
%TO.N,a3*%
X74676000Y-49784000D03*
%TO.P,J7,8,Pin_8*%
%TO.N,d3*%
X77216000Y-49784000D03*
%TO.P,J7,9,Pin_9*%
%TO.N,a4*%
X74676000Y-52324000D03*
%TO.P,J7,10,Pin_10*%
%TO.N,d4*%
X77216000Y-52324000D03*
%TO.P,J7,11,Pin_11*%
%TO.N,a5*%
X74676000Y-54864000D03*
%TO.P,J7,12,Pin_12*%
%TO.N,d5*%
X77216000Y-54864000D03*
%TO.P,J7,13,Pin_13*%
%TO.N,a6*%
X74676000Y-57404000D03*
%TO.P,J7,14,Pin_14*%
%TO.N,d6*%
X77216000Y-57404000D03*
%TO.P,J7,15,Pin_15*%
%TO.N,a7*%
X74676000Y-59944000D03*
%TO.P,J7,16,Pin_16*%
%TO.N,d7*%
X77216000Y-59944000D03*
%TO.P,J7,17,Pin_17*%
%TO.N,a8*%
X74676000Y-62484000D03*
%TO.P,J7,18,Pin_18*%
%TO.N,RW*%
X77216000Y-62484000D03*
%TO.P,J7,19,Pin_19*%
%TO.N,a9*%
X74676000Y-65024000D03*
%TO.P,J7,20,Pin_20*%
%TO.N,PHI2*%
X77216000Y-65024000D03*
%TO.P,J7,21,Pin_21*%
%TO.N,a10*%
X74676000Y-67564000D03*
%TO.P,J7,22,Pin_22*%
%TO.N,RESET*%
X77216000Y-67564000D03*
%TO.P,J7,23,Pin_23*%
%TO.N,a11*%
X74676000Y-70104000D03*
%TO.P,J7,24,Pin_24*%
%TO.N,SYNC*%
X77216000Y-70104000D03*
%TO.P,J7,25,Pin_25*%
%TO.N,a12*%
X74676000Y-72644000D03*
%TO.P,J7,26,Pin_26*%
%TO.N,IRQ*%
X77216000Y-72644000D03*
%TO.P,J7,27,Pin_27*%
%TO.N,a13*%
X74676000Y-75184000D03*
%TO.P,J7,28,Pin_28*%
%TO.N,BE*%
X77216000Y-75184000D03*
%TO.P,J7,29,Pin_29*%
%TO.N,a14*%
X74676000Y-77724000D03*
%TO.P,J7,30,Pin_30*%
%TO.N,RDY*%
X77216000Y-77724000D03*
%TO.P,J7,31,Pin_31*%
%TO.N,a15*%
X74676000Y-80264000D03*
%TO.P,J7,32,Pin_32*%
%TO.N,VP*%
X77216000Y-80264000D03*
%TO.P,J7,33,Pin_33*%
%TO.N,/interface/IO1*%
X74676000Y-82804000D03*
%TO.P,J7,34,Pin_34*%
%TO.N,ML*%
X77216000Y-82804000D03*
%TO.P,J7,35,Pin_35*%
%TO.N,OE*%
X74676000Y-85344000D03*
%TO.P,J7,36,Pin_36*%
%TO.N,NMI*%
X77216000Y-85344000D03*
%TO.P,J7,37,Pin_37*%
%TO.N,+5V*%
X74676000Y-87884000D03*
%TO.P,J7,38,Pin_38*%
%TO.N,WE*%
X77216000Y-87884000D03*
%TO.P,J7,39,Pin_39*%
%TO.N,GND*%
X74676000Y-90424000D03*
%TO.P,J7,40,Pin_40*%
X77216000Y-90424000D03*
%TD*%
D19*
%TO.P,J1,1,Pin_1*%
%TO.N,2pb0*%
X102616000Y-76200000D03*
D20*
%TO.P,J1,2,Pin_2*%
%TO.N,2pb1*%
X102616000Y-78740000D03*
%TO.P,J1,3,Pin_3*%
%TO.N,2pb2*%
X102616000Y-81280000D03*
%TO.P,J1,4,Pin_4*%
%TO.N,2pb3*%
X102616000Y-83820000D03*
%TO.P,J1,5,Pin_5*%
%TO.N,2pb4*%
X102616000Y-86360000D03*
%TO.P,J1,6,Pin_6*%
%TO.N,2pb5*%
X102616000Y-88900000D03*
%TO.P,J1,7,Pin_7*%
%TO.N,2pb6*%
X102616000Y-91440000D03*
%TO.P,J1,8,Pin_8*%
%TO.N,2pb7*%
X102616000Y-93980000D03*
%TD*%
D10*
%TO.P,C26,1*%
%TO.N,+5V*%
X197572000Y-165100000D03*
%TO.P,C26,2*%
%TO.N,GND*%
X192572000Y-165100000D03*
%TD*%
D11*
%TO.P,U12,1,VSS*%
%TO.N,GND*%
X187452000Y-169911000D03*
D12*
%TO.P,U12,2,CS0*%
%TO.N,+5V*%
X187452000Y-172451000D03*
%TO.P,U12,3,~{CS1}*%
%TO.N,ACIA_CS*%
X187452000Y-174991000D03*
%TO.P,U12,4,~{RES}*%
%TO.N,RESET*%
X187452000Y-177531000D03*
%TO.P,U12,5,RxC*%
%TO.N,unconnected-(U12-RxC-Pad5)*%
X187452000Y-180071000D03*
%TO.P,U12,6,XTLI*%
%TO.N,CLK_1.8432*%
X187452000Y-182611000D03*
%TO.P,U12,7,XTLO*%
%TO.N,unconnected-(U12-XTLO-Pad7)*%
X187452000Y-185151000D03*
%TO.P,U12,8,~{RTS}*%
%TO.N,unconnected-(U12-~{RTS}-Pad8)*%
X187452000Y-187691000D03*
%TO.P,U12,9,~{CTS}*%
%TO.N,GND*%
X187452000Y-190231000D03*
%TO.P,U12,10,TxD*%
%TO.N,Net-(U12-TxD)*%
X187452000Y-192771000D03*
%TO.P,U12,11,~{DTR}*%
%TO.N,unconnected-(U12-~{DTR}-Pad11)*%
X187452000Y-195311000D03*
%TO.P,U12,12,RxD*%
%TO.N,Net-(U12-RxD)*%
X187452000Y-197851000D03*
%TO.P,U12,13,RS0*%
%TO.N,a0*%
X187452000Y-200391000D03*
%TO.P,U12,14,RS1*%
%TO.N,a1*%
X187452000Y-202931000D03*
%TO.P,U12,15,VDD*%
%TO.N,+5V*%
X202692000Y-202931000D03*
%TO.P,U12,16,~{DCD}*%
%TO.N,GND*%
X202692000Y-200391000D03*
%TO.P,U12,17,~{DSR}*%
X202692000Y-197851000D03*
%TO.P,U12,18,D0*%
%TO.N,d0*%
X202692000Y-195311000D03*
%TO.P,U12,19,D1*%
%TO.N,d1*%
X202692000Y-192771000D03*
%TO.P,U12,20,D2*%
%TO.N,d2*%
X202692000Y-190231000D03*
%TO.P,U12,21,D3*%
%TO.N,d3*%
X202692000Y-187691000D03*
%TO.P,U12,22,D4*%
%TO.N,d4*%
X202692000Y-185151000D03*
%TO.P,U12,23,D5*%
%TO.N,d5*%
X202692000Y-182611000D03*
%TO.P,U12,24,D6*%
%TO.N,d6*%
X202692000Y-180071000D03*
%TO.P,U12,25,D7*%
%TO.N,d7*%
X202692000Y-177531000D03*
%TO.P,U12,26,~{IRQ}*%
%TO.N,ACIA_IRQ*%
X202692000Y-174991000D03*
%TO.P,U12,27,PHI2*%
%TO.N,PHI2*%
X202692000Y-172451000D03*
%TO.P,U12,28,R~{W}*%
%TO.N,RW*%
X202692000Y-169911000D03*
%TD*%
D10*
%TO.P,R11,1*%
%TO.N,1pb7*%
X88392000Y-106172000D03*
D12*
%TO.P,R11,2*%
%TO.N,Net-(D2-A)*%
X78232000Y-106172000D03*
%TD*%
D21*
%TO.P,SW2,1,1*%
%TO.N,RESET*%
X66854000Y-111542000D03*
X73354000Y-111542000D03*
%TO.P,SW2,2,2*%
%TO.N,GND*%
X66854000Y-116042000D03*
X73354000Y-116042000D03*
%TD*%
D11*
%TO.P,U5,1,~{VP}*%
%TO.N,VP*%
X93472000Y-110744000D03*
D12*
%TO.P,U5,2,RDY*%
%TO.N,RDY*%
X93472000Y-113284000D03*
%TO.P,U5,3,PHI1O*%
%TO.N,unconnected-(U5-PHI1O-Pad3)*%
X93472000Y-115824000D03*
%TO.P,U5,4,~{IRQ}*%
%TO.N,IRQ*%
X93472000Y-118364000D03*
%TO.P,U5,5,~{ML}*%
%TO.N,ML*%
X93472000Y-120904000D03*
%TO.P,U5,6,~{NMI}*%
%TO.N,NMI*%
X93472000Y-123444000D03*
%TO.P,U5,7,SYNC*%
%TO.N,SYNC*%
X93472000Y-125984000D03*
%TO.P,U5,8,VDD*%
%TO.N,+5V*%
X93472000Y-128524000D03*
%TO.P,U5,9,A0*%
%TO.N,a0*%
X93472000Y-131064000D03*
%TO.P,U5,10,A1*%
%TO.N,a1*%
X93472000Y-133604000D03*
%TO.P,U5,11,A2*%
%TO.N,a2*%
X93472000Y-136144000D03*
%TO.P,U5,12,A3*%
%TO.N,a3*%
X93472000Y-138684000D03*
%TO.P,U5,13,A4*%
%TO.N,a4*%
X93472000Y-141224000D03*
%TO.P,U5,14,A5*%
%TO.N,a5*%
X93472000Y-143764000D03*
%TO.P,U5,15,A6*%
%TO.N,a6*%
X93472000Y-146304000D03*
%TO.P,U5,16,A7*%
%TO.N,a7*%
X93472000Y-148844000D03*
%TO.P,U5,17,A8*%
%TO.N,a8*%
X93472000Y-151384000D03*
%TO.P,U5,18,A9*%
%TO.N,a9*%
X93472000Y-153924000D03*
%TO.P,U5,19,A10*%
%TO.N,a10*%
X93472000Y-156464000D03*
%TO.P,U5,20,A11*%
%TO.N,a11*%
X93472000Y-159004000D03*
%TO.P,U5,21,VSS*%
%TO.N,GND*%
X108712000Y-159004000D03*
%TO.P,U5,22,A12*%
%TO.N,a12*%
X108712000Y-156464000D03*
%TO.P,U5,23,A13*%
%TO.N,a13*%
X108712000Y-153924000D03*
%TO.P,U5,24,A14*%
%TO.N,a14*%
X108712000Y-151384000D03*
%TO.P,U5,25,A15*%
%TO.N,a15*%
X108712000Y-148844000D03*
%TO.P,U5,26,D7*%
%TO.N,d7*%
X108712000Y-146304000D03*
%TO.P,U5,27,D6*%
%TO.N,d6*%
X108712000Y-143764000D03*
%TO.P,U5,28,D5*%
%TO.N,d5*%
X108712000Y-141224000D03*
%TO.P,U5,29,D4*%
%TO.N,d4*%
X108712000Y-138684000D03*
%TO.P,U5,30,D3*%
%TO.N,d3*%
X108712000Y-136144000D03*
%TO.P,U5,31,D2*%
%TO.N,d2*%
X108712000Y-133604000D03*
%TO.P,U5,32,D1*%
%TO.N,d1*%
X108712000Y-131064000D03*
%TO.P,U5,33,D0*%
%TO.N,d0*%
X108712000Y-128524000D03*
%TO.P,U5,34,~{RW}*%
%TO.N,RW*%
X108712000Y-125984000D03*
%TO.P,U5,35,NC*%
%TO.N,unconnected-(U5-NC-Pad35)*%
X108712000Y-123444000D03*
%TO.P,U5,36,BE*%
%TO.N,BE*%
X108712000Y-120904000D03*
%TO.P,U5,37,PHI2*%
%TO.N,PHI2*%
X108712000Y-118364000D03*
%TO.P,U5,38,~{SO}*%
%TO.N,+5V*%
X108712000Y-115824000D03*
%TO.P,U5,39,PHI2O*%
%TO.N,unconnected-(U5-PHI2O-Pad39)*%
X108712000Y-113284000D03*
%TO.P,U5,40,~{RES}*%
%TO.N,RESET*%
X108712000Y-110744000D03*
%TD*%
D22*
%TO.P,J19,1*%
%TO.N,GND*%
X53096000Y-180848000D03*
%TO.P,J19,2*%
%TO.N,AUDIO_OUT_LEFT*%
X55546000Y-178848000D03*
D23*
%TO.P,J19,3*%
%TO.N,unconnected-(J19-Pad3)*%
X59246000Y-180848000D03*
%TO.P,J19,4*%
%TO.N,AUDIO_OUT_RIGHT*%
X61146000Y-178848000D03*
D24*
%TO.P,J19,5*%
%TO.N,unconnected-(J19-Pad5)*%
X64896000Y-180848000D03*
%TD*%
D10*
%TO.P,C14,1*%
%TO.N,+5V*%
X163108000Y-41148000D03*
%TO.P,C14,2*%
%TO.N,GND*%
X168108000Y-41148000D03*
%TD*%
D19*
%TO.P,J10,1,Pin_1*%
%TO.N,a0*%
X90424000Y-42164000D03*
D20*
%TO.P,J10,2,Pin_2*%
%TO.N,d0*%
X92964000Y-42164000D03*
%TO.P,J10,3,Pin_3*%
%TO.N,a1*%
X90424000Y-44704000D03*
%TO.P,J10,4,Pin_4*%
%TO.N,d1*%
X92964000Y-44704000D03*
%TO.P,J10,5,Pin_5*%
%TO.N,a2*%
X90424000Y-47244000D03*
%TO.P,J10,6,Pin_6*%
%TO.N,d2*%
X92964000Y-47244000D03*
%TO.P,J10,7,Pin_7*%
%TO.N,a3*%
X90424000Y-49784000D03*
%TO.P,J10,8,Pin_8*%
%TO.N,d3*%
X92964000Y-49784000D03*
%TO.P,J10,9,Pin_9*%
%TO.N,a4*%
X90424000Y-52324000D03*
%TO.P,J10,10,Pin_10*%
%TO.N,d4*%
X92964000Y-52324000D03*
%TO.P,J10,11,Pin_11*%
%TO.N,a5*%
X90424000Y-54864000D03*
%TO.P,J10,12,Pin_12*%
%TO.N,d5*%
X92964000Y-54864000D03*
%TO.P,J10,13,Pin_13*%
%TO.N,a6*%
X90424000Y-57404000D03*
%TO.P,J10,14,Pin_14*%
%TO.N,d6*%
X92964000Y-57404000D03*
%TO.P,J10,15,Pin_15*%
%TO.N,a7*%
X90424000Y-59944000D03*
%TO.P,J10,16,Pin_16*%
%TO.N,d7*%
X92964000Y-59944000D03*
%TO.P,J10,17,Pin_17*%
%TO.N,a8*%
X90424000Y-62484000D03*
%TO.P,J10,18,Pin_18*%
%TO.N,RW*%
X92964000Y-62484000D03*
%TO.P,J10,19,Pin_19*%
%TO.N,a9*%
X90424000Y-65024000D03*
%TO.P,J10,20,Pin_20*%
%TO.N,PHI2*%
X92964000Y-65024000D03*
%TO.P,J10,21,Pin_21*%
%TO.N,a10*%
X90424000Y-67564000D03*
%TO.P,J10,22,Pin_22*%
%TO.N,RESET*%
X92964000Y-67564000D03*
%TO.P,J10,23,Pin_23*%
%TO.N,a11*%
X90424000Y-70104000D03*
%TO.P,J10,24,Pin_24*%
%TO.N,SYNC*%
X92964000Y-70104000D03*
%TO.P,J10,25,Pin_25*%
%TO.N,a12*%
X90424000Y-72644000D03*
%TO.P,J10,26,Pin_26*%
%TO.N,IRQ*%
X92964000Y-72644000D03*
%TO.P,J10,27,Pin_27*%
%TO.N,a13*%
X90424000Y-75184000D03*
%TO.P,J10,28,Pin_28*%
%TO.N,BE*%
X92964000Y-75184000D03*
%TO.P,J10,29,Pin_29*%
%TO.N,a14*%
X90424000Y-77724000D03*
%TO.P,J10,30,Pin_30*%
%TO.N,RDY*%
X92964000Y-77724000D03*
%TO.P,J10,31,Pin_31*%
%TO.N,a15*%
X90424000Y-80264000D03*
%TO.P,J10,32,Pin_32*%
%TO.N,VP*%
X92964000Y-80264000D03*
%TO.P,J10,33,Pin_33*%
%TO.N,/interface/IO2*%
X90424000Y-82804000D03*
%TO.P,J10,34,Pin_34*%
%TO.N,ML*%
X92964000Y-82804000D03*
%TO.P,J10,35,Pin_35*%
%TO.N,OE*%
X90424000Y-85344000D03*
%TO.P,J10,36,Pin_36*%
%TO.N,NMI*%
X92964000Y-85344000D03*
%TO.P,J10,37,Pin_37*%
%TO.N,+5V*%
X90424000Y-87884000D03*
%TO.P,J10,38,Pin_38*%
%TO.N,WE*%
X92964000Y-87884000D03*
%TO.P,J10,39,Pin_39*%
%TO.N,GND*%
X90424000Y-90424000D03*
%TO.P,J10,40,Pin_40*%
X92964000Y-90424000D03*
%TD*%
D25*
%TO.P,J13,0*%
%TO.N,N/C*%
X59540000Y-146812000D03*
X59540000Y-171812000D03*
D11*
%TO.P,J13,1,1*%
%TO.N,unconnected-(J13-Pad1)*%
X60960000Y-164852000D03*
D10*
%TO.P,J13,2,2*%
%TO.N,Net-(U13-T1OUT)*%
X60960000Y-162082000D03*
%TO.P,J13,3,3*%
%TO.N,Net-(U13-R1IN)*%
X60960000Y-159312000D03*
%TO.P,J13,4,4*%
%TO.N,unconnected-(J13-Pad4)*%
X60960000Y-156542000D03*
%TO.P,J13,5,5*%
%TO.N,GND*%
X60960000Y-153772000D03*
%TO.P,J13,6,6*%
%TO.N,unconnected-(J13-Pad6)*%
X58120000Y-163467000D03*
%TO.P,J13,7,7*%
%TO.N,unconnected-(J13-Pad7)*%
X58120000Y-160697000D03*
%TO.P,J13,8,8*%
%TO.N,unconnected-(J13-Pad8)*%
X58120000Y-157927000D03*
%TO.P,J13,9,9*%
%TO.N,unconnected-(J13-Pad9)*%
X58120000Y-155157000D03*
%TD*%
%TO.P,C6,1*%
%TO.N,+5V*%
X224616000Y-106172000D03*
%TO.P,C6,2*%
%TO.N,GND*%
X229616000Y-106172000D03*
%TD*%
D11*
%TO.P,J11,1*%
%TO.N,1pa7*%
X52738000Y-133320000D03*
D10*
%TO.P,J11,2*%
%TO.N,unconnected-(J11-Pad2)*%
X52738000Y-135920000D03*
%TO.P,J11,3*%
%TO.N,GND*%
X52738000Y-131220000D03*
%TO.P,J11,4*%
%TO.N,+5V*%
X52738000Y-138020000D03*
%TO.P,J11,5*%
%TO.N,1pa6*%
X49938000Y-131220000D03*
%TO.P,J11,6*%
%TO.N,unconnected-(J11-Pad6)*%
X49938000Y-138020000D03*
D26*
%TO.P,J11,7*%
%TO.N,N/C*%
X55588000Y-141470000D03*
D27*
X56388000Y-134620000D03*
D26*
X55588000Y-127770000D03*
%TD*%
D10*
%TO.P,R16,1*%
%TO.N,Net-(C22-Pad1)*%
X81788000Y-179832000D03*
D12*
%TO.P,R16,2*%
%TO.N,Net-(U15-ch_B)*%
X71628000Y-179832000D03*
%TD*%
D10*
%TO.P,R2,1*%
%TO.N,+5V*%
X78232000Y-116332000D03*
D12*
%TO.P,R2,2*%
%TO.N,Net-(R1-Pad2)*%
X88392000Y-116332000D03*
%TD*%
D28*
%TO.P,RV1,1,1*%
%TO.N,GND*%
X154432000Y-44704000D03*
%TO.P,RV1,2,2*%
%TO.N,Net-(U10-VO)*%
X156972000Y-42164000D03*
%TO.P,RV1,3,3*%
%TO.N,+5V*%
X154432000Y-39624000D03*
%TD*%
D11*
%TO.P,U2,1,S0*%
%TO.N,VIA1_CS*%
X152908000Y-110993000D03*
D12*
%TO.P,U2,2,S1*%
%TO.N,VIA2_CS*%
X152908000Y-113533000D03*
%TO.P,U2,3,S2*%
%TO.N,ACIA_CS*%
X152908000Y-116073000D03*
%TO.P,U2,4,S3*%
%TO.N,PSG1_CS*%
X152908000Y-118613000D03*
%TO.P,U2,5,S4*%
%TO.N,PSG2_CS*%
X152908000Y-121153000D03*
%TO.P,U2,6,S5*%
%TO.N,IO0*%
X152908000Y-123693000D03*
%TO.P,U2,7,S6*%
%TO.N,IO1*%
X152908000Y-126233000D03*
%TO.P,U2,8,S7*%
%TO.N,IO2*%
X152908000Y-128773000D03*
%TO.P,U2,9,S8*%
%TO.N,IO3*%
X152908000Y-131313000D03*
%TO.P,U2,10,S9*%
%TO.N,IO4*%
X152908000Y-133853000D03*
%TO.P,U2,11,S10*%
%TO.N,IO5*%
X152908000Y-136393000D03*
%TO.P,U2,12,GND*%
%TO.N,GND*%
X152908000Y-138933000D03*
%TO.P,U2,13,S11*%
%TO.N,IO6*%
X160528000Y-138933000D03*
%TO.P,U2,14,S12*%
%TO.N,IO7*%
X160528000Y-136393000D03*
%TO.P,U2,15,S13*%
%TO.N,IO8*%
X160528000Y-133853000D03*
%TO.P,U2,16,S14*%
%TO.N,IO9*%
X160528000Y-131313000D03*
%TO.P,U2,17,S15*%
%TO.N,IO10*%
X160528000Y-128773000D03*
%TO.P,U2,18,E0*%
%TO.N,a15*%
X160528000Y-126233000D03*
%TO.P,U2,19,E1*%
%TO.N,DEVICE_CS*%
X160528000Y-123693000D03*
%TO.P,U2,20,A3*%
%TO.N,a7*%
X160528000Y-121153000D03*
%TO.P,U2,21,A2*%
%TO.N,a6*%
X160528000Y-118613000D03*
%TO.P,U2,22,A1*%
%TO.N,a5*%
X160528000Y-116073000D03*
%TO.P,U2,23,A0*%
%TO.N,a4*%
X160528000Y-113533000D03*
%TO.P,U2,24,VCC*%
%TO.N,+5V*%
X160528000Y-110993000D03*
%TD*%
D10*
%TO.P,C23,1*%
%TO.N,Net-(C22-Pad1)*%
X91012000Y-189992000D03*
%TO.P,C23,2*%
%TO.N,GND*%
X96012000Y-189992000D03*
%TD*%
%TO.P,R13,1*%
%TO.N,+5V*%
X113792000Y-160528000D03*
D12*
%TO.P,R13,2*%
%TO.N,Net-(U15-A8)*%
X123952000Y-160528000D03*
%TD*%
D10*
%TO.P,R23,1*%
%TO.N,Net-(C27-Pad1)*%
X88392000Y-184404000D03*
D12*
%TO.P,R23,2*%
%TO.N,GND*%
X98552000Y-184404000D03*
%TD*%
D11*
%TO.P,U7,1,VSS*%
%TO.N,GND*%
X136647000Y-51059000D03*
D12*
%TO.P,U7,2,PA0*%
%TO.N,1pa0*%
X136647000Y-53599000D03*
%TO.P,U7,3,PA1*%
%TO.N,1pa1*%
X136647000Y-56139000D03*
%TO.P,U7,4,PA2*%
%TO.N,1pa2*%
X136647000Y-58679000D03*
%TO.P,U7,5,PA3*%
%TO.N,1pa3*%
X136647000Y-61219000D03*
%TO.P,U7,6,PA4*%
%TO.N,1pa4*%
X136647000Y-63759000D03*
%TO.P,U7,7,PA5*%
%TO.N,1pa5*%
X136647000Y-66299000D03*
%TO.P,U7,8,PA6*%
%TO.N,1pa6*%
X136647000Y-68839000D03*
%TO.P,U7,9,PA7*%
%TO.N,1pa7*%
X136647000Y-71379000D03*
%TO.P,U7,10,PB0*%
%TO.N,1pb0*%
X136647000Y-73919000D03*
%TO.P,U7,11,PB1*%
%TO.N,1pb1*%
X136647000Y-76459000D03*
%TO.P,U7,12,PB2*%
%TO.N,1pb2*%
X136647000Y-78999000D03*
%TO.P,U7,13,PB3*%
%TO.N,1pb3*%
X136647000Y-81539000D03*
%TO.P,U7,14,PB4*%
%TO.N,1pb4*%
X136647000Y-84079000D03*
%TO.P,U7,15,PB5*%
%TO.N,1pb5*%
X136647000Y-86619000D03*
%TO.P,U7,16,PB6*%
%TO.N,1pb6*%
X136647000Y-89159000D03*
%TO.P,U7,17,PB7*%
%TO.N,1pb7*%
X136647000Y-91699000D03*
%TO.P,U7,18,CB1*%
%TO.N,1CB1*%
X136647000Y-94239000D03*
%TO.P,U7,19,CB2*%
%TO.N,1CB2*%
X136647000Y-96779000D03*
%TO.P,U7,20,VDD*%
%TO.N,+5V*%
X136647000Y-99319000D03*
%TO.P,U7,21,~{IRQ}*%
%TO.N,1VIA_IRQ*%
X151887000Y-99319000D03*
%TO.P,U7,22,R~{W}*%
%TO.N,RW*%
X151887000Y-96779000D03*
%TO.P,U7,23,~{CS2}*%
%TO.N,VIA1_CS*%
X151887000Y-94239000D03*
%TO.P,U7,24,CS1*%
%TO.N,+5V*%
X151887000Y-91699000D03*
%TO.P,U7,25,PHI2*%
%TO.N,PHI2*%
X151887000Y-89159000D03*
%TO.P,U7,26,D7*%
%TO.N,d7*%
X151887000Y-86619000D03*
%TO.P,U7,27,D6*%
%TO.N,d6*%
X151887000Y-84079000D03*
%TO.P,U7,28,D5*%
%TO.N,d5*%
X151887000Y-81539000D03*
%TO.P,U7,29,D4*%
%TO.N,d4*%
X151887000Y-78999000D03*
%TO.P,U7,30,D3*%
%TO.N,d3*%
X151887000Y-76459000D03*
%TO.P,U7,31,D2*%
%TO.N,d2*%
X151887000Y-73919000D03*
%TO.P,U7,32,D1*%
%TO.N,d1*%
X151887000Y-71379000D03*
%TO.P,U7,33,D0*%
%TO.N,d0*%
X151887000Y-68839000D03*
%TO.P,U7,34,~{RES}*%
%TO.N,RESET*%
X151887000Y-66299000D03*
%TO.P,U7,35,RS3*%
%TO.N,a3*%
X151887000Y-63759000D03*
%TO.P,U7,36,RS2*%
%TO.N,a2*%
X151887000Y-61219000D03*
%TO.P,U7,37,RS1*%
%TO.N,a1*%
X151887000Y-58679000D03*
%TO.P,U7,38,RS0*%
%TO.N,a0*%
X151887000Y-56139000D03*
%TO.P,U7,39,CA2*%
%TO.N,1CA2*%
X151887000Y-53599000D03*
%TO.P,U7,40,CA1*%
%TO.N,1CA1*%
X151887000Y-51059000D03*
%TD*%
D11*
%TO.P,J9,1*%
%TO.N,1pa5*%
X52832000Y-116272000D03*
D10*
%TO.P,J9,2*%
%TO.N,unconnected-(J9-Pad2)*%
X52832000Y-118872000D03*
%TO.P,J9,3*%
%TO.N,GND*%
X52832000Y-114172000D03*
%TO.P,J9,4*%
%TO.N,+5V*%
X52832000Y-120972000D03*
%TO.P,J9,5*%
%TO.N,1pa4*%
X50032000Y-114172000D03*
%TO.P,J9,6*%
%TO.N,unconnected-(J9-Pad6)*%
X50032000Y-120972000D03*
D26*
%TO.P,J9,7*%
%TO.N,N/C*%
X55682000Y-124422000D03*
D27*
X56482000Y-117572000D03*
D26*
X55682000Y-110722000D03*
%TD*%
D14*
%TO.P,SW3,1*%
%TO.N,Net-(J6-Pad1)*%
X68152000Y-97632000D03*
D15*
%TO.P,SW3,2*%
%TO.N,Net-(Q1-D)*%
X70652000Y-97632000D03*
%TO.P,SW3,3*%
%TO.N,N/C*%
X73152000Y-97632000D03*
%TO.P,SW3,4*%
X68152000Y-103632000D03*
%TO.P,SW3,5*%
X70652000Y-103632000D03*
%TO.P,SW3,6*%
X73152000Y-103632000D03*
%TD*%
D11*
%TO.P,U9,1,VSS*%
%TO.N,GND*%
X109728000Y-50800000D03*
D12*
%TO.P,U9,2,PA0*%
%TO.N,2pa0*%
X109728000Y-53340000D03*
%TO.P,U9,3,PA1*%
%TO.N,2pa1*%
X109728000Y-55880000D03*
%TO.P,U9,4,PA2*%
%TO.N,2pa2*%
X109728000Y-58420000D03*
%TO.P,U9,5,PA3*%
%TO.N,2pa3*%
X109728000Y-60960000D03*
%TO.P,U9,6,PA4*%
%TO.N,2pa4*%
X109728000Y-63500000D03*
%TO.P,U9,7,PA5*%
%TO.N,2pa5*%
X109728000Y-66040000D03*
%TO.P,U9,8,PA6*%
%TO.N,2pa6*%
X109728000Y-68580000D03*
%TO.P,U9,9,PA7*%
%TO.N,2pa7*%
X109728000Y-71120000D03*
%TO.P,U9,10,PB0*%
%TO.N,2pb0*%
X109728000Y-73660000D03*
%TO.P,U9,11,PB1*%
%TO.N,2pb1*%
X109728000Y-76200000D03*
%TO.P,U9,12,PB2*%
%TO.N,2pb2*%
X109728000Y-78740000D03*
%TO.P,U9,13,PB3*%
%TO.N,2pb3*%
X109728000Y-81280000D03*
%TO.P,U9,14,PB4*%
%TO.N,2pb4*%
X109728000Y-83820000D03*
%TO.P,U9,15,PB5*%
%TO.N,2pb5*%
X109728000Y-86360000D03*
%TO.P,U9,16,PB6*%
%TO.N,2pb6*%
X109728000Y-88900000D03*
%TO.P,U9,17,PB7*%
%TO.N,2pb7*%
X109728000Y-91440000D03*
%TO.P,U9,18,CB1*%
%TO.N,2CB1*%
X109728000Y-93980000D03*
%TO.P,U9,19,CB2*%
%TO.N,2CB2*%
X109728000Y-96520000D03*
%TO.P,U9,20,VDD*%
%TO.N,+5V*%
X109728000Y-99060000D03*
%TO.P,U9,21,~{IRQ}*%
%TO.N,2VIA_IRQ*%
X124968000Y-99060000D03*
%TO.P,U9,22,R~{W}*%
%TO.N,RW*%
X124968000Y-96520000D03*
%TO.P,U9,23,~{CS2}*%
%TO.N,VIA2_CS*%
X124968000Y-93980000D03*
%TO.P,U9,24,CS1*%
%TO.N,+5V*%
X124968000Y-91440000D03*
%TO.P,U9,25,PHI2*%
%TO.N,PHI2*%
X124968000Y-88900000D03*
%TO.P,U9,26,D7*%
%TO.N,d7*%
X124968000Y-86360000D03*
%TO.P,U9,27,D6*%
%TO.N,d6*%
X124968000Y-83820000D03*
%TO.P,U9,28,D5*%
%TO.N,d5*%
X124968000Y-81280000D03*
%TO.P,U9,29,D4*%
%TO.N,d4*%
X124968000Y-78740000D03*
%TO.P,U9,30,D3*%
%TO.N,d3*%
X124968000Y-76200000D03*
%TO.P,U9,31,D2*%
%TO.N,d2*%
X124968000Y-73660000D03*
%TO.P,U9,32,D1*%
%TO.N,d1*%
X124968000Y-71120000D03*
%TO.P,U9,33,D0*%
%TO.N,d0*%
X124968000Y-68580000D03*
%TO.P,U9,34,~{RES}*%
%TO.N,RESET*%
X124968000Y-66040000D03*
%TO.P,U9,35,RS3*%
%TO.N,a3*%
X124968000Y-63500000D03*
%TO.P,U9,36,RS2*%
%TO.N,a2*%
X124968000Y-60960000D03*
%TO.P,U9,37,RS1*%
%TO.N,a1*%
X124968000Y-58420000D03*
%TO.P,U9,38,RS0*%
%TO.N,a0*%
X124968000Y-55880000D03*
%TO.P,U9,39,CA2*%
%TO.N,2CA2*%
X124968000Y-53340000D03*
%TO.P,U9,40,CA1*%
%TO.N,2CA1*%
X124968000Y-50800000D03*
%TD*%
D10*
%TO.P,C8,1*%
%TO.N,+5V*%
X146812000Y-45720000D03*
%TO.P,C8,2*%
%TO.N,GND*%
X141812000Y-45720000D03*
%TD*%
%TO.P,R15,1*%
%TO.N,Net-(C22-Pad1)*%
X71628000Y-170180000D03*
D12*
%TO.P,R15,2*%
%TO.N,Net-(U15-ch_C)*%
X81788000Y-170180000D03*
%TD*%
D10*
%TO.P,C17,1*%
%TO.N,+5V*%
X140676000Y-152400000D03*
%TO.P,C17,2*%
%TO.N,GND*%
X135676000Y-152400000D03*
%TD*%
%TO.P,R24,1*%
%TO.N,Net-(C27-Pad1)*%
X88392000Y-170180000D03*
D12*
%TO.P,R24,2*%
%TO.N,Net-(U16-ch_A)*%
X98552000Y-170180000D03*
%TD*%
D11*
%TO.P,U15,1,Vss*%
%TO.N,GND*%
X130556000Y-157480000D03*
D12*
%TO.P,U15,2,N/C*%
%TO.N,unconnected-(U15-N{slash}C-Pad2)*%
X130556000Y-160020000D03*
%TO.P,U15,3,ch_B*%
%TO.N,Net-(U15-ch_B)*%
X130556000Y-162560000D03*
%TO.P,U15,4,ch_A*%
%TO.N,Net-(U15-ch_A)*%
X130556000Y-165100000D03*
%TO.P,U15,5,N/C*%
%TO.N,unconnected-(U15-N{slash}C-Pad5)*%
X130556000Y-167640000D03*
%TO.P,U15,6,IOB7*%
%TO.N,PSG1IOB7*%
X130556000Y-170180000D03*
%TO.P,U15,7,IOB6*%
%TO.N,PSG1IOB6*%
X130556000Y-172720000D03*
%TO.P,U15,8,IOB5*%
%TO.N,PSG1IOB5*%
X130556000Y-175260000D03*
%TO.P,U15,9,IOB4*%
%TO.N,PSG1IOB4*%
X130556000Y-177800000D03*
%TO.P,U15,10,IOB3*%
%TO.N,PSG1IOB3*%
X130556000Y-180340000D03*
%TO.P,U15,11,IOB2*%
%TO.N,PSG1IOB2*%
X130556000Y-182880000D03*
%TO.P,U15,12,IOB1*%
%TO.N,PSG1IOB1*%
X130556000Y-185420000D03*
%TO.P,U15,13,IOB0*%
%TO.N,PSG1IOB0*%
X130556000Y-187960000D03*
%TO.P,U15,14,IOA7*%
%TO.N,PSG1IOA7*%
X130556000Y-190500000D03*
%TO.P,U15,15,IOA6*%
%TO.N,PSG1IOA6*%
X130556000Y-193040000D03*
%TO.P,U15,16,IOA5*%
%TO.N,PSG1IOA5*%
X130556000Y-195580000D03*
%TO.P,U15,17,IOA4*%
%TO.N,PSG1IOA4*%
X130556000Y-198120000D03*
%TO.P,U15,18,IOA3*%
%TO.N,PSG1IOA3*%
X130556000Y-200660000D03*
%TO.P,U15,19,IOA2*%
%TO.N,PSG1IOA2*%
X130556000Y-203200000D03*
%TO.P,U15,20,IOA1*%
%TO.N,PSG1IOA1*%
X130556000Y-205740000D03*
%TO.P,U15,21,IOA0*%
%TO.N,PSG1IOA0*%
X145796000Y-205740000D03*
%TO.P,U15,22,CLOCK*%
%TO.N,CLK_1.8432*%
X145796000Y-203200000D03*
%TO.P,U15,23,~{RESET}*%
%TO.N,RESET*%
X145796000Y-200660000D03*
%TO.P,U15,24,~{A9}*%
%TO.N,Net-(U15-~{A9})*%
X145796000Y-198120000D03*
%TO.P,U15,25,A8*%
%TO.N,Net-(U15-A8)*%
X145796000Y-195580000D03*
%TO.P,U15,26,TEST2*%
%TO.N,unconnected-(U15-TEST2-Pad26)*%
X145796000Y-193040000D03*
%TO.P,U15,27,BDIR*%
%TO.N,Net-(U15-BDIR)*%
X145796000Y-190500000D03*
%TO.P,U15,28,BC2*%
%TO.N,+5V*%
X145796000Y-187960000D03*
%TO.P,U15,29,BC1*%
%TO.N,Net-(U15-BC1)*%
X145796000Y-185420000D03*
%TO.P,U15,30,D7*%
%TO.N,d7*%
X145796000Y-182880000D03*
%TO.P,U15,31,D6*%
%TO.N,d6*%
X145796000Y-180340000D03*
%TO.P,U15,32,D5*%
%TO.N,d5*%
X145796000Y-177800000D03*
%TO.P,U15,33,D4*%
%TO.N,d4*%
X145796000Y-175260000D03*
%TO.P,U15,34,D3*%
%TO.N,d3*%
X145796000Y-172720000D03*
%TO.P,U15,35,D2*%
%TO.N,d2*%
X145796000Y-170180000D03*
%TO.P,U15,36,D1*%
%TO.N,d1*%
X145796000Y-167640000D03*
%TO.P,U15,37,D0*%
%TO.N,d0*%
X145796000Y-165100000D03*
%TO.P,U15,38,ch_C*%
%TO.N,Net-(U15-ch_C)*%
X145796000Y-162560000D03*
%TO.P,U15,39,TEST1*%
%TO.N,unconnected-(U15-TEST1-Pad39)*%
X145796000Y-160020000D03*
%TO.P,U15,40,Vcc*%
%TO.N,+5V*%
X145796000Y-157480000D03*
%TD*%
D11*
%TO.P,X1,1,NC*%
%TO.N,unconnected-(X1-NC-Pad1)*%
X106172000Y-190246000D03*
D10*
%TO.P,X1,7,GND*%
%TO.N,GND*%
X121412000Y-190246000D03*
%TO.P,X1,8,OUT*%
%TO.N,Net-(JP1-B)*%
X121412000Y-182626000D03*
%TO.P,X1,14,Vcc*%
%TO.N,+5V*%
X106172000Y-182626000D03*
%TD*%
D11*
%TO.P,U1,1*%
%TO.N,1VIA_IRQ*%
X116840000Y-137160000D03*
D12*
%TO.P,U1,2*%
%TO.N,2VIA_IRQ*%
X116840000Y-139700000D03*
%TO.P,U1,3*%
%TO.N,Net-(U1-Pad3)*%
X116840000Y-142240000D03*
%TO.P,U1,4*%
X116840000Y-144780000D03*
%TO.P,U1,5*%
%TO.N,ACIA_IRQ*%
X116840000Y-147320000D03*
%TO.P,U1,6*%
%TO.N,IRQ*%
X116840000Y-149860000D03*
%TO.P,U1,7,GND*%
%TO.N,GND*%
X116840000Y-152400000D03*
%TO.P,U1,8*%
%TO.N,N/C*%
X124460000Y-152400000D03*
%TO.P,U1,9*%
X124460000Y-149860000D03*
%TO.P,U1,10*%
X124460000Y-147320000D03*
%TO.P,U1,11*%
X124460000Y-144780000D03*
%TO.P,U1,12*%
X124460000Y-142240000D03*
%TO.P,U1,13*%
X124460000Y-139700000D03*
%TO.P,U1,14,VCC*%
%TO.N,+5V*%
X124460000Y-137160000D03*
%TD*%
D10*
%TO.P,R9,1*%
%TO.N,BE*%
X88392000Y-132080000D03*
D12*
%TO.P,R9,2*%
%TO.N,+5V*%
X78232000Y-132080000D03*
%TD*%
D19*
%TO.P,J4,1,Pin_1*%
%TO.N,2pa0*%
X102616000Y-52085000D03*
D20*
%TO.P,J4,2,Pin_2*%
%TO.N,2pa1*%
X102616000Y-54625000D03*
%TO.P,J4,3,Pin_3*%
%TO.N,2pa2*%
X102616000Y-57165000D03*
%TO.P,J4,4,Pin_4*%
%TO.N,2pa3*%
X102616000Y-59705000D03*
%TO.P,J4,5,Pin_5*%
%TO.N,2pa4*%
X102616000Y-62245000D03*
%TO.P,J4,6,Pin_6*%
%TO.N,2pa5*%
X102616000Y-64785000D03*
%TO.P,J4,7,Pin_7*%
%TO.N,2pa6*%
X102616000Y-67325000D03*
%TO.P,J4,8,Pin_8*%
%TO.N,2pa7*%
X102616000Y-69865000D03*
%TD*%
D10*
%TO.P,R18,1*%
%TO.N,Net-(C22-Pad1)*%
X81788000Y-175260000D03*
D12*
%TO.P,R18,2*%
%TO.N,Net-(U15-ch_A)*%
X71628000Y-175260000D03*
%TD*%
D10*
%TO.P,C5,1*%
%TO.N,+5V*%
X199056000Y-106172000D03*
%TO.P,C5,2*%
%TO.N,GND*%
X194056000Y-106172000D03*
%TD*%
%TO.P,C28,1*%
%TO.N,Net-(C27-Pad1)*%
X79208000Y-190500000D03*
%TO.P,C28,2*%
%TO.N,GND*%
X74208000Y-190500000D03*
%TD*%
D21*
%TO.P,SW1,1,1*%
%TO.N,Net-(R1-Pad2)*%
X66854000Y-125548000D03*
X73354000Y-125548000D03*
%TO.P,SW1,2,2*%
%TO.N,GND*%
X66854000Y-130048000D03*
X73354000Y-130048000D03*
%TD*%
D19*
%TO.P,J12,1,Pin_1*%
%TO.N,IO3*%
X147828000Y-146812000D03*
D20*
%TO.P,J12,2,Pin_2*%
%TO.N,IO4*%
X147828000Y-144272000D03*
%TO.P,J12,3,Pin_3*%
%TO.N,IO5*%
X147828000Y-141732000D03*
%TO.P,J12,4,Pin_4*%
%TO.N,IO6*%
X147828000Y-139192000D03*
%TO.P,J12,5,Pin_5*%
%TO.N,IO7*%
X147828000Y-136652000D03*
%TO.P,J12,6,Pin_6*%
%TO.N,IO8*%
X147828000Y-134112000D03*
%TO.P,J12,7,Pin_7*%
%TO.N,IO9*%
X147828000Y-131572000D03*
%TO.P,J12,8,Pin_8*%
%TO.N,IO10*%
X147828000Y-129032000D03*
%TD*%
D10*
%TO.P,C22,1*%
%TO.N,Net-(C22-Pad1)*%
X69104000Y-194564000D03*
%TO.P,C22,2*%
%TO.N,AUDIO_OUT_RIGHT*%
X71104000Y-194564000D03*
%TD*%
D19*
%TO.P,J8,1,Pin_1*%
%TO.N,+5V*%
X53574000Y-79781000D03*
D20*
%TO.P,J8,2,Pin_2*%
%TO.N,GND*%
X51034000Y-79781000D03*
%TD*%
D19*
%TO.P,J3,1,Pin_1*%
%TO.N,1CB2*%
X117109000Y-40132000D03*
D20*
%TO.P,J3,2,Pin_2*%
%TO.N,1CB1*%
X119649000Y-40132000D03*
%TO.P,J3,3,Pin_3*%
%TO.N,1CA1*%
X122189000Y-40132000D03*
%TO.P,J3,4,Pin_4*%
%TO.N,1CA2*%
X124729000Y-40132000D03*
%TO.P,J3,5,Pin_5*%
%TO.N,2CB1*%
X127269000Y-40132000D03*
%TO.P,J3,6,Pin_6*%
%TO.N,2CB2*%
X129809000Y-40132000D03*
%TO.P,J3,7,Pin_7*%
%TO.N,2CA1*%
X132349000Y-40132000D03*
%TO.P,J3,8,Pin_8*%
%TO.N,2CA2*%
X134889000Y-40132000D03*
%TD*%
D10*
%TO.P,C2,1*%
%TO.N,+5V*%
X123444000Y-132080000D03*
%TO.P,C2,2*%
%TO.N,GND*%
X118444000Y-132080000D03*
%TD*%
%TO.P,R12,1*%
%TO.N,Net-(U11-THR)*%
X69088000Y-159512000D03*
D12*
%TO.P,R12,2*%
%TO.N,GND*%
X69088000Y-149352000D03*
%TD*%
D11*
%TO.P,U6,1,S*%
%TO.N,BANKED_RAM_CS*%
X167396000Y-111252000D03*
D12*
%TO.P,U6,2,I0a*%
%TO.N,1pa0*%
X167396000Y-113792000D03*
%TO.P,U6,3,I1a*%
%TO.N,GND*%
X167396000Y-116332000D03*
%TO.P,U6,4,Za*%
%TO.N,Net-(U6-Za)*%
X167396000Y-118872000D03*
%TO.P,U6,5,I0b*%
%TO.N,1pa1*%
X167396000Y-121412000D03*
%TO.P,U6,6,I1b*%
%TO.N,GND*%
X167396000Y-123952000D03*
%TO.P,U6,7,Zb*%
%TO.N,Net-(U6-Zb)*%
X167396000Y-126492000D03*
%TO.P,U6,8,GND*%
%TO.N,GND*%
X167396000Y-129032000D03*
%TO.P,U6,9,Zc*%
%TO.N,Net-(U6-Zc)*%
X175016000Y-129032000D03*
%TO.P,U6,10,I1c*%
%TO.N,GND*%
X175016000Y-126492000D03*
%TO.P,U6,11,I0c*%
%TO.N,1pa2*%
X175016000Y-123952000D03*
%TO.P,U6,12,Zd*%
%TO.N,Net-(U6-Zd)*%
X175016000Y-121412000D03*
%TO.P,U6,13,I1d*%
%TO.N,GND*%
X175016000Y-118872000D03*
%TO.P,U6,14,I0d*%
%TO.N,1pa3*%
X175016000Y-116332000D03*
%TO.P,U6,15,E*%
%TO.N,GND*%
X175016000Y-113792000D03*
%TO.P,U6,16,VCC*%
%TO.N,+5V*%
X175016000Y-111252000D03*
%TD*%
D10*
%TO.P,R4,1*%
%TO.N,GND*%
X167640000Y-146304000D03*
D12*
%TO.P,R4,2*%
%TO.N,1pa0*%
X167640000Y-136144000D03*
%TD*%
D10*
%TO.P,R8,1*%
%TO.N,+5V*%
X78232000Y-136652000D03*
D12*
%TO.P,R8,2*%
%TO.N,RESET*%
X88392000Y-136652000D03*
%TD*%
D19*
%TO.P,JP1,1,A*%
%TO.N,PHI2*%
X106680000Y-176276000D03*
D20*
%TO.P,JP1,2,B*%
%TO.N,Net-(JP1-B)*%
X109220000Y-176276000D03*
%TD*%
D13*
%TO.P,REF2,2*%
%TO.N,N/C*%
X238760000Y-39624000D03*
%TD*%
D11*
%TO.P,U11,1,GND*%
%TO.N,GND*%
X73152000Y-150368000D03*
D12*
%TO.P,U11,2,TR*%
%TO.N,Net-(U11-THR)*%
X73152000Y-152908000D03*
%TO.P,U11,3,Q*%
%TO.N,RESET*%
X73152000Y-155448000D03*
%TO.P,U11,4,R*%
%TO.N,+5V*%
X73152000Y-157988000D03*
%TO.P,U11,5,CV*%
%TO.N,Net-(U11-CV)*%
X80772000Y-157988000D03*
%TO.P,U11,6,THR*%
%TO.N,Net-(U11-THR)*%
X80772000Y-155448000D03*
%TO.P,U11,7,DIS*%
%TO.N,unconnected-(U11-DIS-Pad7)*%
X80772000Y-152908000D03*
%TO.P,U11,8,VCC*%
%TO.N,+5V*%
X80772000Y-150368000D03*
%TD*%
D13*
%TO.P,REF4,4*%
%TO.N,N/C*%
X238760000Y-209296000D03*
%TD*%
D10*
%TO.P,C13,1*%
%TO.N,GND*%
X83860000Y-157988000D03*
%TO.P,C13,2*%
%TO.N,Net-(U11-CV)*%
X88860000Y-157988000D03*
%TD*%
%TO.P,C21,1*%
%TO.N,GND*%
X215900000Y-206756000D03*
%TO.P,C21,2*%
%TO.N,Net-(U13-VS-)*%
X213900000Y-206756000D03*
%TD*%
D19*
%TO.P,J15,1,Pin_1*%
%TO.N,PSG1IOB0*%
X100076000Y-199644000D03*
D20*
%TO.P,J15,2,Pin_2*%
%TO.N,PSG1IOB1*%
X97536000Y-199644000D03*
%TO.P,J15,3,Pin_3*%
%TO.N,PSG1IOB2*%
X94996000Y-199644000D03*
%TO.P,J15,4,Pin_4*%
%TO.N,PSG1IOB3*%
X92456000Y-199644000D03*
%TO.P,J15,5,Pin_5*%
%TO.N,PSG1IOB4*%
X89916000Y-199644000D03*
%TO.P,J15,6,Pin_6*%
%TO.N,PSG1IOB5*%
X87376000Y-199644000D03*
%TO.P,J15,7,Pin_7*%
%TO.N,PSG1IOB6*%
X84836000Y-199644000D03*
%TO.P,J15,8,Pin_8*%
%TO.N,PSG1IOB7*%
X82296000Y-199644000D03*
%TD*%
D10*
%TO.P,C16,1*%
%TO.N,+5V*%
X74960000Y-145288000D03*
%TO.P,C16,2*%
%TO.N,GND*%
X79960000Y-145288000D03*
%TD*%
%TO.P,C20,1*%
%TO.N,Net-(U13-VS+)*%
X215884000Y-183896000D03*
%TO.P,C20,2*%
%TO.N,GND*%
X213884000Y-183896000D03*
%TD*%
D19*
%TO.P,J16,1,Pin_1*%
%TO.N,PSG1IOA0*%
X124460000Y-199644000D03*
D20*
%TO.P,J16,2,Pin_2*%
%TO.N,PSG1IOA1*%
X121920000Y-199644000D03*
%TO.P,J16,3,Pin_3*%
%TO.N,PSG1IOA2*%
X119380000Y-199644000D03*
%TO.P,J16,4,Pin_4*%
%TO.N,PSG1IOA3*%
X116840000Y-199644000D03*
%TO.P,J16,5,Pin_5*%
%TO.N,PSG1IOA4*%
X114300000Y-199644000D03*
%TO.P,J16,6,Pin_6*%
%TO.N,PSG1IOA5*%
X111760000Y-199644000D03*
%TO.P,J16,7,Pin_7*%
%TO.N,PSG1IOA6*%
X109220000Y-199644000D03*
%TO.P,J16,8,Pin_8*%
%TO.N,PSG1IOA7*%
X106680000Y-199644000D03*
%TD*%
D10*
%TO.P,C10,1*%
%TO.N,+5V*%
X123364000Y-106172000D03*
%TO.P,C10,2*%
%TO.N,GND*%
X118364000Y-106172000D03*
%TD*%
D19*
%TO.P,J14,1,Pin_1*%
%TO.N,unconnected-(J14-Pin_1-Pad1)*%
X189992000Y-210312000D03*
D20*
%TO.P,J14,2,Pin_2*%
%TO.N,unconnected-(J14-Pin_2-Pad2)*%
X192532000Y-210312000D03*
%TO.P,J14,3,Pin_3*%
%TO.N,unconnected-(J14-Pin_3-Pad3)*%
X195072000Y-210312000D03*
%TO.P,J14,4,Pin_4*%
%TO.N,unconnected-(J14-Pin_4-Pad4)*%
X197612000Y-210312000D03*
%TO.P,J14,5,Pin_5*%
%TO.N,unconnected-(J14-Pin_5-Pad5)*%
X200152000Y-210312000D03*
%TD*%
D10*
%TO.P,R22,1*%
%TO.N,Net-(C27-Pad1)*%
X88392000Y-174752000D03*
D12*
%TO.P,R22,2*%
%TO.N,Net-(U16-ch_B)*%
X98552000Y-174752000D03*
%TD*%
D10*
%TO.P,R6,1*%
%TO.N,GND*%
X176784000Y-146304000D03*
D12*
%TO.P,R6,2*%
%TO.N,1pa2*%
X176784000Y-136144000D03*
%TD*%
D19*
%TO.P,J17,1,Pin_1*%
%TO.N,PSG2IOA0*%
X123952000Y-209296000D03*
D20*
%TO.P,J17,2,Pin_2*%
%TO.N,PSG2IOA1*%
X121412000Y-209296000D03*
%TO.P,J17,3,Pin_3*%
%TO.N,PSG2IOA2*%
X118872000Y-209296000D03*
%TO.P,J17,4,Pin_4*%
%TO.N,PSG2IOA3*%
X116332000Y-209296000D03*
%TO.P,J17,5,Pin_5*%
%TO.N,PSG2IOA4*%
X113792000Y-209296000D03*
%TO.P,J17,6,Pin_6*%
%TO.N,PSG2IOA5*%
X111252000Y-209296000D03*
%TO.P,J17,7,Pin_7*%
%TO.N,PSG2IOA6*%
X108712000Y-209296000D03*
%TO.P,J17,8,Pin_8*%
%TO.N,PSG2IOA7*%
X106172000Y-209296000D03*
%TD*%
D10*
%TO.P,C18,1*%
%TO.N,Net-(U13-C1+)*%
X215900000Y-191516000D03*
%TO.P,C18,2*%
%TO.N,Net-(U13-C1-)*%
X213900000Y-191516000D03*
%TD*%
%TO.P,C3,1*%
%TO.N,+5V*%
X139660000Y-106172000D03*
%TO.P,C3,2*%
%TO.N,GND*%
X134660000Y-106172000D03*
%TD*%
D29*
%TO.P,Q1,1,G*%
%TO.N,GND*%
X53340000Y-91440000D03*
D30*
%TO.P,Q1,2,D*%
%TO.N,Net-(Q1-D)*%
X53340000Y-88900000D03*
%TO.P,Q1,3,S*%
%TO.N,+5V*%
X53340000Y-86360000D03*
%TD*%
D11*
%TO.P,U16,1,Vss*%
%TO.N,GND*%
X156972000Y-157480000D03*
D12*
%TO.P,U16,2,N/C*%
%TO.N,unconnected-(U16-N{slash}C-Pad2)*%
X156972000Y-160020000D03*
%TO.P,U16,3,ch_B*%
%TO.N,Net-(U16-ch_B)*%
X156972000Y-162560000D03*
%TO.P,U16,4,ch_A*%
%TO.N,Net-(U16-ch_A)*%
X156972000Y-165100000D03*
%TO.P,U16,5,N/C*%
%TO.N,unconnected-(U16-N{slash}C-Pad5)*%
X156972000Y-167640000D03*
%TO.P,U16,6,IOB7*%
%TO.N,PSG2IOB7*%
X156972000Y-170180000D03*
%TO.P,U16,7,IOB6*%
%TO.N,PSG2IOB6*%
X156972000Y-172720000D03*
%TO.P,U16,8,IOB5*%
%TO.N,PSG2IOB5*%
X156972000Y-175260000D03*
%TO.P,U16,9,IOB4*%
%TO.N,PSG2IOB4*%
X156972000Y-177800000D03*
%TO.P,U16,10,IOB3*%
%TO.N,PSG2IOB3*%
X156972000Y-180340000D03*
%TO.P,U16,11,IOB2*%
%TO.N,PSG2IOB2*%
X156972000Y-182880000D03*
%TO.P,U16,12,IOB1*%
%TO.N,PSG2IOB1*%
X156972000Y-185420000D03*
%TO.P,U16,13,IOB0*%
%TO.N,PSG2IOB0*%
X156972000Y-187960000D03*
%TO.P,U16,14,IOA7*%
%TO.N,PSG2IOA7*%
X156972000Y-190500000D03*
%TO.P,U16,15,IOA6*%
%TO.N,PSG2IOA6*%
X156972000Y-193040000D03*
%TO.P,U16,16,IOA5*%
%TO.N,PSG2IOA5*%
X156972000Y-195580000D03*
%TO.P,U16,17,IOA4*%
%TO.N,PSG2IOA4*%
X156972000Y-198120000D03*
%TO.P,U16,18,IOA3*%
%TO.N,PSG2IOA3*%
X156972000Y-200660000D03*
%TO.P,U16,19,IOA2*%
%TO.N,PSG2IOA2*%
X156972000Y-203200000D03*
%TO.P,U16,20,IOA1*%
%TO.N,PSG2IOA1*%
X156972000Y-205740000D03*
%TO.P,U16,21,IOA0*%
%TO.N,PSG2IOA0*%
X172212000Y-205740000D03*
%TO.P,U16,22,CLOCK*%
%TO.N,CLK_1.8432*%
X172212000Y-203200000D03*
%TO.P,U16,23,~{RESET}*%
%TO.N,RESET*%
X172212000Y-200660000D03*
%TO.P,U16,24,~{A9}*%
%TO.N,Net-(U16-~{A9})*%
X172212000Y-198120000D03*
%TO.P,U16,25,A8*%
%TO.N,Net-(U16-A8)*%
X172212000Y-195580000D03*
%TO.P,U16,26,TEST2*%
%TO.N,unconnected-(U16-TEST2-Pad26)*%
X172212000Y-193040000D03*
%TO.P,U16,27,BDIR*%
%TO.N,Net-(U16-BDIR)*%
X172212000Y-190500000D03*
%TO.P,U16,28,BC2*%
%TO.N,+5V*%
X172212000Y-187960000D03*
%TO.P,U16,29,BC1*%
%TO.N,Net-(U16-BC1)*%
X172212000Y-185420000D03*
%TO.P,U16,30,D7*%
%TO.N,d7*%
X172212000Y-182880000D03*
%TO.P,U16,31,D6*%
%TO.N,d6*%
X172212000Y-180340000D03*
%TO.P,U16,32,D5*%
%TO.N,d5*%
X172212000Y-177800000D03*
%TO.P,U16,33,D4*%
%TO.N,d4*%
X172212000Y-175260000D03*
%TO.P,U16,34,D3*%
%TO.N,d3*%
X172212000Y-172720000D03*
%TO.P,U16,35,D2*%
%TO.N,d2*%
X172212000Y-170180000D03*
%TO.P,U16,36,D1*%
%TO.N,d1*%
X172212000Y-167640000D03*
%TO.P,U16,37,D0*%
%TO.N,d0*%
X172212000Y-165100000D03*
%TO.P,U16,38,ch_C*%
%TO.N,Net-(U16-ch_C)*%
X172212000Y-162560000D03*
%TO.P,U16,39,TEST1*%
%TO.N,unconnected-(U16-TEST1-Pad39)*%
X172212000Y-160020000D03*
%TO.P,U16,40,Vcc*%
%TO.N,+5V*%
X172212000Y-157480000D03*
%TD*%
D10*
%TO.P,R14,1*%
%TO.N,Net-(U15-~{A9})*%
X123952000Y-169672000D03*
D12*
%TO.P,R14,2*%
%TO.N,GND*%
X113792000Y-169672000D03*
%TD*%
D10*
%TO.P,R21,1*%
%TO.N,Net-(C27-Pad1)*%
X88392000Y-179324000D03*
D12*
%TO.P,R21,2*%
%TO.N,Net-(U16-ch_C)*%
X98552000Y-179324000D03*
%TD*%
D11*
%TO.P,U13,1,C1+*%
%TO.N,Net-(U13-C1+)*%
X223276000Y-187188000D03*
D12*
%TO.P,U13,2,VS+*%
%TO.N,Net-(U13-VS+)*%
X223276000Y-189728000D03*
%TO.P,U13,3,C1-*%
%TO.N,Net-(U13-C1-)*%
X223276000Y-192268000D03*
%TO.P,U13,4,C2+*%
%TO.N,Net-(U13-C2+)*%
X223276000Y-194808000D03*
%TO.P,U13,5,C2-*%
%TO.N,Net-(U13-C2-)*%
X223276000Y-197348000D03*
%TO.P,U13,6,VS-*%
%TO.N,Net-(U13-VS-)*%
X223276000Y-199888000D03*
%TO.P,U13,7,T2OUT*%
%TO.N,unconnected-(U13-T2OUT-Pad7)*%
X223276000Y-202428000D03*
%TO.P,U13,8,R2IN*%
%TO.N,unconnected-(U13-R2IN-Pad8)*%
X223276000Y-204968000D03*
%TO.P,U13,9,R2OUT*%
%TO.N,unconnected-(U13-R2OUT-Pad9)*%
X230896000Y-204968000D03*
%TO.P,U13,10,T2IN*%
%TO.N,unconnected-(U13-T2IN-Pad10)*%
X230896000Y-202428000D03*
%TO.P,U13,11,T1IN*%
%TO.N,Net-(U12-TxD)*%
X230896000Y-199888000D03*
%TO.P,U13,12,R1OUT*%
%TO.N,Net-(U12-RxD)*%
X230896000Y-197348000D03*
%TO.P,U13,13,R1IN*%
%TO.N,Net-(U13-R1IN)*%
X230896000Y-194808000D03*
%TO.P,U13,14,T1OUT*%
%TO.N,Net-(U13-T1OUT)*%
X230896000Y-192268000D03*
%TO.P,U13,15,GND*%
%TO.N,GND*%
X230896000Y-189728000D03*
%TO.P,U13,16,VCC*%
%TO.N,+5V*%
X230896000Y-187188000D03*
%TD*%
D19*
%TO.P,J2,1,Pin_1*%
%TO.N,a0*%
X58928000Y-42164000D03*
D20*
%TO.P,J2,2,Pin_2*%
%TO.N,d0*%
X61468000Y-42164000D03*
%TO.P,J2,3,Pin_3*%
%TO.N,a1*%
X58928000Y-44704000D03*
%TO.P,J2,4,Pin_4*%
%TO.N,d1*%
X61468000Y-44704000D03*
%TO.P,J2,5,Pin_5*%
%TO.N,a2*%
X58928000Y-47244000D03*
%TO.P,J2,6,Pin_6*%
%TO.N,d2*%
X61468000Y-47244000D03*
%TO.P,J2,7,Pin_7*%
%TO.N,a3*%
X58928000Y-49784000D03*
%TO.P,J2,8,Pin_8*%
%TO.N,d3*%
X61468000Y-49784000D03*
%TO.P,J2,9,Pin_9*%
%TO.N,a4*%
X58928000Y-52324000D03*
%TO.P,J2,10,Pin_10*%
%TO.N,d4*%
X61468000Y-52324000D03*
%TO.P,J2,11,Pin_11*%
%TO.N,a5*%
X58928000Y-54864000D03*
%TO.P,J2,12,Pin_12*%
%TO.N,d5*%
X61468000Y-54864000D03*
%TO.P,J2,13,Pin_13*%
%TO.N,a6*%
X58928000Y-57404000D03*
%TO.P,J2,14,Pin_14*%
%TO.N,d6*%
X61468000Y-57404000D03*
%TO.P,J2,15,Pin_15*%
%TO.N,a7*%
X58928000Y-59944000D03*
%TO.P,J2,16,Pin_16*%
%TO.N,d7*%
X61468000Y-59944000D03*
%TO.P,J2,17,Pin_17*%
%TO.N,a8*%
X58928000Y-62484000D03*
%TO.P,J2,18,Pin_18*%
%TO.N,RW*%
X61468000Y-62484000D03*
%TO.P,J2,19,Pin_19*%
%TO.N,a9*%
X58928000Y-65024000D03*
%TO.P,J2,20,Pin_20*%
%TO.N,PHI2*%
X61468000Y-65024000D03*
%TO.P,J2,21,Pin_21*%
%TO.N,a10*%
X58928000Y-67564000D03*
%TO.P,J2,22,Pin_22*%
%TO.N,RESET*%
X61468000Y-67564000D03*
%TO.P,J2,23,Pin_23*%
%TO.N,a11*%
X58928000Y-70104000D03*
%TO.P,J2,24,Pin_24*%
%TO.N,SYNC*%
X61468000Y-70104000D03*
%TO.P,J2,25,Pin_25*%
%TO.N,a12*%
X58928000Y-72644000D03*
%TO.P,J2,26,Pin_26*%
%TO.N,IRQ*%
X61468000Y-72644000D03*
%TO.P,J2,27,Pin_27*%
%TO.N,a13*%
X58928000Y-75184000D03*
%TO.P,J2,28,Pin_28*%
%TO.N,BE*%
X61468000Y-75184000D03*
%TO.P,J2,29,Pin_29*%
%TO.N,a14*%
X58928000Y-77724000D03*
%TO.P,J2,30,Pin_30*%
%TO.N,RDY*%
X61468000Y-77724000D03*
%TO.P,J2,31,Pin_31*%
%TO.N,a15*%
X58928000Y-80264000D03*
%TO.P,J2,32,Pin_32*%
%TO.N,VP*%
X61468000Y-80264000D03*
%TO.P,J2,33,Pin_33*%
%TO.N,/interface/IO0*%
X58928000Y-82804000D03*
%TO.P,J2,34,Pin_34*%
%TO.N,ML*%
X61468000Y-82804000D03*
%TO.P,J2,35,Pin_35*%
%TO.N,OE*%
X58928000Y-85344000D03*
%TO.P,J2,36,Pin_36*%
%TO.N,NMI*%
X61468000Y-85344000D03*
%TO.P,J2,37,Pin_37*%
%TO.N,+5V*%
X58928000Y-87884000D03*
%TO.P,J2,38,Pin_38*%
%TO.N,WE*%
X61468000Y-87884000D03*
%TO.P,J2,39,Pin_39*%
%TO.N,GND*%
X58928000Y-90424000D03*
%TO.P,J2,40,Pin_40*%
X61468000Y-90424000D03*
%TD*%
D31*
%TO.P,J6,1*%
%TO.N,Net-(J6-Pad1)*%
X61880000Y-101150500D03*
D32*
%TO.P,J6,2*%
%TO.N,GND*%
X55880000Y-101150500D03*
D33*
%TO.P,J6,3*%
%TO.N,N/C*%
X58880000Y-105850500D03*
%TD*%
D19*
%TO.P,J5,1,Pin_1*%
%TO.N,decode0*%
X148336000Y-114300000D03*
D20*
%TO.P,J5,2,Pin_2*%
%TO.N,decode1*%
X148336000Y-116840000D03*
%TO.P,J5,3,Pin_3*%
%TO.N,decode2*%
X148336000Y-119380000D03*
%TO.P,J5,4,Pin_4*%
%TO.N,decode3*%
X148336000Y-121920000D03*
%TD*%
D10*
%TO.P,C1,1*%
%TO.N,+5V*%
X119848000Y-45720000D03*
%TO.P,C1,2*%
%TO.N,GND*%
X114848000Y-45720000D03*
%TD*%
D14*
%TO.P,D2,1,K*%
%TO.N,GND*%
X82296000Y-99060000D03*
D15*
%TO.P,D2,2,A*%
%TO.N,Net-(D2-A)*%
X84836000Y-99060000D03*
%TD*%
D10*
%TO.P,C19,1*%
%TO.N,Net-(U13-C2+)*%
X215900000Y-199136000D03*
%TO.P,C19,2*%
%TO.N,Net-(U13-C2-)*%
X213900000Y-199136000D03*
%TD*%
%TO.P,C11,1*%
%TO.N,+5V*%
X173696000Y-106172000D03*
%TO.P,C11,2*%
%TO.N,GND*%
X168696000Y-106172000D03*
%TD*%
D13*
%TO.P,REF3,3*%
%TO.N,N/C*%
X51816000Y-209296000D03*
%TD*%
D10*
%TO.P,C4,1*%
%TO.N,+5V*%
X159512000Y-106172000D03*
%TO.P,C4,2*%
%TO.N,GND*%
X154512000Y-106172000D03*
%TD*%
%TO.P,R1,1*%
%TO.N,NMI*%
X78232000Y-120904000D03*
D12*
%TO.P,R1,2*%
%TO.N,Net-(R1-Pad2)*%
X88392000Y-120904000D03*
%TD*%
D10*
%TO.P,C7,1*%
%TO.N,GND*%
X80812000Y-126492000D03*
%TO.P,C7,2*%
%TO.N,NMI*%
X85812000Y-126492000D03*
%TD*%
D11*
%TO.P,X2,1,NC*%
%TO.N,unconnected-(X2-NC-Pad1)*%
X219456000Y-174498000D03*
D10*
%TO.P,X2,7,GND*%
%TO.N,GND*%
X234696000Y-174498000D03*
%TO.P,X2,8,OUT*%
%TO.N,CLK_1.8432*%
X234696000Y-166878000D03*
%TO.P,X2,14,Vcc*%
%TO.N,+5V*%
X219456000Y-166878000D03*
%TD*%
D19*
%TO.P,J18,1,Pin_1*%
%TO.N,PSG2IOB0*%
X100076000Y-209296000D03*
D20*
%TO.P,J18,2,Pin_2*%
%TO.N,PSG2IOB1*%
X97536000Y-209296000D03*
%TO.P,J18,3,Pin_3*%
%TO.N,PSG2IOB2*%
X94996000Y-209296000D03*
%TO.P,J18,4,Pin_4*%
%TO.N,PSG2IOB3*%
X92456000Y-209296000D03*
%TO.P,J18,5,Pin_5*%
%TO.N,PSG2IOB4*%
X89916000Y-209296000D03*
%TO.P,J18,6,Pin_6*%
%TO.N,PSG2IOB5*%
X87376000Y-209296000D03*
%TO.P,J18,7,Pin_7*%
%TO.N,PSG2IOB6*%
X84836000Y-209296000D03*
%TO.P,J18,8,Pin_8*%
%TO.N,PSG2IOB7*%
X82296000Y-209296000D03*
%TD*%
D34*
%TO.N,+5V*%
X76551900Y-92811700D03*
X129066100Y-153533900D03*
%TO.N,a0*%
X64085800Y-123752800D03*
X168459000Y-63695300D03*
%TO.N,d0*%
X136144600Y-124892900D03*
%TO.N,a1*%
X64584900Y-125851800D03*
X169215800Y-67098500D03*
%TO.N,d1*%
X120742900Y-130865600D03*
X118310200Y-53855600D03*
X208828400Y-148482000D03*
%TO.N,a2*%
X90886300Y-96019300D03*
X174541200Y-72913100D03*
X94937700Y-48982400D03*
X88274300Y-93540300D03*
%TO.N,d2*%
X206778900Y-149906800D03*
X112480000Y-168429900D03*
%TO.N,a3*%
X100386900Y-53369000D03*
%TO.N,d3*%
X119517400Y-139156600D03*
X154550100Y-183612600D03*
%TO.N,a4*%
X183833300Y-109340300D03*
X100085600Y-108271000D03*
X106622300Y-99713100D03*
%TO.N,d4*%
X120151500Y-143008500D03*
X181632500Y-181502700D03*
%TO.N,a5*%
X104179800Y-117676300D03*
X175742500Y-132919300D03*
%TO.N,d5*%
X119522600Y-140409600D03*
%TO.N,a6*%
X87429400Y-94395800D03*
X101297100Y-97436000D03*
X89145200Y-96111600D03*
X103700800Y-109331100D03*
X184281800Y-112468000D03*
%TO.N,d6*%
X190442100Y-103609100D03*
%TO.N,a7*%
X102839100Y-128414600D03*
X165716700Y-131824100D03*
%TO.N,d7*%
X184548000Y-98110300D03*
%TO.N,a8*%
X73362700Y-99793200D03*
%TO.N,RW*%
X185145500Y-102593600D03*
%TO.N,a9*%
X96544700Y-71399400D03*
X202325200Y-127197100D03*
X137388000Y-141426900D03*
%TO.N,PHI2*%
X184400300Y-99124000D03*
%TO.N,a10*%
X103309200Y-139254300D03*
X128906100Y-131537900D03*
X139105000Y-145477100D03*
X96315200Y-133309900D03*
%TO.N,RESET*%
X112220900Y-75071500D03*
X104569400Y-77554100D03*
%TO.N,a11*%
X104681000Y-128685600D03*
X198053500Y-115618400D03*
X128408700Y-127191900D03*
%TO.N,a12*%
X117695300Y-134244200D03*
X55929800Y-76471700D03*
X105690100Y-156601800D03*
X131867500Y-128003800D03*
X158440300Y-129479000D03*
X144595200Y-125089800D03*
%TO.N,IRQ*%
X111567000Y-144667200D03*
X97878300Y-134890300D03*
%TO.N,a13*%
X135459000Y-133463800D03*
X122235900Y-149442700D03*
X106134300Y-155159500D03*
X126511700Y-141052500D03*
%TO.N,BE*%
X96512700Y-113151900D03*
%TO.N,a14*%
X96053600Y-109662100D03*
X114189400Y-119899300D03*
X124549900Y-104016000D03*
%TO.N,a15*%
X102071200Y-108621300D03*
X106363000Y-148173400D03*
X125882600Y-108900900D03*
X98976900Y-87258100D03*
%TO.N,WE*%
X92439400Y-132328300D03*
%TO.N,OE*%
X108030500Y-106067300D03*
X138678200Y-121355500D03*
X190389300Y-108168600D03*
X137171000Y-107389900D03*
X138678200Y-123170900D03*
X100394000Y-89511600D03*
%TO.N,1CB2*%
X126998600Y-50333800D03*
%TO.N,1CB1*%
X129410700Y-49502300D03*
%TO.N,1pa4*%
X114739400Y-77592500D03*
X123092000Y-66633900D03*
%TO.N,1pa5*%
X130239700Y-85945600D03*
%TO.N,PSG2IOA5*%
X147712800Y-198451300D03*
%TO.N,PSG2IOA6*%
X154770700Y-209992000D03*
%TO.N,PSG2IOB2*%
X139394400Y-186239600D03*
%TO.N,PSG2IOB5*%
X114494300Y-179213100D03*
%TO.N,PSG2IOB7*%
X153928100Y-210922800D03*
%TO.N,1pa1*%
X165512400Y-115145500D03*
X166884400Y-63661000D03*
%TO.N,1pa2*%
X166417500Y-65417200D03*
%TO.N,1pa3*%
X166875300Y-72996900D03*
%TO.N,1VIA_IRQ*%
X122940600Y-104702100D03*
%TO.N,ACIA_CS*%
X185049500Y-172218900D03*
X164004500Y-150068100D03*
%TO.N,PSG2_CS*%
X145028100Y-119883000D03*
%TO.N,ROM_CS*%
X148252200Y-149840800D03*
%TO.N,RAM_CS*%
X145769900Y-146295600D03*
%TO.N,1pa6*%
X108668400Y-57153000D03*
%TO.N,1pa7*%
X122669200Y-71941900D03*
X108922800Y-97722200D03*
%TO.N,Net-(U16-A8)*%
X123349000Y-172377400D03*
X153532200Y-171581100D03*
%TO.N,Net-(U16-~{A9})*%
X128385000Y-165129800D03*
%TO.N,Net-(U16-ch_B)*%
X105864700Y-161935600D03*
%TO.N,Net-(U16-ch_A)*%
X148221100Y-165170400D03*
X143880500Y-163964300D03*
%TO.N,Net-(U15-BC1)*%
X145732500Y-149095300D03*
X145402100Y-153891800D03*
%TD*%
D35*
%TO.N,+5V*%
X97963400Y-107176700D02*
X97046000Y-107176700D01*
X79866900Y-109617100D02*
X78232000Y-111252000D01*
X175016000Y-111252000D02*
X176142900Y-111252000D01*
X133991100Y-97790000D02*
X135520100Y-99319000D01*
X205342900Y-111252000D02*
X210422900Y-106172000D01*
X109728000Y-99060000D02*
X108601100Y-99060000D01*
X78232000Y-111252000D02*
X78232000Y-116332000D01*
X120786100Y-153533900D02*
X113792000Y-160528000D01*
X206734400Y-102483500D02*
X206734400Y-49207400D01*
X58928000Y-87884000D02*
X60104900Y-87884000D01*
X159512000Y-106172000D02*
X160638900Y-105045100D01*
X109728000Y-99060000D02*
X122213700Y-99060000D01*
X123444000Y-135017100D02*
X124460000Y-136033100D01*
X122213700Y-99060000D02*
X122213700Y-105021700D01*
X94605600Y-126545200D02*
X94605600Y-109617100D01*
X97046000Y-107176700D02*
X94605600Y-109617100D01*
X83219200Y-87884000D02*
X78291500Y-92811700D01*
X188578900Y-172451000D02*
X195929900Y-165100000D01*
X78232000Y-132080000D02*
X79358900Y-132080000D01*
X73792600Y-142370800D02*
X68742800Y-142370800D01*
X78232000Y-136652000D02*
X73792600Y-141091400D01*
X98592000Y-105664000D02*
X105270500Y-98985500D01*
X156207900Y-186823200D02*
X155071100Y-187960000D01*
X145796000Y-157480000D02*
X146922900Y-157480000D01*
X105270500Y-98985500D02*
X108526600Y-98985500D01*
X129066100Y-153533900D02*
X120786100Y-153533900D01*
X97963400Y-107176700D02*
X106610700Y-115824000D01*
X140676000Y-152400000D02*
X139542100Y-153533900D01*
X73792600Y-141091400D02*
X73792600Y-142370800D01*
X86724900Y-155194000D02*
X103085800Y-155194000D01*
X160528000Y-110993000D02*
X159401100Y-110993000D01*
X63523800Y-87884000D02*
X62333200Y-86693400D01*
X159401100Y-110993000D02*
X156826000Y-108417900D01*
X136647000Y-99319000D02*
X135520100Y-99319000D01*
X97963400Y-106292600D02*
X97963400Y-107176700D01*
X155071100Y-187960000D02*
X145796000Y-187960000D01*
X93753700Y-127397100D02*
X94605600Y-126545200D01*
X94605600Y-109617100D02*
X79866900Y-109617100D01*
X154432000Y-39624000D02*
X161584000Y-39624000D01*
X206734400Y-49207400D02*
X206734400Y-46880200D01*
X123822700Y-93475900D02*
X123822700Y-97790000D01*
X105625800Y-157734000D02*
X110998000Y-157734000D01*
X58928000Y-87884000D02*
X57751100Y-87884000D01*
X122213700Y-105021700D02*
X123364000Y-106172000D01*
X148329600Y-156073300D02*
X167092000Y-156073300D01*
X167092000Y-152400000D02*
X167092000Y-156073300D01*
X197572000Y-165100000D02*
X217678000Y-165100000D01*
X82914900Y-128524000D02*
X79358900Y-132080000D01*
X206734400Y-46880200D02*
X196093500Y-46880200D01*
X172212000Y-187960000D02*
X171085100Y-187960000D01*
X122213700Y-99060000D02*
X122552700Y-99060000D01*
X124731700Y-92566900D02*
X123822700Y-93475900D01*
X196093500Y-46880200D02*
X195304400Y-47669300D01*
X210422900Y-106172000D02*
X206734400Y-102483500D01*
X146922900Y-157480000D02*
X148329600Y-156073300D01*
X53574000Y-78604100D02*
X52324000Y-77354100D01*
X199056000Y-106172000D02*
X196019300Y-109208700D01*
X124968000Y-92566900D02*
X124731700Y-92566900D01*
X90424000Y-87884000D02*
X83219200Y-87884000D01*
X217678000Y-165100000D02*
X219456000Y-166878000D01*
X54864000Y-87884000D02*
X57751100Y-87884000D01*
X68742800Y-142370800D02*
X67596000Y-141224000D01*
X172569100Y-105045100D02*
X173696000Y-106172000D01*
X73792600Y-144120600D02*
X74960000Y-145288000D01*
X195929900Y-165100000D02*
X197572000Y-165100000D01*
X74676000Y-87884000D02*
X63523800Y-87884000D01*
X156826000Y-108417900D02*
X141905900Y-108417900D01*
X124968000Y-91440000D02*
X124968000Y-92566900D01*
X103085800Y-155194000D02*
X105625800Y-157734000D01*
X122552700Y-99060000D02*
X123822700Y-97790000D01*
X169678400Y-156073300D02*
X171085100Y-157480000D01*
X60104900Y-87518200D02*
X60104900Y-87884000D01*
X123822700Y-97790000D02*
X133991100Y-97790000D01*
X80772000Y-150368000D02*
X81898900Y-150368000D01*
X196019300Y-109208700D02*
X186675500Y-109208700D01*
X93472000Y-128524000D02*
X93472000Y-127397100D01*
X93472000Y-127397100D02*
X93753700Y-127397100D01*
X169948300Y-186823200D02*
X156207900Y-186823200D01*
X160638900Y-105045100D02*
X172569100Y-105045100D01*
X108712000Y-115824000D02*
X107585100Y-115824000D01*
X52738000Y-138020000D02*
X64392000Y-138020000D01*
X124460000Y-137160000D02*
X124460000Y-136033100D01*
X106610700Y-115824000D02*
X107585100Y-115824000D01*
X195304400Y-47669300D02*
X195304400Y-50736100D01*
X64392000Y-138020000D02*
X67596000Y-141224000D01*
X52324000Y-77354100D02*
X52324000Y-73660000D01*
X62333200Y-86693400D02*
X60929700Y-86693400D01*
X204216000Y-111252000D02*
X205342900Y-111252000D01*
X139542100Y-153533900D02*
X129066100Y-153533900D01*
X110998000Y-157734000D02*
X113792000Y-160528000D01*
X81898900Y-150368000D02*
X86724900Y-155194000D01*
X219456000Y-172252000D02*
X219456000Y-166878000D01*
X187452000Y-172451000D02*
X188578900Y-172451000D01*
X194505900Y-51534600D02*
X173714400Y-51534600D01*
X195304400Y-50736100D02*
X194505900Y-51534600D01*
X172212000Y-157480000D02*
X171085100Y-157480000D01*
X93472000Y-128524000D02*
X82914900Y-128524000D01*
X186675500Y-109208700D02*
X184632200Y-111252000D01*
X60929700Y-86693400D02*
X60104900Y-87518200D01*
X184632200Y-111252000D02*
X176142900Y-111252000D01*
X73792600Y-142370800D02*
X73792600Y-144120600D01*
X123444000Y-132080000D02*
X123444000Y-135017100D01*
X53574000Y-79781000D02*
X53574000Y-78604100D01*
X141905900Y-108417900D02*
X139660000Y-106172000D01*
X167092000Y-156073300D02*
X169678400Y-156073300D01*
X229576000Y-182372000D02*
X219456000Y-172252000D01*
X108526600Y-98985500D02*
X108601100Y-99060000D01*
X210422900Y-106172000D02*
X224616000Y-106172000D01*
X171085100Y-187960000D02*
X169948300Y-186823200D01*
X173714400Y-49207400D02*
X173714400Y-51534600D01*
X53340000Y-86360000D02*
X54864000Y-87884000D01*
X98592000Y-105664000D02*
X97963400Y-106292600D01*
X161584000Y-39624000D02*
X163108000Y-41148000D01*
X78291500Y-92811700D02*
X76551900Y-92811700D01*
%TO.N,GND*%
X126271700Y-50634800D02*
X126697600Y-51060700D01*
X188954400Y-48043800D02*
X188954400Y-47518700D01*
X90639300Y-156830500D02*
X91470400Y-157661600D01*
X111120200Y-169672000D02*
X98552000Y-182240200D01*
X104838700Y-157661600D02*
X106181100Y-159004000D01*
X77216000Y-90424000D02*
X74676000Y-90424000D01*
X168696000Y-106172000D02*
X167567900Y-107300100D01*
X224576000Y-182501500D02*
X224576000Y-182372000D01*
X230896000Y-189728000D02*
X230896000Y-188601100D01*
X168108000Y-43814500D02*
X168108000Y-41148000D01*
X171174400Y-46880200D02*
X186301000Y-46880200D01*
X187452000Y-169911000D02*
X188578900Y-169911000D01*
X53340000Y-91440000D02*
X54666900Y-91440000D01*
X73354000Y-130048000D02*
X66854000Y-130048000D01*
X154512000Y-106172000D02*
X152927400Y-104587400D01*
X167218500Y-44704000D02*
X168108000Y-43814500D01*
X167396000Y-129032000D02*
X168522900Y-129032000D01*
X154432000Y-44704000D02*
X167218500Y-44704000D01*
X52738000Y-129989200D02*
X51705100Y-128956300D01*
X188954400Y-49207400D02*
X188954400Y-48043800D01*
X215408000Y-182372000D02*
X224576000Y-182372000D01*
X126697600Y-51060700D02*
X135518400Y-51060700D01*
X73152000Y-150368000D02*
X74278900Y-150368000D01*
X122890800Y-47053900D02*
X126271700Y-50434800D01*
X186301000Y-46880200D02*
X186414400Y-46993600D01*
X186414400Y-49207400D02*
X186414400Y-46993600D01*
X123830800Y-107298900D02*
X119490900Y-107298900D01*
X136244600Y-104587400D02*
X134660000Y-106172000D01*
X145396900Y-138015100D02*
X150863200Y-138015100D01*
X192929100Y-107298900D02*
X169822900Y-107298900D01*
X65380000Y-149352000D02*
X60960000Y-153772000D01*
X202692000Y-197851000D02*
X202692000Y-200391000D01*
X119157500Y-151209400D02*
X134485400Y-151209400D01*
X79960000Y-145288000D02*
X79358900Y-145288000D01*
X171174400Y-49207400D02*
X171174400Y-46993600D01*
X79358900Y-145288000D02*
X74278900Y-150368000D01*
X175016000Y-118872000D02*
X173889100Y-118872000D01*
X73152000Y-150368000D02*
X72025100Y-150368000D01*
X90424000Y-90424000D02*
X92964000Y-90424000D01*
X119490900Y-107298900D02*
X118364000Y-106172000D01*
X57160000Y-184912000D02*
X71628000Y-184912000D01*
X192757400Y-46880200D02*
X191494400Y-46880200D01*
X116840000Y-152400000D02*
X117966900Y-152400000D01*
X167396000Y-116332000D02*
X171349100Y-116332000D01*
X184801100Y-146304000D02*
X181356000Y-146304000D01*
X83860000Y-157988000D02*
X85017500Y-156830500D01*
X91470400Y-157661600D02*
X104838700Y-157661600D01*
X194034400Y-49207400D02*
X194034400Y-48157200D01*
X66854000Y-116042000D02*
X64984000Y-114172000D01*
X167640000Y-146304000D02*
X172212000Y-146304000D01*
X171174400Y-46993600D02*
X171174400Y-46881700D01*
X191494400Y-47518700D02*
X191494400Y-46880200D01*
X171174400Y-46881700D02*
X171174400Y-46880900D01*
X71230900Y-150368000D02*
X72025100Y-150368000D01*
X171349100Y-116332000D02*
X173889100Y-118872000D01*
X187452000Y-190231000D02*
X188578900Y-190231000D01*
X118364000Y-106172000D02*
X117532400Y-105340400D01*
X52738000Y-131220000D02*
X52738000Y-129989200D01*
X134660000Y-106172000D02*
X124957700Y-106172000D01*
X141812000Y-45720000D02*
X143006400Y-44525600D01*
X175016000Y-113792000D02*
X173889100Y-113792000D01*
X85017500Y-156830500D02*
X90639300Y-156830500D01*
X135588000Y-137791900D02*
X145173700Y-137791900D01*
X145173700Y-137791900D02*
X145396900Y-138015100D01*
X134485400Y-151209400D02*
X135676000Y-152400000D01*
X169822900Y-107298900D02*
X168696000Y-106172000D01*
X230896000Y-188601100D02*
X230675600Y-188601100D01*
X61468000Y-90424000D02*
X74676000Y-90424000D01*
X58928000Y-90424000D02*
X55682900Y-90424000D01*
X117532400Y-105340400D02*
X103915600Y-105340400D01*
X113792000Y-169672000D02*
X111120200Y-169672000D01*
X208675900Y-189104100D02*
X213884000Y-183896000D01*
X176784000Y-146304000D02*
X181356000Y-146304000D01*
X154253600Y-44525600D02*
X154432000Y-44704000D01*
X136647000Y-51059000D02*
X135520100Y-51059000D01*
X98552000Y-182240200D02*
X98552000Y-184404000D01*
X188976000Y-149352000D02*
X187849100Y-149352000D01*
X124957700Y-106172000D02*
X123830800Y-107298900D01*
X69088000Y-149352000D02*
X70214900Y-149352000D01*
X167567900Y-107300100D02*
X155640100Y-107300100D01*
X69088000Y-149352000D02*
X65380000Y-149352000D01*
X133320000Y-138933000D02*
X134446900Y-138933000D01*
X135518400Y-51060700D02*
X135520100Y-51059000D01*
X188578900Y-169093100D02*
X192572000Y-165100000D01*
X61468000Y-90424000D02*
X58928000Y-90424000D01*
X191494400Y-49207400D02*
X191494400Y-47518700D01*
X171062900Y-126492000D02*
X175016000Y-126492000D01*
X126271700Y-50434800D02*
X126271700Y-50634800D01*
X173889100Y-113792000D02*
X171349100Y-116332000D01*
X64984000Y-114172000D02*
X52832000Y-114172000D01*
X53096000Y-180848000D02*
X57160000Y-184912000D01*
X70214900Y-149352000D02*
X71230900Y-150368000D01*
X152927400Y-104587400D02*
X136244600Y-104587400D01*
X213884000Y-183896000D02*
X215408000Y-182372000D01*
X116181900Y-47053900D02*
X122890800Y-47053900D01*
X188578900Y-169911000D02*
X188578900Y-169093100D01*
X171174400Y-46880900D02*
X171174400Y-46880200D01*
X108712000Y-159004000D02*
X107585100Y-159004000D01*
X188578900Y-190231000D02*
X189705800Y-189104100D01*
X106181100Y-159004000D02*
X107585100Y-159004000D01*
X117966900Y-152400000D02*
X119157500Y-151209400D01*
X194034400Y-48157200D02*
X192757400Y-46880200D01*
X114848000Y-45720000D02*
X116181900Y-47053900D01*
X143006400Y-44525600D02*
X154253600Y-44525600D01*
X186414400Y-46993600D02*
X188429300Y-46993600D01*
X172212000Y-146304000D02*
X176784000Y-146304000D01*
X194056000Y-106172000D02*
X192929100Y-107298900D01*
X103915600Y-105340400D02*
X103592000Y-105664000D01*
X55682900Y-90424000D02*
X54666900Y-91440000D01*
X187849100Y-149352000D02*
X184801100Y-146304000D01*
X150863200Y-138015100D02*
X151781100Y-138933000D01*
X51705100Y-115298900D02*
X52832000Y-114172000D01*
X189705800Y-189104100D02*
X208675900Y-189104100D01*
X155640100Y-107300100D02*
X154512000Y-106172000D01*
X152908000Y-138933000D02*
X151781100Y-138933000D01*
X134446900Y-138933000D02*
X135588000Y-137791900D01*
X230675600Y-188601100D02*
X224576000Y-182501500D01*
X171174400Y-46880900D02*
X168108000Y-43814500D01*
X168522900Y-129032000D02*
X171062900Y-126492000D01*
X51705100Y-128956300D02*
X51705100Y-115298900D01*
X188429300Y-46993600D02*
X188954400Y-47518700D01*
X188954400Y-47518700D02*
X191494400Y-47518700D01*
%TO.N,NMI*%
X79570500Y-86521600D02*
X78392900Y-85344000D01*
X77804500Y-85344000D02*
X76623900Y-86524600D01*
X86885900Y-123444000D02*
X85812000Y-124517900D01*
X92964000Y-85344000D02*
X91787100Y-85344000D01*
X77216000Y-85344000D02*
X77804500Y-85344000D01*
X81845900Y-124517900D02*
X78232000Y-120904000D01*
X85812000Y-126492000D02*
X85812000Y-124517900D01*
X76623900Y-86524600D02*
X63825500Y-86524600D01*
X61468000Y-85344000D02*
X62644900Y-85344000D01*
X93472000Y-123444000D02*
X86885900Y-123444000D01*
X77804500Y-85344000D02*
X78392900Y-85344000D01*
X63825500Y-86524600D02*
X62644900Y-85344000D01*
X91787100Y-85711800D02*
X90977300Y-86521600D01*
X90977300Y-86521600D02*
X79570500Y-86521600D01*
X85812000Y-124517900D02*
X81845900Y-124517900D01*
X91787100Y-85344000D02*
X91787100Y-85711800D01*
%TO.N,Net-(U11-CV)*%
X88860000Y-157988000D02*
X87708800Y-159139200D01*
X83050100Y-159139200D02*
X81898900Y-157988000D01*
X87708800Y-159139200D02*
X83050100Y-159139200D01*
X80772000Y-157988000D02*
X81898900Y-157988000D01*
%TO.N,Net-(U11-THR)*%
X78501500Y-156591600D02*
X79645100Y-155448000D01*
X73152000Y-154034900D02*
X72918500Y-154034900D01*
X71997200Y-156591600D02*
X78501500Y-156591600D01*
X72918500Y-154034900D02*
X71997200Y-154956200D01*
X69088000Y-159500800D02*
X71997200Y-156591600D01*
X80772000Y-155448000D02*
X79645100Y-155448000D01*
X69088000Y-159512000D02*
X69088000Y-159500800D01*
X71997200Y-154956200D02*
X71997200Y-156591600D01*
X73152000Y-152908000D02*
X73152000Y-154034900D01*
%TO.N,Net-(U13-C1-)*%
X221772800Y-192644300D02*
X215028300Y-192644300D01*
X222149100Y-192268000D02*
X221772800Y-192644300D01*
X215028300Y-192644300D02*
X213900000Y-191516000D01*
X223276000Y-192268000D02*
X222149100Y-192268000D01*
%TO.N,Net-(U13-C2-)*%
X223276000Y-197348000D02*
X215688000Y-197348000D01*
X215688000Y-197348000D02*
X213900000Y-199136000D01*
%TO.N,Net-(U13-VS+)*%
X216317100Y-183896000D02*
X215884000Y-183896000D01*
X223276000Y-189728000D02*
X222149100Y-189728000D01*
X222149100Y-189728000D02*
X216317100Y-183896000D01*
%TO.N,Net-(U13-VS-)*%
X223276000Y-199888000D02*
X220768000Y-199888000D01*
X220768000Y-199888000D02*
X213900000Y-206756000D01*
%TO.N,AUDIO_OUT_LEFT*%
X51399900Y-180172300D02*
X51399900Y-181971900D01*
X55546000Y-178848000D02*
X52724200Y-178848000D01*
X51399900Y-181971900D02*
X63992000Y-194564000D01*
X52724200Y-178848000D02*
X51399900Y-180172300D01*
%TO.N,2pb0*%
X109728000Y-73660000D02*
X106332900Y-73660000D01*
X106332900Y-73660000D02*
X103792900Y-76200000D01*
X102616000Y-76200000D02*
X103792900Y-76200000D01*
%TO.N,2pb1*%
X109728000Y-76200000D02*
X108601100Y-76200000D01*
X106061100Y-78740000D02*
X102616000Y-78740000D01*
X108601100Y-76200000D02*
X106061100Y-78740000D01*
%TO.N,2pb2*%
X106061100Y-81280000D02*
X102616000Y-81280000D01*
X109728000Y-78740000D02*
X108601100Y-78740000D01*
X108601100Y-78740000D02*
X106061100Y-81280000D01*
%TO.N,2pb3*%
X106548700Y-83332400D02*
X104280500Y-83332400D01*
X104280500Y-83332400D02*
X103792900Y-83820000D01*
X109728000Y-81280000D02*
X108601100Y-81280000D01*
X108601100Y-81280000D02*
X106548700Y-83332400D01*
X102616000Y-83820000D02*
X103792900Y-83820000D01*
%TO.N,2pb4*%
X108601100Y-83820000D02*
X106332900Y-83820000D01*
X109728000Y-83820000D02*
X108601100Y-83820000D01*
X106332900Y-83820000D02*
X103792900Y-86360000D01*
X102616000Y-86360000D02*
X103792900Y-86360000D01*
%TO.N,2pb5*%
X106061100Y-88900000D02*
X103792900Y-88900000D01*
X102616000Y-88900000D02*
X103792900Y-88900000D01*
X108601100Y-86360000D02*
X106061100Y-88900000D01*
X109728000Y-86360000D02*
X108601100Y-86360000D01*
%TO.N,2pb6*%
X109728000Y-88900000D02*
X108601100Y-88900000D01*
X103792900Y-91440000D02*
X106061100Y-91440000D01*
X102616000Y-91440000D02*
X103792900Y-91440000D01*
X106061100Y-91440000D02*
X108601100Y-88900000D01*
%TO.N,2pb7*%
X103903000Y-93869800D02*
X103903000Y-93869900D01*
X106171300Y-93869800D02*
X103903000Y-93869800D01*
X108601100Y-91440000D02*
X106171300Y-93869800D01*
X102616000Y-93980000D02*
X103792900Y-93980000D01*
X103903000Y-93869900D02*
X103792900Y-93980000D01*
X109728000Y-91440000D02*
X108601100Y-91440000D01*
%TO.N,a0*%
X219456000Y-143402000D02*
X210777500Y-143402000D01*
X64087400Y-124326400D02*
X64087400Y-123754400D01*
X160902700Y-56139000D02*
X168459000Y-63695300D01*
X204566700Y-140318900D02*
X191229800Y-140318900D01*
X89247100Y-42164000D02*
X88033800Y-43377300D01*
X89421800Y-133210800D02*
X77691700Y-133210800D01*
X90424000Y-42164000D02*
X91600900Y-42164000D01*
X151887000Y-56139000D02*
X160902700Y-56139000D01*
X93472000Y-131064000D02*
X91568600Y-131064000D01*
X110332600Y-43342400D02*
X122870200Y-55880000D01*
X91600900Y-42164000D02*
X91600900Y-42531900D01*
X75424400Y-129536400D02*
X73960300Y-128072300D01*
X149622600Y-55001500D02*
X150760100Y-56139000D01*
X205391100Y-141143300D02*
X204566700Y-140318900D01*
X124968000Y-55880000D02*
X126094900Y-55880000D01*
X151323600Y-56139000D02*
X151887000Y-56139000D01*
X208518800Y-141143300D02*
X205391100Y-141143300D01*
X90424000Y-42164000D02*
X89247100Y-42164000D01*
X65311800Y-125550700D02*
X64087500Y-124326400D01*
X92411400Y-43342400D02*
X110332600Y-43342400D01*
X126973400Y-55001500D02*
X149622600Y-55001500D01*
X67444500Y-128072300D02*
X65311800Y-125939600D01*
X188976000Y-139192000D02*
X190102900Y-139192000D01*
X122870200Y-55880000D02*
X124968000Y-55880000D01*
X75424400Y-130943500D02*
X75424400Y-129536400D01*
X151323600Y-56139000D02*
X150760100Y-56139000D01*
X73960300Y-128072300D02*
X67444500Y-128072300D01*
X64087500Y-124326400D02*
X64087400Y-124326400D01*
X65311800Y-125939600D02*
X65311800Y-125550700D01*
X76751500Y-43377300D02*
X75852900Y-42478700D01*
X210777500Y-143402000D02*
X208518800Y-141143300D01*
X91600900Y-42531900D02*
X92411400Y-43342400D01*
X74676000Y-42164000D02*
X75852900Y-42164000D01*
X126094900Y-55880000D02*
X126973400Y-55001500D01*
X64087400Y-123754400D02*
X64085800Y-123752800D01*
X77691700Y-133210800D02*
X75424400Y-130943500D01*
X75852900Y-42478700D02*
X75852900Y-42164000D01*
X191229800Y-140318900D02*
X190102900Y-139192000D01*
X91568600Y-131064000D02*
X89421800Y-133210800D01*
X88033800Y-43377300D02*
X76751500Y-43377300D01*
%TO.N,d0*%
X149616500Y-67695400D02*
X150760100Y-68839000D01*
X77216000Y-42164000D02*
X78392900Y-42164000D01*
X132765500Y-124892900D02*
X129586300Y-128072100D01*
X126979500Y-67695400D02*
X149616500Y-67695400D01*
X126094900Y-68580000D02*
X126979500Y-67695400D01*
X188976000Y-141732000D02*
X190102900Y-141732000D01*
X92964000Y-42164000D02*
X91787100Y-40987100D01*
X129586300Y-128072100D02*
X110290800Y-128072100D01*
X148113500Y-166290600D02*
X146922900Y-165100000D01*
X108712000Y-128524000D02*
X109838900Y-128524000D01*
X171085100Y-165100000D02*
X169894500Y-166290600D01*
X145796000Y-165100000D02*
X146922900Y-165100000D01*
X151887000Y-68839000D02*
X150760100Y-68839000D01*
X208422100Y-145942000D02*
X205396000Y-142915900D01*
X169894500Y-166290600D02*
X148113500Y-166290600D01*
X219456000Y-145942000D02*
X208422100Y-145942000D01*
X110290800Y-128072100D02*
X109838900Y-128524000D01*
X191286800Y-142915900D02*
X190102900Y-141732000D01*
X205396000Y-142915900D02*
X191286800Y-142915900D01*
X172212000Y-165100000D02*
X171085100Y-165100000D01*
X79569800Y-40987100D02*
X78392900Y-42164000D01*
X124968000Y-68580000D02*
X126094900Y-68580000D01*
X136144600Y-124892900D02*
X132765500Y-124892900D01*
X91787100Y-40987100D02*
X79569800Y-40987100D01*
%TO.N,a1*%
X74813200Y-129564300D02*
X74813200Y-131006800D01*
X208282700Y-140080500D02*
X206124200Y-137922000D01*
X77498800Y-133692400D02*
X92256700Y-133692400D01*
X217347600Y-140080500D02*
X208282700Y-140080500D01*
X92256700Y-133692400D02*
X92345100Y-133604000D01*
X90424000Y-44704000D02*
X91600900Y-44704000D01*
X160796300Y-58679000D02*
X169215800Y-67098500D01*
X124968000Y-58420000D02*
X126094900Y-58420000D01*
X120763300Y-58420000D02*
X124968000Y-58420000D01*
X126993300Y-57521600D02*
X149602700Y-57521600D01*
X72320200Y-45882900D02*
X60918000Y-45882900D01*
X74813200Y-131006800D02*
X77498800Y-133692400D01*
X73499100Y-44704000D02*
X72320200Y-45882900D01*
X91600900Y-44704000D02*
X91600900Y-45069800D01*
X67416300Y-128683200D02*
X73932100Y-128683200D01*
X218129100Y-140862000D02*
X217347600Y-140080500D01*
X60104900Y-45069800D02*
X60104900Y-44704000D01*
X73932100Y-128683200D02*
X74813200Y-129564300D01*
X219456000Y-140862000D02*
X218129100Y-140862000D01*
X93472000Y-133604000D02*
X92345100Y-133604000D01*
X74676000Y-44704000D02*
X73499100Y-44704000D01*
X149602700Y-57521600D02*
X150760100Y-58679000D01*
X64584900Y-125851800D02*
X67416300Y-128683200D01*
X191372900Y-137922000D02*
X190102900Y-136652000D01*
X58928000Y-44704000D02*
X60104900Y-44704000D01*
X60918000Y-45882900D02*
X60104900Y-45069800D01*
X188976000Y-136652000D02*
X190102900Y-136652000D01*
X92512700Y-45981600D02*
X108324900Y-45981600D01*
X206124200Y-137922000D02*
X191372900Y-137922000D01*
X151887000Y-58679000D02*
X150760100Y-58679000D01*
X126094900Y-58420000D02*
X126993300Y-57521600D01*
X108324900Y-45981600D02*
X120763300Y-58420000D01*
X91600900Y-45069800D02*
X92512700Y-45981600D01*
X151887000Y-58679000D02*
X160796300Y-58679000D01*
%TO.N,d1*%
X145796000Y-167640000D02*
X146922900Y-167640000D01*
X171085100Y-167640000D02*
X169927700Y-168797400D01*
X191372900Y-145542000D02*
X190102900Y-144272000D01*
X109158600Y-44704000D02*
X92964000Y-44704000D01*
X118310200Y-53855600D02*
X109158600Y-44704000D01*
X62644900Y-44704000D02*
X63822500Y-43526400D01*
X77216000Y-44704000D02*
X76039100Y-44704000D01*
X76039100Y-44338200D02*
X76039100Y-44704000D01*
X63822500Y-43526400D02*
X75227300Y-43526400D01*
X126975100Y-70239800D02*
X126094900Y-71120000D01*
X149620900Y-70239800D02*
X126975100Y-70239800D01*
X148080300Y-168797400D02*
X146922900Y-167640000D01*
X124968000Y-71120000D02*
X126094900Y-71120000D01*
X108712000Y-131064000D02*
X109838900Y-131064000D01*
X110037300Y-130865600D02*
X120742900Y-130865600D01*
X219456000Y-148482000D02*
X208828400Y-148482000D01*
X150760100Y-71379000D02*
X149620900Y-70239800D01*
X188976000Y-144272000D02*
X190102900Y-144272000D01*
X172212000Y-167640000D02*
X171085100Y-167640000D01*
X61468000Y-44704000D02*
X62644900Y-44704000D01*
X151887000Y-71379000D02*
X150760100Y-71379000D01*
X109838900Y-131064000D02*
X110037300Y-130865600D01*
X208828400Y-148482000D02*
X205888400Y-145542000D01*
X205888400Y-145542000D02*
X191372900Y-145542000D01*
X75227300Y-43526400D02*
X76039100Y-44338200D01*
X169927700Y-168797400D02*
X148080300Y-168797400D01*
%TO.N,a2*%
X218129100Y-138322000D02*
X208297000Y-138322000D01*
X90753300Y-96019300D02*
X90886300Y-96019300D01*
X219456000Y-138322000D02*
X218129100Y-138322000D01*
X205429400Y-135454400D02*
X191527800Y-135454400D01*
X126978300Y-60076600D02*
X149032100Y-60076600D01*
X124968000Y-60960000D02*
X126094900Y-60960000D01*
X149032100Y-60076600D02*
X150174500Y-61219000D01*
X172804000Y-72913100D02*
X174541200Y-72913100D01*
X60929700Y-48434600D02*
X60104900Y-47609800D01*
X110549900Y-48982400D02*
X122527500Y-60960000D01*
X188976000Y-134112000D02*
X190102900Y-134112000D01*
X191527800Y-135454400D02*
X190185400Y-134112000D01*
X161109900Y-61219000D02*
X172804000Y-72913100D01*
X60104900Y-47609800D02*
X60104900Y-47244000D01*
X151887000Y-61219000D02*
X161109900Y-61219000D01*
X151323600Y-61219000D02*
X151887000Y-61219000D01*
X88274300Y-93540300D02*
X90753300Y-96019300D01*
X94937700Y-48982400D02*
X110549900Y-48982400D01*
X208297000Y-138322000D02*
X205429400Y-135454400D01*
X150174500Y-61219000D02*
X150760100Y-61219000D01*
X126094900Y-60960000D02*
X126978300Y-60076600D01*
X72308500Y-48434600D02*
X60929700Y-48434600D01*
X190185400Y-134112000D02*
X190102900Y-134112000D01*
X151323600Y-61219000D02*
X150760100Y-61219000D01*
X58928000Y-47244000D02*
X60104900Y-47244000D01*
X122527500Y-60960000D02*
X124968000Y-60960000D01*
X73499100Y-47244000D02*
X72308500Y-48434600D01*
X74676000Y-47244000D02*
X73499100Y-47244000D01*
%TO.N,d2*%
X219456000Y-151022000D02*
X207894100Y-151022000D01*
X124789700Y-72704200D02*
X124860900Y-72775400D01*
X114562200Y-64176400D02*
X114562200Y-64862800D01*
X91787100Y-47244000D02*
X91787100Y-46878200D01*
X149618000Y-72776900D02*
X150760100Y-73919000D01*
X75214300Y-46053400D02*
X76039100Y-46878200D01*
X171085100Y-170180000D02*
X169957200Y-171307900D01*
X77216000Y-47244000D02*
X76039100Y-47244000D01*
X92964000Y-47244000D02*
X92964000Y-48420900D01*
X90962300Y-46053400D02*
X79583500Y-46053400D01*
X124968000Y-73660000D02*
X126094900Y-73660000D01*
X114562200Y-64862800D02*
X122403600Y-72704200D01*
X102164800Y-58435000D02*
X104426000Y-58435000D01*
X188976000Y-146812000D02*
X190102900Y-146812000D01*
X155610600Y-171307900D02*
X154482700Y-170180000D01*
X79583500Y-46053400D02*
X78392900Y-47244000D01*
X104426000Y-58435000D02*
X105681000Y-59690000D01*
X207894100Y-151022000D02*
X206778900Y-149906800D01*
X122403600Y-72704200D02*
X124789700Y-72704200D01*
X93329800Y-48420900D02*
X94276000Y-49367100D01*
X124303600Y-168429900D02*
X112480000Y-168429900D01*
X110075800Y-59690000D02*
X114562200Y-64176400D01*
X72950600Y-46053400D02*
X75214300Y-46053400D01*
X124926800Y-169053100D02*
X124303600Y-168429900D01*
X124998700Y-72775400D02*
X125000200Y-72776900D01*
X126094900Y-73660000D02*
X126094900Y-72776900D01*
X92964000Y-48420900D02*
X93329800Y-48420900D01*
X169957200Y-171307900D02*
X155610600Y-171307900D01*
X76039100Y-46878200D02*
X76039100Y-47244000D01*
X143542200Y-169053100D02*
X124926800Y-169053100D01*
X144669100Y-170180000D02*
X143542200Y-169053100D01*
X204954100Y-148082000D02*
X191372900Y-148082000D01*
X91787100Y-46878200D02*
X90962300Y-46053400D01*
X94276000Y-49367100D02*
X94276000Y-50546200D01*
X92964000Y-47244000D02*
X91787100Y-47244000D01*
X172212000Y-170180000D02*
X171085100Y-170180000D01*
X124860900Y-72775400D02*
X124998700Y-72775400D01*
X94276000Y-50546200D02*
X102164800Y-58435000D01*
X206778900Y-149906800D02*
X204954100Y-148082000D01*
X71760000Y-47244000D02*
X72950600Y-46053400D01*
X145796000Y-170180000D02*
X144669100Y-170180000D01*
X105681000Y-59690000D02*
X110075800Y-59690000D01*
X126094900Y-72776900D02*
X149618000Y-72776900D01*
X61468000Y-47244000D02*
X71760000Y-47244000D01*
X125000200Y-72776900D02*
X126094900Y-72776900D01*
X151887000Y-73919000D02*
X150760100Y-73919000D01*
X77216000Y-47244000D02*
X78392900Y-47244000D01*
X154482700Y-170180000D02*
X145796000Y-170180000D01*
X191372900Y-148082000D02*
X190102900Y-146812000D01*
%TO.N,a3*%
X77925600Y-50974600D02*
X76677700Y-50974600D01*
X59706100Y-135061600D02*
X56937600Y-132293100D01*
X51783200Y-134460700D02*
X51254700Y-133932200D01*
X151323600Y-63759000D02*
X151887000Y-63759000D01*
X54565400Y-60492600D02*
X57563400Y-57494600D01*
X79116200Y-49784000D02*
X77925600Y-50974600D01*
X51254700Y-129145000D02*
X48886000Y-126776300D01*
X92345100Y-138684000D02*
X88722700Y-135061600D01*
X57563400Y-51959700D02*
X58562200Y-50960900D01*
X55838400Y-132293100D02*
X53670800Y-134460700D01*
X57563400Y-57494600D02*
X57563400Y-51959700D01*
X48886000Y-126776300D02*
X48886000Y-72698200D01*
X51254700Y-133932200D02*
X51254700Y-129145000D01*
X76677700Y-50974600D02*
X75852900Y-50149800D01*
X124968000Y-63500000D02*
X123180400Y-63500000D01*
X205738900Y-132698900D02*
X208822000Y-135782000D01*
X208822000Y-135782000D02*
X219456000Y-135782000D01*
X125531500Y-63500000D02*
X126094900Y-63500000D01*
X58562200Y-50960900D02*
X58928000Y-50960900D01*
X74676000Y-49784000D02*
X75852900Y-49784000D01*
X114212800Y-54532400D02*
X107890400Y-54532400D01*
X75852900Y-50149800D02*
X75852900Y-49784000D01*
X190102900Y-131572000D02*
X191229800Y-132698900D01*
X188976000Y-131572000D02*
X190102900Y-131572000D01*
X125531500Y-63500000D02*
X124968000Y-63500000D01*
X106727000Y-53369000D02*
X100386900Y-53369000D01*
X56937600Y-132293100D02*
X55838400Y-132293100D01*
X54565400Y-67018800D02*
X54565400Y-60492600D01*
X107890400Y-54532400D02*
X106727000Y-53369000D01*
X126970500Y-62624400D02*
X149625500Y-62624400D01*
X90424000Y-49784000D02*
X79116200Y-49784000D01*
X151323600Y-63759000D02*
X150760100Y-63759000D01*
X93472000Y-138684000D02*
X92345100Y-138684000D01*
X53670800Y-134460700D02*
X51783200Y-134460700D01*
X126094900Y-63500000D02*
X126970500Y-62624400D01*
X191229800Y-132698900D02*
X205738900Y-132698900D01*
X149625500Y-62624400D02*
X150760100Y-63759000D01*
X58928000Y-49784000D02*
X58928000Y-50960900D01*
X123180400Y-63500000D02*
X114212800Y-54532400D01*
X48886000Y-72698200D02*
X54565400Y-67018800D01*
X88722700Y-135061600D02*
X59706100Y-135061600D01*
%TO.N,d3*%
X79583500Y-48593400D02*
X90962300Y-48593400D01*
X92964000Y-49784000D02*
X92964000Y-50960900D01*
X124968000Y-76200000D02*
X126094900Y-76200000D01*
X124404600Y-76200000D02*
X124968000Y-76200000D01*
X124404600Y-76200000D02*
X123841100Y-76200000D01*
X172212000Y-172720000D02*
X173338900Y-172720000D01*
X204216000Y-149352000D02*
X205342900Y-149352000D01*
X203054600Y-176261000D02*
X176879900Y-176261000D01*
X109838900Y-136144000D02*
X110018200Y-135964700D01*
X155087500Y-184150000D02*
X173974200Y-184150000D01*
X91787100Y-49418200D02*
X91787100Y-49784000D01*
X188098600Y-188844600D02*
X189252200Y-187691000D01*
X92964000Y-49784000D02*
X91787100Y-49784000D01*
X92964000Y-50960900D02*
X93329800Y-50960900D01*
X108712000Y-136144000D02*
X109838900Y-136144000D01*
X234696000Y-153562000D02*
X234696000Y-152515100D01*
X102168500Y-60977800D02*
X104428800Y-60977800D01*
X173974200Y-184150000D02*
X178668800Y-188844600D01*
X126094900Y-76200000D02*
X126965100Y-75329800D01*
X208337300Y-152515100D02*
X234696000Y-152515100D01*
X97879800Y-55510900D02*
X97879800Y-56689100D01*
X202692000Y-187691000D02*
X204806500Y-185576500D01*
X204806500Y-178012900D02*
X203054600Y-176261000D01*
X205342900Y-149520700D02*
X208337300Y-152515100D01*
X205342900Y-149352000D02*
X205342900Y-149520700D01*
X178668800Y-188844600D02*
X188098600Y-188844600D01*
X110152800Y-62230000D02*
X123841100Y-75918300D01*
X204806500Y-185576500D02*
X204806500Y-178012900D01*
X105681000Y-62230000D02*
X110152800Y-62230000D01*
X90962300Y-48593400D02*
X91787100Y-49418200D01*
X119517400Y-137738800D02*
X119517400Y-139156600D01*
X78392900Y-49784000D02*
X79583500Y-48593400D01*
X176879900Y-176261000D02*
X173338900Y-172720000D01*
X117743300Y-135964700D02*
X119517400Y-137738800D01*
X154550100Y-183612600D02*
X155087500Y-184150000D01*
X93329800Y-50960900D02*
X97879800Y-55510900D01*
X77216000Y-49784000D02*
X78392900Y-49784000D01*
X151887000Y-76459000D02*
X150760100Y-76459000D01*
X104428800Y-60977800D02*
X105681000Y-62230000D01*
X126965100Y-75329800D02*
X149630900Y-75329800D01*
X123841100Y-75918300D02*
X123841100Y-76200000D01*
X149630900Y-75329800D02*
X150760100Y-76459000D01*
X97879800Y-56689100D02*
X102168500Y-60977800D01*
X110018200Y-135964700D02*
X117743300Y-135964700D01*
X189252200Y-187691000D02*
X202692000Y-187691000D01*
%TO.N,a4*%
X78621900Y-53514600D02*
X76677700Y-53514600D01*
X79812500Y-52324000D02*
X78621900Y-53514600D01*
X102636000Y-106991800D02*
X102433400Y-106789200D01*
X60927700Y-51133400D02*
X72308500Y-51133400D01*
X72308500Y-51133400D02*
X73499100Y-52324000D01*
X60104900Y-52324000D02*
X60104900Y-51956200D01*
X58928000Y-52324000D02*
X60104900Y-52324000D01*
X90424000Y-52324000D02*
X79812500Y-52324000D01*
X102433400Y-106789200D02*
X102433400Y-103902000D01*
X125268300Y-108127900D02*
X125159700Y-108236500D01*
X102433400Y-103902000D02*
X106622300Y-99713100D01*
X205529800Y-130261900D02*
X191332800Y-130261900D01*
X219456000Y-133242000D02*
X218129100Y-133242000D01*
X102433400Y-106789200D02*
X101567400Y-106789200D01*
X76677700Y-53514600D02*
X75852900Y-52689800D01*
X191332800Y-130261900D02*
X190102900Y-129032000D01*
X74087600Y-52324000D02*
X74461800Y-52324000D01*
X160528000Y-113533000D02*
X161654900Y-113533000D01*
X74087600Y-52324000D02*
X73499100Y-52324000D01*
X74676000Y-52324000D02*
X74461800Y-52324000D01*
X126881000Y-108871300D02*
X126137600Y-108127900D01*
X218129100Y-133242000D02*
X208509900Y-133242000D01*
X75852900Y-52689800D02*
X75852900Y-52324000D01*
X126137600Y-108127900D02*
X125268300Y-108127900D01*
X101567400Y-106789200D02*
X100085600Y-108271000D01*
X189539500Y-129032000D02*
X190102900Y-129032000D01*
X160528000Y-113533000D02*
X159401100Y-113533000D01*
X110487400Y-106991800D02*
X102636000Y-106991800D01*
X111732100Y-108236500D02*
X110487400Y-106991800D01*
X154739400Y-108871300D02*
X126881000Y-108871300D01*
X161654900Y-113533000D02*
X165847600Y-109340300D01*
X74676000Y-52324000D02*
X75852900Y-52324000D01*
X60104900Y-51956200D02*
X60927700Y-51133400D01*
X159401100Y-113533000D02*
X154739400Y-108871300D01*
X208509900Y-133242000D02*
X205529800Y-130261900D01*
X165847600Y-109340300D02*
X183833300Y-109340300D01*
X189539500Y-129032000D02*
X188976000Y-129032000D01*
X125159700Y-108236500D02*
X111732100Y-108236500D01*
%TO.N,d4*%
X92964000Y-52324000D02*
X91787100Y-52324000D01*
X181632500Y-181502700D02*
X184010800Y-183881000D01*
X125531500Y-78740000D02*
X126094900Y-78740000D01*
X123841100Y-78458300D02*
X123841100Y-78740000D01*
X108712000Y-138684000D02*
X109838900Y-138684000D01*
X102202500Y-63516300D02*
X104427300Y-63516300D01*
X200295100Y-183881000D02*
X201565100Y-185151000D01*
X120151500Y-143008500D02*
X118113000Y-140970000D01*
X126979500Y-77855400D02*
X149616500Y-77855400D01*
X92964000Y-53500900D02*
X93329800Y-53500900D01*
X94140900Y-55454700D02*
X102202500Y-63516300D01*
X151887000Y-78999000D02*
X150760100Y-78999000D01*
X234696000Y-149975100D02*
X208506000Y-149975100D01*
X78392900Y-52324000D02*
X79583500Y-51133400D01*
X94140900Y-54312000D02*
X94140900Y-55454700D01*
X204216000Y-146812000D02*
X205342900Y-146812000D01*
X92964000Y-52324000D02*
X92964000Y-53500900D01*
X126094900Y-78740000D02*
X126979500Y-77855400D01*
X105681000Y-64770000D02*
X110152800Y-64770000D01*
X208506000Y-149975100D02*
X205342900Y-146812000D01*
X145796000Y-175260000D02*
X146922900Y-175260000D01*
X77216000Y-52324000D02*
X78392900Y-52324000D01*
X90962300Y-51133400D02*
X91787100Y-51958200D01*
X91787100Y-51958200D02*
X91787100Y-52324000D01*
X149616500Y-77855400D02*
X150760100Y-78999000D01*
X124968000Y-78740000D02*
X123841100Y-78740000D01*
X104427300Y-63516300D02*
X105681000Y-64770000D01*
X171085100Y-175260000D02*
X169956300Y-174131200D01*
X110152800Y-64770000D02*
X123841100Y-78458300D01*
X112124900Y-140970000D02*
X109838900Y-138684000D01*
X125531500Y-78740000D02*
X124968000Y-78740000D01*
X172212000Y-175260000D02*
X171085100Y-175260000D01*
X234696000Y-151022000D02*
X234696000Y-149975100D01*
X93329800Y-53500900D02*
X94140900Y-54312000D01*
X118113000Y-140970000D02*
X112124900Y-140970000D01*
X184010800Y-183881000D02*
X200295100Y-183881000D01*
X202692000Y-185151000D02*
X201565100Y-185151000D01*
X169956300Y-174131200D02*
X148051700Y-174131200D01*
X79583500Y-51133400D02*
X90962300Y-51133400D01*
X148051700Y-174131200D02*
X146922900Y-175260000D01*
%TO.N,a5*%
X60927700Y-53673400D02*
X72308500Y-53673400D01*
X190183300Y-126411600D02*
X190102900Y-126492000D01*
X146118300Y-109866100D02*
X127335900Y-109866100D01*
X188976000Y-126492000D02*
X190102900Y-126492000D01*
X79812500Y-54864000D02*
X78621900Y-56054600D01*
X113662800Y-112473900D02*
X108939000Y-117197700D01*
X74676000Y-54864000D02*
X75852900Y-54864000D01*
X74676000Y-54864000D02*
X74461800Y-54864000D01*
X205359700Y-127639600D02*
X203733600Y-127639600D01*
X208422100Y-130702000D02*
X205359700Y-127639600D01*
X188976000Y-126492000D02*
X187849100Y-126492000D01*
X60104900Y-54864000D02*
X60104900Y-54496200D01*
X127122300Y-110079700D02*
X125344200Y-110079700D01*
X203089100Y-126995100D02*
X203089100Y-126922000D01*
X182990800Y-126492000D02*
X187849100Y-126492000D01*
X125344200Y-110079700D02*
X125130600Y-109866100D01*
X74087600Y-54864000D02*
X74461800Y-54864000D01*
X160528000Y-116073000D02*
X154996100Y-116073000D01*
X75852900Y-55229800D02*
X75852900Y-54864000D01*
X154996100Y-116073000D02*
X153726100Y-114803000D01*
X74087600Y-54864000D02*
X73499100Y-54864000D01*
X113662800Y-112066700D02*
X113662800Y-112473900D01*
X58928000Y-54864000D02*
X60104900Y-54864000D01*
X60104900Y-54496200D02*
X60927700Y-53673400D01*
X202578700Y-126411600D02*
X190183300Y-126411600D01*
X175742500Y-132919300D02*
X176563500Y-132919300D01*
X115863400Y-109866100D02*
X113662800Y-112066700D01*
X90424000Y-54864000D02*
X79812500Y-54864000D01*
X203089100Y-126922000D02*
X202578700Y-126411600D01*
X203733600Y-127639600D02*
X203089100Y-126995100D01*
X176563500Y-132919300D02*
X182990800Y-126492000D01*
X76677700Y-56054600D02*
X75852900Y-55229800D01*
X104658400Y-117197700D02*
X104179800Y-117676300D01*
X108939000Y-117197700D02*
X104658400Y-117197700D01*
X153726100Y-114803000D02*
X151055200Y-114803000D01*
X78621900Y-56054600D02*
X76677700Y-56054600D01*
X72308500Y-53673400D02*
X73499100Y-54864000D01*
X125130600Y-109866100D02*
X115863400Y-109866100D01*
X219456000Y-130702000D02*
X208422100Y-130702000D01*
X127335900Y-109866100D02*
X127122300Y-110079700D01*
X151055200Y-114803000D02*
X146118300Y-109866100D01*
%TO.N,d5*%
X97879800Y-61769100D02*
X97879800Y-60590900D01*
X148112000Y-176610900D02*
X169896000Y-176610900D01*
X125531500Y-81280000D02*
X126094900Y-81280000D01*
X202692000Y-181484100D02*
X202973700Y-181484100D01*
X203839200Y-179603700D02*
X202934500Y-178699000D01*
X92964000Y-54864000D02*
X91787100Y-54864000D01*
X172212000Y-177800000D02*
X171085100Y-177800000D01*
X108478500Y-140097100D02*
X107536800Y-139155400D01*
X202692000Y-182611000D02*
X202692000Y-181484100D01*
X114913000Y-137514400D02*
X115714600Y-138316000D01*
X115714600Y-138316000D02*
X117429000Y-138316000D01*
X109286400Y-67362200D02*
X108798800Y-66874600D01*
X123841100Y-81280000D02*
X123841100Y-80998300D01*
X108712000Y-140097100D02*
X108478500Y-140097100D01*
X234696000Y-148482000D02*
X234696000Y-147435100D01*
X151887000Y-81539000D02*
X150760100Y-81539000D01*
X126094900Y-81280000D02*
X126979500Y-80395400D01*
X205342900Y-144272000D02*
X208506000Y-147435100D01*
X78392900Y-54864000D02*
X79583500Y-53673400D01*
X208506000Y-147435100D02*
X234696000Y-147435100D01*
X203839200Y-180618600D02*
X203839200Y-179603700D01*
X125531500Y-81280000D02*
X124968000Y-81280000D01*
X126979500Y-80395400D02*
X149616500Y-80395400D01*
X204216000Y-144272000D02*
X205342900Y-144272000D01*
X107536800Y-139155400D02*
X107536800Y-138232600D01*
X172212000Y-177800000D02*
X173338900Y-177800000D01*
X202973700Y-181484100D02*
X203839200Y-180618600D01*
X104425800Y-66054800D02*
X102165500Y-66054800D01*
X105245600Y-66874600D02*
X104425800Y-66054800D01*
X169896000Y-176610900D02*
X171085100Y-177800000D01*
X79583500Y-53673400D02*
X90962300Y-53673400D01*
X90962300Y-53673400D02*
X91787100Y-54498200D01*
X110205000Y-67362200D02*
X109286400Y-67362200D01*
X124968000Y-81280000D02*
X123841100Y-81280000D01*
X108712000Y-141224000D02*
X108712000Y-140097100D01*
X145796000Y-177800000D02*
X146922900Y-177800000D01*
X91787100Y-54498200D02*
X91787100Y-54864000D01*
X77216000Y-54864000D02*
X78392900Y-54864000D01*
X149616500Y-80395400D02*
X150760100Y-81539000D01*
X123841100Y-80998300D02*
X110205000Y-67362200D01*
X92964000Y-54864000D02*
X92964000Y-56040900D01*
X102165500Y-66054800D02*
X97879800Y-61769100D01*
X117429000Y-138316000D02*
X119522600Y-140409600D01*
X202934500Y-178699000D02*
X174237900Y-178699000D01*
X107536800Y-138232600D02*
X108255000Y-137514400D01*
X97879800Y-60590900D02*
X93329800Y-56040900D01*
X93329800Y-56040900D02*
X92964000Y-56040900D01*
X108255000Y-137514400D02*
X114913000Y-137514400D01*
X174237900Y-178699000D02*
X173338900Y-177800000D01*
X146922900Y-177800000D02*
X148112000Y-176610900D01*
X108798800Y-66874600D02*
X105245600Y-66874600D01*
%TO.N,a6*%
X191492000Y-125341100D02*
X190102900Y-123952000D01*
X126935100Y-109627800D02*
X125581600Y-109627800D01*
X103700800Y-109331200D02*
X103700800Y-109331100D01*
X74087600Y-57404000D02*
X73499100Y-57404000D01*
X74676000Y-57404000D02*
X75852900Y-57404000D01*
X89145200Y-96111600D02*
X90469600Y-97436000D01*
X127171700Y-109391200D02*
X126935100Y-109627800D01*
X74087600Y-57404000D02*
X74461800Y-57404000D01*
X161654900Y-118613000D02*
X161654900Y-117870700D01*
X166460600Y-110125100D02*
X161925800Y-114659900D01*
X125285000Y-109331200D02*
X103700800Y-109331200D01*
X168550800Y-112198100D02*
X168820700Y-112468000D01*
X161654900Y-117870700D02*
X167003600Y-112522000D01*
X158763800Y-114659900D02*
X153495100Y-109391200D01*
X60927700Y-56213400D02*
X72308500Y-56213400D01*
X167003600Y-112522000D02*
X168226900Y-112522000D01*
X205601200Y-125341100D02*
X191492000Y-125341100D01*
X160528000Y-118613000D02*
X161654900Y-118613000D01*
X90469600Y-97436000D02*
X101297100Y-97436000D01*
X74676000Y-57404000D02*
X74461800Y-57404000D01*
X60104900Y-57404000D02*
X60104900Y-57036200D01*
X219456000Y-128162000D02*
X208422100Y-128162000D01*
X161925800Y-114659900D02*
X158763800Y-114659900D01*
X88056500Y-58594600D02*
X76677700Y-58594600D01*
X72308500Y-56213400D02*
X73499100Y-57404000D01*
X75852900Y-57769800D02*
X75852900Y-57404000D01*
X208422100Y-128162000D02*
X205601200Y-125341100D01*
X89247100Y-57404000D02*
X88056500Y-58594600D01*
X188976000Y-123952000D02*
X190102900Y-123952000D01*
X168356100Y-110125100D02*
X166460600Y-110125100D01*
X125581600Y-109627800D02*
X125285000Y-109331200D01*
X168550800Y-112198100D02*
X168550800Y-110319800D01*
X76677700Y-58594600D02*
X75852900Y-57769800D01*
X153495100Y-109391200D02*
X127171700Y-109391200D01*
X168820700Y-112468000D02*
X184281800Y-112468000D01*
X168226900Y-112522000D02*
X168550800Y-112198100D01*
X58928000Y-57404000D02*
X60104900Y-57404000D01*
X90424000Y-57404000D02*
X89247100Y-57404000D01*
X87429400Y-94395800D02*
X89145200Y-96111600D01*
X168550800Y-110319800D02*
X168356100Y-110125100D01*
X60104900Y-57036200D02*
X60927700Y-56213400D01*
%TO.N,d6*%
X93329800Y-58580900D02*
X94328600Y-59579700D01*
X204216000Y-141732000D02*
X205342900Y-141732000D01*
X144168700Y-84079000D02*
X151887000Y-84079000D01*
X190442100Y-102967100D02*
X171554000Y-84079000D01*
X126968200Y-82946700D02*
X143036400Y-82946700D01*
X105681100Y-69850100D02*
X110086300Y-69850100D01*
X172212000Y-180340000D02*
X171085100Y-180340000D01*
X205342900Y-141732000D02*
X208506000Y-144895100D01*
X91787100Y-57038200D02*
X91787100Y-57404000D01*
X202692000Y-180071000D02*
X201565100Y-180071000D01*
X102202500Y-68596300D02*
X104427300Y-68596300D01*
X181497800Y-180340000D02*
X173338900Y-180340000D01*
X79583500Y-56213400D02*
X90962300Y-56213400D01*
X208506000Y-144895100D02*
X234696000Y-144895100D01*
X92964000Y-57404000D02*
X92964000Y-58580900D01*
X200434500Y-181201600D02*
X182359400Y-181201600D01*
X124968000Y-83820000D02*
X123841100Y-83820000D01*
X201565100Y-180071000D02*
X200434500Y-181201600D01*
X126094900Y-83820000D02*
X126968200Y-82946700D01*
X143036400Y-82946700D02*
X144168700Y-84079000D01*
X148061400Y-179201500D02*
X169946600Y-179201500D01*
X94328600Y-60722400D02*
X102202500Y-68596300D01*
X124968000Y-83820000D02*
X126094900Y-83820000D01*
X110086300Y-69850100D02*
X123841100Y-83604900D01*
X104427300Y-68596300D02*
X105681100Y-69850100D01*
X90962300Y-56213400D02*
X91787100Y-57038200D01*
X234696000Y-145942000D02*
X234696000Y-144895100D01*
X92964000Y-57404000D02*
X91787100Y-57404000D01*
X92964000Y-58580900D02*
X93329800Y-58580900D01*
X78392900Y-57404000D02*
X79583500Y-56213400D01*
X123841100Y-83604900D02*
X123841100Y-83820000D01*
X145796000Y-180340000D02*
X146922900Y-180340000D01*
X190442100Y-103609100D02*
X190442100Y-102967100D01*
X77216000Y-57404000D02*
X78392900Y-57404000D01*
X169946600Y-179201500D02*
X171085100Y-180340000D01*
X146922900Y-180340000D02*
X148061400Y-179201500D01*
X94328600Y-59579700D02*
X94328600Y-60722400D01*
X171554000Y-84079000D02*
X151887000Y-84079000D01*
X182359400Y-181201600D02*
X181497800Y-180340000D01*
X172212000Y-180340000D02*
X173338900Y-180340000D01*
%TO.N,a7*%
X188976000Y-121412000D02*
X190102900Y-121412000D01*
X104115700Y-129691200D02*
X109734600Y-129691200D01*
X75852900Y-59944000D02*
X75852900Y-60309800D01*
X79115400Y-59945500D02*
X89245600Y-59945500D01*
X158131100Y-122423000D02*
X159401100Y-121153000D01*
X75852900Y-60309800D02*
X76677700Y-61134600D01*
X74676000Y-59944000D02*
X74461800Y-59944000D01*
X132566300Y-127364300D02*
X145739600Y-127364300D01*
X186155700Y-121412000D02*
X188976000Y-121412000D01*
X76677700Y-61134600D02*
X77926300Y-61134600D01*
X165716700Y-131824100D02*
X165800300Y-131740500D01*
X60104900Y-59576200D02*
X60927700Y-58753400D01*
X58928000Y-59944000D02*
X60104900Y-59944000D01*
X205482100Y-122682000D02*
X191372900Y-122682000D01*
X60927700Y-58753400D02*
X72308500Y-58753400D01*
X160528000Y-121153000D02*
X159401100Y-121153000D01*
X145739600Y-127364300D02*
X150680900Y-122423000D01*
X165800300Y-131740500D02*
X175827200Y-131740500D01*
X109734600Y-129691200D02*
X110676700Y-128749100D01*
X150680900Y-122423000D02*
X158131100Y-122423000D01*
X90424000Y-59944000D02*
X89247100Y-59944000D01*
X131119500Y-127225600D02*
X132427600Y-127225600D01*
X132427600Y-127225600D02*
X132566300Y-127364300D01*
X72308500Y-58753400D02*
X73499100Y-59944000D01*
X77926300Y-61134600D02*
X79115400Y-59945500D01*
X74087600Y-59944000D02*
X74461800Y-59944000D01*
X102839100Y-128414600D02*
X104115700Y-129691200D01*
X208422100Y-125622000D02*
X205482100Y-122682000D01*
X74676000Y-59944000D02*
X75852900Y-59944000D01*
X219456000Y-125622000D02*
X208422100Y-125622000D01*
X89245600Y-59945500D02*
X89247100Y-59944000D01*
X191372900Y-122682000D02*
X190102900Y-121412000D01*
X110676700Y-128749100D02*
X129596000Y-128749100D01*
X175827200Y-131740500D02*
X186155700Y-121412000D01*
X74087600Y-59944000D02*
X73499100Y-59944000D01*
X129596000Y-128749100D02*
X131119500Y-127225600D01*
X60104900Y-59944000D02*
X60104900Y-59576200D01*
%TO.N,d7*%
X90972200Y-58763300D02*
X91787100Y-59578200D01*
X127289800Y-85165100D02*
X126094900Y-86360000D01*
X78843300Y-59493600D02*
X88277900Y-59493600D01*
X208600700Y-140532400D02*
X206683300Y-140532400D01*
X146922900Y-182880000D02*
X148060500Y-181742400D01*
X91787100Y-59578200D02*
X91787100Y-59944000D01*
X204314100Y-179153100D02*
X204314100Y-185179500D01*
X233262200Y-141968200D02*
X210036500Y-141968200D01*
X203213000Y-186280600D02*
X176743900Y-186280600D01*
X97879800Y-65670900D02*
X93329800Y-61120900D01*
X173056700Y-86619000D02*
X184548000Y-98110300D01*
X234696000Y-143402000D02*
X233262200Y-141968200D01*
X124968000Y-86360000D02*
X123841100Y-86360000D01*
X202692000Y-177531000D02*
X204314100Y-179153100D01*
X78392900Y-59944000D02*
X78843300Y-59493600D01*
X210036500Y-141968200D02*
X208600700Y-140532400D01*
X77216000Y-59944000D02*
X78392900Y-59944000D01*
X92964000Y-59944000D02*
X92964000Y-61120900D01*
X97879800Y-66862000D02*
X97879800Y-65670900D01*
X169947500Y-181742400D02*
X171085100Y-182880000D01*
X151887000Y-86619000D02*
X150760100Y-86619000D01*
X110576900Y-72390000D02*
X103407800Y-72390000D01*
X89008200Y-58763300D02*
X90972200Y-58763300D01*
X145796000Y-182880000D02*
X146922900Y-182880000D01*
X173343300Y-182880000D02*
X173338900Y-182880000D01*
X88277900Y-59493600D02*
X89008200Y-58763300D01*
X204314100Y-185179500D02*
X203213000Y-186280600D01*
X123841100Y-86360000D02*
X123841100Y-85654200D01*
X103407800Y-72390000D02*
X97879800Y-66862000D01*
X93329800Y-61120900D02*
X92964000Y-61120900D01*
X176743900Y-186280600D02*
X173343300Y-182880000D01*
X123841100Y-85654200D02*
X110576900Y-72390000D01*
X150760100Y-86619000D02*
X149633200Y-85492100D01*
X148060500Y-181742400D02*
X169947500Y-181742400D01*
X92964000Y-59944000D02*
X91787100Y-59944000D01*
X149633200Y-85492100D02*
X130993600Y-85492100D01*
X151887000Y-86619000D02*
X173056700Y-86619000D01*
X130993600Y-85492100D02*
X130666600Y-85165100D01*
X172212000Y-182880000D02*
X173338900Y-182880000D01*
X204216000Y-139192000D02*
X205342900Y-139192000D01*
X206683300Y-140532400D02*
X205342900Y-139192000D01*
X130666600Y-85165100D02*
X127289800Y-85165100D01*
X124968000Y-86360000D02*
X126094900Y-86360000D01*
X172212000Y-182880000D02*
X171085100Y-182880000D01*
%TO.N,a8*%
X71054700Y-99793200D02*
X69402000Y-98140500D01*
X149734800Y-140556600D02*
X166129500Y-140556600D01*
X149647900Y-140469700D02*
X149734800Y-140556600D01*
X133241800Y-140469700D02*
X149647900Y-140469700D01*
X190641500Y-122819300D02*
X191774200Y-123952000D01*
X79116900Y-62484000D02*
X77926300Y-63674600D01*
X74676000Y-62484000D02*
X74461800Y-62484000D01*
X74676000Y-62484000D02*
X75852900Y-62484000D01*
X74087600Y-62484000D02*
X74461800Y-62484000D01*
X125082200Y-143510000D02*
X130679100Y-137913100D01*
X69262400Y-96403600D02*
X55247000Y-96403600D01*
X93472000Y-151384000D02*
X94598900Y-151384000D01*
X74087600Y-62484000D02*
X73499100Y-62484000D01*
X114869000Y-145966300D02*
X119307200Y-145966300D01*
X166129500Y-140556600D02*
X174493700Y-132192400D01*
X174493700Y-132192400D02*
X176102200Y-132192400D01*
X121763500Y-143510000D02*
X125082200Y-143510000D01*
X90424000Y-62484000D02*
X79116900Y-62484000D01*
X130679100Y-137913100D02*
X130679100Y-137907000D01*
X60927700Y-61293400D02*
X72308500Y-61293400D01*
X133320000Y-136393000D02*
X132193100Y-136393000D01*
X55202800Y-81574300D02*
X55202800Y-67018300D01*
X55247000Y-96403600D02*
X51561000Y-92717600D01*
X130679100Y-137907000D02*
X133241800Y-140469700D01*
X59516500Y-62484000D02*
X60104900Y-62484000D01*
X58928000Y-62484000D02*
X58928000Y-63660900D01*
X75852900Y-62849800D02*
X75852900Y-62484000D01*
X130679100Y-137907000D02*
X132193100Y-136393000D01*
X234696000Y-128162000D02*
X234696000Y-127115100D01*
X72308500Y-61293400D02*
X73499100Y-62484000D01*
X119307200Y-145966300D02*
X121763500Y-143510000D01*
X73362700Y-99793200D02*
X71054700Y-99793200D01*
X95725800Y-150257100D02*
X110578200Y-150257100D01*
X94598900Y-151384000D02*
X95725800Y-150257100D01*
X58560200Y-63660900D02*
X58928000Y-63660900D01*
X51561000Y-92717600D02*
X51561000Y-85216100D01*
X176102200Y-132192400D02*
X185475300Y-122819300D01*
X185475300Y-122819300D02*
X190641500Y-122819300D01*
X208506000Y-127115100D02*
X234696000Y-127115100D01*
X205342900Y-123952000D02*
X208506000Y-127115100D01*
X59516500Y-62484000D02*
X58928000Y-62484000D01*
X69402000Y-96543200D02*
X69262400Y-96403600D01*
X76677700Y-63674600D02*
X75852900Y-62849800D01*
X69402000Y-98140500D02*
X69402000Y-96543200D01*
X204216000Y-123952000D02*
X205342900Y-123952000D01*
X191774200Y-123952000D02*
X204216000Y-123952000D01*
X110578200Y-150257100D02*
X114869000Y-145966300D01*
X55202800Y-67018300D02*
X58560200Y-63660900D01*
X77926300Y-63674600D02*
X76677700Y-63674600D01*
X60104900Y-62484000D02*
X60104900Y-62116200D01*
X51561000Y-85216100D02*
X55202800Y-81574300D01*
X60104900Y-62116200D02*
X60927700Y-61293400D01*
%TO.N,RW*%
X124968000Y-96520000D02*
X126094900Y-96520000D01*
X79570200Y-61306700D02*
X78392900Y-62484000D01*
X90977600Y-61306700D02*
X79570200Y-61306700D01*
X116840000Y-123693000D02*
X115713100Y-123693000D01*
X77216000Y-62484000D02*
X78392900Y-62484000D01*
X92964000Y-62484000D02*
X91787100Y-62484000D01*
X149616500Y-95635400D02*
X150760100Y-96779000D01*
X126094900Y-96520000D02*
X126979500Y-95635400D01*
X113422100Y-125984000D02*
X108712000Y-125984000D01*
X151887000Y-96779000D02*
X150760100Y-96779000D01*
X133320000Y-113533000D02*
X132193100Y-113533000D01*
X126979500Y-95635400D02*
X149616500Y-95635400D01*
X151887000Y-96779000D02*
X179330900Y-96779000D01*
X115713100Y-123693000D02*
X113422100Y-125984000D01*
X91787100Y-62484000D02*
X91787100Y-62116200D01*
X179330900Y-96779000D02*
X185145500Y-102593600D01*
X129653100Y-116073000D02*
X124460000Y-116073000D01*
X91787100Y-62116200D02*
X90977600Y-61306700D01*
X132193100Y-113533000D02*
X129653100Y-116073000D01*
%TO.N,a9*%
X131958900Y-133853000D02*
X133320000Y-133853000D01*
X90424000Y-65024000D02*
X91694000Y-66294000D01*
X110897900Y-145394200D02*
X113573900Y-145394200D01*
X60927700Y-63833400D02*
X72308500Y-63833400D01*
X92323000Y-151929800D02*
X92323000Y-150885600D01*
X115364500Y-143603600D02*
X119221700Y-143603600D01*
X99275800Y-145128300D02*
X110632000Y-145128300D01*
X120869400Y-143757600D02*
X123656900Y-140970100D01*
X92323000Y-150885600D02*
X93094600Y-150114000D01*
X60104900Y-65024000D02*
X60104900Y-64656200D01*
X93094600Y-150114000D02*
X94290100Y-150114000D01*
X91694000Y-66294000D02*
X93375300Y-66294000D01*
X234696000Y-130702000D02*
X234696000Y-129655100D01*
X124841800Y-140970100D02*
X131958900Y-133853000D01*
X75852900Y-65024000D02*
X75852900Y-65389800D01*
X182788000Y-127848200D02*
X201674100Y-127848200D01*
X137388000Y-141426900D02*
X138878500Y-142917400D01*
X167718800Y-142917400D02*
X182788000Y-127848200D01*
X123656900Y-140970100D02*
X124841800Y-140970100D01*
X94290100Y-150114000D02*
X99275800Y-145128300D01*
X119221700Y-143603600D02*
X119375700Y-143757600D01*
X205342900Y-126492000D02*
X208506000Y-129655100D01*
X201674100Y-127848200D02*
X202325200Y-127197100D01*
X74676000Y-65024000D02*
X75852900Y-65024000D01*
X138878500Y-142917400D02*
X167718800Y-142917400D01*
X76677700Y-66214600D02*
X78621900Y-66214600D01*
X93472000Y-153924000D02*
X93472000Y-152797100D01*
X208506000Y-129655100D02*
X234696000Y-129655100D01*
X110632000Y-145128300D02*
X110897900Y-145394200D01*
X204216000Y-126492000D02*
X205342900Y-126492000D01*
X74676000Y-65024000D02*
X73499100Y-65024000D01*
X78621900Y-66214600D02*
X79812500Y-65024000D01*
X93375300Y-66294000D02*
X96544700Y-69463400D01*
X96544700Y-69463400D02*
X96544700Y-71399400D01*
X60104900Y-64656200D02*
X60927700Y-63833400D01*
X119375700Y-143757600D02*
X120869400Y-143757600D01*
X93472000Y-152797100D02*
X93190300Y-152797100D01*
X113573900Y-145394200D02*
X115364500Y-143603600D01*
X93190300Y-152797100D02*
X92323000Y-151929800D01*
X72308500Y-63833400D02*
X73499100Y-65024000D01*
X58928000Y-65024000D02*
X60104900Y-65024000D01*
X79812500Y-65024000D02*
X90424000Y-65024000D01*
X75852900Y-65389800D02*
X76677700Y-66214600D01*
%TO.N,PHI2*%
X79570200Y-63846700D02*
X78392900Y-65024000D01*
X108712000Y-118364000D02*
X109838900Y-118364000D01*
X131066200Y-112119900D02*
X132193100Y-110993000D01*
X90977600Y-63846700D02*
X79570200Y-63846700D01*
X91787100Y-64656200D02*
X90977600Y-63846700D01*
X126094900Y-88900000D02*
X126979500Y-88015400D01*
X91787100Y-65024000D02*
X91787100Y-64656200D01*
X151887000Y-89159000D02*
X150760100Y-89159000D01*
X109838900Y-118364000D02*
X116083000Y-112119900D01*
X77216000Y-65024000D02*
X78392900Y-65024000D01*
X116083000Y-112119900D02*
X131066200Y-112119900D01*
X151887000Y-89159000D02*
X174435300Y-89159000D01*
X124968000Y-88900000D02*
X126094900Y-88900000D01*
X133320000Y-110993000D02*
X132193100Y-110993000D01*
X174435300Y-89159000D02*
X184400300Y-99124000D01*
X92964000Y-65024000D02*
X91787100Y-65024000D01*
X149616500Y-88015400D02*
X150760100Y-89159000D01*
X126979500Y-88015400D02*
X149616500Y-88015400D01*
%TO.N,a10*%
X58928000Y-67564000D02*
X60104900Y-67564000D01*
X190076100Y-132954500D02*
X178322800Y-132954500D01*
X107596900Y-134966600D02*
X103309200Y-139254300D01*
X128321300Y-130953100D02*
X122977300Y-130953100D01*
X103309200Y-139254300D02*
X97364800Y-133309900D01*
X72308500Y-66373400D02*
X73499100Y-67564000D01*
X128906100Y-131537900D02*
X128321300Y-130953100D01*
X165800200Y-145477100D02*
X139105000Y-145477100D01*
X74087600Y-67564000D02*
X74461800Y-67564000D01*
X60104900Y-67564000D02*
X60104900Y-67196200D01*
X79116900Y-67564000D02*
X90424000Y-67564000D01*
X60104900Y-67196200D02*
X60927700Y-66373400D01*
X74676000Y-67564000D02*
X74461800Y-67564000D01*
X204216000Y-134112000D02*
X205342900Y-134112000D01*
X114799300Y-134966600D02*
X107596900Y-134966600D01*
X178322800Y-132954500D02*
X165800200Y-145477100D01*
X60927700Y-66373400D02*
X72308500Y-66373400D01*
X74087600Y-67564000D02*
X73499100Y-67564000D01*
X75852900Y-67929800D02*
X76677700Y-68754600D01*
X234696000Y-138322000D02*
X234696000Y-137275100D01*
X191233600Y-134112000D02*
X190076100Y-132954500D01*
X208506000Y-137275100D02*
X205342900Y-134112000D01*
X75852900Y-67564000D02*
X75852900Y-67929800D01*
X77926300Y-68754600D02*
X79116900Y-67564000D01*
X74676000Y-67564000D02*
X75852900Y-67564000D01*
X234696000Y-137275100D02*
X208506000Y-137275100D01*
X204216000Y-134112000D02*
X191233600Y-134112000D01*
X118460700Y-135469700D02*
X115302400Y-135469700D01*
X76677700Y-68754600D02*
X77926300Y-68754600D01*
X97364800Y-133309900D02*
X96315200Y-133309900D01*
X122977300Y-130953100D02*
X118460700Y-135469700D01*
X115302400Y-135469700D02*
X114799300Y-134966600D01*
%TO.N,RESET*%
X92964000Y-67564000D02*
X92964000Y-68740900D01*
X92964000Y-67564000D02*
X91787100Y-67564000D01*
X78392900Y-67564000D02*
X79597600Y-66359300D01*
X79597600Y-66359300D02*
X90897100Y-66359300D01*
X126094900Y-66040000D02*
X126979500Y-65155400D01*
X172212000Y-200660000D02*
X171085100Y-200660000D01*
X91787100Y-67249300D02*
X91787100Y-67564000D01*
X92964000Y-68740900D02*
X93281300Y-68740900D01*
X95817800Y-71700400D02*
X101671500Y-77554100D01*
X104569400Y-77554100D02*
X107052000Y-75071500D01*
X73354000Y-111542000D02*
X66854000Y-111542000D01*
X90897100Y-66359300D02*
X91787100Y-67249300D01*
X95817800Y-71277400D02*
X95817800Y-71700400D01*
X93281300Y-68740900D02*
X95817800Y-71277400D01*
X88392000Y-136652000D02*
X88392000Y-140208000D01*
X169952300Y-199527200D02*
X171085100Y-200660000D01*
X101671500Y-77554100D02*
X104569400Y-77554100D01*
X151887000Y-66299000D02*
X150760100Y-66299000D01*
X77216000Y-67564000D02*
X78392900Y-67564000D01*
X126979500Y-65155400D02*
X149616500Y-65155400D01*
X155071100Y-200660000D02*
X156203900Y-199527200D01*
X88392000Y-140208000D02*
X73152000Y-155448000D01*
X124968000Y-66040000D02*
X126094900Y-66040000D01*
X107052000Y-75071500D02*
X112220900Y-75071500D01*
X149616500Y-65155400D02*
X150760100Y-66299000D01*
X145796000Y-200660000D02*
X155071100Y-200660000D01*
X156203900Y-199527200D02*
X169952300Y-199527200D01*
%TO.N,a11*%
X160966100Y-122537400D02*
X161026000Y-122597300D01*
X204216000Y-129032000D02*
X205342900Y-129032000D01*
X76677700Y-71294600D02*
X75852900Y-70469800D01*
X60104900Y-70104000D02*
X60104900Y-69736200D01*
X134446900Y-128773000D02*
X135637500Y-129963600D01*
X74676000Y-70104000D02*
X73499100Y-70104000D01*
X74676000Y-70104000D02*
X75852900Y-70104000D01*
X161026000Y-122597300D02*
X177691700Y-122597300D01*
X75852900Y-70469800D02*
X75852900Y-70104000D01*
X104681000Y-128685600D02*
X106006700Y-127359900D01*
X205342900Y-129032000D02*
X208506000Y-132195100D01*
X88056500Y-71294600D02*
X76677700Y-71294600D01*
X148840400Y-124963000D02*
X157357100Y-124963000D01*
X106006700Y-127359900D02*
X128240700Y-127359900D01*
X58928000Y-70104000D02*
X60104900Y-70104000D01*
X133320000Y-128773000D02*
X134446900Y-128773000D01*
X135637500Y-129963600D02*
X143839800Y-129963600D01*
X89247100Y-70104000D02*
X88056500Y-71294600D01*
X128240700Y-127359900D02*
X128408700Y-127191900D01*
X177691700Y-122597300D02*
X187654200Y-112634800D01*
X208506000Y-132195100D02*
X234696000Y-132195100D01*
X157357100Y-124963000D02*
X159782700Y-122537400D01*
X90424000Y-70104000D02*
X89247100Y-70104000D01*
X234696000Y-133242000D02*
X234696000Y-132195100D01*
X143839800Y-129963600D02*
X148840400Y-124963000D01*
X60104900Y-69736200D02*
X60927700Y-68913400D01*
X72308500Y-68913400D02*
X73499100Y-70104000D01*
X60927700Y-68913400D02*
X72308500Y-68913400D01*
X159782700Y-122537400D02*
X160966100Y-122537400D01*
X195069900Y-112634800D02*
X198053500Y-115618400D01*
X187654200Y-112634800D02*
X195069900Y-112634800D01*
%TO.N,SYNC*%
X90977300Y-68926400D02*
X79570500Y-68926400D01*
X91787100Y-70104000D02*
X91787100Y-69736200D01*
X91787100Y-69736200D02*
X90977300Y-68926400D01*
X77216000Y-70104000D02*
X78392900Y-70104000D01*
X92964000Y-70104000D02*
X91787100Y-70104000D01*
X79570500Y-68926400D02*
X78392900Y-70104000D01*
%TO.N,a12*%
X205646000Y-120041400D02*
X191272300Y-120041400D01*
X79362100Y-73094400D02*
X78635600Y-73820900D01*
X208686600Y-123082000D02*
X205646000Y-120041400D01*
X58928000Y-73828800D02*
X72314300Y-73828800D01*
X158440300Y-129479000D02*
X159129900Y-130168600D01*
X88796700Y-73094400D02*
X79362100Y-73094400D01*
X133320000Y-126233000D02*
X139346300Y-126233000D01*
X165976600Y-130631900D02*
X175653300Y-130631900D01*
X74676000Y-72644000D02*
X73499100Y-72644000D01*
X188976000Y-118872000D02*
X190102900Y-118872000D01*
X58928000Y-73232400D02*
X58928000Y-73828800D01*
X55929800Y-76471700D02*
X58572700Y-73828800D01*
X140489500Y-125089800D02*
X144595200Y-125089800D01*
X58572700Y-73828800D02*
X58928000Y-73828800D01*
X90424000Y-72644000D02*
X89247100Y-72644000D01*
X58928000Y-72644000D02*
X58928000Y-73232400D01*
X219456000Y-123082000D02*
X208686600Y-123082000D01*
X72314300Y-73828800D02*
X73499100Y-72644000D01*
X78635600Y-73820900D02*
X75852900Y-73820900D01*
X117695300Y-134244200D02*
X118400600Y-134244200D01*
X107585100Y-156464000D02*
X107447300Y-156601800D01*
X139346300Y-126233000D02*
X140489500Y-125089800D01*
X89247100Y-72644000D02*
X88796700Y-73094400D01*
X75852900Y-73820900D02*
X74676000Y-72644000D01*
X175653300Y-130631900D02*
X187413200Y-118872000D01*
X187413200Y-118872000D02*
X188976000Y-118872000D01*
X118400600Y-134244200D02*
X122604500Y-130040300D01*
X191272300Y-120041400D02*
X190102900Y-118872000D01*
X165513300Y-130168600D02*
X165976600Y-130631900D01*
X129831000Y-130040300D02*
X131867500Y-128003800D01*
X159129900Y-130168600D02*
X165513300Y-130168600D01*
X108712000Y-156464000D02*
X107585100Y-156464000D01*
X122604500Y-130040300D02*
X129831000Y-130040300D01*
X107447300Y-156601800D02*
X105690100Y-156601800D01*
%TO.N,IRQ*%
X76039100Y-72278200D02*
X76039100Y-72644000D01*
X91787100Y-72278200D02*
X90962300Y-71453400D01*
X76627600Y-72644000D02*
X77216000Y-72644000D01*
X109536900Y-142637100D02*
X111567000Y-144667200D01*
X105625100Y-142637100D02*
X109536900Y-142637100D01*
X75218100Y-71457200D02*
X76039100Y-72278200D01*
X89018100Y-71453400D02*
X87829000Y-72642500D01*
X87829000Y-72642500D02*
X78394400Y-72642500D01*
X77216000Y-72644000D02*
X78392900Y-72644000D01*
X92964000Y-72644000D02*
X91787100Y-72644000D01*
X62644900Y-72644000D02*
X63831700Y-71457200D01*
X78394400Y-72642500D02*
X78392900Y-72644000D01*
X76627600Y-72644000D02*
X76039100Y-72644000D01*
X90962300Y-71453400D02*
X89018100Y-71453400D01*
X91787100Y-72644000D02*
X91787100Y-72278200D01*
X61468000Y-72644000D02*
X62644900Y-72644000D01*
X63831700Y-71457200D02*
X75218100Y-71457200D01*
X97878300Y-134890300D02*
X105625100Y-142637100D01*
%TO.N,a13*%
X208506000Y-124575100D02*
X205342900Y-121412000D01*
X204216000Y-121412000D02*
X205342900Y-121412000D01*
X60104900Y-75549800D02*
X60104900Y-75184000D01*
X73499100Y-75184000D02*
X72308500Y-76374600D01*
X90424000Y-75184000D02*
X89247100Y-75184000D01*
X117594400Y-151130000D02*
X119281700Y-149442700D01*
X74676000Y-75184000D02*
X73499100Y-75184000D01*
X126511700Y-141052500D02*
X132547500Y-135016700D01*
X106134300Y-155159500D02*
X106349600Y-155159500D01*
X60929700Y-76374600D02*
X60104900Y-75549800D01*
X89247100Y-75184000D02*
X88056500Y-76374600D01*
X204216000Y-121412000D02*
X191928000Y-121412000D01*
X190799900Y-120283900D02*
X186640400Y-120283900D01*
X108712000Y-153924000D02*
X109838900Y-153924000D01*
X145219600Y-132921800D02*
X143124700Y-135016700D01*
X143124700Y-135016700D02*
X135459000Y-135016700D01*
X112632900Y-151130000D02*
X117594400Y-151130000D01*
X75264500Y-75184000D02*
X74676000Y-75184000D01*
X151767800Y-132921800D02*
X145219600Y-132921800D01*
X106349600Y-155159500D02*
X107585100Y-153924000D01*
X72308500Y-76374600D02*
X60929700Y-76374600D01*
X88056500Y-76374600D02*
X76677700Y-76374600D01*
X175829000Y-131095300D02*
X164823200Y-131095300D01*
X58928000Y-75184000D02*
X60104900Y-75184000D01*
X135459000Y-135016700D02*
X135459000Y-133463800D01*
X163220800Y-132697700D02*
X151991900Y-132697700D01*
X75264500Y-75184000D02*
X75852900Y-75184000D01*
X234696000Y-125622000D02*
X234696000Y-124575100D01*
X186640400Y-120283900D02*
X175829000Y-131095300D01*
X109838900Y-153924000D02*
X112632900Y-151130000D01*
X191928000Y-121412000D02*
X190799900Y-120283900D01*
X76677700Y-76374600D02*
X75852900Y-75549800D01*
X75852900Y-75549800D02*
X75852900Y-75184000D01*
X164823200Y-131095300D02*
X163220800Y-132697700D01*
X119281700Y-149442700D02*
X122235900Y-149442700D01*
X151991900Y-132697700D02*
X151767800Y-132921800D01*
X108712000Y-153924000D02*
X107585100Y-153924000D01*
X132547500Y-135016700D02*
X135459000Y-135016700D01*
X234696000Y-124575100D02*
X208506000Y-124575100D01*
%TO.N,BE*%
X103497100Y-120136300D02*
X104264800Y-120904000D01*
X91787100Y-74816200D02*
X91787100Y-75184000D01*
X93956000Y-129677400D02*
X103497100Y-120136300D01*
X92964000Y-75184000D02*
X91787100Y-75184000D01*
X79573500Y-74003400D02*
X90974300Y-74003400D01*
X96512700Y-113151900D02*
X103497100Y-120136300D01*
X90974300Y-74003400D02*
X91787100Y-74816200D01*
X90794600Y-129677400D02*
X93956000Y-129677400D01*
X88392000Y-132080000D02*
X90794600Y-129677400D01*
X78392900Y-75184000D02*
X79573500Y-74003400D01*
X104264800Y-120904000D02*
X108712000Y-120904000D01*
X77216000Y-75184000D02*
X78392900Y-75184000D01*
%TO.N,a14*%
X89247100Y-77724000D02*
X88038100Y-78933000D01*
X114189400Y-119899300D02*
X114189400Y-120136000D01*
X217462300Y-117501400D02*
X205419000Y-117501400D01*
X96053600Y-109662100D02*
X96053600Y-110578000D01*
X201519200Y-110218200D02*
X203823000Y-112522000D01*
X76747200Y-78933000D02*
X75852900Y-78038700D01*
X88038100Y-78933000D02*
X76747200Y-78933000D01*
X73499100Y-77724000D02*
X72308500Y-78914600D01*
X75852900Y-78038700D02*
X75852900Y-77724000D01*
X133320000Y-121153000D02*
X132193100Y-121153000D01*
X203823000Y-112522000D02*
X204621100Y-112522000D01*
X202785500Y-116797200D02*
X203489700Y-117501400D01*
X219456000Y-119495100D02*
X217462300Y-117501400D01*
X114189400Y-120136000D02*
X116476400Y-122423000D01*
X96053600Y-110578000D02*
X105109600Y-119634000D01*
X219456000Y-120542000D02*
X219456000Y-119495100D01*
X105109600Y-119634000D02*
X113924100Y-119634000D01*
X204621100Y-112522000D02*
X205419000Y-113319900D01*
X74676000Y-77724000D02*
X73499100Y-77724000D01*
X188976000Y-116332000D02*
X190102900Y-116332000D01*
X203489700Y-117501400D02*
X205419000Y-117501400D01*
X116476400Y-122423000D02*
X119860500Y-122423000D01*
X190102900Y-116332000D02*
X190568100Y-116797200D01*
X190141100Y-104336000D02*
X198834800Y-104336000D01*
X122264900Y-124827400D02*
X128518700Y-124827400D01*
X205419000Y-113319900D02*
X205419000Y-117501400D01*
X113924100Y-119634000D02*
X114189400Y-119899300D01*
X60104900Y-78089800D02*
X60104900Y-77724000D01*
X190568100Y-116797200D02*
X202785500Y-116797200D01*
X74676000Y-77724000D02*
X75852900Y-77724000D01*
X198834800Y-104336000D02*
X201519200Y-107020400D01*
X124549900Y-104016000D02*
X189821100Y-104016000D01*
X72308500Y-78914600D02*
X60929700Y-78914600D01*
X201519200Y-107020400D02*
X201519200Y-110218200D01*
X189821100Y-104016000D02*
X190141100Y-104336000D01*
X60929700Y-78914600D02*
X60104900Y-78089800D01*
X58928000Y-77724000D02*
X60104900Y-77724000D01*
X128518700Y-124827400D02*
X132193100Y-121153000D01*
X119860500Y-122423000D02*
X122264900Y-124827400D01*
X90424000Y-77724000D02*
X89247100Y-77724000D01*
%TO.N,RDY*%
X89018100Y-76533400D02*
X87827500Y-77724000D01*
X92964000Y-77724000D02*
X91787100Y-77724000D01*
X91787100Y-77724000D02*
X91787100Y-77358200D01*
X91787100Y-77358200D02*
X90962300Y-76533400D01*
X91550900Y-113284000D02*
X89518900Y-111252000D01*
X87827500Y-77724000D02*
X78392900Y-77724000D01*
X88392000Y-111252000D02*
X89518900Y-111252000D01*
X93472000Y-113284000D02*
X91550900Y-113284000D01*
X77216000Y-77724000D02*
X78392900Y-77724000D01*
X90962300Y-76533400D02*
X89018100Y-76533400D01*
%TO.N,a15*%
X93361600Y-81534000D02*
X98976900Y-87149300D01*
X60918200Y-81443100D02*
X60104900Y-80629800D01*
X58928000Y-80264000D02*
X60104900Y-80264000D01*
X106914500Y-148173400D02*
X106363000Y-148173400D01*
X88068200Y-81442900D02*
X75854900Y-81442900D01*
X63269600Y-80714400D02*
X62540900Y-81443100D01*
X60104900Y-80629800D02*
X60104900Y-80264000D01*
X98976900Y-87149300D02*
X98976900Y-87258100D01*
X104086100Y-108688400D02*
X103948500Y-108550800D01*
X108712000Y-148844000D02*
X107585100Y-148844000D01*
X75854900Y-81442900D02*
X74676000Y-80264000D01*
X73499100Y-80264000D02*
X73048700Y-80714400D01*
X102141700Y-108550800D02*
X102071200Y-108621300D01*
X91694000Y-81534000D02*
X93361600Y-81534000D01*
X89835600Y-80264000D02*
X89247100Y-80264000D01*
X73048700Y-80714400D02*
X63269600Y-80714400D01*
X90424000Y-80264000D02*
X89835600Y-80264000D01*
X89247100Y-80264000D02*
X88068200Y-81442900D01*
X125882600Y-108900900D02*
X125670100Y-108688400D01*
X62540900Y-81443100D02*
X60918200Y-81443100D01*
X74676000Y-80264000D02*
X73499100Y-80264000D01*
X103948500Y-108550800D02*
X102141700Y-108550800D01*
X90424000Y-80264000D02*
X91694000Y-81534000D01*
X125670100Y-108688400D02*
X104086100Y-108688400D01*
X107585100Y-148844000D02*
X106914500Y-148173400D01*
%TO.N,VP*%
X91787100Y-79896200D02*
X90938900Y-79048000D01*
X72340700Y-79813600D02*
X63095300Y-79813600D01*
X90938900Y-79048000D02*
X89112300Y-79048000D01*
X92964000Y-80264000D02*
X91787100Y-80264000D01*
X76039100Y-79896200D02*
X75229100Y-79086200D01*
X76039100Y-80264000D02*
X76039100Y-79896200D01*
X77216000Y-80264000D02*
X76039100Y-80264000D01*
X77216000Y-80264000D02*
X78392900Y-80264000D01*
X89112300Y-79048000D02*
X87896300Y-80264000D01*
X91787100Y-80264000D02*
X91787100Y-79896200D01*
X87896300Y-80264000D02*
X78392900Y-80264000D01*
X61468000Y-80264000D02*
X62644900Y-80264000D01*
X63095300Y-79813600D02*
X62644900Y-80264000D01*
X73068100Y-79086200D02*
X72340700Y-79813600D01*
X75229100Y-79086200D02*
X73068100Y-79086200D01*
%TO.N,ML*%
X88759600Y-82804000D02*
X89936500Y-83980900D01*
X75221000Y-81620100D02*
X76039100Y-82438200D01*
X89936500Y-83980900D02*
X90911500Y-83980900D01*
X77216000Y-82804000D02*
X76039100Y-82804000D01*
X90911500Y-83980900D02*
X91787100Y-83105300D01*
X77216000Y-82804000D02*
X88759600Y-82804000D01*
X61468000Y-82804000D02*
X62644900Y-82804000D01*
X63828800Y-81620100D02*
X75221000Y-81620100D01*
X92964000Y-82804000D02*
X91787100Y-82804000D01*
X76039100Y-82438200D02*
X76039100Y-82804000D01*
X91787100Y-83105300D02*
X91787100Y-82804000D01*
X62644900Y-82804000D02*
X63828800Y-81620100D01*
%TO.N,WE*%
X77284200Y-92020200D02*
X76294400Y-92020200D01*
X78413900Y-89893000D02*
X78413900Y-90890500D01*
X75800300Y-93088000D02*
X76250900Y-93538600D01*
X147507300Y-127615700D02*
X142066900Y-133056100D01*
X63821800Y-89060900D02*
X77216000Y-89060900D01*
X92439400Y-132328300D02*
X114751500Y-132328300D01*
X142066900Y-133056100D02*
X142066900Y-133853000D01*
X234696000Y-123082000D02*
X234696000Y-122035100D01*
X78413900Y-90890500D02*
X77284200Y-92020200D01*
X128890600Y-130494400D02*
X130903900Y-132507700D01*
X114751500Y-132328300D02*
X117441000Y-135017800D01*
X208506000Y-122035100D02*
X205342900Y-118872000D01*
X92964000Y-87884000D02*
X91787100Y-87884000D01*
X91787100Y-88251900D02*
X91787100Y-87884000D01*
X76294400Y-92020200D02*
X75800300Y-92514300D01*
X118266100Y-135017800D02*
X122789500Y-130494400D01*
X62644900Y-87884000D02*
X63821800Y-89060900D01*
X204216000Y-118872000D02*
X203089100Y-118872000D01*
X77216000Y-87884000D02*
X77216000Y-89060900D01*
X122789500Y-130494400D02*
X128890600Y-130494400D01*
X175478900Y-130167200D02*
X166469400Y-130167200D01*
X77216000Y-89060900D02*
X77581800Y-89060900D01*
X140940000Y-133853000D02*
X139813100Y-133853000D01*
X90978100Y-89060900D02*
X91787100Y-88251900D01*
X84029500Y-89060900D02*
X90978100Y-89060900D01*
X234696000Y-122035100D02*
X208506000Y-122035100D01*
X138467800Y-132507700D02*
X139813100Y-133853000D01*
X141503500Y-133853000D02*
X142066900Y-133853000D01*
X166469400Y-130167200D02*
X163917900Y-127615700D01*
X76250900Y-93538600D02*
X79551800Y-93538600D01*
X130903900Y-132507700D02*
X138467800Y-132507700D01*
X187964700Y-117681400D02*
X175478900Y-130167200D01*
X61468000Y-87884000D02*
X62644900Y-87884000D01*
X79551800Y-93538600D02*
X84029500Y-89060900D01*
X201898500Y-117681400D02*
X187964700Y-117681400D01*
X141503500Y-133853000D02*
X140940000Y-133853000D01*
X75800300Y-92514300D02*
X75800300Y-93088000D01*
X117441000Y-135017800D02*
X118266100Y-135017800D01*
X77581800Y-89060900D02*
X78413900Y-89893000D01*
X204373200Y-118872000D02*
X205342900Y-118872000D01*
X203089100Y-118872000D02*
X201898500Y-117681400D01*
X204373200Y-118872000D02*
X204216000Y-118872000D01*
X163917900Y-127615700D02*
X147507300Y-127615700D01*
%TO.N,OE*%
X74676000Y-85344000D02*
X75852900Y-85344000D01*
X124988000Y-107769100D02*
X116574000Y-107769100D01*
X60104900Y-85344000D02*
X60104900Y-84976200D01*
X114872200Y-106067300D02*
X108030500Y-106067300D01*
X189975300Y-107754600D02*
X154500900Y-107754600D01*
X91614600Y-84153400D02*
X93452300Y-84153400D01*
X151789200Y-105042900D02*
X139155800Y-105042900D01*
X60927700Y-84153400D02*
X72308500Y-84153400D01*
X89835600Y-85344000D02*
X89247100Y-85344000D01*
X90424000Y-85344000D02*
X91614600Y-84153400D01*
X116574000Y-107769100D02*
X114872200Y-106067300D01*
X93452300Y-84153400D02*
X98810500Y-89511600D01*
X75852900Y-84978200D02*
X75852900Y-85344000D01*
X154500900Y-107754600D02*
X151789200Y-105042900D01*
X76677700Y-84153400D02*
X75852900Y-84978200D01*
X89835600Y-85344000D02*
X90424000Y-85344000D01*
X137171000Y-107389900D02*
X125367200Y-107389900D01*
X88056500Y-84153400D02*
X76677700Y-84153400D01*
X139155800Y-105042900D02*
X137171000Y-107027700D01*
X72308500Y-84153400D02*
X73499100Y-85344000D01*
X98810500Y-89511600D02*
X100394000Y-89511600D01*
X125367200Y-107389900D02*
X124988000Y-107769100D01*
X58928000Y-85344000D02*
X60104900Y-85344000D01*
X74676000Y-85344000D02*
X73499100Y-85344000D01*
X190389300Y-108168600D02*
X189975300Y-107754600D01*
X138678200Y-123170900D02*
X138678200Y-121355500D01*
X60104900Y-84976200D02*
X60927700Y-84153400D01*
X137171000Y-107027700D02*
X137171000Y-107389900D01*
X89247100Y-85344000D02*
X88056500Y-84153400D01*
%TO.N,1CB2*%
X117973700Y-41308900D02*
X117109000Y-41308900D01*
X126998600Y-50333800D02*
X117973700Y-41308900D01*
X117109000Y-40132000D02*
X117109000Y-41308900D01*
%TO.N,1CB1*%
X120825900Y-40917500D02*
X120825900Y-40132000D01*
X129410700Y-49502300D02*
X120825900Y-40917500D01*
X119649000Y-40132000D02*
X120825900Y-40132000D01*
%TO.N,1CA1*%
X132800200Y-49932100D02*
X123365900Y-40497800D01*
X150760100Y-51059000D02*
X149633200Y-49932100D01*
X122189000Y-40132000D02*
X123365900Y-40132000D01*
X151887000Y-51059000D02*
X150760100Y-51059000D01*
X149633200Y-49932100D02*
X132800200Y-49932100D01*
X123365900Y-40497800D02*
X123365900Y-40132000D01*
%TO.N,1CA2*%
X151887000Y-53599000D02*
X151887000Y-52472100D01*
X153063500Y-50629300D02*
X150334100Y-47899900D01*
X125905900Y-40497800D02*
X125905900Y-40132000D01*
X152168700Y-52472100D02*
X153063500Y-51577300D01*
X133308000Y-47899900D02*
X125905900Y-40497800D01*
X150334100Y-47899900D02*
X133308000Y-47899900D01*
X153063500Y-51577300D02*
X153063500Y-50629300D01*
X124729000Y-40132000D02*
X125905900Y-40132000D01*
X151887000Y-52472100D02*
X152168700Y-52472100D01*
%TO.N,decode0*%
X148336000Y-114300000D02*
X142833900Y-114300000D01*
X142833900Y-114300000D02*
X142066900Y-113533000D01*
X140940000Y-113533000D02*
X142066900Y-113533000D01*
%TO.N,decode1*%
X147159100Y-116840000D02*
X146392100Y-116073000D01*
X140940000Y-116073000D02*
X142066900Y-116073000D01*
X146392100Y-116073000D02*
X142066900Y-116073000D01*
X148336000Y-116840000D02*
X147159100Y-116840000D01*
%TO.N,decode2*%
X140940000Y-121153000D02*
X142066900Y-121153000D01*
X148336000Y-119380000D02*
X147159100Y-119380000D01*
X147159100Y-119380000D02*
X145386100Y-121153000D01*
X145386100Y-121153000D02*
X142066900Y-121153000D01*
%TO.N,decode3*%
X140940000Y-123693000D02*
X142066900Y-123693000D01*
X145386100Y-123693000D02*
X147159100Y-121920000D01*
X142066900Y-123693000D02*
X145386100Y-123693000D01*
X148336000Y-121920000D02*
X147159100Y-121920000D01*
%TO.N,Net-(C22-Pad1)*%
X69104000Y-194564000D02*
X70899100Y-192768900D01*
X81788000Y-175260000D02*
X76708000Y-170180000D01*
X70899100Y-192768900D02*
X73931100Y-192768900D01*
X76708000Y-170180000D02*
X71628000Y-170180000D01*
X73931100Y-192768900D02*
X81788000Y-184912000D01*
%TO.N,Net-(J6-Pad1)*%
X63956900Y-100600200D02*
X66925100Y-97632000D01*
X63956900Y-101150500D02*
X63956900Y-100600200D01*
X61880000Y-101150500D02*
X63956900Y-101150500D01*
X68152000Y-97632000D02*
X66925100Y-97632000D01*
%TO.N,1pa4*%
X63996500Y-112105300D02*
X71902000Y-104199800D01*
X83337200Y-91691200D02*
X99242400Y-91691200D01*
X134649600Y-64629500D02*
X124767000Y-64629500D01*
X107154000Y-85233100D02*
X109915300Y-85233100D01*
X104837400Y-87549700D02*
X107154000Y-85233100D01*
X52098700Y-112105300D02*
X63996500Y-112105300D01*
X99242400Y-91691200D02*
X101421400Y-89512200D01*
X135520100Y-63759000D02*
X134649600Y-64629500D01*
X136647000Y-63759000D02*
X135520100Y-63759000D01*
X50032000Y-114172000D02*
X52098700Y-112105300D01*
X124767000Y-64629500D02*
X123092000Y-66304500D01*
X71902000Y-104199800D02*
X71902000Y-103126400D01*
X109915300Y-85233100D02*
X114739400Y-80409000D01*
X102287500Y-87549700D02*
X104837400Y-87549700D01*
X101421400Y-89512200D02*
X101421400Y-88415800D01*
X71902000Y-103126400D02*
X83337200Y-91691200D01*
X114739400Y-80409000D02*
X114739400Y-77592500D01*
X123092000Y-66304500D02*
X123092000Y-66633900D01*
X101421400Y-88415800D02*
X102287500Y-87549700D01*
%TO.N,1pa5*%
X118703400Y-87513900D02*
X128671400Y-87513900D01*
X113507300Y-92710000D02*
X118703400Y-87513900D01*
X55043200Y-115187700D02*
X59224100Y-115187700D01*
X53958900Y-116272000D02*
X55043200Y-115187700D01*
X59224100Y-115187700D02*
X61412900Y-117376500D01*
X108602600Y-92710000D02*
X113507300Y-92710000D01*
X106937300Y-94375300D02*
X108602600Y-92710000D01*
X61412900Y-117376500D02*
X69396100Y-117376500D01*
X101598200Y-98162900D02*
X105385800Y-94375300D01*
X88609700Y-98162900D02*
X101598200Y-98162900D01*
X128671400Y-87513900D02*
X130239700Y-85945600D01*
X52832000Y-116272000D02*
X53958900Y-116272000D01*
X69396100Y-117376500D02*
X88609700Y-98162900D01*
X105385800Y-94375300D02*
X106937300Y-94375300D01*
%TO.N,IO6*%
X149009300Y-139192000D02*
X149004900Y-139192000D01*
X149890300Y-140073000D02*
X149009300Y-139192000D01*
X160528000Y-138933000D02*
X159401100Y-138933000D01*
X158261100Y-140073000D02*
X149890300Y-140073000D01*
X159401100Y-138933000D02*
X158261100Y-140073000D01*
X147828000Y-139192000D02*
X149004900Y-139192000D01*
%TO.N,IO7*%
X160528000Y-136393000D02*
X159401100Y-136393000D01*
X147828000Y-136652000D02*
X149004900Y-136652000D01*
X149889500Y-137536600D02*
X158257500Y-137536600D01*
X158257500Y-137536600D02*
X159401100Y-136393000D01*
X149004900Y-136652000D02*
X149889500Y-137536600D01*
%TO.N,IO8*%
X147828000Y-134112000D02*
X149004900Y-134112000D01*
X159401100Y-133853000D02*
X158274200Y-134979900D01*
X158274200Y-134979900D02*
X149872800Y-134979900D01*
X149872800Y-134979900D02*
X149004900Y-134112000D01*
X160528000Y-133853000D02*
X159401100Y-133853000D01*
%TO.N,IO10*%
X149889500Y-129916600D02*
X149004900Y-129032000D01*
X159401100Y-128773000D02*
X159380200Y-128752100D01*
X156447600Y-129916600D02*
X149889500Y-129916600D01*
X147828000Y-129032000D02*
X149004900Y-129032000D01*
X157612100Y-128752100D02*
X156447600Y-129916600D01*
X160528000Y-128773000D02*
X159401100Y-128773000D01*
X159380200Y-128752100D02*
X157612100Y-128752100D01*
%TO.N,Net-(C27-Pad1)*%
X79208000Y-190500000D02*
X82296000Y-190500000D01*
X82296000Y-190500000D02*
X88392000Y-184404000D01*
%TO.N,Net-(U13-T1OUT)*%
X167890500Y-211656400D02*
X82990700Y-211656400D01*
X217118800Y-191141100D02*
X216341900Y-190364200D01*
X67976200Y-190954000D02*
X72781100Y-186149100D01*
X181831500Y-196742200D02*
X181831500Y-197715400D01*
X228642200Y-191141100D02*
X217118800Y-191141100D01*
X72781100Y-186149100D02*
X72781100Y-184308500D01*
X62086900Y-163208900D02*
X60960000Y-162082000D01*
X67976200Y-196641900D02*
X67976200Y-190954000D01*
X216341900Y-190364200D02*
X209026200Y-190364200D01*
X62086900Y-173614300D02*
X62086900Y-163208900D01*
X82990700Y-211656400D02*
X67976200Y-196641900D01*
X187072700Y-191501000D02*
X181831500Y-196742200D01*
X229769100Y-192268000D02*
X228642200Y-191141100D01*
X230896000Y-192268000D02*
X229769100Y-192268000D01*
X181831500Y-197715400D02*
X167890500Y-211656400D01*
X207889400Y-191501000D02*
X187072700Y-191501000D01*
X209026200Y-190364200D02*
X207889400Y-191501000D01*
X72781100Y-184308500D02*
X62086900Y-173614300D01*
%TO.N,PSG1IOB3*%
X107776600Y-188701500D02*
X116138100Y-180340000D01*
X93632900Y-199644000D02*
X93632900Y-199342700D01*
X92456000Y-199644000D02*
X93632900Y-199644000D01*
X130556000Y-180340000D02*
X129429100Y-180340000D01*
X93632900Y-199342700D02*
X104274100Y-188701500D01*
X104274100Y-188701500D02*
X107776600Y-188701500D01*
X116138100Y-180340000D02*
X129429100Y-180340000D01*
%TO.N,PSG1IOB4*%
X102579100Y-187836500D02*
X104832600Y-187836500D01*
X91092900Y-199644000D02*
X91092900Y-199322700D01*
X89916000Y-199644000D02*
X91092900Y-199644000D01*
X104832600Y-187836500D02*
X114869100Y-177800000D01*
X114869100Y-177800000D02*
X130556000Y-177800000D01*
X91092900Y-199322700D02*
X102579100Y-187836500D01*
%TO.N,PSG1IOB5*%
X88552900Y-199298000D02*
X88552900Y-199644000D01*
X87376000Y-199644000D02*
X88552900Y-199644000D01*
X100691400Y-187159500D02*
X88552900Y-199298000D01*
X130556000Y-175260000D02*
X129429100Y-175260000D01*
X129429100Y-175260000D02*
X128014500Y-176674600D01*
X128014500Y-176674600D02*
X115338400Y-176674600D01*
X115338400Y-176674600D02*
X104853500Y-187159500D01*
X104853500Y-187159500D02*
X100691400Y-187159500D01*
%TO.N,PSG1IOB6*%
X130556000Y-172720000D02*
X129429100Y-172720000D01*
X84836000Y-198919200D02*
X84836000Y-199644000D01*
X97698600Y-186056600D02*
X84836000Y-198919200D01*
X129044800Y-173104300D02*
X117599400Y-173104300D01*
X117599400Y-173104300D02*
X104647100Y-186056600D01*
X104647100Y-186056600D02*
X97698600Y-186056600D01*
X129429100Y-172720000D02*
X129044800Y-173104300D01*
%TO.N,PSG1IOB7*%
X83472900Y-199257800D02*
X83472900Y-199644000D01*
X118491400Y-171572200D02*
X111209800Y-178853800D01*
X111209800Y-178853800D02*
X108304500Y-178853800D01*
X129429100Y-170180000D02*
X128036900Y-171572200D01*
X82296000Y-199644000D02*
X83472900Y-199644000D01*
X128036900Y-171572200D02*
X118491400Y-171572200D01*
X97126000Y-185604700D02*
X83472900Y-199257800D01*
X130556000Y-170180000D02*
X129429100Y-170180000D01*
X101553600Y-185604700D02*
X97126000Y-185604700D01*
X108304500Y-178853800D02*
X101553600Y-185604700D01*
%TO.N,PSG1IOA5*%
X116633100Y-195580000D02*
X130556000Y-195580000D01*
X112936900Y-199276200D02*
X116633100Y-195580000D01*
X111760000Y-199644000D02*
X112936900Y-199644000D01*
X112936900Y-199644000D02*
X112936900Y-199276200D01*
%TO.N,PSG1IOA6*%
X130556000Y-193040000D02*
X129429100Y-193040000D01*
X110396900Y-199276200D02*
X116628600Y-193044500D01*
X116628600Y-193044500D02*
X129424600Y-193044500D01*
X110396900Y-199644000D02*
X110396900Y-199276200D01*
X109220000Y-199644000D02*
X110396900Y-199644000D01*
X129424600Y-193044500D02*
X129429100Y-193040000D01*
%TO.N,PSG1IOA7*%
X130556000Y-190500000D02*
X129429100Y-190500000D01*
X107856900Y-199276200D02*
X114540500Y-192592600D01*
X107856900Y-199644000D02*
X107856900Y-199276200D01*
X114540500Y-192592600D02*
X127336500Y-192592600D01*
X127336500Y-192592600D02*
X129429100Y-190500000D01*
X106680000Y-199644000D02*
X107856900Y-199644000D01*
%TO.N,PSG2IOA0*%
X125128900Y-209296000D02*
X125617400Y-208807500D01*
X168017600Y-208807500D02*
X171085100Y-205740000D01*
X172212000Y-205740000D02*
X171085100Y-205740000D01*
X125617400Y-208807500D02*
X168017600Y-208807500D01*
X123952000Y-209296000D02*
X125128900Y-209296000D01*
%TO.N,PSG2IOA1*%
X122956600Y-208119100D02*
X153466000Y-208119100D01*
X122588900Y-209296000D02*
X122588900Y-208486800D01*
X122588900Y-208486800D02*
X122956600Y-208119100D01*
X156972000Y-205740000D02*
X155845100Y-205740000D01*
X153466000Y-208119100D02*
X155845100Y-205740000D01*
X121412000Y-209296000D02*
X122588900Y-209296000D01*
%TO.N,PSG2IOA2*%
X120048900Y-209296000D02*
X120048900Y-208928200D01*
X120048900Y-208928200D02*
X124434700Y-204542400D01*
X118872000Y-209296000D02*
X120048900Y-209296000D01*
X154502700Y-204542400D02*
X155845100Y-203200000D01*
X156972000Y-203200000D02*
X155845100Y-203200000D01*
X124434700Y-204542400D02*
X154502700Y-204542400D01*
%TO.N,PSG2IOA3*%
X117508900Y-208928200D02*
X124507100Y-201930000D01*
X156972000Y-200660000D02*
X155845100Y-200660000D01*
X154575100Y-201930000D02*
X155845100Y-200660000D01*
X117508900Y-209296000D02*
X117508900Y-208928200D01*
X124507100Y-201930000D02*
X154575100Y-201930000D01*
X116332000Y-209296000D02*
X117508900Y-209296000D01*
%TO.N,PSG2IOA4*%
X154575100Y-199390000D02*
X155845100Y-198120000D01*
X114968900Y-208928200D02*
X122569800Y-201327300D01*
X128661600Y-199390000D02*
X154575100Y-199390000D01*
X114968900Y-209296000D02*
X114968900Y-208928200D01*
X113792000Y-209296000D02*
X114968900Y-209296000D01*
X156972000Y-198120000D02*
X155845100Y-198120000D01*
X126724300Y-201327300D02*
X128661600Y-199390000D01*
X122569800Y-201327300D02*
X126724300Y-201327300D01*
%TO.N,PSG2IOA5*%
X147712800Y-198451300D02*
X152973800Y-198451300D01*
X156972000Y-195580000D02*
X155845100Y-195580000D01*
X152973800Y-198451300D02*
X155845100Y-195580000D01*
%TO.N,PSG2IOA6*%
X153345000Y-210472900D02*
X110697900Y-210472900D01*
X109888900Y-209663900D02*
X109888900Y-209296000D01*
X110697900Y-210472900D02*
X109888900Y-209663900D01*
X108712000Y-209296000D02*
X109888900Y-209296000D01*
X154770700Y-209992000D02*
X153825900Y-209992000D01*
X153825900Y-209992000D02*
X153345000Y-210472900D01*
%TO.N,PSG2IOA7*%
X129418400Y-196850000D02*
X149495100Y-196850000D01*
X107348900Y-209296000D02*
X107348900Y-208928200D01*
X149495100Y-196850000D02*
X155845100Y-190500000D01*
X106172000Y-209296000D02*
X107348900Y-209296000D01*
X156972000Y-190500000D02*
X155845100Y-190500000D01*
X115401700Y-200875400D02*
X125393000Y-200875400D01*
X125393000Y-200875400D02*
X129418400Y-196850000D01*
X107348900Y-208928200D02*
X115401700Y-200875400D01*
%TO.N,PSG2IOB0*%
X154575100Y-189230000D02*
X124226000Y-189230000D01*
X156972000Y-187960000D02*
X155845100Y-187960000D01*
X112497600Y-192139200D02*
X100076000Y-204560800D01*
X100076000Y-204560800D02*
X100076000Y-209296000D01*
X155845100Y-187960000D02*
X154575100Y-189230000D01*
X121316800Y-192139200D02*
X112497600Y-192139200D01*
X124226000Y-189230000D02*
X121316800Y-192139200D01*
%TO.N,PSG2IOB1*%
X97536000Y-206454900D02*
X117163400Y-186827500D01*
X156972000Y-185420000D02*
X155845100Y-185420000D01*
X139970100Y-186984300D02*
X140264400Y-186690000D01*
X97536000Y-209296000D02*
X97536000Y-206454900D01*
X154575100Y-186690000D02*
X155845100Y-185420000D01*
X140264400Y-186690000D02*
X154575100Y-186690000D01*
X137875500Y-186984300D02*
X139970100Y-186984300D01*
X137718700Y-186827500D02*
X137875500Y-186984300D01*
X117163400Y-186827500D02*
X137718700Y-186827500D01*
%TO.N,PSG2IOB2*%
X154217300Y-182880000D02*
X152947300Y-184150000D01*
X141484000Y-184150000D02*
X139394400Y-186239600D01*
X156972000Y-182880000D02*
X154217300Y-182880000D01*
X152947300Y-184150000D02*
X141484000Y-184150000D01*
%TO.N,PSG2IOB3*%
X133353300Y-184150000D02*
X135809100Y-181694200D01*
X135809100Y-181694200D02*
X146342700Y-181694200D01*
X93632900Y-208936700D02*
X100621000Y-201948600D01*
X156972000Y-180340000D02*
X155845100Y-180340000D01*
X93632900Y-209296000D02*
X93632900Y-208936700D01*
X92456000Y-209296000D02*
X93632900Y-209296000D01*
X100700500Y-201948600D02*
X118499100Y-184150000D01*
X118499100Y-184150000D02*
X133353300Y-184150000D01*
X146342700Y-181694200D02*
X147696900Y-180340000D01*
X147696900Y-180340000D02*
X155845100Y-180340000D01*
X100621000Y-201948600D02*
X100700500Y-201948600D01*
%TO.N,PSG2IOB4*%
X100593200Y-201337400D02*
X98685700Y-201337400D01*
X98685700Y-201337400D02*
X91092900Y-208930200D01*
X89916000Y-209296000D02*
X91092900Y-209296000D01*
X146289700Y-179070100D02*
X134221300Y-179070100D01*
X134221300Y-179070100D02*
X131792300Y-181499100D01*
X91092900Y-208930200D02*
X91092900Y-209296000D01*
X147092900Y-178266900D02*
X146289700Y-179070100D01*
X120431500Y-181499100D02*
X100593200Y-201337400D01*
X156972000Y-177800000D02*
X155845100Y-177800000D01*
X155378200Y-178266900D02*
X147092900Y-178266900D01*
X155845100Y-177800000D02*
X155378200Y-178266900D01*
X131792300Y-181499100D02*
X120431500Y-181499100D01*
%TO.N,PSG2IOB5*%
X134221400Y-176530000D02*
X131538300Y-179213100D01*
X155845100Y-175260000D02*
X148198800Y-175260000D01*
X146928800Y-176530000D02*
X134221400Y-176530000D01*
X156972000Y-175260000D02*
X155845100Y-175260000D01*
X131538300Y-179213100D02*
X114494300Y-179213100D01*
X148198800Y-175260000D02*
X146928800Y-176530000D01*
%TO.N,PSG2IOB6*%
X124032500Y-176069200D02*
X115273600Y-176069200D01*
X156972000Y-172720000D02*
X155845100Y-172720000D01*
X126115500Y-173986200D02*
X124032500Y-176069200D01*
X97739700Y-186654600D02*
X86012900Y-198381400D01*
X104688200Y-186654600D02*
X97739700Y-186654600D01*
X115273600Y-176069200D02*
X104688200Y-186654600D01*
X84836000Y-209296000D02*
X84836000Y-208119100D01*
X86012900Y-198381400D02*
X86012900Y-206942200D01*
X146430700Y-173986200D02*
X126115500Y-173986200D01*
X147696900Y-172720000D02*
X146430700Y-173986200D01*
X155845100Y-172720000D02*
X147696900Y-172720000D01*
X86012900Y-206942200D02*
X84836000Y-208119100D01*
%TO.N,PSG2IOB7*%
X83472900Y-209296000D02*
X83472900Y-209661800D01*
X84737100Y-210926000D02*
X153924900Y-210926000D01*
X83472900Y-209661800D02*
X84737100Y-210926000D01*
X153924900Y-210926000D02*
X153928100Y-210922800D01*
X82296000Y-209296000D02*
X83472900Y-209296000D01*
%TO.N,Net-(Q1-D)*%
X68874600Y-95356800D02*
X70652000Y-97134200D01*
X53340000Y-88900000D02*
X52013100Y-90226900D01*
X70652000Y-97134200D02*
X70652000Y-97632000D01*
X52013100Y-92528000D02*
X54841900Y-95356800D01*
X52013100Y-90226900D02*
X52013100Y-92528000D01*
X54841900Y-95356800D02*
X68874600Y-95356800D01*
%TO.N,Net-(R1-Pad2)*%
X86248100Y-119887000D02*
X86248100Y-119770100D01*
X87265100Y-120904000D02*
X86248100Y-119887000D01*
X66854000Y-125548000D02*
X73354000Y-125548000D01*
X73354000Y-124167300D02*
X77751200Y-119770100D01*
X86248100Y-119770100D02*
X86248100Y-119602800D01*
X88392000Y-120904000D02*
X87265100Y-120904000D01*
X77751200Y-119770100D02*
X86248100Y-119770100D01*
X88392000Y-116332000D02*
X88392000Y-117458900D01*
X73354000Y-125548000D02*
X73354000Y-124167300D01*
X86248100Y-119602800D02*
X88392000Y-117458900D01*
%TO.N,1pa1*%
X165512400Y-118683200D02*
X165512400Y-115145500D01*
X138240800Y-56605900D02*
X150590100Y-56605900D01*
X160632500Y-57409100D02*
X166884400Y-63661000D01*
X137773900Y-56139000D02*
X138240800Y-56605900D01*
X136647000Y-56139000D02*
X137773900Y-56139000D01*
X167396000Y-120285100D02*
X167114300Y-120285100D01*
X151393300Y-57409100D02*
X160632500Y-57409100D01*
X167114300Y-120285100D02*
X165512400Y-118683200D01*
X150590100Y-56605900D02*
X151393300Y-57409100D01*
X167396000Y-121412000D02*
X167396000Y-120285100D01*
%TO.N,1pa2*%
X149710900Y-59851500D02*
X148538400Y-58679000D01*
X166417500Y-65417200D02*
X160851800Y-59851500D01*
X148538400Y-58679000D02*
X136647000Y-58679000D01*
X160851800Y-59851500D02*
X149710900Y-59851500D01*
%TO.N,1pa3*%
X156367400Y-62489000D02*
X166875300Y-72996900D01*
X150807600Y-62489000D02*
X156367400Y-62489000D01*
X138240800Y-61685900D02*
X150004500Y-61685900D01*
X150004500Y-61685900D02*
X150807600Y-62489000D01*
X137773900Y-61219000D02*
X138240800Y-61685900D01*
X136647000Y-61219000D02*
X137773900Y-61219000D01*
%TO.N,1pb7*%
X88392000Y-106172000D02*
X94228200Y-106172000D01*
X136647000Y-91699000D02*
X135520100Y-91699000D01*
X112750800Y-95106900D02*
X117571800Y-90285900D01*
X105293300Y-95106900D02*
X112750800Y-95106900D01*
X94228200Y-106172000D02*
X105293300Y-95106900D01*
X117571800Y-90285900D02*
X134107000Y-90285900D01*
X134107000Y-90285900D02*
X135520100Y-91699000D01*
%TO.N,Net-(U13-R1IN)*%
X218081800Y-198749200D02*
X225466700Y-198749200D01*
X60960000Y-159312000D02*
X59276400Y-160995600D01*
X50901400Y-174390600D02*
X50901400Y-185110800D01*
X77907600Y-212117000D02*
X204714000Y-212117000D01*
X50901400Y-185110800D02*
X77907600Y-212117000D01*
X227767000Y-201049500D02*
X231357700Y-201049500D01*
X59276400Y-160995600D02*
X59276400Y-166015600D01*
X204714000Y-212117000D02*
X218081800Y-198749200D01*
X225466700Y-198749200D02*
X227767000Y-201049500D01*
X232555600Y-196467600D02*
X230896000Y-194808000D01*
X231357700Y-201049500D02*
X232555600Y-199851600D01*
X232555600Y-199851600D02*
X232555600Y-196467600D01*
X59276400Y-166015600D02*
X50901400Y-174390600D01*
%TO.N,Net-(U15-ch_C)*%
X81788000Y-170180000D02*
X82914900Y-170180000D01*
X124719500Y-161427400D02*
X123245500Y-162901400D01*
X143536500Y-161427400D02*
X124719500Y-161427400D01*
X145796000Y-162560000D02*
X144669100Y-162560000D01*
X123245500Y-162901400D02*
X90193500Y-162901400D01*
X144669100Y-162560000D02*
X143536500Y-161427400D01*
X90193500Y-162901400D02*
X82914900Y-170180000D01*
%TO.N,Net-(U15-ch_B)*%
X77198000Y-176386900D02*
X74941500Y-174130400D01*
X70494700Y-174798700D02*
X70494700Y-177571800D01*
X129429100Y-162560000D02*
X128476800Y-163512300D01*
X70494700Y-177571800D02*
X71628000Y-178705100D01*
X84054900Y-176386900D02*
X77198000Y-176386900D01*
X130556000Y-162560000D02*
X129429100Y-162560000D01*
X96929500Y-163512300D02*
X84054900Y-176386900D01*
X71163000Y-174130400D02*
X70494700Y-174798700D01*
X128476800Y-163512300D02*
X96929500Y-163512300D01*
X71628000Y-179832000D02*
X71628000Y-178705100D01*
X74941500Y-174130400D02*
X71163000Y-174130400D01*
%TO.N,Net-(U15-ch_A)*%
X129429100Y-165100000D02*
X129429100Y-165216800D01*
X127076700Y-166930200D02*
X104117300Y-166930200D01*
X94162700Y-176884800D02*
X74379700Y-176884800D01*
X130556000Y-165100000D02*
X129429100Y-165100000D01*
X129429100Y-165216800D02*
X128727800Y-165918100D01*
X104117300Y-166930200D02*
X94162700Y-176884800D01*
X128088800Y-165918100D02*
X127076700Y-166930200D01*
X71628000Y-175260000D02*
X72754900Y-175260000D01*
X128727800Y-165918100D02*
X128088800Y-165918100D01*
X74379700Y-176884800D02*
X72754900Y-175260000D01*
%TO.N,1VIA_IRQ*%
X151887000Y-99319000D02*
X150760100Y-99319000D01*
X122940600Y-104555500D02*
X122940600Y-104702100D01*
X149633200Y-100445900D02*
X127050200Y-100445900D01*
X127050200Y-100445900D02*
X122940600Y-104555500D01*
X150760100Y-99319000D02*
X149633200Y-100445900D01*
%TO.N,ACIA_IRQ*%
X143009600Y-156325700D02*
X145433900Y-158750000D01*
X161971800Y-161290000D02*
X172737300Y-161290000D01*
X172737300Y-161290000D02*
X185311400Y-173864100D01*
X117966900Y-147320000D02*
X119236900Y-148590000D01*
X143009600Y-153103900D02*
X143009600Y-156325700D01*
X145433900Y-158750000D02*
X159431800Y-158750000D01*
X200438200Y-173864100D02*
X201565100Y-174991000D01*
X119236900Y-148590000D02*
X138495700Y-148590000D01*
X159431800Y-158750000D02*
X161971800Y-161290000D01*
X116840000Y-147320000D02*
X117966900Y-147320000D01*
X138495700Y-148590000D02*
X143009600Y-153103900D01*
X185311400Y-173864100D02*
X200438200Y-173864100D01*
X202692000Y-174991000D02*
X201565100Y-174991000D01*
%TO.N,ACIA_CS*%
X185049400Y-172218900D02*
X185049500Y-172218900D01*
X164004500Y-150068100D02*
X166394900Y-150068100D01*
X185049400Y-168722600D02*
X185049400Y-172218900D01*
X166394900Y-150068100D02*
X185049400Y-168722600D01*
%TO.N,PSG1_CS*%
X116840000Y-121153000D02*
X116840000Y-120026100D01*
X147828100Y-118145900D02*
X147119300Y-117437100D01*
X115690600Y-115575800D02*
X116606500Y-114659900D01*
X152908000Y-118613000D02*
X151781100Y-118613000D01*
X116840000Y-113533000D02*
X116840000Y-114659900D01*
X121871000Y-117437100D02*
X117966900Y-113533000D01*
X116606500Y-114659900D02*
X116840000Y-114659900D01*
X147119300Y-117437100D02*
X121871000Y-117437100D01*
X116840000Y-113533000D02*
X117966900Y-113533000D01*
X115690600Y-119158400D02*
X115690600Y-115575800D01*
X151314000Y-118145900D02*
X147828100Y-118145900D01*
X151781100Y-118613000D02*
X151314000Y-118145900D01*
X116840000Y-120026100D02*
X116558300Y-120026100D01*
X116558300Y-120026100D02*
X115690600Y-119158400D01*
%TO.N,PSG2_CS*%
X125586900Y-118613000D02*
X126856900Y-119883000D01*
X124460000Y-118613000D02*
X125586900Y-118613000D01*
X126856900Y-119883000D02*
X145028100Y-119883000D01*
%TO.N,ROM_CS*%
X163204000Y-149840800D02*
X148252200Y-149840800D01*
X236037200Y-142949900D02*
X236037200Y-154011800D01*
X234696000Y-140862000D02*
X234696000Y-141908900D01*
X236037200Y-154011800D02*
X235420500Y-154628500D01*
X235420500Y-154628500D02*
X183163400Y-154628500D01*
X163204000Y-149840700D02*
X163204000Y-149840800D01*
X177876100Y-149341200D02*
X163703500Y-149341200D01*
X163703500Y-149341200D02*
X163204000Y-149840700D01*
X234696000Y-141908900D02*
X234996200Y-141908900D01*
X234996200Y-141908900D02*
X236037200Y-142949900D01*
X183163400Y-154628500D02*
X177876100Y-149341200D01*
%TO.N,RAM_CS*%
X204216000Y-136652000D02*
X192086300Y-136652000D01*
X145769900Y-146955200D02*
X145769900Y-146295600D01*
X171424600Y-140868600D02*
X164304300Y-147988900D01*
X192086300Y-136652000D02*
X190924800Y-135490500D01*
X146803600Y-147988900D02*
X145769900Y-146955200D01*
X164304300Y-147988900D02*
X146803600Y-147988900D01*
X180100700Y-140868600D02*
X171424600Y-140868600D01*
X185478800Y-135490500D02*
X180100700Y-140868600D01*
X190924800Y-135490500D02*
X185478800Y-135490500D01*
%TO.N,2pa0*%
X103792900Y-52085000D02*
X107346100Y-52085000D01*
X102616000Y-52085000D02*
X103792900Y-52085000D01*
X107346100Y-52085000D02*
X108601100Y-53340000D01*
X109728000Y-53340000D02*
X108601100Y-53340000D01*
%TO.N,2pa1*%
X103792900Y-54625000D02*
X105047900Y-55880000D01*
X102616000Y-54625000D02*
X103792900Y-54625000D01*
X109728000Y-55880000D02*
X108601100Y-55880000D01*
X105047900Y-55880000D02*
X108601100Y-55880000D01*
%TO.N,2pa2*%
X109728000Y-58420000D02*
X108601100Y-58420000D01*
X107346100Y-57165000D02*
X108601100Y-58420000D01*
X102616000Y-57165000D02*
X103792900Y-57165000D01*
X103792900Y-57165000D02*
X107346100Y-57165000D01*
%TO.N,2pa3*%
X109728000Y-60960000D02*
X108601100Y-60960000D01*
X102616000Y-59705000D02*
X103792900Y-59705000D01*
X108601100Y-60960000D02*
X107833700Y-60192600D01*
X104280500Y-60192600D02*
X103792900Y-59705000D01*
X107833700Y-60192600D02*
X104280500Y-60192600D01*
%TO.N,2pa4*%
X109728000Y-63500000D02*
X108601100Y-63500000D01*
X108601100Y-63500000D02*
X107833700Y-62732600D01*
X102616000Y-62245000D02*
X103792900Y-62245000D01*
X107833700Y-62732600D02*
X104280500Y-62732600D01*
X104280500Y-62732600D02*
X103792900Y-62245000D01*
%TO.N,2pa5*%
X108149200Y-65588100D02*
X104596000Y-65588100D01*
X102616000Y-64785000D02*
X103792900Y-64785000D01*
X104596000Y-65588100D02*
X103792900Y-64785000D01*
X109728000Y-66040000D02*
X108601100Y-66040000D01*
X108601100Y-66040000D02*
X108149200Y-65588100D01*
%TO.N,2pa6*%
X109728000Y-68580000D02*
X108601100Y-68580000D01*
X108601100Y-68580000D02*
X107833700Y-67812600D01*
X102616000Y-67325000D02*
X103792900Y-67325000D01*
X104280500Y-67812600D02*
X103792900Y-67325000D01*
X107833700Y-67812600D02*
X104280500Y-67812600D01*
%TO.N,2pa7*%
X102616000Y-69865000D02*
X103792900Y-69865000D01*
X109728000Y-71120000D02*
X105047900Y-71120000D01*
X105047900Y-71120000D02*
X103792900Y-69865000D01*
%TO.N,1pa6*%
X122736500Y-69747300D02*
X110142200Y-57153000D01*
X110142200Y-57153000D02*
X108668400Y-57153000D01*
X135520100Y-68839000D02*
X134611800Y-69747300D01*
X136647000Y-68839000D02*
X135520100Y-68839000D01*
X134611800Y-69747300D02*
X122736500Y-69747300D01*
%TO.N,1pa7*%
X93044800Y-108339400D02*
X79126100Y-108339400D01*
X64439600Y-123025900D02*
X63784800Y-123025900D01*
X134649500Y-72249600D02*
X122976900Y-72249600D01*
X103662000Y-97722200D02*
X93044800Y-108339400D01*
X122976900Y-72249600D02*
X122669200Y-71941900D01*
X136647000Y-71379000D02*
X135520100Y-71379000D01*
X53864900Y-132945800D02*
X53864900Y-133320000D01*
X52738000Y-133320000D02*
X53864900Y-133320000D01*
X79126100Y-108339400D02*
X64439600Y-123025900D01*
X108922800Y-97722200D02*
X103662000Y-97722200D01*
X135520100Y-71379000D02*
X134649500Y-72249600D01*
X63784800Y-123025900D02*
X53864900Y-132945800D01*
%TO.N,1pb0*%
X151127600Y-75060500D02*
X173421800Y-75060500D01*
X173421800Y-75060500D02*
X196574400Y-51907900D01*
X196574400Y-51907900D02*
X196574400Y-51534600D01*
X196574400Y-49207400D02*
X196574400Y-51534600D01*
X149986100Y-73919000D02*
X151127600Y-75060500D01*
X136647000Y-73919000D02*
X149986100Y-73919000D01*
%TO.N,1pb1*%
X149264800Y-76459000D02*
X150455400Y-77649600D01*
X199114400Y-49207400D02*
X199114400Y-51534600D01*
X172999400Y-77649600D02*
X199114400Y-51534600D01*
X136647000Y-76459000D02*
X149264800Y-76459000D01*
X150455400Y-77649600D02*
X172999400Y-77649600D01*
%TO.N,1pb2*%
X149264800Y-78999000D02*
X136647000Y-78999000D01*
X172999400Y-80189600D02*
X150455400Y-80189600D01*
X201654400Y-49207400D02*
X201654400Y-51534600D01*
X201654400Y-51534600D02*
X172999400Y-80189600D01*
X150455400Y-80189600D02*
X149264800Y-78999000D01*
%TO.N,1pb3*%
X136647000Y-81539000D02*
X142343600Y-81539000D01*
X173062000Y-82667000D02*
X204194400Y-51534600D01*
X204194400Y-49207400D02*
X204194400Y-51534600D01*
X142343600Y-81539000D02*
X143471600Y-82667000D01*
X143471600Y-82667000D02*
X173062000Y-82667000D01*
%TO.N,CLK_1.8432*%
X172212000Y-203200000D02*
X171085100Y-203200000D01*
X169957200Y-202072100D02*
X155563800Y-202072100D01*
X171085100Y-203200000D02*
X169957200Y-202072100D01*
X154435900Y-203200000D02*
X145796000Y-203200000D01*
X155563800Y-202072100D02*
X154435900Y-203200000D01*
%TO.N,Net-(U16-A8)*%
X130101200Y-171581100D02*
X153532200Y-171581100D01*
X123349000Y-172377400D02*
X123702300Y-172024100D01*
X129658200Y-172024100D02*
X130101200Y-171581100D01*
X123702300Y-172024100D02*
X129658200Y-172024100D01*
%TO.N,Net-(U16-~{A9})*%
X123952000Y-165100000D02*
X123981800Y-165129800D01*
X123981800Y-165129800D02*
X128385000Y-165129800D01*
%TO.N,Net-(U16-ch_C)*%
X145042900Y-163830000D02*
X169815100Y-163830000D01*
X98552000Y-179324000D02*
X99678900Y-179324000D01*
X142502900Y-166370000D02*
X145042900Y-163830000D01*
X111491500Y-167511400D02*
X127771400Y-167511400D01*
X128912800Y-166370000D02*
X142502900Y-166370000D01*
X169815100Y-163830000D02*
X171085100Y-162560000D01*
X127771400Y-167511400D02*
X128912800Y-166370000D01*
X172212000Y-162560000D02*
X171085100Y-162560000D01*
X99678900Y-179324000D02*
X111491500Y-167511400D01*
%TO.N,Net-(U16-ch_B)*%
X142967000Y-158853500D02*
X145315800Y-161202300D01*
X105864700Y-161935600D02*
X118007000Y-161935600D01*
X121089100Y-158853500D02*
X142967000Y-158853500D01*
X156972000Y-162560000D02*
X155845100Y-162560000D01*
X118007000Y-161935600D02*
X121089100Y-158853500D01*
X145315800Y-161202300D02*
X154487400Y-161202300D01*
X154487400Y-161202300D02*
X155845100Y-162560000D01*
%TO.N,Net-(U16-ch_A)*%
X98552000Y-170180000D02*
X99678900Y-170180000D01*
X155845100Y-165100000D02*
X155774700Y-165170400D01*
X103444800Y-166414100D02*
X121044400Y-166414100D01*
X121044400Y-166414000D02*
X123494100Y-163964300D01*
X123494100Y-163964300D02*
X143880500Y-163964300D01*
X99678900Y-170180000D02*
X103444800Y-166414100D01*
X121044400Y-166414100D02*
X121044400Y-166414000D01*
X155774700Y-165170400D02*
X148221100Y-165170400D01*
X156972000Y-165100000D02*
X155845100Y-165100000D01*
%TO.N,BANKED_RAM_CS*%
X142066900Y-126232900D02*
X142066900Y-126233000D01*
X166269100Y-111252000D02*
X166269100Y-111956300D01*
X153137800Y-120026100D02*
X152374200Y-120026100D01*
X166269100Y-111956300D02*
X160808500Y-117416900D01*
X146167400Y-126232900D02*
X142066900Y-126232900D01*
X152374200Y-120026100D02*
X146167400Y-126232900D01*
X140940000Y-126233000D02*
X142066900Y-126233000D01*
X167396000Y-111252000D02*
X166269100Y-111252000D01*
X160808500Y-117416900D02*
X155747000Y-117416900D01*
X155747000Y-117416900D02*
X153137800Y-120026100D01*
%TO.N,Net-(U6-Za)*%
X169713500Y-120062600D02*
X168522900Y-118872000D01*
X177874500Y-120062600D02*
X169713500Y-120062600D01*
X199422200Y-110125100D02*
X187812000Y-110125100D01*
X167396000Y-118872000D02*
X168522900Y-118872000D01*
X203089100Y-113792000D02*
X199422200Y-110125100D01*
X187812000Y-110125100D02*
X177874500Y-120062600D01*
X204216000Y-113792000D02*
X203089100Y-113792000D01*
%TO.N,Net-(U6-Zb)*%
X167396000Y-126492000D02*
X168522900Y-126492000D01*
X188976000Y-113792000D02*
X187849100Y-113792000D01*
X169649800Y-125365100D02*
X176276000Y-125365100D01*
X176276000Y-125365100D02*
X187849100Y-113792000D01*
X168522900Y-126492000D02*
X169649800Y-125365100D01*
%TO.N,Net-(U6-Zc)*%
X204216000Y-116332000D02*
X203089100Y-116332000D01*
X175771200Y-127905100D02*
X188475000Y-115201300D01*
X188475000Y-115201300D02*
X196608500Y-115201300D01*
X175016000Y-129032000D02*
X175016000Y-127905100D01*
X197752500Y-116345300D02*
X203075800Y-116345300D01*
X203075800Y-116345300D02*
X203089100Y-116332000D01*
X196608500Y-115201300D02*
X197752500Y-116345300D01*
X175016000Y-127905100D02*
X175771200Y-127905100D01*
%TO.N,/audio/a0*%
X124460000Y-123693000D02*
X123333100Y-123693000D01*
X116840000Y-116073000D02*
X116840000Y-117199900D01*
X123333100Y-123693000D02*
X123333100Y-123459500D01*
X117073500Y-117199900D02*
X116840000Y-117199900D01*
X123333100Y-123459500D02*
X117073500Y-117199900D01*
%TO.N,Net-(U6-Zd)*%
X175016000Y-121412000D02*
X177689100Y-121412000D01*
X177689100Y-121412000D02*
X187849100Y-111252000D01*
X188976000Y-111252000D02*
X187849100Y-111252000D01*
%TO.N,Net-(U15-BC1)*%
X145402100Y-153891800D02*
X145402100Y-149425700D01*
X145402100Y-149425700D02*
X145732500Y-149095300D01*
%TO.N,Net-(U12-TxD)*%
X231177700Y-198761100D02*
X230896000Y-198761100D01*
X230896000Y-199888000D02*
X230896000Y-198761100D01*
X187452000Y-192771000D02*
X188578900Y-192771000D01*
X230206000Y-195996000D02*
X231141600Y-195996000D01*
X189758900Y-193951000D02*
X213047800Y-193951000D01*
X227891100Y-193681100D02*
X230206000Y-195996000D01*
X213317700Y-193681100D02*
X227891100Y-193681100D01*
X232033100Y-196887500D02*
X232033100Y-197905700D01*
X213047800Y-193951000D02*
X213317700Y-193681100D01*
X231141600Y-195996000D02*
X232033100Y-196887500D01*
X232033100Y-197905700D02*
X231177700Y-198761100D01*
X188578900Y-192771000D02*
X189758900Y-193951000D01*
%TO.N,Net-(U12-RxD)*%
X230896000Y-197348000D02*
X229769100Y-197348000D01*
X213317700Y-196221100D02*
X212957800Y-196581000D01*
X187452000Y-197851000D02*
X188578900Y-197851000D01*
X212957800Y-196581000D02*
X189848900Y-196581000D01*
X189848900Y-196581000D02*
X188578900Y-197851000D01*
X228642200Y-196221100D02*
X213317700Y-196221100D01*
X229769100Y-197348000D02*
X228642200Y-196221100D01*
%TD*%
M02*
