%TF.GenerationSoftware,KiCad,Pcbnew,7.0.2*%
%TF.CreationDate,2023-07-28T16:21:40-05:00*%
%TF.ProjectId,6502v2.0,36353032-7632-42e3-902e-6b696361645f,rev?*%
%TF.SameCoordinates,Original*%
%TF.FileFunction,Soldermask,Top*%
%TF.FilePolarity,Negative*%
%FSLAX46Y46*%
G04 Gerber Fmt 4.6, Leading zero omitted, Abs format (unit mm)*
G04 Created by KiCad (PCBNEW 7.0.2) date 2023-07-28 16:21:40*
%MOMM*%
%LPD*%
G01*
G04 APERTURE LIST*
G04 Aperture macros list*
%AMRoundRect*
0 Rectangle with rounded corners*
0 $1 Rounding radius*
0 $2 $3 $4 $5 $6 $7 $8 $9 X,Y pos of 4 corners*
0 Add a 4 corners polygon primitive as box body*
4,1,4,$2,$3,$4,$5,$6,$7,$8,$9,$2,$3,0*
0 Add four circle primitives for the rounded corners*
1,1,$1+$1,$2,$3*
1,1,$1+$1,$4,$5*
1,1,$1+$1,$6,$7*
1,1,$1+$1,$8,$9*
0 Add four rect primitives between the rounded corners*
20,1,$1+$1,$2,$3,$4,$5,0*
20,1,$1+$1,$4,$5,$6,$7,0*
20,1,$1+$1,$6,$7,$8,$9,0*
20,1,$1+$1,$8,$9,$2,$3,0*%
G04 Aperture macros list end*
%ADD10C,1.600000*%
%ADD11R,1.600000X1.600000*%
%ADD12O,1.600000X1.600000*%
%ADD13C,5.000000*%
%ADD14R,1.800000X1.800000*%
%ADD15C,1.800000*%
%ADD16R,2.000000X1.440000*%
%ADD17O,2.000000X1.440000*%
%ADD18O,1.501140X4.000500*%
%ADD19R,1.700000X1.700000*%
%ADD20O,1.700000X1.700000*%
%ADD21C,2.000000*%
%ADD22C,2.700000*%
%ADD23C,2.500000*%
%ADD24C,3.000000*%
%ADD25C,4.000000*%
%ADD26O,3.500000X2.000000*%
%ADD27O,2.000000X4.000000*%
%ADD28C,1.440000*%
%ADD29R,2.000000X1.905000*%
%ADD30O,2.000000X1.905000*%
%ADD31R,3.500000X3.500000*%
%ADD32RoundRect,0.750000X-0.750000X-1.000000X0.750000X-1.000000X0.750000X1.000000X-0.750000X1.000000X0*%
%ADD33RoundRect,0.875000X-0.875000X-0.875000X0.875000X-0.875000X0.875000X0.875000X-0.875000X0.875000X0*%
G04 APERTURE END LIST*
D10*
%TO.C,C15*%
X67596000Y-141224000D03*
X69596000Y-141224000D03*
%TD*%
D11*
%TO.C,U14*%
X116840000Y-110993000D03*
D12*
X116840000Y-113533000D03*
X116840000Y-116073000D03*
X116840000Y-118613000D03*
X116840000Y-121153000D03*
X116840000Y-123693000D03*
X116840000Y-126233000D03*
X124460000Y-126233000D03*
X124460000Y-123693000D03*
X124460000Y-121153000D03*
X124460000Y-118613000D03*
X124460000Y-116073000D03*
X124460000Y-113533000D03*
X124460000Y-110993000D03*
%TD*%
D10*
%TO.C,C27*%
X61992000Y-194564000D03*
X63992000Y-194564000D03*
%TD*%
%TO.C,R3*%
X78232000Y-111252000D03*
D12*
X88392000Y-111252000D03*
%TD*%
D10*
%TO.C,R19*%
X113792000Y-174244000D03*
D12*
X123952000Y-174244000D03*
%TD*%
D10*
%TO.C,R7*%
X181356000Y-146304000D03*
D12*
X181356000Y-136144000D03*
%TD*%
D10*
%TO.C,R5*%
X172212000Y-146304000D03*
D12*
X172212000Y-136144000D03*
%TD*%
D10*
%TO.C,C24*%
X229576000Y-182372000D03*
X224576000Y-182372000D03*
%TD*%
%TO.C,C9*%
X98592000Y-105664000D03*
X103592000Y-105664000D03*
%TD*%
D13*
%TO.C,REF1*%
X51816000Y-39624000D03*
%TD*%
D10*
%TO.C,C25*%
X167092000Y-152400000D03*
X162092000Y-152400000D03*
%TD*%
%TO.C,C12*%
X56388000Y-194564000D03*
X51388000Y-194564000D03*
%TD*%
D11*
%TO.C,U4*%
X133320000Y-110993000D03*
D12*
X133320000Y-113533000D03*
X133320000Y-116073000D03*
X133320000Y-118613000D03*
X133320000Y-121153000D03*
X133320000Y-123693000D03*
X133320000Y-126233000D03*
X133320000Y-128773000D03*
X133320000Y-131313000D03*
X133320000Y-133853000D03*
X133320000Y-136393000D03*
X133320000Y-138933000D03*
X140940000Y-138933000D03*
X140940000Y-136393000D03*
X140940000Y-133853000D03*
X140940000Y-131313000D03*
X140940000Y-128773000D03*
X140940000Y-126233000D03*
X140940000Y-123693000D03*
X140940000Y-121153000D03*
X140940000Y-118613000D03*
X140940000Y-116073000D03*
X140940000Y-113533000D03*
X140940000Y-110993000D03*
%TD*%
D10*
%TO.C,R10*%
X52324000Y-63500000D03*
D12*
X52324000Y-73660000D03*
%TD*%
D10*
%TO.C,R17*%
X81788000Y-184912000D03*
D12*
X71628000Y-184912000D03*
%TD*%
D11*
%TO.C,U8*%
X188976000Y-111252000D03*
D12*
X188976000Y-113792000D03*
X188976000Y-116332000D03*
X188976000Y-118872000D03*
X188976000Y-121412000D03*
X188976000Y-123952000D03*
X188976000Y-126492000D03*
X188976000Y-129032000D03*
X188976000Y-131572000D03*
X188976000Y-134112000D03*
X188976000Y-136652000D03*
X188976000Y-139192000D03*
X188976000Y-141732000D03*
X188976000Y-144272000D03*
X188976000Y-146812000D03*
X188976000Y-149352000D03*
X204216000Y-149352000D03*
X204216000Y-146812000D03*
X204216000Y-144272000D03*
X204216000Y-141732000D03*
X204216000Y-139192000D03*
X204216000Y-136652000D03*
X204216000Y-134112000D03*
X204216000Y-131572000D03*
X204216000Y-129032000D03*
X204216000Y-126492000D03*
X204216000Y-123952000D03*
X204216000Y-121412000D03*
X204216000Y-118872000D03*
X204216000Y-116332000D03*
X204216000Y-113792000D03*
X204216000Y-111252000D03*
%TD*%
D10*
%TO.C,R20*%
X123952000Y-165100000D03*
D12*
X113792000Y-165100000D03*
%TD*%
D14*
%TO.C,D1*%
X50800000Y-56388000D03*
D15*
X53340000Y-56388000D03*
%TD*%
D16*
%TO.C,U3*%
X219456000Y-120542000D03*
D17*
X219456000Y-123082000D03*
X219456000Y-125622000D03*
X219456000Y-128162000D03*
X219456000Y-130702000D03*
X219456000Y-133242000D03*
X219456000Y-135782000D03*
X219456000Y-138322000D03*
X219456000Y-140862000D03*
X219456000Y-143402000D03*
X219456000Y-145942000D03*
X219456000Y-148482000D03*
X219456000Y-151022000D03*
X219456000Y-153562000D03*
X234696000Y-153562000D03*
X234696000Y-151022000D03*
X234696000Y-148482000D03*
X234696000Y-145942000D03*
X234696000Y-143402000D03*
X234696000Y-140862000D03*
X234696000Y-138322000D03*
X234696000Y-135782000D03*
X234696000Y-133242000D03*
X234696000Y-130702000D03*
X234696000Y-128162000D03*
X234696000Y-125622000D03*
X234696000Y-123082000D03*
X234696000Y-120542000D03*
%TD*%
D18*
%TO.C,U10*%
X171174440Y-49207420D03*
X173714440Y-49207420D03*
X176254440Y-49207420D03*
X178794440Y-49207420D03*
X181334440Y-49207420D03*
X183874440Y-49207420D03*
X186414440Y-49207420D03*
X188954440Y-49207420D03*
X191494440Y-49207420D03*
X194034440Y-49207420D03*
X196574440Y-49207420D03*
X199114440Y-49207420D03*
X201654440Y-49207420D03*
X204194440Y-49207420D03*
X206734440Y-49207420D03*
X209274440Y-49207420D03*
%TD*%
D19*
%TO.C,J7*%
X74676000Y-42164000D03*
D20*
X77216000Y-42164000D03*
X74676000Y-44704000D03*
X77216000Y-44704000D03*
X74676000Y-47244000D03*
X77216000Y-47244000D03*
X74676000Y-49784000D03*
X77216000Y-49784000D03*
X74676000Y-52324000D03*
X77216000Y-52324000D03*
X74676000Y-54864000D03*
X77216000Y-54864000D03*
X74676000Y-57404000D03*
X77216000Y-57404000D03*
X74676000Y-59944000D03*
X77216000Y-59944000D03*
X74676000Y-62484000D03*
X77216000Y-62484000D03*
X74676000Y-65024000D03*
X77216000Y-65024000D03*
X74676000Y-67564000D03*
X77216000Y-67564000D03*
X74676000Y-70104000D03*
X77216000Y-70104000D03*
X74676000Y-72644000D03*
X77216000Y-72644000D03*
X74676000Y-75184000D03*
X77216000Y-75184000D03*
X74676000Y-77724000D03*
X77216000Y-77724000D03*
X74676000Y-80264000D03*
X77216000Y-80264000D03*
X74676000Y-82804000D03*
X77216000Y-82804000D03*
X74676000Y-85344000D03*
X77216000Y-85344000D03*
X74676000Y-87884000D03*
X77216000Y-87884000D03*
X74676000Y-90424000D03*
X77216000Y-90424000D03*
%TD*%
D19*
%TO.C,J1*%
X102616000Y-76200000D03*
D20*
X102616000Y-78740000D03*
X102616000Y-81280000D03*
X102616000Y-83820000D03*
X102616000Y-86360000D03*
X102616000Y-88900000D03*
X102616000Y-91440000D03*
X102616000Y-93980000D03*
%TD*%
D10*
%TO.C,C26*%
X197572000Y-165100000D03*
X192572000Y-165100000D03*
%TD*%
D11*
%TO.C,U12*%
X187452000Y-169911000D03*
D12*
X187452000Y-172451000D03*
X187452000Y-174991000D03*
X187452000Y-177531000D03*
X187452000Y-180071000D03*
X187452000Y-182611000D03*
X187452000Y-185151000D03*
X187452000Y-187691000D03*
X187452000Y-190231000D03*
X187452000Y-192771000D03*
X187452000Y-195311000D03*
X187452000Y-197851000D03*
X187452000Y-200391000D03*
X187452000Y-202931000D03*
X202692000Y-202931000D03*
X202692000Y-200391000D03*
X202692000Y-197851000D03*
X202692000Y-195311000D03*
X202692000Y-192771000D03*
X202692000Y-190231000D03*
X202692000Y-187691000D03*
X202692000Y-185151000D03*
X202692000Y-182611000D03*
X202692000Y-180071000D03*
X202692000Y-177531000D03*
X202692000Y-174991000D03*
X202692000Y-172451000D03*
X202692000Y-169911000D03*
%TD*%
D10*
%TO.C,R11*%
X88392000Y-106172000D03*
D12*
X78232000Y-106172000D03*
%TD*%
D21*
%TO.C,SW2*%
X66854000Y-111542000D03*
X73354000Y-111542000D03*
X66854000Y-116042000D03*
X73354000Y-116042000D03*
%TD*%
D11*
%TO.C,U5*%
X93472000Y-110744000D03*
D12*
X93472000Y-113284000D03*
X93472000Y-115824000D03*
X93472000Y-118364000D03*
X93472000Y-120904000D03*
X93472000Y-123444000D03*
X93472000Y-125984000D03*
X93472000Y-128524000D03*
X93472000Y-131064000D03*
X93472000Y-133604000D03*
X93472000Y-136144000D03*
X93472000Y-138684000D03*
X93472000Y-141224000D03*
X93472000Y-143764000D03*
X93472000Y-146304000D03*
X93472000Y-148844000D03*
X93472000Y-151384000D03*
X93472000Y-153924000D03*
X93472000Y-156464000D03*
X93472000Y-159004000D03*
X108712000Y-159004000D03*
X108712000Y-156464000D03*
X108712000Y-153924000D03*
X108712000Y-151384000D03*
X108712000Y-148844000D03*
X108712000Y-146304000D03*
X108712000Y-143764000D03*
X108712000Y-141224000D03*
X108712000Y-138684000D03*
X108712000Y-136144000D03*
X108712000Y-133604000D03*
X108712000Y-131064000D03*
X108712000Y-128524000D03*
X108712000Y-125984000D03*
X108712000Y-123444000D03*
X108712000Y-120904000D03*
X108712000Y-118364000D03*
X108712000Y-115824000D03*
X108712000Y-113284000D03*
X108712000Y-110744000D03*
%TD*%
D22*
%TO.C,J19*%
X53096000Y-180848000D03*
X55546000Y-178848000D03*
D23*
X59246000Y-180848000D03*
X61146000Y-178848000D03*
D24*
X64896000Y-180848000D03*
%TD*%
D10*
%TO.C,C14*%
X163108000Y-41148000D03*
X168108000Y-41148000D03*
%TD*%
D19*
%TO.C,J10*%
X90424000Y-42164000D03*
D20*
X92964000Y-42164000D03*
X90424000Y-44704000D03*
X92964000Y-44704000D03*
X90424000Y-47244000D03*
X92964000Y-47244000D03*
X90424000Y-49784000D03*
X92964000Y-49784000D03*
X90424000Y-52324000D03*
X92964000Y-52324000D03*
X90424000Y-54864000D03*
X92964000Y-54864000D03*
X90424000Y-57404000D03*
X92964000Y-57404000D03*
X90424000Y-59944000D03*
X92964000Y-59944000D03*
X90424000Y-62484000D03*
X92964000Y-62484000D03*
X90424000Y-65024000D03*
X92964000Y-65024000D03*
X90424000Y-67564000D03*
X92964000Y-67564000D03*
X90424000Y-70104000D03*
X92964000Y-70104000D03*
X90424000Y-72644000D03*
X92964000Y-72644000D03*
X90424000Y-75184000D03*
X92964000Y-75184000D03*
X90424000Y-77724000D03*
X92964000Y-77724000D03*
X90424000Y-80264000D03*
X92964000Y-80264000D03*
X90424000Y-82804000D03*
X92964000Y-82804000D03*
X90424000Y-85344000D03*
X92964000Y-85344000D03*
X90424000Y-87884000D03*
X92964000Y-87884000D03*
X90424000Y-90424000D03*
X92964000Y-90424000D03*
%TD*%
D25*
%TO.C,J13*%
X59540000Y-146812000D03*
X59540000Y-171812000D03*
D11*
X60960000Y-164852000D03*
D10*
X60960000Y-162082000D03*
X60960000Y-159312000D03*
X60960000Y-156542000D03*
X60960000Y-153772000D03*
X58120000Y-163467000D03*
X58120000Y-160697000D03*
X58120000Y-157927000D03*
X58120000Y-155157000D03*
%TD*%
%TO.C,C6*%
X224616000Y-106172000D03*
X229616000Y-106172000D03*
%TD*%
D11*
%TO.C,J11*%
X52738000Y-133320000D03*
D10*
X52738000Y-135920000D03*
X52738000Y-131220000D03*
X52738000Y-138020000D03*
X49938000Y-131220000D03*
X49938000Y-138020000D03*
D26*
X55588000Y-141470000D03*
D27*
X56388000Y-134620000D03*
D26*
X55588000Y-127770000D03*
%TD*%
D10*
%TO.C,R16*%
X81788000Y-179832000D03*
D12*
X71628000Y-179832000D03*
%TD*%
D10*
%TO.C,R2*%
X78232000Y-116332000D03*
D12*
X88392000Y-116332000D03*
%TD*%
D28*
%TO.C,RV1*%
X154432000Y-44704000D03*
X156972000Y-42164000D03*
X154432000Y-39624000D03*
%TD*%
D11*
%TO.C,U2*%
X152908000Y-110993000D03*
D12*
X152908000Y-113533000D03*
X152908000Y-116073000D03*
X152908000Y-118613000D03*
X152908000Y-121153000D03*
X152908000Y-123693000D03*
X152908000Y-126233000D03*
X152908000Y-128773000D03*
X152908000Y-131313000D03*
X152908000Y-133853000D03*
X152908000Y-136393000D03*
X152908000Y-138933000D03*
X160528000Y-138933000D03*
X160528000Y-136393000D03*
X160528000Y-133853000D03*
X160528000Y-131313000D03*
X160528000Y-128773000D03*
X160528000Y-126233000D03*
X160528000Y-123693000D03*
X160528000Y-121153000D03*
X160528000Y-118613000D03*
X160528000Y-116073000D03*
X160528000Y-113533000D03*
X160528000Y-110993000D03*
%TD*%
D10*
%TO.C,C23*%
X91012000Y-189992000D03*
X96012000Y-189992000D03*
%TD*%
%TO.C,R13*%
X113792000Y-160528000D03*
D12*
X123952000Y-160528000D03*
%TD*%
D10*
%TO.C,R23*%
X88392000Y-184404000D03*
D12*
X98552000Y-184404000D03*
%TD*%
D11*
%TO.C,U7*%
X136647000Y-51059000D03*
D12*
X136647000Y-53599000D03*
X136647000Y-56139000D03*
X136647000Y-58679000D03*
X136647000Y-61219000D03*
X136647000Y-63759000D03*
X136647000Y-66299000D03*
X136647000Y-68839000D03*
X136647000Y-71379000D03*
X136647000Y-73919000D03*
X136647000Y-76459000D03*
X136647000Y-78999000D03*
X136647000Y-81539000D03*
X136647000Y-84079000D03*
X136647000Y-86619000D03*
X136647000Y-89159000D03*
X136647000Y-91699000D03*
X136647000Y-94239000D03*
X136647000Y-96779000D03*
X136647000Y-99319000D03*
X151887000Y-99319000D03*
X151887000Y-96779000D03*
X151887000Y-94239000D03*
X151887000Y-91699000D03*
X151887000Y-89159000D03*
X151887000Y-86619000D03*
X151887000Y-84079000D03*
X151887000Y-81539000D03*
X151887000Y-78999000D03*
X151887000Y-76459000D03*
X151887000Y-73919000D03*
X151887000Y-71379000D03*
X151887000Y-68839000D03*
X151887000Y-66299000D03*
X151887000Y-63759000D03*
X151887000Y-61219000D03*
X151887000Y-58679000D03*
X151887000Y-56139000D03*
X151887000Y-53599000D03*
X151887000Y-51059000D03*
%TD*%
D11*
%TO.C,J9*%
X52832000Y-116272000D03*
D10*
X52832000Y-118872000D03*
X52832000Y-114172000D03*
X52832000Y-120972000D03*
X50032000Y-114172000D03*
X50032000Y-120972000D03*
D26*
X55682000Y-124422000D03*
D27*
X56482000Y-117572000D03*
D26*
X55682000Y-110722000D03*
%TD*%
D14*
%TO.C,SW3*%
X68152000Y-97632000D03*
D15*
X70652000Y-97632000D03*
X73152000Y-97632000D03*
X68152000Y-103632000D03*
X70652000Y-103632000D03*
X73152000Y-103632000D03*
%TD*%
D11*
%TO.C,U9*%
X109728000Y-50800000D03*
D12*
X109728000Y-53340000D03*
X109728000Y-55880000D03*
X109728000Y-58420000D03*
X109728000Y-60960000D03*
X109728000Y-63500000D03*
X109728000Y-66040000D03*
X109728000Y-68580000D03*
X109728000Y-71120000D03*
X109728000Y-73660000D03*
X109728000Y-76200000D03*
X109728000Y-78740000D03*
X109728000Y-81280000D03*
X109728000Y-83820000D03*
X109728000Y-86360000D03*
X109728000Y-88900000D03*
X109728000Y-91440000D03*
X109728000Y-93980000D03*
X109728000Y-96520000D03*
X109728000Y-99060000D03*
X124968000Y-99060000D03*
X124968000Y-96520000D03*
X124968000Y-93980000D03*
X124968000Y-91440000D03*
X124968000Y-88900000D03*
X124968000Y-86360000D03*
X124968000Y-83820000D03*
X124968000Y-81280000D03*
X124968000Y-78740000D03*
X124968000Y-76200000D03*
X124968000Y-73660000D03*
X124968000Y-71120000D03*
X124968000Y-68580000D03*
X124968000Y-66040000D03*
X124968000Y-63500000D03*
X124968000Y-60960000D03*
X124968000Y-58420000D03*
X124968000Y-55880000D03*
X124968000Y-53340000D03*
X124968000Y-50800000D03*
%TD*%
D10*
%TO.C,C8*%
X146812000Y-45720000D03*
X141812000Y-45720000D03*
%TD*%
%TO.C,R15*%
X71628000Y-170180000D03*
D12*
X81788000Y-170180000D03*
%TD*%
D10*
%TO.C,C17*%
X140676000Y-152400000D03*
X135676000Y-152400000D03*
%TD*%
%TO.C,R24*%
X88392000Y-170180000D03*
D12*
X98552000Y-170180000D03*
%TD*%
D11*
%TO.C,U15*%
X130556000Y-157480000D03*
D12*
X130556000Y-160020000D03*
X130556000Y-162560000D03*
X130556000Y-165100000D03*
X130556000Y-167640000D03*
X130556000Y-170180000D03*
X130556000Y-172720000D03*
X130556000Y-175260000D03*
X130556000Y-177800000D03*
X130556000Y-180340000D03*
X130556000Y-182880000D03*
X130556000Y-185420000D03*
X130556000Y-187960000D03*
X130556000Y-190500000D03*
X130556000Y-193040000D03*
X130556000Y-195580000D03*
X130556000Y-198120000D03*
X130556000Y-200660000D03*
X130556000Y-203200000D03*
X130556000Y-205740000D03*
X145796000Y-205740000D03*
X145796000Y-203200000D03*
X145796000Y-200660000D03*
X145796000Y-198120000D03*
X145796000Y-195580000D03*
X145796000Y-193040000D03*
X145796000Y-190500000D03*
X145796000Y-187960000D03*
X145796000Y-185420000D03*
X145796000Y-182880000D03*
X145796000Y-180340000D03*
X145796000Y-177800000D03*
X145796000Y-175260000D03*
X145796000Y-172720000D03*
X145796000Y-170180000D03*
X145796000Y-167640000D03*
X145796000Y-165100000D03*
X145796000Y-162560000D03*
X145796000Y-160020000D03*
X145796000Y-157480000D03*
%TD*%
D11*
%TO.C,X1*%
X106172000Y-190246000D03*
D10*
X121412000Y-190246000D03*
X121412000Y-182626000D03*
X106172000Y-182626000D03*
%TD*%
D11*
%TO.C,U1*%
X116840000Y-137160000D03*
D12*
X116840000Y-139700000D03*
X116840000Y-142240000D03*
X116840000Y-144780000D03*
X116840000Y-147320000D03*
X116840000Y-149860000D03*
X116840000Y-152400000D03*
X124460000Y-152400000D03*
X124460000Y-149860000D03*
X124460000Y-147320000D03*
X124460000Y-144780000D03*
X124460000Y-142240000D03*
X124460000Y-139700000D03*
X124460000Y-137160000D03*
%TD*%
D10*
%TO.C,R9*%
X88392000Y-132080000D03*
D12*
X78232000Y-132080000D03*
%TD*%
D19*
%TO.C,J4*%
X102616000Y-52085000D03*
D20*
X102616000Y-54625000D03*
X102616000Y-57165000D03*
X102616000Y-59705000D03*
X102616000Y-62245000D03*
X102616000Y-64785000D03*
X102616000Y-67325000D03*
X102616000Y-69865000D03*
%TD*%
D10*
%TO.C,R18*%
X81788000Y-175260000D03*
D12*
X71628000Y-175260000D03*
%TD*%
D10*
%TO.C,C5*%
X199056000Y-106172000D03*
X194056000Y-106172000D03*
%TD*%
%TO.C,C28*%
X79208000Y-190500000D03*
X74208000Y-190500000D03*
%TD*%
D21*
%TO.C,SW1*%
X66854000Y-125548000D03*
X73354000Y-125548000D03*
X66854000Y-130048000D03*
X73354000Y-130048000D03*
%TD*%
D19*
%TO.C,J12*%
X147828000Y-146812000D03*
D20*
X147828000Y-144272000D03*
X147828000Y-141732000D03*
X147828000Y-139192000D03*
X147828000Y-136652000D03*
X147828000Y-134112000D03*
X147828000Y-131572000D03*
X147828000Y-129032000D03*
%TD*%
D10*
%TO.C,C22*%
X69104000Y-194564000D03*
X71104000Y-194564000D03*
%TD*%
D19*
%TO.C,J8*%
X53574000Y-79781000D03*
D20*
X51034000Y-79781000D03*
%TD*%
D19*
%TO.C,J3*%
X117109000Y-40132000D03*
D20*
X119649000Y-40132000D03*
X122189000Y-40132000D03*
X124729000Y-40132000D03*
X127269000Y-40132000D03*
X129809000Y-40132000D03*
X132349000Y-40132000D03*
X134889000Y-40132000D03*
%TD*%
D10*
%TO.C,C2*%
X123444000Y-132080000D03*
X118444000Y-132080000D03*
%TD*%
%TO.C,R12*%
X69088000Y-159512000D03*
D12*
X69088000Y-149352000D03*
%TD*%
D11*
%TO.C,U6*%
X167396000Y-111252000D03*
D12*
X167396000Y-113792000D03*
X167396000Y-116332000D03*
X167396000Y-118872000D03*
X167396000Y-121412000D03*
X167396000Y-123952000D03*
X167396000Y-126492000D03*
X167396000Y-129032000D03*
X175016000Y-129032000D03*
X175016000Y-126492000D03*
X175016000Y-123952000D03*
X175016000Y-121412000D03*
X175016000Y-118872000D03*
X175016000Y-116332000D03*
X175016000Y-113792000D03*
X175016000Y-111252000D03*
%TD*%
D10*
%TO.C,R4*%
X167640000Y-146304000D03*
D12*
X167640000Y-136144000D03*
%TD*%
D10*
%TO.C,R8*%
X78232000Y-136652000D03*
D12*
X88392000Y-136652000D03*
%TD*%
D19*
%TO.C,JP1*%
X106680000Y-176276000D03*
D20*
X109220000Y-176276000D03*
%TD*%
D13*
%TO.C,REF2*%
X238760000Y-39624000D03*
%TD*%
D11*
%TO.C,U11*%
X73152000Y-150368000D03*
D12*
X73152000Y-152908000D03*
X73152000Y-155448000D03*
X73152000Y-157988000D03*
X80772000Y-157988000D03*
X80772000Y-155448000D03*
X80772000Y-152908000D03*
X80772000Y-150368000D03*
%TD*%
D13*
%TO.C,REF4*%
X238760000Y-209296000D03*
%TD*%
D10*
%TO.C,C13*%
X83860000Y-157988000D03*
X88860000Y-157988000D03*
%TD*%
%TO.C,C21*%
X215900000Y-206756000D03*
X213900000Y-206756000D03*
%TD*%
D19*
%TO.C,J15*%
X100076000Y-199644000D03*
D20*
X97536000Y-199644000D03*
X94996000Y-199644000D03*
X92456000Y-199644000D03*
X89916000Y-199644000D03*
X87376000Y-199644000D03*
X84836000Y-199644000D03*
X82296000Y-199644000D03*
%TD*%
D10*
%TO.C,C16*%
X74960000Y-145288000D03*
X79960000Y-145288000D03*
%TD*%
%TO.C,C20*%
X215884000Y-183896000D03*
X213884000Y-183896000D03*
%TD*%
D19*
%TO.C,J16*%
X124460000Y-199644000D03*
D20*
X121920000Y-199644000D03*
X119380000Y-199644000D03*
X116840000Y-199644000D03*
X114300000Y-199644000D03*
X111760000Y-199644000D03*
X109220000Y-199644000D03*
X106680000Y-199644000D03*
%TD*%
D10*
%TO.C,C10*%
X123364000Y-106172000D03*
X118364000Y-106172000D03*
%TD*%
D19*
%TO.C,J14*%
X189992000Y-210312000D03*
D20*
X192532000Y-210312000D03*
X195072000Y-210312000D03*
X197612000Y-210312000D03*
X200152000Y-210312000D03*
%TD*%
D10*
%TO.C,R22*%
X88392000Y-174752000D03*
D12*
X98552000Y-174752000D03*
%TD*%
D10*
%TO.C,R6*%
X176784000Y-146304000D03*
D12*
X176784000Y-136144000D03*
%TD*%
D19*
%TO.C,J17*%
X123952000Y-209296000D03*
D20*
X121412000Y-209296000D03*
X118872000Y-209296000D03*
X116332000Y-209296000D03*
X113792000Y-209296000D03*
X111252000Y-209296000D03*
X108712000Y-209296000D03*
X106172000Y-209296000D03*
%TD*%
D10*
%TO.C,C18*%
X215900000Y-191516000D03*
X213900000Y-191516000D03*
%TD*%
%TO.C,C3*%
X139660000Y-106172000D03*
X134660000Y-106172000D03*
%TD*%
D29*
%TO.C,Q1*%
X53340000Y-91440000D03*
D30*
X53340000Y-88900000D03*
X53340000Y-86360000D03*
%TD*%
D11*
%TO.C,U16*%
X156972000Y-157480000D03*
D12*
X156972000Y-160020000D03*
X156972000Y-162560000D03*
X156972000Y-165100000D03*
X156972000Y-167640000D03*
X156972000Y-170180000D03*
X156972000Y-172720000D03*
X156972000Y-175260000D03*
X156972000Y-177800000D03*
X156972000Y-180340000D03*
X156972000Y-182880000D03*
X156972000Y-185420000D03*
X156972000Y-187960000D03*
X156972000Y-190500000D03*
X156972000Y-193040000D03*
X156972000Y-195580000D03*
X156972000Y-198120000D03*
X156972000Y-200660000D03*
X156972000Y-203200000D03*
X156972000Y-205740000D03*
X172212000Y-205740000D03*
X172212000Y-203200000D03*
X172212000Y-200660000D03*
X172212000Y-198120000D03*
X172212000Y-195580000D03*
X172212000Y-193040000D03*
X172212000Y-190500000D03*
X172212000Y-187960000D03*
X172212000Y-185420000D03*
X172212000Y-182880000D03*
X172212000Y-180340000D03*
X172212000Y-177800000D03*
X172212000Y-175260000D03*
X172212000Y-172720000D03*
X172212000Y-170180000D03*
X172212000Y-167640000D03*
X172212000Y-165100000D03*
X172212000Y-162560000D03*
X172212000Y-160020000D03*
X172212000Y-157480000D03*
%TD*%
D10*
%TO.C,R14*%
X123952000Y-169672000D03*
D12*
X113792000Y-169672000D03*
%TD*%
D10*
%TO.C,R21*%
X88392000Y-179324000D03*
D12*
X98552000Y-179324000D03*
%TD*%
D11*
%TO.C,U13*%
X223276000Y-187188000D03*
D12*
X223276000Y-189728000D03*
X223276000Y-192268000D03*
X223276000Y-194808000D03*
X223276000Y-197348000D03*
X223276000Y-199888000D03*
X223276000Y-202428000D03*
X223276000Y-204968000D03*
X230896000Y-204968000D03*
X230896000Y-202428000D03*
X230896000Y-199888000D03*
X230896000Y-197348000D03*
X230896000Y-194808000D03*
X230896000Y-192268000D03*
X230896000Y-189728000D03*
X230896000Y-187188000D03*
%TD*%
D19*
%TO.C,J2*%
X58928000Y-42164000D03*
D20*
X61468000Y-42164000D03*
X58928000Y-44704000D03*
X61468000Y-44704000D03*
X58928000Y-47244000D03*
X61468000Y-47244000D03*
X58928000Y-49784000D03*
X61468000Y-49784000D03*
X58928000Y-52324000D03*
X61468000Y-52324000D03*
X58928000Y-54864000D03*
X61468000Y-54864000D03*
X58928000Y-57404000D03*
X61468000Y-57404000D03*
X58928000Y-59944000D03*
X61468000Y-59944000D03*
X58928000Y-62484000D03*
X61468000Y-62484000D03*
X58928000Y-65024000D03*
X61468000Y-65024000D03*
X58928000Y-67564000D03*
X61468000Y-67564000D03*
X58928000Y-70104000D03*
X61468000Y-70104000D03*
X58928000Y-72644000D03*
X61468000Y-72644000D03*
X58928000Y-75184000D03*
X61468000Y-75184000D03*
X58928000Y-77724000D03*
X61468000Y-77724000D03*
X58928000Y-80264000D03*
X61468000Y-80264000D03*
X58928000Y-82804000D03*
X61468000Y-82804000D03*
X58928000Y-85344000D03*
X61468000Y-85344000D03*
X58928000Y-87884000D03*
X61468000Y-87884000D03*
X58928000Y-90424000D03*
X61468000Y-90424000D03*
%TD*%
D31*
%TO.C,J6*%
X61880000Y-101150500D03*
D32*
X55880000Y-101150500D03*
D33*
X58880000Y-105850500D03*
%TD*%
D19*
%TO.C,J5*%
X148336000Y-114300000D03*
D20*
X148336000Y-116840000D03*
X148336000Y-119380000D03*
X148336000Y-121920000D03*
%TD*%
D10*
%TO.C,C1*%
X119848000Y-45720000D03*
X114848000Y-45720000D03*
%TD*%
D14*
%TO.C,D2*%
X82296000Y-99060000D03*
D15*
X84836000Y-99060000D03*
%TD*%
D10*
%TO.C,C19*%
X215900000Y-199136000D03*
X213900000Y-199136000D03*
%TD*%
%TO.C,C11*%
X173696000Y-106172000D03*
X168696000Y-106172000D03*
%TD*%
D13*
%TO.C,REF3*%
X51816000Y-209296000D03*
%TD*%
D10*
%TO.C,C4*%
X159512000Y-106172000D03*
X154512000Y-106172000D03*
%TD*%
%TO.C,R1*%
X78232000Y-120904000D03*
D12*
X88392000Y-120904000D03*
%TD*%
D10*
%TO.C,C7*%
X80812000Y-126492000D03*
X85812000Y-126492000D03*
%TD*%
D11*
%TO.C,X2*%
X219456000Y-174498000D03*
D10*
X234696000Y-174498000D03*
X234696000Y-166878000D03*
X219456000Y-166878000D03*
%TD*%
D19*
%TO.C,J18*%
X100076000Y-209296000D03*
D20*
X97536000Y-209296000D03*
X94996000Y-209296000D03*
X92456000Y-209296000D03*
X89916000Y-209296000D03*
X87376000Y-209296000D03*
X84836000Y-209296000D03*
X82296000Y-209296000D03*
%TD*%
M02*
