%TF.GenerationSoftware,KiCad,Pcbnew,7.0.2*%
%TF.CreationDate,2023-08-06T16:24:21-05:00*%
%TF.ProjectId,6502v2.0,36353032-7632-42e3-902e-6b696361645f,rev?*%
%TF.SameCoordinates,Original*%
%TF.FileFunction,Soldermask,Top*%
%TF.FilePolarity,Negative*%
%FSLAX46Y46*%
G04 Gerber Fmt 4.6, Leading zero omitted, Abs format (unit mm)*
G04 Created by KiCad (PCBNEW 7.0.2) date 2023-08-06 16:24:21*
%MOMM*%
%LPD*%
G01*
G04 APERTURE LIST*
G04 Aperture macros list*
%AMRoundRect*
0 Rectangle with rounded corners*
0 $1 Rounding radius*
0 $2 $3 $4 $5 $6 $7 $8 $9 X,Y pos of 4 corners*
0 Add a 4 corners polygon primitive as box body*
4,1,4,$2,$3,$4,$5,$6,$7,$8,$9,$2,$3,0*
0 Add four circle primitives for the rounded corners*
1,1,$1+$1,$2,$3*
1,1,$1+$1,$4,$5*
1,1,$1+$1,$6,$7*
1,1,$1+$1,$8,$9*
0 Add four rect primitives between the rounded corners*
20,1,$1+$1,$2,$3,$4,$5,0*
20,1,$1+$1,$4,$5,$6,$7,0*
20,1,$1+$1,$6,$7,$8,$9,0*
20,1,$1+$1,$8,$9,$2,$3,0*%
G04 Aperture macros list end*
%ADD10C,1.524000*%
%ADD11R,1.600000X1.600000*%
%ADD12C,1.600000*%
%ADD13O,1.600000X1.600000*%
%ADD14C,5.000000*%
%ADD15R,1.800000X1.800000*%
%ADD16C,1.800000*%
%ADD17R,2.000000X1.440000*%
%ADD18O,2.000000X1.440000*%
%ADD19O,1.501140X4.000500*%
%ADD20R,1.700000X1.700000*%
%ADD21O,1.700000X1.700000*%
%ADD22C,2.000000*%
%ADD23C,2.700000*%
%ADD24C,2.500000*%
%ADD25C,3.000000*%
%ADD26C,4.000000*%
%ADD27O,3.500000X2.000000*%
%ADD28O,2.000000X4.000000*%
%ADD29R,2.000000X1.905000*%
%ADD30O,2.000000X1.905000*%
%ADD31R,3.500000X3.500000*%
%ADD32RoundRect,0.750000X-0.750000X-1.000000X0.750000X-1.000000X0.750000X1.000000X-0.750000X1.000000X0*%
%ADD33RoundRect,0.875000X-0.875000X-0.875000X0.875000X-0.875000X0.875000X0.875000X-0.875000X0.875000X0*%
G04 APERTURE END LIST*
D10*
%TO.C,RV1*%
X167386000Y-88900000D03*
X164846000Y-88900000D03*
X162306000Y-88900000D03*
%TD*%
D11*
%TO.C,C15*%
X82391500Y-151193500D03*
D12*
X84891500Y-151193500D03*
%TD*%
D11*
%TO.C,U14*%
X112522000Y-133350000D03*
D13*
X112522000Y-135890000D03*
X112522000Y-138430000D03*
X112522000Y-140970000D03*
X112522000Y-143510000D03*
X112522000Y-146050000D03*
X112522000Y-148590000D03*
X120142000Y-148590000D03*
X120142000Y-146050000D03*
X120142000Y-143510000D03*
X120142000Y-140970000D03*
X120142000Y-138430000D03*
X120142000Y-135890000D03*
X120142000Y-133350000D03*
%TD*%
D11*
%TO.C,C27*%
X72755000Y-167259000D03*
D12*
X70255000Y-167259000D03*
%TD*%
%TO.C,R3*%
X83820000Y-135128000D03*
D13*
X83820000Y-124968000D03*
%TD*%
D12*
%TO.C,R19*%
X186182000Y-178562000D03*
D13*
X186182000Y-188722000D03*
%TD*%
D12*
%TO.C,R7*%
X185039000Y-136525000D03*
D13*
X185039000Y-126365000D03*
%TD*%
D12*
%TO.C,R5*%
X178943000Y-136525000D03*
D13*
X178943000Y-126365000D03*
%TD*%
D12*
%TO.C,C24*%
X207468000Y-169936000D03*
X202468000Y-169936000D03*
%TD*%
%TO.C,C9*%
X93766000Y-100076000D03*
X98766000Y-100076000D03*
%TD*%
D14*
%TO.C,REF1*%
X51816000Y-38100000D03*
%TD*%
D12*
%TO.C,C25*%
X175220000Y-142240000D03*
X170220000Y-142240000D03*
%TD*%
D11*
%TO.C,C12*%
X66040000Y-192405000D03*
D12*
X63540000Y-192405000D03*
%TD*%
D11*
%TO.C,U4*%
X127605000Y-105664000D03*
D13*
X127605000Y-108204000D03*
X127605000Y-110744000D03*
X127605000Y-113284000D03*
X127605000Y-115824000D03*
X127605000Y-118364000D03*
X127605000Y-120904000D03*
X127605000Y-123444000D03*
X127605000Y-125984000D03*
X127605000Y-128524000D03*
X127605000Y-131064000D03*
X127605000Y-133604000D03*
X135225000Y-133604000D03*
X135225000Y-131064000D03*
X135225000Y-128524000D03*
X135225000Y-125984000D03*
X135225000Y-123444000D03*
X135225000Y-120904000D03*
X135225000Y-118364000D03*
X135225000Y-115824000D03*
X135225000Y-113284000D03*
X135225000Y-110744000D03*
X135225000Y-108204000D03*
X135225000Y-105664000D03*
%TD*%
D12*
%TO.C,R10*%
X78740000Y-99695000D03*
D13*
X68580000Y-99695000D03*
%TD*%
D12*
%TO.C,R17*%
X90424000Y-172466000D03*
D13*
X80264000Y-172466000D03*
%TD*%
D11*
%TO.C,U8*%
X192445000Y-102235000D03*
D13*
X192445000Y-104775000D03*
X192445000Y-107315000D03*
X192445000Y-109855000D03*
X192445000Y-112395000D03*
X192445000Y-114935000D03*
X192445000Y-117475000D03*
X192445000Y-120015000D03*
X192445000Y-122555000D03*
X192445000Y-125095000D03*
X192445000Y-127635000D03*
X192445000Y-130175000D03*
X192445000Y-132715000D03*
X192445000Y-135255000D03*
X192445000Y-137795000D03*
X192445000Y-140335000D03*
X207685000Y-140335000D03*
X207685000Y-137795000D03*
X207685000Y-135255000D03*
X207685000Y-132715000D03*
X207685000Y-130175000D03*
X207685000Y-127635000D03*
X207685000Y-125095000D03*
X207685000Y-122555000D03*
X207685000Y-120015000D03*
X207685000Y-117475000D03*
X207685000Y-114935000D03*
X207685000Y-112395000D03*
X207685000Y-109855000D03*
X207685000Y-107315000D03*
X207685000Y-104775000D03*
X207685000Y-102235000D03*
%TD*%
D12*
%TO.C,R20*%
X189484000Y-188722000D03*
D13*
X189484000Y-178562000D03*
%TD*%
D15*
%TO.C,D1*%
X85725000Y-99695000D03*
D16*
X83185000Y-99695000D03*
%TD*%
D17*
%TO.C,U3*%
X219670000Y-111525000D03*
D18*
X219670000Y-114065000D03*
X219670000Y-116605000D03*
X219670000Y-119145000D03*
X219670000Y-121685000D03*
X219670000Y-124225000D03*
X219670000Y-126765000D03*
X219670000Y-129305000D03*
X219670000Y-131845000D03*
X219670000Y-134385000D03*
X219670000Y-136925000D03*
X219670000Y-139465000D03*
X219670000Y-142005000D03*
X219670000Y-144545000D03*
X234910000Y-144545000D03*
X234910000Y-142005000D03*
X234910000Y-139465000D03*
X234910000Y-136925000D03*
X234910000Y-134385000D03*
X234910000Y-131845000D03*
X234910000Y-129305000D03*
X234910000Y-126765000D03*
X234910000Y-124225000D03*
X234910000Y-121685000D03*
X234910000Y-119145000D03*
X234910000Y-116605000D03*
X234910000Y-114065000D03*
X234910000Y-111525000D03*
%TD*%
D19*
%TO.C,U10*%
X205464440Y-40005020D03*
X202924440Y-40005020D03*
X200384440Y-40005020D03*
X197844440Y-40005020D03*
X195304440Y-40005020D03*
X192764440Y-40005020D03*
X190224440Y-40005020D03*
X187684440Y-40005020D03*
X185144440Y-40005020D03*
X182604440Y-40005020D03*
X180064440Y-40005020D03*
X177524440Y-40005020D03*
X174984440Y-40005020D03*
X172444440Y-40005020D03*
X169904440Y-40005020D03*
X167364440Y-40005020D03*
%TD*%
D20*
%TO.C,J7*%
X73025000Y-43180000D03*
D21*
X75565000Y-43180000D03*
X73025000Y-45720000D03*
X75565000Y-45720000D03*
X73025000Y-48260000D03*
X75565000Y-48260000D03*
X73025000Y-50800000D03*
X75565000Y-50800000D03*
X73025000Y-53340000D03*
X75565000Y-53340000D03*
X73025000Y-55880000D03*
X75565000Y-55880000D03*
X73025000Y-58420000D03*
X75565000Y-58420000D03*
X73025000Y-60960000D03*
X75565000Y-60960000D03*
X73025000Y-63500000D03*
X75565000Y-63500000D03*
X73025000Y-66040000D03*
X75565000Y-66040000D03*
X73025000Y-68580000D03*
X75565000Y-68580000D03*
X73025000Y-71120000D03*
X75565000Y-71120000D03*
X73025000Y-73660000D03*
X75565000Y-73660000D03*
X73025000Y-76200000D03*
X75565000Y-76200000D03*
X73025000Y-78740000D03*
X75565000Y-78740000D03*
X73025000Y-81280000D03*
X75565000Y-81280000D03*
X73025000Y-83820000D03*
X75565000Y-83820000D03*
X73025000Y-86360000D03*
X75565000Y-86360000D03*
X73025000Y-88900000D03*
X75565000Y-88900000D03*
X73025000Y-91440000D03*
X75565000Y-91440000D03*
%TD*%
D20*
%TO.C,J1*%
X102616000Y-73645000D03*
D21*
X102616000Y-76185000D03*
X102616000Y-78725000D03*
X102616000Y-81265000D03*
X102616000Y-83805000D03*
X102616000Y-86345000D03*
X102616000Y-88885000D03*
X102616000Y-91425000D03*
%TD*%
D12*
%TO.C,C26*%
X227036000Y-154955000D03*
X222036000Y-154955000D03*
%TD*%
D11*
%TO.C,U12*%
X216916000Y-159766000D03*
D13*
X216916000Y-162306000D03*
X216916000Y-164846000D03*
X216916000Y-167386000D03*
X216916000Y-169926000D03*
X216916000Y-172466000D03*
X216916000Y-175006000D03*
X216916000Y-177546000D03*
X216916000Y-180086000D03*
X216916000Y-182626000D03*
X216916000Y-185166000D03*
X216916000Y-187706000D03*
X216916000Y-190246000D03*
X216916000Y-192786000D03*
X232156000Y-192786000D03*
X232156000Y-190246000D03*
X232156000Y-187706000D03*
X232156000Y-185166000D03*
X232156000Y-182626000D03*
X232156000Y-180086000D03*
X232156000Y-177546000D03*
X232156000Y-175006000D03*
X232156000Y-172466000D03*
X232156000Y-169926000D03*
X232156000Y-167386000D03*
X232156000Y-164846000D03*
X232156000Y-162306000D03*
X232156000Y-159766000D03*
%TD*%
D12*
%TO.C,R11*%
X129540000Y-94234000D03*
D13*
X129540000Y-84074000D03*
%TD*%
D22*
%TO.C,SW2*%
X65890000Y-121702000D03*
X72390000Y-121702000D03*
X65890000Y-126202000D03*
X72390000Y-126202000D03*
%TD*%
D11*
%TO.C,U5*%
X88646000Y-105156000D03*
D13*
X88646000Y-107696000D03*
X88646000Y-110236000D03*
X88646000Y-112776000D03*
X88646000Y-115316000D03*
X88646000Y-117856000D03*
X88646000Y-120396000D03*
X88646000Y-122936000D03*
X88646000Y-125476000D03*
X88646000Y-128016000D03*
X88646000Y-130556000D03*
X88646000Y-133096000D03*
X88646000Y-135636000D03*
X88646000Y-138176000D03*
X88646000Y-140716000D03*
X88646000Y-143256000D03*
X88646000Y-145796000D03*
X88646000Y-148336000D03*
X88646000Y-150876000D03*
X88646000Y-153416000D03*
X103886000Y-153416000D03*
X103886000Y-150876000D03*
X103886000Y-148336000D03*
X103886000Y-145796000D03*
X103886000Y-143256000D03*
X103886000Y-140716000D03*
X103886000Y-138176000D03*
X103886000Y-135636000D03*
X103886000Y-133096000D03*
X103886000Y-130556000D03*
X103886000Y-128016000D03*
X103886000Y-125476000D03*
X103886000Y-122936000D03*
X103886000Y-120396000D03*
X103886000Y-117856000D03*
X103886000Y-115316000D03*
X103886000Y-112776000D03*
X103886000Y-110236000D03*
X103886000Y-107696000D03*
X103886000Y-105156000D03*
%TD*%
D23*
%TO.C,J19*%
X53096000Y-180848000D03*
X55546000Y-178848000D03*
D24*
X59246000Y-180848000D03*
X61146000Y-178848000D03*
D25*
X64896000Y-180848000D03*
%TD*%
D12*
%TO.C,C14*%
X170855000Y-90805000D03*
X175855000Y-90805000D03*
%TD*%
D20*
%TO.C,J10*%
X90805000Y-43180000D03*
D21*
X93345000Y-43180000D03*
X90805000Y-45720000D03*
X93345000Y-45720000D03*
X90805000Y-48260000D03*
X93345000Y-48260000D03*
X90805000Y-50800000D03*
X93345000Y-50800000D03*
X90805000Y-53340000D03*
X93345000Y-53340000D03*
X90805000Y-55880000D03*
X93345000Y-55880000D03*
X90805000Y-58420000D03*
X93345000Y-58420000D03*
X90805000Y-60960000D03*
X93345000Y-60960000D03*
X90805000Y-63500000D03*
X93345000Y-63500000D03*
X90805000Y-66040000D03*
X93345000Y-66040000D03*
X90805000Y-68580000D03*
X93345000Y-68580000D03*
X90805000Y-71120000D03*
X93345000Y-71120000D03*
X90805000Y-73660000D03*
X93345000Y-73660000D03*
X90805000Y-76200000D03*
X93345000Y-76200000D03*
X90805000Y-78740000D03*
X93345000Y-78740000D03*
X90805000Y-81280000D03*
X93345000Y-81280000D03*
X90805000Y-83820000D03*
X93345000Y-83820000D03*
X90805000Y-86360000D03*
X93345000Y-86360000D03*
X90805000Y-88900000D03*
X93345000Y-88900000D03*
X90805000Y-91440000D03*
X93345000Y-91440000D03*
%TD*%
D26*
%TO.C,J13*%
X59540000Y-146812000D03*
X59540000Y-171812000D03*
D11*
X60960000Y-164852000D03*
D12*
X60960000Y-162082000D03*
X60960000Y-159312000D03*
X60960000Y-156542000D03*
X60960000Y-153772000D03*
X58120000Y-163467000D03*
X58120000Y-160697000D03*
X58120000Y-157927000D03*
X58120000Y-155157000D03*
%TD*%
%TO.C,C6*%
X224830000Y-97155000D03*
X229830000Y-97155000D03*
%TD*%
D11*
%TO.C,J11*%
X56896000Y-135658000D03*
D12*
X56896000Y-133058000D03*
X56896000Y-137758000D03*
X56896000Y-130958000D03*
X59696000Y-137758000D03*
X59696000Y-130958000D03*
D27*
X54046000Y-127508000D03*
D28*
X53246000Y-134358000D03*
D27*
X54046000Y-141208000D03*
%TD*%
D12*
%TO.C,R16*%
X90424000Y-169418000D03*
D13*
X80264000Y-169418000D03*
%TD*%
D12*
%TO.C,R2*%
X77470000Y-135128000D03*
D13*
X77470000Y-124968000D03*
%TD*%
D11*
%TO.C,U2*%
X156210000Y-111125000D03*
D13*
X156210000Y-113665000D03*
X156210000Y-116205000D03*
X156210000Y-118745000D03*
X156210000Y-121285000D03*
X156210000Y-123825000D03*
X156210000Y-126365000D03*
X156210000Y-128905000D03*
X156210000Y-131445000D03*
X156210000Y-133985000D03*
X156210000Y-136525000D03*
X156210000Y-139065000D03*
X163830000Y-139065000D03*
X163830000Y-136525000D03*
X163830000Y-133985000D03*
X163830000Y-131445000D03*
X163830000Y-128905000D03*
X163830000Y-126365000D03*
X163830000Y-123825000D03*
X163830000Y-121285000D03*
X163830000Y-118745000D03*
X163830000Y-116205000D03*
X163830000Y-113665000D03*
X163830000Y-111125000D03*
%TD*%
D12*
%TO.C,C23*%
X102188000Y-178054000D03*
X107188000Y-178054000D03*
%TD*%
%TO.C,R13*%
X144272000Y-178816000D03*
D13*
X144272000Y-188976000D03*
%TD*%
D12*
%TO.C,R23*%
X96520000Y-172720000D03*
D13*
X106680000Y-172720000D03*
%TD*%
D11*
%TO.C,U7*%
X136906000Y-44191000D03*
D13*
X136906000Y-46731000D03*
X136906000Y-49271000D03*
X136906000Y-51811000D03*
X136906000Y-54351000D03*
X136906000Y-56891000D03*
X136906000Y-59431000D03*
X136906000Y-61971000D03*
X136906000Y-64511000D03*
X136906000Y-67051000D03*
X136906000Y-69591000D03*
X136906000Y-72131000D03*
X136906000Y-74671000D03*
X136906000Y-77211000D03*
X136906000Y-79751000D03*
X136906000Y-82291000D03*
X136906000Y-84831000D03*
X136906000Y-87371000D03*
X136906000Y-89911000D03*
X136906000Y-92451000D03*
X152146000Y-92451000D03*
X152146000Y-89911000D03*
X152146000Y-87371000D03*
X152146000Y-84831000D03*
X152146000Y-82291000D03*
X152146000Y-79751000D03*
X152146000Y-77211000D03*
X152146000Y-74671000D03*
X152146000Y-72131000D03*
X152146000Y-69591000D03*
X152146000Y-67051000D03*
X152146000Y-64511000D03*
X152146000Y-61971000D03*
X152146000Y-59431000D03*
X152146000Y-56891000D03*
X152146000Y-54351000D03*
X152146000Y-51811000D03*
X152146000Y-49271000D03*
X152146000Y-46731000D03*
X152146000Y-44191000D03*
%TD*%
D11*
%TO.C,J9*%
X56990000Y-118648000D03*
D12*
X56990000Y-116048000D03*
X56990000Y-120748000D03*
X56990000Y-113948000D03*
X59790000Y-120748000D03*
X59790000Y-113948000D03*
D27*
X54140000Y-110498000D03*
D28*
X53340000Y-117348000D03*
D27*
X54140000Y-124198000D03*
%TD*%
D15*
%TO.C,SW3*%
X66675000Y-105760000D03*
D16*
X69175000Y-105760000D03*
X71675000Y-105760000D03*
X66675000Y-111760000D03*
X69175000Y-111760000D03*
X71675000Y-111760000D03*
%TD*%
D11*
%TO.C,U9*%
X108336000Y-44191000D03*
D13*
X108336000Y-46731000D03*
X108336000Y-49271000D03*
X108336000Y-51811000D03*
X108336000Y-54351000D03*
X108336000Y-56891000D03*
X108336000Y-59431000D03*
X108336000Y-61971000D03*
X108336000Y-64511000D03*
X108336000Y-67051000D03*
X108336000Y-69591000D03*
X108336000Y-72131000D03*
X108336000Y-74671000D03*
X108336000Y-77211000D03*
X108336000Y-79751000D03*
X108336000Y-82291000D03*
X108336000Y-84831000D03*
X108336000Y-87371000D03*
X108336000Y-89911000D03*
X108336000Y-92451000D03*
X123576000Y-92451000D03*
X123576000Y-89911000D03*
X123576000Y-87371000D03*
X123576000Y-84831000D03*
X123576000Y-82291000D03*
X123576000Y-79751000D03*
X123576000Y-77211000D03*
X123576000Y-74671000D03*
X123576000Y-72131000D03*
X123576000Y-69591000D03*
X123576000Y-67051000D03*
X123576000Y-64511000D03*
X123576000Y-61971000D03*
X123576000Y-59431000D03*
X123576000Y-56891000D03*
X123576000Y-54351000D03*
X123576000Y-51811000D03*
X123576000Y-49271000D03*
X123576000Y-46731000D03*
X123576000Y-44191000D03*
%TD*%
D12*
%TO.C,C8*%
X147026000Y-39111000D03*
X142026000Y-39111000D03*
%TD*%
%TO.C,R15*%
X90424000Y-163322000D03*
D13*
X80264000Y-163322000D03*
%TD*%
D12*
%TO.C,C17*%
X134580000Y-142240000D03*
X129580000Y-142240000D03*
%TD*%
%TO.C,R24*%
X96520000Y-163576000D03*
D13*
X106680000Y-163576000D03*
%TD*%
D11*
%TO.C,U15*%
X124460000Y-147320000D03*
D13*
X124460000Y-149860000D03*
X124460000Y-152400000D03*
X124460000Y-154940000D03*
X124460000Y-157480000D03*
X124460000Y-160020000D03*
X124460000Y-162560000D03*
X124460000Y-165100000D03*
X124460000Y-167640000D03*
X124460000Y-170180000D03*
X124460000Y-172720000D03*
X124460000Y-175260000D03*
X124460000Y-177800000D03*
X124460000Y-180340000D03*
X124460000Y-182880000D03*
X124460000Y-185420000D03*
X124460000Y-187960000D03*
X124460000Y-190500000D03*
X124460000Y-193040000D03*
X124460000Y-195580000D03*
X139700000Y-195580000D03*
X139700000Y-193040000D03*
X139700000Y-190500000D03*
X139700000Y-187960000D03*
X139700000Y-185420000D03*
X139700000Y-182880000D03*
X139700000Y-180340000D03*
X139700000Y-177800000D03*
X139700000Y-175260000D03*
X139700000Y-172720000D03*
X139700000Y-170180000D03*
X139700000Y-167640000D03*
X139700000Y-165100000D03*
X139700000Y-162560000D03*
X139700000Y-160020000D03*
X139700000Y-157480000D03*
X139700000Y-154940000D03*
X139700000Y-152400000D03*
X139700000Y-149860000D03*
X139700000Y-147320000D03*
%TD*%
D11*
%TO.C,X1*%
X83820000Y-194564000D03*
D12*
X99060000Y-194564000D03*
X99060000Y-186944000D03*
X83820000Y-186944000D03*
%TD*%
D11*
%TO.C,U1*%
X112532000Y-106172000D03*
D13*
X112532000Y-108712000D03*
X112532000Y-111252000D03*
X112532000Y-113792000D03*
X112532000Y-116332000D03*
X112532000Y-118872000D03*
X112532000Y-121412000D03*
X120152000Y-121412000D03*
X120152000Y-118872000D03*
X120152000Y-116332000D03*
X120152000Y-113792000D03*
X120152000Y-111252000D03*
X120152000Y-108712000D03*
X120152000Y-106172000D03*
%TD*%
D12*
%TO.C,R9*%
X108204000Y-115316000D03*
D13*
X108204000Y-125476000D03*
%TD*%
D20*
%TO.C,J4*%
X102616000Y-49530000D03*
D21*
X102616000Y-52070000D03*
X102616000Y-54610000D03*
X102616000Y-57150000D03*
X102616000Y-59690000D03*
X102616000Y-62230000D03*
X102616000Y-64770000D03*
X102616000Y-67310000D03*
%TD*%
D12*
%TO.C,R18*%
X90424000Y-166370000D03*
D13*
X80264000Y-166370000D03*
%TD*%
D12*
%TO.C,C5*%
X202525000Y-97155000D03*
X197525000Y-97155000D03*
%TD*%
%TO.C,C28*%
X90598000Y-177800000D03*
X85598000Y-177800000D03*
%TD*%
D22*
%TO.C,SW1*%
X65965000Y-132624000D03*
X72465000Y-132624000D03*
X65965000Y-137124000D03*
X72465000Y-137124000D03*
%TD*%
D20*
%TO.C,J12*%
X146685000Y-139700000D03*
D21*
X146685000Y-137160000D03*
X146685000Y-134620000D03*
X146685000Y-132080000D03*
X146685000Y-129540000D03*
X146685000Y-127000000D03*
X146685000Y-124460000D03*
X146685000Y-121920000D03*
%TD*%
D11*
%TO.C,C22*%
X72579100Y-174498000D03*
D12*
X70079100Y-174498000D03*
%TD*%
D20*
%TO.C,J8*%
X82550000Y-106680000D03*
D21*
X82550000Y-109220000D03*
%TD*%
D20*
%TO.C,J3*%
X128016000Y-44846000D03*
D21*
X128016000Y-47386000D03*
X128016000Y-49926000D03*
X128016000Y-52466000D03*
X128016000Y-55006000D03*
X128016000Y-57546000D03*
X128016000Y-60086000D03*
X128016000Y-62626000D03*
%TD*%
D12*
%TO.C,C2*%
X119126000Y-128270000D03*
X114126000Y-128270000D03*
%TD*%
%TO.C,R12*%
X67246500Y-158940500D03*
D13*
X67246500Y-148780500D03*
%TD*%
D11*
%TO.C,U6*%
X176911000Y-102235000D03*
D13*
X176911000Y-104775000D03*
X176911000Y-107315000D03*
X176911000Y-109855000D03*
X176911000Y-112395000D03*
X176911000Y-114935000D03*
X176911000Y-117475000D03*
X176911000Y-120015000D03*
X184531000Y-120015000D03*
X184531000Y-117475000D03*
X184531000Y-114935000D03*
X184531000Y-112395000D03*
X184531000Y-109855000D03*
X184531000Y-107315000D03*
X184531000Y-104775000D03*
X184531000Y-102235000D03*
%TD*%
D12*
%TO.C,R4*%
X175895000Y-136525000D03*
D13*
X175895000Y-126365000D03*
%TD*%
D12*
%TO.C,R8*%
X65532000Y-117348000D03*
D13*
X75692000Y-117348000D03*
%TD*%
D20*
%TO.C,JP1*%
X77724000Y-193802000D03*
D21*
X77724000Y-191262000D03*
%TD*%
D14*
%TO.C,REF2*%
X238760000Y-38100000D03*
%TD*%
D11*
%TO.C,U11*%
X71183500Y-149796500D03*
D13*
X71183500Y-152336500D03*
X71183500Y-154876500D03*
X71183500Y-157416500D03*
X78803500Y-157416500D03*
X78803500Y-154876500D03*
X78803500Y-152336500D03*
X78803500Y-149796500D03*
%TD*%
D14*
%TO.C,REF4*%
X238760000Y-198120000D03*
%TD*%
D12*
%TO.C,C13*%
X86891500Y-157416500D03*
X81891500Y-157416500D03*
%TD*%
D11*
%TO.C,C21*%
X196723000Y-194437000D03*
D12*
X194223000Y-194437000D03*
%TD*%
D20*
%TO.C,J15*%
X114305000Y-174620000D03*
D21*
X114305000Y-172080000D03*
X114305000Y-169540000D03*
X114305000Y-167000000D03*
X114305000Y-164460000D03*
X114305000Y-161920000D03*
X114305000Y-159380000D03*
X114305000Y-156840000D03*
%TD*%
D12*
%TO.C,C16*%
X77707500Y-144716500D03*
X72707500Y-144716500D03*
%TD*%
D11*
%TO.C,C20*%
X196453000Y-171577000D03*
D12*
X193953000Y-171577000D03*
%TD*%
D20*
%TO.C,J16*%
X114305000Y-197480000D03*
D21*
X114305000Y-194940000D03*
X114305000Y-192400000D03*
X114305000Y-189860000D03*
X114305000Y-187320000D03*
X114305000Y-184780000D03*
X114305000Y-182240000D03*
X114305000Y-179700000D03*
%TD*%
D12*
%TO.C,C10*%
X119554000Y-101224000D03*
X114554000Y-101224000D03*
%TD*%
D20*
%TO.C,J14*%
X219456000Y-198897000D03*
D21*
X221996000Y-198897000D03*
X224536000Y-198897000D03*
X227076000Y-198897000D03*
X229616000Y-198897000D03*
%TD*%
D12*
%TO.C,R22*%
X96520000Y-166624000D03*
D13*
X106680000Y-166624000D03*
%TD*%
D12*
%TO.C,R6*%
X181991000Y-136525000D03*
D13*
X181991000Y-126365000D03*
%TD*%
D20*
%TO.C,J17*%
X154940000Y-196215000D03*
D21*
X154940000Y-193675000D03*
X154940000Y-191135000D03*
X154940000Y-188595000D03*
X154940000Y-186055000D03*
X154940000Y-183515000D03*
X154940000Y-180975000D03*
X154940000Y-178435000D03*
%TD*%
D11*
%TO.C,C18*%
X196586000Y-179080000D03*
D12*
X194086000Y-179080000D03*
%TD*%
%TO.C,C3*%
X133945000Y-100843000D03*
X128945000Y-100843000D03*
%TD*%
D29*
%TO.C,Q1*%
X78415000Y-111125000D03*
D30*
X78415000Y-108585000D03*
X78415000Y-106045000D03*
%TD*%
D11*
%TO.C,U16*%
X165100000Y-147320000D03*
D13*
X165100000Y-149860000D03*
X165100000Y-152400000D03*
X165100000Y-154940000D03*
X165100000Y-157480000D03*
X165100000Y-160020000D03*
X165100000Y-162560000D03*
X165100000Y-165100000D03*
X165100000Y-167640000D03*
X165100000Y-170180000D03*
X165100000Y-172720000D03*
X165100000Y-175260000D03*
X165100000Y-177800000D03*
X165100000Y-180340000D03*
X165100000Y-182880000D03*
X165100000Y-185420000D03*
X165100000Y-187960000D03*
X165100000Y-190500000D03*
X165100000Y-193040000D03*
X165100000Y-195580000D03*
X180340000Y-195580000D03*
X180340000Y-193040000D03*
X180340000Y-190500000D03*
X180340000Y-187960000D03*
X180340000Y-185420000D03*
X180340000Y-182880000D03*
X180340000Y-180340000D03*
X180340000Y-177800000D03*
X180340000Y-175260000D03*
X180340000Y-172720000D03*
X180340000Y-170180000D03*
X180340000Y-167640000D03*
X180340000Y-165100000D03*
X180340000Y-162560000D03*
X180340000Y-160020000D03*
X180340000Y-157480000D03*
X180340000Y-154940000D03*
X180340000Y-152400000D03*
X180340000Y-149860000D03*
X180340000Y-147320000D03*
%TD*%
D12*
%TO.C,R14*%
X147574000Y-188976000D03*
D13*
X147574000Y-178816000D03*
%TD*%
D12*
%TO.C,R21*%
X96520000Y-169672000D03*
D13*
X106680000Y-169672000D03*
%TD*%
D11*
%TO.C,U13*%
X201168000Y-174752000D03*
D13*
X201168000Y-177292000D03*
X201168000Y-179832000D03*
X201168000Y-182372000D03*
X201168000Y-184912000D03*
X201168000Y-187452000D03*
X201168000Y-189992000D03*
X201168000Y-192532000D03*
X208788000Y-192532000D03*
X208788000Y-189992000D03*
X208788000Y-187452000D03*
X208788000Y-184912000D03*
X208788000Y-182372000D03*
X208788000Y-179832000D03*
X208788000Y-177292000D03*
X208788000Y-174752000D03*
%TD*%
D20*
%TO.C,J2*%
X55245000Y-43180000D03*
D21*
X57785000Y-43180000D03*
X55245000Y-45720000D03*
X57785000Y-45720000D03*
X55245000Y-48260000D03*
X57785000Y-48260000D03*
X55245000Y-50800000D03*
X57785000Y-50800000D03*
X55245000Y-53340000D03*
X57785000Y-53340000D03*
X55245000Y-55880000D03*
X57785000Y-55880000D03*
X55245000Y-58420000D03*
X57785000Y-58420000D03*
X55245000Y-60960000D03*
X57785000Y-60960000D03*
X55245000Y-63500000D03*
X57785000Y-63500000D03*
X55245000Y-66040000D03*
X57785000Y-66040000D03*
X55245000Y-68580000D03*
X57785000Y-68580000D03*
X55245000Y-71120000D03*
X57785000Y-71120000D03*
X55245000Y-73660000D03*
X57785000Y-73660000D03*
X55245000Y-76200000D03*
X57785000Y-76200000D03*
X55245000Y-78740000D03*
X57785000Y-78740000D03*
X55245000Y-81280000D03*
X57785000Y-81280000D03*
X55245000Y-83820000D03*
X57785000Y-83820000D03*
X55245000Y-86360000D03*
X57785000Y-86360000D03*
X55245000Y-88900000D03*
X57785000Y-88900000D03*
X55245000Y-91440000D03*
X57785000Y-91440000D03*
%TD*%
D31*
%TO.C,J6*%
X61880000Y-101150500D03*
D32*
X55880000Y-101150500D03*
D33*
X58880000Y-105850500D03*
%TD*%
D20*
%TO.C,J5*%
X146685000Y-106680000D03*
D21*
X146685000Y-109220000D03*
X146685000Y-111760000D03*
X146685000Y-114300000D03*
%TD*%
D12*
%TO.C,C1*%
X118456000Y-39111000D03*
X113456000Y-39111000D03*
%TD*%
D15*
%TO.C,D2*%
X129540000Y-76962000D03*
D16*
X129540000Y-79502000D03*
%TD*%
D20*
%TO.C,JP2*%
X180594000Y-90932000D03*
D21*
X183134000Y-90932000D03*
%TD*%
D11*
%TO.C,C19*%
X196586000Y-186700000D03*
D12*
X194086000Y-186700000D03*
%TD*%
%TO.C,C11*%
X183211000Y-97155000D03*
X178211000Y-97155000D03*
%TD*%
D14*
%TO.C,REF3*%
X53340000Y-197485000D03*
%TD*%
D12*
%TO.C,C4*%
X162814000Y-106304000D03*
X157814000Y-106304000D03*
%TD*%
%TO.C,R1*%
X80645000Y-135128000D03*
D13*
X80645000Y-124968000D03*
%TD*%
D12*
%TO.C,C7*%
X79034000Y-117602000D03*
X84034000Y-117602000D03*
%TD*%
D11*
%TO.C,X2*%
X195072000Y-162062000D03*
D12*
X210312000Y-162062000D03*
X210312000Y-154442000D03*
X195072000Y-154442000D03*
%TD*%
D20*
%TO.C,J18*%
X154940000Y-173355000D03*
D21*
X154940000Y-170815000D03*
X154940000Y-168275000D03*
X154940000Y-165735000D03*
X154940000Y-163195000D03*
X154940000Y-160655000D03*
X154940000Y-158115000D03*
X154940000Y-155575000D03*
%TD*%
M02*
