M48
; DRILL file {KiCad 7.0.5} date Tue Jul 25 18:54:25 2023
; FORMAT={-:-/ absolute / metric / decimal}
; #@! TF.CreationDate,2023-07-25T18:54:25-05:00
; #@! TF.GenerationSoftware,Kicad,Pcbnew,7.0.5
; #@! TF.FileFunction,MixedPlating,1,2
FMAT,2
METRIC
; #@! TA.AperFunction,Plated,PTH,ViaDrill
T1C0.400
; #@! TA.AperFunction,Plated,PTH,ComponentDrill
T2C0.800
; #@! TA.AperFunction,Plated,PTH,ComponentDrill
T3C0.900
; #@! TA.AperFunction,Plated,PTH,ComponentDrill
T4C1.000
; #@! TA.AperFunction,Plated,PTH,ComponentDrill
T5C1.001
; #@! TA.AperFunction,Plated,PTH,ComponentDrill
T6C1.100
; #@! TA.AperFunction,Plated,PTH,ComponentDrill
T7C2.000
; #@! TA.AperFunction,Plated,PTH,ComponentDrill
T8C2.500
; #@! TA.AperFunction,Plated,PTH,ComponentDrill
T9C3.200
%
G90
G05
T1
X45.927Y-207.815
X51.668Y-93.966
X54.084Y-91.774
X56.138Y-91.896
X59.677Y-84.021
X59.766Y-70.742
X61.809Y-137.831
X66.196Y-148.414
X71.56Y-205.191
X71.84Y-110.359
X78.084Y-105.79
X78.813Y-104.457
X80.362Y-96.77
X84.264Y-132.308
X84.289Y-138.684
X85.016Y-140.83
X86.33Y-53.594
X86.441Y-107.02
X92.498Y-90.037
X92.863Y-49.157
X93.279Y-125.718
X101.139Y-80.873
X102.744Y-142.414
X103.177Y-80.162
X105.107Y-162.357
X105.558Y-58.193
X105.952Y-92.049
X106.345Y-170.861
X106.771Y-131.578
X106.978Y-100.424
X106.995Y-108.848
X107.705Y-97.741
X107.775Y-55.375
X108.097Y-72.027
X109.108Y-144.013
X109.371Y-92.712
X109.792Y-53.43
X110.141Y-78.552
X110.17Y-54.892
X110.182Y-79.554
X110.546Y-72.534
X110.952Y-80.84
X111.474Y-78.022
X111.578Y-89.776
X111.578Y-125.03
X112.832Y-101.626
X112.868Y-80.826
X113.136Y-190.115
X113.492Y-138.997
X113.917Y-132.967
X114.635Y-78.342
X114.858Y-92.807
X115.128Y-104.121
X115.304Y-182.317
X115.705Y-134.671
X115.982Y-100.951
X116.453Y-194.31
X116.929Y-59.266
X117.445Y-68.617
X117.546Y-92.853
X118.62Y-148.342
X118.811Y-155.048
X119.129Y-130.156
X119.553Y-157.377
X119.828Y-154.532
X120.813Y-148.59
X120.841Y-132.458
X120.982Y-59.574
X121.516Y-156.908
X121.599Y-136.323
X121.709Y-57.136
X122.314Y-121.153
X122.314Y-129.256
X122.45Y-68.613
X123.156Y-163.133
X123.328Y-51.924
X123.489Y-95.548
X123.61Y-65.836
X124.017Y-54.432
X124.243Y-97.059
X125.871Y-137.447
X126.679Y-100.951
X126.755Y-184.736
X126.871Y-47.826
X128.383Y-45.079
X128.383Y-89.648
X128.81Y-135.774
X129.116Y-158.491
X129.248Y-73.697
X129.464Y-49.087
X130.321Y-150.517
X130.67Y-132.503
X132.506Y-131.313
X133.384Y-147.871
X133.424Y-168.91
X134.225Y-145.368
X134.406Y-146.822
X136.923Y-119.848
X137.244Y-117.335
X139.294Y-100.225
X139.402Y-113.296
X139.882Y-51.998
X140.088Y-131.313
X143.856Y-182.88
X144.235Y-112.464
X144.333Y-92.221
X145.774Y-144.916
X147.258Y-199.282
X147.412Y-144.464
X147.51Y-121.723
X148.291Y-154.003
X148.364Y-201.103
X148.864Y-197.126
X149.354Y-144.012
X149.765Y-107.548
X151.062Y-189.339
X151.421Y-125.686
X151.871Y-155.177
X153.021Y-104.039
X153.056Y-108.297
X153.848Y-180.34
X154.266Y-117.332
X154.534Y-153.164
X159.093Y-182.987
X160.434Y-185.42
X161.655Y-119.865
X162.112Y-149.484
X162.62Y-118.613
X163.813Y-130.039
X165.113Y-134.114
X167.143Y-144.365
X169.277Y-108.476
X169.726Y-167.64
X171.424Y-140.795
X172.442Y-123.952
X174.216Y-135.13
X174.475Y-90.027
X175.461Y-141.026
X176.152Y-95.336
X176.572Y-140.954
X176.674Y-112.38
X176.812Y-84.968
X178.109Y-63.5
X178.406Y-119.778
X181.091Y-121.875
X184.873Y-136.573
X186.628Y-136.547
X190.552Y-134.998
X191.405Y-129.032
X192.572Y-92.71
X196.151Y-105.276
X196.222Y-143.002
X198.853Y-140.462
X198.91Y-144.272
X199.469Y-169.911
X200.37Y-176.402
X201.373Y-151.714
X202.375Y-151.766
X202.917Y-137.538
X203.822Y-175.882
X204.646Y-163.882
X205.842Y-96.52
X210.496Y-58.42
X215.626Y-55.88
X218.206Y-158.836
X223.942Y-179.792
T2
X29.11Y-125.632
X29.11Y-132.432
X29.204Y-108.584
X29.204Y-115.384
X31.91Y-125.632
X31.91Y-127.732
X31.91Y-130.332
X31.91Y-132.432
X32.004Y-108.584
X32.004Y-110.684
X32.004Y-113.284
X32.004Y-115.384
X33.052Y-186.944
X33.528Y-57.404
X35.052Y-186.944
X36.108Y-74.168
X41.108Y-74.168
X42.164Y-186.944
X43.688Y-57.404
X44.164Y-186.944
X54.356Y-171.704
X54.356Y-176.784
X54.356Y-181.356
X54.356Y-186.436
X55.912Y-142.748
X56.936Y-192.024
X57.404Y-149.352
X57.404Y-159.512
X57.912Y-142.748
X61.936Y-192.024
X64.516Y-171.704
X64.516Y-176.784
X64.516Y-181.356
X64.516Y-186.436
X65.024Y-151.384
X65.024Y-153.924
X65.024Y-156.464
X65.024Y-159.004
X66.832Y-146.304
X70.612Y-111.252
X70.612Y-116.332
X70.612Y-120.904
X70.612Y-132.08
X70.612Y-136.652
X71.12Y-171.704
X71.12Y-176.276
X71.12Y-180.848
X71.12Y-185.928
X71.832Y-146.304
X72.644Y-151.384
X72.644Y-153.924
X72.644Y-156.464
X72.644Y-159.004
X73.192Y-126.492
X73.74Y-191.516
X75.732Y-159.004
X77.724Y-99.06
X78.192Y-126.492
X78.74Y-191.516
X80.732Y-159.004
X80.772Y-111.252
X80.772Y-116.332
X80.772Y-120.904
X80.772Y-132.08
X80.772Y-136.652
X81.28Y-171.704
X81.28Y-176.276
X81.28Y-180.848
X81.28Y-185.928
X87.884Y-99.06
X89.408Y-110.744
X89.408Y-113.284
X89.408Y-115.824
X89.408Y-118.364
X89.408Y-120.904
X89.408Y-123.444
X89.408Y-125.984
X89.408Y-128.524
X89.408Y-131.064
X89.408Y-133.604
X89.408Y-136.144
X89.408Y-138.684
X89.408Y-141.224
X89.408Y-143.764
X89.408Y-146.304
X89.408Y-148.844
X89.408Y-151.384
X89.408Y-153.924
X89.408Y-156.464
X89.408Y-159.004
X89.916Y-177.546
X89.916Y-185.166
X94.528Y-105.664
X99.528Y-105.664
X104.14Y-50.8
X104.14Y-53.34
X104.14Y-55.88
X104.14Y-58.42
X104.14Y-60.96
X104.14Y-63.5
X104.14Y-66.04
X104.14Y-68.58
X104.14Y-71.12
X104.14Y-73.66
X104.14Y-76.2
X104.14Y-78.74
X104.14Y-81.28
X104.14Y-83.82
X104.14Y-86.36
X104.14Y-88.9
X104.14Y-91.44
X104.14Y-93.98
X104.14Y-96.52
X104.14Y-99.06
X104.648Y-110.744
X104.648Y-113.284
X104.648Y-115.824
X104.648Y-118.364
X104.648Y-120.904
X104.648Y-123.444
X104.648Y-125.984
X104.648Y-128.524
X104.648Y-131.064
X104.648Y-133.604
X104.648Y-136.144
X104.648Y-138.684
X104.648Y-141.224
X104.648Y-143.764
X104.648Y-146.304
X104.648Y-148.844
X104.648Y-151.384
X104.648Y-153.924
X104.648Y-156.464
X104.648Y-159.004
X105.156Y-177.546
X105.156Y-185.166
X109.26Y-45.72
X113.792Y-166.624
X113.792Y-171.196
X113.792Y-175.768
X113.792Y-180.34
X114.26Y-45.72
X116.84Y-110.993
X116.84Y-113.533
X116.84Y-116.073
X116.84Y-118.613
X116.84Y-121.153
X116.84Y-123.693
X116.84Y-126.233
X116.84Y-137.16
X116.84Y-139.7
X116.84Y-142.24
X116.84Y-144.78
X116.84Y-147.32
X116.84Y-149.86
X116.84Y-152.4
X118.364Y-106.172
X118.444Y-132.08
X119.38Y-50.8
X119.38Y-53.34
X119.38Y-55.88
X119.38Y-58.42
X119.38Y-60.96
X119.38Y-63.5
X119.38Y-66.04
X119.38Y-68.58
X119.38Y-71.12
X119.38Y-73.66
X119.38Y-76.2
X119.38Y-78.74
X119.38Y-81.28
X119.38Y-83.82
X119.38Y-86.36
X119.38Y-88.9
X119.38Y-91.44
X119.38Y-93.98
X119.38Y-96.52
X119.38Y-99.06
X123.364Y-106.172
X123.444Y-132.08
X123.952Y-166.624
X123.952Y-171.196
X123.952Y-175.768
X123.952Y-180.34
X124.46Y-110.993
X124.46Y-113.533
X124.46Y-116.073
X124.46Y-118.613
X124.46Y-121.153
X124.46Y-123.693
X124.46Y-126.233
X124.46Y-137.16
X124.46Y-139.7
X124.46Y-142.24
X124.46Y-144.78
X124.46Y-147.32
X124.46Y-149.86
X124.46Y-152.4
X130.556Y-157.48
X130.556Y-160.02
X130.556Y-162.56
X130.556Y-165.1
X130.556Y-167.64
X130.556Y-170.18
X130.556Y-172.72
X130.556Y-175.26
X130.556Y-177.8
X130.556Y-180.34
X130.556Y-182.88
X130.556Y-185.42
X130.556Y-187.96
X130.556Y-190.5
X130.556Y-193.04
X130.556Y-195.58
X130.556Y-198.12
X130.556Y-200.66
X130.556Y-203.2
X130.556Y-205.74
X131.064Y-50.8
X131.064Y-53.34
X131.064Y-55.88
X131.064Y-58.42
X131.064Y-60.96
X131.064Y-63.5
X131.064Y-66.04
X131.064Y-68.58
X131.064Y-71.12
X131.064Y-73.66
X131.064Y-76.2
X131.064Y-78.74
X131.064Y-81.28
X131.064Y-83.82
X131.064Y-86.36
X131.064Y-88.9
X131.064Y-91.44
X131.064Y-93.98
X131.064Y-96.52
X131.064Y-99.06
X135.392Y-110.993
X135.392Y-113.533
X135.392Y-116.073
X135.392Y-118.613
X135.392Y-121.153
X135.392Y-123.693
X135.392Y-126.233
X135.392Y-128.773
X135.392Y-131.313
X135.392Y-133.853
X135.392Y-136.393
X135.392Y-138.933
X135.676Y-152.4
X136.224Y-45.72
X136.732Y-106.172
X140.676Y-152.4
X141.224Y-45.72
X141.732Y-106.172
X143.012Y-110.993
X143.012Y-113.533
X143.012Y-116.073
X143.012Y-118.613
X143.012Y-121.153
X143.012Y-123.693
X143.012Y-126.233
X143.012Y-128.773
X143.012Y-131.313
X143.012Y-133.853
X143.012Y-136.393
X143.012Y-138.933
X145.796Y-157.48
X145.796Y-160.02
X145.796Y-162.56
X145.796Y-165.1
X145.796Y-167.64
X145.796Y-170.18
X145.796Y-172.72
X145.796Y-175.26
X145.796Y-177.8
X145.796Y-180.34
X145.796Y-182.88
X145.796Y-185.42
X145.796Y-187.96
X145.796Y-190.5
X145.796Y-193.04
X145.796Y-195.58
X145.796Y-198.12
X145.796Y-200.66
X145.796Y-203.2
X145.796Y-205.74
X146.304Y-50.8
X146.304Y-53.34
X146.304Y-55.88
X146.304Y-58.42
X146.304Y-60.96
X146.304Y-63.5
X146.304Y-66.04
X146.304Y-68.58
X146.304Y-71.12
X146.304Y-73.66
X146.304Y-76.2
X146.304Y-78.74
X146.304Y-81.28
X146.304Y-83.82
X146.304Y-86.36
X146.304Y-88.9
X146.304Y-91.44
X146.304Y-93.98
X146.304Y-96.52
X146.304Y-99.06
X152.908Y-110.993
X152.908Y-113.533
X152.908Y-116.073
X152.908Y-118.613
X152.908Y-121.153
X152.908Y-123.693
X152.908Y-126.233
X152.908Y-128.773
X152.908Y-131.313
X152.908Y-133.853
X152.908Y-136.393
X152.908Y-138.933
X154.432Y-39.624
X154.432Y-44.704
X154.512Y-106.172
X156.972Y-42.164
X156.972Y-157.48
X156.972Y-160.02
X156.972Y-162.56
X156.972Y-165.1
X156.972Y-167.64
X156.972Y-170.18
X156.972Y-172.72
X156.972Y-175.26
X156.972Y-177.8
X156.972Y-180.34
X156.972Y-182.88
X156.972Y-185.42
X156.972Y-187.96
X156.972Y-190.5
X156.972Y-193.04
X156.972Y-195.58
X156.972Y-198.12
X156.972Y-200.66
X156.972Y-203.2
X156.972Y-205.74
X159.512Y-106.172
X160.528Y-110.993
X160.528Y-113.533
X160.528Y-116.073
X160.528Y-118.613
X160.528Y-121.153
X160.528Y-123.693
X160.528Y-126.233
X160.528Y-128.773
X160.528Y-131.313
X160.528Y-133.853
X160.528Y-136.393
X160.528Y-138.933
X162.092Y-152.4
X163.108Y-41.148
X167.092Y-152.4
X167.396Y-111.252
X167.396Y-113.792
X167.396Y-116.332
X167.396Y-118.872
X167.396Y-121.412
X167.396Y-123.952
X167.396Y-126.492
X167.396Y-129.032
X167.64Y-136.144
X167.64Y-146.304
X168.108Y-41.148
X168.696Y-106.172
X172.212Y-136.144
X172.212Y-146.304
X172.212Y-157.48
X172.212Y-160.02
X172.212Y-162.56
X172.212Y-165.1
X172.212Y-167.64
X172.212Y-170.18
X172.212Y-172.72
X172.212Y-175.26
X172.212Y-177.8
X172.212Y-180.34
X172.212Y-182.88
X172.212Y-185.42
X172.212Y-187.96
X172.212Y-190.5
X172.212Y-193.04
X172.212Y-195.58
X172.212Y-198.12
X172.212Y-200.66
X172.212Y-203.2
X172.212Y-205.74
X173.696Y-106.172
X175.016Y-111.252
X175.016Y-113.792
X175.016Y-116.332
X175.016Y-118.872
X175.016Y-121.412
X175.016Y-123.952
X175.016Y-126.492
X175.016Y-129.032
X176.784Y-136.144
X176.784Y-146.304
X181.356Y-136.144
X181.356Y-146.304
X187.452Y-169.911
X187.452Y-172.451
X187.452Y-174.991
X187.452Y-177.531
X187.452Y-180.071
X187.452Y-182.611
X187.452Y-185.151
X187.452Y-187.691
X187.452Y-190.231
X187.452Y-192.771
X187.452Y-195.311
X187.452Y-197.851
X187.452Y-200.391
X187.452Y-202.931
X188.976Y-111.252
X188.976Y-113.792
X188.976Y-116.332
X188.976Y-118.872
X188.976Y-121.412
X188.976Y-123.952
X188.976Y-126.492
X188.976Y-129.032
X188.976Y-131.572
X188.976Y-134.112
X188.976Y-136.652
X188.976Y-139.192
X188.976Y-141.732
X188.976Y-144.272
X188.976Y-146.812
X188.976Y-149.352
X192.572Y-165.1
X194.056Y-106.172
X197.572Y-165.1
X199.056Y-106.172
X202.692Y-169.911
X202.692Y-172.451
X202.692Y-174.991
X202.692Y-177.531
X202.692Y-180.071
X202.692Y-182.611
X202.692Y-185.151
X202.692Y-187.691
X202.692Y-190.231
X202.692Y-192.771
X202.692Y-195.311
X202.692Y-197.851
X202.692Y-200.391
X202.692Y-202.931
X204.216Y-111.252
X204.216Y-113.792
X204.216Y-116.332
X204.216Y-118.872
X204.216Y-121.412
X204.216Y-123.952
X204.216Y-126.492
X204.216Y-129.032
X204.216Y-131.572
X204.216Y-134.112
X204.216Y-136.652
X204.216Y-139.192
X204.216Y-141.732
X204.216Y-144.272
X204.216Y-146.812
X204.216Y-149.352
X213.884Y-183.896
X213.9Y-191.516
X213.9Y-199.136
X213.9Y-206.756
X215.884Y-183.896
X215.9Y-191.516
X215.9Y-199.136
X215.9Y-206.756
X219.456Y-166.878
X219.456Y-174.498
X223.276Y-187.188
X223.276Y-189.728
X223.276Y-192.268
X223.276Y-194.808
X223.276Y-197.348
X223.276Y-199.888
X223.276Y-202.428
X223.276Y-204.968
X224.576Y-182.372
X224.616Y-106.172
X229.576Y-182.372
X229.616Y-106.172
X230.896Y-187.188
X230.896Y-189.728
X230.896Y-192.268
X230.896Y-194.808
X230.896Y-197.348
X230.896Y-199.888
X230.896Y-202.428
X230.896Y-204.968
X234.696Y-166.878
X234.696Y-174.498
T3
X37.084Y-50.8
X39.624Y-50.8
X52.912Y-97.632
X52.912Y-103.632
X55.412Y-97.632
X55.412Y-103.632
X57.912Y-97.632
X57.912Y-103.632
X69.088Y-99.06
X71.628Y-99.06
T4
X37.592Y-64.008
X40.132Y-64.008
X43.792Y-149.569
X43.792Y-152.339
X43.792Y-155.109
X43.792Y-157.879
X45.72Y-209.296
X46.632Y-148.184
X46.632Y-150.954
X46.632Y-153.724
X46.632Y-156.494
X46.632Y-159.264
X48.26Y-209.296
X50.8Y-209.296
X53.34Y-42.164
X53.34Y-44.704
X53.34Y-47.244
X53.34Y-49.784
X53.34Y-52.324
X53.34Y-54.864
X53.34Y-57.404
X53.34Y-59.944
X53.34Y-62.484
X53.34Y-65.024
X53.34Y-67.564
X53.34Y-70.104
X53.34Y-72.644
X53.34Y-75.184
X53.34Y-77.724
X53.34Y-80.264
X53.34Y-82.804
X53.34Y-85.344
X53.34Y-87.884
X53.34Y-90.424
X53.34Y-209.296
X55.372Y-203.2
X55.88Y-42.164
X55.88Y-44.704
X55.88Y-47.244
X55.88Y-49.784
X55.88Y-52.324
X55.88Y-54.864
X55.88Y-57.404
X55.88Y-59.944
X55.88Y-62.484
X55.88Y-65.024
X55.88Y-67.564
X55.88Y-70.104
X55.88Y-72.644
X55.88Y-75.184
X55.88Y-77.724
X55.88Y-80.264
X55.88Y-82.804
X55.88Y-85.344
X55.88Y-87.884
X55.88Y-90.424
X55.88Y-209.296
X57.912Y-203.2
X58.42Y-209.296
X60.452Y-203.2
X60.96Y-209.296
X62.992Y-203.2
X63.5Y-209.296
X69.088Y-42.164
X69.088Y-44.704
X69.088Y-47.244
X69.088Y-49.784
X69.088Y-52.324
X69.088Y-54.864
X69.088Y-57.404
X69.088Y-59.944
X69.088Y-62.484
X69.088Y-65.024
X69.088Y-67.564
X69.088Y-70.104
X69.088Y-72.644
X69.088Y-75.184
X69.088Y-77.724
X69.088Y-80.264
X69.088Y-82.804
X69.088Y-85.344
X69.088Y-87.884
X69.088Y-90.424
X71.628Y-42.164
X71.628Y-44.704
X71.628Y-47.244
X71.628Y-49.784
X71.628Y-52.324
X71.628Y-54.864
X71.628Y-57.404
X71.628Y-59.944
X71.628Y-62.484
X71.628Y-65.024
X71.628Y-67.564
X71.628Y-70.104
X71.628Y-72.644
X71.628Y-75.184
X71.628Y-77.724
X71.628Y-80.264
X71.628Y-82.804
X71.628Y-85.344
X71.628Y-87.884
X71.628Y-90.424
X82.296Y-199.644
X82.296Y-209.296
X84.836Y-42.164
X84.836Y-44.704
X84.836Y-47.244
X84.836Y-49.784
X84.836Y-52.324
X84.836Y-54.864
X84.836Y-57.404
X84.836Y-59.944
X84.836Y-62.484
X84.836Y-65.024
X84.836Y-67.564
X84.836Y-70.104
X84.836Y-72.644
X84.836Y-75.184
X84.836Y-77.724
X84.836Y-80.264
X84.836Y-82.804
X84.836Y-85.344
X84.836Y-87.884
X84.836Y-90.424
X84.836Y-199.644
X84.836Y-209.296
X87.376Y-42.164
X87.376Y-44.704
X87.376Y-47.244
X87.376Y-49.784
X87.376Y-52.324
X87.376Y-54.864
X87.376Y-57.404
X87.376Y-59.944
X87.376Y-62.484
X87.376Y-65.024
X87.376Y-67.564
X87.376Y-70.104
X87.376Y-72.644
X87.376Y-75.184
X87.376Y-77.724
X87.376Y-80.264
X87.376Y-82.804
X87.376Y-85.344
X87.376Y-87.884
X87.376Y-90.424
X87.376Y-199.644
X87.376Y-209.296
X89.916Y-199.644
X89.916Y-209.296
X92.456Y-199.644
X92.456Y-209.296
X94.996Y-199.644
X94.996Y-209.296
X96.52Y-169.672
X97.536Y-199.644
X97.536Y-209.296
X99.06Y-169.672
X100.076Y-199.644
X100.076Y-209.296
X106.172Y-209.296
X106.68Y-199.644
X108.712Y-209.296
X109.22Y-199.644
X111.252Y-209.296
X111.76Y-199.644
X113.792Y-209.296
X114.3Y-199.644
X116.332Y-209.296
X116.84Y-199.644
X117.109Y-40.132
X118.872Y-209.296
X119.38Y-199.644
X119.649Y-40.132
X121.412Y-209.296
X121.92Y-199.644
X122.189Y-40.132
X123.952Y-209.296
X124.46Y-199.644
X124.729Y-40.132
X125.476Y-53.101
X125.476Y-55.641
X125.476Y-58.181
X125.476Y-60.721
X125.476Y-63.261
X125.476Y-65.801
X125.476Y-68.341
X125.476Y-70.881
X125.476Y-76.708
X125.476Y-79.248
X125.476Y-81.788
X125.476Y-84.328
X125.476Y-86.868
X125.476Y-89.408
X125.476Y-91.948
X125.476Y-94.488
X127.269Y-40.132
X129.809Y-40.132
X132.349Y-40.132
X134.889Y-40.132
X189.992Y-210.312
X192.532Y-210.312
X195.072Y-210.312
X197.612Y-210.312
X200.152Y-210.312
X219.456Y-120.542
X219.456Y-123.082
X219.456Y-125.622
X219.456Y-128.162
X219.456Y-130.702
X219.456Y-133.242
X219.456Y-135.782
X219.456Y-138.322
X219.456Y-140.862
X219.456Y-143.402
X219.456Y-145.942
X219.456Y-148.482
X219.456Y-151.022
X219.456Y-153.562
X234.696Y-120.542
X234.696Y-123.082
X234.696Y-125.622
X234.696Y-128.162
X234.696Y-130.702
X234.696Y-133.242
X234.696Y-135.782
X234.696Y-138.322
X234.696Y-140.862
X234.696Y-143.402
X234.696Y-145.942
X234.696Y-148.482
X234.696Y-151.022
X234.696Y-153.562
T5
X171.174Y-49.207
X173.714Y-49.207
X176.254Y-49.207
X178.794Y-49.207
X181.334Y-49.207
X183.874Y-49.207
X186.414Y-49.207
X188.954Y-49.207
X191.494Y-49.207
X194.034Y-49.207
X196.574Y-49.207
X199.114Y-49.207
X201.654Y-49.207
X204.194Y-49.207
X206.734Y-49.207
X209.274Y-49.207
T6
X36.576Y-86.797
X39.116Y-86.797
X41.656Y-86.797
X52.428Y-111.542
X52.428Y-116.042
X52.428Y-125.548
X52.428Y-130.048
X58.928Y-111.542
X58.928Y-116.042
X58.928Y-125.548
X58.928Y-130.048
T7
X32.268Y-175.26
X34.718Y-173.26
X38.418Y-175.26
X40.318Y-173.26
X44.068Y-175.26
T8
X30.988Y-39.624
X30.988Y-209.296
X238.76Y-39.624
X238.76Y-209.296
T9
X45.212Y-141.224
X45.212Y-166.224
T4
G00X34.01Y-122.182
M15
G01X35.51Y-122.182
M16
G05
G00X34.01Y-135.882
M15
G01X35.51Y-135.882
M16
G05
G00X34.104Y-105.134
M15
G01X35.604Y-105.134
M16
G05
G00X34.104Y-118.834
M15
G01X35.604Y-118.834
M16
G05
G00X35.052Y-94.562
M15
G01X35.052Y-96.562
M16
G05
G00X35.56Y-130.032
M15
G01X35.56Y-128.032
M16
G05
G00X35.654Y-112.984
M15
G01X35.654Y-110.984
M16
G05
G00X37.052Y-100.262
M15
G01X39.052Y-100.262
M16
G05
G00X41.052Y-94.562
M15
G01X41.052Y-96.562
M16
G05
T0
M30
